<svg width="106" height="80" viewBox="0 0 106 80" fill="none" xmlns="http://www.w3.org/2000/svg">
<g clip-path="url(#clip0_511_213)">
<path d="M0 23.9909C0.579687 23.4984 1.07656 22.8418 1.73906 22.5955C2.70521 22.2672 3.64375 22.8965 4.0026 23.8815C4.36146 24.8117 3.975 25.824 3.09167 26.3165C2.20833 26.809 1.18698 26.6448 0.496875 25.8514C0.33125 25.6325 0.165625 25.441 0 25.2221C0 24.8117 0 24.4013 0 23.9909Z" fill="#191919"/>
<path d="M63.4068 74.091C63.1584 74.6108 62.9099 75.1306 62.6339 75.6231C61.0605 78.6053 57.8584 80.329 54.6839 79.9186C51.0126 79.4535 48.3626 77.1826 47.5896 73.7079C45.9886 66.3208 44.4152 58.9336 42.8417 51.5738C42.7865 51.355 42.7037 51.1361 42.5657 50.5889C42.4001 51.1361 42.2896 51.4097 42.2344 51.6833C40.7162 58.8242 39.1152 65.9651 37.6797 73.1334C36.4376 79.2619 30.3646 81.2592 26.086 79.1799C24.2641 78.3044 23.0495 76.8817 22.1938 75.0759C18.7433 67.9897 15.3756 60.9035 11.8146 53.8721C9.90995 50.1238 7.53599 46.6217 5.54849 42.9282C4.16829 40.3563 3.03651 37.6204 1.90474 34.9117C1.29745 33.489 1.84953 32.3126 3.09172 31.9022C4.2787 31.5191 5.30006 32.1484 5.79693 33.5985C7.09433 37.3741 9.10943 40.7667 11.0969 44.2414C14.1058 49.4945 16.8938 54.857 19.6542 60.2469C21.835 64.515 23.8225 68.8652 25.8928 73.1881C26.8313 75.1306 28.2391 76.0335 29.9782 75.8693C31.9105 75.6505 33.1251 74.5014 33.5667 72.3399C35.1402 65.0349 36.7136 57.7024 38.287 50.3974C38.7839 48.1265 40.3573 46.7859 42.5105 46.7585C44.7188 46.7312 46.3198 48.0718 46.8167 50.3974C48.3902 57.7024 49.9636 65.0349 51.537 72.3399C51.9787 74.474 53.1933 75.6505 55.1532 75.8693C56.8646 76.0609 58.2172 75.0759 59.2386 73.3249C60.0943 71.8475 59.9287 70.9172 58.7969 69.5492C52.2823 61.4781 50.7089 52.3946 54.5183 42.7914C58.3277 33.2154 65.698 27.7161 75.9667 26.1293C76.7949 25.9925 77.623 25.9651 78.4511 25.9377C79.224 25.9104 80.0245 25.9377 80.8803 25.9377C81.1011 23.6942 80.9079 21.5054 80.3282 19.3987C79.086 14.9117 76.8224 10.9993 73.0959 8.07179C67.6027 3.72159 61.5021 3.14703 55.098 5.71885C53.2485 6.45757 51.537 7.46988 49.798 8.45483C48.1141 9.38506 46.5131 10.3974 44.912 11.355C47.1756 12.3946 49.5771 12.3946 52.0339 11.4097C52.5584 11.1908 53.1657 10.9719 53.7178 10.9993C54.6563 11.054 55.2912 11.6559 55.4844 12.6135C55.6777 13.5711 55.2636 14.4193 54.2974 14.8844C51.0402 16.4712 47.6725 16.6901 44.2495 15.5137C41.3511 14.5287 39.0599 12.723 37.4037 10.1511C37.2381 9.9049 37.0724 9.60394 36.824 9.43978C33.5667 7.1142 30.1162 5.19902 26.1136 4.48766C18.7433 3.20175 12.9464 5.88301 8.50214 11.6833C7.53599 12.9418 6.81828 14.4193 6.04537 15.842C5.32766 17.1552 4.2787 17.7024 3.11933 17.1826C2.01516 16.6628 1.65631 15.4589 2.2912 14.1183C5.5761 7.16892 10.6553 2.29888 18.3568 0.520493C23.9053 -0.765417 29.0948 0.438414 34.0636 2.95551C35.7751 3.83103 37.4037 4.84334 39.0323 5.91037C41.7376 7.68876 43.4214 7.71612 46.0714 5.91037C49.8532 3.33855 53.8558 1.17713 58.4381 0.411054C67.3818 -1.06637 74.5037 2.16208 79.8865 9.16619C83.5579 13.9268 85.3797 19.3987 85.1037 25.4453C85.0761 26.2934 85.3245 26.5944 86.1527 26.8132C98.2985 30.0143 106.469 41.0951 106.028 53.7626C105.614 65.8283 96.5594 76.3892 84.524 78.7148C77.2365 80.1375 70.4735 78.7148 64.3178 74.5834C64.1245 74.4466 63.9313 74.3098 63.7105 74.173C63.6001 74.1457 63.5448 74.1457 63.4068 74.091ZM79.3068 75.1033C91.7287 75.1033 101.832 64.9801 101.859 52.5588C101.859 40.1375 91.7287 29.987 79.3344 29.987C66.8849 29.9596 56.7266 40.1375 56.7266 52.6135C56.7542 65.0349 66.8849 75.1033 79.3068 75.1033Z" fill="#191919"/>
<path d="M72.2401 45.5248C72.2401 44.4578 72.2125 43.5276 72.2401 42.6247C72.2954 40.0803 74.2276 38.1651 76.7948 38.1377C78.4787 38.1103 80.1625 38.1103 81.874 38.1377C84.386 38.1924 86.2907 40.0803 86.3459 42.5974C86.3735 43.5276 86.3459 44.4305 86.3459 45.5248C87.2016 45.5248 88.0021 45.5248 88.8302 45.5248C91.8943 45.5522 93.7714 47.4127 93.799 50.4496C93.799 51.9544 93.8266 53.4592 93.799 54.964C93.7438 57.5905 91.8943 59.4783 89.2443 59.5604C88.3334 59.5878 87.3948 59.5604 86.3735 59.5604C86.3735 60.5727 86.3735 61.4482 86.3735 62.3238C86.3459 64.9503 84.524 66.8655 81.874 66.9749C80.1901 67.057 78.5063 67.057 76.7948 66.9749C74.0896 66.8655 72.2953 64.9503 72.2677 62.2417C72.2677 61.3935 72.2677 60.5454 72.2677 59.5604C71.3292 59.5604 70.4735 59.5604 69.6454 59.5604C66.7745 59.5057 64.8698 57.6452 64.8422 54.7725C64.8422 53.2403 64.8146 51.7082 64.8422 50.1487C64.8698 47.44 66.8021 45.5249 69.5625 45.4975C70.3907 45.4975 71.2464 45.5248 72.2401 45.5248ZM76.3808 45.2239C76.3808 45.9079 76.3808 46.5919 76.3808 47.2759C76.3532 48.808 75.5526 49.6015 74.0068 49.6288C72.6266 49.6562 71.2464 49.6562 69.8662 49.6288C69.2313 49.6288 68.9 49.793 68.9276 50.5043C68.9552 51.8723 68.9552 53.2403 68.9276 54.6083C68.9 55.2923 69.2037 55.5112 69.8386 55.5112C71.2464 55.4838 72.6542 55.4838 74.0896 55.5112C75.6079 55.5659 76.3532 56.332 76.3808 57.8367C76.4084 59.2321 76.4084 60.6274 76.3808 62.0502C76.3532 62.7342 76.6292 62.953 77.2917 62.953C78.6443 62.9257 79.9693 62.9257 81.3219 62.953C81.9844 62.953 82.2328 62.7068 82.2052 62.0228C82.1776 60.6822 82.1776 59.3689 82.2052 58.0283C82.2052 56.2772 82.9506 55.5385 84.7172 55.5112C86.0146 55.4838 87.3396 55.4838 88.637 55.5112C89.4099 55.5385 89.6584 55.2376 89.6308 54.4989C89.5756 53.1582 89.6032 51.845 89.6308 50.5043C89.6308 49.9024 89.4099 49.6562 88.775 49.6562C87.5052 49.6835 86.2355 49.6562 84.9381 49.6562C82.8954 49.6562 82.1776 48.9722 82.1776 46.9749C82.1776 45.689 82.15 44.3757 82.1776 43.0898C82.1776 42.5426 82.0396 42.269 81.4323 42.269C79.9969 42.2964 78.5339 42.2417 77.0985 42.2964C76.85 42.2964 76.436 42.7342 76.4084 43.0077C76.3256 43.6917 76.3808 44.4578 76.3808 45.2239Z" fill="#191919"/>
</g>
<defs>
<clipPath id="clip0_511_213">
<rect width="106" height="80" fill="white"/>
</clipPath>
</defs>
</svg>
