<svg width="83" height="80" viewBox="0 0 83 80" fill="none" xmlns="http://www.w3.org/2000/svg">
<g clip-path="url(#clip0_511_218)">
<path d="M0 28.1498C0.237699 26.9194 0.41057 25.6458 0.734705 24.4369C4.32179 11.2475 19.2104 4.90103 31.2898 11.3986C31.441 11.4849 31.5707 11.5497 31.6355 11.5929C32.5863 10.6431 33.5155 9.71484 34.5095 8.70027C33.7748 7.96633 32.9537 7.12445 32.0893 6.32574C31.5491 5.80766 31.2249 5.22483 31.441 4.44771C31.6571 3.67059 32.2838 3.38996 33.0185 3.23886C38.3343 2.18111 43.6501 1.12337 48.9659 0.0656242C50.5001 -0.236588 51.4077 0.670049 51.1052 2.22429C50.0463 7.49142 49.0091 12.737 47.9503 18.0041C47.799 18.7596 47.5613 19.4288 46.7618 19.6879C45.919 19.9469 45.314 19.5368 44.7738 18.9539C43.9958 18.1336 43.1963 17.3349 42.3103 16.4283C41.4028 17.3565 40.5384 18.22 39.7173 19.105C39.5876 19.2345 39.6524 19.6447 39.7605 19.8606C41.5324 23.1849 42.3536 26.7467 42.2887 30.5243C42.0942 40.411 34.6392 49.0241 24.8287 50.6862C13.3543 52.6074 2.74434 45.3975 0.388961 34.0214C0.237699 33.2658 0.129654 32.4887 0 31.7332C0 30.5243 0 29.3371 0 28.1498ZM36.1734 5.9156C36.8433 6.54161 37.3619 6.99493 37.8589 7.46983C38.8097 8.41964 38.8097 9.23994 37.8589 10.1897C36.4543 11.6145 35.0281 13.0176 33.6019 14.4207C32.4567 15.5648 32.0029 15.608 30.6415 14.7661C27.1625 12.6074 23.3809 11.744 19.34 12.1541C9.33507 13.1687 2.1825 22.0192 3.41422 32.0138C4.27857 39.0511 8.16819 44.016 14.7589 46.52C21.5441 49.0888 27.8972 47.88 33.2994 43.0014C39.7821 37.1298 40.9058 27.7181 36.2598 20.2707C35.5467 19.1482 35.6116 18.5654 36.5624 17.6155C38.0318 16.1477 39.5012 14.6798 40.9922 13.2119C41.9214 12.3052 42.7425 12.3052 43.6717 13.2119C44.1903 13.7084 44.6873 14.2049 45.2924 14.8093C46.0487 11.01 46.7834 7.38349 47.5397 3.62742C43.7581 4.40453 40.1278 5.13848 36.1734 5.9156Z" fill="#191919"/>
<path d="M38.0749 63.1421C36.9729 64.2646 36.0005 65.236 34.9632 66.2722C35.3738 66.6823 35.806 67.1357 36.2598 67.589C37.1458 68.5172 37.1458 69.3375 36.2382 70.2657C35.3522 71.1723 34.4446 72.0358 33.5371 72.9209C34.5959 73.957 35.6115 74.9068 36.7136 75.9862C37.4483 75.2306 38.291 74.3672 39.1338 73.5253C40.3223 72.338 41.0138 72.3596 42.2022 73.5469C42.5696 73.9138 42.8937 74.3024 43.1747 74.6262C44.2551 73.5253 45.2491 72.5323 46.3728 71.3882C45.9838 71.0428 45.4436 70.6327 44.9682 70.1578C44.1903 69.3807 44.1687 68.5172 44.9466 67.7185C46.524 66.1211 48.1015 64.5453 49.7222 62.9694C50.4569 62.2571 51.1267 62.2355 52.1424 62.8615C55.1676 64.7827 58.4522 65.7325 62.0393 65.6893C64.1137 65.6678 66.1234 65.2792 68.0466 64.5668C68.2843 64.4805 68.5003 64.3726 68.7164 64.3078C69.6888 64.0056 70.5316 64.351 70.8773 65.1929C71.2231 66.0563 70.8341 66.9414 69.8401 67.3299C65.1077 69.2295 60.2889 69.467 55.4269 67.9344C54.152 67.5242 52.9419 66.9198 51.7102 66.3585C51.2996 66.1642 51.0619 66.1427 50.7378 66.488C49.9815 67.2868 49.1819 68.0639 48.1663 69.0569C48.7065 69.4886 49.2684 69.8771 49.7438 70.3521C50.5649 71.1508 50.5649 72.0358 49.7654 72.8345C48.0583 74.5614 46.3296 76.2884 44.6008 77.9721C43.8013 78.7708 42.9153 78.7492 42.0942 77.9937C41.8565 77.7778 41.6188 77.5404 41.4027 77.3029C41.1866 77.0655 40.9921 76.8065 40.7112 76.4611C39.7604 77.3893 38.9393 78.2312 38.0965 79.0515C36.8648 80.2819 36.195 80.2819 34.9632 79.0515C33.3858 77.4972 31.8299 75.9214 30.2525 74.3672C29.2801 73.3958 29.2801 72.5539 30.2525 71.5825C31.1385 70.719 32.0244 69.8556 32.9968 68.9058C32.435 68.3661 31.938 67.9128 31.4842 67.4379C30.7063 66.6176 30.6847 65.7541 31.5058 64.9554C33.2129 63.2285 34.9416 61.5015 36.6704 59.8178C37.4915 59.0191 38.3342 59.0191 39.1554 59.8178C39.6308 60.2711 40.0414 60.7676 40.56 61.3288C41.5108 60.379 42.3967 59.5156 43.2179 58.6305C43.3259 58.5226 43.2611 58.134 43.153 57.9397C41.3163 54.5291 40.4951 50.9025 40.6032 47.0385C40.8625 37.1518 48.6417 28.4093 58.4306 27.0277C69.9265 25.4087 80.1044 32.446 82.4813 43.7358C83.3673 47.8804 82.9135 51.9387 81.3145 55.8674C80.8823 56.9252 80.0611 57.3353 79.1536 56.9899C78.2244 56.623 77.9219 55.7379 78.3324 54.637C80.7526 48.2905 80.0827 42.2463 75.8474 36.936C71.0934 30.9349 64.6972 28.7331 57.2853 30.6327C49.8302 32.5323 45.4004 37.6052 44.0606 45.1605C43.2827 49.4778 44.2335 53.5793 46.5673 57.3353C47.3884 58.6737 47.3452 59.1486 46.2647 60.2279C44.8602 61.6095 43.4772 63.0126 42.0726 64.3941C40.9921 65.4735 40.2142 65.4735 39.1122 64.3726C38.788 63.9624 38.4639 63.5523 38.0749 63.1421Z" fill="#191919"/>
<path d="M74.7238 47.8542C74.7022 54.9993 68.9542 60.7198 61.7584 60.6982C54.6275 60.6766 48.9011 54.9562 48.9011 47.8326C48.9011 40.6442 54.6707 34.9238 61.9097 34.9454C69.0191 34.967 74.7454 40.7306 74.7238 47.8542ZM52.1425 47.811C52.1209 53.1861 56.421 57.4818 61.8017 57.4818C67.1607 57.4818 71.4393 53.2292 71.4609 47.8973C71.4825 42.5223 67.2039 38.205 61.8233 38.1834C56.4643 38.1618 52.1641 42.4359 52.1425 47.811Z" fill="#191919"/>
<path d="M76.8414 62.0583C76.8414 62.9434 76.1499 63.6342 75.2639 63.6558C74.378 63.6558 73.6433 62.965 73.6217 62.1015C73.6001 61.1949 74.3564 60.4609 75.2639 60.4609C76.1499 60.4609 76.8414 61.1733 76.8414 62.0583Z" fill="#191919"/>
<path d="M34.0557 30.005C34.0125 37.107 28.2429 42.8491 21.1119 42.8275C13.9161 42.8059 8.16814 36.9991 8.23296 29.8108C8.27618 22.7088 14.089 16.9883 21.1983 17.0315C28.3725 17.0747 34.0989 22.8599 34.0557 30.005ZM30.8143 29.8971C30.7927 24.5436 26.4493 20.2047 21.1119 20.2479C15.7313 20.2911 11.4527 24.6084 11.4959 29.9835C11.5175 35.2938 15.8393 39.5895 21.1767 39.5895C26.5141 39.5895 30.8359 35.2506 30.8143 29.8971Z" fill="#191919"/>
</g>
<defs>
<clipPath id="clip0_511_218">
<rect width="83" height="80" fill="white"/>
</clipPath>
</defs>
</svg>
