<svg width="50" height="80" viewBox="0 0 50 80" fill="none" xmlns="http://www.w3.org/2000/svg">
<g clip-path="url(#clip0_511_224)">
<path d="M26.5681 0C27.8147 0.390244 29.0028 0.839024 29.9183 1.85366C31.7492 3.88293 31.944 7.00488 30.4052 9.36585C30.2689 9.58049 30.1131 9.79512 29.9183 10.0878C36.1512 12.1756 40.4364 16.2341 42.2089 22.5951C43.9619 28.9366 42.3842 34.6146 38.1769 39.4927C39.5404 40.4488 40.9623 41.3073 42.2284 42.3805C45.8708 45.4439 48.0523 49.3659 48.8704 54.0488C49.3573 56.8195 48.6171 59.2 46.6109 61.1707C46.4746 61.2878 46.3577 61.4439 46.2214 61.6C48.0523 62.7902 49.3184 64.3902 49.7858 66.5366C50.2728 68.722 49.9417 70.7903 48.6171 72.6244C47.4679 74.2244 46.2408 75.7854 44.9942 77.3073C42.7738 79.9805 39.2288 80.7024 36.2876 79.1024C33.3269 77.5024 31.9635 74.0878 33.0932 70.7512C33.7554 68.761 34.6125 66.8293 35.45 64.8976C35.9954 63.6293 36.9109 62.6342 38.0796 61.8927C38.4691 61.639 38.6444 61.3659 38.6249 60.8781C38.586 60 38.6055 59.1024 38.6249 58.2244C38.6444 57.522 38.2938 57.2293 37.6316 57.2293C37.4563 57.2293 37.2615 57.2293 37.0862 57.2293C29.0418 57.2293 20.9779 57.2293 12.9335 57.2293C11.5116 57.2293 11.4337 57.3268 11.4337 58.7317C11.4337 59.5317 11.4337 60.3317 11.4337 61.2488C11.7843 61.2683 12.0764 61.2878 12.3686 61.2878C16.6343 61.2878 20.8805 61.2878 25.1462 61.2878C26.6265 61.2878 27.3861 61.8537 27.3472 62.8878C27.3082 63.9024 26.5875 64.4098 25.1462 64.4098C21.8933 64.4098 18.66 64.4098 15.4072 64.4098C15.115 64.4098 14.8423 64.4098 14.4138 64.4098C14.6281 64.9171 14.8228 65.3268 14.9981 65.7366C15.6799 67.4537 16.4395 69.1317 17.0044 70.8878C18.0367 74.0683 16.6927 77.4439 13.81 79.0634C10.9662 80.6634 7.38225 80.039 5.20071 77.4829C3.95412 76.0195 2.78544 74.4976 1.63624 72.9561C-1.09068 69.2878 -0.272603 64.4878 3.48665 61.8537C3.58404 61.7756 3.68143 61.6976 3.64247 61.7366C2.92179 60.5659 2.06476 59.4927 1.53885 58.2829C0.545473 56.0585 1.07138 53.7756 1.75311 51.5707C3.3503 46.478 6.52522 42.6537 11.1805 40.0585C11.3752 39.9415 11.5895 39.8244 11.7843 39.7073C11.8232 39.6878 11.8622 39.6293 11.7453 39.7463C10.6935 37.9707 9.50535 36.3122 8.64832 34.4976C5.06437 26.7707 8.0445 16.9756 15.1734 12.3902C18.212 10.439 21.5427 9.58049 25.0877 9.36585C27.055 9.24878 28.4769 7.43415 28.3016 5.48293C28.1847 4.19512 27.094 3.16098 25.8084 3.14146C24.7177 3.12195 24.1138 3.59024 23.8996 4.6439C23.6853 5.6 23.0036 6.12683 22.1271 5.99024C21.2506 5.85366 20.7441 5.13171 20.8221 4.17561C20.9779 2.34146 22.166 0.878049 23.958 0.312195C24.2502 0.214634 24.5424 0.117073 24.8345 0.0195122C25.4189 0 25.9837 0 26.5681 0ZM24.9709 12.5659C16.8096 12.6244 10.1676 19.2976 10.226 27.3951C10.2845 35.5707 17.0044 42.2439 25.1072 42.1463C33.2101 42.0488 39.8131 35.3756 39.7741 27.3171C39.7352 19.161 33.0348 12.5073 24.9709 12.5659ZM13.7126 54.0098C21.3285 54.0098 28.7886 54.0098 36.2486 54.0098C36.2876 53.3659 36.2876 52.8 36.3655 52.2341C36.4824 51.4927 37.1057 51.0049 37.8263 50.9854C38.5665 50.9854 39.2093 51.4732 39.3261 52.1951C39.4041 52.722 39.3456 53.2878 39.4235 53.8146C39.4625 54.1073 39.6183 54.4585 39.8521 54.6146C41.0402 55.4732 41.7414 56.5854 41.7219 58.1073C41.7025 58.7512 41.7219 59.3951 41.7219 60.1366C42.0725 60.0781 42.3258 60.0585 42.5595 60C44.7995 59.3561 46.2798 57.0341 45.8513 54.7512C44.741 48.839 41.5077 44.5659 35.9954 42.1268C35.7227 42.0098 35.2747 42.0488 35.041 42.2049C28.36 46.3415 21.6986 46.3415 15.0176 42.2049C14.7644 42.0488 14.3164 42.0293 14.0632 42.1268C9.34952 44.1561 6.25252 47.6683 4.71376 52.5463C4.30472 53.8732 3.91516 55.239 4.28525 56.6829C4.75272 58.5756 6.56417 60.1366 8.33667 60.039C8.33667 59.2781 8.31719 58.4976 8.33667 57.7171C8.37562 56.6049 8.80414 55.6098 9.70013 55.0439C10.5377 54.5171 10.7519 53.8732 10.6351 52.9951C10.6156 52.8976 10.6351 52.7805 10.6351 52.6829C10.6935 51.6293 11.2778 50.9854 12.1933 51.0049C13.0698 51.0049 13.6542 51.6098 13.7321 52.6244C13.7515 53.0732 13.7126 53.5219 13.7126 54.0098ZM2.98022 68.2927C3.27239 69.0927 3.40874 69.9707 3.87621 70.6537C5.06437 72.3512 6.33044 73.9902 7.67442 75.5707C8.8431 76.9561 10.8104 77.1707 12.3491 76.2732C13.8295 75.3951 14.6281 73.561 14.0437 71.9024C13.362 69.9512 12.5829 68.0195 11.7064 66.1463C10.7909 64.1951 8.66779 63.3171 6.52522 63.8439C4.55794 64.3122 3.175 66.1268 2.98022 68.2927ZM46.8836 68.1756C46.8447 67.8439 46.8252 67.4927 46.7473 67.1805C46.2408 65.1902 44.6826 63.8829 42.6569 63.7073C40.6896 63.5512 38.9561 64.5854 38.099 66.5366C37.3783 68.1756 36.7161 69.8342 36.0928 71.5122C35.3721 73.4049 36.0733 75.3756 37.7095 76.2927C39.3846 77.2293 41.3713 76.8195 42.6569 75.239C43.7282 73.9122 44.78 72.5463 45.8123 71.2C46.494 70.3024 46.9031 69.3073 46.8836 68.1756Z" fill="#191919"/>
<path d="M25.0098 80.0028C23.6659 79.9247 22.3024 79.9638 20.9779 79.7491C19.4391 79.4955 18.3289 78.5003 17.6666 77.0564C17.2576 76.1784 17.5303 75.3198 18.3094 74.9101C19.0496 74.5198 19.8871 74.754 20.3546 75.593C20.8805 76.5296 21.6401 76.8613 22.6725 76.8223C24.2892 76.7833 25.8863 76.8028 27.503 76.8223C28.3795 76.8418 29.0418 76.5296 29.5093 75.7491C30.0936 74.7735 30.9117 74.5003 31.7103 74.9491C32.5478 75.4174 32.7231 76.315 32.1777 77.3296C31.2818 78.9686 29.8793 79.8272 28.0289 79.9247C27.0161 79.9833 26.0032 79.9442 24.9904 79.9442C25.0098 79.9442 25.0098 79.9637 25.0098 80.0028Z" fill="#191919"/>
<path d="M33.5216 62.8266C33.5216 63.6461 32.8009 64.3486 31.9829 64.3486C31.1453 64.3486 30.4441 63.6657 30.4441 62.8266C30.4441 61.9876 31.1258 61.3047 31.9829 61.3047C32.8009 61.3047 33.5216 62.0071 33.5216 62.8266Z" fill="#191919"/>
<path d="M25.0292 37.018C23.2762 36.9985 21.8153 36.3351 20.6467 35.0278C20.0039 34.3253 20.0039 33.4083 20.6272 32.8034C21.231 32.1985 22.088 32.218 22.7892 32.8229C24.5617 34.3253 25.4382 34.3253 27.2497 32.8034C27.9509 32.1985 28.8274 32.218 29.4117 32.8229C29.9961 33.4278 30.0156 34.3058 29.4117 34.9888C28.2431 36.3156 26.7822 36.9985 25.0292 37.018Z" fill="#191919"/>
<path d="M18.5041 24.9531C19.3611 25.3824 20.1987 25.6556 20.8999 26.1434C21.64 26.6702 21.6985 27.6068 21.1726 28.2897C20.6661 28.9531 19.8481 29.1092 19.1079 28.6019C18.6794 28.3092 18.3483 28.3092 17.9197 28.6019C17.1601 29.0897 16.342 28.9531 15.8356 28.3092C15.3097 27.6263 15.3681 26.6897 16.1083 26.1629C16.79 25.6556 17.6276 25.3629 18.5041 24.9531Z" fill="#191919"/>
<path d="M34.5149 27.2402C34.5149 28.528 33.2294 29.3085 32.236 28.6841C31.6906 28.3329 31.301 28.3329 30.7751 28.7036C30.1908 29.1134 29.3922 28.9378 28.9442 28.4109C28.4573 27.8646 28.3599 27.2402 28.73 26.6158C29.3727 25.6012 30.3856 25.2109 31.5153 25.2109C32.645 25.2109 33.6579 25.6207 34.3007 26.6353C34.437 26.8305 34.476 27.1036 34.5149 27.2402Z" fill="#191919"/>
</g>
<defs>
<clipPath id="clip0_511_224">
<rect width="50" height="80" fill="white"/>
</clipPath>
</defs>
</svg>
