<svg width="80" height="80" viewBox="0 0 80 80" fill="none" xmlns="http://www.w3.org/2000/svg">
<g clip-path="url(#clip0_511_203)">
<path d="M29.375 80C28.8125 79.875 28.2708 79.7501 27.7083 79.6043C22.7916 78.2296 19.5416 73.7933 19.6875 68.628C19.8125 63.7751 23.3958 59.5053 28.25 58.4015C28.4791 58.3598 28.7083 58.2973 29.0416 58.214C29.0416 57.9432 29.0416 57.6308 29.0416 57.3392C29.0416 46.4879 29.0208 35.6366 29.0416 24.7852C29.0625 15.5793 32.2291 7.60219 38.5 0.874776C39.5625 -0.270759 40.375 -0.270759 41.4375 0.874776C46.4375 6.16506 49.4583 12.4134 50.5416 19.5782C50.8125 21.3486 50.8958 23.1606 50.8958 24.9518C50.9375 35.7199 50.9166 46.5087 50.9166 57.2768C50.9166 57.5892 50.9166 57.9016 50.9166 58.2348C53.1666 58.6306 55.1458 59.4845 56.75 61.0466C59.9583 64.1708 61.0833 67.9406 59.7708 72.2312C58.4791 76.4801 55.4791 78.9794 51.1041 79.8542C50.9375 79.8959 50.7708 79.9583 50.5833 80C49.75 80 48.9166 80 48.0833 80C47.9583 79.9583 47.8541 79.8959 47.7291 79.875C44.5208 79.3752 42.0416 77.7298 40.2083 75.0638C40.125 74.9388 40 74.8139 39.8958 74.6889C37.7916 77.584 36.0833 78.8961 33.5208 79.6043C32.9791 79.7501 32.4166 79.875 31.8541 80C31.0416 80 30.2083 80 29.375 80ZM38.4375 6.06093C34.9166 10.5806 32.7916 15.6834 32.3958 21.3278C32.1041 25.4934 32.1666 29.7006 32.2291 33.887C32.2916 37.761 35.6041 41.0102 39.5 41.2393C41.1666 41.3434 41.5625 41.76 41.5625 43.4678C41.5625 51.674 41.5625 59.8594 41.5625 68.0656C41.5625 68.7946 41.6041 69.5236 41.7083 70.2317C42.2708 74.2723 45.8333 77.1257 49.9375 76.855C53.9791 76.5842 57.1875 73.1268 57.1875 69.0653C57.1875 64.9831 53.9791 61.5465 49.9375 61.2757C48.1875 61.1716 47.8125 60.755 47.8125 59.0263C47.8125 50.5493 47.8333 42.0516 47.8125 33.5746C47.8125 29.2632 44.5625 25.8474 40.375 25.66C38.9375 25.5975 38.4583 25.0976 38.4583 23.6189C38.4583 18.0578 38.4583 12.4759 38.4583 6.91487C38.4375 6.60245 38.4375 6.33169 38.4375 6.06093ZM32.1875 41.0935C32.1875 42.239 32.1875 43.1763 32.1875 44.1135C32.1875 49.2164 32.1875 54.3192 32.1875 59.422C32.1875 60.63 31.625 61.1924 30.4583 61.2549C30.0208 61.2757 29.5833 61.3174 29.1458 61.4007C25.8333 62.0047 23.25 64.8373 22.8541 68.2947C22.4791 71.6064 24.4375 74.8763 27.6041 76.251C30.6875 77.6048 34.25 76.7508 36.4375 74.1474C37.8125 72.502 38.4583 70.5858 38.4583 68.4613C38.4583 60.63 38.4583 52.7988 38.4583 44.9466C38.4583 44.7175 38.4375 44.4884 38.4166 44.2593C36.0208 43.8636 34.0208 42.8638 32.1875 41.0935ZM41.6041 22.6191C44.0208 23.0148 46.0208 24.0562 47.7916 25.7433C48.1666 18.9326 44.9791 8.85186 41.6041 6.0401C41.6041 11.5595 41.6041 17.0581 41.6041 22.6191Z" fill="#191919"/>
<path d="M0 9.70773C0.104167 9.24952 0.208333 8.7913 0.3125 8.35392C1.41667 3.68847 5.77083 0.126895 10.5208 0.0435836C11.8958 -0.0189002 12.5 0.564281 12.5 1.9181C12.5 25.8077 12.5 49.6973 12.5 73.5869C12.5 76.7528 10.5833 79.1063 7.45833 79.8561C7.35417 79.877 7.27083 79.9394 7.1875 79.9811C6.5625 79.9811 5.9375 79.9811 5.3125 79.9811C4.41667 79.5854 3.45833 79.3146 2.64583 78.7939C1.14583 77.8775 0.4375 76.357 0 74.6908C0 53.0298 0 31.3688 0 9.70773ZM9.33333 3.35522C9.22917 3.37605 9.14583 3.35522 9.0625 3.37605C5.70833 4.12585 3.14583 7.25004 3.125 10.7908C3.08333 18.2888 3.10417 25.7869 3.10417 33.2641C3.10417 33.4099 3.14583 33.5557 3.14583 33.6807C5.22917 33.6807 7.27083 33.6807 9.3125 33.6807C9.33333 23.5375 9.33333 13.4568 9.33333 3.35522ZM9.375 55.6749C7.25 55.6749 5.20833 55.6749 3.125 55.6749C3.125 55.9457 3.125 56.1331 3.125 56.3414C3.125 62.0483 3.125 67.7343 3.125 73.4411C3.125 75.4198 4.39583 76.8361 6.20833 76.8569C8.04167 76.8777 9.375 75.4614 9.375 73.4411C9.375 69.8171 9.375 66.2139 9.375 62.5898C9.375 60.3196 9.375 58.0285 9.375 55.6749ZM9.3125 43.0949C9.3125 41.0121 9.3125 38.9709 9.3125 36.9506C7.22917 36.9506 5.1875 36.9506 3.14583 36.9506C3.14583 39.0334 3.14583 41.0537 3.14583 43.0949C5.22917 43.0949 7.25 43.0949 9.3125 43.0949ZM9.35417 46.3024C7.25 46.3024 5.20833 46.3024 3.16667 46.3024C3.16667 48.3852 3.16667 50.4263 3.16667 52.4466C5.25 52.4466 7.29167 52.4466 9.35417 52.4466C9.35417 50.3846 9.35417 48.3852 9.35417 46.3024Z" fill="#191919"/>
<path d="M68.6042 80.0026C67.7501 79.5444 67.4792 78.8362 67.5001 77.8782C67.5417 72.7545 67.5209 67.6308 67.5001 62.4863C67.5001 62.049 67.3334 61.5699 67.0834 61.2158C65.8959 59.5704 64.6876 57.9459 63.4376 56.3421C63.0001 55.7797 62.8126 55.1966 62.8126 54.4676C62.8334 42.3666 62.8126 30.2656 62.8126 18.1645C62.8126 17.873 62.8126 17.6022 62.8126 17.2065C61.9167 17.2065 61.0834 17.2065 60.2292 17.2065C58.8751 17.2065 58.1459 16.6649 58.1251 15.6652C58.1042 14.6655 58.8542 14.0823 60.1876 14.0823C62.5834 14.0823 64.9792 14.0823 67.4376 14.0823C67.4376 10.4582 67.4376 6.85499 67.4376 3.14762C66.5209 3.14762 65.6042 3.14762 64.6667 3.14762C63.5209 3.14762 62.8126 2.54361 62.8126 1.58553C62.8126 0.648275 63.5209 0.0234375 64.6459 0.0234375C67.5834 0.0234375 70.5209 0.0234375 73.4792 0.0234375C74.6042 0.0234375 75.3126 0.669103 75.2917 1.60636C75.2709 2.52279 74.5834 3.1268 73.5001 3.14762C72.5626 3.14762 71.6459 3.14762 70.6667 3.14762C70.6667 6.79251 70.6667 10.3749 70.6667 14.0823C70.9167 14.0823 71.1876 14.0823 71.4584 14.0823C73.6667 14.0823 75.8751 14.0823 78.1042 14.0823C79.2917 14.0823 80.0209 14.7071 80.0001 15.686C79.9792 16.6233 79.2709 17.2065 78.1251 17.2065C77.2292 17.2065 76.3126 17.2065 75.3334 17.2065C75.3334 17.5605 75.3334 17.8313 75.3334 18.1021C75.3334 23.3507 75.3334 28.6202 75.3334 33.8688C75.3334 34.0979 75.3334 34.3478 75.3334 34.5769C75.2709 35.4725 74.6042 36.0974 73.7501 36.0974C72.9167 36.0765 72.2501 35.4309 72.2084 34.5353C72.1876 33.4731 72.2084 32.4108 72.2084 31.307C70.1042 31.307 68.0626 31.307 65.9584 31.307C65.9584 31.6194 65.9584 31.8901 65.9584 32.1817C65.9584 39.3674 65.9584 46.553 65.9792 53.7386C65.9792 54.1968 66.1667 54.6967 66.4167 55.0716C67.2501 56.2588 68.1459 57.4043 69.0834 58.654C70.1251 57.2585 71.1251 55.9464 72.1042 54.6134C72.2292 54.4468 72.2084 54.176 72.2084 53.9469C72.2084 52.2598 72.2084 50.5728 72.2084 48.8649C72.2084 47.7818 72.8126 47.0737 73.7292 47.0529C74.6667 47.032 75.3334 47.7402 75.3334 48.8649C75.3334 50.8227 75.3751 52.7805 75.3126 54.7175C75.2917 55.2174 75.1042 55.8006 74.7917 56.2171C73.5626 57.925 72.2709 59.5913 71.0209 61.2991C70.7917 61.6116 70.6459 62.049 70.6459 62.4239C70.6251 67.5683 70.6042 72.7337 70.6459 77.8782C70.6459 78.8362 70.3751 79.5444 69.5417 80.0026C69.2292 80.0026 68.9167 80.0026 68.6042 80.0026ZM65.9792 28.0786C68.0834 28.0786 70.1251 28.0786 72.1251 28.0786C72.1251 24.4337 72.1251 20.8305 72.1251 17.2481C70.0417 17.2481 68.0209 17.2481 65.9792 17.2481C65.9792 20.8513 65.9792 24.4337 65.9792 28.0786Z" fill="#191919"/>
<path d="M75.3125 41.5925C75.2917 42.4464 74.5417 43.1546 73.6875 43.1129C72.8542 43.0713 72.1875 42.3631 72.2084 41.53C72.2292 40.6761 72.9792 39.9679 73.8334 40.0096C74.6459 40.0512 75.3334 40.7594 75.3125 41.5925Z" fill="#191919"/>
<path d="M54.0624 69.0692C54.0624 71.6311 51.9583 73.7347 49.3958 73.7347C46.7916 73.7347 44.6874 71.6102 44.7083 69.0068C44.7291 66.4449 46.8541 64.3621 49.4166 64.383C51.9791 64.383 54.0624 66.5074 54.0624 69.0692ZM50.9374 69.0276C50.9166 68.1945 50.2083 67.5072 49.3958 67.5072C48.5416 67.5072 47.8124 68.2361 47.8333 69.0901C47.8541 69.9232 48.5624 70.6105 49.3749 70.6105C50.2291 70.6105 50.9583 69.8815 50.9374 69.0276Z" fill="#191919"/>
<path d="M40.0625 32.0161C40.9167 32.0369 41.5834 32.7242 41.5625 33.5782C41.5625 34.4321 40.7917 35.1611 39.9584 35.1194C39.125 35.0778 38.4584 34.3696 38.4584 33.5365C38.4584 32.6826 39.1667 31.9953 40.0625 32.0161Z" fill="#191919"/>
<path d="M35.3125 69.0691C35.3125 71.6309 33.2083 73.7345 30.6458 73.7554C28.0416 73.7554 25.9374 71.6309 25.9583 69.0274C25.9791 66.4656 28.1041 64.3828 30.6666 64.3828C33.2083 64.3828 35.3125 66.4864 35.3125 69.0691ZM32.1875 69.0483C32.1875 68.2151 31.4791 67.5278 30.6666 67.507C29.8124 67.4862 29.0833 68.2151 29.0833 69.0691C29.0833 69.9022 29.7916 70.5895 30.6041 70.6104C31.4583 70.6312 32.1875 69.9022 32.1875 69.0483Z" fill="#191919"/>
</g>
<defs>
<clipPath id="clip0_511_203">
<rect width="80" height="80" fill="white"/>
</clipPath>
</defs>
</svg>
