<svg width="55" height="80" viewBox="0 0 55 80" fill="none" xmlns="http://www.w3.org/2000/svg">
<g clip-path="url(#clip0_511_194)">
<path d="M19.9676 80C19.1086 79.5417 18.8362 78.8333 18.8571 77.875C18.92 75.5833 18.8781 73.2917 18.8781 71C18.8781 70.75 18.8781 70.5 18.8781 70.1458C18.5219 70.1458 18.2495 70.1458 17.9771 70.1458C14.2057 70.1458 10.4343 70.1458 6.66286 70.1458C2.66095 70.1667 0 67.5 0 63.5417C0 44.5833 0 25.625 0 6.66667C0 2.64583 2.66095 0.0208333 6.68381 0C11.0838 0 15.4838 0 19.8838 0C20.0724 0 20.261 0 20.4286 0C21.3295 0.0625 21.979 0.708333 21.979 1.54167C21.979 2.375 21.3505 3.0625 20.4495 3.10417C19.8838 3.14583 19.2971 3.10417 18.7314 3.10417C14.7086 3.10417 10.6648 3.10417 6.6419 3.10417C4.4 3.125 3.14286 4.39583 3.14286 6.625C3.14286 25.6042 3.14286 44.5833 3.14286 63.5833C3.14286 65.7708 4.42095 67.0417 6.57905 67.0417C10.3924 67.0417 14.2267 67.0417 18.04 67.0417C18.2705 67.0417 18.501 67.0417 18.7943 67.0417C18.7943 64.7917 18.7943 62.6042 18.7943 60.3125C17.8514 60.3125 16.9086 60.3125 15.9657 60.3125C14.8343 60.3125 14.1219 59.6875 14.1219 58.7292C14.1429 57.8125 14.8343 57.1875 15.9238 57.1875C23.6133 57.1875 31.3238 57.1875 39.0133 57.1875C40.1029 57.1875 40.7943 57.7917 40.8152 58.7292C40.8362 59.6667 40.1029 60.3125 38.9714 60.3125C38.0495 60.3125 37.1486 60.3125 36.1638 60.3125C36.1638 62.5417 36.1638 64.7292 36.1638 67C36.3943 67.0208 36.6457 67.0417 36.8971 67.0417C40.7105 67.0417 44.5448 67.0417 48.3581 67.0417C50.5371 67.0417 51.7943 65.7708 51.7943 63.5833C51.7943 44.6042 51.7943 25.625 51.7943 6.625C51.7943 4.39583 50.5371 3.125 48.2952 3.125C43.9162 3.125 39.5581 3.125 35.179 3.125C34.9486 3.125 34.6971 3.125 34.4667 3.125C33.5657 3.0625 32.9371 2.39583 32.9371 1.5625C32.9371 0.729167 33.5867 0.0416667 34.4876 0.0208333C35.5771 -0.0208333 36.6876 0.0208333 37.7771 0.0208333C41.3181 0.0208333 44.8381 0.0208333 48.379 0.0208333C52.2133 0.0208333 54.9162 2.70833 54.9162 6.52083C54.9162 25.5833 54.9162 44.6458 54.9162 63.7083C54.9162 67.5 52.1924 70.1667 48.3581 70.1875C44.2933 70.1875 40.2495 70.1875 36.059 70.1875C36.059 70.4792 36.059 70.75 36.059 71.0417C36.059 73.3333 36.0171 75.625 36.08 77.9167C36.101 78.875 35.8076 79.5833 34.9695 80.0417C30.0248 80 24.9962 80 19.9676 80ZM22.0419 76.8333C25.7295 76.8333 29.3543 76.8333 32.9371 76.8333C32.9371 71.3125 32.9371 65.8333 32.9371 60.375C29.2705 60.375 25.6667 60.375 22.0419 60.375C22.0419 65.8542 22.0419 71.3125 22.0419 76.8333Z" fill="#191919"/>
<path d="M27.5313 9.375C32.8742 9.375 38.217 9.375 43.5599 9.375C45.0475 9.375 45.5713 9.89583 45.5713 11.4167C45.5713 20.7917 45.5713 30.1667 45.5713 39.5208C45.5713 41.0625 45.0475 41.5625 43.4761 41.5625C32.8323 41.5625 22.1675 41.5625 11.5237 41.5625C9.93132 41.5625 9.42847 41.0625 9.42847 39.4583C9.42847 30.1458 9.42847 20.8125 9.42847 11.5C9.42847 9.85417 9.91037 9.375 11.5866 9.375C16.9085 9.375 22.2304 9.375 27.5313 9.375ZM42.3656 38.4167C42.3656 29.75 42.3656 21.1458 42.3656 12.5833C32.4132 12.5833 22.5028 12.5833 12.6132 12.5833C12.6132 21.2292 12.6132 29.8125 12.6132 38.4167C22.5447 38.4167 32.4342 38.4167 42.3656 38.4167Z" fill="#191919"/>
<path d="M13.3675 50.9401C12.6132 50.9401 11.859 50.9609 11.1047 50.9401C10.1199 50.9193 9.42849 50.2526 9.44944 49.3568C9.47039 48.5026 10.1409 47.8359 11.0837 47.8359C12.5923 47.8151 14.1009 47.8151 15.6304 47.8359C16.6152 47.8568 17.3066 48.5234 17.2856 49.4193C17.2647 50.2734 16.5942 50.9193 15.6513 50.9401C14.8761 50.9609 14.1218 50.9401 13.3675 50.9401Z" fill="#191919"/>
<path d="M27.4896 47.8139C28.2438 47.8139 28.9981 47.7931 29.7524 47.8139C30.7372 47.8348 31.4286 48.5223 31.4077 49.4181C31.3867 50.2723 30.7162 50.9181 29.7524 50.9389C28.2438 50.9598 26.7353 50.9598 25.2058 50.9389C24.221 50.9181 23.5296 50.2514 23.5505 49.3556C23.5715 48.5014 24.2419 47.8556 25.2058 47.8348C25.981 47.8139 26.7353 47.8139 27.4896 47.8139Z" fill="#191919"/>
<path d="M41.5696 50.9401C40.8362 50.9401 40.1029 50.9609 39.3696 50.9401C38.3848 50.9193 37.6934 50.2526 37.7143 49.3568C37.7353 48.5026 38.4058 47.8568 39.3696 47.8359C40.8781 47.8151 42.3867 47.8151 43.9162 47.8359C44.901 47.8568 45.5924 48.5234 45.5715 49.4193C45.5505 50.2734 44.88 50.9193 43.9162 50.9401C43.141 50.9609 42.3448 50.9401 41.5696 50.9401Z" fill="#191919"/>
<path d="M29.061 1.54427C29.082 2.39844 28.3487 3.14844 27.4896 3.1276C26.6515 3.1276 25.9391 2.4401 25.9182 1.60677C25.8972 0.752604 26.6096 0.0234375 27.4896 0.0234375C28.3487 0.0234375 29.0401 0.710938 29.061 1.54427Z" fill="#191919"/>
<path d="M27.4685 73.2921C26.6095 73.2713 25.8971 72.5213 25.939 71.6671C25.9809 70.8338 26.6933 70.1671 27.5314 70.188C28.3904 70.2088 29.1028 70.9588 29.0609 71.813C29.019 72.6255 28.3066 73.2921 27.4685 73.2921Z" fill="#191919"/>
<path d="M27.4685 34.8543C23.0475 34.8126 19.8837 30.2501 21.7485 26.3959C23.0894 23.6459 24.6609 21.0001 26.2113 18.3542C26.7771 17.3751 28.2018 17.3542 28.7675 18.3334C30.318 21.0001 31.9732 23.6459 33.2513 26.4584C35.0532 30.4376 31.9104 34.8543 27.4685 34.8543ZM27.699 22.4167C27.5942 22.4376 27.4894 22.4584 27.4056 22.4793C26.7771 23.5834 26.1275 24.6876 25.5199 25.7918C25.2056 26.3543 24.9751 26.9792 24.6609 27.5417C23.8018 29.1042 24.9961 31.2084 26.8399 31.6251C28.9771 32.1043 31.2818 30.0209 30.5066 28.0834C29.7313 26.1459 28.6418 24.3126 27.699 22.4167Z" fill="#191919"/>
</g>
<defs>
<clipPath id="clip0_511_194">
<rect width="55" height="80" fill="white"/>
</clipPath>
</defs>
</svg>
