<svg width="80" height="80" viewBox="0 0 80 80" fill="none" xmlns="http://www.w3.org/2000/svg">
<g clip-path="url(#clip0_511_188)">
<path d="M33.5938 0C35.1875 0.46875 36.4531 1.3125 37.1562 2.89062C37.2188 3.03125 37.5781 3.09375 37.8125 3.125C38.8594 3.28125 39.9844 3.21875 40.9375 3.59375C42.875 4.35938 43.7344 6 43.75 8.04688C43.7656 11.7188 43.7656 15.3906 43.7344 19.0625C43.7344 19.6719 43.8594 20.0156 44.4531 20.3125C45.9062 21.0469 46.75 22.3281 46.8281 23.9219C47.0625 28.3281 46.7969 32.6719 44.9375 36.7656C41.8125 43.6562 36.5938 48.125 29.2969 50.1406C28.125 50.4688 28.1094 50.4375 28.1094 51.6406C28.1094 52.9375 28.125 54.25 28.1094 55.5469C28.0781 57.4844 27.1875 58.9219 25.4844 59.8438C25.2813 59.9531 25.0156 60.1719 25.0156 60.3438C25.0156 62.6406 24.8438 64.9531 25.125 67.2031C25.75 72.0312 29.4531 75.75 34.2344 76.6719C39.6406 77.7188 45.2031 74.6719 47.1094 69.5156C47.5625 68.2812 47.7656 66.875 47.7812 65.5469C47.8438 57.1875 47.8125 48.8281 47.8125 40.4688C47.8125 35.6562 50.5938 31.5469 55.0156 29.8594C59.4844 28.1563 64.7344 29.3438 67.8594 32.75C68.6719 33.6406 68.7344 34.5625 68.0156 35.2188C67.3281 35.8438 66.4375 35.7344 65.6094 34.9062C62.6094 31.8906 58.4375 31.2656 54.8281 33.4688C52.3438 34.9844 50.9219 37.2344 50.9219 40.2344C50.9219 48.5625 50.8281 56.9062 50.9531 65.2344C51.0781 72.9688 45.1719 78.9062 38.375 79.8281C38.2344 79.8438 38.0938 79.9219 37.9531 79.9844C36.9062 79.9844 35.875 79.9844 34.8281 79.9844C34.6406 79.9219 34.4531 79.8438 34.25 79.8125C27.7656 78.8281 22.7031 73.75 21.9688 67.2656C21.7188 65.0781 21.875 62.8438 21.8594 60.6406C21.8594 60.25 21.8125 60 21.3906 59.7969C19.6094 58.9219 18.75 57.4375 18.7344 55.4688C18.7188 54.1875 18.7344 52.9219 18.7344 51.6406C18.7344 50.4219 18.7188 50.4531 17.5781 50.125C9.48438 47.8437 3.96875 42.75 1.21875 34.7969C0.609375 33.0312 0.40625 31.0938 0 29.2188C0 27.3438 0 25.4688 0 23.5938C0.421875 22.1875 1.09375 20.9219 2.48438 20.2656C3.03125 20 3.14062 19.6875 3.125 19.125C3.10938 15.4219 3.10938 11.7344 3.10938 8.03125C3.125 5.9375 4.01562 4.3125 5.98438 3.53125C6.92188 3.17188 8.01562 3.25 9.04688 3.10938C9.28125 3.07812 9.64062 3.03125 9.70312 2.875C10.4219 1.3125 11.6875 0.46875 13.2812 0C13.7969 0 14.3281 0 14.8438 0C15.0781 0.09375 15.3125 0.1875 15.5625 0.28125C17.4688 0.921875 18.7656 2.73437 18.75 4.73438C18.7188 6.79688 17.3281 8.60938 15.3281 9.1875C13.3594 9.75 11.1719 9 10.1875 7.21875C9.70312 6.34375 9.15625 6.125 8.29688 6.25C8.1875 6.26562 8.09375 6.25 7.98438 6.25C6.90625 6.29688 6.26562 6.89062 6.26562 7.96875C6.25 11.8281 6.25 15.6719 6.26562 19.5312C6.26562 19.7344 6.4375 20.0312 6.625 20.1094C8.59375 21.0938 9.40625 22.7188 9.39062 24.875C9.375 26.3594 9.35938 27.8594 9.54688 29.3125C10.3906 36.1875 16.1562 41.3594 23.0938 41.5469C29.9375 41.75 36.0312 36.8594 37.2188 30.0781C37.5312 28.25 37.4375 26.3438 37.5 24.4844C37.5625 22.5469 38.3906 21.0781 40.1406 20.2031C40.5938 19.9844 40.6406 19.7188 40.6406 19.2969C40.625 16.5312 40.6406 13.7812 40.6406 11.0156C40.6406 9.96875 40.6562 8.9375 40.625 7.89062C40.5938 7.04688 40.1406 6.5 39.375 6.3125C38.1719 6.01563 37.3125 6.25 36.9062 6.96875C35.625 9.23438 32.8594 10.0156 30.5625 8.76562C28.2969 7.51562 27.5156 4.71875 28.75 2.42188C29.4531 1.07812 30.6719 0.4375 32.0312 0C32.5469 0 33.0781 0 33.5938 0ZM21.7969 52.8438C21.8281 52.8438 21.8438 52.8438 21.875 52.8438C21.875 53.75 21.8438 54.6719 21.8906 55.5781C21.9375 56.5312 22.625 57.2031 23.4688 57.1719C24.2969 57.1562 24.9844 56.5 24.9844 55.5781C24.9844 53.5 24.8594 51.4219 24.8906 49.3438C24.8906 48.8437 25.2188 48.2656 25.5469 47.875C25.7812 47.6094 26.2969 47.5625 26.7031 47.5C33.9375 46.1406 39.0625 42.0938 42.1094 35.4062C43.7188 31.875 43.875 28.1094 43.7344 24.3125C43.7031 23.4375 43.0156 22.8281 42.2188 22.8125C41.3906 22.7969 40.7031 23.4375 40.6562 24.3438C40.6094 25.3281 40.6406 26.3281 40.6406 27.3125C40.625 30.3906 39.9531 33.3125 38.375 35.9688C33.8906 43.5625 25.2969 46.6562 17.0781 43.3906C11.2656 41.0938 7.71875 36.6719 6.59375 30.4844C6.25 28.6094 6.34375 26.6562 6.26562 24.7344C6.21875 23.5469 5.625 22.7969 4.67188 22.8125C3.75 22.8281 3.14062 23.5625 3.125 24.7031C3.10938 25.6719 3.10938 26.625 3.125 27.5938C3.28125 36.1719 8.375 43.4688 16.4062 46.5C17.7812 47.0156 19.2656 47.2656 20.7031 47.625C21.6094 47.8594 22.0781 48.4375 22.0312 49.2812C21.9531 50.4688 21.875 51.6563 21.7969 52.8438ZM14.0781 3.14062C13.2656 3.125 12.5156 3.85938 12.5156 4.67188C12.5 5.48438 13.2344 6.23438 14.0469 6.23438C14.8594 6.25 15.6094 5.51562 15.6094 4.70312C15.625 3.89062 14.8906 3.15625 14.0781 3.14062ZM32.7812 3.14062C31.9688 3.15625 31.2344 3.90625 31.25 4.71875C31.2656 5.54688 32.0156 6.26562 32.8281 6.25C33.6406 6.23438 34.375 5.48438 34.3594 4.67188C34.3438 3.84375 33.5938 3.125 32.7812 3.14062Z" fill="#191919"/>
<path d="M67.8125 80C66.2188 79.625 64.6563 79.2031 63.25 78.3125C56.3125 74.0156 56.5 63.625 63.6094 59.625C64.1719 59.2969 64.4219 58.9688 64.3907 58.3125C64.3438 57.4063 64.3594 56.4844 64.5157 55.5937C64.75 54.1406 65.6094 53.0625 66.9219 52.4219C67.4219 52.1719 67.5157 51.8906 67.5 51.4062C67.4844 49.9219 67.4844 48.4375 67.4844 46.9531C67.4844 46.7656 67.4844 46.5938 67.4844 46.4062C67.5313 45.3906 68.1563 44.7031 69.0313 44.6875C69.9063 44.6875 70.5782 45.375 70.5938 46.3906C70.625 48.0781 70.625 49.7812 70.5938 51.4687C70.5938 51.9375 70.7188 52.1875 71.1563 52.4062C72.7969 53.25 73.6407 54.6562 73.7188 56.4844C73.75 57.3125 73.4688 58.2812 73.8125 58.9531C74.1407 59.5937 75.0625 59.9375 75.7188 60.4219C77.9844 62.1719 79.3125 64.4844 79.8282 67.2812C79.875 67.5156 79.9375 67.7344 79.9844 67.9531C79.9844 68.7344 79.9844 69.5156 79.9844 70.2969C79.9375 70.4375 79.8594 70.5781 79.8438 70.7188C79.2813 74.0781 77.5782 76.7031 74.6407 78.375C73.3125 79.125 71.75 79.4531 70.3125 79.9844C69.4844 80 68.6407 80 67.8125 80ZM69.0938 61.25C64.8282 61.2344 61.2657 64.7812 61.25 69.0312C61.2344 73.2812 64.7813 76.8594 69.0313 76.875C73.2813 76.8906 76.8594 73.3281 76.875 69.0938C76.8907 64.8281 73.3438 61.2656 69.0938 61.25ZM70.5625 58.1719C70.5625 57.5312 70.625 56.875 70.5469 56.25C70.4375 55.5156 69.7657 55.0156 69.0625 55.0156C68.3594 55.0156 67.6719 55.5156 67.5782 56.25C67.4844 56.8906 67.5625 57.5625 67.5625 58.1875C68.5938 58.1719 69.5782 58.1719 70.5625 58.1719Z" fill="#191919"/>
<path d="M69.0781 38.4534C69.8906 38.4534 70.625 39.1877 70.625 40.0159C70.625 40.8284 69.875 41.5627 69.0625 41.5627C68.25 41.5627 67.5156 40.8284 67.5156 40.0002C67.5156 39.1721 68.25 38.4377 69.0781 38.4534Z" fill="#191919"/>
<path d="M73.7501 69.0626C73.7501 71.6095 71.6251 73.7345 69.0782 73.7345C66.5001 73.7501 64.3595 71.5782 64.3907 69.0001C64.422 66.4532 66.5626 64.3438 69.0938 64.3595C71.6407 64.4063 73.7501 66.5313 73.7501 69.0626ZM67.5157 69.0001C67.4845 69.8126 68.1876 70.5782 69.0001 70.6095C69.8126 70.6407 70.5782 69.9376 70.6095 69.1251C70.6407 68.3126 69.9376 67.547 69.1251 67.5157C68.3126 67.4688 67.547 68.1876 67.5157 69.0001Z" fill="#191919"/>
</g>
<defs>
<clipPath id="clip0_511_188">
<rect width="80" height="80" fill="white"/>
</clipPath>
</defs>
</svg>
