<svg width="89" height="80" viewBox="0 0 89 80" fill="none" xmlns="http://www.w3.org/2000/svg">
<g clip-path="url(#clip0_511_236)">
<path d="M-3.25479e-05 46.6772C0.231738 44.9795 0.417155 43.2818 0.718457 41.6074C0.996582 40.0958 1.36742 38.6074 1.76143 37.119C2.10908 35.8167 2.98981 35.3749 4.28773 35.7935C5.37705 36.1423 6.4432 36.5609 7.5557 36.9563C7.5557 36.0725 7.5557 35.2353 7.5557 34.4214C7.53252 32.8865 8.18148 32.2121 9.68799 32.2121C15.7604 32.2121 21.856 32.2121 27.9284 32.2353C28.5541 32.2353 28.9945 32.026 29.4812 31.6539C31.8916 29.747 34.3021 27.84 36.782 26.0493C38.1031 25.0958 39.0765 25.3981 39.8414 26.8167C40.6757 28.3749 41.4406 29.9795 42.1823 31.5842C42.414 32.0958 42.669 32.2586 43.202 32.2353C45.0794 32.2121 46.9799 32.2586 48.8573 32.1888C49.2744 32.1656 49.8075 31.933 50.0856 31.6307C55.9958 25.3051 61.8596 18.9563 67.7698 12.6539C68.1638 12.2353 68.2333 11.8632 68.1638 11.3283C67.538 5.37486 71.5245 0.537651 77.4114 0.0260231C82.1859 -0.392582 86.7286 3.11905 87.7716 8.00277C89.139 14.3516 84.7354 19.9097 78.2458 20.026C77.8518 20.026 77.3419 20.2586 77.0638 20.5377C73.6567 24.2586 70.2729 28.026 66.889 31.7702C66.8195 31.84 66.7731 31.9563 66.6109 32.1656C67.0281 32.1656 67.3294 32.1656 67.6307 32.1656C73.1237 32.1656 78.6398 32.1656 84.1328 32.1656C85.7784 32.1656 86.381 32.7702 86.3578 34.4446C86.2419 41.8167 84.4341 48.747 80.8185 55.1656C80.6794 55.3981 80.5635 55.6539 80.3781 56.0493C81.5138 56.0493 82.5104 56.0493 83.507 56.0493C84.7122 56.0493 85.9406 56.026 87.1458 56.0493C88.212 56.0725 88.9536 56.7237 88.9536 57.7702C88.9768 61.6539 88.9768 65.5609 88.9536 69.4446C88.9536 70.5144 88.1656 71.1656 86.9604 71.1656C85.083 71.1888 83.2057 71.1656 81.3052 71.1656C81.0039 71.1656 80.6794 71.1656 80.2622 71.1656C80.2622 72.119 80.2622 72.9795 80.2622 73.84C80.2622 75.119 80.2622 76.3981 80.2622 77.6772C80.2622 79.2586 79.6133 79.9098 78.0372 79.9098C74.4679 79.9098 70.9219 79.9098 67.3526 79.9098C65.7997 79.9098 65.1508 79.2586 65.1508 77.6772C65.1508 75.5609 65.1508 73.4446 65.1508 71.1423C64.6409 71.2586 64.1773 71.2818 63.8065 71.4679C54.4893 76.0028 44.894 76.6772 35.0437 73.5144C34.557 73.3516 34.2789 73.4911 33.908 73.7935C31.3354 75.7702 28.7627 77.747 26.1437 79.6307C25.6802 79.9563 24.8458 80.0725 24.2896 79.933C21.4851 79.2586 18.9125 77.9563 16.4557 76.4679C15.6213 75.9563 15.4127 74.9795 15.8299 74.1888C16.2703 73.3516 17.2437 73.0028 18.1244 73.4214C19.0515 73.8865 19.9554 74.4214 21.0911 75.026C20.8593 74.5609 20.7666 74.2818 20.6276 74.026C17.8463 68.9097 15.0419 63.7935 12.2838 58.6539C12.0521 58.2353 11.8435 57.747 11.8435 57.2818C11.8435 56.5377 12.2838 55.9795 13.0255 55.7237C13.7672 55.4679 14.3929 55.6772 14.9028 56.2586C15.1346 56.5144 15.2737 56.84 15.4591 57.1423C18.2172 62.2121 20.9752 67.2818 23.7333 72.3516C23.8724 72.6307 24.0346 72.8865 24.3823 73.1656C24.4981 72.3284 24.6372 71.4911 24.7299 70.6539C25.3093 64.9563 24.9153 59.3981 22.3659 54.1423C20.3494 49.9795 17.151 46.8632 13.3963 44.2586C10.7078 42.3749 7.81065 40.8865 4.56585 39.6307C4.26455 41.6539 3.89372 43.5842 3.7083 45.5377C3.24476 50.2353 3.47653 54.8865 5.16846 59.3516C5.72471 60.84 6.53591 62.2353 7.2544 63.6539C7.83382 64.7702 7.67158 65.6772 6.79085 66.2586C5.9333 66.8167 5.05257 66.6307 4.33408 65.5842C2.5958 63.0493 1.4833 60.2121 0.834342 57.2121C0.440332 55.4679 0.231738 53.6772 -0.0463867 51.9097C-3.25479e-05 50.1656 -3.25479e-05 48.4214 -3.25479e-05 46.6772ZM65.1971 56.0725C65.1971 53.84 65.1971 51.7237 65.1971 49.6074C65.1971 47.933 65.7765 47.3284 67.4221 47.3284C70.8755 47.3284 74.3057 47.3516 77.7591 47.3051C78.6862 47.3051 79.5437 47.3749 80.1927 48.2818C81.7455 44.1656 82.6495 40.0493 82.7653 35.747C69.7166 35.747 56.7838 35.747 43.7583 35.747C47.9997 48.5609 46.4468 60.2586 37.1528 70.4911C43.8047 72.3981 50.2479 72.3981 56.6448 70.5144C56.5984 69.8167 56.5057 69.2121 56.5057 68.6074C56.4825 65.1888 56.5057 61.747 56.5057 58.3284C56.5057 56.6307 57.0851 56.0493 58.7307 56.0493C60.8398 56.0725 62.9489 56.0725 65.1971 56.0725ZM37.3846 29.6539C35.5304 31.1423 33.7458 32.4911 32.1002 33.9795C28.1138 37.5609 24.7994 41.6772 22.6903 46.6772C22.389 47.3516 22.4817 47.7935 22.9453 48.3749C24.6372 50.5144 25.9119 52.8632 26.7927 55.4446C27.1172 56.4214 27.4185 57.3981 27.7429 58.4911C27.8588 58.1656 27.9284 57.9563 28.0211 57.7237C28.5541 56.0958 29.064 54.4679 29.6203 52.84C29.9679 51.8167 30.7328 51.3283 31.6599 51.4911C32.7955 51.7004 33.3518 52.7237 32.9578 53.9795C32.2161 56.3051 31.544 58.6539 30.6864 60.933C29.0872 65.1888 28.1369 69.5609 28.0442 74.2818C29.5971 72.8865 31.15 71.6074 32.5869 70.1888C39.6791 63.2353 43.5729 55.0493 42.2518 44.84C41.5797 39.5842 39.8877 34.6074 37.3846 29.6539ZM85.4539 59.6539C85.2916 59.6307 85.2453 59.6074 85.1758 59.6074C83.0666 59.6074 80.9575 59.6074 78.8252 59.6074C77.4346 59.6074 76.7856 58.9795 76.7856 57.6074C76.7625 55.7004 76.7856 53.7702 76.7856 51.8632C76.7856 51.5609 76.7856 51.2586 76.7856 50.9795C74.0276 50.9795 71.4086 50.9795 68.72 50.9795C68.72 53.2586 68.7432 55.4446 68.72 57.6539C68.6968 59.0028 68.0711 59.6307 66.7268 59.6307C64.8494 59.6307 62.9721 59.6307 61.0716 59.6307C60.7471 59.6307 60.3995 59.6307 60.0518 59.6307C60.0518 62.3749 60.0518 64.9795 60.0518 67.7004C60.3995 67.7004 60.7239 67.7004 61.0252 67.7004C62.9026 67.7004 64.7799 67.6772 66.6804 67.7004C68.0711 67.7237 68.6968 68.3516 68.72 69.747C68.7432 71.1656 68.72 72.5842 68.72 74.026C68.72 74.7935 68.72 75.5842 68.72 76.3749C71.4549 76.3749 74.0739 76.3749 76.7856 76.3749C76.7856 76.0028 76.7856 75.7004 76.7856 75.3749C76.7856 73.5144 76.7856 71.6539 76.7856 69.7935C76.7856 68.3516 77.4114 67.7237 78.8484 67.7004C80.7258 67.6772 82.6031 67.7004 84.5036 67.7004C84.8049 67.7004 85.1062 67.6772 85.4539 67.6539C85.4539 64.9097 85.4539 62.3051 85.4539 59.6539ZM71.594 9.97951C71.5708 13.5609 74.4448 16.4911 77.9909 16.4911C81.5601 16.5144 84.4573 13.6074 84.4804 10.0493C84.4804 6.44463 81.6528 3.56091 78.0604 3.56091C74.4911 3.53765 71.6172 6.39812 71.594 9.97951ZM69.6008 15.7935C64.6177 21.1423 59.5883 26.6074 54.3734 32.1888C56.8997 32.1888 59.1942 32.2121 61.4888 32.1656C61.7437 32.1656 62.0218 31.8865 62.2304 31.6539C64.4554 29.2121 66.6573 26.747 68.8823 24.3051C70.4583 22.5609 72.0112 20.8167 73.4945 19.1888C72.1966 18.0493 70.945 16.9563 69.6008 15.7935ZM19.5846 44.3981C21.4156 41.5609 23.2698 38.6539 25.1239 35.7935C20.558 35.7935 15.8763 35.7935 11.1713 35.7935C11.0786 38.5842 11.125 38.5144 13.35 39.9795C15.5054 41.3981 17.5914 42.9795 19.5846 44.3981Z" fill="#191919"/>
<path d="M11.0555 68.9302C11.9826 68.907 12.7938 69.6512 12.8401 70.6046C12.8865 71.5349 12.1217 72.3488 11.1946 72.3721C10.198 72.4186 9.40994 71.6744 9.38676 70.6744C9.36358 69.7209 10.1052 68.9302 11.0555 68.9302Z" fill="#191919"/>
</g>
<defs>
<clipPath id="clip0_511_236">
<rect width="89" height="80" fill="white"/>
</clipPath>
</defs>
</svg>
