<svg width="84" height="80" viewBox="0 0 84 80" fill="none" xmlns="http://www.w3.org/2000/svg">
<g clip-path="url(#clip0_511_169)">
<path d="M0 59.5472C0.18448 58.5093 0.245974 57.4307 0.594436 56.4538C1.22987 54.6426 1.8653 52.811 2.8287 51.1625C10.7818 37.3849 18.776 23.6276 26.8111 9.8906C30.5007 3.52072 36.1171 0.244198 43.5168 -1.50134e-05C50.6091 -0.223877 57.9473 4.39581 60.8375 10.8471C63.5842 17.0135 63.2972 23.017 59.8946 28.8578C56.7789 34.2305 53.6428 39.6031 50.5271 44.9758C50.3836 45.22 50.2606 45.4846 50.0556 45.8509C51.265 45.7695 52.3719 45.6881 53.4788 45.627C60.325 45.2811 67.1303 45.627 73.8331 47.1534C76.4773 47.7436 79.0395 48.5576 81.3353 50.0636C83.1186 51.2236 84 52.7703 83.9795 54.9682C83.8975 60.0153 83.836 65.0623 84 70.1094C84.1025 73.0399 82.7291 74.8105 80.3309 76.0722C77.0922 77.741 73.5871 78.5144 70.0205 79.0842C64.4041 79.9796 58.7672 80.1628 53.1098 79.8575C48.0674 79.5726 43.0454 78.9824 38.2284 77.2933C37.265 76.9473 36.2811 76.5403 35.3792 76.0519C34.4773 75.5635 33.6574 74.9122 32.776 74.3017C30.9927 76.0926 28.8609 77.5579 26.4422 78.5347C15.4758 82.9712 3.05417 76.7845 0.491947 65.0827C0.307467 64.2686 0.163982 63.4546 0 62.6202C0 61.6026 0 60.5647 0 59.5472ZM45.8536 46.4411C45.9971 46.2376 46.0791 46.1155 46.1406 46.0137C49.8302 39.6642 53.5403 33.3147 57.2299 26.9448C59.2797 23.424 59.8741 19.6388 59.0132 15.6499C57.2914 7.59093 49.3792 2.13685 41.2416 3.43931C36.0966 4.27371 32.243 7.00075 29.6398 11.478C26.0527 17.6647 22.4451 23.8718 18.8375 30.0585C18.7145 30.262 18.612 30.4655 18.4685 30.7504C27.6105 35.9807 36.6911 41.1905 45.8536 46.4411ZM16.8492 33.5792C16.7262 33.742 16.6647 33.8031 16.6237 33.8641C12.8726 40.3154 9.12152 46.7667 5.37043 53.2383C3.54612 56.4131 2.8287 59.8321 3.48463 63.4342C4.694 69.9669 8.46559 74.4442 14.9839 76.1536C21.3177 77.8224 26.7701 75.9908 31.1977 71.1676C31.6281 70.6996 31.7511 70.2315 31.7511 69.6209C31.7306 64.5942 31.7511 59.5879 31.7306 54.5612C31.7306 53.0552 32.1816 51.7324 33.3909 50.8573C34.6413 49.9618 36.0146 49.2088 37.388 48.5576C38.4334 48.0488 39.6018 47.7639 40.8316 47.3365C32.7965 42.7169 24.8433 38.1582 16.8492 33.5792ZM80.6794 58.55C76.3953 60.7479 71.8858 61.5823 67.3148 62.1114C62.1903 62.7219 57.0249 62.8237 51.8594 62.437C47.1245 62.0911 42.41 61.4398 37.9209 59.8117C36.978 59.4658 36.0761 59.0588 35.0307 58.6314C35.0307 58.9773 35.0307 59.2623 35.0307 59.5675C35.0307 63.129 35.0922 66.67 34.9898 70.2315C34.9488 71.6357 35.4817 72.4904 36.6706 73.0806C36.896 73.1824 37.101 73.3248 37.3265 73.4266C40.7291 75.0547 44.3777 75.6856 48.0674 76.1536C52.5154 76.7235 56.9839 76.8659 61.4729 76.6624C65.839 76.4589 70.1845 76.0519 74.407 74.8512C76.1288 74.3627 77.7687 73.6098 79.388 72.8568C80.2899 72.4497 80.7614 71.6968 80.7204 70.5571C80.6179 68.1964 80.6999 65.8356 80.6999 63.4749C80.6794 61.8672 80.6794 60.2798 80.6794 58.55ZM64.9575 49.2699C64.9575 49.2292 64.9575 49.1681 64.937 49.1274C64.7936 49.1071 64.6706 49.0867 64.5271 49.0664C59.5871 48.6187 54.6471 48.7001 49.7277 49.2088C46.284 49.5548 42.8404 50.0229 39.5813 51.2439C38.1669 51.7731 36.8346 52.5261 35.5637 53.3401C34.8258 53.8082 34.8873 54.2966 35.5432 54.8664C36.0761 55.3142 36.6501 55.8026 37.306 56.0264C39.4788 56.7794 41.6925 57.451 43.9268 58.0819C44.2753 58.1837 44.7467 58.1226 45.0747 57.9801C49.3177 56.1485 53.5608 54.2763 57.8038 52.4243C60.1816 51.3661 62.5593 50.3281 64.9575 49.2699ZM50.9985 58.957C51.1625 59.0384 51.224 59.0995 51.2855 59.0995C51.47 59.1402 51.6545 59.1605 51.8594 59.1605C57.2914 59.5268 62.7233 59.4251 68.1142 58.6924C71.3119 58.2651 74.489 57.6952 77.4612 56.4131C78.4246 56.0061 79.347 55.4363 80.1874 54.8054C80.8843 54.2966 80.8433 53.8489 80.1669 53.279C79.6545 52.8517 79.101 52.3836 78.4656 52.1597C76.4158 51.4271 74.3455 50.7759 72.2548 50.1653C71.7833 50.0229 71.1684 50.1043 70.7174 50.2874C64.9165 52.7906 59.1362 55.3345 53.3558 57.8784C52.5974 58.2447 51.8389 58.5907 50.9985 58.957Z" fill="#191919"/>
<path d="M42.287 7.69544C42.287 8.52984 41.7951 9.05896 40.7087 9.38458C38.9459 9.91371 37.4085 10.8092 36.1787 12.1523C35.7277 12.6407 35.3382 13.2106 34.9488 13.7601C34.2724 14.7166 33.4114 15.0015 32.5915 14.513C31.7101 13.9636 31.5666 13.0071 32.2226 11.9692C34.0674 9.07931 36.6501 7.16632 39.9502 6.20982C41.2621 5.86385 42.287 6.51508 42.287 7.69544Z" fill="#191919"/>
<path d="M43.9268 7.46547C43.9473 6.57002 44.6237 5.89844 45.5461 5.89844C46.4275 5.89844 47.1449 6.61072 47.1654 7.48582C47.1859 8.40162 46.4275 9.13426 45.4846 9.09355C44.5827 9.05285 43.9268 8.36092 43.9268 7.46547Z" fill="#191919"/>
</g>
<defs>
<clipPath id="clip0_511_169">
<rect width="84" height="80" fill="white"/>
</clipPath>
</defs>
</svg>
