<svg width="98" height="80" viewBox="0 0 98 80" fill="none" xmlns="http://www.w3.org/2000/svg">
<g clip-path="url(#clip0_511_177)">
<path d="M0 24.9401C0.239258 23.5069 0.406738 22.0497 0.765625 20.6403C2.84717 12.1602 7.77588 5.87773 15.791 2.34234C24.2607 -1.40803 32.5391 -0.619736 40.4106 4.34891C41.0327 4.73111 41.6069 5.18498 42.2051 5.63885C42.7554 6.06883 43.2578 6.54658 43.7363 6.92879C45.3633 5.78217 46.8467 4.5639 48.4976 3.63228C63.3315 -4.91953 82.0176 2.77232 86.5874 19.2787C86.8267 20.1626 87.1377 21.0703 87.2095 21.9781C87.2812 22.9813 87.8794 23.3635 88.645 23.7457C93.3584 26.0867 96.3491 29.8849 97.5693 34.9491C99.8662 44.4803 93.3584 53.9398 83.6445 55.3492C73.0215 56.9019 63.7144 48.3262 64.3843 37.6245C64.9346 28.9055 72.3516 21.9303 81.1084 21.9303C81.8022 21.9303 82.4961 22.0258 83.4292 22.0736C83.0225 20.7359 82.7114 19.4698 82.2568 18.2993C77.998 7.26321 66.2026 1.48238 54.9097 4.92222C51.7515 5.87773 48.9761 7.54987 46.5596 9.79531C46.2007 10.1297 45.8896 10.4642 45.5308 10.7986C44.3345 11.9213 43.4253 11.8974 42.2051 10.8225C40.937 9.69976 39.7168 8.50537 38.3291 7.59764C25.457 -0.906389 8.51758 5.97328 4.56982 20.9987C3.1582 26.3495 3.99561 31.342 6.57959 36.0957C6.69922 36.3346 7.10596 36.5735 7.36914 36.5735C12.9917 36.5973 18.5903 36.5735 24.2129 36.6212C24.9546 36.6212 24.9307 36.1196 25.0503 35.6896C26.4619 30.7926 27.8735 25.9195 29.2612 21.0225C29.2852 20.9031 29.3091 20.7837 29.3569 20.6642C29.7158 19.4698 30.3618 18.8727 31.2949 18.8488C32.228 18.8249 32.8979 19.4221 33.2808 20.6165C34.1899 23.5069 35.0752 26.3734 35.9844 29.2638C38.042 35.809 40.0757 42.3782 42.1333 48.9234C42.2051 49.1862 42.3247 49.4251 42.4922 49.8789C42.6597 49.4251 42.7793 49.1384 42.875 48.8517C43.9038 45.5552 44.9326 42.2348 45.9614 38.9383C46.5117 37.1707 46.9902 36.8123 48.8325 36.8123C51.7275 36.8123 54.6465 36.8123 57.5415 36.8123C58.8813 36.8123 59.623 37.3618 59.8384 38.3889C60.0776 39.5594 59.2163 40.5866 57.8525 40.6105C55.3643 40.6344 52.876 40.6583 50.3877 40.6105C49.646 40.5866 49.3589 40.8494 49.1436 41.5421C47.6602 46.4391 46.105 51.3122 44.5737 56.2092C44.502 56.4242 44.4541 56.6391 44.3823 56.8541C44.0713 57.738 43.521 58.3352 42.5161 58.3829C41.6069 58.4068 40.9131 57.8813 40.5781 56.8541C39.8604 54.6087 39.1665 52.3632 38.4727 50.1178C36.2236 42.9515 33.9985 35.7852 31.7495 28.6427C31.6777 28.38 31.5581 28.1172 31.3906 27.5917C31.2231 28.1411 31.1035 28.4516 31.0078 28.7622C30.0508 32.0587 29.1177 35.3552 28.1606 38.6517C27.7539 40.0611 27.2275 40.4433 25.7681 40.4433C20.624 40.4433 15.5039 40.4433 10.3599 40.4433C10.0249 40.4433 9.66602 40.4433 9.06787 40.4433C10.2163 42.0437 11.2212 43.5487 12.2979 44.958C18.9731 53.5576 26.7729 61.0584 34.9316 68.2247C37.8027 70.7329 40.7695 73.1694 43.7603 75.6777C44.1909 75.3432 44.5498 75.0566 44.9087 74.746C49.646 70.6612 54.3594 66.5764 59.0728 62.4916C59.3359 62.2528 59.5991 62.0378 59.9102 61.8467C60.6519 61.4167 61.6089 61.5361 62.1831 62.1811C62.7812 62.8261 62.9248 63.5905 62.4702 64.3788C62.3027 64.6654 62.0635 64.9521 61.8003 65.1671C56.3213 69.8729 50.8423 74.6027 45.3394 79.2847C44.2388 80.2163 43.4731 80.2163 42.3486 79.3086C31.5103 70.709 21.1743 61.5839 12.2739 50.9778C9.68994 47.9201 7.46484 44.552 5.14404 41.3032C4.68945 40.6821 4.28271 40.3477 3.54102 40.4672C3.22998 40.5149 2.89502 40.4433 2.58398 40.4672C1.41162 40.5866 0.550293 40.1327 0 39.0817C0 38.7711 0 38.4367 0 38.1262C0.430664 37.0034 1.33984 36.5973 2.20117 36.6212C1.45947 33.7547 0.717773 30.9598 0 28.1889C0 27.09 0 26.0151 0 24.9401ZM81.1562 51.7183C88.334 51.7183 94.1958 45.8897 94.1719 38.7234C94.1719 31.6048 88.3579 25.8001 81.2041 25.7284C74.0981 25.6568 68.1646 31.557 68.1406 38.6995C68.1167 45.8658 73.9546 51.7183 81.1562 51.7183Z" fill="#191919"/>
<path d="M68.1167 58.1918C68.1406 59.219 67.2314 60.1506 66.1787 60.1506C65.1499 60.1745 64.2885 59.3384 64.2885 58.2874C64.2646 57.2363 65.1738 56.3286 66.2026 56.3047C67.1836 56.3047 68.0927 57.2124 68.1167 58.1918Z" fill="#191919"/>
<path d="M83.0704 40.6324C83.0704 42.2807 83.0704 43.8334 83.0704 45.3861C83.0704 46.2938 82.7833 47.0343 81.9459 47.4404C80.7017 48.0376 79.3379 47.1538 79.2662 45.6727C79.2183 44.3589 79.2423 43.069 79.2423 41.7551C79.2423 41.4207 79.2423 41.0624 79.2423 40.6324C77.5196 40.6324 75.8926 40.6563 74.2896 40.6324C72.8541 40.6085 72.0167 39.5097 72.3516 38.2197C72.567 37.3837 73.3087 36.882 74.4092 36.8343C75.5816 36.8104 76.7779 36.8343 77.9503 36.8343C78.3331 36.8343 78.7159 36.8343 79.2423 36.8343C79.2423 35.8787 79.2423 34.971 79.2423 34.0633C79.2423 33.2989 79.2183 32.5345 79.2662 31.7701C79.3379 30.6234 80.1275 29.8829 81.1563 29.9068C82.209 29.9068 82.9986 30.6473 83.0464 31.7939C83.0943 33.1078 83.0704 34.3977 83.0704 35.7115C83.0704 36.046 83.0704 36.4043 83.0704 36.8581C84.6495 36.8581 86.1329 36.8104 87.6163 36.882C88.1666 36.9059 88.7647 37.0254 89.2432 37.2881C89.9849 37.7181 90.1524 38.4825 89.961 39.2947C89.7457 40.1069 89.1714 40.6085 88.3101 40.6563C86.9464 40.7041 85.5587 40.6802 84.1949 40.7041C83.8599 40.6324 83.501 40.6324 83.0704 40.6324Z" fill="#191919"/>
</g>
<defs>
<clipPath id="clip0_511_177">
<rect width="98" height="80" fill="white"/>
</clipPath>
</defs>
</svg>
