<svg width="80" height="80" viewBox="0 0 80 80" fill="none" xmlns="http://www.w3.org/2000/svg">
<g clip-path="url(#clip0_511_231)">
<path d="M0 64.6765C0.145833 64.0268 0.270833 63.3561 0.4375 62.7064C2.70833 53.8198 12.7708 49.5651 20.625 54.1971C21.2083 54.5324 21.5833 54.5114 22.1458 54.1761C24.2917 52.8976 26.6458 52.3108 29.1458 52.3317C29.3542 52.3317 29.5417 52.3108 29.8333 52.2898C29.8333 51.9545 29.8333 51.6401 29.8333 51.3257C29.8333 45.2686 29.8542 39.2324 29.8333 33.1753C29.8125 29.8429 31 27.0553 33.375 24.7498C35.1458 23.0522 36.9167 21.3336 38.625 19.594C38.9167 19.3005 39.1042 18.7975 39.125 18.3784C39.1875 16.6807 39.125 14.983 39.1458 13.2644C39.1458 12.8033 39.0208 12.5937 38.5833 12.4051C37.3542 11.8811 36.6667 10.896 36.6458 9.53371C36.625 7.39591 36.6042 5.23714 36.6458 3.09934C36.6875 1.29688 37.9375 0.102222 39.7292 0.0183861C40.7083 -0.0235317 41.7083 -0.00257278 42.6875 -0.00257278C51.5208 -0.00257278 60.3333 -0.00257278 69.1667 -0.00257278C69.5625 -0.00257278 69.9583 -0.00257278 70.3333 0.039345C71.8333 0.186057 73.0625 1.33879 73.1042 2.84783C73.1667 5.17427 73.1667 7.5007 73.1042 9.84809C73.0625 11.1056 72.2708 11.923 71.1667 12.4889C70.9375 12.5937 70.6667 12.95 70.6667 13.1806C70.625 14.983 70.625 16.7855 70.6667 18.6089C70.6667 18.9233 70.875 19.3005 71.1042 19.5311C72.8125 21.2288 74.5208 22.9055 76.2708 24.5612C78.8125 26.9505 80.0417 29.8848 80 33.3849C79.9583 36.9479 80 40.5109 80 44.0739C80 44.2835 80 44.4931 80 44.7027C79.9583 45.6668 79.3333 46.3165 78.4375 46.3165C77.5417 46.3165 76.8958 45.6878 76.875 44.7027C76.8542 43.1098 76.875 41.5169 76.875 39.9031C76.875 39.6306 76.875 39.3372 76.875 39.0228C62.2083 39.0228 47.6458 39.0228 33.0208 39.0228C33 39.2534 32.9792 39.442 32.9792 39.6516C32.9792 43.8434 32.9792 48.0351 32.9583 52.2269C32.9583 52.7299 33.1042 52.9395 33.5833 53.1072C38.4375 54.9725 41.4375 58.4307 42.5 63.5657C42.625 64.2154 43 64.1525 43.4583 64.1525C51.7083 64.1525 59.9583 64.1525 68.2292 64.1525C70.8125 64.1525 73.375 64.1525 75.9583 64.1525C76.2292 64.1525 76.5208 64.1525 76.8958 64.1525C76.8958 62.4758 76.875 60.8829 76.9167 59.311C76.9375 58.8709 77.1042 58.3888 77.3542 58.0325C77.75 57.4876 78.375 57.4247 78.9792 57.6343C79.625 57.8649 79.9792 58.3679 80 59.0805C80.0208 59.9607 80 60.862 80 61.7422C80 65.5568 80 69.3922 80 73.2067C80 77.3566 77.4167 79.9765 73.2708 79.9765C65.5833 79.9765 57.9167 79.9765 50.2292 79.9555C42.9375 79.9555 35.6458 79.9555 28.3542 79.9136C26.0417 79.8926 23.8958 79.18 21.9167 77.9854C21.5417 77.7548 21.2917 77.7129 20.875 77.9644C12.2292 83.0574 1.625 77.9644 0.125 68.0089C0.104167 67.8832 0.0416667 67.7784 0 67.6526C0 66.6676 0 65.6825 0 64.6765ZM67.5417 12.6985C59.0625 12.6985 50.7083 12.6985 42.3542 12.6985C42.3542 14.48 42.3542 16.2196 42.3542 17.9801C42.7083 17.9801 42.9792 17.9801 43.2708 17.9801C47.6875 17.9801 52.125 17.9801 56.5417 17.9801C56.7708 17.9801 57.0208 17.9592 57.25 18.0011C58.1042 18.1059 58.6875 18.7766 58.6875 19.594C58.6667 20.4114 58.0417 21.0611 57.2083 21.124C56.9583 21.1449 56.6875 21.1449 56.4375 21.1449C51.7292 21.1449 47.0208 21.124 42.2917 21.1659C41.875 21.1659 41.375 21.3755 41.0833 21.6479C39.2292 23.4085 37.4167 25.2109 35.5833 26.9924C34.375 28.1661 33.4375 29.5494 33.1875 31.2261C32.9792 32.7142 33 34.2442 32.9167 35.7952C47.6458 35.7952 62.25 35.7952 76.8958 35.7952C76.8958 34.9359 76.875 34.1394 76.8958 33.322C76.9583 30.786 76.0625 28.6692 74.25 26.9296C72.5417 25.3157 70.9167 23.5971 69.1875 22.0252C68 20.9563 67.5 19.7407 67.5625 18.1478C67.6042 16.3663 67.5417 14.5638 67.5417 12.6985ZM37.7917 76.8326C38.2917 76.8326 38.5625 76.8326 38.8333 76.8326C50.2917 76.8326 61.75 76.8326 73.2083 76.8326C73.4375 76.8326 73.6875 76.8326 73.9167 76.8117C75.4375 76.7069 76.7292 75.638 76.8125 74.1289C76.9167 71.8863 76.8333 69.6437 76.8333 67.3802C65.4167 67.3802 54.0625 67.3802 42.7083 67.3802C42.3333 71.1528 40.7083 74.2128 37.7917 76.8326ZM39.8125 9.47084C49.9167 9.47084 59.9375 9.47084 70 9.47084C70 7.35399 70 5.27906 70 3.22509C67.7292 3.22509 65.5417 3.22509 63.2917 3.22509C63.2917 3.91673 63.3125 4.5455 63.2917 5.17427C63.2708 6.20125 62.625 6.85098 61.7083 6.85098C60.7917 6.85098 60.1875 6.18029 60.1667 5.15331C60.1458 4.50358 60.1667 3.87482 60.1667 3.24605C58.8542 3.24605 57.6875 3.24605 56.4583 3.24605C56.4583 3.91674 56.4583 4.52454 56.4583 5.11139C56.4375 6.18029 55.8542 6.83002 54.9583 6.85098C54.0208 6.87194 53.375 6.20125 53.3542 5.11139C53.3333 4.48262 53.3542 3.87482 53.3542 3.22509C52.0833 3.22509 50.9167 3.22509 49.6875 3.22509C49.6875 3.93769 49.7083 4.58742 49.6875 5.23714C49.625 6.22221 48.9792 6.85098 48.1042 6.83002C47.2083 6.80906 46.625 6.18029 46.5833 5.19523C46.5625 4.5455 46.5833 3.89578 46.5833 3.20413C44.2917 3.20413 42.1042 3.20413 39.875 3.20413C39.8125 5.32098 39.8125 7.35399 39.8125 9.47084ZM35.1042 74.8415C30.1667 69.8743 25.2708 64.928 20.3542 59.9817C17.3333 63.7753 17.7917 70.042 21.4583 73.6678C25.2083 77.3985 31.3958 77.9015 35.1042 74.8415ZM37.6042 72.3265C40.3542 68.9311 40.7083 62.4339 36.1667 58.2421C31.7292 54.1551 25.5 55.1192 22.8958 57.5295C27.7917 62.4548 32.7083 67.4011 37.6042 72.3265ZM18.6042 56.6702C14.5833 54.2809 8.77083 55.4127 5.5625 59.3529C2.10417 63.5866 2.66667 69.2665 5.25 72.4313C5.33333 72.3684 5.41667 72.3055 5.47917 72.2426C8.875 68.8263 12.2917 65.3891 15.6875 61.9728C15.8125 61.847 15.9375 61.7003 16.0208 61.5327C16.875 59.9398 17.7292 58.3469 18.6042 56.6702ZM18.6458 75.5541C17.8542 74.1918 16.9375 72.9133 16.3542 71.4881C15.7708 70.0839 15.5 68.5329 15.0833 67.0029C13.8333 68.2605 12.5833 69.5599 11.3125 70.8174C10.0417 72.1169 8.75 73.3954 7.45833 74.6739C10.4583 77.168 15.9792 77.5243 18.6458 75.5541Z" fill="#191919"/>
<path d="M56.4583 43.0078C57.9167 43.0288 59.4792 43.4479 60.9167 44.3282C61.8958 44.936 62.1875 45.8163 61.7083 46.6337C61.2292 47.4721 60.3333 47.6188 59.3333 47.0529C55.4792 44.8312 51.0208 47.0948 50.5417 51.4752C50.125 55.2897 53.9583 58.6012 57.6042 57.5323C58.3125 57.3227 58.9792 56.8197 59.5625 56.3167C60.4167 55.5831 61.3125 55.4574 61.9792 56.1281C62.6458 56.7987 62.5833 57.7209 61.7917 58.5593C59.1875 61.3678 54.6042 61.6822 51.2083 59.2929C48 57.0293 46.6458 53.0262 47.7917 49.2955C48.9375 45.5858 52.3542 43.0497 56.4583 43.0078Z" fill="#191919"/>
<path d="M78.4374 50.3828C79.2708 50.3828 79.9791 51.0535 79.9999 51.9128C80.0208 52.7721 79.3124 53.5266 78.4374 53.5266C77.5833 53.5266 76.8541 52.7931 76.8749 51.9128C76.8958 51.0745 77.5833 50.3828 78.4374 50.3828Z" fill="#191919"/>
</g>
<defs>
<clipPath id="clip0_511_231">
<rect width="80" height="80" fill="white"/>
</clipPath>
</defs>
</svg>
