<svg width="58" height="58" viewBox="0 0 58 58" fill="none" xmlns="http://www.w3.org/2000/svg">
<mask id="path-1-outside-1_494_122" maskUnits="userSpaceOnUse" x="-0.599976" y="-0.296875" width="59" height="58" fill="black">
<rect fill="white" x="-0.599976" y="-0.296875" width="59" height="58"/>
<path d="M25.5 55.4031C24.7667 55.4031 24.1667 55.1698 23.7 54.7031C23.2334 54.2365 23 53.6365 23 52.9031V34.0031H4.50002C3.76669 34.0031 3.16669 33.7698 2.70002 33.3031C2.23336 32.8365 2.00002 32.2698 2.00002 31.6031V25.3031C2.00002 24.5698 2.23336 23.9698 2.70002 23.5031C3.16669 23.0365 3.76669 22.8031 4.50002 22.8031H23V4.50312C23 3.76979 23.2334 3.16979 23.7 2.70312C24.1667 2.23646 24.7667 2.00312 25.5 2.00312H32.4C33.1334 2.00312 33.7334 2.23646 34.2 2.70312C34.6667 3.16979 34.9 3.76979 34.9 4.50312V22.8031H53.4C54.0667 22.8031 54.6334 23.0365 55.1 23.5031C55.5667 23.9698 55.8 24.5698 55.8 25.3031V31.6031C55.8 32.2698 55.5667 32.8365 55.1 33.3031C54.6334 33.7698 54.0667 34.0031 53.4 34.0031H34.9V52.9031C34.9 53.6365 34.6667 54.2365 34.2 54.7031C33.7334 55.1698 33.1334 55.4031 32.4 55.4031H25.5Z"/>
</mask>
<path d="M23.7 54.7031L25.1142 53.2889H25.1142L23.7 54.7031ZM23 34.0031H25V32.0031H23V34.0031ZM2.70002 33.3031L1.28581 34.7173L2.70002 33.3031ZM23 22.8031V24.8031H25V22.8031H23ZM23.7 2.70312L25.1142 4.11734L25.1142 4.11733L23.7 2.70312ZM34.2 2.70312L32.7858 4.11733L32.7858 4.11734L34.2 2.70312ZM34.9 22.8031H32.9V24.8031H34.9V22.8031ZM55.1 23.5031L56.5142 22.0889L56.5142 22.0889L55.1 23.5031ZM55.1 33.3031L56.5142 34.7173L56.5142 34.7173L55.1 33.3031ZM34.9 34.0031V32.0031H32.9V34.0031H34.9ZM34.2 54.7031L32.7858 53.2889L34.2 54.7031ZM25.5 53.4031C25.2325 53.4031 25.1625 53.3372 25.1142 53.2889L22.2858 56.1173C23.1709 57.0024 24.3009 57.4031 25.5 57.4031V53.4031ZM25.1142 53.2889C25.066 53.2406 25 53.1706 25 52.9031H21C21 54.1023 21.4007 55.2323 22.2858 56.1173L25.1142 53.2889ZM25 52.9031V34.0031H21V52.9031H25ZM23 32.0031H4.50002V36.0031H23V32.0031ZM4.50002 32.0031C4.23253 32.0031 4.1625 31.9372 4.11424 31.8889L1.28581 34.7173C2.17088 35.6024 3.30086 36.0031 4.50002 36.0031V32.0031ZM4.11424 31.8889C4.0269 31.8016 4.00002 31.7454 4.00002 31.6031H2.46763e-05C2.46763e-05 32.7942 0.439812 33.8713 1.28581 34.7173L4.11424 31.8889ZM4.00002 31.6031V25.3031H2.46763e-05V31.6031H4.00002ZM4.00002 25.3031C4.00002 25.0356 4.06598 24.9656 4.11424 24.9173L1.28581 22.0889C0.400737 22.974 2.46763e-05 24.104 2.46763e-05 25.3031H4.00002ZM4.11424 24.9173C4.1625 24.8691 4.23253 24.8031 4.50002 24.8031V20.8031C3.30086 20.8031 2.17088 21.2038 1.28581 22.0889L4.11424 24.9173ZM4.50002 24.8031H23V20.8031H4.50002V24.8031ZM25 22.8031V4.50312H21V22.8031H25ZM25 4.50312C25 4.23563 25.066 4.1656 25.1142 4.11734L22.2858 1.28891C21.4007 2.17398 21 3.30395 21 4.50312H25ZM25.1142 4.11733C25.1625 4.06907 25.2325 4.00312 25.5 4.00312V0.00312233C24.3009 0.00312233 23.1709 0.403837 22.2858 1.28891L25.1142 4.11733ZM25.5 4.00312H32.4V0.00312233H25.5V4.00312ZM32.4 4.00312C32.6675 4.00312 32.7375 4.06907 32.7858 4.11733L35.6142 1.28891C34.7292 0.403837 33.5992 0.00312233 32.4 0.00312233V4.00312ZM32.7858 4.11734C32.8341 4.1656 32.9 4.23562 32.9 4.50312H36.9C36.9 3.30395 36.4993 2.17398 35.6142 1.28891L32.7858 4.11734ZM32.9 4.50312V22.8031H36.9V4.50312H32.9ZM34.9 24.8031H53.4V20.8031H34.9V24.8031ZM53.4 24.8031C53.5423 24.8031 53.5985 24.83 53.6858 24.9173L56.5142 22.0889C55.6682 21.2429 54.5911 20.8031 53.4 20.8031V24.8031ZM53.6858 24.9173C53.7341 24.9656 53.8 25.0356 53.8 25.3031H57.8C57.8 24.104 57.3993 22.974 56.5142 22.0889L53.6858 24.9173ZM53.8 25.3031V31.6031H57.8V25.3031H53.8ZM53.8 31.6031C53.8 31.7454 53.7731 31.8016 53.6858 31.8889L56.5142 34.7173C57.3602 33.8713 57.8 32.7942 57.8 31.6031H53.8ZM53.6858 31.8889C53.5985 31.9762 53.5423 32.0031 53.4 32.0031V36.0031C54.5911 36.0031 55.6682 35.5633 56.5142 34.7173L53.6858 31.8889ZM53.4 32.0031H34.9V36.0031H53.4V32.0031ZM32.9 34.0031V52.9031H36.9V34.0031H32.9ZM32.9 52.9031C32.9 53.1706 32.8341 53.2407 32.7858 53.2889L35.6142 56.1173C36.4993 55.2323 36.9 54.1023 36.9 52.9031H32.9ZM32.7858 53.2889C32.7376 53.3372 32.6675 53.4031 32.4 53.4031V57.4031C33.5992 57.4031 34.7292 57.0024 35.6142 56.1173L32.7858 53.2889ZM32.4 53.4031H25.5V57.4031H32.4V53.4031Z" fill="#3F85FE" mask="url(#path-1-outside-1_494_122)"/>
</svg>
