<svg width="16" height="16" viewBox="0 0 16 16" fill="none" xmlns="http://www.w3.org/2000/svg">
<path d="M15.8806 7.454C15.2952 6.174 12.9999 2 7.99991 2C2.99991 2 0.704581 6.174 0.119247 7.454C0.040673 7.62553 0 7.81199 0 8.00067C0 8.18934 0.040673 8.3758 0.119247 8.54733C0.704581 9.826 2.99991 14 7.99991 14C12.9999 14 15.2952 9.826 15.8806 8.546C15.959 8.37466 15.9996 8.18843 15.9996 8C15.9996 7.81157 15.959 7.62534 15.8806 7.454ZM7.99991 12.6667C3.79525 12.6667 1.83325 9.08933 1.33325 8.00733C1.83325 6.91067 3.79525 3.33333 7.99991 3.33333C12.1946 3.33333 14.1572 6.89533 14.6666 8C14.1572 9.10467 12.1946 12.6667 7.99991 12.6667Z" fill="currentColor"/>
<path d="M7.99984 4.66406C7.34057 4.66406 6.6961 4.85956 6.14794 5.22583C5.59977 5.5921 5.17253 6.1127 4.92024 6.72178C4.66795 7.33087 4.60194 8.00109 4.73055 8.6477C4.85917 9.2943 5.17664 9.88824 5.64282 10.3544C6.10899 10.8206 6.70293 11.1381 7.34954 11.2667C7.99614 11.3953 8.66636 11.3293 9.27545 11.077C9.88454 10.8247 10.4051 10.3975 10.7714 9.8493C11.1377 9.30113 11.3332 8.65667 11.3332 7.9974C11.3321 7.11367 10.9806 6.26643 10.3557 5.64154C9.7308 5.01665 8.88357 4.66512 7.99984 4.66406ZM7.99984 9.9974C7.60428 9.9974 7.2176 9.8801 6.8887 9.66034C6.5598 9.44057 6.30345 9.12821 6.15208 8.76276C6.0007 8.39731 5.9611 7.99518 6.03827 7.60722C6.11544 7.21925 6.30592 6.86289 6.58562 6.58318C6.86533 6.30348 7.2217 6.113 7.60966 6.03583C7.99762 5.95865 8.39975 5.99826 8.76521 6.14964C9.13066 6.30101 9.44302 6.55736 9.66278 6.88626C9.88254 7.21515 9.99984 7.60183 9.99984 7.9974C9.99984 8.52783 9.78913 9.03654 9.41405 9.41161C9.03898 9.78668 8.53027 9.9974 7.99984 9.9974Z" fill="currentColor"/>
</svg>
