<svg width="107" height="121" viewBox="0 0 107 121" fill="none" xmlns="http://www.w3.org/2000/svg">
<g clip-path="url(#clip0_2500_814)">
<path d="M27.5905 21.4898C32.9955 21.4898 38.4319 21.4898 43.8369 21.4898C44.1511 21.4898 44.4654 21.4583 44.7796 21.5214C45.7538 21.6789 46.3508 22.2776 46.3508 23.2544C46.3508 24.2313 45.7538 24.8615 44.7796 25.019C44.4339 25.082 44.0883 25.0505 43.7112 25.0505C38.3376 25.0505 32.964 25.0505 27.559 25.0505C24.9194 25.019 24.9194 25.019 24.9508 27.6659C24.9508 33.0857 24.9508 38.5055 24.9194 43.9253C24.9194 44.3664 24.9508 44.8075 24.8251 45.2172C24.5737 46.0995 23.9138 46.6036 22.9711 46.5091C22.0598 46.4146 21.4627 45.8474 21.3999 44.8706C21.3684 44.2719 21.3684 43.7047 21.3684 43.106C21.3684 37.9698 21.3684 32.8021 21.3684 27.6659C21.3999 24.9875 21.3999 24.9875 18.7288 25.0505C13.3867 25.0505 8.07593 25.0505 2.73379 25.0505C2.41955 25.0505 2.1053 25.0505 1.79106 25.0505C0.628356 24.9875 -0.0944043 24.2628 -0.06298 23.2229C-0.0315556 22.2461 0.691205 21.5529 1.79106 21.5214C3.36228 21.4898 4.9335 21.5214 6.50471 21.5214C10.5899 21.5214 14.6436 21.5214 18.7288 21.5214C21.3999 21.5844 21.3999 21.5844 21.3684 18.8745C21.3684 13.3602 21.3999 7.87734 21.337 2.36302C21.337 1.29167 21.6513 0.535417 22.5626 0.03125C22.9711 0.03125 23.3482 0.03125 23.7567 0.03125C24.6366 0.629948 24.9508 1.44922 24.9508 2.52057C24.9194 7.97187 24.9508 13.4232 24.9508 18.8745C24.9508 21.5214 24.9508 21.5214 27.5905 21.4898Z" fill="#FD5DA7"/>
<path d="M64.0744 54.8259C64.7972 57.2207 65.5199 59.5839 66.2113 61.9787C66.934 63.3652 67.6254 64.7832 68.3481 66.1696C68.5681 66.4847 68.8195 66.7998 69.0395 67.1149C69.8565 67.9027 70.6735 68.6904 71.4906 69.5097C71.7734 69.7618 72.0562 69.9824 72.339 70.2345C73.7531 70.9277 75.1358 71.6209 76.5499 72.3141C78.9067 73.0389 81.295 73.7636 83.6518 74.5199C84.5317 75.6542 84.5317 76.8201 83.6518 77.9545C81.295 78.6792 78.9067 79.404 76.5499 80.1287C76.2042 80.2233 75.8586 80.2548 75.5443 80.4438C74.5387 81.0425 73.5646 81.6727 72.559 82.2714C72.2133 82.492 71.8677 82.7441 71.522 82.9647C70.6735 83.7524 69.8565 84.5402 69.0081 85.3595C68.7881 85.6746 68.5367 85.9581 68.3167 86.2733C67.6882 87.3131 67.0597 88.3214 66.4312 89.3613C65.5514 87.061 64.7029 84.7923 63.823 82.492C63.9173 81.9563 64.043 81.4207 64.043 80.885C64.1373 78.0806 64.1058 78.0805 66.8398 78.0175C68.191 77.986 69.008 77.2928 68.9766 76.1899C68.9452 75.1186 68.1596 74.4884 66.8712 74.4569C64.1373 74.3938 64.1373 74.3938 64.0744 71.6209C64.043 70.2975 63.5402 69.7618 62.3461 69.7303C61.3091 69.7303 60.5863 70.455 60.5235 71.5894C60.492 72.1251 60.4606 72.6923 60.5235 73.2279C60.6492 74.2363 60.2092 74.5199 59.2665 74.4569C58.1352 74.3938 56.9725 74.2363 56.0612 75.1501C55.8727 74.9925 55.747 74.7089 55.527 74.6459C53.8301 73.9842 52.1017 73.3855 50.4048 72.7553C50.0591 72.6292 49.7763 72.3141 49.4307 72.0936C50.3734 71.4634 51.3161 70.8332 52.2589 70.2345C52.5731 69.9824 52.8559 69.7618 53.1702 69.5097C53.9872 68.6904 54.7728 67.8712 55.5898 67.0519C55.8098 66.6738 56.0298 66.2957 56.2498 65.949C56.5326 65.6654 56.9411 65.4449 57.1296 65.0983C57.6639 64.0584 58.1352 62.9871 58.6066 61.9157C59.2665 59.5524 59.9264 57.2207 60.5863 54.8574C61.7804 53.9121 62.9431 54.0066 64.0744 54.8259Z" fill="#FED05B"/>
<path d="M49.4933 72.0938C49.8075 72.3143 50.0904 72.6294 50.4675 72.7555C52.1644 73.4172 53.8927 74.0159 55.5896 74.6461C55.8096 74.7406 55.9353 74.9927 56.1238 75.1503C55.5582 76.7573 56.1238 77.8602 57.6008 77.9862C58.5121 78.0492 59.8633 77.7026 60.2719 78.2068C60.7747 78.774 60.4918 80.0344 60.5861 80.9797C60.6804 82.2086 61.6231 82.9333 62.8487 82.7128C63.1943 82.6497 63.54 82.5552 63.8542 82.4922C64.7341 84.7924 65.5826 87.0612 66.4625 89.3615C66.3682 89.7396 66.3053 90.1492 66.2111 90.5273C65.4883 92.8906 64.7655 95.2539 64.0428 97.6172C62.9115 98.468 61.7802 98.5625 60.649 97.6172C59.8948 95.2539 59.172 92.8906 58.4178 90.5273C57.7265 89.2039 57.0352 87.8805 56.3124 86.557C56.061 86.1789 55.841 85.8008 55.5896 85.3911C54.804 84.6034 54.0184 83.7841 53.2328 82.9964C52.8243 82.1456 52.2586 82.3661 51.5673 82.6497C45.0939 85.3596 38.6205 88.038 32.1156 90.7164C31.8642 90.8109 31.6128 90.937 31.3614 91.0315C30.2616 91.4096 29.2874 91.0315 28.9418 90.0547C28.5961 89.1094 28.9732 88.2271 30.0102 87.7544C32.4927 86.6831 35.0067 85.6747 37.4892 84.6349C40.7259 83.2799 43.9312 81.9565 47.1365 80.6016C47.4193 80.4755 47.6707 80.3495 47.9535 80.2234C47.9535 80.0974 47.9849 80.0029 47.9849 79.8768C45.6281 79.2151 43.3027 78.5849 40.9459 77.9232C40.066 76.7888 40.066 75.6544 40.9459 74.5201C43.3027 73.7953 45.6909 73.0706 48.0478 72.3458C48.6134 72.2513 49.0534 72.1568 49.4933 72.0938Z" fill="#FEC345"/>
<path d="M76.5497 72.3131C75.1356 71.6198 73.753 70.9266 72.3389 70.2334C77.8067 67.9331 83.2431 65.6644 88.711 63.3641C90.0936 62.7969 91.4449 62.2297 92.8276 61.6625C94.2731 61.0639 95.2472 61.2844 95.7186 62.3558C96.19 63.4271 95.6558 64.3409 94.2102 64.9396C88.6795 67.2399 83.1489 69.5402 77.6182 71.8404C77.2725 71.9665 76.9268 72.1555 76.5497 72.3131Z" fill="#FEC347"/>
<path d="M68.3478 66.174C67.625 64.7876 66.9337 63.3696 66.2109 61.9832C67.4679 59.0212 68.7563 56.0907 69.9819 53.0972C71.2388 50.1037 72.4644 47.0787 73.7214 44.0537C74.287 42.7303 75.104 42.3207 76.1725 42.7303C77.2095 43.1399 77.5237 44.1168 77.0209 45.4087C74.2242 52.1519 71.4588 58.9266 68.662 65.6699C68.5992 65.8589 68.4735 66.0165 68.3478 66.174Z" fill="#FEE179"/>
<path d="M66.2427 90.4961C66.3369 90.118 66.3998 89.7083 66.4941 89.3302C67.1226 88.2904 67.751 87.282 68.3795 86.2422C69.6365 89.2042 70.8935 92.1661 72.1505 95.1281C73.7845 99.0354 75.3872 102.974 77.0212 106.882C77.5869 108.236 77.3355 109.213 76.267 109.654C75.1358 110.127 74.3502 109.686 73.7531 108.268C71.4277 102.659 69.1023 97.0187 66.7769 91.4099C66.5883 91.0948 66.3998 90.8112 66.2427 90.4961Z" fill="#FEE179"/>
<path d="M58.6693 61.9218C58.1979 62.9932 57.7266 64.0646 57.1924 65.1044C57.0038 65.451 56.6267 65.6716 56.3125 65.9552C55.2755 63.5289 54.207 61.1341 53.2015 58.7078C51.3474 54.2963 49.5248 49.8534 47.7336 45.4104C47.1994 44.1185 47.5765 43.1416 48.7078 42.732C49.6505 42.3854 50.5618 42.8896 51.0646 44.1185C53.17 49.1916 55.244 54.2963 57.3495 59.3695C57.6951 60.2518 58.2294 61.0711 58.6693 61.9218Z" fill="#FEE179"/>
<path d="M72.5903 82.2755C73.5645 81.6453 74.5701 81.0151 75.5756 80.4479C75.8585 80.2904 76.2356 80.2273 76.5812 80.1328C82.0491 82.4331 87.5169 84.7018 92.9848 87.0021C93.4561 87.1911 93.9275 87.4117 94.3988 87.6008C95.6872 88.168 96.2215 89.0503 95.8444 90.0271C95.4359 91.0984 94.3988 91.4766 93.1104 90.9409C88.7425 89.1133 84.343 87.2857 79.9751 85.4581C77.4611 84.3867 75.0414 83.3154 72.5903 82.2755Z" fill="#FEE179"/>
<path d="M49.4933 72.0962C49.0534 72.1907 48.582 72.2537 48.1421 72.3483C44.7797 70.9303 41.4487 69.4808 38.0863 68.0628C35.5095 66.9915 32.9327 65.9516 30.3873 64.8488C29.0046 64.2501 28.5333 63.3678 29.0361 62.3279C29.476 61.3511 30.4816 61.036 31.7386 61.5717C38.4634 64.3761 45.1882 67.149 51.9444 69.9535C52.0701 70.0165 52.1958 70.111 52.3215 70.2055C51.3788 70.8358 50.4361 71.466 49.4933 72.0962Z" fill="#FEE179"/>
<path d="M56.3751 86.5C57.0664 87.8234 57.7578 89.1469 58.4805 90.4703C56.0294 96.3628 53.5783 102.287 51.1587 108.179C50.5302 109.66 49.5246 110.227 48.4876 109.597C47.5449 109.03 47.2935 108.211 47.7334 107.171C49.1789 103.705 50.593 100.207 52.0386 96.7409C53.3584 93.5583 54.6782 90.3443 55.998 87.1617C56.0294 86.9411 56.218 86.7206 56.3751 86.5Z" fill="#FEE179"/>
<path d="M64.0743 54.8249C62.9431 54.0056 61.7804 53.9111 60.6491 54.8249C60.6177 51.4217 60.5862 47.9871 60.5862 44.584C60.5862 40.8973 60.5548 37.2106 60.5862 33.4923C60.5862 31.8538 62.0003 30.877 63.2259 31.7277C63.6344 32.0113 64.0743 32.6415 64.0743 33.1457C64.1058 40.3616 64.0743 47.609 64.0743 54.8249Z" fill="#FEE078"/>
<path d="M60.6805 97.5547C61.8118 98.5 62.9431 98.437 64.0744 97.5547C64.1058 101.084 64.1372 104.645 64.1372 108.174C64.1372 111.766 64.1372 115.327 64.1372 118.919C64.1372 120.179 63.4144 120.967 62.3774 120.967C61.3719 120.967 60.6177 120.179 60.6177 119.013C60.6177 111.986 60.6177 104.928 60.6177 97.9013C60.6177 97.8068 60.6491 97.6807 60.6805 97.5547Z" fill="#FEE078"/>
<path d="M83.6519 77.9271C84.5317 76.7927 84.5317 75.6268 83.6519 74.4924C90.8166 74.4609 98.0128 74.4609 105.178 74.4609C106.277 74.4609 107 75.2487 107 76.2255C107 77.2023 106.277 77.9901 105.178 77.9901C98.0128 77.9901 90.848 77.9586 83.6519 77.9271Z" fill="#FEE077"/>
<path d="M41.0402 74.524C40.1603 75.6583 40.1603 76.7927 41.0402 77.9271C37.395 77.9586 33.7498 77.9901 30.1045 77.9901C26.7421 77.9901 23.3483 77.9901 19.9859 77.9901C18.6032 77.9901 17.7862 77.3599 17.7547 76.2885C17.7233 75.1542 18.5718 74.4609 19.9859 74.4609C26.7421 74.4609 33.4984 74.4609 40.2232 74.4609C40.506 74.4609 40.7574 74.4924 41.0402 74.524Z" fill="#FEE077"/>
<path d="M7.35316 52.8133C8.2959 52.8448 9.05008 53.6326 9.14435 54.7985C9.23863 55.6493 8.98723 56.7521 9.42717 57.2563C9.80427 57.6974 10.967 57.4138 11.784 57.4769C13.0096 57.5714 13.858 58.3591 13.8266 59.336C13.7952 60.2813 13.0096 61.0375 11.8469 61.1321C10.9984 61.2266 9.89854 60.9745 9.39575 61.4157C8.95581 61.7938 9.23863 62.9597 9.17578 63.7789C9.0815 65.0078 8.2959 65.8586 7.29032 65.8271C6.34758 65.7956 5.5934 65.0078 5.49913 63.842C5.40485 62.9912 5.65625 61.8883 5.21631 61.3842C4.83921 60.943 3.67651 61.2266 2.85948 61.1636C1.63393 61.069 0.816895 60.2813 0.816895 59.273C0.848319 58.2646 1.66535 57.5714 2.92233 57.4769C3.73936 57.4138 4.77637 57.6344 5.27916 57.1933C5.68767 56.8466 5.43628 55.7123 5.49913 54.956C5.56198 53.6641 6.31616 52.7818 7.35316 52.8133Z" fill="#FEE179"/>
<path d="M55.4013 15.348C54.49 15.348 53.7986 15.348 53.1073 15.348C51.8503 15.3165 51.0333 14.6233 51.0019 13.5834C50.9704 12.5436 51.7875 11.8188 53.0444 11.8188C53.7672 11.8188 54.5214 11.8188 55.3698 11.8188C55.3698 10.9681 55.3698 10.2118 55.3698 9.48708C55.4013 8.16364 56.124 7.34437 57.2239 7.37588C58.198 7.40739 58.8579 8.22666 58.8894 9.42405C58.8894 10.1488 58.8894 10.905 58.8894 11.8188C59.8007 11.8188 60.6177 11.7873 61.4033 11.8188C62.5032 11.8504 63.2888 12.5751 63.2888 13.5204C63.2888 14.5603 62.5346 15.285 61.3719 15.348C60.9948 15.3795 60.5863 15.348 60.2092 15.348C59.8321 15.348 59.4236 15.348 58.8579 15.348C58.8579 16.2303 58.8894 17.0496 58.8579 17.8688C58.8265 18.9717 58.1038 19.728 57.161 19.7595C56.1869 19.791 55.4013 18.9717 55.3384 17.8373C55.3698 17.0496 55.4013 16.2933 55.4013 15.348Z" fill="#AF68DA"/>
<path d="M83.4945 95.4766C84.1544 95.8862 84.6572 96.1068 85.0343 96.4534C88.4596 99.8565 91.8848 103.26 95.2787 106.694C96.19 107.608 96.2214 108.616 95.4044 109.373C94.6502 110.097 93.676 110.066 92.7961 109.184C89.3395 105.749 85.8828 102.314 82.5204 98.8167C82.1119 98.3755 81.8919 97.4302 82.049 96.8315C82.1747 96.3273 82.9289 95.9807 83.4945 95.4766Z" fill="#FEC346"/>
<path d="M30.4817 110.126C29.9475 109.685 29.2562 109.402 29.0676 108.929C28.8477 108.393 28.9419 107.637 29.1933 107.101C29.4447 106.566 30.0104 106.188 30.4503 105.715C33.5299 102.627 36.6095 99.539 39.6891 96.4509C40.3176 95.8207 41.0089 95.4426 41.8888 95.9153C42.643 96.2934 43.0515 96.8921 42.8629 97.7429C42.7687 98.121 42.5487 98.5621 42.2659 98.8457C38.8406 102.312 35.4154 105.747 31.9587 109.181C31.613 109.528 31.0788 109.748 30.4817 110.126Z" fill="#FEE078"/>
<path d="M30.3872 42.2891C31.0157 42.6672 31.5499 42.8563 31.927 43.2029C35.3209 46.543 38.6833 49.9146 42.0143 53.2862C42.8941 54.1685 42.8941 55.1453 42.1714 55.9016C41.4172 56.6578 40.443 56.6893 39.5632 55.807C36.1693 52.4354 32.7755 49.0323 29.4131 45.6292C28.8474 45.062 28.5018 44.3372 28.9731 43.6125C29.2874 43.1398 29.8845 42.7932 30.3872 42.2891Z" fill="#FEC346"/>
<path d="M96.2216 44.211C95.8131 44.8412 95.6246 45.3138 95.3103 45.6604C91.9793 49.0321 88.6169 52.4037 85.2231 55.7753C84.3118 56.6891 83.2748 56.6891 82.5206 55.9013C81.7978 55.1451 81.8607 54.1683 82.7406 53.286C86.103 49.9144 89.4654 46.5427 92.8278 43.1711C93.3934 42.6039 94.1162 42.2258 94.8389 42.6985C95.3417 43.0766 95.7188 43.6753 96.2216 44.211Z" fill="#FEE178"/>
<path d="M16.749 108.015C16.4976 110.662 16.0891 111.418 14.9264 111.45C13.7008 111.481 13.2609 110.725 12.9781 108.015C11.6268 107.795 9.5528 108.299 9.61565 106.03C9.6785 104.014 11.5325 104.392 12.9466 104.266C13.2295 102.848 12.6638 100.768 14.9892 100.862C17.0004 100.957 16.5919 102.816 16.749 104.234C18.1317 104.486 20.1742 103.951 20.1428 106.156C20.08 108.236 18.1631 107.826 16.749 108.015Z" fill="#FD993D"/>
<path d="M82.7718 34.7232C81.2948 34.5656 79.3779 34.9437 79.3779 32.8326C79.3779 30.7214 81.2634 31.068 82.7403 31.0049C82.9917 29.587 82.4575 27.5703 84.6572 27.5703C86.7627 27.5703 86.3541 29.524 86.5113 30.9419C87.8939 31.1625 89.9365 30.6583 89.9051 32.8641C89.8737 34.9753 87.9568 34.5341 86.5427 34.7232C86.3541 36.1727 86.7941 38.1578 84.563 38.0948C82.5204 38.0633 82.866 36.2042 82.7718 34.7232Z" fill="#FD993D"/>
<path d="M69.0396 85.3635C69.888 84.5758 70.705 83.788 71.5535 82.9688C74.6645 86.0883 77.7755 89.1763 80.8865 92.2958C81.8607 93.2727 81.9235 94.3125 81.1065 95.0688C80.3523 95.762 79.2839 95.6674 78.404 94.7852C75.293 91.6656 72.182 88.4831 69.0396 85.3635Z" fill="#FEC345"/>
<path d="M71.5219 69.5103C70.7049 68.7225 69.8878 67.9348 69.0708 67.1155C72.2447 63.9014 75.3871 60.6874 78.5924 57.5048C79.378 56.7171 80.5407 56.7486 81.232 57.4733C81.8291 58.135 81.7662 59.2694 81.0121 60.0257C77.8382 63.1767 74.6643 66.3277 71.5219 69.5103Z" fill="#FEE078"/>
<path d="M53.2956 82.9375C54.0812 83.7253 54.8668 84.5445 55.6524 85.3323C52.4157 88.6094 49.2104 91.8865 45.9737 95.132C45.3138 95.7937 44.4025 95.6677 43.7112 95.1005C43.0198 94.5333 42.9884 93.7456 43.3655 92.9578C43.4283 92.8318 43.5226 92.6742 43.6169 92.5797C46.8222 89.3656 50.0589 86.1516 53.2956 82.9375Z" fill="#FEE078"/>
<path d="M55.6524 67.0533C54.8354 67.8726 54.0498 68.6919 53.2328 69.5111C50.0589 66.3601 46.885 63.2091 43.7426 60.058C42.9256 59.2387 42.8941 58.1359 43.5855 57.4427C44.2768 56.7494 45.3767 56.7494 46.1937 57.5687C49.3676 60.6882 52.51 63.8708 55.6524 67.0533Z" fill="#FEC346"/>
<path d="M21.4316 18.8709C21.4631 21.5493 21.4631 21.5493 18.792 21.5178C16.4352 19.123 14.0783 16.7282 11.7215 14.3019C11.4387 14.0183 11.1559 13.7662 10.9045 13.4511C10.1817 12.6319 10.1817 11.6235 10.873 10.9303C11.5958 10.2056 12.57 10.2056 13.387 10.9618C14.4554 11.9701 15.4924 13.073 16.5609 14.1129C18.1949 15.7199 19.829 17.2639 21.4316 18.8709Z" fill="#FD3E97"/>
<path d="M18.7916 25.0469C21.4941 24.9839 21.4941 24.9839 21.4313 27.6623C19.3573 29.6789 17.2833 31.7271 15.2093 33.7438C14.6751 34.2795 14.1723 34.8151 13.638 35.3193C12.6325 36.2961 11.6583 36.3591 10.8727 35.5399C10.1499 34.7836 10.2128 33.7753 11.1555 32.83C13.5123 30.4667 15.8692 28.1034 18.226 25.7086C18.4146 25.5511 18.6031 25.299 18.7916 25.0469Z" fill="#FD3F97"/>
<path d="M27.5907 21.4878C24.951 21.5193 24.951 21.5193 24.9824 18.8409C27.5592 16.2886 30.1046 13.7363 32.6814 11.2469C33.1214 10.8373 33.8441 10.3962 34.3783 10.4592C34.9125 10.5222 35.6982 11.0894 35.7924 11.5935C35.9181 12.1922 35.6982 13.106 35.2582 13.5472C32.9957 15.942 30.6388 18.2422 28.3134 20.574C28.0935 20.8891 27.8421 21.2042 27.5907 21.4878Z" fill="#FD3F98"/>
<path d="M24.9824 27.6994C24.951 25.0525 24.951 25.0525 27.5907 25.084C29.9161 27.4788 32.2415 29.8421 34.5669 32.2369C34.8811 32.552 35.1954 32.8356 35.4782 33.1507C36.2009 34.0015 36.1695 34.9783 35.4468 35.6715C34.7554 36.3332 33.8127 36.3332 32.9957 35.64C32.6186 35.2934 32.2729 34.9153 31.8958 34.5687C29.6332 32.2684 27.3078 29.9681 24.9824 27.6994Z" fill="#FD3F98"/>
<path d="M21.4316 57.3148C21.4316 55.7078 21.4316 54.1007 21.4316 52.4937C21.4316 51.2333 22.0287 50.5716 23.1286 50.54C24.2284 50.5085 24.9512 51.2333 24.9512 52.5252C24.9826 55.7393 24.9826 58.9533 24.9512 62.1989C24.9512 63.4278 24.1656 64.2156 23.0971 64.1841C22.0916 64.1525 21.4316 63.3963 21.4316 62.1674C21.4316 60.5289 21.4316 58.9218 21.4316 57.3148Z" fill="#FD5EA7"/>
<path d="M94.6814 16.3513C94.65 17.2651 93.7073 18.1474 92.796 18.1159C91.8847 18.0529 91.0048 17.1076 91.0676 16.1938C91.1305 15.3115 92.0104 14.4922 92.8902 14.4922C93.8016 14.4922 94.7129 15.4375 94.6814 16.3513Z" fill="#B069DA"/>
<path d="M10.8727 91.8193C9.93 91.8193 9.08154 90.9686 9.08154 90.0232C9.08154 89.0779 9.96143 88.2272 10.9042 88.2587C11.8155 88.2902 12.6011 89.0779 12.6325 89.9917C12.6639 90.937 11.8155 91.8193 10.8727 91.8193Z" fill="#A4E633"/>
<path d="M106.654 50.8273C106.654 51.7727 105.774 52.6234 104.832 52.5919C103.889 52.5604 103.041 51.6781 103.103 50.7328C103.135 49.819 103.952 49.0312 104.863 49.0312C105.806 49.0312 106.654 49.882 106.654 50.8273Z" fill="#A4E633"/>
<path d="M104.423 101.781C103.512 101.781 102.601 100.867 102.601 99.9531C102.601 99.0393 103.543 98.1255 104.455 98.157C105.335 98.1886 106.183 99.0393 106.214 99.9216C106.246 100.835 105.335 101.781 104.423 101.781Z" fill="#B069DA"/>
<path d="M63.8855 82.4658C63.5399 82.5604 63.1942 82.6234 62.88 82.6864C61.6544 82.907 60.7117 82.2137 60.6174 80.9533C60.5231 80.008 60.8059 78.7161 60.3032 78.1804C59.8632 77.7078 58.5434 78.0544 57.6321 77.9598C56.1551 77.8338 55.5895 76.7624 56.1551 75.1239C57.0664 74.2101 58.2606 74.3677 59.3604 74.4307C60.3032 74.4937 60.7431 74.2101 60.6174 73.2018C60.5545 72.6661 60.586 72.0989 60.6174 71.5632C60.6802 70.3973 61.403 69.6726 62.44 69.7041C63.6341 69.7356 64.1369 70.2713 64.1684 71.5947C64.2312 74.3992 64.2312 74.3992 66.9651 74.4307C68.2535 74.4622 69.0391 75.0924 69.0706 76.1637C69.102 77.2666 68.2849 77.9598 66.9337 77.9914C64.1998 78.0229 64.1998 78.0229 64.1369 80.8588C64.0741 81.3945 63.9484 81.9302 63.8855 82.4658Z" fill="#FEE076"/>
</g>
<defs>
<clipPath id="clip0_2500_814">
<rect width="107" height="121" fill="white"/>
</clipPath>
</defs>
</svg>
