<svg width="30" height="30" viewBox="0 0 30 30" fill="none" xmlns="http://www.w3.org/2000/svg">
<g clip-path="url(#clip0_3806_1963)">
<path d="M1.25 30C0.918479 30 0.600537 29.8683 0.366117 29.6339C0.131696 29.3995 0 29.0815 0 28.75V5C0 3.67392 0.526784 2.40215 1.46447 1.46447C2.40215 0.526784 3.67392 0 5 0L13.75 0C15.0761 0 16.3479 0.526784 17.2855 1.46447C18.2232 2.40215 18.75 3.67392 18.75 5V11.25C18.75 12.5761 18.2232 13.8479 17.2855 14.7855C16.3479 15.7232 15.0761 16.25 13.75 16.25H2.5V28.75C2.5 29.0815 2.3683 29.3995 2.13388 29.6339C1.89946 29.8683 1.58152 30 1.25 30ZM25 5H21.25V11.25C21.248 13.2385 20.4572 15.145 19.0511 16.5511C17.645 17.9572 15.7385 18.748 13.75 18.75H13.195C13.6304 19.5075 14.2574 20.1372 15.013 20.576C15.7686 21.0148 16.6262 21.2472 17.5 21.25H25C26.3261 21.25 27.5979 20.7232 28.5355 19.7855C29.4732 18.8479 30 17.5761 30 16.25V10C30 8.67392 29.4732 7.40215 28.5355 6.46447C27.5979 5.52678 26.3261 5 25 5Z" fill="white"/>
</g>
<defs>
<clipPath id="clip0_3806_1963">
<rect width="30" height="30" fill="white"/>
</clipPath>
</defs>
</svg>
