<svg width="22" height="22" viewBox="0 0 22 22" fill="none" xmlns="http://www.w3.org/2000/svg">
<path d="M7.33342 22H7.31142C6.88242 21.989 6.51942 21.6828 6.43508 21.263L4.58342 8.70833L3.64842 16.6797C3.56042 17.1187 3.15525 17.4414 2.71983 17.4158C2.2725 17.4011 1.90033 17.0656 1.84075 16.6219L0.0394992 3.18358C-0.102584 2.43008 0.109166 1.61242 0.629833 0.986333C1.1505 0.36025 1.915 0 2.729 0H19.2721C20.0806 0 20.8414 0.35475 21.3612 0.9735C21.88 1.59225 22.0982 2.4035 21.9588 3.19917L19.2345 19.8907C19.1639 20.3252 18.7954 20.647 18.3554 20.6598C17.8843 20.6525 17.5295 20.3702 17.4342 19.9412L15.5825 8.70925L14.1772 15.9234C14.0727 16.6751 13.7134 16.9547 13.3009 16.9592C12.8673 16.9437 12.5227 16.6916 12.409 16.2947L10.9992 8.70925L8.22167 21.3079C8.119 21.7158 7.75142 22.0009 7.3325 22.0009L7.33342 22Z" fill="#191919"/>
</svg>
