<svg width="21" height="16" viewBox="0 0 21 16" fill="none" xmlns="http://www.w3.org/2000/svg">
<path d="M0.00976562 1.14031C0.0358073 1.07235 0.0566406 1.00963 0.077474 0.941678C0.259766 0.392837 0.754557 0.0112627 1.32747 0.00603568C2.73893 0.000808628 4.15039 -0.00441842 5.56185 0.00603568C6.28581 0.0112627 6.87435 0.607146 6.87956 1.33371C6.88997 2.74501 6.88997 4.15631 6.87956 5.56762C6.87435 6.30463 6.2806 6.89529 5.54102 6.90051C4.15039 6.90574 2.75456 6.90574 1.36393 6.90051C0.733724 6.90051 0.218099 6.48758 0.0514323 5.87079C0.0410156 5.8342 0.0253906 5.79761 0.00976563 5.76624C0.00976562 4.22427 0.00976562 2.68229 0.00976562 1.14031ZM3.44206 5.65125C4.0931 5.65125 4.74414 5.64602 5.39518 5.65648C5.56706 5.65648 5.63477 5.60943 5.63477 5.42649C5.62956 4.1145 5.62956 2.80251 5.63477 1.48529C5.63477 1.3128 5.58268 1.2553 5.41081 1.26053C4.10352 1.26575 2.79622 1.26575 1.48372 1.26053C1.30143 1.26053 1.25456 1.32848 1.25456 1.50097C1.25977 2.80773 1.25977 4.1145 1.25456 5.42126C1.25456 5.59898 1.30664 5.6617 1.48893 5.65648C2.13997 5.64602 2.79102 5.65125 3.44206 5.65125Z" fill="#6E6E6E"/>
<path d="M0.0104167 10.2341C0.0364583 10.1661 0.0572917 10.1034 0.078125 10.0354C0.260417 9.48659 0.755208 9.10501 1.32292 9.09979C2.73438 9.09456 4.14583 9.08933 5.55729 9.09979C6.28125 9.10501 6.86979 9.7009 6.875 10.4275C6.88542 11.8388 6.88542 13.2501 6.875 14.6614C6.86979 15.3984 6.27604 15.989 5.53646 15.9943C4.13542 15.9995 2.73958 15.9995 1.33854 15.9943C0.744792 15.989 0.234375 15.5918 0.0572917 15.022C0.0416667 14.9645 0.0208333 14.9123 0 14.86C0.0104167 13.318 0.0104167 11.776 0.0104167 10.2341ZM5.63542 12.5287C5.63542 11.8806 5.63021 11.2376 5.64062 10.5895C5.64062 10.417 5.59896 10.3438 5.41146 10.3491C4.10417 10.3543 2.79688 10.3543 1.48438 10.3491C1.31771 10.3491 1.25521 10.4013 1.26042 10.5738C1.26562 11.8858 1.26562 13.1978 1.26042 14.515C1.26042 14.698 1.32292 14.7502 1.5 14.745C2.80208 14.7398 4.10417 14.7398 5.40625 14.745C5.58333 14.745 5.64583 14.6927 5.64062 14.5098C5.63021 13.8512 5.63542 13.1926 5.63542 12.5287Z" fill="#6E6E6E"/>
<path d="M14.3641 3.14221C12.7183 3.14221 11.0724 3.14221 9.4214 3.14221C8.94224 3.14221 8.63495 2.71359 8.80161 2.2902C8.89536 2.04976 9.07765 1.91908 9.33286 1.89295C9.39015 1.88772 9.44745 1.89295 9.50995 1.89295C12.7599 1.89295 16.0047 1.89295 19.2547 1.89295C19.3381 1.89295 19.4266 1.88772 19.5099 1.90863C19.8172 1.97135 20.0308 2.25884 20.0099 2.56724C19.9891 2.88609 19.7287 3.14221 19.4058 3.14744C18.9579 3.15789 18.5099 3.15267 18.0568 3.15267C16.8277 3.14221 15.5933 3.14221 14.3641 3.14221Z" fill="#6E6E6E"/>
<path d="M14.406 10.8268C16.0519 10.8268 17.6977 10.8268 19.3487 10.8268C19.8175 10.8268 20.1248 11.2398 19.9737 11.6579C19.8852 11.9088 19.6977 12.0447 19.4321 12.0761C19.3748 12.0813 19.3175 12.0813 19.255 12.0813C16.005 12.0813 12.7602 12.0813 9.51019 12.0813C9.42686 12.0813 9.33832 12.0866 9.26019 12.0657C8.9529 12.0029 8.73936 11.7154 8.76019 11.407C8.78102 11.0882 9.04144 10.8321 9.36436 10.8268C9.85915 10.8164 10.3539 10.8216 10.8487 10.8216C12.0362 10.8268 13.2185 10.8268 14.406 10.8268Z" fill="#6E6E6E"/>
<path d="M12.666 4.2367C13.7441 4.2367 14.8275 4.2367 15.9056 4.2367C16.39 4.2367 16.7025 4.681 16.5202 5.10439C16.4004 5.38142 16.1764 5.49119 15.8796 5.49119C14.4681 5.48596 13.0566 5.49119 11.64 5.49119C10.9264 5.49119 10.2077 5.49119 9.49414 5.49119C9.04622 5.49119 8.75977 5.24029 8.75977 4.85872C8.76497 4.48237 9.04622 4.2367 9.48372 4.2367C10.5462 4.23147 11.6035 4.2367 12.666 4.2367Z" fill="#6E6E6E"/>
<path d="M12.6875 13.3383C13.7604 13.3383 14.8333 13.3383 15.9115 13.3383C16.3958 13.3383 16.7083 13.7826 16.526 14.206C16.4062 14.483 16.1823 14.5928 15.8854 14.5928C14.474 14.5875 13.0625 14.5928 11.6458 14.5928C10.9323 14.5928 10.2135 14.5928 9.5 14.5928C9.05208 14.5928 8.76562 14.3419 8.76562 13.9603C8.77083 13.5839 9.05208 13.3383 9.48958 13.3383C10.5521 13.333 11.6198 13.3383 12.6875 13.3383Z" fill="#6E6E6E"/>
</svg>
