<svg width="22" height="22" viewBox="0 0 22 22" fill="none" xmlns="http://www.w3.org/2000/svg">
<path d="M9.54259 8.074C10.9515 6.6385 14.8501 4.85192 16.8108 5.72642L18.1308 4.40642C17.8942 4.27707 17.7009 4.08102 17.5749 3.84264C17.4488 3.60427 17.3957 3.33409 17.422 3.06574C17.4483 2.79738 17.5529 2.54269 17.7229 2.33334C17.8928 2.12399 18.1206 1.96923 18.3778 1.88831C18.635 1.80739 18.9103 1.80389 19.1695 1.87824C19.4287 1.95258 19.6603 2.1015 19.8356 2.30645C20.0108 2.51141 20.1219 2.76336 20.155 3.03096C20.1881 3.29856 20.1419 3.57 20.0219 3.8115C20.2634 3.69157 20.5349 3.6453 20.8025 3.67843C21.0701 3.71157 21.322 3.82266 21.527 3.99788C21.7319 4.17309 21.8808 4.4047 21.9552 4.6639C22.0295 4.92309 22.026 5.19842 21.9451 5.45564C21.8642 5.71285 21.7094 5.9406 21.5001 6.11054C21.2907 6.28049 21.036 6.38513 20.7677 6.41145C20.4993 6.43776 20.2292 6.3846 19.9908 6.25856C19.7524 6.13252 19.5564 5.93918 19.427 5.70258L18.1033 7.02625C19.0026 9.21708 17.095 12.9608 15.7613 14.2927C11.5501 18.2866 5.55051 12.2833 9.54259 8.074ZM17.0593 15.5907C10.7975 21.4216 2.30093 12.2274 8.61676 6.44142C7.50314 6.38429 6.38958 6.55498 5.3442 6.94305C4.29882 7.33112 3.34362 7.9284 2.53703 8.69835C1.73044 9.4683 1.08943 10.3947 0.653216 11.4209C0.217004 12.4472 -0.00523636 13.5516 9.36491e-05 14.6667V17.0207C0.154094 21.8891 5.24618 21.824 8.25009 22C16.5001 22.1366 26.8089 19.8816 19.6314 11.2044C19.097 12.8334 18.2189 14.3286 17.0565 15.5888L17.0593 15.5907ZM7.33343 3.66667C7.57654 3.66667 7.8097 3.57009 7.98161 3.39818C8.15352 3.22627 8.25009 2.99312 8.25009 2.75V0.916667C8.25009 0.673552 8.15352 0.440394 7.98161 0.268485C7.8097 0.0965771 7.57654 0 7.33343 0C7.09031 0 6.85715 0.0965771 6.68525 0.268485C6.51334 0.440394 6.41676 0.673552 6.41676 0.916667V2.75C6.41676 2.99312 6.51334 3.22627 6.68525 3.39818C6.85715 3.57009 7.09031 3.66667 7.33343 3.66667ZM11.0001 3.66667C11.2432 3.66667 11.4764 3.57009 11.6483 3.39818C11.8202 3.22627 11.9168 2.99312 11.9168 2.75V0.916667C11.9168 0.673552 11.8202 0.440394 11.6483 0.268485C11.4764 0.0965771 11.2432 0 11.0001 0C10.757 0 10.5238 0.0965771 10.3519 0.268485C10.18 0.440394 10.0834 0.673552 10.0834 0.916667V2.75C10.0834 2.99312 10.18 3.22627 10.3519 3.39818C10.5238 3.57009 10.757 3.66667 11.0001 3.66667ZM3.66676 3.66667C3.90988 3.66667 4.14303 3.57009 4.31494 3.39818C4.48685 3.22627 4.58343 2.99312 4.58343 2.75V0.916667C4.58343 0.673552 4.48685 0.440394 4.31494 0.268485C4.14303 0.0965771 3.90988 0 3.66676 0C3.42365 0 3.19049 0.0965771 3.01858 0.268485C2.84667 0.440394 2.75009 0.673552 2.75009 0.916667V2.75C2.75009 2.99312 2.84667 3.22627 3.01858 3.39818C3.19049 3.57009 3.42365 3.66667 3.66676 3.66667Z" fill="#191919"/>
</svg>
