<svg width="52" height="50" viewBox="0 0 52 50" fill="none" xmlns="http://www.w3.org/2000/svg">
<g clip-path="url(#clip0_222_1487)">
<path d="M7.41803 14.2809C8.48197 14.2809 9.45725 14.2809 10.4325 14.2809C11.5851 14.2809 12.1171 15.1288 11.5999 16.1553C10.0779 19.2347 8.55585 22.2993 7.03383 25.3788C6.7974 25.8548 6.45753 26.1672 5.92556 26.1672C5.36404 26.1821 5.00939 25.8548 4.77296 25.3639C3.25094 22.3142 1.71414 19.2347 0.192114 16.1702C-0.310302 15.1437 0.221668 14.2957 1.37427 14.2957C2.31999 14.2957 3.26571 14.266 4.19666 14.3106C4.61041 14.3255 4.80252 14.1916 4.99462 13.8197C7.58058 8.67241 11.4521 4.83427 16.6241 2.37964C30.9577 -4.41893 47.892 3.9268 51.3942 19.5025C54.3495 32.7278 46.2518 45.953 33.189 49.2407C21.2492 52.2458 8.96961 46.0274 4.27055 34.6171C3.94545 33.8435 4.07845 33.2484 4.63997 32.9063C5.29015 32.5046 6.01422 32.7724 6.36887 33.5311C6.78262 34.3939 7.13727 35.3014 7.62491 36.1345C12.3683 44.0488 19.343 47.9762 28.5195 47.5299C38.7599 47.039 47.2418 39.4519 49.222 29.321C51.5863 17.1967 43.7102 5.34007 31.6226 2.84082C22.2393 0.891991 12.4717 5.3252 7.72835 13.7007C7.62491 13.8643 7.55102 14.028 7.41803 14.2809ZM5.89601 22.3439C6.85651 20.4249 7.7579 18.5802 8.68885 16.7057C6.78262 16.7057 4.97984 16.7057 3.08839 16.7057C4.03411 18.5951 4.95028 20.4249 5.89601 22.3439Z" fill="#191919"/>
<path d="M27.1895 11.3047C34.6962 11.3196 40.7843 17.4636 40.7695 25.0209C40.7547 32.5781 34.6223 38.737 27.16 38.6924C19.6533 38.6478 13.58 32.4889 13.5948 24.9465C13.6095 17.4338 19.7272 11.2898 27.1895 11.3047ZM27.1747 36.2973C33.3515 36.2973 38.3904 31.2541 38.4052 25.0506C38.42 18.8025 33.4254 13.7296 27.2043 13.6998C21.0128 13.6701 15.9443 18.7281 15.9295 24.9762C15.9295 31.2095 20.9684 36.2824 27.1747 36.2973Z" fill="#191919"/>
<path d="M28.3569 30.9854C28.3569 31.521 28.3569 32.0417 28.3569 32.5624C28.3421 33.4103 27.8693 33.9459 27.16 33.931C26.4802 33.9161 26.0074 33.3806 26.0074 32.5772C26.0074 32.0566 26.0074 31.5359 26.0074 30.9557C25.4311 30.9557 24.8991 30.9557 24.3819 30.9557C23.584 30.9408 23.052 30.4648 23.052 29.7656C23.052 29.0664 23.584 28.5903 24.3819 28.5903C25.6971 28.5754 26.9974 28.5903 28.3126 28.5903C28.9332 28.5903 29.3913 28.2035 29.5243 27.6531C29.6425 27.1473 29.3765 26.5671 28.8889 26.3588C28.6672 26.2547 28.3865 26.2398 28.1353 26.225C27.3078 26.1952 26.4655 26.2547 25.6527 26.1655C23.7761 25.9572 22.4461 24.4249 22.4757 22.5802C22.5053 20.7355 23.8795 19.2776 25.771 19.0842C25.8301 19.0842 25.8744 19.0693 26.0222 19.0396C26.0222 18.5189 26.0222 17.9982 26.0222 17.4627C26.0369 16.6296 26.5098 16.0792 27.2191 16.094C27.9136 16.1089 28.3569 16.6147 28.3717 17.4478C28.3865 17.9685 28.3717 18.4743 28.3717 19.0842C28.948 19.0842 29.48 19.0842 30.0119 19.0842C30.8099 19.0991 31.3419 19.5752 31.3419 20.2595C31.3419 20.9587 30.8099 21.4347 30.0119 21.4496C28.6968 21.4645 27.3964 21.4496 26.0813 21.4496C25.4754 21.4496 25.0617 21.7769 24.9139 22.2827C24.7661 22.7885 24.9287 23.3389 25.372 23.5918C25.5936 23.7257 25.8892 23.7852 26.1552 23.8001C26.9088 23.8298 27.6624 23.7852 28.4308 23.815C30.2779 23.8893 31.7408 25.2282 31.9182 26.939C32.0955 28.8283 31.002 30.4201 29.1992 30.8516C28.9184 30.9111 28.682 30.9259 28.3569 30.9854Z" fill="#191919"/>
</g>
<defs>
<clipPath id="clip0_222_1487">
<rect width="52" height="50" fill="white"/>
</clipPath>
</defs>
</svg>
