<svg width="212" height="44" viewBox="0 0 212 44" fill="none" xmlns="http://www.w3.org/2000/svg">
<g filter="url(#filter0_d_1680_307)">
<rect x="10" y="10" width="45.8182" height="24" rx="2.18182" fill="white"/>
</g>
<path d="M30.7335 26.9873H28.063L29.732 16.7302H32.4028L30.7335 26.9873ZM25.8164 16.7302L23.2705 23.7851L22.9693 22.2659L22.9695 22.2665L22.071 17.6537C22.071 17.6537 21.9623 16.7302 20.8042 16.7302H16.5953L16.5459 16.9038C16.5459 16.9038 17.833 17.1716 19.3393 18.0762L21.6594 26.9876H24.4418L28.6905 16.7302H25.8164ZM46.8211 26.9873H49.2732L47.1353 16.7299H44.9886C43.9972 16.7299 43.7558 17.4943 43.7558 17.4943L39.773 26.9873H42.5568L43.1135 25.4637H46.5083L46.8211 26.9873ZM43.8826 23.359L45.2857 19.5205L46.0751 23.359H43.8826ZM39.9818 19.1968L40.3629 16.9941C40.3629 16.9941 39.1869 16.5469 37.961 16.5469C36.6358 16.5469 33.4887 17.1261 33.4887 19.9425C33.4887 22.5924 37.1824 22.6253 37.1824 24.0172C37.1824 25.4091 33.8693 25.1597 32.7759 24.282L32.3789 26.5851C32.3789 26.5851 33.5713 27.1643 35.3932 27.1643C37.2156 27.1643 39.9648 26.2207 39.9648 23.6526C39.9648 20.9857 36.238 20.7374 36.238 19.5779C36.2382 18.4181 38.839 18.5671 39.9818 19.1968Z" fill="#2566AF"/>
<path d="M22.9695 22.2668L22.071 17.654C22.071 17.654 21.9623 16.7305 20.8042 16.7305H16.5953L16.5459 16.9041C16.5459 16.9041 18.5689 17.3234 20.5092 18.8942C22.3645 20.3956 22.9695 22.2668 22.9695 22.2668Z" fill="#E6A540"/>
<g filter="url(#filter1_d_1680_307)">
<rect x="63.4543" y="10" width="31.6364" height="24" rx="2.18182" fill="white"/>
</g>
<path fill-rule="evenodd" clip-rule="evenodd" d="M79.0642 26.042C80.0194 26.9221 81.3021 27.456 82.6973 27.456C85.6938 27.456 88.119 25.012 88.119 22.006C88.119 18.991 85.6938 16.5469 82.6973 16.5469C81.3021 16.5469 80.0194 17.0806 79.0642 17.9608C77.9686 18.9628 77.2756 20.4048 77.2756 22.006C77.2757 23.6073 77.9686 25.0495 79.0642 26.042Z" fill="#E9B040"/>
<path fill-rule="evenodd" clip-rule="evenodd" d="M80.8155 21.4256C80.7968 21.229 80.7593 21.0417 80.7219 20.845H77.407C77.4445 20.6484 77.5007 20.4611 77.5568 20.2738H80.5627C80.4975 20.0767 80.4225 19.8829 80.338 19.6932H77.791C77.8847 19.4949 77.9878 19.3011 78.1 19.1126H80.0197C79.8962 18.9127 79.7585 18.7218 79.6078 18.5414H78.5121C78.6816 18.3344 78.8662 18.1404 79.0646 17.9608C78.1001 17.09 76.8266 16.5469 75.4219 16.5469C72.4349 16.5469 70.0002 18.991 70.0002 22.006C70.0002 25.012 72.4349 27.456 75.4219 27.456C76.8266 27.456 78.1 26.9221 79.0646 26.042C79.2598 25.8656 79.4414 25.6746 79.6078 25.4707H78.5121C78.3622 25.2834 78.2312 25.0962 78.1 24.8901H80.0197C80.1404 24.7049 80.2469 24.5108 80.3381 24.3095H77.791C77.7067 24.1223 77.6225 23.935 77.5568 23.7382H80.5627C80.6282 23.5509 80.6751 23.3544 80.7218 23.1576C80.7592 22.9704 80.7967 22.7739 80.8154 22.577C80.8344 22.3872 80.8438 22.1965 80.8436 22.0057C80.8436 21.8094 80.8343 21.6128 80.8155 21.4256Z" fill="#CC2131"/>
<path fill-rule="evenodd" clip-rule="evenodd" d="M87.3987 23.2715C87.3987 23.1686 87.4736 23.0938 87.5672 23.0938C87.6701 23.0938 87.745 23.1687 87.745 23.2715C87.745 23.3652 87.67 23.4495 87.5672 23.4495C87.4736 23.4495 87.3987 23.3651 87.3987 23.2715ZM87.5672 23.4026C87.6421 23.4026 87.7075 23.3463 87.7075 23.2715C87.7075 23.1967 87.642 23.1405 87.5672 23.1405C87.5015 23.1405 87.4362 23.1967 87.4362 23.2715C87.4362 23.3463 87.5016 23.4026 87.5672 23.4026ZM87.5485 23.3463H87.511V23.1966H87.6139C87.6327 23.2061 87.6327 23.2248 87.6327 23.2435C87.6327 23.2528 87.6234 23.2715 87.6047 23.281L87.6421 23.3465H87.5952L87.5764 23.2903H87.5485V23.3463V23.2621H87.5672C87.5764 23.2621 87.5859 23.2621 87.5859 23.2527C87.5952 23.2527 87.5952 23.2434 87.5952 23.2339C87.5952 23.2339 87.5952 23.2247 87.5859 23.2247C87.5859 23.2152 87.5764 23.2247 87.5672 23.2247H87.5485V23.3463Z" fill="white"/>
<path fill-rule="evenodd" clip-rule="evenodd" d="M77.2201 23.5812C77.0422 23.6279 76.911 23.6561 76.78 23.6561C76.4991 23.6561 76.3305 23.4782 76.3305 23.1598C76.3305 23.0943 76.3398 23.0287 76.3492 22.9538L76.3867 22.7386L76.4148 22.5606L76.6676 21.0249H77.2294L77.1639 21.362H77.5197L77.4354 21.9239H77.0796L76.9298 22.8415C76.9204 22.8884 76.9204 22.9164 76.9204 22.9352C76.9204 23.0569 76.9766 23.1037 77.117 23.1037C77.1826 23.1037 77.2387 23.0944 77.2949 23.0849L77.2201 23.5812ZM79.0367 23.5625C78.8308 23.6187 78.6435 23.6467 78.4374 23.6467C77.8006 23.6467 77.4354 23.3095 77.4354 22.6449C77.4354 21.8676 77.8662 21.3057 78.4654 21.3057C78.943 21.3057 79.252 21.6241 79.252 22.1203C79.252 22.289 79.2332 22.4482 79.1865 22.6729H78.016C78.0066 22.7103 78.0066 22.7291 78.0066 22.7478C78.0066 23.01 78.1845 23.141 78.5216 23.141C78.737 23.141 78.9242 23.0943 79.1303 23.0007L79.0367 23.5625ZM78.6903 22.2234V22.111C78.6903 21.9238 78.5872 21.8207 78.4093 21.8207C78.222 21.8207 78.0909 21.9611 78.0347 22.2233L78.6903 22.2234ZM72.7253 23.6092H72.1448L72.4819 21.4837L71.7234 23.6092H71.3208L71.274 21.4931L70.9181 23.6092H70.3469L70.8057 20.8469H71.6579L71.6766 22.5513L72.2478 20.8469H73.1842L72.7253 23.6092ZM74.1394 22.6074C74.0832 22.5979 74.0645 22.5979 74.027 22.5979C73.6899 22.5979 73.5214 22.729 73.5214 22.9351C73.5214 23.0756 73.6057 23.1692 73.7367 23.1692C74.0176 23.1692 74.1299 22.9351 74.1394 22.6074ZM74.6076 23.6092H74.1019L74.1113 23.3752C73.9802 23.553 73.8023 23.6467 73.4933 23.6467C73.2123 23.6467 72.9689 23.394 72.9689 23.0287C72.9689 22.9258 72.9876 22.8322 73.0157 22.7386C73.1093 22.3919 73.4558 22.1767 73.9895 22.1672C74.0551 22.1672 74.158 22.1672 74.2517 22.1767C74.2703 22.1018 74.2703 22.0736 74.2703 22.0268C74.2703 21.8769 74.1487 21.8301 73.8771 21.8301C73.7086 21.8301 73.5213 21.8582 73.3902 21.905L73.3059 21.9238L73.2684 21.933L73.3527 21.4274C73.6243 21.3431 73.8209 21.3057 74.0364 21.3057C74.542 21.3057 74.8136 21.5398 74.8136 21.9705C74.8136 22.0829 74.8229 22.1672 74.7855 22.4107L74.6544 23.216L74.6357 23.3565L74.6263 23.4689L74.6169 23.5438L74.6076 23.6092ZM81.8647 21.3807C82.0332 21.3807 82.1831 21.4275 82.3891 21.5304L82.492 20.9311C82.4358 20.903 82.4171 20.903 82.3422 20.8749L82.1083 20.8094C82.0333 20.7906 81.9397 20.7812 81.8366 20.7812C81.5462 20.7812 81.3777 20.7906 81.1999 20.8937C81.1062 20.9592 80.9845 21.0435 80.8533 21.1933L80.7784 21.1746L80.1791 21.5959L80.2073 21.3618H79.5891L79.2241 23.6091H79.8142L80.0294 22.4013C80.0294 22.4013 80.1138 22.2326 80.1512 22.1766C80.2636 22.0361 80.3572 22.0361 80.4788 22.0361H80.5258C80.5061 22.1788 80.4967 22.3227 80.4976 22.4668C80.4976 23.1971 80.9095 23.656 81.5463 23.656C81.7056 23.656 81.8462 23.6373 82.0614 23.5811L82.1646 22.9444C81.9773 23.0474 81.8087 23.0942 81.6682 23.0942C81.3218 23.0942 81.1156 22.832 81.1156 22.42C81.1154 21.8114 81.4245 21.3807 81.8647 21.3807ZM86.8367 20.8469L86.7058 21.6335C86.5653 21.4181 86.3967 21.3151 86.172 21.3151C85.8628 21.3151 85.5727 21.493 85.3947 21.8301V21.8208L85.0202 21.596L85.0577 21.3619H84.4302L84.0744 23.6092H84.655L84.8517 22.4014C84.8517 22.4014 85.0014 22.2327 85.0389 22.1767C85.1326 22.0643 85.2262 22.0455 85.3011 22.0362C85.2356 22.2234 85.1982 22.4482 85.1982 22.7011C85.1982 23.2629 85.4883 23.6374 85.919 23.6374C86.1345 23.6374 86.303 23.5625 86.4621 23.3845L86.4342 23.6092H86.9867L87.4362 20.8469H86.8367ZM86.1159 23.0756C85.9192 23.0756 85.8162 22.9258 85.8162 22.6354C85.8162 22.1952 86.0035 21.8769 86.2749 21.8769C86.4809 21.8769 86.584 22.0362 86.584 22.3171C86.584 22.7665 86.3968 23.0756 86.1159 23.0756ZM83.4098 22.6074C83.3536 22.5979 83.3349 22.5979 83.2974 22.5979C82.9601 22.5979 82.7915 22.729 82.7915 22.9351C82.7915 23.0756 82.876 23.1692 83.007 23.1692C83.2879 23.1692 83.4003 22.9351 83.4098 22.6074ZM83.878 23.6092H83.3629L83.3816 23.3752C83.2506 23.553 83.0725 23.6467 82.7637 23.6467C82.4733 23.6467 82.2206 23.4032 82.2206 23.0287C82.2206 22.4951 82.623 22.1673 83.2598 22.1673C83.3255 22.1673 83.4283 22.1673 83.5128 22.1768C83.5315 22.1019 83.541 22.0737 83.541 22.0269C83.541 21.8771 83.4192 21.8302 83.1383 21.8302C82.979 21.8302 82.7824 21.8583 82.6514 21.9052L82.5764 21.9239L82.5389 21.9331L82.6231 21.4275C82.8948 21.3432 83.0915 21.3058 83.3068 21.3058C83.8124 21.3058 84.0746 21.5399 84.0746 21.9706C84.0746 22.083 84.0933 22.1673 84.0466 22.4108L83.9248 23.2161L83.9061 23.3566L83.8873 23.469L83.8781 23.544V23.6092H83.878ZM75.8342 21.8395C75.9466 21.8395 76.1058 21.8488 76.2744 21.8769L76.3587 21.3526C76.1901 21.3338 75.9653 21.3057 75.8342 21.3057C75.1788 21.3057 74.9634 21.6616 74.9634 22.0736C74.9634 22.3452 75.0851 22.5417 75.4035 22.6915C75.6376 22.8039 75.6751 22.8225 75.6751 22.9257C75.6751 23.066 75.5534 23.1504 75.3286 23.1504C75.1507 23.1504 74.9821 23.1222 74.7948 23.0567L74.7293 23.5716L74.7385 23.5811L74.8509 23.5998C74.8884 23.6091 74.9352 23.6186 75.0008 23.6278C75.1412 23.6373 75.263 23.6466 75.3379 23.6466C75.9935 23.6466 76.265 23.3939 76.265 22.8975C76.265 22.5886 76.1151 22.4013 75.8248 22.2703C75.572 22.1578 75.5439 22.1392 75.5439 22.0361C75.5439 21.9331 75.6563 21.8395 75.8342 21.8395Z" fill="#1B3771"/>
<path fill-rule="evenodd" clip-rule="evenodd" d="M82.651 20.7498L82.5478 21.3491C82.3419 21.246 82.192 21.1993 82.0235 21.1993C81.5833 21.1993 81.2744 21.63 81.2744 22.2387C81.2744 22.6601 81.4804 22.9128 81.827 22.9128C81.9673 22.9128 82.1359 22.8661 82.3231 22.7725L82.2202 23.3997C82.0047 23.4559 81.8643 23.4842 81.7051 23.4842C81.0684 23.4842 80.6751 23.0253 80.6751 22.2856C80.6751 21.3024 81.2182 20.6094 81.9954 20.6094C82.0983 20.6094 82.1919 20.6187 82.2668 20.6375L82.501 20.6937C82.5761 20.7218 82.5948 20.7312 82.651 20.7498ZM80.7594 21.1618H80.7032C80.5067 21.1618 80.3943 21.2555 80.2163 21.527L80.2725 21.1805H79.7386L79.3736 23.4278H79.9637C80.1789 22.0513 80.2351 21.8173 80.516 21.8173H80.5535C80.6097 21.5457 80.6846 21.349 80.7782 21.1711L80.7594 21.1618ZM77.3697 23.3997C77.2106 23.4559 77.0794 23.4747 76.9484 23.4747C76.6487 23.4747 76.4801 23.3062 76.4801 22.9785C76.4801 22.9223 76.4895 22.8475 76.4988 22.7818L76.5363 22.5571L76.5644 22.3793L76.8172 20.8435H77.3978L77.3322 21.1806H77.6319L77.5569 21.7331H77.2573L77.0981 22.6695C77.0888 22.707 77.0888 22.7352 77.0888 22.7632C77.0888 22.8756 77.145 22.9224 77.2854 22.9224C77.351 22.9224 77.4071 22.9224 77.4445 22.9037L77.3697 23.3997ZM75.113 21.8922C75.113 22.1732 75.244 22.3697 75.553 22.5196C75.7965 22.632 75.8339 22.6694 75.8339 22.7631C75.8339 22.9036 75.7309 22.969 75.4968 22.969C75.3189 22.969 75.1597 22.9411 74.9724 22.8848L74.8881 23.3997L74.9162 23.4092L75.0193 23.428C75.0566 23.4372 75.1036 23.4467 75.1784 23.4467C75.3095 23.4654 75.4219 23.4654 75.4968 23.4654C76.1148 23.4654 76.4052 23.2312 76.4052 22.7163C76.4052 22.4072 76.2835 22.2292 75.9932 22.0889C75.7404 21.9765 75.7123 21.9485 75.7123 21.8455C75.7123 21.7238 75.8153 21.6676 76.0026 21.6676C76.115 21.6676 76.2741 21.677 76.424 21.6957L76.5082 21.1807C76.3584 21.1526 76.1243 21.1339 75.9932 21.1339C75.3377 21.1337 75.1036 21.4802 75.113 21.8922ZM87.1364 23.428H86.5838L86.612 23.2125C86.4527 23.381 86.2841 23.4559 86.0687 23.4559C85.638 23.4559 85.3571 23.0909 85.3571 22.5291C85.3571 21.7799 85.7972 21.1431 86.3121 21.1431C86.5463 21.1431 86.7148 21.2462 86.8742 21.4521L87.0052 20.6656H87.5858L87.1364 23.428ZM86.2748 22.9036C86.5464 22.9036 86.7337 22.5852 86.7337 22.145C86.7337 21.8547 86.6305 21.7048 86.4245 21.7048C86.1623 21.7048 85.9658 22.0139 85.9658 22.454C85.9658 22.7538 86.0688 22.9036 86.2748 22.9036ZM79.1675 23.381C78.9614 23.4467 78.7742 23.4747 78.5589 23.4747C77.9033 23.4747 77.5662 23.1283 77.5662 22.4634C77.5662 21.6956 77.997 21.1244 78.587 21.1244C79.0739 21.1244 79.3828 21.4428 79.3828 21.939C79.3828 22.1077 79.364 22.2669 79.3078 22.5009H78.1469C78.1375 22.5291 78.1375 22.5478 78.1375 22.5666C78.1375 22.8288 78.3155 22.9598 78.6525 22.9598C78.8679 22.9598 79.0551 22.9223 79.2612 22.8193L79.1675 23.381ZM78.8398 22.042V21.9297C78.8398 21.7424 78.7367 21.6394 78.5589 21.6394C78.3716 21.6394 78.2405 21.7799 78.1843 22.042H78.8398ZM72.875 23.428H72.2944L72.6315 21.3023L71.8731 23.428H71.4704L71.4235 21.321L71.0678 23.428H70.5247L70.9835 20.6656H71.8262L71.8543 22.3792L72.4161 20.6656H73.3338L72.875 23.428ZM74.3264 22.4259C74.2702 22.4259 74.2421 22.4167 74.1953 22.4167C73.8675 22.4167 73.699 22.5384 73.699 22.7631C73.699 22.9036 73.7739 22.9878 73.905 22.9878C74.1484 22.9878 74.317 22.7631 74.3264 22.4259ZM74.7571 23.428H74.2701L74.2795 23.1938C74.1296 23.381 73.933 23.4654 73.6614 23.4654C73.343 23.4654 73.1277 23.222 73.1277 22.8567C73.1277 22.3044 73.5022 21.986 74.1577 21.986C74.2233 21.986 74.3076 21.9954 74.4011 22.0046C74.4199 21.9298 74.4199 21.9017 74.4199 21.8642C74.4199 21.7144 74.3168 21.6582 74.0453 21.6582C73.8768 21.6582 73.6894 21.677 73.5584 21.7144L73.4741 21.7425L73.4178 21.7519L73.5022 21.2463C73.7924 21.162 73.9891 21.1339 74.2045 21.1339C74.7102 21.1339 74.9817 21.3586 74.9817 21.7893C74.9817 21.9017 74.9723 21.986 74.9349 22.2388L74.8037 23.0348L74.785 23.1751L74.7756 23.2875L74.7662 23.372L74.7571 23.428ZM83.5968 22.4259C83.5311 22.4259 83.5031 22.4167 83.4658 22.4167C83.1286 22.4167 82.9599 22.5384 82.9599 22.7631C82.9599 22.9036 83.0443 22.9878 83.1754 22.9878C83.4096 22.9878 83.5873 22.7631 83.5968 22.4259ZM84.0275 23.428H83.5406L83.5499 23.1938C83.4001 23.381 83.2035 23.4654 82.9319 23.4654C82.6135 23.4654 82.3981 23.222 82.3981 22.8567C82.3981 22.3044 82.7726 21.986 83.4281 21.986C83.4938 21.986 83.5781 21.9954 83.6623 22.0046C83.681 21.9298 83.6905 21.9017 83.6905 21.8642C83.6905 21.7144 83.5873 21.6582 83.316 21.6582C83.1473 21.6582 82.9508 21.677 82.8196 21.7144L82.7447 21.7425L82.6885 21.7519L82.7727 21.2463C83.0631 21.162 83.2596 21.1339 83.475 21.1339C83.9807 21.1339 84.2428 21.3586 84.2428 21.7893C84.2428 21.9017 84.2428 21.986 84.1961 22.2388L84.0743 23.0348L84.0556 23.1751L84.0369 23.2875L84.0276 23.372L84.0275 23.428ZM85.6006 21.1618H85.5444C85.3479 21.1618 85.2355 21.2555 85.0575 21.527L85.1137 21.1805H84.5799L84.224 23.4278H84.8046C85.02 22.0513 85.0762 21.8173 85.3572 21.8173H85.3946C85.4508 21.5457 85.5257 21.349 85.6194 21.1711L85.6006 21.1618Z" fill="white"/>
<g filter="url(#filter2_d_1680_307)">
<rect x="102.727" y="10" width="54.5455" height="24" rx="2.18182" fill="white"/>
</g>
<path d="M114.204 16.5469H111.007C110.901 16.5468 110.799 16.5844 110.719 16.6529C110.638 16.7213 110.585 16.8162 110.568 16.9203L109.275 25.0856C109.269 25.1235 109.272 25.1622 109.282 25.1991C109.293 25.236 109.311 25.2701 109.336 25.2993C109.361 25.3284 109.393 25.3517 109.427 25.3677C109.462 25.3837 109.501 25.392 109.539 25.3919H111.065C111.171 25.392 111.274 25.3543 111.354 25.2858C111.435 25.2172 111.488 25.1223 111.504 25.0181L111.853 22.8158C111.869 22.7116 111.922 22.6167 112.003 22.5482C112.083 22.4796 112.185 22.4419 112.291 22.4419H113.303C115.409 22.4419 116.624 21.4269 116.942 19.4155C117.085 18.5355 116.948 17.844 116.534 17.3598C116.08 16.8281 115.274 16.5469 114.204 16.5469ZM114.573 19.5291C114.398 20.6716 113.522 20.6716 112.674 20.6716H112.192L112.53 18.5378C112.54 18.4754 112.572 18.4185 112.62 18.3775C112.669 18.3364 112.73 18.3138 112.793 18.3138H113.014C113.592 18.3138 114.136 18.3138 114.418 18.6416C114.585 18.8372 114.637 19.1277 114.573 19.5291ZM123.76 19.4923H122.229C122.166 19.4923 122.104 19.5148 122.056 19.5559C122.008 19.5969 121.976 19.6538 121.966 19.7162L121.898 20.1427L121.791 19.9881C121.46 19.509 120.721 19.3489 119.983 19.3489C118.291 19.3489 116.846 20.6251 116.565 22.4153C116.419 23.3084 116.627 24.1623 117.135 24.7578C117.602 25.3053 118.269 25.5335 119.064 25.5335C120.427 25.5335 121.182 24.6605 121.182 24.6605L121.114 25.0842C121.108 25.122 121.11 25.1608 121.121 25.1977C121.131 25.2347 121.149 25.2689 121.174 25.2981C121.199 25.3273 121.23 25.3508 121.265 25.3669C121.3 25.383 121.338 25.3914 121.377 25.3915H122.756C122.862 25.3915 122.964 25.3539 123.045 25.2853C123.125 25.2167 123.178 25.1218 123.195 25.0176L124.022 19.7986C124.028 19.7608 124.026 19.7222 124.016 19.6853C124.005 19.6485 123.987 19.6143 123.962 19.5852C123.937 19.556 123.906 19.5326 123.871 19.5166C123.836 19.5006 123.798 19.4923 123.76 19.4923ZM121.626 22.46C121.478 23.3312 120.784 23.916 119.899 23.916C119.454 23.916 119.099 23.774 118.871 23.5048C118.645 23.2376 118.559 22.8572 118.631 22.4335C118.769 21.5698 119.474 20.9659 120.346 20.9659C120.781 20.9659 121.134 21.1098 121.367 21.3812C121.6 21.6555 121.693 22.0382 121.626 22.46ZM131.913 19.4923H130.374C130.302 19.4924 130.231 19.5101 130.166 19.544C130.102 19.5778 130.047 19.6267 130.007 19.6864L127.885 22.7995L126.986 19.808C126.958 19.7167 126.902 19.6368 126.825 19.5799C126.748 19.523 126.655 19.4923 126.559 19.4923H125.048C125.005 19.4922 124.963 19.5022 124.926 19.5214C124.888 19.5407 124.855 19.5686 124.83 19.603C124.806 19.6373 124.79 19.677 124.783 19.7188C124.777 19.7607 124.781 19.8033 124.795 19.8433L126.489 24.7964L124.896 27.0364C124.868 27.0762 124.851 27.1229 124.848 27.1715C124.844 27.22 124.854 27.2686 124.877 27.3119C124.899 27.3552 124.933 27.3915 124.975 27.4168C125.017 27.4421 125.065 27.4555 125.114 27.4555H126.65C126.722 27.4556 126.792 27.4383 126.856 27.4053C126.92 27.3722 126.974 27.3242 127.015 27.2655L132.132 19.909C132.159 19.8692 132.176 19.8226 132.179 19.7742C132.182 19.7259 132.171 19.6776 132.149 19.6347C132.126 19.5918 132.092 19.5558 132.051 19.5307C132.009 19.5056 131.961 19.4923 131.913 19.4923Z" fill="#253B80"/>
<path d="M137.007 16.5473H133.81C133.704 16.5474 133.602 16.585 133.521 16.6535C133.441 16.7219 133.388 16.8167 133.371 16.9208L132.078 25.086C132.072 25.1239 132.075 25.1625 132.085 25.1994C132.095 25.2362 132.114 25.2704 132.139 25.2995C132.164 25.3286 132.195 25.352 132.23 25.3681C132.264 25.3841 132.302 25.3924 132.341 25.3924H133.982C134.056 25.3923 134.127 25.3659 134.183 25.3179C134.24 25.2699 134.277 25.2036 134.288 25.1307L134.655 22.8162C134.672 22.7121 134.725 22.6172 134.805 22.5486C134.886 22.4801 134.988 22.4424 135.094 22.4423H136.105C138.211 22.4423 139.426 21.4273 139.744 19.4159C139.888 18.5359 139.75 17.8445 139.336 17.3603C138.882 16.8286 138.077 16.5473 137.007 16.5473ZM137.376 19.5295C137.201 20.6721 136.325 20.6721 135.477 20.6721H134.995L135.334 18.5383C135.344 18.4758 135.375 18.4189 135.424 18.3778C135.472 18.3368 135.533 18.3142 135.597 18.3143H135.818C136.395 18.3143 136.94 18.3143 137.221 18.6421C137.389 18.8376 137.44 19.1282 137.376 19.5295ZM146.562 19.4927H145.032C144.969 19.4926 144.907 19.5151 144.859 19.5562C144.811 19.5973 144.779 19.6542 144.77 19.7167L144.702 20.1432L144.594 19.9886C144.263 19.5095 143.524 19.3493 142.787 19.3493C141.095 19.3493 139.651 20.6256 139.369 22.4158C139.223 23.3088 139.431 24.1627 139.939 24.7582C140.407 25.3058 141.073 25.5339 141.867 25.5339C143.23 25.5339 143.986 24.6609 143.986 24.6609L143.918 25.0846C143.912 25.1226 143.914 25.1614 143.925 25.1984C143.935 25.2354 143.953 25.2697 143.978 25.299C144.004 25.3282 144.035 25.3516 144.07 25.3677C144.105 25.3837 144.143 25.392 144.182 25.3919H145.56C145.666 25.3919 145.768 25.3542 145.849 25.2856C145.929 25.2171 145.982 25.1222 145.998 25.0181L146.826 19.7991C146.832 19.7612 146.83 19.7225 146.819 19.6856C146.809 19.6487 146.79 19.6145 146.765 19.5854C146.74 19.5563 146.709 19.5329 146.674 19.517C146.639 19.501 146.601 19.4927 146.562 19.4927ZM144.428 22.4605C144.282 23.3316 143.586 23.9164 142.701 23.9164C142.258 23.9164 141.901 23.7744 141.673 23.5053C141.447 23.2381 141.362 22.8577 141.433 22.434C141.572 21.5703 142.277 20.9664 143.148 20.9664C143.583 20.9664 143.937 21.1102 144.169 21.3817C144.404 21.6559 144.496 22.0387 144.428 22.4605ZM148.367 16.7713L147.055 25.086C147.049 25.1239 147.051 25.1625 147.062 25.1994C147.072 25.2362 147.09 25.2704 147.115 25.2995C147.14 25.3286 147.171 25.352 147.206 25.3681C147.241 25.3841 147.279 25.3924 147.318 25.3924H148.637C148.856 25.3924 149.042 25.2341 149.076 25.0185L150.369 16.8537C150.375 16.8159 150.373 16.7772 150.363 16.7403C150.352 16.7034 150.334 16.6692 150.309 16.6401C150.284 16.6109 150.253 16.5875 150.218 16.5714C150.183 16.5553 150.145 16.5469 150.107 16.5469H148.63C148.566 16.5471 148.505 16.5698 148.457 16.6109C148.409 16.6521 148.377 16.7089 148.367 16.7713Z" fill="#179BD7"/>
<g filter="url(#filter3_d_1680_307)">
<rect x="164.909" y="10" width="37.0909" height="24" rx="2.18182" fill="white"/>
</g>
<path d="M177.603 21.0645C177.617 22.3505 178.805 22.7776 178.815 22.7823C178.805 22.8108 178.625 23.3945 178.189 23.9924C177.813 24.5096 177.422 25.0269 176.806 25.0364C176.199 25.0459 176.004 24.6995 175.314 24.6995C174.62 24.6995 174.405 25.0269 173.833 25.0459C173.236 25.0649 172.786 24.4859 172.405 23.9687C171.627 22.9152 171.036 20.9886 171.833 19.6883C172.229 19.043 172.938 18.6348 173.706 18.6206C174.287 18.6111 174.84 18.9908 175.197 18.9908C175.554 18.9908 176.224 18.5352 176.928 18.6016C177.221 18.6111 178.052 18.7155 178.58 19.4463C178.536 19.47 177.593 19.9873 177.603 21.0645ZM176.463 17.9041C176.781 17.5434 176.991 17.0451 176.933 16.5469C176.478 16.5659 175.925 16.8316 175.603 17.1922C175.309 17.5102 175.055 18.0179 175.124 18.5067C175.632 18.5447 176.15 18.2647 176.463 17.9041ZM181.038 17.2879C181.27 17.2504 181.532 17.2175 181.814 17.1847C182.096 17.1518 182.408 17.1378 182.744 17.1378C183.229 17.1378 183.645 17.1941 183.996 17.302C184.347 17.4145 184.634 17.5693 184.862 17.7803C185.055 17.9632 185.208 18.1837 185.317 18.4322C185.426 18.6855 185.48 18.9763 185.48 19.3046C185.48 19.7032 185.406 20.0503 185.258 20.3505C185.109 20.6506 184.906 20.8992 184.649 21.1009C184.392 21.3026 184.085 21.4527 183.729 21.5558C183.373 21.6543 182.987 21.7059 182.566 21.7059C182.185 21.7059 181.869 21.6778 181.611 21.6262V24.928H181.043V17.2879H181.038ZM181.607 21.1431C181.745 21.1806 181.898 21.2087 182.067 21.2228C182.235 21.2368 182.418 21.2463 182.611 21.2463C183.338 21.2463 183.897 21.0868 184.298 20.7632C184.699 20.4443 184.896 19.9706 184.896 19.3515C184.896 19.0513 184.842 18.7934 184.738 18.5729C184.634 18.3525 184.486 18.1696 184.293 18.0289C184.1 17.8883 183.867 17.7803 183.605 17.71C183.338 17.6396 183.046 17.6021 182.72 17.6021C182.462 17.6021 182.24 17.6115 182.052 17.6302C181.864 17.649 181.715 17.6725 181.607 17.6912V21.1431ZM190.002 23.6194C190.002 23.8399 190.007 24.065 190.012 24.2854C190.022 24.5059 190.047 24.7216 190.086 24.928H189.552L189.468 24.1495H189.443C189.369 24.2573 189.28 24.3652 189.166 24.4684C189.048 24.5805 188.917 24.6781 188.775 24.7592C188.627 24.8483 188.459 24.9187 188.266 24.9702C188.078 25.0218 187.87 25.05 187.642 25.05C187.36 25.05 187.113 25.0077 186.9 24.9187C186.687 24.8296 186.509 24.717 186.376 24.5763C186.237 24.4356 186.133 24.2714 186.069 24.0885C186 23.9056 185.965 23.7227 185.965 23.5398C185.965 22.8879 186.252 22.3907 186.831 22.039C187.41 21.6872 188.276 21.5184 189.438 21.5324V21.3823C189.438 21.2369 189.423 21.0728 189.394 20.8852C189.364 20.6976 189.305 20.5193 189.206 20.3505C189.107 20.1818 188.963 20.041 188.77 19.9284C188.577 19.8158 188.315 19.7549 187.984 19.7549C187.731 19.7549 187.484 19.7924 187.242 19.8628C187.003 19.9305 186.776 20.0333 186.569 20.1676L186.386 19.7643C186.643 19.5954 186.91 19.4782 187.182 19.4031C187.454 19.3328 187.741 19.2953 188.043 19.2953C188.449 19.2953 188.775 19.3609 189.028 19.4922C189.28 19.6235 189.483 19.7924 189.626 19.9988C189.77 20.2051 189.869 20.435 189.923 20.6929C189.977 20.9508 190.002 21.2041 190.002 21.4574V23.6194ZM189.433 21.9826C189.126 21.9732 188.805 21.9873 188.473 22.0155C188.137 22.0483 187.83 22.1139 187.548 22.2171C187.266 22.3204 187.034 22.4704 186.846 22.672C186.663 22.869 186.569 23.1364 186.569 23.4647C186.569 23.854 186.687 24.14 186.92 24.323C187.152 24.5059 187.415 24.5997 187.707 24.5997C187.939 24.5997 188.152 24.5668 188.335 24.5059C188.518 24.445 188.681 24.3605 188.82 24.2573C188.958 24.1541 189.072 24.0369 189.166 23.9056C189.26 23.7743 189.329 23.6429 189.379 23.5022C189.418 23.3475 189.438 23.2395 189.438 23.1692L189.433 21.9826ZM191.11 19.4218L192.585 23.0003C192.664 23.1974 192.743 23.4037 192.817 23.6148C192.891 23.8258 192.956 24.0181 193.01 24.1963H193.035C193.089 24.0275 193.154 23.8399 193.228 23.6289C193.302 23.4178 193.381 23.2021 193.47 22.9816L194.851 19.4265H195.454L193.772 23.4647C193.604 23.8915 193.44 24.2808 193.292 24.6278C193.144 24.9748 192.99 25.2891 192.837 25.5705C192.684 25.8519 192.53 26.0958 192.372 26.3116C192.214 26.5273 192.04 26.7149 191.848 26.8744C191.62 27.0667 191.412 27.2074 191.224 27.2918C191.036 27.3809 190.908 27.4372 190.843 27.456L190.65 27.0104C190.794 26.9494 190.957 26.8697 191.135 26.7712C191.313 26.6727 191.486 26.5414 191.655 26.3819C191.798 26.2459 191.961 26.063 192.134 25.8378C192.308 25.6127 192.461 25.3407 192.599 25.0171C192.649 24.8951 192.674 24.8154 192.674 24.7779C192.674 24.7263 192.649 24.6419 192.599 24.5387L190.507 19.4359H191.11L191.11 19.4218Z" fill="#010101"/>
<defs>
<filter id="filter0_d_1680_307" x="0" y="0" width="65.8181" height="44" filterUnits="userSpaceOnUse" color-interpolation-filters="sRGB">
<feFlood flood-opacity="0" result="BackgroundImageFix"/>
<feColorMatrix in="SourceAlpha" type="matrix" values="0 0 0 0 0 0 0 0 0 0 0 0 0 0 0 0 0 0 127 0" result="hardAlpha"/>
<feOffset/>
<feGaussianBlur stdDeviation="5"/>
<feComposite in2="hardAlpha" operator="out"/>
<feColorMatrix type="matrix" values="0 0 0 0 0.549514 0 0 0 0 0.549514 0 0 0 0 0.549514 0 0 0 0.25 0"/>
<feBlend mode="normal" in2="BackgroundImageFix" result="effect1_dropShadow_1680_307"/>
<feBlend mode="normal" in="SourceGraphic" in2="effect1_dropShadow_1680_307" result="shape"/>
</filter>
<filter id="filter1_d_1680_307" x="53.4543" y="0" width="51.6365" height="44" filterUnits="userSpaceOnUse" color-interpolation-filters="sRGB">
<feFlood flood-opacity="0" result="BackgroundImageFix"/>
<feColorMatrix in="SourceAlpha" type="matrix" values="0 0 0 0 0 0 0 0 0 0 0 0 0 0 0 0 0 0 127 0" result="hardAlpha"/>
<feOffset/>
<feGaussianBlur stdDeviation="5"/>
<feComposite in2="hardAlpha" operator="out"/>
<feColorMatrix type="matrix" values="0 0 0 0 0.549514 0 0 0 0 0.549514 0 0 0 0 0.549514 0 0 0 0.25 0"/>
<feBlend mode="normal" in2="BackgroundImageFix" result="effect1_dropShadow_1680_307"/>
<feBlend mode="normal" in="SourceGraphic" in2="effect1_dropShadow_1680_307" result="shape"/>
</filter>
<filter id="filter2_d_1680_307" x="92.7273" y="0" width="74.5454" height="44" filterUnits="userSpaceOnUse" color-interpolation-filters="sRGB">
<feFlood flood-opacity="0" result="BackgroundImageFix"/>
<feColorMatrix in="SourceAlpha" type="matrix" values="0 0 0 0 0 0 0 0 0 0 0 0 0 0 0 0 0 0 127 0" result="hardAlpha"/>
<feOffset/>
<feGaussianBlur stdDeviation="5"/>
<feComposite in2="hardAlpha" operator="out"/>
<feColorMatrix type="matrix" values="0 0 0 0 0.549514 0 0 0 0 0.549514 0 0 0 0 0.549514 0 0 0 0.25 0"/>
<feBlend mode="normal" in2="BackgroundImageFix" result="effect1_dropShadow_1680_307"/>
<feBlend mode="normal" in="SourceGraphic" in2="effect1_dropShadow_1680_307" result="shape"/>
</filter>
<filter id="filter3_d_1680_307" x="154.909" y="0" width="57.0908" height="44" filterUnits="userSpaceOnUse" color-interpolation-filters="sRGB">
<feFlood flood-opacity="0" result="BackgroundImageFix"/>
<feColorMatrix in="SourceAlpha" type="matrix" values="0 0 0 0 0 0 0 0 0 0 0 0 0 0 0 0 0 0 127 0" result="hardAlpha"/>
<feOffset/>
<feGaussianBlur stdDeviation="5"/>
<feComposite in2="hardAlpha" operator="out"/>
<feColorMatrix type="matrix" values="0 0 0 0 0.549514 0 0 0 0 0.549514 0 0 0 0 0.549514 0 0 0 0.25 0"/>
<feBlend mode="normal" in2="BackgroundImageFix" result="effect1_dropShadow_1680_307"/>
<feBlend mode="normal" in="SourceGraphic" in2="effect1_dropShadow_1680_307" result="shape"/>
</filter>
</defs>
</svg>
