<svg width="13" height="16" viewBox="0 0 13 16" fill="none" xmlns="http://www.w3.org/2000/svg">
<path d="M8.78182 0.00390625C8.91494 0.0351562 9.05186 0.0625 9.18498 0.09375C10.7786 0.496094 11.8245 1.88281 11.7941 3.57031C11.7903 3.74609 11.7713 3.92187 11.7561 4.09766C11.6458 4.03906 11.5317 3.98437 11.4252 3.92187C10.9802 3.67578 10.4972 3.57031 9.99891 3.56641C8.7628 3.55859 7.5267 3.5625 6.2906 3.56641C6.11945 3.56641 5.94829 3.57812 5.77714 3.59766C5.44625 3.63672 5.10394 3.93359 5.03928 4.26953C4.90997 4.95703 4.79206 5.64844 4.67416 6.33984C4.52963 7.19531 4.3889 8.05078 4.25198 8.90625C4.22916 9.05859 4.22536 9.21875 4.21014 9.37109C4.1607 9.60937 4.10365 9.84375 4.06561 10.082C3.92489 10.918 3.79177 11.7539 3.65485 12.5898C3.59019 12.9766 3.52173 13.3633 3.45707 13.75C3.43425 13.7773 3.40763 13.8008 3.38861 13.8281C3.23647 14.0391 3.0387 14.1562 2.78387 14.1562C2.09926 14.1562 1.41465 14.1641 0.730036 14.1562C0.254612 14.1523 -0.0648737 13.7617 0.0111942 13.2852C0.205167 12.0547 0.410551 10.8242 0.612131 9.59375C0.851744 8.13281 1.09136 6.67188 1.33097 5.21094C1.57819 3.70312 1.82541 2.19922 2.06883 0.691406C2.12588 0.335937 2.32746 0.125 2.63934 0C4.68557 0.00390625 6.7356 0.00390625 8.78182 0.00390625Z" fill="#002987"/>
<path d="M3.45749 13.7539C3.52595 13.3672 3.59441 12.9805 3.65526 12.5938C3.79218 11.7578 3.9253 10.9219 4.06603 10.0859C4.10787 9.84766 4.16111 9.61328 4.21056 9.375C4.38171 9.04688 4.65936 8.91797 5.01307 8.91016C5.7167 8.90234 6.42033 8.91016 7.12396 8.86719C7.74391 8.82812 8.33344 8.61719 8.88493 8.32812C9.5239 7.99609 10.0792 7.55078 10.5432 6.98438C11.0224 6.39453 11.38 5.73438 11.5815 4.99609C11.6576 4.71875 11.707 4.42969 11.7679 4.14844C12.3993 4.60547 12.8214 5.22656 12.9393 6.00781C13.1828 7.60156 12.6579 8.94922 11.5587 10.0742C10.9235 10.7188 10.1553 11.125 9.28429 11.3008C8.86591 11.3828 8.42852 11.4102 8.00254 11.3984C7.37118 11.3828 6.87674 11.7656 6.77024 12.5195C6.62952 13.5039 6.45836 14.4805 6.28721 15.4609C6.22636 15.8125 5.97914 16.0039 5.62922 16.0039C5.04731 16.0039 4.46158 16.0039 3.87966 16.0039C3.42706 16.0039 3.1418 15.6289 3.22548 15.1641C3.31296 14.6953 3.38142 14.2227 3.45749 13.7539Z" fill="#0084CB"/>
<path d="M11.7712 4.14514C11.7104 4.42639 11.6609 4.71545 11.5848 4.99279C11.3833 5.73498 11.0257 6.39123 10.5465 6.98107C10.0863 7.54748 9.52721 7.99279 8.88824 8.32482C8.33294 8.61389 7.74722 8.82482 7.12727 8.86389C6.42744 8.90685 5.72001 8.89514 5.01638 8.90686C4.66647 8.91076 4.38882 9.04357 4.21387 9.3717C4.22908 9.21545 4.22908 9.0592 4.2557 8.90686C4.39263 8.05139 4.53335 7.19592 4.67788 6.34045C4.79579 5.64904 4.90989 4.95764 5.04301 4.27014C5.10766 3.9342 5.44997 3.63732 5.78087 3.59826C5.95202 3.57873 6.12317 3.56701 6.29432 3.56701C7.53043 3.5631 8.76653 3.5592 10.0026 3.56701C10.5009 3.57092 10.9839 3.67639 11.4289 3.92248C11.5392 3.98498 11.6495 4.03967 11.7598 4.09826C11.7636 4.10998 11.7674 4.1256 11.7712 4.14514Z" fill="#00186A"/>
</svg>
