<svg width="70" height="70" viewBox="0 0 70 70" fill="none" xmlns="http://www.w3.org/2000/svg">
<path d="M35 0C15.7004 0 0 15.7004 0 35C0 54.2996 15.7004 70 35 70C54.2996 70 70 54.2996 70 35C70 15.7004 54.2996 0 35 0ZM47.845 40.4629L32.6433 48.7871C31.6954 49.3208 30.6513 49.5863 29.6071 49.5863C28.5192 49.5863 27.4283 49.2975 26.4367 48.72C24.4913 47.5825 23.3333 45.5613 23.3333 43.3096V26.6875C23.3333 24.4358 24.4913 22.4146 26.4367 21.2771C28.3763 20.1425 30.7096 20.1221 32.6725 21.2275L47.8158 29.5196C49.8458 30.66 51.0388 32.7017 51.0388 34.9971C51.0388 37.2925 49.8458 39.3342 47.8421 40.46L47.845 40.4629ZM45.2083 35C45.2083 35.2537 45.0392 35.3471 45.0158 35.3646L29.8142 43.6917C29.7588 43.7208 29.5896 43.8142 29.3854 43.6888C29.1696 43.5633 29.1696 43.3767 29.1696 43.3154V26.6933C29.1696 26.6321 29.1696 26.4454 29.3854 26.32C29.4642 26.2733 29.5371 26.2588 29.6013 26.2588C29.7063 26.2588 29.7908 26.3054 29.8433 26.3346L44.9867 34.6296C45.0421 34.6617 45.2083 34.755 45.2083 35.0088V35Z" fill="white"/>
</svg>
