<svg width="53" height="53" viewBox="0 0 53 53" fill="none" xmlns="http://www.w3.org/2000/svg">
<g clip-path="url(#clip0_1766_266)">
<path d="M32.7341 25.8552C32.8494 25.9182 32.9451 26.0117 33.011 26.1254C33.0768 26.2391 33.1101 26.3687 33.1073 26.5C33.114 26.612 33.0934 26.724 33.0472 26.8264C33.0011 26.9287 32.9307 27.0183 32.8423 27.0874L20.9792 33.0234C20.8662 33.0859 20.7389 33.1178 20.6098 33.1162C20.4807 33.1146 20.3543 33.0794 20.2429 33.0141C20.1316 32.9489 20.0391 32.8558 19.9746 32.7439C19.9101 32.6321 19.8757 32.5055 19.875 32.3764V20.6236C19.8725 20.4926 19.9057 20.3634 19.9711 20.2498C20.0364 20.1362 20.1315 20.0425 20.246 19.9788C20.3514 19.918 20.471 19.886 20.5927 19.886C20.7708 19.8913 20.9444 19.9431 21.0962 20.0362L32.7341 25.8552ZM53 11.0417V41.9583C52.9965 44.8857 51.8321 47.6921 49.7621 49.7621C47.6921 51.8321 44.8857 52.9965 41.9583 53H11.0417C8.11431 52.9965 5.30786 51.8321 3.2379 49.7621C1.16795 47.6921 0.00350652 44.8857 0 41.9583L0 11.0417C0.00350652 8.11431 1.16795 5.30786 3.2379 3.2379C5.30786 1.16795 8.11431 0.00350652 11.0417 0L41.9583 0C44.8857 0.00350652 47.6921 1.16795 49.7621 3.2379C51.8321 5.30786 52.9965 8.11431 53 11.0417ZM37.524 26.5C37.5248 25.5695 37.2735 24.6563 36.7967 23.8572C36.32 23.0581 35.6357 22.4032 34.8166 21.9619L23.161 16.1429C22.3759 15.6925 21.4862 15.4565 20.5811 15.4585C19.676 15.4605 18.7874 15.7005 18.0044 16.1545C17.2213 16.6084 16.5714 17.2603 16.1199 18.0447C15.6684 18.8291 15.4311 19.7185 15.4318 20.6236V32.3764C15.4265 33.2813 15.6617 34.1714 16.1134 34.9556C16.565 35.7398 17.2169 36.3899 18.0023 36.8394C18.7974 37.3036 19.7008 37.5496 20.6214 37.5527C21.4731 37.5566 22.3108 37.3365 23.0506 36.9145L34.9226 30.9807C35.7164 30.5337 36.3762 29.8825 36.8336 29.0947C37.291 28.3068 37.5294 27.411 37.524 26.5Z" fill="#30A346"/>
</g>
<defs>
<clipPath id="clip0_1766_266">
<rect width="53" height="53" fill="white"/>
</clipPath>
</defs>
</svg>
