<svg width="35" height="35" viewBox="0 0 35 35" fill="none" xmlns="http://www.w3.org/2000/svg">
<g clip-path="url(#clip0_1051_1244)">
<path d="M17.7728 35C17.5905 35 17.4082 35 17.2259 35C16.9525 34.7812 16.6699 34.5807 16.4238 34.3438C15.2663 33.2044 14.1087 32.0469 12.9694 30.8893C12.7689 30.6797 12.5592 30.6159 12.2858 30.6159C9.49675 30.625 6.70768 30.625 3.91862 30.6159C2.15039 30.6159 0.728516 29.6042 0.19987 27.9909C0.126953 27.7813 0.0722656 27.5625 0.0175781 27.3438C0.0175781 19.3229 0.0175781 11.3021 0.0175781 3.28125C0.0358073 3.24479 0.063151 3.19922 0.0722656 3.16276C0.41862 1.2487 1.9043 0 3.85482 0C12.9421 0 22.0293 0 31.1257 0C33.3678 0 34.9993 1.64062 34.9993 3.89193C34.9993 11.5026 34.9993 19.1042 34.9993 26.7148C34.9993 27.043 34.972 27.3802 34.89 27.6992C34.4707 29.4766 32.9759 30.6159 31.0892 30.6159C28.2728 30.625 25.4655 30.6159 22.6491 30.6159C22.4121 30.6159 22.248 30.6797 22.084 30.8438C20.9355 32.0104 19.7689 33.168 18.6022 34.3255C18.347 34.5716 18.0553 34.7721 17.7728 35ZM11.1283 22.8503C11.11 23.7799 11.903 24.263 12.6686 23.8711C14.1816 23.0872 15.6947 22.2943 17.1986 21.4922C17.4355 21.3646 17.5996 21.3828 17.8184 21.5013C19.2858 22.2852 20.7624 23.0508 22.2207 23.8255C22.64 24.0443 23.041 24.099 23.4421 23.8164C23.8431 23.5339 23.916 23.1237 23.834 22.6589C23.5423 21.0091 23.2689 19.3594 22.9681 17.7188C22.9225 17.4818 22.9772 17.3177 23.1595 17.1536C24.3535 16.0052 25.5293 14.8568 26.7051 13.6992C26.8691 13.5352 27.0332 13.3346 27.1152 13.125C27.3522 12.4688 26.9056 11.8854 26.1309 11.776C24.4993 11.5391 22.8678 11.3021 21.2272 11.0742C20.9538 11.0378 20.7988 10.9375 20.6712 10.6732C19.9603 9.19661 19.222 7.73828 18.5111 6.26172C18.2923 5.8151 18.0007 5.49609 17.4811 5.50521C16.9798 5.51432 16.6882 5.82422 16.4785 6.26172C15.7493 7.75651 15.0111 9.24219 14.2819 10.737C14.1816 10.9466 14.054 11.0378 13.8262 11.0742C12.1764 11.3021 10.5358 11.5391 8.89518 11.7852C8.6582 11.8216 8.39388 11.8945 8.20247 12.0312C7.66471 12.4141 7.67383 13.125 8.19336 13.6354C9.4056 14.8203 10.6178 16.0052 11.8483 17.181C12.0033 17.3359 12.0671 17.4727 12.0215 17.6914C11.8665 18.5299 11.7298 19.3685 11.584 20.2161C11.429 21.1185 11.2741 22.0391 11.1283 22.8503Z" fill="#30A346"/>
<path d="M21.4557 21.0885C21.1185 20.9154 20.8177 20.7604 20.5169 20.6055C19.7148 20.1862 18.9036 19.7669 18.1016 19.3294C17.6823 19.1016 17.2904 19.1107 16.8711 19.3385C15.8958 19.8672 14.9023 20.3776 13.918 20.8971C13.8086 20.9518 13.6992 21.0065 13.5078 21.0977C13.599 20.5599 13.6719 20.0768 13.7539 19.5938C13.8815 18.819 14.0091 18.0443 14.1549 17.2695C14.2279 16.8503 14.1003 16.513 13.7995 16.2214C12.9701 15.4193 12.1497 14.6172 11.3294 13.8151C11.2474 13.7331 11.1471 13.6875 11.0469 13.6237C11.0651 13.5872 11.0833 13.5508 11.1016 13.5234C11.6576 13.4414 12.2135 13.3503 12.7695 13.2682C13.4531 13.168 14.1458 13.0677 14.8294 12.9766C15.2852 12.9128 15.5951 12.6849 15.7956 12.2656C16.2786 11.2539 16.7891 10.2422 17.2904 9.23958C17.3451 9.13021 17.4089 9.02083 17.4818 8.875C17.5638 9.01172 17.6276 9.11198 17.6732 9.22135C18.1745 10.2331 18.6849 11.2357 19.168 12.2474C19.3867 12.7122 19.7331 12.9219 20.2253 12.9948C21.3828 13.1497 22.5495 13.3229 23.707 13.4961C23.7617 13.5052 23.8164 13.5234 23.8711 13.5417C23.9076 13.5781 23.9349 13.6146 23.9714 13.6602C23.862 13.7148 23.7344 13.7604 23.6523 13.8424C22.8685 14.5898 22.112 15.3646 21.319 16.0938C20.8815 16.4948 20.7448 16.9232 20.8542 17.4974C21.0729 18.6003 21.2461 19.7122 21.4375 20.8242C21.4557 20.888 21.4557 20.9701 21.4557 21.0885Z" fill="#30A346"/>
</g>
<defs>
<clipPath id="clip0_1051_1244">
<rect width="35" height="35" fill="white"/>
</clipPath>
</defs>
</svg>
