<svg width="22" height="22" viewBox="0 0 22 22" fill="none" xmlns="http://www.w3.org/2000/svg">
<path d="M20.8798 13.3838C21.2006 13.6313 21.5949 13.7645 22 13.7624V15.5957C21.1885 15.5983 20.3995 15.3291 19.7588 14.8312C19.6106 14.724 19.4324 14.6662 19.2495 14.6662C19.0667 14.6662 18.8884 14.724 18.7403 14.8312C18.0947 15.318 17.3081 15.5812 16.4995 15.5812C15.691 15.5812 14.9044 15.318 14.2588 14.8312C14.1106 14.724 13.9324 14.6662 13.7495 14.6662C13.5667 14.6662 13.3884 14.724 13.2403 14.8312C12.5947 15.318 11.8081 15.5812 10.9995 15.5812C10.191 15.5812 9.40441 15.318 8.75875 14.8312C8.61064 14.724 8.43243 14.6662 8.24954 14.6662C8.06666 14.6662 7.88845 14.724 7.74033 14.8312C7.09467 15.318 6.3081 15.5812 5.49954 15.5812C4.69099 15.5812 3.90441 15.318 3.25875 14.8312C3.11064 14.724 2.93242 14.6662 2.74954 14.6662C2.56666 14.6662 2.38845 14.724 2.24033 14.8312C1.59996 15.3293 0.811223 15.5984 0 15.5957L0 13.7624C0.404877 13.7647 0.798868 13.6314 1.11925 13.3838C1.5886 13.0288 2.16103 12.8367 2.74954 12.8367C3.33806 12.8367 3.91048 13.0288 4.37983 13.3838C4.70269 13.6265 5.09565 13.7577 5.49954 13.7577C5.90343 13.7577 6.29639 13.6265 6.61925 13.3838C7.0886 13.0288 7.66103 12.8367 8.24954 12.8367C8.83806 12.8367 9.41048 13.0288 9.87983 13.3838C10.2027 13.6265 10.5957 13.7577 10.9995 13.7577C11.4034 13.7577 11.7964 13.6265 12.1193 13.3838C12.5886 13.0288 13.161 12.8367 13.7495 12.8367C14.3381 12.8367 14.9105 13.0288 15.3798 13.3838C15.7027 13.6265 16.0957 13.7577 16.4995 13.7577C16.9034 13.7577 17.2964 13.6265 17.6193 13.3838C18.0886 13.0288 18.661 12.8367 19.2495 12.8367C19.8381 12.8367 20.4105 13.0288 20.8798 13.3838ZM0 19.2505C0 19.9798 0.289731 20.6793 0.805456 21.195C1.32118 21.7108 2.02065 22.0005 2.75 22.0005H19.25C19.9793 22.0005 20.6788 21.7108 21.1945 21.195C21.7103 20.6793 22 19.9798 22 19.2505V17.4172H0V19.2505ZM17.1637 0.962993C16.7823 0.512566 16.2654 0.197709 15.6902 0.0655203C15.115 -0.0666685 14.5125 -0.00908406 13.9728 0.22966L0 7.33383V11.0005H22V7.33383L17.1637 0.962993Z" fill="#191919"/>
</svg>
