<svg width="19" height="20" viewBox="0 0 19 20" fill="none" xmlns="http://www.w3.org/2000/svg">
<path d="M17.0446 11.7658L14.1421 10L17.0446 8.23417C17.3465 8.05332 17.6094 7.81416 17.818 7.53063C18.0265 7.24711 18.1765 6.92489 18.2592 6.58279C18.3418 6.24069 18.3556 5.88554 18.2995 5.53808C18.2435 5.19061 18.1189 4.85778 17.9328 4.559C17.7468 4.26022 17.5032 4.00148 17.2161 3.79786C16.929 3.59425 16.6043 3.44984 16.2608 3.37306C15.9173 3.29628 15.562 3.28866 15.2155 3.35066C14.8691 3.41266 14.5385 3.54303 14.2429 3.73417L11.6279 5.40833V2.5C11.6279 1.83696 11.3645 1.20107 10.8957 0.732233C10.4269 0.263392 9.79097 0 9.12793 0C8.46489 0 7.829 0.263392 7.36016 0.732233C6.89132 1.20107 6.62793 1.83696 6.62793 2.5V5.49L4.01293 3.73417C3.41658 3.37698 2.70378 3.26834 2.0281 3.43164C1.35241 3.59495 0.76791 4.01713 0.400509 4.60725C0.0331075 5.19736 -0.0877915 5.90818 0.0638557 6.58658C0.215503 7.26498 0.62756 7.85666 1.21126 8.23417L4.11376 10L1.21126 11.7658C0.62756 12.1433 0.215503 12.735 0.0638557 13.4134C-0.0877915 14.0918 0.0331075 14.8026 0.400509 15.3927C0.76791 15.9829 1.35241 16.4051 2.0281 16.5684C2.70378 16.7317 3.41658 16.623 4.01293 16.2658L6.62793 14.5675V17.5C6.62793 18.163 6.89132 18.7989 7.36016 19.2678C7.829 19.7366 8.46489 20 9.12793 20C9.79097 20 10.4269 19.7366 10.8957 19.2678C11.3645 18.7989 11.6279 18.163 11.6279 17.5V14.5167L14.2429 16.2667C14.8393 16.6239 15.5521 16.7325 16.2278 16.5692C16.9034 16.4059 17.4879 15.9837 17.8554 15.3936C18.2228 14.8035 18.3436 14.0927 18.192 13.4143C18.0404 12.7359 17.6283 12.1433 17.0446 11.7658Z" fill="#D4CCC2"/>
</svg>
