<svg width="60" height="35" viewBox="0 0 60 35" fill="none" xmlns="http://www.w3.org/2000/svg">
<g clip-path="url(#clip0_1051_1236)">
<path d="M0 14.5545C0 14.2426 0 13.9422 0 13.6304C0.46274 12.637 1.2494 12.3251 2.32527 12.3482C5.56445 12.3944 8.80364 12.3713 12.0428 12.3597C12.9336 12.3597 13.593 11.9323 13.8475 11.1931C14.264 9.99175 13.5467 9.02145 12.1932 9.0099C9.35892 8.99835 6.52464 9.0099 3.69035 8.99835C2.52193 9.0099 1.73528 8.30528 1.73528 7.26568C1.73528 6.24918 2.5335 5.54455 3.70192 5.54455C4.31505 5.54455 4.91662 5.54455 5.55288 5.54455C5.55288 4.32013 5.55288 3.18812 5.55288 2.05611C5.55288 0.658416 6.21229 0 7.60051 0C17.7808 0 27.9495 0 38.1298 0C38.338 0 38.5347 0 38.7661 0C38.7661 3.41914 38.7661 6.74587 38.7661 10.0726C38.7661 11.4703 39.4255 12.1287 40.8021 12.1287C45.0015 12.1287 49.2009 12.1287 53.4118 12.1287C56.3502 12.1287 58.421 13.7228 59.1729 16.5528C59.1845 16.5875 59.2192 16.6106 59.2423 16.6337C59.2423 20.5611 59.2423 24.4885 59.2423 28.4158C58.7796 29.4208 57.9929 29.7673 56.9171 29.698C56.1188 29.6403 55.309 29.6865 54.534 29.6865C53.2383 33.198 51.1444 34.9191 48.1828 35C46.7946 35.0347 45.5105 34.6766 44.3537 33.9257C42.8151 32.9208 41.878 31.4884 41.45 29.7211C35.5616 29.7211 29.7079 29.7211 23.8774 29.7211C22.6164 33.1634 20.5341 34.9076 17.5957 34.9884C16.2075 35.0347 14.9234 34.6881 13.755 33.9488C12.1469 32.9439 11.1983 31.5 10.7587 29.6865C9.59029 29.6865 8.45658 29.698 7.32287 29.6865C6.42052 29.6749 5.71484 29.0858 5.57602 28.2195C5.54132 28.0116 5.55288 27.7921 5.55288 27.5842C5.55288 25.9901 5.55288 24.396 5.55288 22.7558C4.44231 22.7558 3.37801 22.7096 2.33684 22.7673C1.2494 22.8251 0.46274 22.4785 0 21.4851C0 21.1733 0 20.8729 0 20.5611C0.46274 19.5561 1.2494 19.2673 2.32527 19.2789C7.25346 19.3135 12.1932 19.2904 17.1214 19.302C17.9312 19.302 18.5559 19.0363 18.9145 18.2855C19.4929 17.0842 18.6022 15.8366 17.1792 15.8366C12.2279 15.8366 7.27659 15.8135 2.32527 15.8482C1.2494 15.8482 0.46274 15.5479 0 14.5545ZM17.3528 25.1815C15.5712 25.17 14.1252 26.5792 14.1136 28.3234C14.102 30.0792 15.5249 31.5116 17.2949 31.5231C19.0186 31.5347 20.4647 30.1139 20.4763 28.3812C20.4878 26.6485 19.0765 25.1931 17.3528 25.1815ZM44.7701 28.335C44.7586 30.0908 46.1815 31.5231 47.9515 31.5347C49.6752 31.5462 51.1097 30.1254 51.1328 28.3927C51.1444 26.6485 49.733 25.2046 48.0093 25.1931C46.2278 25.17 44.7817 26.5792 44.7701 28.335Z" fill="#30A346"/>
<path d="M42.2715 0.390625C47.0261 1.30317 49.5596 4.71076 51.7345 8.61505C48.5648 8.61505 45.4413 8.61505 42.2715 8.61505C42.2715 5.88897 42.2715 3.15135 42.2715 0.390625Z" fill="#30A346"/>
</g>
<defs>
<clipPath id="clip0_1051_1236">
<rect width="59.2308" height="35" fill="white"/>
</clipPath>
</defs>
</svg>
