<svg width="17" height="17" viewBox="0 0 17 17" fill="none" xmlns="http://www.w3.org/2000/svg">
<path d="M15.5837 2.83333H12.042V1.41667C12.042 1.04094 11.8927 0.680609 11.6271 0.414932C11.3614 0.149256 11.001 0 10.6253 0L6.37533 0C5.9996 0 5.63927 0.149256 5.37359 0.414932C5.10791 0.680609 4.95866 1.04094 4.95866 1.41667V2.83333H1.41699V4.25H2.83366V14.875C2.83366 15.4386 3.05754 15.9791 3.45606 16.3776C3.85457 16.7761 4.39507 17 4.95866 17H12.042C12.6056 17 13.1461 16.7761 13.5446 16.3776C13.9431 15.9791 14.167 15.4386 14.167 14.875V4.25H15.5837V2.83333ZM6.37533 1.41667H10.6253V2.83333H6.37533V1.41667ZM12.7503 14.875C12.7503 15.0629 12.6757 15.243 12.5429 15.3759C12.41 15.5087 12.2299 15.5833 12.042 15.5833H4.95866C4.7708 15.5833 4.59063 15.5087 4.45779 15.3759C4.32495 15.243 4.25033 15.0629 4.25033 14.875V4.25H12.7503V14.875Z" fill="white"/>
<path d="M7.79167 7.08594H6.375V12.7526H7.79167V7.08594Z" fill="white"/>
<path d="M10.6257 7.08594H9.20898V12.7526H10.6257V7.08594Z" fill="white"/>
</svg>
