<svg width="15" height="15" viewBox="0 0 15 15" fill="none" xmlns="http://www.w3.org/2000/svg">
<path d="M5.31108 5.93744C5.31108 6.28182 5.39108 6.60807 5.53358 6.89807C5.22733 7.29057 5.03671 7.77744 5.01108 8.30807C4.42296 7.69057 4.06108 6.85557 4.06108 5.93807C4.06108 3.80619 6.01233 2.12119 8.22296 2.57494C9.52421 2.84244 10.5786 3.89057 10.8561 5.18994C10.9398 5.58244 10.9555 5.96682 10.913 6.33432C10.8767 6.64557 10.6036 6.87557 10.2898 6.87557H10.2617C9.89171 6.87557 9.63171 6.54619 9.67233 6.17869C9.69983 5.93182 9.68546 5.67244 9.62233 5.40807C9.43608 4.62494 8.79733 3.99057 8.01296 3.80994C6.58421 3.48182 5.31046 4.56432 5.31046 5.93807L5.31108 5.93744ZM2.87983 5.12807C3.05108 4.13244 3.53796 3.22494 4.29296 2.51682C5.24858 1.62119 6.49983 1.17869 7.81171 1.25994C10.2823 1.41994 12.2142 3.58432 12.1855 6.17557C12.1736 7.26057 11.2648 8.12432 10.1805 8.12432H8.67671C8.52421 7.60619 8.05046 7.22494 7.48296 7.22494C6.79233 7.22494 6.23296 7.78432 6.23296 8.47494C6.23296 9.16557 6.79233 9.72494 7.48296 9.72494C7.81921 9.72494 8.12358 9.59057 8.34796 9.37432H10.1805C11.9423 9.37432 13.4105 7.97119 13.4355 6.20994C13.4817 2.94682 11.0305 0.215569 7.89233 0.0130686C6.22733 -0.0950565 4.64796 0.470569 3.43858 1.60557C2.50171 2.48369 1.87858 3.64619 1.65421 4.89682C1.58608 5.27682 1.88671 5.62557 2.27233 5.62557C2.56733 5.62557 2.83046 5.41994 2.87983 5.12869V5.12807ZM7.49858 10.6249C5.18921 10.6249 3.19108 12.0574 2.52671 14.1887C2.42358 14.5181 2.60796 14.8687 2.93733 14.9718C3.26608 15.0712 3.61671 14.8899 3.71983 14.5612C4.21296 12.9799 5.76608 11.8749 7.49796 11.8749C9.22983 11.8749 10.7836 12.9799 11.2761 14.5612C11.3598 14.8287 11.6061 14.9999 11.873 14.9999C11.9348 14.9999 11.9967 14.9906 12.0592 14.9718C12.3886 14.8687 12.5723 14.5181 12.4698 14.1887C11.8055 12.0574 9.80733 10.6249 7.49796 10.6249H7.49858Z" fill="#6E6E6E"/>
</svg>
