<svg width="30" height="30" viewBox="0 0 30 30" fill="none" xmlns="http://www.w3.org/2000/svg">
<g clip-path="url(#clip0_3806_1961)">
<path d="M6.425 6.2625L4.285 2.65375L6.43625 1.3775L8.57625 4.98625L6.425 6.2625ZM27.5 14.9963C27.2537 15.78 23.2288 23.365 15 23.75C6.41375 23.3587 2.77875 15.7987 2.5 15.0075C2.745 14.2162 6.75 6.63875 15 6.25C22.725 6.42375 26.8188 13.2375 27.5 14.9963ZM20 15C20 12.2425 17.7575 10 15 10C12.2425 10 10 12.2425 10 15C10 17.7575 12.2425 20 15 20C17.7575 20 20 17.7575 20 15ZM15 12.5C13.6213 12.5 12.5 13.6213 12.5 15C12.5 16.3787 13.6213 17.5 15 17.5C16.3787 17.5 17.5 16.3787 17.5 15C17.5 13.6213 16.3787 12.5 15 12.5ZM16.25 0H13.75V3.75H16.25V0ZM25.715 2.655L23.5637 1.37875L21.4237 4.9875L23.575 6.26375L25.715 2.655ZM25.715 27.3463L23.575 23.7375L21.4237 25.0138L23.5637 28.6225L25.715 27.3463ZM16.25 26.2512H13.75V30.0012H16.25V26.2512ZM8.575 25.0138L6.42375 23.7375L4.28375 27.3463L6.435 28.6225L8.575 25.0138Z" fill="white"/>
</g>
<defs>
<clipPath id="clip0_3806_1961">
<rect width="30" height="30" fill="white"/>
</clipPath>
</defs>
</svg>
