<svg width="192" height="24" viewBox="0 0 192 24" fill="none" xmlns="http://www.w3.org/2000/svg">
<rect width="45.8182" height="24" rx="2.18182" fill="white"/>
<path d="M20.7325 16.9873H18.062L19.731 6.73016H22.4018L20.7325 16.9873ZM15.8155 6.73016L13.2695 13.7851L12.9683 12.2659L12.9686 12.2665L12.07 7.6537C12.07 7.6537 11.9613 6.73016 10.8032 6.73016H6.59431L6.54492 6.90383C6.54492 6.90383 7.83201 7.17162 9.33832 8.07623L11.6584 16.9876H14.4408L18.6895 6.73016H15.8155ZM36.8201 16.9873H39.2722L37.1343 6.72988H34.9876C33.9963 6.72988 33.7548 7.49429 33.7548 7.49429L29.772 16.9873H32.5558L33.1125 15.4637H36.5073L36.8201 16.9873ZM33.8816 13.359L35.2847 9.52053L36.0741 13.359H33.8816ZM29.9808 9.19677L30.3619 6.9941C30.3619 6.9941 29.1859 6.54688 27.96 6.54688C26.6348 6.54688 23.4878 7.12608 23.4878 9.94252C23.4878 12.5924 27.1814 12.6253 27.1814 14.0172C27.1814 15.4091 23.8683 15.1597 22.7749 14.282L22.3779 16.5851C22.3779 16.5851 23.5703 17.1643 25.3922 17.1643C27.2146 17.1643 29.9638 16.2207 29.9638 13.6526C29.9638 10.9857 26.237 10.7374 26.237 9.57788C26.2373 8.4181 28.838 8.56709 29.9808 9.19677Z" fill="#2566AF"/>
<path d="M12.9686 12.2629L12.07 7.6501C12.07 7.6501 11.9613 6.72656 10.8032 6.72656H6.59431L6.54492 6.90024C6.54492 6.90024 8.56788 7.31948 10.5082 8.89027C12.3636 10.3916 12.9686 12.2629 12.9686 12.2629Z" fill="#E6A540"/>
<rect x="53.4551" width="31.6364" height="24" rx="2.18182" fill="white"/>
<path fill-rule="evenodd" clip-rule="evenodd" d="M69.064 16.042C70.0191 16.9221 71.3019 17.456 72.6971 17.456C75.6936 17.456 78.1188 15.012 78.1188 12.006C78.1188 8.99097 75.6936 6.54688 72.6971 6.54688C71.3019 6.54688 70.0191 7.08061 69.064 7.96085C67.9684 8.96275 67.2754 10.4048 67.2754 12.006C67.2755 13.6073 67.9684 15.0495 69.064 16.042Z" fill="#E9B040"/>
<path fill-rule="evenodd" clip-rule="evenodd" d="M70.8153 11.4256C70.7966 11.229 70.7591 11.0417 70.7216 10.845H67.4068C67.4442 10.6484 67.5005 10.4611 67.5565 10.2738H70.5625C70.4972 10.0767 70.4222 9.8829 70.3378 9.69321H67.7907C67.8844 9.49487 67.9876 9.30112 68.0998 9.11264H70.0195C69.896 8.91265 69.7583 8.72176 69.6075 8.54143H68.5118C68.6813 8.33445 68.866 8.14039 69.0643 7.96085C68.0999 7.08998 66.8263 6.54688 65.4217 6.54688C62.4346 6.54688 60 8.99097 60 12.006C60 15.012 62.4346 17.456 65.4217 17.456C66.8263 17.456 68.0998 16.9221 69.0643 16.042C69.2596 15.8656 69.4412 15.6746 69.6075 15.4707H68.5118C68.362 15.2834 68.2309 15.0962 68.0998 14.8901H70.0195C70.1402 14.7049 70.2466 14.5108 70.3379 14.3095H67.7907C67.7064 14.1223 67.6222 13.935 67.5565 13.7382H70.5625C70.6279 13.5509 70.6749 13.3544 70.7215 13.1576C70.759 12.9704 70.7965 12.7739 70.8152 12.577C70.8342 12.3872 70.8436 12.1965 70.8434 12.0057C70.8434 11.8094 70.834 11.6128 70.8153 11.4256Z" fill="#CC2131"/>
<path fill-rule="evenodd" clip-rule="evenodd" d="M77.3984 13.2715C77.3984 13.1686 77.4734 13.0938 77.5669 13.0938C77.6699 13.0938 77.7447 13.1687 77.7447 13.2715C77.7447 13.3652 77.6698 13.4495 77.5669 13.4495C77.4734 13.4495 77.3984 13.3651 77.3984 13.2715ZM77.5669 13.4026C77.6419 13.4026 77.7072 13.3463 77.7072 13.2715C77.7072 13.1967 77.6418 13.1405 77.5669 13.1405C77.5013 13.1405 77.4359 13.1967 77.4359 13.2715C77.4359 13.3463 77.5014 13.4026 77.5669 13.4026ZM77.5482 13.3463H77.5107V13.1966H77.6137C77.6324 13.2061 77.6324 13.2248 77.6324 13.2435C77.6324 13.2528 77.6232 13.2715 77.6044 13.281L77.6419 13.3465H77.5949L77.5762 13.2903H77.5482V13.3463V13.2621H77.5669C77.5762 13.2621 77.5857 13.2621 77.5857 13.2527C77.5949 13.2527 77.5949 13.2434 77.5949 13.2339C77.5949 13.2339 77.5949 13.2247 77.5857 13.2247C77.5857 13.2152 77.5762 13.2247 77.5669 13.2247H77.5482V13.3463Z" fill="white"/>
<path fill-rule="evenodd" clip-rule="evenodd" d="M67.2208 13.5812C67.0429 13.6279 66.9118 13.6561 66.7807 13.6561C66.4998 13.6561 66.3312 13.4782 66.3312 13.1598C66.3312 13.0943 66.3406 13.0287 66.3499 12.9538L66.3874 12.7386L66.4155 12.5606L66.6683 11.0249H67.2302L67.1646 11.362H67.5205L67.4362 11.9239H67.0803L66.9305 12.8415C66.9211 12.8884 66.9211 12.9164 66.9211 12.9352C66.9211 13.0569 66.9774 13.1037 67.1178 13.1037C67.1833 13.1037 67.2394 13.0944 67.2956 13.0849L67.2208 13.5812ZM69.0375 13.5625C68.8315 13.6187 68.6443 13.6467 68.4382 13.6467C67.8014 13.6467 67.4362 13.3095 67.4362 12.6449C67.4362 11.8676 67.867 11.3057 68.4662 11.3057C68.9437 11.3057 69.2527 11.6241 69.2527 12.1203C69.2527 12.289 69.234 12.4482 69.1873 12.6729H68.0167C68.0074 12.7103 68.0074 12.7291 68.0074 12.7478C68.0074 13.01 68.1852 13.141 68.5224 13.141C68.7377 13.141 68.925 13.0943 69.131 13.0007L69.0375 13.5625ZM68.691 12.2234V12.111C68.691 11.9238 68.5879 11.8207 68.4101 11.8207C68.2227 11.8207 68.0917 11.9611 68.0355 12.2233L68.691 12.2234ZM62.7261 13.6092H62.1455L62.4826 11.4837L61.7242 13.6092H61.3216L61.2747 11.4931L60.9189 13.6092H60.3477L60.8065 10.8469H61.6586L61.6773 12.5513L62.2485 10.8469H63.185L62.7261 13.6092ZM64.1401 12.6074C64.0839 12.5979 64.0652 12.5979 64.0277 12.5979C63.6906 12.5979 63.5221 12.729 63.5221 12.9351C63.5221 13.0756 63.6064 13.1692 63.7374 13.1692C64.0184 13.1692 64.1307 12.9351 64.1401 12.6074ZM64.6083 13.6092H64.1027L64.112 13.3752C63.9809 13.553 63.803 13.6467 63.494 13.6467C63.2131 13.6467 62.9696 13.394 62.9696 13.0287C62.9696 12.9258 62.9884 12.8322 63.0165 12.7386C63.11 12.3919 63.4565 12.1767 63.9903 12.1672C64.0558 12.1672 64.1588 12.1672 64.2525 12.1767C64.2711 12.1018 64.2711 12.0736 64.2711 12.0268C64.2711 11.8769 64.1494 11.8301 63.8779 11.8301C63.7093 11.8301 63.522 11.8582 63.391 11.905L63.3066 11.9238L63.2692 11.933L63.3535 11.4274C63.625 11.3431 63.8216 11.3057 64.0371 11.3057C64.5427 11.3057 64.8143 11.5398 64.8143 11.9705C64.8143 12.0829 64.8237 12.1672 64.7862 12.4107L64.6552 13.216L64.6364 13.3565L64.627 13.4689L64.6177 13.5438L64.6083 13.6092ZM71.8654 11.3807C72.0339 11.3807 72.1838 11.4275 72.3898 11.5304L72.4927 10.9311C72.4365 10.903 72.4178 10.903 72.343 10.8749L72.109 10.8094C72.034 10.7906 71.9405 10.7812 71.8373 10.7812C71.5469 10.7812 71.3784 10.7906 71.2006 10.8937C71.107 10.9592 70.9852 11.0435 70.854 11.1933L70.7791 11.1746L70.1798 11.5959L70.208 11.3618H69.5898L69.2248 13.6091H69.8149L70.0301 12.4013C70.0301 12.4013 70.1145 12.2326 70.1519 12.1766C70.2643 12.0361 70.3579 12.0361 70.4796 12.0361H70.5265C70.5068 12.1788 70.4974 12.3227 70.4983 12.4668C70.4983 13.1971 70.9102 13.656 71.547 13.656C71.7063 13.656 71.8469 13.6373 72.0621 13.5811L72.1653 12.9444C71.9781 13.0474 71.8094 13.0942 71.6689 13.0942C71.3225 13.0942 71.1163 12.832 71.1163 12.42C71.1161 11.8114 71.4253 11.3807 71.8654 11.3807ZM76.8375 10.8469L76.7066 11.6335C76.566 11.4181 76.3974 11.3151 76.1727 11.3151C75.8636 11.3151 75.5734 11.493 75.3954 11.8301V11.8208L75.0209 11.596L75.0584 11.3619H74.431L74.0751 13.6092H74.6557L74.8524 12.4014C74.8524 12.4014 75.0022 12.2327 75.0396 12.1767C75.1333 12.0643 75.2269 12.0455 75.3018 12.0362C75.2364 12.2234 75.1989 12.4482 75.1989 12.7011C75.1989 13.2629 75.4891 13.6374 75.9198 13.6374C76.1352 13.6374 76.3037 13.5625 76.4629 13.3845L76.4349 13.6092H76.9875L77.4369 10.8469H76.8375ZM76.1166 13.0756C75.9199 13.0756 75.8169 12.9258 75.8169 12.6354C75.8169 12.1952 76.0042 11.8769 76.2756 11.8769C76.4816 11.8769 76.5848 12.0362 76.5848 12.3171C76.5848 12.7665 76.3975 13.0756 76.1166 13.0756ZM73.4105 12.6074C73.3543 12.5979 73.3356 12.5979 73.2981 12.5979C72.9608 12.5979 72.7923 12.729 72.7923 12.9351C72.7923 13.0756 72.8767 13.1692 73.0077 13.1692C73.2887 13.1692 73.4011 12.9351 73.4105 12.6074ZM73.8787 13.6092H73.3636L73.3823 13.3752C73.2513 13.553 73.0732 13.6467 72.7644 13.6467C72.474 13.6467 72.2213 13.4032 72.2213 13.0287C72.2213 12.4951 72.6238 12.1673 73.2606 12.1673C73.3262 12.1673 73.4291 12.1673 73.5135 12.1768C73.5322 12.1019 73.5417 12.0737 73.5417 12.0269C73.5417 11.8771 73.4199 11.8302 73.139 11.8302C72.9797 11.8302 72.7831 11.8583 72.6521 11.9052L72.5772 11.9239L72.5397 11.9331L72.6239 11.4275C72.8955 11.3432 73.0923 11.3058 73.3075 11.3058C73.8131 11.3058 74.0753 11.5399 74.0753 11.9706C74.0753 12.083 74.0941 12.1673 74.0473 12.4108L73.9256 13.2161L73.9068 13.3566L73.8881 13.469L73.8788 13.544V13.6092H73.8787ZM65.8349 11.8395C65.9473 11.8395 66.1065 11.8488 66.2751 11.8769L66.3594 11.3526C66.1908 11.3338 65.9661 11.3057 65.8349 11.3057C65.1795 11.3057 64.9642 11.6616 64.9642 12.0736C64.9642 12.3452 65.0858 12.5417 65.4042 12.6915C65.6383 12.8039 65.6758 12.8225 65.6758 12.9257C65.6758 13.066 65.5541 13.1504 65.3293 13.1504C65.1514 13.1504 64.9828 13.1222 64.7956 13.0567L64.73 13.5716L64.7392 13.5811L64.8517 13.5998C64.8891 13.6091 64.936 13.6186 65.0015 13.6278C65.1419 13.6373 65.2637 13.6466 65.3387 13.6466C65.9942 13.6466 66.2657 13.3939 66.2657 12.8975C66.2657 12.5886 66.1159 12.4013 65.8256 12.2703C65.5727 12.1578 65.5446 12.1392 65.5446 12.0361C65.5446 11.9331 65.6571 11.8395 65.8349 11.8395Z" fill="#1B3771"/>
<path fill-rule="evenodd" clip-rule="evenodd" d="M72.6498 10.7498L72.5466 11.3491C72.3406 11.246 72.1908 11.1993 72.0223 11.1993C71.5821 11.1993 71.2732 11.63 71.2732 12.2387C71.2732 12.6601 71.4791 12.9128 71.8257 12.9128C71.966 12.9128 72.1347 12.8661 72.3219 12.7725L72.219 13.3997C72.0035 13.4559 71.8631 13.4842 71.7039 13.4842C71.0672 13.4842 70.6739 13.0253 70.6739 12.2856C70.6739 11.3024 71.217 10.6094 71.9941 10.6094C72.0971 10.6094 72.1906 10.6187 72.2656 10.6375L72.4998 10.6937C72.5748 10.7218 72.5936 10.7312 72.6498 10.7498ZM70.7582 11.1618H70.702C70.5055 11.1618 70.393 11.2555 70.2151 11.527L70.2713 11.1805H69.7374L69.3724 13.4278H69.9625C70.1777 12.0513 70.2339 11.8173 70.5148 11.8173H70.5523C70.6085 11.5457 70.6833 11.349 70.777 11.1711L70.7582 11.1618ZM67.3685 13.3997C67.2093 13.4559 67.0782 13.4747 66.9472 13.4747C66.6475 13.4747 66.4789 13.3062 66.4789 12.9785C66.4789 12.9223 66.4882 12.8475 66.4976 12.7818L66.5351 12.5571L66.5632 12.3793L66.816 10.8435H67.3966L67.331 11.1806H67.6307L67.5557 11.7331H67.2561L67.0969 12.6695C67.0876 12.707 67.0876 12.7352 67.0876 12.7632C67.0876 12.8756 67.1438 12.9224 67.2842 12.9224C67.3497 12.9224 67.4058 12.9224 67.4433 12.9037L67.3685 13.3997ZM65.1117 11.8922C65.1117 12.1732 65.2428 12.3697 65.5518 12.5196C65.7953 12.632 65.8327 12.6694 65.8327 12.7631C65.8327 12.9036 65.7297 12.969 65.4956 12.969C65.3177 12.969 65.1585 12.9411 64.9712 12.8848L64.8869 13.3997L64.915 13.4092L65.0181 13.428C65.0554 13.4372 65.1024 13.4467 65.1772 13.4467C65.3082 13.4654 65.4207 13.4654 65.4956 13.4654C66.1135 13.4654 66.4039 13.2312 66.4039 12.7163C66.4039 12.4072 66.2823 12.2292 65.992 12.0889C65.7392 11.9765 65.7111 11.9485 65.7111 11.8455C65.7111 11.7238 65.8141 11.6676 66.0013 11.6676C66.1138 11.6676 66.2729 11.677 66.4228 11.6957L66.507 11.1807C66.3572 11.1526 66.1231 11.1339 65.992 11.1339C65.3365 11.1337 65.1024 11.4802 65.1117 11.8922ZM77.1352 13.428H76.5826L76.6108 13.2125C76.4515 13.381 76.2829 13.4559 76.0674 13.4559C75.6368 13.4559 75.3558 13.0909 75.3558 12.5291C75.3558 11.7799 75.796 11.1431 76.3109 11.1431C76.5451 11.1431 76.7136 11.2462 76.873 11.4521L77.004 10.6656H77.5846L77.1352 13.428ZM76.2735 12.9036C76.5452 12.9036 76.7324 12.5852 76.7324 12.145C76.7324 11.8547 76.6293 11.7048 76.4233 11.7048C76.1611 11.7048 75.9646 12.0139 75.9646 12.454C75.9646 12.7538 76.0676 12.9036 76.2735 12.9036ZM69.1663 13.381C68.9602 13.4467 68.773 13.4747 68.5576 13.4747C67.9021 13.4747 67.565 13.1283 67.565 12.4634C67.565 11.6956 67.9958 11.1244 68.5857 11.1244C69.0726 11.1244 69.3815 11.4428 69.3815 11.939C69.3815 12.1077 69.3628 12.2669 69.3066 12.5009H68.1457C68.1363 12.5291 68.1363 12.5478 68.1363 12.5666C68.1363 12.8288 68.3143 12.9598 68.6513 12.9598C68.8667 12.9598 69.0539 12.9223 69.26 12.8193L69.1663 13.381ZM68.8386 12.042V11.9297C68.8386 11.7424 68.7355 11.6394 68.5576 11.6394C68.3704 11.6394 68.2392 11.7799 68.183 12.042H68.8386ZM62.8737 13.428H62.2932L62.6303 11.3023L61.8718 13.428H61.4691L61.4223 11.321L61.0665 13.428H60.5234L60.9822 10.6656H61.825L61.8531 12.3792L62.4148 10.6656H63.3325L62.8737 13.428ZM64.3252 12.4259C64.269 12.4259 64.2409 12.4167 64.194 12.4167C63.8663 12.4167 63.6978 12.5384 63.6978 12.7631C63.6978 12.9036 63.7727 12.9878 63.9037 12.9878C64.1472 12.9878 64.3158 12.7631 64.3252 12.4259ZM64.7559 13.428H64.2689L64.2782 13.1938C64.1284 13.381 63.9317 13.4654 63.6602 13.4654C63.3418 13.4654 63.1264 13.222 63.1264 12.8567C63.1264 12.3044 63.5009 11.986 64.1565 11.986C64.222 11.986 64.3063 11.9954 64.3999 12.0046C64.4186 11.9298 64.4186 11.9017 64.4186 11.8642C64.4186 11.7144 64.3156 11.6582 64.044 11.6582C63.8755 11.6582 63.6882 11.677 63.5571 11.7144L63.4728 11.7425L63.4166 11.7519L63.5009 11.2463C63.7912 11.162 63.9878 11.1339 64.2033 11.1339C64.7089 11.1339 64.9805 11.3586 64.9805 11.7893C64.9805 11.9017 64.9711 11.986 64.9336 12.2388L64.8025 13.0348L64.7838 13.1751L64.7744 13.2875L64.765 13.372L64.7559 13.428ZM73.5956 12.4259C73.5299 12.4259 73.5019 12.4167 73.4645 12.4167C73.1274 12.4167 72.9587 12.5384 72.9587 12.7631C72.9587 12.9036 73.0431 12.9878 73.1741 12.9878C73.4083 12.9878 73.5861 12.7631 73.5956 12.4259ZM74.0263 13.428H73.5394L73.5486 13.1938C73.3989 13.381 73.2023 13.4654 72.9307 13.4654C72.6123 13.4654 72.3968 13.222 72.3968 12.8567C72.3968 12.3044 72.7713 11.986 73.4269 11.986C73.4925 11.986 73.5769 11.9954 73.6611 12.0046C73.6798 11.9298 73.6893 11.9017 73.6893 11.8642C73.6893 11.7144 73.5861 11.6582 73.3148 11.6582C73.146 11.6582 72.9495 11.677 72.8184 11.7144L72.7435 11.7425L72.6872 11.7519L72.7714 11.2463C73.0618 11.162 73.2583 11.1339 73.4738 11.1339C73.9794 11.1339 74.2416 11.3586 74.2416 11.7893C74.2416 11.9017 74.2416 11.986 74.1949 12.2388L74.0731 13.0348L74.0544 13.1751L74.0356 13.2875L74.0264 13.372L74.0263 13.428ZM75.5994 11.1618H75.5432C75.3467 11.1618 75.2343 11.2555 75.0563 11.527L75.1125 11.1805H74.5786L74.2228 13.4278H74.8034C75.0188 12.0513 75.075 11.8173 75.3559 11.8173H75.3934C75.4496 11.5457 75.5245 11.349 75.6181 11.1711L75.5994 11.1618Z" fill="white"/>
<rect x="92.7266" width="54.5455" height="24" rx="2.18182" fill="white"/>
<path d="M104.203 6.54688H101.007C100.901 6.54681 100.798 6.58439 100.718 6.65286C100.637 6.72132 100.584 6.81616 100.568 6.92029L99.2747 15.0856C99.2687 15.1235 99.2711 15.1622 99.2816 15.1991C99.2921 15.236 99.3106 15.2701 99.3356 15.2993C99.3607 15.3284 99.3918 15.3517 99.4268 15.3677C99.4618 15.3837 99.4998 15.392 99.5383 15.3919H101.064C101.17 15.392 101.273 15.3543 101.353 15.2858C101.434 15.2172 101.487 15.1223 101.503 15.0181L101.852 12.8158C101.868 12.7116 101.922 12.6167 102.002 12.5482C102.082 12.4796 102.185 12.4419 102.291 12.4419H103.303C105.408 12.4419 106.624 11.4269 106.941 9.41545C107.084 8.53546 106.947 7.84404 106.533 7.35982C106.079 6.8281 105.273 6.54688 104.203 6.54688ZM104.572 9.52906C104.397 10.6716 103.521 10.6716 102.673 10.6716H102.191L102.529 8.53779C102.539 8.47536 102.571 8.41851 102.62 8.37745C102.668 8.3364 102.729 8.31384 102.793 8.31384H103.014C103.591 8.31384 104.136 8.31384 104.417 8.64162C104.585 8.83717 104.636 9.12771 104.572 9.52906ZM113.759 9.49228H112.228C112.165 9.49228 112.103 9.51484 112.055 9.55589C112.007 9.59695 111.975 9.6538 111.965 9.71623L111.897 10.1427L111.79 9.98815C111.459 9.50904 110.72 9.34887 109.982 9.34887C108.291 9.34887 106.846 10.6251 106.564 12.4153C106.418 13.3084 106.626 14.1623 107.135 14.7578C107.601 15.3053 108.269 15.5335 109.063 15.5335C110.426 15.5335 111.182 14.6605 111.182 14.6605L111.113 15.0842C111.107 15.122 111.11 15.1608 111.12 15.1977C111.13 15.2347 111.149 15.2689 111.174 15.2981C111.199 15.3273 111.23 15.3508 111.265 15.3669C111.3 15.383 111.338 15.3914 111.376 15.3915H112.755C112.861 15.3915 112.963 15.3539 113.044 15.2853C113.124 15.2167 113.178 15.1218 113.194 15.0176L114.021 9.79864C114.027 9.76085 114.025 9.72218 114.015 9.68532C114.004 9.64847 113.986 9.61429 113.961 9.58516C113.936 9.55603 113.905 9.53264 113.87 9.5166C113.835 9.50057 113.798 9.49227 113.759 9.49228ZM111.625 12.46C111.478 13.3312 110.783 13.916 109.898 13.916C109.454 13.916 109.098 13.774 108.87 13.5048C108.644 13.2376 108.558 12.8572 108.63 12.4335C108.768 11.5698 109.474 10.9659 110.345 10.9659C110.78 10.9659 111.134 11.1098 111.366 11.3812C111.6 11.6555 111.692 12.0382 111.625 12.46ZM121.912 9.49228H120.374C120.301 9.49239 120.23 9.51014 120.166 9.54397C120.102 9.5778 120.047 9.62671 120.006 9.68643L117.884 12.7995L116.985 9.80796C116.957 9.71672 116.901 9.63675 116.824 9.5799C116.747 9.52305 116.654 9.49232 116.559 9.49228H115.047C115.004 9.49217 114.963 9.50215 114.925 9.5214C114.887 9.54065 114.854 9.56861 114.83 9.60295C114.805 9.6373 114.789 9.67703 114.783 9.71884C114.776 9.76065 114.78 9.80334 114.794 9.84334L116.488 14.7964L114.895 17.0364C114.867 17.0762 114.85 17.1229 114.847 17.1715C114.843 17.22 114.854 17.2686 114.876 17.3119C114.898 17.3552 114.932 17.3915 114.974 17.4168C115.016 17.4421 115.064 17.4555 115.113 17.4555H116.649C116.721 17.4556 116.792 17.4383 116.855 17.4053C116.919 17.3722 116.973 17.3242 117.014 17.2655L122.131 9.90899C122.159 9.86919 122.175 9.82259 122.178 9.77424C122.181 9.72588 122.171 9.67763 122.148 9.63469C122.126 9.59176 122.092 9.55579 122.05 9.53069C122.008 9.50558 121.961 9.4923 121.912 9.49228Z" fill="#253B80"/>
<path d="M127.006 6.54734H123.809C123.703 6.54739 123.601 6.58502 123.52 6.65347C123.44 6.72193 123.387 6.8167 123.37 6.92075L122.077 15.086C122.071 15.1239 122.074 15.1625 122.084 15.1994C122.095 15.2362 122.113 15.2704 122.138 15.2995C122.163 15.3286 122.194 15.352 122.229 15.3681C122.264 15.3841 122.302 15.3924 122.34 15.3924H123.981C124.055 15.3923 124.126 15.3659 124.183 15.3179C124.239 15.2699 124.276 15.2036 124.288 15.1307L124.654 12.8162C124.671 12.7121 124.724 12.6172 124.804 12.5486C124.885 12.4801 124.987 12.4424 125.093 12.4423H126.104C128.211 12.4423 129.426 11.4273 129.743 9.41592C129.887 8.53593 129.749 7.84451 129.335 7.36028C128.881 6.82856 128.076 6.54734 127.006 6.54734ZM127.375 9.52953C127.201 10.6721 126.324 10.6721 125.476 10.6721H124.994L125.333 8.53826C125.343 8.47583 125.375 8.41892 125.423 8.37784C125.471 8.33676 125.532 8.31422 125.596 8.3143H125.817C126.394 8.3143 126.939 8.3143 127.22 8.64209C127.388 8.83764 127.439 9.12818 127.375 9.52953ZM136.561 9.49274H135.032C134.968 9.49257 134.907 9.51508 134.858 9.55617C134.81 9.59727 134.778 9.65423 134.769 9.7167L134.701 10.1432L134.594 9.98861C134.262 9.50951 133.524 9.34934 132.786 9.34934C131.094 9.34934 129.65 10.6256 129.369 12.4158C129.223 13.3088 129.43 14.1627 129.938 14.7582C130.406 15.3058 131.072 15.5339 131.867 15.5339C133.23 15.5339 133.985 14.6609 133.985 14.6609L133.917 15.0846C133.911 15.1226 133.913 15.1614 133.924 15.1984C133.934 15.2354 133.953 15.2697 133.978 15.299C134.003 15.3282 134.034 15.3516 134.069 15.3677C134.104 15.3837 134.142 15.392 134.181 15.3919H135.559C135.665 15.3919 135.767 15.3542 135.848 15.2856C135.928 15.2171 135.981 15.1222 135.998 15.0181L136.826 9.79911C136.831 9.76119 136.829 9.72246 136.818 9.68557C136.808 9.64868 136.789 9.61451 136.764 9.58541C136.739 9.5563 136.708 9.53295 136.673 9.51695C136.638 9.50096 136.6 9.4927 136.561 9.49274ZM134.428 12.4605C134.281 13.3316 133.586 13.9164 132.7 13.9164C132.257 13.9164 131.901 13.7744 131.673 13.5053C131.446 13.2381 131.361 12.8577 131.432 12.434C131.571 11.5703 132.276 10.9664 133.148 10.9664C133.582 10.9664 133.936 11.1102 134.169 11.3817C134.403 11.6559 134.495 12.0387 134.428 12.4605ZM138.366 6.7713L137.054 15.086C137.048 15.1239 137.05 15.1625 137.061 15.1994C137.071 15.2362 137.09 15.2704 137.115 15.2995C137.14 15.3286 137.171 15.352 137.205 15.3681C137.24 15.3841 137.278 15.3924 137.317 15.3924H138.636C138.855 15.3924 139.041 15.2341 139.075 15.0185L140.369 6.85371C140.375 6.81586 140.372 6.77717 140.362 6.74029C140.352 6.70341 140.333 6.66921 140.308 6.64006C140.283 6.6109 140.252 6.58748 140.217 6.57139C140.182 6.55531 140.144 6.54694 140.106 6.54688H138.629C138.565 6.5471 138.504 6.56981 138.456 6.61093C138.408 6.65205 138.376 6.7089 138.366 6.7713Z" fill="#179BD7"/>
<rect x="154.908" width="37.0909" height="24" rx="2.18182" fill="white"/>
<path d="M167.602 11.0645C167.616 12.3505 168.804 12.7776 168.814 12.7823C168.804 12.8108 168.624 13.3945 168.188 13.9924C167.812 14.5096 167.421 15.0269 166.805 15.0364C166.198 15.0459 166.003 14.6995 165.313 14.6995C164.619 14.6995 164.404 15.0269 163.832 15.0459C163.235 15.0649 162.785 14.4859 162.404 13.9687C161.626 12.9152 161.035 10.9886 161.832 9.68833C162.228 9.04295 162.937 8.63485 163.705 8.62061C164.286 8.61112 164.839 8.99075 165.196 8.99075C165.553 8.99075 166.223 8.53519 166.927 8.60163C167.22 8.61112 168.051 8.71552 168.58 9.44631C168.536 9.47004 167.592 9.98729 167.602 11.0645ZM166.462 7.90406C166.78 7.54341 166.99 7.04514 166.932 6.54688C166.477 6.56586 165.924 6.8316 165.602 7.19225C165.308 7.51019 165.054 8.01795 165.123 8.50672C165.631 8.54469 166.149 8.26471 166.462 7.90406ZM171.037 7.28787C171.269 7.25038 171.531 7.21749 171.813 7.18466C172.095 7.15182 172.407 7.13777 172.743 7.13777C173.228 7.13777 173.644 7.19405 173.995 7.30196C174.346 7.41448 174.633 7.56927 174.861 7.7803C175.054 7.96323 175.207 8.18366 175.316 8.43222C175.425 8.68548 175.479 8.97628 175.479 9.30457C175.479 9.70323 175.405 10.0503 175.257 10.3505C175.108 10.6506 174.905 10.8992 174.648 11.1009C174.391 11.3026 174.084 11.4527 173.728 11.5558C173.372 11.6543 172.986 11.7059 172.565 11.7059C172.184 11.7059 171.868 11.6778 171.611 11.6262V14.928H171.042V7.28787H171.037ZM171.606 11.1431C171.744 11.1806 171.897 11.2087 172.066 11.2228C172.234 11.2368 172.417 11.2463 172.61 11.2463C173.337 11.2463 173.896 11.0868 174.297 10.7632C174.698 10.4443 174.896 9.97058 174.896 9.35145C174.896 9.0513 174.841 8.79339 174.737 8.57292C174.633 8.35245 174.485 8.16956 174.292 8.02891C174.099 7.88826 173.866 7.7803 173.604 7.70997C173.337 7.6396 173.045 7.60211 172.719 7.60211C172.462 7.60211 172.239 7.61146 172.051 7.63025C171.863 7.64904 171.714 7.67248 171.606 7.69123V11.1431ZM180.001 13.6194C180.001 13.8399 180.006 14.065 180.011 14.2854C180.021 14.5059 180.046 14.7216 180.085 14.928H179.551L179.467 14.1495H179.442C179.368 14.2573 179.279 14.3652 179.165 14.4684C179.048 14.5805 178.916 14.6781 178.774 14.7592C178.626 14.8483 178.458 14.9187 178.265 14.9702C178.077 15.0218 177.869 15.05 177.641 15.05C177.359 15.05 177.112 15.0077 176.899 14.9187C176.686 14.8296 176.508 14.717 176.375 14.5763C176.236 14.4356 176.132 14.2714 176.068 14.0885C175.999 13.9056 175.964 13.7227 175.964 13.5398C175.964 12.8879 176.251 12.3907 176.83 12.039C177.409 11.6872 178.275 11.5184 179.437 11.5324V11.3823C179.437 11.2369 179.422 11.0728 179.393 10.8852C179.363 10.6976 179.304 10.5193 179.205 10.3505C179.106 10.1818 178.962 10.041 178.769 9.92839C178.576 9.81583 178.314 9.7549 177.983 9.7549C177.73 9.7549 177.483 9.79239 177.241 9.86277C177.002 9.93047 176.775 10.0333 176.568 10.1676L176.385 9.76425C176.642 9.59541 176.909 9.47815 177.181 9.40313C177.453 9.33275 177.74 9.29526 178.042 9.29526C178.448 9.29526 178.774 9.36094 179.027 9.4922C179.279 9.62346 179.482 9.79239 179.625 9.99877C179.769 10.2051 179.868 10.435 179.922 10.6929C179.976 10.9508 180.001 11.2041 180.001 11.4574V13.6194ZM179.432 11.9826C179.125 11.9732 178.804 11.9873 178.472 12.0155C178.136 12.0483 177.829 12.1139 177.547 12.2171C177.265 12.3204 177.033 12.4704 176.845 12.672C176.662 12.869 176.568 13.1364 176.568 13.4647C176.568 13.854 176.686 14.14 176.919 14.323C177.151 14.5059 177.414 14.5997 177.706 14.5997C177.938 14.5997 178.151 14.5668 178.334 14.5059C178.517 14.445 178.68 14.3605 178.819 14.2573C178.957 14.1541 179.071 14.0369 179.165 13.9056C179.259 13.7743 179.328 13.6429 179.378 13.5022C179.417 13.3475 179.437 13.2395 179.437 13.1692L179.432 11.9826ZM181.109 9.42182L182.584 13.0003C182.663 13.1974 182.742 13.4037 182.816 13.6148C182.89 13.8258 182.955 14.0181 183.009 14.1963H183.034C183.088 14.0275 183.153 13.8399 183.227 13.6289C183.301 13.4178 183.38 13.2021 183.469 12.9816L184.85 9.42652H185.453L183.771 13.4647C183.603 13.8915 183.44 14.2808 183.291 14.6278C183.143 14.9748 182.989 15.2891 182.836 15.5705C182.683 15.8519 182.529 16.0958 182.371 16.3116C182.213 16.5273 182.039 16.7149 181.847 16.8744C181.619 17.0667 181.411 17.2074 181.223 17.2918C181.035 17.3809 180.907 17.4372 180.842 17.456L180.649 17.0104C180.793 16.9494 180.956 16.8697 181.134 16.7712C181.312 16.6727 181.485 16.5414 181.654 16.3819C181.797 16.2459 181.96 16.063 182.133 15.8378C182.307 15.6127 182.46 15.3407 182.599 15.0171C182.648 14.8951 182.673 14.8154 182.673 14.7779C182.673 14.7263 182.648 14.6419 182.599 14.5387L180.506 9.43587H181.109L181.109 9.42182Z" fill="#010101"/>
</svg>
