<svg width="40" height="40" viewBox="0 0 40 40" fill="none" xmlns="http://www.w3.org/2000/svg">
<g clip-path="url(#clip0_3891_4773)">
<path d="M19.7387 14.6846C20.115 14.8322 20.4841 14.471 20.3594 14.0866C19.5033 11.4485 16.4036 10.4643 13.522 12.8049C12.0063 14.0362 11.4367 14.2979 11.4224 14.3045C12.4216 15.3035 13.5632 18.656 16.0545 19.0268C18.7989 19.5244 21.2278 16.8243 19.2406 15.5888C17.9336 14.7763 16.3949 14.3044 14.7455 14.3044C16.4747 13.9146 18.2009 14.0817 19.7387 14.6846Z" fill="#3CB815"/>
<path d="M32.1656 12.8037C27.1916 8.76343 24.0194 15.1351 25.9912 14.5035C27.3916 14.0549 28.9226 13.9572 30.4583 14.3033C27.8563 14.3033 25.4578 15.4957 23.8587 17.4367C23.99 14.3865 24.1887 12.4772 24.419 11.057C25.7481 11.0113 27.5196 9.93801 28.4924 8.05991C30.1695 5.05845 29.3918 1.98096 29.1415 0.0390625C27.831 1.31519 22.1064 -0.180095 19.837 3.7087C18.8346 5.42654 19.1259 7.51692 20.1805 9.04665C20.5143 9.53092 21.3125 9.29856 21.3352 8.71087C21.4343 6.15433 22.7067 4.22278 25.0787 3.15296C24.0143 4.53206 23.3154 6.07607 22.9544 7.67192C22.3932 10.1579 21.807 11.7886 21.5918 19.7121C21.5699 20.5157 22.2209 21.1808 23.0247 21.1707C23.6066 21.1634 24.1051 20.7942 24.3289 20.257C24.6692 19.4399 25.2232 18.5944 26.1246 17.8196C26.9812 18.7665 28.2848 19.2703 29.6335 19.0257C32.1142 18.6566 33.2719 15.2967 34.2655 14.3032C34.251 14.2968 33.6813 14.0352 32.1656 12.8037Z" fill="#3CB815"/>
<path d="M39.4774 22.6793C37.9225 21.6243 36.2301 22.3761 35.4528 22.8248L25.6993 29.9635L19.9883 29.9648L18.5606 28.537H23.8054C25.3827 28.537 27.1493 27.5096 27.1493 25.6809C27.1493 23.7395 25.3827 22.8248 23.8054 22.8248H21.8399C20.3799 22.8248 18.6736 22.955 17.4706 22.311C16.3276 21.7294 15.0114 21.3984 13.6064 21.3984C11.2472 21.3984 9.13564 22.339 7.68872 23.8222L0 31.3913L8.56642 39.9577L11.4219 35.6745H24.9154C26.3545 35.6745 27.7436 35.1466 28.8194 34.1909L39.5751 24.6362C40.173 24.1051 40.1393 23.1284 39.4774 22.6793Z" fill="#3CB815"/>
</g>
<defs>
<clipPath id="clip0_3891_4773">
<rect width="40" height="40" fill="white"/>
</clipPath>
</defs>
</svg>
