<svg width="84" height="45" viewBox="0 0 84 45" fill="none" xmlns="http://www.w3.org/2000/svg">
<g clip-path="url(#clip0_2337_387)">
<path d="M83.8712 33.2123C83.8708 33.4958 83.7579 33.7676 83.5572 33.968C83.3566 34.1684 83.0847 34.2811 82.801 34.2814C82.6605 34.2818 82.5213 34.2542 82.3915 34.2002C82.2618 34.1462 82.1441 34.067 82.0453 33.967C81.9455 33.8683 81.8664 33.7506 81.8125 33.6209C81.7586 33.4913 81.7311 33.3522 81.7316 33.2118C81.7316 32.9257 81.8428 32.6575 82.0453 32.4562C82.2465 32.2538 82.5147 32.1433 82.801 32.1433C83.0873 32.1433 83.3544 32.2538 83.557 32.4562C83.6566 32.5553 83.7357 32.6732 83.7896 32.8029C83.8435 32.9327 83.8713 33.0718 83.8712 33.2123ZM82.801 32.0156C82.4837 32.0159 82.1794 32.142 81.9551 32.3662C81.7307 32.5905 81.6046 32.8946 81.6045 33.2118C81.6045 33.5327 81.7294 33.8331 81.9553 34.0573C82.0661 34.1689 82.198 34.2575 82.3433 34.3177C82.4887 34.378 82.6445 34.4087 82.8019 34.4082C83.1216 34.4082 83.4218 34.2843 83.6478 34.0573C83.7598 33.9469 83.8486 33.8152 83.9089 33.67C83.9692 33.5248 83.9998 33.369 83.9989 33.2118C83.9995 33.0545 83.9687 32.8987 83.9084 32.7535C83.8481 32.6082 83.7595 32.4764 83.6478 32.3657C83.5367 32.2545 83.4047 32.1663 83.2594 32.1062C83.114 32.0461 82.9583 32.0153 82.801 32.0156Z" fill="black"/>
<path d="M82.6105 32.636V33.0689C82.6105 33.0689 83.0607 33.0986 83.0607 32.855C83.0607 32.572 82.6105 32.6331 82.6105 32.636ZM82.6105 33.3424V34.0306H82.3191V32.3919C82.6782 32.3919 83.313 32.2979 83.313 32.8473C83.313 33.1982 83.0519 33.2896 83.0519 33.2896L83.4024 34.0309H83.1127L82.7773 33.343L82.6105 33.3424ZM63.2933 27.4599V22.4237C63.2933 22.4237 63.2213 20.1368 60.9263 20.1368C59.4881 20.1368 58.5584 21.4075 58.5584 22.4237C58.5584 24.0414 60.0412 24.7092 60.9263 24.7092C61.456 24.7092 61.8114 24.6179 62.5996 24.0633C62.5996 26.0505 62.5762 27.2109 62.5996 27.2055C62.0734 27.3443 61.8817 27.4548 60.9263 27.4548C58.0087 27.4548 55.7174 25.1493 55.7174 22.4235C55.7174 18.9592 58.8267 17.3921 60.9263 17.3921C63.5558 17.3921 66.1346 19.4204 66.1346 22.4235C66.1346 24.2715 66.1394 24.2258 66.1394 24.7338V27.4628L63.2933 27.4599ZM42.3493 22.8269V17.6454L45.2197 16.3984V23.4086C45.2197 28.9065 36.084 28.9065 36.084 23.5011V20.3907L38.9535 19.1225V22.8538C38.9533 25.4422 42.3493 25.4148 42.3493 22.8269Z" fill="black"/>
<path d="M55.2643 27.5753C55.2643 27.5753 53.8133 27.6647 52.8742 27.1598C51.1511 26.2355 51.342 23.5345 51.342 23.5345V18.2679H49.4775V15.4938H51.342V13.7849L54.2127 12.4922V15.5869H56.0777V18.3136H54.2127V23.7413C54.2127 23.7413 54.261 25.0328 55.2649 25.0328L55.2643 27.5753ZM45.9849 17.6417H48.8544V27.4539H45.9849V17.6417ZM45.9849 16.881L48.8544 16.8619V14.8471L45.9849 16.0952V16.881Z" fill="black"/>
<path d="M72.1197 16.9699V19.8813C70.0152 19.8813 70.1095 21.128 70.1095 22.2833V27.4585H67.2397V20.62C67.2397 17.0627 70.1589 16.9699 72.1197 16.9699ZM66.7311 7.36613C66.6405 7.17053 66.2686 7.14369 65.8563 7.28732L65.7397 7.03318L65.8612 6.97664L65.76 3.4513L63.1459 1.08213L63.0233 1.13866L62.9059 0.884528C63.2836 0.664372 63.5042 0.364549 63.4156 0.169522C63.3107 -0.0543463 62.8388 -0.0566306 62.3602 0.163525C61.8794 0.38568 61.5751 0.746038 61.6771 0.969335C61.7663 1.16465 62.1379 1.19177 62.5505 1.04815L62.6693 1.30228L60.484 2.30797L60.3675 2.0527C60.7437 1.83397 60.9672 1.53386 60.876 1.33883C60.7726 1.11439 60.3 1.11182 59.8204 1.33426C59.3398 1.55413 59.0355 1.91421 59.1373 2.13893C59.2278 2.33424 59.5998 2.35994 60.0121 2.21631L60.1295 2.47016L58.0268 3.43988L57.9102 3.18574C58.2876 2.96444 58.5096 2.66462 58.4182 2.46931C58.3153 2.24601 57.8425 2.24344 57.3628 2.4636C56.8825 2.68575 56.5788 3.04582 56.68 3.26912C56.7705 3.46472 57.1425 3.49156 57.5548 3.34793L57.6725 3.60207L57.4125 3.72085L56.618 5.94754L27.2365 19.3319C25.8452 18.0981 23.4799 17.8357 21.2963 18.8425C18.5364 20.112 17.1168 22.9152 18.1245 25.1019C19.1321 27.2898 22.1862 28.0333 24.9461 26.7627C26.9342 25.8464 28.2216 24.1345 28.4113 22.4312L29.8661 21.7559C29.9672 21.7162 30.8406 21.4064 31.8362 22.403C32.4176 23.705 32.9356 25.1088 32.6045 25.9906C32.5445 26.151 32.3608 26.6379 31.3877 27.0705C30.7369 27.36 30.1695 27.4882 29.4504 27.6504C28.383 27.8903 27.0528 28.1904 25.0015 29.1344C23.2185 29.9548 22.2157 31.5367 21.1529 33.2132C19.7309 35.4555 18.1196 37.996 14.137 39.8287C13.0753 40.317 12.0971 40.3838 11.1451 40.0326C8.21902 38.9529 5.96144 34.0529 5.22148 32.4439C3.71013 29.163 1.81881 24.4837 2.8439 21.7097C3.15817 20.8604 3.74413 20.2488 4.63523 19.837C8.67614 17.9773 11.5548 18.1172 14.0921 18.2406C15.9509 18.3291 17.7056 18.4136 19.4301 17.6206C21.4814 16.6772 22.3585 15.9631 23.0633 15.3902C23.5304 15.0102 23.8684 14.7361 24.4967 14.4468C25.336 14.0599 26.1529 14.0165 26.9191 14.3163C28.0796 14.7703 28.8821 15.8711 29.2461 16.7514L31.6083 15.7737C30.8774 14.0059 29.4732 12.5719 27.8516 11.9366C26.4323 11.3812 24.9032 11.4457 23.4273 12.1259C22.5056 12.5496 21.9691 12.9857 21.4511 13.4068C20.8252 13.9151 20.1178 14.4905 18.3604 15.2994C17.2048 15.8314 15.8866 15.7666 14.2175 15.6866C11.5245 15.5561 8.17502 15.3951 3.56729 17.5158C2.04909 18.2157 0.999432 19.3282 0.446321 20.8248C-0.893031 24.4478 1.05371 29.5085 2.89904 33.5138C4.3761 36.7202 6.74539 41.1345 10.2586 42.4294C11.8568 43.0199 13.5213 42.9257 15.2078 42.1504C19.8732 40.0029 21.78 36.9955 23.3122 34.5803C24.2398 33.1169 24.9741 31.9607 26.0711 31.4565C27.8776 30.6232 29.0113 30.368 30.0115 30.1432C30.8 29.9645 31.5451 29.7975 32.4265 29.4057C33.7224 28.83 34.5887 27.9825 34.9983 26.8872C35.7794 24.7993 34.7029 22.4903 33.753 20.4538L33.5621 20.0409L57.9105 8.75502L60.1281 9.61623L60.3869 9.4963L60.5046 9.75043C60.1269 9.9703 59.9064 10.2704 59.9964 10.4654C60.0995 10.6893 60.572 10.6913 61.0509 10.4714C61.5308 10.249 61.836 9.88892 61.7334 9.66563C61.6431 9.47031 61.272 9.44347 60.86 9.5871L60.7423 9.33297L62.8439 8.36582L62.9616 8.61996C62.5851 8.83869 62.3636 9.1388 62.4534 9.33382C62.5568 9.55855 63.029 9.56083 63.5079 9.33982C63.9881 9.11852 64.2941 8.75845 64.1904 8.53401C64.1004 8.3387 63.7293 8.31271 63.3162 8.45663L63.1996 8.20249L65.384 7.19766L65.4998 7.45208C65.1235 7.67081 64.9009 7.97063 64.9918 8.16594C65.0952 8.38952 65.5675 8.39209 66.0471 8.1708C66.5285 7.95093 66.8348 7.58971 66.7311 7.36613ZM64.5798 42.4708C64.5798 42.4708 63.1805 42.5519 62.2682 42.0554C60.6435 41.1707 60.7895 37.9843 60.7895 37.9843V32.3931H58.9864V29.5956H60.7895V28.404H63.5673L63.5627 29.6887H65.366V32.4402H63.5627V38.6371C63.5627 38.6371 63.6096 39.9298 64.5798 39.9298V42.4708Z" fill="black"/>
<path d="M41.6499 42.2693C39.2263 45.0348 36.6407 44.9971 35.6708 44.9971C30.7428 44.9971 27.731 40.8153 27.731 37.0604C27.731 33.6701 30.0014 29.9877 34.4303 29.2553C37.2164 28.793 39.9243 29.8555 41.811 31.9739C41.2048 32.4188 39.8326 33.4676 39.8326 33.4676C38.3366 32.095 37.2867 31.6361 35.6708 31.6361C34.3786 31.6361 30.2448 32.6998 30.2448 37.0604C30.2448 39.927 32.5198 42.5046 35.6708 42.4846C38.0341 42.4717 39.0655 41.2599 39.7103 40.6542L41.6499 42.2693ZM56.5822 36.7251V42.3706H59.3563V35.8948C59.3563 30.3952 50.5254 30.3952 50.5254 35.802V42.3706H53.3006V36.6332C53.3006 34.1378 56.5822 34.0921 56.5822 36.7251ZM80.8971 31.9288V34.8402C78.8632 34.8402 78.9563 36.0858 78.9563 37.2411V42.3755H76.1819V35.5772C76.1825 32.338 79.0352 31.9288 80.8971 31.9288ZM68.6286 35.2371C68.6286 35.2371 67.5093 36.2494 68.0424 37.6086L71.0002 34.6515C71.0002 34.6509 69.908 34.091 68.6286 35.2371ZM69.4326 39.891C69.4129 39.9038 70.0871 40.0192 70.2802 40.0192C71.7493 40.0192 72.4753 38.9792 72.4753 38.9792C72.4753 38.9792 74.888 38.9861 75.2325 38.9804C75.2325 38.9804 74.5951 40.6408 73.4463 41.3812C69.0235 44.2313 66.2256 40.6999 65.6759 39.7756C64.8486 38.3776 64.3989 34.3491 67.5347 32.6087C72.2518 29.9931 74.8811 34.5407 74.8811 34.5407L69.4326 39.891Z" fill="black"/>
<path d="M43.445 35.2437C43.445 35.2437 42.3239 36.2549 42.8573 37.6152L45.8157 34.6587C45.8157 34.6587 44.7238 34.0987 43.445 35.2437ZM50.0483 38.9875C50.0483 38.9875 49.4107 40.6483 48.2619 41.3884C43.839 44.2399 41.0411 40.7085 40.4915 39.7828C39.6629 38.385 39.2132 34.3563 42.3499 32.6161C47.0674 30 49.6966 34.5467 49.6966 34.5467L44.2487 39.8976C44.2301 39.9104 44.9029 40.0258 45.096 40.0258C46.5662 40.0258 47.2902 38.9858 47.2902 38.9858L50.0483 38.9875Z" fill="black"/>
</g>
<defs>
<clipPath id="clip0_2337_387">
<rect width="84" height="45" fill="white"/>
</clipPath>
</defs>
</svg>
