<svg width="180" height="45" viewBox="0 0 180 45" fill="none" xmlns="http://www.w3.org/2000/svg">
<mask id="mask0_2337_426" style="mask-type:alpha" maskUnits="userSpaceOnUse" x="0" y="0" width="180" height="45">
<rect width="180" height="45" fill="#D9D9D9"/>
</mask>
<g mask="url(#mask0_2337_426)">
<path fill-rule="evenodd" clip-rule="evenodd" d="M178.753 27.3825C178.484 27.2554 178.101 27.2964 177.895 27.5079C177.548 27.8637 177.443 28.3581 177.364 28.8283C177.258 29.3962 177.132 29.9521 176.963 30.5084C176.377 32.4811 175.175 34.1831 173.64 35.5394C173.098 36.0303 172.477 36.4261 171.803 36.71C171.178 36.9674 170.343 37.2317 169.658 37.2342C169.657 37.2302 162.488 37.2763 162.488 37.2763L179.387 19.7695L152.928 19.9154C147.994 20.1147 146.552 30.4216 146.552 30.4216C146.116 32.2234 147.453 32.7003 148.211 30.4388C149.971 25.1908 157.717 26.2121 159.106 26.2256L152.352 33.5672L138.407 33.6443C135.096 33.6647 134.399 35.1708 134.399 35.1708L131.855 38.3629C131.113 39.604 129.612 39.695 129.612 39.695C127.488 39.7145 127.76 38.1649 127.76 38.1649L129.045 32.0435L143.935 31.9657C145.074 29.6074 146.104 26.4191 145.292 23.7975C144.376 20.8353 141.53 19.5327 138.657 19.234C133.791 18.7368 127.827 18.4011 123.543 21.2402C122.036 22.2389 120.598 23.6714 119.859 25.3465C119.032 27.2279 118.546 29.259 118.145 31.2636C117.788 33.0469 117.179 34.9065 117.156 36.7371C117.143 37.7524 117.432 39.0072 118.329 39.6154L114.709 39.636C112.418 39.6468 113.511 35.4605 113.511 35.4605C113.893 34.2003 115.293 28.5398 115.961 25.0325C117.008 19.5761 109.494 19.5649 108.847 19.5727C103.73 19.597 100.134 23.8639 100.134 23.8639C100.114 20.2607 97.7112 20.1339 96.526 20.1409L85.2823 20.2045C84.4616 20.2078 84.3339 21.2571 85.1021 21.4015C90.4703 22.4085 89.0127 26.1315 89.0127 26.1315L86.1332 37.14C85.6317 40.4981 83.5631 40.142 83.5631 40.142C81.105 39.9344 82.1838 37.2178 82.1838 37.2178L84.4853 27.4814C84.7936 26.195 85.2142 24.2913 84.6727 23.221C83.1594 20.2387 79.1092 19.6616 76.1765 19.3999C73.981 19.2043 71.826 19.2986 69.6357 19.4648C67.6001 19.619 65.9335 20.2201 64.3069 21.5005C62.842 22.646 61.7312 23.8813 60.6063 25.3537C60.2334 25.8331 59.8516 26.6695 59.2343 26.6654C58.8684 26.6717 57.8608 26.6715 57.6283 26.6756C57.5924 20.1381 51.0447 19.8848 50.2758 19.8876C46.2912 19.8967 43.6064 22.4398 43.6064 22.4398L45.8824 12.5889C46.7584 8.80714 44.077 6.67275 42.4619 6.68105L32.7379 6.73522C31.8461 6.73961 31.6295 8.23794 33.0593 8.2323C35.3352 8.21253 35.5613 10.917 35.2013 12.2623L28.9065 36.8053C28.3235 40.591 26.1872 40.4989 25.2462 40.5053C22.3089 40.5172 23.4795 37.2211 23.4795 37.2211L30.7115 9.17451C32.4261 2.85084 38.6482 2.90757 38.6482 2.90757C40.4943 2.89772 40.5806 0.564042 39.3137 0.572793L16.0751 0.704744L12.7089 0.722059C10.6198 0.736615 11.1247 3.0574 12.5926 3.04838C18.8365 3.9059 17.7633 8.16049 17.7633 8.16049L10.7879 35.5546C9.72833 41.7364 1.57396 42.2654 1.57396 42.2654C0.447606 42.2658 0.234554 44.161 1.51366 44.1577L33.8778 43.9734C35.4523 43.967 38.1758 40.4063 38.1758 40.4063C40.9475 45.3301 45.7393 44.5408 45.7393 44.5408C56.3673 44.4877 57.5842 29.5302 57.5842 29.5302L66.2927 29.4866C67.3197 28.9952 71.2061 25.5501 71.2061 25.5501C75.2411 23.6771 73.8926 27.521 73.8926 27.521C73.1818 29.5476 69.8621 30.2857 69.8621 30.2857C66.368 30.6519 62.264 32.1168 62.264 32.1168C56.246 35.0297 56.885 38.7254 56.885 38.7254C56.9173 44.9655 63.5647 44.4449 63.5647 44.4449C68.1592 44.4202 70.6758 40.7705 70.6758 40.7705C70.8064 41.5101 71.1604 42.1919 71.6901 42.7243C72.2198 43.2567 72.8999 43.6141 73.6388 43.7485L91.055 43.6507C95.0993 43.6304 96.5875 39.4584 96.5875 39.4584L98.798 30.738C99.6615 25.7919 102.272 26.1199 102.272 26.1199C104.445 26.1137 104.629 28.4359 104.481 29.06L102.404 37.4366C100.169 43.5517 105.249 43.5653 105.249 43.5653L136.172 43.3958C139.118 43.3752 142.998 37.6225 142.998 37.6225C143.505 36.9744 144.156 36.5848 145.114 36.5763L148.817 36.558L142.34 43.3607L170.363 43.2003C171.814 43.1955 173.381 42.8668 174.585 42.0094C176.283 40.8014 176.982 39.1866 177.387 37.2003C177.934 34.492 178.575 31.8047 179.187 29.112C179.275 28.5377 179.411 27.7004 178.753 27.3825ZM133.185 23.8689C135.12 23.8597 135.02 26.1321 134.329 28.3849L130.138 28.4065C130.109 23.4131 133.185 23.8689 133.185 23.8689ZM46.0448 32.6283C45.2088 36.2225 43.1659 39.1396 41.4853 39.1454C39.8047 39.1512 39.1214 36.2432 39.9594 32.6486C40.7933 29.055 42.8378 26.1354 44.5179 26.1275C46.1974 26.1176 46.8801 29.0236 46.0448 32.6283ZM72.2276 33.661C71.9216 35.7814 70.9858 38.0825 68.9728 39.1151C67.9971 39.6127 66.7712 39.721 66.1863 38.6253C65.5225 37.3835 66.4718 35.801 67.5642 35.1284C68.9646 34.2677 71.515 34.0643 72.3424 32.4701C72.2096 32.7251 72.2707 33.3687 72.2276 33.661Z" fill="black"/>
</g>
</svg>
