<svg width="70" height="45" viewBox="0 0 70 45" fill="none" xmlns="http://www.w3.org/2000/svg">
<g clip-path="url(#clip0_2337_310)">
<path d="M16.4427 11.0745C17.7029 11.0745 18.7248 10.0519 18.7248 8.79105C18.7248 7.53023 17.7029 6.50781 16.4427 6.50781C15.1826 6.50781 14.1609 7.53047 14.1609 8.79082C14.1609 10.0512 15.1826 11.0745 16.4427 11.0745Z" fill="black"/>
<path d="M12.656 13.8926V9.01324C12.656 7.35572 11.018 5.84804 9.7508 6.22737C8.49111 6.61115 3.19887 8.22852 2.98176 8.32576C2.76536 8.42652 0 9.49357 0 12.5218L0.0417784 32.1989C0.0417784 32.1989 0.161011 34.1782 2.21895 34.1385C2.21895 34.1385 2.82098 34.1385 3.78682 33.6141C3.78682 33.6141 6.16701 32.3093 6.32802 32.2389C6.48176 32.1729 7.77713 31.7583 7.8189 33.5302V44.5812L11.7252 43.3291V33.53C11.7252 32.8648 12.2085 29.5716 13.9021 28.21C14.007 28.1217 14.8264 27.593 15.554 28.5715C16.2889 29.5502 16.9261 29.6998 16.9261 29.6998C16.9261 29.6998 17.7169 30.0479 18.4175 28.8536C18.4593 28.77 19.6915 26.7289 19.7474 26.6363C19.8032 26.5438 19.9853 26.2704 20.5102 26.3145C20.5102 26.3145 21.8055 26.2309 21.602 28.047C21.602 28.047 27.5942 26.2265 28.0911 25.9486C28.1678 25.9178 30.4569 25.0011 31.8361 22.8851C31.8361 22.8851 32.249 22.2768 32.7667 22.3209C32.8578 22.3209 34.132 22.4003 33.7682 24.0931C33.7682 24.0931 39.578 22.3167 39.9 22.1582C40.5861 21.8761 42.399 21.1221 42.3575 19.015C42.3784 18.3891 42.2103 17.2962 41.3071 16.5112C41.2583 16.4628 37.31 13.5534 37.275 13.5274C36.9319 13.2361 36.757 12.5749 37.3168 11.8743C37.3168 11.8743 37.7578 11.2307 38.4087 11.2704C38.4087 11.2704 38.899 11.2483 39.6552 12.2402C39.7529 12.3372 40.3129 13.0867 40.7051 13.1656C40.7051 13.1656 41.0269 13.2713 41.4261 12.8838C42.4063 12.0331 42.9173 11.9978 42.9173 11.9978C42.9173 11.9978 44.3311 11.5924 44.3311 13.2056V16.5953C44.3311 17.3361 45.304 19.606 47.5162 19.4961C47.5162 19.4961 48.279 19.4167 49.0073 19.214L51.3802 18.4516C51.3802 18.4516 54.369 17.5524 55.4121 15.626C55.4121 15.626 55.9089 14.6606 56.6229 14.6606C56.6229 14.6606 57.869 14.4979 57.75 16.3933L61.138 15.2647V7.07786C61.138 7.07786 61.0404 6.10828 62.1811 6.10828C63.3082 6.10828 63.273 6.99377 63.273 6.99377V23.9338C63.273 24.4099 63.7701 25.8908 65.4079 25.8687C65.4079 25.8687 70 25.8293 70 21.9148V20.4248L68.8309 20.8262V22.2408C68.8309 22.2408 68.9084 23.1933 67.8231 23.2459C67.725 23.268 66.661 23.2283 66.696 22.1967V1.4711C66.696 1.4711 66.6122 0.501056 65.6457 0.501056C65.6457 0.501056 64.7638 0.421903 64.0778 1.6341C63.3917 2.84184 63.1469 3.7675 62.2231 3.7675C62.2231 3.7675 61.124 3.89973 61.1378 2.921V1.8718L57.666 3.00461V6.99377C57.666 7.98566 56.9241 12.9049 55.6151 12.9221C55.5238 12.9357 54.292 13.1076 54.2427 11.8733V7.2364C54.2777 6.61068 53.7881 4.7413 52.2268 4.94L50.8202 5.22186V15.2636C50.8202 15.572 50.7078 17.0531 49.0418 17.1189C48.8949 17.1412 47.2709 17.0749 47.2709 15.5057V8.97355C47.2709 8.97355 47.1941 7.80104 48.3628 7.72165L48.3977 6.02889C48.3977 6.02889 44.8555 6.8357 43.2038 9.81981C43.0081 10.0312 42.595 10.221 42.3147 10.221C42.1469 10.221 41.3491 10.1724 41.3069 9.37449V8.28583L35.4621 10.2207C35.4621 10.2207 33.166 10.9484 33.166 13.289C33.166 13.289 33.166 14.9021 34.1741 15.6647L38.2479 18.7327C38.2479 18.7327 38.941 19.2267 38.6049 20.0642C38.5624 20.2051 38.0867 21.1705 37.1136 21.1926C36.9244 21.2144 36.3085 21.1926 35.9445 20.2625C35.9445 20.2625 35.6227 19.0545 34.5796 19.416C34.5796 19.416 32.6196 20.1037 32.4799 20.1434C32.3473 20.1831 31.1918 20.3858 31.1918 19.0148V14.4969C31.1918 14.1615 30.7787 12.2487 29.1759 12.3194C29.1759 12.3194 28.2516 12.3988 27.4473 12.7645V14.7393C27.4473 14.7393 28.5321 14.5763 28.5321 15.987V22.8059C28.5321 22.8059 28.5809 24.5074 26.803 24.5384C25.3116 24.5208 25.0671 23.097 25.0671 22.9248C25.0527 21.9599 25.1088 1.18925 25.1088 1.18925L21.5603 2.55999L21.602 17.4409C21.602 17.4409 21.3852 22.2721 20.0269 24.1368C19.6354 24.6699 18.256 24.6699 18.137 23.4885V15.8277L14.6722 16.9166V20.0198C14.6722 20.5401 14.1889 26.7021 12.4181 26.614C12.1939 26.6187 11.7179 26.3714 11.7106 25.3137L11.732 17.8071L8.34395 19.0148C8.34395 19.0148 8.30898 23.1404 8.3017 23.3699C8.19679 24.6922 8.3855 30.6694 4.43086 30.6694C4.43086 30.6694 3.46479 30.7091 3.46479 29.5408V12.8434C3.46479 12.8434 3.57675 10.9571 5.0397 10.3001C5.0397 10.3001 6.53105 9.76673 6.85284 9.65657C7.16782 9.54618 8.38573 9.65657 8.38573 10.9879V15.2239L12.656 13.8926ZM67.1999 1.8105C67.1999 1.15355 67.7247 0.726069 68.3131 0.726069C68.9011 0.726069 69.4257 1.15355 69.4257 1.8105C69.4257 2.47614 68.9011 2.89939 68.3131 2.89939C67.7247 2.89939 67.1999 2.47614 67.1999 1.8105ZM68.3131 0.955309C67.8508 0.955309 67.4867 1.31232 67.4867 1.81073C67.4867 2.31313 67.851 2.66991 68.3131 2.66991C68.7678 2.66991 69.1391 2.3129 69.1391 1.81073C69.1391 1.31232 68.7678 0.955309 68.3131 0.955309ZM68.1167 2.41859H67.8787V1.20193H68.3411C68.642 1.20193 68.8098 1.29893 68.8098 1.56341C68.8098 1.78372 68.6767 1.8718 68.5159 1.88965L68.8098 2.41883H68.5439L68.2709 1.89858H68.1167V2.41859ZM68.1167 1.71326H68.327C68.5018 1.71326 68.565 1.65642 68.565 1.54156C68.565 1.42694 68.4882 1.39171 68.3134 1.39171H68.1169V1.71326H68.1167Z" fill="black"/>
</g>
<defs>
<clipPath id="clip0_2337_310">
<rect width="70" height="45" fill="white"/>
</clipPath>
</defs>
</svg>
