<svg width="95" height="45" viewBox="0 0 95 45" fill="none" xmlns="http://www.w3.org/2000/svg">
<g clip-path="url(#clip0_2337_404)">
<path d="M45.5945 34.2537C47.0587 32.9079 48.0295 30.8693 47.942 28.3609C47.942 28.3131 47.9062 28.2693 47.8545 28.2654C47.8226 28.2733 47.759 28.2932 47.7152 28.3131C47.1104 28.5879 46.1953 28.7631 45.3756 28.7631C43.8477 28.7631 42.4034 28.2136 41.2614 27.2102C40.02 28.5242 38.3131 29.2687 36.5186 29.2687C35.0902 29.2687 33.7453 28.8188 32.6074 27.9628C31.3779 29.42 29.5834 30.2522 27.5144 30.3199C26.1377 30.3637 24.6695 29.9376 23.5434 29.1931C22.4492 30.5707 20.9771 31.3909 19.1507 31.6378C14.5392 32.2549 12.0206 32.8999 9.29105 35.1018L9.02447 35.3168L8.21277 34.3851L8.49925 34.1502C11.2606 31.8966 11.6306 29.3603 11.6306 27.1744V8.50867C9.78841 8.60423 7.83478 8.65997 6.06815 8.66794C5.23656 8.66794 4.52434 9.38462 4.52434 10.3163C4.52434 11.1724 5.12515 11.9289 6.41829 12.0284C5.45142 12.3828 4.33335 12.4067 3.5336 12.2315C2.44736 12.0045 1.385 11.4789 0.672774 10.4397C-0.0155744 9.46824 -0.150857 8.0269 0.155518 6.92798C0.652879 5.14024 2.43542 3.91789 4.46466 3.85419C9.6969 3.87011 15.2395 3.50779 20.5354 2.78712C23.5753 2.37303 26.5833 1.85144 29.4481 1.18652C29.5197 2.7473 29.1616 3.9816 28.4693 4.92922C27.6616 6.03212 26.3923 6.7289 24.7769 7.01557C22.0752 7.50133 19.2701 7.88356 16.4292 8.15431L16.4172 25.4623C16.4172 26.5652 17.3125 27.4611 18.4146 27.4611C19.5168 27.4611 20.4121 26.5652 20.4121 25.4623V21.632C20.4121 19.6054 20.7343 17.6225 21.2954 16.1892C22.692 12.6336 25.6881 10.6747 29.7266 10.6747C29.8579 10.6747 29.9892 10.6747 30.1205 10.6747C30.2519 10.6747 30.3832 10.6747 30.5105 10.6747C31.7161 10.6747 32.8899 10.6428 33.9841 10.2606L34.4615 10.0973L34.4735 22.4244C34.4735 23.7064 35.5159 24.7536 36.7971 24.7536C38.0783 24.7536 39.1248 23.7104 39.1248 22.4244V13.6887C39.1248 13.2587 38.7667 12.9083 38.329 12.9083C38.0783 12.9083 37.7879 13.0437 37.6407 13.2508C37.4934 11.3754 39.0134 9.90223 40.7681 9.90223C42.5228 9.90223 43.9233 11.3197 43.9233 13.0596L43.9114 22.2332C43.9114 23.3401 44.8146 24.24 45.9207 24.24C47.0269 24.24 47.9301 23.3401 47.9301 22.2332V10.3402H52.7246V22.1377C52.7246 23.3521 53.7114 24.3395 54.925 24.3395C56.1385 24.3395 57.1253 23.3521 57.1253 22.1377V2.42877C57.1253 1.75588 56.5802 1.20642 55.9077 1.20642H55.5496V0L61.9198 0.0119448V23.1649C61.9198 24.1444 62.7156 24.9407 63.6944 24.9407C64.6732 24.9407 65.465 24.1444 65.465 23.1649V19.3665C65.465 13.8082 68.4611 9.92612 72.7504 9.92612C74.4534 9.92612 75.8778 10.5353 77.5171 11.9687C77.7041 12.1319 77.8871 12.2952 78.0582 12.4544C79.0171 13.3184 79.7095 13.9475 80.6127 13.9475C81.5994 13.9475 82.256 13.4976 83.1313 12.2275C83.7759 11.2958 84.6672 10.8021 85.7057 10.8021C86.5929 10.8021 87.3768 11.1724 87.9935 11.8771C88.8689 11.3555 89.8198 11.0887 90.8305 11.0887C92.2828 11.0887 93.6953 11.678 94.8014 12.7491L95.0083 12.9482L92.8239 16.5555C92.1753 15.9543 91.4114 15.6198 90.7708 15.6198C89.3105 15.6198 88.1208 16.8103 88.1208 18.2715L88.1328 27.4412C88.1328 28.7431 88.5147 30.5508 90.3251 31.7572L90.5519 31.9085L90.17 33.0672L89.8119 32.9119C87.0664 31.7214 84.1738 30.9728 81.2135 30.6822L80.8912 30.6503V29.4957L81.2413 29.4877C82.5544 29.4598 83.3064 28.6715 83.3064 27.3257L83.3183 19.3506C83.3183 18.4507 82.5862 17.7141 81.683 17.7141C80.7798 17.7141 80.0477 18.4467 80.0477 19.3506L80.0357 20.772C80.0357 26.3303 77.0396 30.2124 72.7504 30.2124C70.749 30.2124 69.0142 29.3921 67.7131 27.8393C66.5393 28.8586 65.0711 29.416 63.5432 29.416C61.709 29.416 59.9941 28.6436 58.7805 27.2859C57.6664 28.2932 56.2459 28.8427 54.7379 28.8427C54.0536 28.8427 53.3851 28.7272 52.7445 28.5042C52.7286 30.9689 52.1039 32.9358 51.0296 34.5921C49.6688 36.6864 47.6714 37.7654 45.2523 37.7654C43.6408 37.7734 41.4126 36.9731 40.4179 35.1655C41.0346 35.4521 41.6673 35.5955 42.3437 35.5955C43.5413 35.5955 44.6515 35.1336 45.6024 34.2577M29.667 15.2216C28.521 15.2336 27.5701 15.5959 26.7663 16.3325C26.4003 16.663 25.9029 17.4235 25.696 17.953C25.318 18.9365 25.1032 20.1031 25.1032 21.1463V21.2737C25.1032 22.4522 25.1032 23.4675 25.6881 24.6302C26.2372 25.7211 27.1801 25.8366 27.5621 25.8366C28.7876 25.8366 29.6749 24.7894 29.6749 23.3481L29.667 15.2177V15.2216ZM72.7464 14.708C71.9984 14.708 70.2516 15.1619 70.2516 19.3784V20.76C70.2516 24.9726 71.9944 25.4305 72.7464 25.4305C73.4984 25.4305 75.2372 24.9766 75.2372 20.76V19.3784C75.2372 15.1619 73.4944 14.708 72.7464 14.708Z" fill="#191919"/>
<path d="M15.3386 43.3101C15.7564 42.896 15.9713 42.3187 15.9713 41.598C15.9713 41.2158 15.9076 40.8893 15.7803 40.6185C15.6848 40.4194 15.5455 40.2323 15.3585 40.0571C15.1755 39.8819 14.9447 39.7466 14.6821 39.655C14.4195 39.5634 14.0972 39.5156 13.7232 39.5156C13.3253 39.5156 12.9672 39.5714 12.6608 39.6868C12.43 39.7704 12.2112 39.9098 12.0083 40.1009C11.8054 40.292 11.6462 40.527 11.5348 40.7977C11.4234 41.0684 11.3677 41.391 11.3677 41.7533C11.3677 42.1514 11.4393 42.5098 11.5786 42.8164C11.6701 43.0154 11.8014 43.2026 11.9725 43.3738C12.1436 43.541 12.3704 43.6804 12.6409 43.7839C12.8279 43.8556 13.0388 43.8994 13.2696 43.9233C13.1781 43.9631 13.1025 43.9949 13.0428 44.0308C12.9712 44.0706 12.82 44.1741 12.5892 44.3334C12.4698 44.417 12.3823 44.4847 12.3266 44.5324L12.3186 44.5404L12.3982 44.7713L12.4181 44.7594C12.625 44.632 12.7722 44.5484 12.8438 44.5165C12.8956 44.4966 12.9473 44.4847 13.003 44.4847C13.0706 44.4847 13.2019 44.5046 13.3969 44.5484C13.5401 44.5802 13.8147 44.6598 14.2126 44.7753C14.515 44.8669 14.7577 44.9266 14.9606 44.9624C15.1198 44.9903 15.2192 45.0023 15.267 45.0023H15.2789C15.3227 44.9624 15.3864 44.9187 15.4699 44.8669C15.6927 44.7315 15.8399 44.6439 15.9155 44.6001H15.9275V44.3214L15.6529 44.4369C15.6211 44.4488 15.5933 44.4568 15.5574 44.4647C15.5097 44.4727 15.458 44.4807 15.4063 44.4807C15.3545 44.4807 15.2909 44.4727 15.2153 44.4608C15.1078 44.4409 14.9924 44.413 14.8771 44.3772C14.8174 44.3572 14.6224 44.2896 14.3399 44.19C14.0017 44.0706 13.7232 43.983 13.5083 43.9352C13.5402 43.9352 13.576 43.9352 13.6118 43.9352C14.3439 43.9352 14.9248 43.7242 15.3426 43.3101H15.3386ZM13.0269 40.0293C13.2059 39.9417 13.4128 39.8939 13.6476 39.8939C13.9062 39.8939 14.1211 39.9417 14.2802 40.0332C14.4434 40.1248 14.5786 40.2602 14.6861 40.4314C14.7935 40.6066 14.8731 40.8096 14.9248 41.0446C14.9765 41.2755 15.0004 41.5223 15.0004 41.7772C15.0004 42.1793 14.9447 42.5257 14.8333 42.8004C14.7219 43.0752 14.5667 43.2703 14.3717 43.3897C14.1768 43.5052 13.954 43.5649 13.7152 43.5649C13.2656 43.5649 12.9194 43.3897 12.6887 43.0393C12.4539 42.689 12.3345 42.2032 12.3345 41.602C12.3345 41.3273 12.3624 41.0764 12.4221 40.8614C12.4818 40.6424 12.5613 40.4672 12.6688 40.3319C12.7722 40.1965 12.8956 40.0969 13.0269 40.0293Z" fill="#191919"/>
<path d="M21.5458 39.602C21.4782 39.602 21.2593 39.594 20.9012 39.5821H20.8813V39.8728H20.9012C21.1201 39.8807 21.2633 39.8967 21.327 39.9325C21.3548 39.9484 21.3747 39.9683 21.3867 39.9962C21.4066 40.044 21.4225 40.1953 21.4265 40.4461C21.4265 40.5536 21.4265 40.8443 21.4265 41.4176V42.0308C21.4265 42.4528 21.3906 42.7435 21.323 42.8948C21.2554 43.0421 21.14 43.1655 20.9768 43.2571C20.8137 43.3487 20.5949 43.3965 20.3203 43.3965C20.0816 43.3965 19.8826 43.3606 19.7275 43.289C19.5723 43.2213 19.4569 43.1297 19.3853 43.0182C19.3097 42.9067 19.2659 42.7554 19.246 42.5723C19.2381 42.4847 19.2341 42.2577 19.2341 41.8914V41.5371V40.8363C19.2341 40.4143 19.25 40.1395 19.2739 40.0161C19.2818 39.9683 19.3017 39.9404 19.3256 39.9245C19.3813 39.8887 19.5166 39.8688 19.7275 39.8688H19.7474V39.5781L19.2102 39.594L18.8044 39.602L17.8057 39.5821V39.8688L18.2115 39.9126C18.2553 39.9444 18.2712 39.9683 18.2752 39.9803C18.2911 40.0161 18.303 40.0798 18.311 40.1674C18.3229 40.3983 18.3269 40.6532 18.3269 40.9279V42.2737C18.3269 42.5962 18.3269 42.7873 18.3388 42.859C18.3548 42.9744 18.3945 43.1018 18.4582 43.2292C18.5219 43.3567 18.6213 43.4721 18.7447 43.5756C18.868 43.6792 19.0272 43.7588 19.2221 43.8225C19.4887 43.9061 19.7792 43.9459 20.0856 43.9459C20.3482 43.9459 20.5829 43.9181 20.7819 43.8623C20.9808 43.8066 21.1559 43.719 21.3031 43.6075C21.4463 43.496 21.5617 43.3686 21.6453 43.2292C21.7249 43.0899 21.7806 42.9227 21.8044 42.7276C21.8323 42.5364 21.8442 42.3453 21.8442 42.1662V41.4574C21.8442 41.2464 21.8522 40.9597 21.8641 40.6014C21.8761 40.2431 21.892 40.04 21.9079 39.9962C21.9198 39.9564 21.9397 39.9285 21.9596 39.9166C21.9915 39.8967 22.075 39.8728 22.3018 39.8728H22.3217V39.5821L21.6334 39.602C21.5975 39.602 21.5697 39.602 21.5538 39.602H21.5458Z" fill="#191919"/>
<path d="M27.9993 43.5361C27.8839 43.5282 27.8441 43.5202 27.8282 43.5162C27.8083 43.5083 27.7884 43.4963 27.7725 43.4844C27.7566 43.4684 27.7367 43.4446 27.7208 43.4127L27.6014 43.134L27.4144 42.7199L26.0616 39.5625H25.608L25.3374 40.2593L24.5496 42.1983C24.3904 42.5885 24.2989 42.8194 24.2472 42.9349C24.1318 43.2017 24.0642 43.353 24.0403 43.3928C24.0204 43.4326 23.9965 43.4605 23.9766 43.4764C23.9567 43.4923 23.9329 43.5083 23.905 43.5162C23.8772 43.5242 23.7817 43.5361 23.6185 43.5481H23.5986V43.8387L24.3069 43.8188L25.0231 43.8387V43.5481H25.0032C24.7127 43.5361 24.6132 43.5122 24.5814 43.4963C24.5536 43.4804 24.5416 43.4525 24.5416 43.4127C24.5416 43.3689 24.5655 43.2415 24.6888 42.9031L24.8162 42.5567H26.3401L26.5947 43.2057C26.6385 43.3171 26.6624 43.3968 26.6624 43.4446C26.6624 43.4764 26.6504 43.5003 26.6266 43.5122C26.6107 43.5202 26.539 43.5361 26.2247 43.5521H26.2048V43.8427L27.2831 43.8228L28.1425 43.8427V43.556H28.1226C28.0629 43.5481 28.0192 43.5441 27.9913 43.5401L27.9993 43.5361ZM26.1889 42.1744C26.0178 42.1784 25.8228 42.1824 25.596 42.1824C25.3692 42.1824 25.1584 42.1824 24.9833 42.1744L25.5761 40.6893L26.1929 42.1744H26.1889Z" fill="#191919"/>
<path d="M32.6868 42.7193C32.647 42.9224 32.6112 43.0936 32.5714 43.2409C32.5476 43.3126 32.5316 43.3364 32.5237 43.3444C32.5197 43.3484 32.4918 43.3643 32.3844 43.3802C32.1576 43.4161 31.891 43.436 31.5886 43.436C31.4892 43.436 31.3061 43.428 31.0435 43.4161C31.0435 43.3444 31.0435 43.1772 31.0435 42.9224C31.0435 42.6397 31.0435 42.357 31.0396 42.0703C31.0396 41.696 31.0396 41.4412 31.0396 41.3098V41.2023C31.0396 40.8679 31.0435 40.5852 31.0515 40.3662C31.0634 40.0835 31.0754 40.0158 31.0793 39.9999C31.0873 39.976 31.0992 39.9601 31.1191 39.9521C31.1669 39.9282 31.3022 39.9123 31.525 39.9003H31.5449V39.5938H31.525C31.1987 39.6097 30.8486 39.6176 30.4865 39.6176C30.1602 39.6176 29.8658 39.6097 29.6151 39.5977H29.5952V39.9003H29.6151C29.9374 39.9123 30.0369 39.9401 30.0687 39.9601C30.0846 39.968 30.0966 39.9839 30.1045 40.0039C30.1204 40.0556 30.1363 40.2706 30.1403 40.6449C30.1403 40.7882 30.1443 41.1744 30.1443 41.8195C30.1443 42.2654 30.1443 42.6277 30.1324 42.9303C30.1244 43.2369 30.1165 43.4161 30.1045 43.4639C30.1045 43.4718 30.1005 43.4798 30.0926 43.4878C30.0846 43.4957 30.0687 43.5156 30.017 43.5435C29.9215 43.5992 29.8499 43.6391 29.7981 43.659H29.7862V43.8541H29.8061C30.2159 43.8341 30.5104 43.8262 30.7013 43.8262C30.8247 43.8262 31.0396 43.8262 31.3937 43.8381C31.8274 43.8501 32.0661 43.8541 32.1019 43.8541C32.3566 43.8541 32.5515 43.8501 32.6749 43.8381C32.7306 43.8341 32.7903 43.8222 32.8539 43.8063H32.8659V43.7904C32.8659 43.7466 32.8778 43.6231 32.8937 43.4479L32.9693 42.8387C32.9693 42.8387 32.9693 42.8109 32.9773 42.7392V42.7193H32.6908V42.7352L32.6868 42.7193Z" fill="#191919"/>
<path d="M35.9932 39.602C35.667 39.602 35.3765 39.594 35.1258 39.5821H35.106V39.8847H35.1258C35.3964 39.8967 35.48 39.9046 35.5038 39.9086C35.5436 39.9166 35.5595 39.9285 35.5675 39.9365C35.5794 39.9484 35.5874 39.9643 35.5914 39.9882C35.6073 40.0519 35.6153 40.2112 35.6272 40.462C35.6272 40.5775 35.6312 40.8363 35.6312 41.2345V42.4927C35.6312 42.6997 35.6232 42.9227 35.6073 43.1616C35.6073 43.2213 35.5914 43.4084 35.5834 43.4403C35.5834 43.4562 35.5715 43.4681 35.5596 43.4801C35.5516 43.4881 35.5317 43.5 35.484 43.508C35.4521 43.5119 35.3328 43.5199 35.1258 43.5279H35.106V43.8344H35.1258C35.3765 43.8185 35.667 43.8106 35.9893 43.8106C36.3593 43.8106 36.7094 43.8185 37.0357 43.8305H37.0556V43.5279H37.0357C36.793 43.5239 36.7094 43.5159 36.6816 43.508C36.6418 43.5 36.614 43.488 36.598 43.4761C36.5821 43.4642 36.5702 43.4443 36.5622 43.4204C36.5423 43.3606 36.5344 43.2253 36.5344 43.0222L36.5264 42.4727V41.2584C36.5264 41.2265 36.5264 41.0115 36.5344 40.6253V40.462C36.5384 40.3227 36.5423 40.2192 36.5463 40.1674C36.5543 40.0718 36.5622 40.0081 36.5781 39.9763C36.5821 39.9604 36.5901 39.9484 36.606 39.9365C36.614 39.9285 36.6378 39.9166 36.6816 39.9086C36.7094 39.9006 36.793 39.8927 37.0397 39.8847H37.0596V39.5781H37.0397C36.7134 39.5941 36.3633 39.602 35.9972 39.602H35.9932Z" fill="#191919"/>
<path d="M42.9322 39.5859C42.8407 39.5979 42.7452 39.6019 42.6537 39.6058C42.4905 39.6098 42.1563 39.6138 41.6391 39.6138H40.4215C39.9202 39.6138 39.5939 39.6138 39.4268 39.6058C39.3234 39.6058 39.2199 39.5939 39.1284 39.5859H39.1164L39.0767 39.6297V39.6377C39.0926 39.7412 39.1005 39.8368 39.1085 39.9204C39.1085 39.9682 39.1164 40.1553 39.1204 40.4937V40.6371H39.4109V40.6172C39.4149 40.446 39.4308 40.2867 39.4547 40.1473C39.4666 40.0717 39.4825 40.0558 39.4865 40.0518C39.4865 40.0518 39.5024 40.0398 39.5899 40.0319C39.7531 40.016 39.9441 40.012 40.1589 40.012H40.5727C40.5727 40.0757 40.5807 40.2748 40.5807 40.8163V42.6199C40.5807 43.0499 40.5687 43.3127 40.5489 43.3963C40.5329 43.4481 40.5091 43.4839 40.4653 43.5038C40.4374 43.5198 40.338 43.5397 40.0435 43.5516H40.0236V43.8383H40.0435C40.4175 43.8184 40.7478 43.8104 41.0263 43.8104C41.3048 43.8104 41.6112 43.8184 42.0091 43.8383H42.029V43.5516H42.0091C41.7147 43.5397 41.6192 43.5198 41.5873 43.5038C41.5476 43.4799 41.5197 43.4481 41.5078 43.4003C41.4879 43.3127 41.4759 43.0499 41.4759 42.6199V40.8163C41.4759 40.3663 41.4759 40.0996 41.4839 40.012H41.8977C42.1285 40.012 42.3274 40.0199 42.4905 40.0359C42.5582 40.0398 42.5741 40.0518 42.5741 40.0518C42.5781 40.0558 42.594 40.0797 42.6059 40.1712C42.6258 40.3106 42.6417 40.4619 42.6457 40.6172V40.6371H42.9362V40.6172C42.9402 40.3424 42.9441 39.9801 42.9481 39.9562C42.9521 39.8646 42.964 39.7571 42.98 39.6377V39.6297L42.9362 39.5859H42.9282H42.9322Z" fill="#191919"/>
<path d="M47.7307 39.5992C47.7028 39.659 47.6312 39.7824 47.5238 39.9735C47.2015 40.5429 47.0145 40.8733 46.9548 40.9809L46.5967 41.5622C46.537 41.4387 46.3978 41.168 46.1869 40.7579C46.0436 40.4752 45.8964 40.2204 45.7492 40.0054C45.6497 39.8541 45.5702 39.7545 45.5145 39.7028C45.4588 39.647 45.3672 39.5873 45.2439 39.5156H45.2359H45.228C45.1126 39.5475 45.0012 39.5714 44.8937 39.5953L44.2412 39.7266V39.9894H44.2611C44.4561 39.9894 44.5038 40.0014 44.5158 40.0054C44.5436 40.0213 44.6033 40.0651 44.7227 40.1965C44.8699 40.3597 45.033 40.5787 45.2081 40.8495C45.419 41.1799 45.6219 41.5224 45.8129 41.8687C45.9044 42.0439 45.9243 42.1156 45.9243 42.1475V42.7208C45.9243 42.888 45.9203 43.0831 45.9084 43.3021C45.9004 43.4295 45.8885 43.4614 45.8805 43.4733C45.8686 43.4893 45.8447 43.5012 45.8089 43.5092C45.7731 43.5171 45.6378 43.5291 45.411 43.537H45.3911V43.8436H45.411C45.7174 43.8277 46.0238 43.8197 46.3222 43.8197C46.6206 43.8197 46.9787 43.8277 47.3607 43.8396H47.3806V43.537H47.3607C47.0861 43.5331 46.9946 43.5211 46.9668 43.5131C46.9309 43.5012 46.9031 43.4853 46.8872 43.4654C46.8792 43.4534 46.8593 43.4096 46.8434 43.2623C46.8315 43.1468 46.8235 42.9597 46.8235 42.7089V42.1992C46.8235 42.0957 46.8275 42.024 46.8394 41.9763C46.8514 41.9125 46.8832 41.8409 46.923 41.7573C46.9906 41.6299 47.1657 41.3432 47.4442 40.9052C47.7227 40.4632 47.9893 40.077 48.232 39.7505H48.236V39.5833H47.7267V39.5953L47.7307 39.5992Z" fill="#191919"/>
<path d="M55.0638 42.0998V42.3825H55.0836C55.39 42.4024 55.581 42.4184 55.6526 42.4422C55.6884 42.4502 55.7123 42.4661 55.7203 42.4821C55.7322 42.506 55.7441 42.5816 55.7441 42.8165C55.7441 42.8524 55.7441 42.9519 55.7362 43.0952C55.7362 43.2386 55.7282 43.3381 55.7242 43.3938C55.6089 43.4456 55.4895 43.4854 55.3622 43.5133C55.2388 43.5412 55.1075 43.5531 54.9722 43.5531C54.5186 43.5531 54.1327 43.3779 53.8184 43.0355C53.504 42.6891 53.3489 42.2193 53.3489 41.63C53.3489 41.0925 53.5 40.6665 53.7945 40.3599C54.0889 40.0533 54.4908 39.898 54.9842 39.898C55.1951 39.898 55.39 39.9219 55.5571 39.9737C55.7242 40.0214 55.8754 40.0931 56.0028 40.1807C56.0585 40.2165 56.1102 40.2643 56.1579 40.3201C56.1699 40.3798 56.1818 40.4554 56.1858 40.539C56.1938 40.6744 56.1977 40.762 56.1977 40.8257V40.8456H56.4763V40.8257C56.516 40.3838 56.5638 40.0692 56.6115 39.894V39.8861L56.5837 39.8144H56.5757C56.4086 39.7348 56.1778 39.6671 55.8834 39.6034C55.589 39.5397 55.2667 39.5078 54.9245 39.5078C54.6499 39.5078 54.3913 39.5317 54.1566 39.5795C53.9258 39.6273 53.699 39.7069 53.4841 39.8144C53.2693 39.9259 53.0783 40.0692 52.9112 40.2484C52.7441 40.4236 52.6128 40.6346 52.5173 40.8695C52.4218 41.1044 52.374 41.3871 52.374 41.7017C52.374 42.0759 52.4456 42.4223 52.5889 42.7289C52.6804 42.928 52.8117 43.1151 52.9868 43.2863C53.1618 43.4576 53.3727 43.6009 53.6154 43.7084C53.9656 43.8597 54.3674 43.9393 54.821 43.9393C55.0996 43.9393 55.3821 43.9115 55.6566 43.8557C55.9351 43.8 56.2654 43.7004 56.6354 43.5651H56.6513V43.5452C56.6354 43.3859 56.6235 43.2306 56.6235 43.0793C56.6235 42.9798 56.6275 42.8125 56.6394 42.5816C56.6434 42.4661 56.6593 42.4343 56.6672 42.4303C56.6991 42.3905 56.7747 42.3586 56.8861 42.3387H56.902V42.0998L55.9749 42.1118L55.0558 42.0998H55.0638Z" fill="#191919"/>
<path d="M62.2538 39.602C62.1861 39.602 61.9673 39.594 61.6092 39.5821H61.5893V39.8728H61.6092C61.828 39.8807 61.9713 39.8967 62.0349 39.9325C62.0628 39.9484 62.0827 39.9683 62.0946 39.9962C62.1145 40.044 62.1304 40.1953 62.1344 40.4461C62.1344 40.5695 62.1344 40.904 62.1344 41.4176V42.0308C62.1344 42.4528 62.0986 42.7435 62.0309 42.8948C61.9633 43.0421 61.8479 43.1655 61.6848 43.2571C61.5216 43.3487 61.3028 43.3965 61.0283 43.3965C60.7895 43.3965 60.5906 43.3606 60.4354 43.289C60.2842 43.2213 60.1688 43.1297 60.0932 43.0182C60.0176 42.9067 59.9738 42.7554 59.954 42.5723C59.946 42.4887 59.942 42.2657 59.942 41.8914V41.5371V40.8363C59.942 40.4143 59.9579 40.1395 59.9858 40.0161C59.9937 39.9683 60.0097 39.9404 60.0375 39.9245C60.0932 39.8887 60.2285 39.8688 60.4394 39.8688H60.4593V39.5781L59.9221 39.594L59.5163 39.602L58.5176 39.5821V39.8688L58.9234 39.9126C58.9672 39.9444 58.9831 39.9683 58.9871 39.9803C59.003 40.0161 59.0149 40.0798 59.0229 40.1634C59.0348 40.3864 59.0388 40.6412 59.0388 40.9239V42.2697C59.0388 42.5922 59.0388 42.7833 59.0507 42.855C59.0667 42.9744 59.1065 43.0979 59.1701 43.2253C59.2378 43.3527 59.3332 43.4681 59.4566 43.5717C59.5799 43.6752 59.7391 43.7548 59.938 43.8185C60.2046 43.9021 60.4951 43.942 60.8015 43.942C61.0641 43.942 61.2988 43.9141 61.4978 43.8583C61.6967 43.8026 61.8718 43.715 62.019 43.6035C62.1662 43.492 62.2776 43.3646 62.3612 43.2253C62.4408 43.0859 62.4965 42.9187 62.5203 42.7236C62.5482 42.5325 62.5601 42.3414 62.5601 42.1622V41.4535C62.5601 41.2424 62.5681 40.9558 62.58 40.5974C62.592 40.2391 62.6079 40.036 62.6238 39.9922C62.6357 39.9524 62.6556 39.9245 62.6755 39.9126C62.7073 39.8927 62.7909 39.8688 63.0177 39.8688H63.0376V39.5781L62.3492 39.598C62.3134 39.598 62.2856 39.598 62.2697 39.598L62.2538 39.602Z" fill="#191919"/>
<path d="M65.9937 39.602C65.6675 39.602 65.377 39.594 65.1263 39.5821H65.1064V39.8847H65.1263C65.3969 39.8967 65.4805 39.9046 65.5043 39.9086C65.5441 39.9166 65.56 39.9285 65.568 39.9365C65.5799 39.9484 65.5879 39.9643 65.5919 39.9882C65.6038 40.0519 65.6157 40.2112 65.6277 40.462C65.6277 40.5775 65.6317 40.8363 65.6317 41.2345V42.4927C65.6317 42.6957 65.6237 42.9187 65.6078 43.1616C65.5958 43.3726 65.5879 43.4283 65.5839 43.4403C65.5839 43.4562 65.572 43.4681 65.56 43.4801C65.5521 43.4881 65.5322 43.5 65.4844 43.508C65.4526 43.5119 65.3332 43.5199 65.1263 43.5279H65.1064V43.8344H65.1263C65.377 43.8185 65.6675 43.8106 65.9898 43.8106C66.3598 43.8106 66.7099 43.8185 67.0362 43.8305H67.0561V43.5279H67.0362C66.7935 43.5239 66.7099 43.5159 66.6821 43.508C66.6423 43.5 66.6144 43.488 66.5985 43.4761C66.5826 43.4642 66.5707 43.4443 66.5627 43.4204C66.5428 43.3606 66.5349 43.2253 66.5349 43.0222L66.5269 42.4727V41.2584C66.5269 41.2265 66.5269 40.9996 66.5388 40.462C66.5388 40.3227 66.5428 40.2192 66.5468 40.1674C66.5508 40.0718 66.5627 40.0081 66.5747 39.9763C66.5786 39.9604 66.5866 39.9484 66.6025 39.9365C66.6144 39.9285 66.6343 39.9166 66.6781 39.9086C66.706 39.9006 66.7895 39.8927 67.0362 39.8847H67.0561V39.5781H67.0362C66.7099 39.5941 66.3598 39.602 65.9937 39.602Z" fill="#191919"/>
<path d="M72.937 39.5859C72.8415 39.5979 72.75 39.6019 72.6585 39.6058C72.4954 39.6098 72.1611 39.6138 71.6439 39.6138H70.4303C69.929 39.6138 69.6027 39.6138 69.4356 39.6058C69.3321 39.6058 69.2287 39.5939 69.1372 39.5859H69.1252L69.0854 39.6297V39.6377C69.1014 39.7412 69.1093 39.8368 69.1173 39.9204C69.1173 39.9761 69.1252 40.219 69.1332 40.6172V40.6371H69.4237V40.6172C69.4276 40.442 69.4435 40.2827 69.4674 40.1473C69.4794 40.0757 69.4913 40.0558 69.4993 40.0518C69.4993 40.0518 69.5152 40.0398 69.6027 40.0319C69.7658 40.016 69.9568 40.012 70.1717 40.012H70.5855C70.5895 40.0956 70.5934 40.3663 70.5934 40.8163V42.6199C70.5934 43.0499 70.5815 43.3087 70.5616 43.3963C70.5457 43.4481 70.5218 43.4839 70.4781 43.5038C70.4502 43.5198 70.3507 43.5397 70.0563 43.5516H70.0364V43.8383H70.0563C70.4343 43.8184 70.7566 43.8104 71.0391 43.8104C71.3017 43.8104 71.624 43.8184 72.0219 43.8383H72.0418V43.5516H72.0219C71.7274 43.5397 71.6319 43.5198 71.6001 43.5038C71.5603 43.4799 71.5325 43.4481 71.5205 43.4003C71.5006 43.3167 71.4887 43.0539 71.4887 42.6239V40.8202C71.4887 40.3783 71.4887 40.1075 71.4967 40.016H71.9105C72.1452 40.016 72.3402 40.0239 72.5033 40.0398C72.571 40.0438 72.5869 40.0558 72.5869 40.0558C72.5869 40.0558 72.6028 40.0797 72.6187 40.1752C72.6426 40.3186 72.6545 40.4659 72.6585 40.6212V40.6411H72.9489V40.6212C72.9569 40.1553 72.9609 39.9761 72.9609 39.9602C72.9609 39.8647 72.9768 39.7571 72.9927 39.6417V39.6297L72.9489 39.5859H72.941H72.937Z" fill="#191919"/>
<path d="M78.3166 43.5361C78.2012 43.5282 78.1614 43.5202 78.1455 43.5162C78.1256 43.5083 78.1057 43.4963 78.0898 43.4844C78.0739 43.4684 78.054 43.4446 78.0381 43.4127L77.9187 43.134L77.7317 42.7199L76.3789 39.5625H75.9253L75.6547 40.2593L74.8669 42.1983C74.7157 42.5726 74.6162 42.8155 74.5685 42.9349C74.4292 43.2614 74.3775 43.3649 74.3616 43.3928C74.3377 43.4326 74.3178 43.4605 74.2979 43.4764C74.278 43.4923 74.2542 43.5083 74.2263 43.5162C74.1984 43.5242 74.099 43.5361 73.9398 43.5481H73.9199V43.8387L74.6282 43.8188L75.3444 43.8387V43.5481H75.3245C75.034 43.5361 74.9345 43.5122 74.9027 43.4963C74.8749 43.4804 74.8629 43.4525 74.8629 43.4127C74.8629 43.349 74.9146 43.1778 75.0141 42.9031L75.1414 42.5567H76.6654L76.92 43.2057C76.9638 43.3171 76.9876 43.3968 76.9876 43.4446C76.9876 43.4764 76.9757 43.5003 76.9518 43.5122C76.9359 43.5202 76.8643 43.5361 76.55 43.5521H76.5301V43.8427L77.6084 43.8228L78.4678 43.8427V43.556H78.4479C78.3882 43.5481 78.3445 43.5441 78.3126 43.5401L78.3166 43.5361ZM76.5062 42.1744C76.3351 42.1784 76.1401 42.1824 75.9133 42.1824C75.6865 42.1824 75.4757 42.1824 75.3006 42.1744L75.8935 40.6893L76.5062 42.1744Z" fill="#191919"/>
<path d="M83.8632 43.5121C83.8354 43.5001 83.8035 43.4763 83.7717 43.4404C83.7399 43.4046 83.6444 43.2891 83.4972 43.09C83.4892 43.0781 83.4295 42.9905 83.2942 42.7914L82.8287 42.0946C82.8287 42.0946 82.8048 42.0588 82.7929 42.0389C82.777 42.011 82.7213 41.9314 82.6775 41.8677C82.6178 41.7801 82.5621 41.6925 82.5184 41.6129C82.8208 41.4974 83.0515 41.3381 83.2027 41.1391C83.3539 40.936 83.4335 40.709 83.4335 40.4622C83.4335 40.2551 83.3778 40.072 83.2624 39.9287C83.151 39.7813 83.0117 39.6858 82.8526 39.638C82.6934 39.5902 82.4547 39.5703 82.1404 39.5703C81.9772 39.5703 81.7783 39.5743 81.5236 39.5862C81.3724 39.5942 81.1974 39.5982 80.9825 39.5982C80.7358 39.5982 80.5448 39.5982 80.4095 39.5902C80.131 39.5823 79.9758 39.5743 79.9281 39.5743H79.9082V39.861H79.9281C80.1708 39.8769 80.318 39.8968 80.3618 39.9207C80.3777 39.9287 80.3896 39.9446 80.3976 39.9605C80.4175 40.0083 80.4294 40.1596 80.4334 40.4064L80.4493 41.0435V42.1623L80.4255 43.0423C80.4215 43.1975 80.4095 43.317 80.3936 43.3966C80.3857 43.4484 80.3777 43.4643 80.3737 43.4723C80.3658 43.4842 80.3499 43.4882 80.33 43.4962C80.2902 43.5081 80.1549 43.5201 79.9281 43.528H79.9082V43.8346H79.9281C80.1947 43.8187 80.4851 43.8107 80.7955 43.8107C81.1456 43.8107 81.4958 43.8187 81.838 43.8306H81.8579V43.528H81.838C81.6032 43.524 81.5197 43.5161 81.4918 43.5121C81.456 43.5041 81.4281 43.4962 81.4122 43.4842C81.3963 43.4723 81.3844 43.4603 81.3804 43.4484C81.3685 43.4245 81.3565 43.3688 81.3486 43.2334C81.3446 43.1816 81.3406 42.9626 81.3287 42.5286C81.3247 42.1862 81.3207 41.8637 81.3207 41.5691C81.3207 41.3859 81.3247 41.0236 81.3366 40.4303C81.3406 40.2034 81.3486 40.0401 81.3525 39.9605C81.4401 39.9446 81.5316 39.9406 81.6191 39.9406C81.834 39.9406 81.9812 39.9565 82.0648 39.9844C82.1921 40.0322 82.2995 40.1158 82.3831 40.2352C82.4706 40.3547 82.5104 40.506 82.5104 40.6852C82.5104 40.8643 82.4706 41.0276 82.3871 41.1709C82.3035 41.3143 82.204 41.4138 82.0847 41.4695C81.9653 41.5253 81.7862 41.5492 81.5475 41.5412H81.5316L81.4878 41.6686L81.4998 41.6766C81.5555 41.7204 81.6191 41.7841 81.6828 41.8717C81.8141 42.0508 81.9693 42.2897 82.1523 42.5884L82.7969 43.6514C82.8327 43.7191 82.8566 43.7749 82.8685 43.8187V43.8346H82.8884C83.0436 43.8266 83.2027 43.8227 83.3659 43.8227C83.5091 43.8227 83.7359 43.8227 84.0383 43.8346H84.0582V43.532H84.0383C83.9229 43.532 83.8752 43.5161 83.8553 43.5081L83.8632 43.5121Z" fill="#191919"/>
<path d="M88.4986 42.0254C88.4588 41.9059 88.4111 41.8064 88.3474 41.7267C88.2877 41.6471 88.2042 41.5754 88.1047 41.5157C88.0012 41.456 87.8699 41.4042 87.7068 41.3604C87.6431 41.3445 87.5079 41.3206 87.301 41.2848C87.102 41.249 86.9389 41.2211 86.8155 41.1932C86.6643 41.1534 86.5529 41.1096 86.4734 41.0618C86.3978 41.014 86.3421 40.9543 86.2983 40.8747C86.2585 40.7951 86.2346 40.6875 86.2346 40.5601C86.2346 40.381 86.3062 40.2257 86.4535 40.0903C86.5967 39.9549 86.8076 39.8872 87.0742 39.8872C87.2612 39.8872 87.4323 39.9231 87.5835 39.9868C87.7307 40.0545 87.8341 40.1261 87.8978 40.2098C87.9137 40.3053 87.9217 40.4686 87.9256 40.6955V40.7154H88.2161V40.6955C88.2241 40.4845 88.232 40.3252 88.244 40.2018C88.2559 40.0823 88.2758 39.9549 88.3036 39.8196L88.2758 39.728H88.2678C88.1206 39.6523 87.9455 39.5966 87.7426 39.5568C87.3487 39.4811 86.915 39.4771 86.5171 39.5687C86.3222 39.6125 86.1431 39.6921 85.9879 39.7957C85.8328 39.8992 85.7054 40.0505 85.606 40.2456C85.5105 40.4367 85.4627 40.6517 85.4627 40.8787C85.4627 41.0419 85.4906 41.1932 85.5423 41.3365C85.594 41.4799 85.6776 41.5993 85.785 41.6989C85.8924 41.7984 86.0357 41.878 86.2107 41.9298C86.3261 41.9656 86.5688 42.0214 86.9269 42.097C87.1776 42.1528 87.3527 42.2125 87.4522 42.2643C87.5477 42.316 87.6193 42.3877 87.667 42.4713C87.7108 42.5589 87.7347 42.6664 87.7347 42.7898C87.7347 42.9372 87.7028 43.0685 87.6352 43.184C87.5715 43.2995 87.4641 43.3911 87.3209 43.4548C87.1736 43.5224 87.0065 43.5543 86.8195 43.5543C86.6047 43.5543 86.4057 43.5065 86.2227 43.4149C86.0436 43.3234 85.9163 43.2159 85.8407 43.0964C85.8129 42.8814 85.8049 42.7062 85.8089 42.5629V42.543H85.5144V42.5629C85.5144 43.0247 85.4786 43.3751 85.4189 43.6021V43.618L85.4309 43.626C85.6617 43.7375 85.8765 43.8211 86.0715 43.8649C86.2625 43.9126 86.4893 43.9325 86.736 43.9325C87.0742 43.9325 87.3686 43.8848 87.6113 43.7852C87.7625 43.7255 87.9137 43.6339 88.057 43.5105C88.2002 43.3871 88.3156 43.2517 88.3952 43.1044C88.5026 42.9053 88.5583 42.6744 88.5583 42.4156C88.5583 42.2682 88.5384 42.1329 88.4986 42.0134V42.0254Z" fill="#191919"/>
<path d="M91.6978 33.2962C91.6978 32.6313 92.219 32.0938 92.8636 32.0938C93.5081 32.0938 94.0334 32.6273 94.0334 33.2962C94.0334 33.9651 93.5081 34.4907 92.8636 34.4907C92.219 34.4907 91.6978 33.9571 91.6978 33.2962ZM93.8464 33.2922C93.8464 32.7308 93.4047 32.2809 92.8596 32.2809C92.3145 32.2809 91.8808 32.7308 91.8808 33.2922C91.8808 33.8536 92.3224 34.2996 92.8596 34.2996C93.3967 34.2996 93.8464 33.8496 93.8464 33.2922ZM92.4935 32.7865C92.4935 32.7029 92.4816 32.691 92.398 32.687H92.3463V32.6153H92.8596C92.975 32.6153 93.1222 32.6153 93.2217 32.6711C93.3012 32.7228 93.3609 32.8343 93.3609 32.9259C93.3609 33.125 93.2097 33.2444 93.0347 33.2723C93.1739 33.3002 93.2416 33.4555 93.2933 33.5709C93.3211 33.6267 93.3649 33.7262 93.4007 33.778C93.4286 33.8138 93.4485 33.8297 93.5081 33.8297V33.8974H93.2774C93.2296 33.8855 93.2058 33.8855 93.1739 33.8457C93.0983 33.7581 92.9989 33.4355 92.9352 33.3639C92.8874 33.3121 92.8317 33.3161 92.7721 33.3161H92.7203V33.7262C92.7203 33.7979 92.7323 33.8257 92.8079 33.8257H92.8675V33.8974H92.3423V33.8297H92.3901C92.4657 33.8218 92.4895 33.8297 92.4895 33.7381V32.7786L92.4935 32.7865ZM92.7243 33.2365H92.788C92.979 33.2365 93.1222 33.1847 93.1222 32.9617C93.1222 32.7786 93.0227 32.691 92.8516 32.691L92.78 32.699C92.7124 32.699 92.7243 32.7786 92.7243 32.8224V33.2365Z" fill="#191919"/>
</g>
<defs>
<clipPath id="clip0_2337_404">
<rect width="95" height="45" fill="white"/>
</clipPath>
</defs>
</svg>
