<svg width="150" height="150" viewBox="0 0 150 150" fill="none" xmlns="http://www.w3.org/2000/svg">
<g clip-path="url(#clip0_3199_2001)">
<path d="M51.6528 16.9339C50.6611 17.3469 49.752 17.5121 49.0082 17.5121C48.2644 17.5121 47.5206 17.3469 47.0247 16.9339C46.4462 16.6035 46.1156 16.1905 45.8677 15.6949C45.8677 15.6123 45.8677 15.5297 45.8677 15.4471C45.8677 15.3645 45.9503 15.2819 46.033 15.2819L47.4379 14.7037C47.6032 14.6211 47.6859 14.6211 47.7685 14.7037C47.8512 14.7037 47.9338 14.7863 48.0165 14.8689C48.1817 15.0341 48.347 15.1993 48.595 15.2819C48.8429 15.4471 49.1735 15.4471 49.5041 15.4471C49.8346 15.4471 50.3305 15.3645 50.7437 15.1167C51.4875 14.7863 52.066 14.4559 52.314 14.0429C52.5619 13.6299 52.6446 13.2169 52.4793 12.8039C52.314 12.4736 52.1487 12.3084 51.9007 12.1432C51.6528 12.0606 51.2396 11.978 50.7437 11.978C50.2479 11.978 49.6693 12.0606 48.8429 12.1432C47.9338 12.3084 47.19 12.3084 46.5288 12.2258C45.8677 12.1432 45.2892 11.978 44.876 11.6476C44.4627 11.3172 44.0495 10.9042 43.8016 10.2434C43.5536 9.58258 43.471 9.00439 43.6363 8.3436C43.8016 7.7654 44.1322 7.18721 44.628 6.60901C45.1239 6.11342 45.8677 5.61782 46.6941 5.28743C47.5206 5.12223 48.1817 4.95703 48.8429 4.95703C49.4214 4.95703 49.9999 4.95703 50.4958 5.12223C50.9917 5.28743 51.4049 5.53523 51.7355 5.78302C52.066 6.03082 52.314 6.36122 52.4793 6.69161C52.4793 6.77421 52.4793 6.85681 52.4793 6.93941C52.4793 7.02201 52.3966 7.10461 52.2313 7.10461L50.7437 7.6828C50.6611 7.6828 50.5784 7.7654 50.4958 7.6828C50.4131 7.6828 50.3305 7.6002 50.1652 7.5176C49.9999 7.18721 49.6693 7.02201 49.1735 6.93941C48.7603 6.85681 48.1817 6.93941 47.6859 7.10461C47.1074 7.35241 46.6941 7.6002 46.4462 8.0132C46.1983 8.42619 46.1156 8.75659 46.2809 9.25218C46.3636 9.58258 46.6115 9.74778 46.8594 9.91298C47.1074 10.0782 47.4379 10.0782 47.9338 10.0782C48.347 10.0782 49.0082 9.99558 49.6693 9.91298C50.6611 9.74778 51.4875 9.66518 52.2313 9.74778C52.8925 9.74778 53.471 9.91298 53.8842 10.2434C54.2974 10.5738 54.628 10.9868 54.9586 11.6476C55.2065 12.391 55.2892 13.0517 55.1239 13.7125C54.9586 14.3733 54.5454 14.9515 53.9669 15.5297C53.3057 16.1079 52.5619 16.6035 51.6528 16.9339Z" fill="#6E6E6E"/>
<path d="M58.3472 14.3732C58.2645 14.3732 58.0992 14.3732 58.0166 14.2906C57.9339 14.2906 57.8513 14.208 57.8513 14.0428L55.4546 3.05717C55.4546 2.89197 55.4546 2.80937 55.5372 2.72677C55.6199 2.64417 55.7025 2.56157 55.7852 2.56157L63.2232 0.992188C63.3885 0.992188 63.4711 0.992187 63.5538 1.07479C63.6364 1.15739 63.7191 1.23998 63.7191 1.32258L63.967 2.47897C63.967 2.56157 63.967 2.72677 63.8843 2.80937C63.8017 2.89197 63.8017 2.80937 63.6364 2.89197L58.0166 4.04835L58.6777 7.10452L63.8843 6.03073C64.0496 6.03073 64.1323 6.03073 64.2149 6.11333C64.2976 6.19593 64.3802 6.27853 64.3802 6.36113L64.6281 7.43492C64.6281 7.60012 64.6281 7.68272 64.5455 7.76531C64.4629 7.84791 64.3802 7.93051 64.2976 7.93051L59.091 9.0043L59.7521 12.1431L65.4546 10.9041C65.6199 10.9041 65.7025 10.9041 65.7852 10.9867C65.8678 11.0693 65.9505 11.1519 65.9505 11.2345L66.1984 12.3909C66.1984 12.4735 66.1984 12.6387 66.1157 12.7213C66.0331 12.8039 65.9505 12.8865 65.8678 12.8865L58.3472 14.3732Z" fill="#6E6E6E"/>
<path d="M68.7602 12.4725C68.6775 12.4725 68.5122 12.4725 68.4296 12.3899C68.3469 12.3073 68.2643 12.2247 68.2643 12.0595L67.8511 0.743392C67.8511 0.578194 67.8511 0.495595 67.9337 0.412996C68.0164 0.330396 68.099 0.247797 68.2643 0.247797L75.8676 0C76.0329 0 76.1155 0 76.1982 0.0825991C76.2808 0.165198 76.3635 0.247797 76.3635 0.412996L76.4461 1.56938C76.4461 1.65198 76.4461 1.81718 76.3635 1.89978C76.2808 1.98238 76.1982 2.06498 76.0329 2.06498L70.2478 2.23018L70.4131 5.28634L75.7023 5.03855C75.8676 5.03855 75.9502 5.03855 76.0329 5.12115C76.1155 5.20374 76.1982 5.28634 76.1982 5.45154L76.2808 6.52533C76.2808 6.69053 76.2808 6.77313 76.1982 6.85573C76.1155 6.93833 76.0329 6.93833 75.8676 7.02093L70.5783 7.26872L70.7436 10.4075L76.6114 10.1597C76.7767 10.1597 76.8593 10.1597 76.942 10.2423C77.0246 10.3249 77.1073 10.4075 77.1073 10.5727L77.1899 11.7291C77.1899 11.8117 77.1899 11.9769 77.1073 12.0595C77.0246 12.1421 76.942 12.2247 76.7767 12.2247L68.7602 12.4725Z" fill="#6E6E6E"/>
<path d="M91.6528 14.6186C90.661 14.3708 89.8346 13.9578 89.2561 13.4623C88.6776 12.9667 88.1817 12.3059 88.0164 11.4799C87.7685 10.6539 87.8511 9.74529 88.099 8.7541C88.1817 8.25851 88.347 7.76291 88.5123 7.34992C88.6776 6.85432 88.7602 6.44133 88.9255 5.94573C89.2561 4.95454 89.6693 4.12855 90.3305 3.55036C90.909 2.97217 91.6528 2.64177 92.4792 2.47657C93.3057 2.31137 94.2147 2.39397 95.1238 2.64177C96.1156 2.88957 96.8594 3.30256 97.5205 3.88076C98.1817 4.45895 98.5949 5.11974 98.8428 5.86313C99.0908 6.68913 99.0908 7.59772 98.8428 8.5889C98.7602 9.0845 98.5949 9.58009 98.5123 10.0757C98.347 10.5713 98.2643 10.9843 98.099 11.4799C97.7685 12.4711 97.3552 13.2971 96.7767 13.8752C96.1982 14.4534 95.4544 14.7838 94.7106 14.949C93.5536 14.949 92.6445 14.949 91.6528 14.6186ZM92.1486 12.7189C92.8924 12.8841 93.5536 12.8841 94.1321 12.5537C94.7106 12.2233 95.1238 11.6451 95.4544 10.6539C95.6197 10.1583 95.785 9.74529 95.8676 9.3323C95.9503 8.9193 96.1156 8.42371 96.1982 8.01071C96.3635 7.34992 96.3635 6.77172 96.2809 6.35873C96.1982 5.94573 95.9503 5.53274 95.6197 5.20234C95.2891 4.95454 94.8759 4.70675 94.4627 4.54155C93.9668 4.37635 93.5536 4.37635 93.1404 4.45895C92.7271 4.54155 92.3139 4.78935 91.9833 5.11974C91.6528 5.45014 91.4048 5.94573 91.1569 6.60653C90.9916 7.10212 90.909 7.51512 90.7437 7.92811C90.661 8.34111 90.4957 8.8367 90.4131 9.3323C90.1652 10.3235 90.2478 11.0669 90.5784 11.6451C90.909 12.1407 91.4875 12.5537 92.1486 12.7189Z" fill="#6E6E6E"/>
<path d="M102.81 18.9145C101.901 18.5015 101.239 17.9233 100.661 17.2625C100.165 16.6017 99.8345 15.9409 99.8345 15.1149C99.7519 14.289 99.9998 13.3804 100.496 12.3892L103.636 6.02905C103.719 5.94645 103.801 5.86385 103.884 5.78125C103.967 5.78125 104.132 5.78125 104.215 5.78125L105.62 6.44204C105.702 6.52464 105.785 6.60724 105.868 6.68984C105.868 6.77244 105.868 6.93764 105.868 7.02024L102.727 13.3804C102.314 14.2064 102.231 14.9498 102.396 15.5279C102.562 16.1061 103.058 16.6017 103.719 16.9321C104.463 17.2625 105.041 17.3451 105.702 17.0973C106.281 16.8495 106.777 16.3539 107.273 15.5279L110.413 9.16781C110.496 9.08521 110.578 9.00262 110.661 8.92002C110.744 8.92002 110.909 8.92002 110.992 8.92002L112.396 9.58081C112.479 9.66341 112.562 9.74601 112.644 9.82861C112.644 9.91121 112.644 10.0764 112.644 10.159L109.504 16.5191C109.008 17.5103 108.43 18.2537 107.768 18.6667C107.107 19.1623 106.363 19.3275 105.537 19.3275C104.628 19.5753 103.719 19.3275 102.81 18.9145Z" fill="#6E6E6E"/>
<path d="M109.669 22.4654C109.587 22.3828 109.504 22.3002 109.504 22.2176C109.504 22.135 109.504 21.9699 109.587 21.8873L116.446 12.8839C116.529 12.8013 116.611 12.7188 116.694 12.7188C116.777 12.7188 116.942 12.7188 117.025 12.8013L120.578 15.5271C121.735 16.3531 122.396 17.2617 122.644 18.3355C122.892 19.3267 122.644 20.3179 121.901 21.3091C121.405 21.9698 120.826 22.4654 120.082 22.6306C119.421 22.7958 118.677 22.7958 118.016 22.6306L117.355 27.6692C117.355 27.7518 117.355 27.8344 117.272 27.8344C117.19 27.917 117.107 27.9996 117.025 27.9996C116.942 27.9996 116.859 27.9996 116.777 27.917L115.537 26.9258C115.372 26.8432 115.289 26.678 115.289 26.5128C115.289 26.3476 115.289 26.265 115.289 26.0998L115.95 21.4743L114.049 19.9875L111.57 23.2914C111.487 23.374 111.405 23.4566 111.322 23.4566C111.239 23.4566 111.074 23.4566 110.992 23.374L109.669 22.4654ZM115.206 18.5007L117.19 19.9875C117.768 20.4005 118.264 20.5657 118.76 20.5657C119.256 20.4831 119.669 20.2353 120 19.8223C120.33 19.4093 120.496 18.9137 120.413 18.4181C120.33 17.9225 120 17.5095 119.421 17.0965L117.438 15.6097L115.206 18.5007Z" fill="#6E6E6E"/>
<path d="M126.281 38.9877C125.62 38.0792 125.289 37.2532 125.124 36.5098C124.959 35.7664 124.959 35.023 125.207 34.4448C125.372 33.8666 125.702 33.371 126.198 33.0406C126.281 32.958 126.364 32.958 126.446 32.958C126.529 32.958 126.612 33.0406 126.694 33.1232L127.603 34.3622C127.686 34.4448 127.769 34.61 127.686 34.6926C127.686 34.7752 127.686 34.8578 127.603 35.023C127.438 35.1882 127.355 35.436 127.273 35.6838C127.19 35.9316 127.19 36.262 127.273 36.675C127.355 37.0054 127.521 37.4184 127.851 37.8314C128.347 38.4922 128.843 38.9052 129.256 39.1529C129.752 39.3181 130.165 39.3181 130.496 38.9877C130.744 38.8226 130.909 38.5748 130.992 38.2444C130.992 37.914 130.992 37.5836 130.826 37.088C130.661 36.5924 130.496 36.0142 130.248 35.2708C129.917 34.4448 129.669 33.7014 129.587 33.0406C129.504 32.3798 129.504 31.8016 129.752 31.306C130 30.8104 130.331 30.3148 130.909 29.9844C131.488 29.5714 132.066 29.4062 132.645 29.4062C133.306 29.4062 133.884 29.5714 134.545 29.9844C135.207 30.3974 135.785 30.9756 136.281 31.719C136.694 32.2972 137.025 32.958 137.19 33.5362C137.355 34.1144 137.438 34.6926 137.355 35.1882C137.273 35.6838 137.19 36.0968 137.025 36.5098C136.86 36.9228 136.612 37.1706 136.281 37.4184C136.198 37.501 136.116 37.501 136.033 37.501C135.95 37.501 135.868 37.4184 135.785 37.3358L134.876 36.0142C134.793 35.9316 134.793 35.849 134.793 35.7664C134.793 35.6838 134.793 35.5186 134.876 35.436C135.124 35.1882 135.289 34.7752 135.207 34.3622C135.124 33.9492 135.041 33.4536 134.628 32.958C134.298 32.4624 133.884 32.132 133.471 31.8842C133.058 31.6364 132.645 31.719 132.231 32.0494C131.983 32.2146 131.818 32.4624 131.736 32.7102C131.653 32.958 131.653 33.371 131.818 33.784C131.901 34.197 132.149 34.7752 132.397 35.436C132.81 36.3446 133.058 37.1706 133.141 37.8314C133.223 38.4922 133.223 39.0703 133.058 39.5659C132.893 40.0615 132.479 40.4745 131.901 40.8875C131.24 41.3005 130.661 41.5483 129.917 41.5483C129.174 41.5483 128.595 41.3005 127.934 40.8875C127.438 40.3919 126.86 39.8137 126.281 38.9877Z" fill="#6E6E6E"/>
<path d="M130.331 44.9348C130.248 44.8522 130.248 44.687 130.331 44.6044C130.413 44.5218 130.413 44.4392 130.578 44.3566L140.826 39.5659C140.909 39.4833 141.074 39.4833 141.157 39.5659C141.24 39.5659 141.322 39.6485 141.405 39.8137L144.711 46.752C144.793 46.8346 144.793 46.9998 144.711 47.0824C144.711 47.165 144.628 47.2476 144.463 47.3302L143.388 47.8258C143.306 47.9084 143.14 47.9084 143.058 47.8258C142.975 47.8258 142.893 47.7432 142.81 47.578L140.331 42.4568L137.521 43.7784L139.835 48.5692C139.917 48.6518 139.917 48.817 139.835 48.8996C139.835 48.9822 139.752 49.0648 139.587 49.1474L138.595 49.6429C138.512 49.7255 138.347 49.7255 138.264 49.6429C138.182 49.6429 138.099 49.5603 138.016 49.3951L135.702 44.6044L132.81 45.926L135.289 51.2123C135.372 51.2949 135.372 51.4601 135.289 51.5427C135.289 51.6253 135.207 51.7079 135.041 51.7905L133.967 52.2861C133.884 52.3687 133.719 52.3687 133.636 52.2861C133.554 52.2861 133.471 52.2035 133.388 52.0383L130.331 44.9348Z" fill="#6E6E6E"/>
<path d="M135.537 58.6443C135.289 57.5705 135.207 56.6619 135.372 55.8359C135.537 55.0099 135.951 54.3491 136.447 53.7709C137.025 53.1927 137.769 52.7797 138.678 52.4493C139.091 52.2841 139.587 52.2015 140.166 52.0363C140.661 51.8711 141.157 51.7885 141.653 51.6233C142.562 51.3756 143.471 51.3756 144.298 51.6233C145.124 51.7885 145.785 52.2015 146.281 52.8623C146.777 53.5231 147.273 54.3491 147.521 55.3403C147.686 56.0837 147.851 56.8271 147.769 57.4879C147.686 58.1487 147.604 58.7269 147.356 59.2225C147.108 59.7181 146.777 60.2137 146.364 60.5441C145.951 60.8745 145.455 61.2048 144.959 61.2874C144.876 61.2874 144.794 61.2874 144.711 61.2874C144.628 61.2048 144.546 61.1222 144.546 61.0396L144.132 59.4703C144.132 59.3877 144.132 59.2225 144.132 59.1399C144.132 59.0573 144.298 58.9747 144.38 58.8921C145.042 58.4791 145.455 58.0661 145.62 57.5705C145.785 57.0749 145.785 56.4967 145.62 55.8359C145.455 55.0925 145.042 54.5143 144.546 54.1839C143.967 53.8535 143.223 53.7709 142.314 54.0187C141.405 54.2665 140.413 54.5143 139.504 54.7621C138.595 55.0099 137.934 55.5055 137.604 56.0837C137.273 56.6619 137.273 57.3227 137.438 58.0661C137.604 58.7269 137.934 59.2225 138.265 59.5529C138.678 59.8833 139.256 60.0485 140 60.0485C140.166 60.0485 140.248 60.0485 140.331 60.1311C140.413 60.2137 140.496 60.2963 140.496 60.3789L140.909 61.9482C140.909 62.0308 140.909 62.1134 140.909 62.196C140.827 62.2786 140.827 62.3612 140.661 62.3612C140.083 62.5264 139.587 62.5264 139.008 62.4438C138.43 62.3612 138.017 62.1134 137.521 61.783C137.025 61.4526 136.612 61.0396 136.281 60.4615C136.033 60.1311 135.703 59.4703 135.537 58.6443Z" fill="#6E6E6E"/>
<path d="M137.356 65.83C137.356 65.7474 137.356 65.5822 137.438 65.4996C137.521 65.417 137.604 65.3344 137.686 65.3344L148.926 64.4258C149.091 64.4258 149.174 64.4258 149.256 64.5084C149.339 64.591 149.422 64.6736 149.422 64.7562L149.752 69.2165C149.835 70.6207 149.67 71.7771 149.008 72.6031C148.43 73.4291 147.521 73.9247 146.281 74.0073C145.455 74.0899 144.711 73.9247 144.132 73.5117C143.554 73.0987 143.058 72.6031 142.727 71.9423L138.513 74.8333C138.43 74.8333 138.347 74.9159 138.347 74.9159C138.265 74.9159 138.182 74.9159 138.099 74.8333C138.017 74.7507 138.017 74.6681 137.934 74.5855L137.769 73.0161C137.769 72.8509 137.769 72.6857 137.851 72.5205C137.934 72.4379 138.017 72.3553 138.182 72.2727L142.066 69.7121L141.901 67.3168L137.769 67.6471C137.686 67.6471 137.521 67.6471 137.438 67.5646C137.356 67.482 137.273 67.3994 137.273 67.2342L137.356 65.83ZM143.967 67.3168L144.132 69.7947C144.215 70.5381 144.38 71.0337 144.711 71.3641C145.042 71.6945 145.537 71.8597 146.116 71.7771C146.694 71.6945 147.108 71.5293 147.438 71.1163C147.769 70.7859 147.851 70.2077 147.769 69.4643L147.604 66.9864L143.967 67.3168Z" fill="#6E6E6E"/>
<path d="M137.934 77.3968C137.934 77.3142 138.017 77.149 138.099 77.149C138.182 77.0664 138.264 77.0664 138.43 77.0664L149.669 78.1402C149.835 78.1402 149.917 78.2228 150 78.3054C150.083 78.388 150.083 78.4706 150.083 78.6358L149.339 86.2349C149.339 86.4001 149.256 86.4827 149.174 86.5653C149.091 86.6479 149.008 86.6479 148.843 86.6479L147.686 86.5653C147.603 86.5653 147.438 86.4827 147.438 86.4001C147.355 86.3175 147.355 86.2349 147.355 86.0697L147.851 80.3704L144.793 80.1226L144.298 85.4089C144.298 85.5741 144.215 85.6567 144.132 85.7393C144.05 85.8219 143.967 85.8219 143.802 85.8219L142.727 85.7393C142.562 85.7393 142.479 85.6567 142.397 85.5741C142.314 85.4915 142.314 85.4089 142.314 85.2437L142.81 79.9574L139.669 79.627L139.091 85.4089C139.091 85.5741 139.008 85.6567 138.926 85.7393C138.843 85.8219 138.76 85.8219 138.595 85.8219L137.438 85.7393C137.355 85.7393 137.19 85.6567 137.19 85.5741C137.107 85.4915 137.107 85.4089 137.107 85.2437L137.934 77.3968Z" fill="#6E6E6E"/>
<path d="M135.95 90.5269C135.95 90.4443 136.033 90.3617 136.116 90.2791C136.198 90.1965 136.281 90.1965 136.446 90.2791L145.702 92.7571L146.529 89.6183C146.529 89.5357 146.611 89.4531 146.694 89.3705C146.777 89.2879 146.859 89.2879 147.025 89.3705L148.264 89.7009C148.347 89.7009 148.512 89.7835 148.512 89.8661C148.595 89.9487 148.595 90.0313 148.512 90.1965L146.198 98.7042C146.198 98.7868 146.116 98.952 146.033 98.952C145.95 98.952 145.785 99.0346 145.702 98.952L144.463 98.6216C144.38 98.6216 144.297 98.539 144.215 98.4564C144.132 98.3738 144.132 98.2087 144.215 98.1261L145.041 95.0699L135.785 92.5919C135.702 92.5919 135.62 92.5093 135.537 92.4267C135.454 92.3441 135.454 92.1789 135.537 92.0963L135.95 90.5269Z" fill="#6E6E6E"/>
<path d="M130.248 105.068C130.33 104.985 130.413 104.902 130.496 104.902C130.578 104.902 130.744 104.902 130.826 104.902L140.661 110.436C140.744 110.519 140.826 110.602 140.826 110.684C140.826 110.767 140.826 110.932 140.826 111.015L140 112.419C139.917 112.501 139.835 112.584 139.752 112.584C139.669 112.584 139.504 112.584 139.421 112.501L129.587 106.967C129.504 106.885 129.421 106.802 129.421 106.72C129.421 106.637 129.421 106.472 129.504 106.389L130.248 105.068Z" fill="#6E6E6E"/>
<path d="M127.686 109.525C127.769 109.442 127.851 109.359 127.934 109.359C128.017 109.359 128.182 109.359 128.265 109.442L137.273 116.298C137.355 116.38 137.438 116.463 137.438 116.546C137.438 116.628 137.438 116.793 137.355 116.876L136.529 117.95C136.446 118.115 136.364 118.115 136.198 118.197C136.116 118.197 136.033 118.197 135.95 118.197L126.777 117.454L132.81 122.08C132.893 122.162 132.975 122.245 132.975 122.327C132.975 122.41 132.975 122.575 132.893 122.658L131.984 123.814C131.901 123.897 131.818 123.979 131.736 123.979C131.653 123.979 131.488 123.979 131.405 123.897L122.397 117.041C122.314 116.958 122.231 116.876 122.231 116.793C122.231 116.711 122.231 116.546 122.314 116.463L123.141 115.389C123.223 115.224 123.306 115.224 123.471 115.224C123.554 115.224 123.636 115.224 123.719 115.224L132.81 115.885L126.86 111.342C126.777 111.259 126.694 111.177 126.694 111.094C126.694 111.011 126.694 110.846 126.777 110.764L127.686 109.525Z" fill="#6E6E6E"/>
<path d="M116.86 121.668C117.686 120.925 118.43 120.512 119.256 120.264C120.083 120.016 120.827 120.016 121.653 120.264C122.479 120.512 123.141 121.007 123.802 121.668C124.132 121.999 124.463 122.412 124.876 122.825C125.289 123.238 125.62 123.651 125.95 124.064C126.529 124.807 126.942 125.55 127.108 126.376C127.273 127.12 127.19 127.946 126.86 128.689C126.529 129.432 126.033 130.176 125.207 130.919C124.546 131.497 123.967 131.91 123.306 132.158C122.645 132.406 122.066 132.571 121.57 132.571C120.992 132.571 120.496 132.489 120.083 132.323C119.669 132.158 119.339 131.993 119.091 131.745C119.008 131.663 119.008 131.58 119.008 131.497C119.008 131.415 119.091 131.332 119.174 131.25L120.496 130.093C120.579 130.011 120.661 130.011 120.744 130.011C120.827 130.011 120.909 130.011 120.992 130.093C121.24 130.176 121.488 130.258 121.818 130.341C122.149 130.424 122.479 130.341 122.81 130.258C123.141 130.176 123.554 129.928 123.967 129.598C124.546 129.102 124.876 128.524 124.959 127.863C125.041 127.202 124.793 126.542 124.132 125.798C123.471 125.055 122.81 124.229 122.066 123.485C121.405 122.742 120.744 122.412 120.083 122.412C119.422 122.412 118.843 122.659 118.265 123.238C117.851 123.568 117.603 123.981 117.438 124.394C117.273 124.807 117.19 125.22 117.273 125.716C117.355 126.211 117.603 126.624 118.017 127.037L118.347 127.45L119.917 126.046C120 125.963 120.083 125.963 120.248 125.963C120.331 125.963 120.496 126.046 120.579 126.129L121.157 126.789C121.24 126.872 121.322 126.954 121.24 127.12C121.24 127.202 121.157 127.367 121.074 127.367L118.017 130.176C117.934 130.258 117.851 130.258 117.686 130.258C117.603 130.258 117.438 130.176 117.355 130.093L116.116 128.772C115.455 128.028 115.041 127.285 114.876 126.459C114.711 125.633 114.793 124.807 115.124 124.064C115.455 123.072 116.033 122.329 116.86 121.668Z" fill="#6E6E6E"/>
<path d="M111.075 126.626C111.157 126.543 111.24 126.543 111.405 126.543C111.57 126.543 111.57 126.626 111.653 126.708L117.521 136.372C117.604 136.455 117.604 136.62 117.604 136.703C117.604 136.785 117.521 136.868 117.438 136.95L113.554 139.263C112.397 140.007 111.24 140.254 110.248 140.172C109.256 140.007 108.347 139.428 107.769 138.355C107.356 137.611 107.108 136.868 107.19 136.207C107.273 135.464 107.521 134.885 108.017 134.307L103.554 131.829C103.471 131.747 103.471 131.747 103.389 131.664C103.306 131.582 103.306 131.499 103.389 131.416C103.389 131.334 103.471 131.251 103.554 131.169L104.876 130.343C105.042 130.26 105.207 130.177 105.372 130.26C105.537 130.26 105.62 130.343 105.703 130.425L109.752 132.821L111.818 131.582L109.67 128.03C109.587 127.947 109.587 127.865 109.587 127.699C109.587 127.534 109.67 127.534 109.752 127.452L111.075 126.626ZM112.727 133.234L110.661 134.472C110.083 134.803 109.67 135.216 109.587 135.711C109.504 136.207 109.504 136.62 109.835 137.116C110.165 137.611 110.496 137.942 110.992 138.024C111.488 138.107 111.984 138.024 112.645 137.611L114.711 136.372L112.727 133.234Z" fill="#6E6E6E"/>
<path d="M101.075 132.322C101.157 132.239 101.322 132.322 101.405 132.322C101.488 132.404 101.57 132.404 101.653 132.57L105.703 143.142C105.785 143.225 105.785 143.39 105.703 143.473C105.62 143.555 105.62 143.638 105.455 143.721L98.3472 146.446C98.2646 146.529 98.0993 146.529 98.0166 146.446C97.934 146.364 97.8514 146.281 97.7687 146.199L97.3555 145.125C97.2728 145.042 97.3555 144.877 97.3555 144.794C97.4381 144.712 97.5208 144.629 97.6034 144.547L102.893 142.482L101.818 139.591L96.8596 141.49C96.777 141.573 96.6117 141.573 96.529 141.49C96.4464 141.408 96.3638 141.408 96.2811 141.243L95.8679 140.251C95.7852 140.169 95.7852 140.004 95.8679 139.921C95.9505 139.838 96.0332 139.756 96.1158 139.673L101.075 137.773L99.9175 134.8L94.4629 136.865C94.3803 136.947 94.215 136.947 94.1324 136.865C94.0497 136.782 93.9671 136.7 93.8844 136.617L93.4712 135.543C93.4712 135.461 93.4712 135.295 93.4712 135.213C93.5538 135.13 93.6365 135.048 93.7191 134.965L101.075 132.322Z" fill="#6E6E6E"/>
<path d="M91.0742 135.875C91.1569 135.875 91.3222 135.875 91.4048 135.958C91.4875 136.04 91.5701 136.123 91.5701 136.205L93.6362 147.274C93.6362 147.439 93.6362 147.521 93.5536 147.604C93.4709 147.687 93.3883 147.769 93.3057 147.769L89.1734 148.595C88.0164 148.843 87.0247 148.843 86.1982 148.595C85.3718 148.347 84.7106 147.934 84.2147 147.356C83.7189 146.695 83.3883 145.952 83.1404 144.961C83.0577 144.465 82.8924 144.052 82.8924 143.639C82.8924 143.226 82.7271 142.813 82.6445 142.318C82.4792 141.244 82.4792 140.335 82.7271 139.592C82.9751 138.849 83.3883 138.188 84.0494 137.775C84.7106 137.279 85.6197 136.949 86.7767 136.701L91.0742 135.875ZM89.4214 138.188L87.1899 138.601C86.5288 138.683 86.0329 138.931 85.7023 139.179C85.3718 139.427 85.1238 139.757 84.9585 140.253C84.7933 140.748 84.8759 141.244 84.9585 141.905C85.0412 142.235 85.0412 142.566 85.1238 142.813C85.2065 143.061 85.2065 143.309 85.2891 143.557C85.3718 143.805 85.3718 144.135 85.4544 144.465C85.6197 145.374 86.0329 146.035 86.5288 146.365C87.0247 146.695 87.7685 146.778 88.7602 146.613L90.909 146.2L89.4214 138.188Z" fill="#6E6E6E"/>
<path d="M79.0909 137.691C79.1735 137.691 79.3388 137.691 79.4215 137.774C79.5041 137.857 79.5868 137.939 79.5868 138.022L80.1653 149.338C80.1653 149.42 80.1653 149.586 80.0826 149.668C80 149.751 79.9173 149.833 79.8347 149.833L78.1818 149.916C78.0165 149.916 77.9339 149.916 77.8512 149.833C77.7686 149.751 77.7686 149.668 77.6859 149.503L77.1074 138.187C77.1074 138.104 77.1074 137.939 77.1901 137.857C77.2727 137.774 77.3554 137.691 77.5206 137.691H79.0909Z" fill="#6E6E6E"/>
<path d="M73.8842 137.859C73.9669 137.859 74.1322 137.942 74.1322 138.025C74.2148 138.107 74.2148 138.19 74.2148 138.355L73.3884 149.589C73.3884 149.754 73.3057 149.836 73.2231 149.919C73.1404 150.002 73.0578 150.002 72.8925 150.002L65.2892 149.423C65.1239 149.423 65.0413 149.341 64.9586 149.258C64.876 149.176 64.876 149.093 64.876 148.928L64.9586 147.771C64.9586 147.689 65.0413 147.524 65.1239 147.524C65.2066 147.441 65.2892 147.441 65.4545 147.441L71.157 147.854L71.4049 144.798L66.1156 144.385C65.9504 144.385 65.8677 144.302 65.7851 144.22C65.7024 144.137 65.7024 144.054 65.7024 143.889L65.7851 142.815C65.7851 142.65 65.8677 142.568 65.9504 142.485C66.033 142.402 66.1156 142.402 66.2809 142.402L71.5702 142.815L71.8181 139.677L65.9504 139.264C65.7851 139.264 65.7024 139.181 65.6198 139.098C65.5371 139.016 65.5371 138.933 65.5371 138.768L65.6198 137.612C65.6198 137.529 65.7024 137.364 65.7851 137.364C65.8677 137.281 65.9504 137.281 66.1156 137.281L73.8842 137.859Z" fill="#6E6E6E"/>
<path d="M63.3058 136.866C63.3885 136.866 63.4711 136.949 63.5538 137.032C63.6364 137.114 63.6364 137.197 63.6364 137.362L60.7438 148.265C60.7438 148.348 60.6612 148.513 60.5786 148.513C60.4959 148.513 60.4133 148.595 60.248 148.595L58.9257 148.265C58.7604 148.265 58.6777 148.182 58.5951 148.1C58.5124 148.017 58.5124 147.935 58.5124 147.935L55.6199 139.179L53.719 146.53C53.719 146.613 53.6364 146.778 53.5538 146.778C53.4711 146.861 53.3885 146.861 53.2232 146.778L51.8182 146.448C51.7356 146.448 51.5703 146.365 51.5703 146.283C51.4876 146.2 51.4876 146.035 51.5703 145.952L54.4628 135.049C54.4628 134.967 54.5455 134.801 54.6281 134.801C54.7108 134.719 54.7934 134.719 54.9587 134.719L56.281 135.049C56.4463 135.049 56.529 135.132 56.6116 135.214C56.6942 135.297 56.6942 135.38 56.6942 135.38L59.5868 143.97L61.4876 136.784C61.4876 136.701 61.5703 136.619 61.6529 136.536C61.7356 136.453 61.9009 136.453 61.9835 136.536L63.3058 136.866Z" fill="#6E6E6E"/>
<path d="M49.3386 132.325C49.4213 132.408 49.5039 132.491 49.5866 132.573C49.5866 132.656 49.5866 132.821 49.5866 132.904L45.4543 141.577L48.3469 142.898C48.4295 142.981 48.5122 143.063 48.5948 143.146C48.5948 143.229 48.5948 143.394 48.5948 143.476L48.0163 144.633C47.9337 144.715 47.851 144.798 47.7684 144.88C47.6857 144.88 47.5204 144.88 47.4378 144.88L39.4213 141.164C39.3386 141.081 39.256 140.998 39.1733 140.916C39.1733 140.833 39.1733 140.668 39.1733 140.585L39.7518 139.429C39.8345 139.346 39.9171 139.264 39.9998 139.181C40.0824 139.181 40.2477 139.181 40.3304 139.181L43.2229 140.503L47.2725 131.83C47.3552 131.747 47.4378 131.665 47.5204 131.582C47.6031 131.582 47.7684 131.582 47.851 131.582L49.3386 132.325Z" fill="#6E6E6E"/>
<path d="M39.5042 126.541C40.4133 127.119 41.0745 127.78 41.4877 128.441C41.9009 129.101 42.1488 129.762 42.1488 130.423C42.1488 131.084 41.9835 131.579 41.7356 132.075C41.653 132.158 41.5703 132.24 41.4877 132.24C41.405 132.24 41.3224 132.24 41.2397 132.158L40.0001 131.249C39.9174 131.166 39.8348 131.084 39.7521 131.001C39.7521 130.919 39.7521 130.836 39.7521 130.671C39.8348 130.423 39.8348 130.175 39.8348 129.927C39.8348 129.68 39.6695 129.349 39.5042 129.019C39.3389 128.688 39.0083 128.441 38.5951 128.11C37.934 127.615 37.3554 127.367 36.8596 127.367C36.3637 127.367 35.9505 127.532 35.7026 127.945C35.5373 128.193 35.4546 128.523 35.5373 128.771C35.6199 129.019 35.7852 129.432 36.0331 129.845C36.2811 130.258 36.6943 130.753 37.1902 131.332C37.7687 131.992 38.2645 132.653 38.5125 133.231C38.843 133.81 39.0083 134.388 38.9257 134.883C38.843 135.379 38.6778 135.957 38.3472 136.535C37.934 137.114 37.4381 137.444 36.8596 137.692C36.2811 137.94 35.6199 137.94 34.8761 137.857C34.1323 137.774 33.3885 137.361 32.6447 136.866C32.0662 136.453 31.5703 135.957 31.1571 135.462C30.8265 134.966 30.5786 134.47 30.4133 133.975C30.248 133.479 30.248 133.066 30.3307 132.571C30.4133 132.075 30.4959 131.745 30.6612 131.497C30.7439 131.414 30.8265 131.332 30.9092 131.332C30.9918 131.332 31.0745 131.332 31.1571 131.414L32.4794 132.323C32.5621 132.405 32.6447 132.488 32.6447 132.571C32.7273 132.653 32.7273 132.736 32.6447 132.901C32.4794 133.231 32.4794 133.644 32.6447 134.057C32.81 134.47 33.1406 134.883 33.6364 135.214C34.1323 135.544 34.6282 135.792 35.0414 135.792C35.4546 135.792 35.8678 135.627 36.1158 135.214C36.2811 134.966 36.3637 134.636 36.3637 134.388C36.3637 134.14 36.1984 133.81 35.9505 133.397C35.7026 132.984 35.372 132.571 34.8761 131.992C34.215 131.249 33.6364 130.588 33.3059 130.01C32.9753 129.432 32.81 128.854 32.81 128.358C32.81 127.862 33.0579 127.284 33.3885 126.706C33.8017 126.045 34.3802 125.632 35.0414 125.467C35.7026 125.219 36.3637 125.219 37.1902 125.467C38.0166 125.715 38.6778 125.963 39.5042 126.541Z" fill="#6E6E6E"/>
<path d="M27.7687 116.381C27.8513 116.463 27.8513 116.546 27.8513 116.711C27.8513 116.794 27.7687 116.959 27.686 116.959L19.091 124.31C19.0084 124.393 18.9257 124.393 18.7604 124.393C18.6778 124.393 18.5125 124.31 18.5125 124.228L17.4381 122.989C17.3555 122.906 17.3555 122.823 17.3555 122.658C17.3555 122.576 17.4381 122.493 17.5208 122.41L26.1158 115.059C26.1984 114.977 26.2811 114.977 26.4464 114.977C26.529 114.977 26.6943 115.059 26.777 115.142L27.7687 116.381Z" fill="#6E6E6E"/>
<path d="M24.4626 112.501C24.5452 112.583 24.5452 112.666 24.5452 112.831C24.5452 112.914 24.4626 112.996 24.3799 113.079L14.8758 119.191C14.7932 119.274 14.6279 119.274 14.5452 119.274C14.4626 119.274 14.3799 119.191 14.2973 119.109L13.5535 117.952C13.4708 117.787 13.4708 117.705 13.4708 117.622C13.4708 117.539 13.5535 117.457 13.5535 117.374L17.4378 108.949L10.9915 113.079C10.9089 113.162 10.7436 113.162 10.6609 113.162C10.5783 113.162 10.4956 113.079 10.413 112.996L9.58655 111.758C9.50391 111.675 9.50391 111.51 9.50391 111.427C9.50391 111.345 9.58655 111.262 9.6692 111.179L19.1733 105.067C19.256 104.984 19.4213 104.984 19.5039 104.984C19.5866 104.984 19.6692 105.067 19.7518 105.15L20.4956 106.306C20.5783 106.471 20.5783 106.554 20.5783 106.636C20.5783 106.719 20.4956 106.802 20.4956 106.884L16.7766 115.144L23.0576 111.097C23.1403 111.014 23.2229 111.014 23.3882 111.014C23.4708 111.014 23.5535 111.097 23.6361 111.179L24.4626 112.501Z" fill="#6E6E6E"/>
<path d="M15.2064 94.4941C15.2064 94.5767 15.2064 94.7419 15.1238 94.8245C15.0411 94.9071 14.9585 94.9897 14.8758 94.9897L3.96673 97.7981C3.88409 97.7981 3.7188 97.7981 3.63615 97.7981C3.55351 97.7155 3.47086 97.6329 3.47086 97.5503L2.31384 93.0073C2.0659 92.0988 2.0659 91.3554 2.14855 90.612C2.23119 89.8686 2.56177 89.2904 2.975 88.7948C3.47086 88.2992 4.04938 87.9688 4.87582 87.721C5.70227 87.4732 6.44607 87.4732 7.10723 87.721C7.76838 87.9688 8.26425 88.3818 8.67747 88.96C9.0907 89.5382 9.42128 90.2816 9.66921 91.1076L10.3304 93.5855L14.2973 92.5944C14.38 92.5944 14.5452 92.5944 14.6279 92.5944C14.7105 92.677 14.7932 92.7596 14.7932 92.8422L15.2064 94.4941ZM8.42954 94.0811L7.76838 91.6032C7.60309 90.9424 7.35516 90.5294 6.94194 90.199C6.52871 89.9512 6.03285 89.8686 5.45433 90.0338C4.87582 90.199 4.4626 90.4468 4.21466 90.8598C3.96673 91.2728 3.88409 91.851 4.13202 92.5118L4.79318 94.9897L8.42954 94.0811Z" fill="#6E6E6E"/>
<path d="M12.7273 83.424C12.7273 83.5066 12.7273 83.6718 12.6446 83.7544C12.562 83.837 12.4793 83.9196 12.3967 83.9196L1.15702 84.7456C0.991735 84.7456 0.909091 84.7456 0.826446 84.663C0.743802 84.5804 0.661157 84.4978 0.661157 84.4152L0 76.7334C0 76.5682 0 76.4856 0.0826446 76.403C0.165289 76.3205 0.247934 76.2379 0.413223 76.2379L1.57025 76.1552C1.65289 76.1552 1.81818 76.1553 1.90083 76.2379C1.98347 76.3205 2.06612 76.403 2.06612 76.5682L2.47934 82.2676L5.53719 82.0198L5.12397 76.7334C5.12397 76.5682 5.12397 76.4856 5.20661 76.403C5.28926 76.3205 5.3719 76.2379 5.53719 76.2379L6.61157 76.1552C6.77686 76.1552 6.8595 76.1553 6.94215 76.2379C7.02479 76.3205 7.10744 76.403 7.10744 76.5682L7.52066 81.8546L10.6612 81.6068L10.2479 75.7423C10.2479 75.5771 10.2479 75.4945 10.3306 75.4119C10.4132 75.3293 10.4959 75.2467 10.6612 75.2467L11.8182 75.1641C11.9008 75.1641 12.0661 75.1641 12.1488 75.2467C12.2314 75.3293 12.314 75.4119 12.314 75.5771L12.7273 83.424Z" fill="#6E6E6E"/>
<path d="M12.1487 72.8509C12.1487 72.9335 12.0661 73.0987 11.9835 73.0987C11.9008 73.1813 11.8182 73.1813 11.6529 73.1813L0.413208 72.1075C0.247919 72.1075 0.165274 72.0249 0.0826294 71.9423C0.0826294 71.8597 -1.52476e-05 71.7771 0.0826294 71.6945L0.495853 67.2341C0.661142 65.83 1.07437 64.7562 1.81817 64.0128C2.56197 63.2694 3.5537 62.939 4.79337 63.1042C5.61982 63.1868 6.36362 63.4346 6.85949 63.9302C7.35536 64.4258 7.76858 65.004 7.93387 65.7474L12.562 63.6824C12.6446 63.6824 12.7273 63.6824 12.7273 63.6824C12.8099 63.6824 12.8925 63.765 12.9752 63.8476C13.0578 63.9302 13.0578 64.0128 13.0578 64.0954L12.8925 65.6648C12.8925 65.83 12.8099 65.9952 12.7273 66.0778C12.6446 66.1604 12.4793 66.243 12.3967 66.3256L8.09916 68.1427L7.85122 70.5381L11.9835 70.9511C12.0661 70.9511 12.2314 71.0337 12.2314 71.1163C12.314 71.1989 12.314 71.2815 12.314 71.4467L12.1487 72.8509ZM5.78511 70.2077L6.03304 67.8123C6.11569 67.1515 6.03304 66.5734 5.70246 66.1604C5.45453 65.7474 4.95866 65.5822 4.38015 65.4996C3.80164 65.417 3.30577 65.5822 2.97519 65.9126C2.64461 66.243 2.39668 66.7385 2.31403 67.4819L2.0661 69.8773L5.78511 70.2077Z" fill="#6E6E6E"/>
<path d="M13.6363 61.4522C13.6363 61.5348 13.5536 61.6174 13.471 61.7C13.3883 61.7826 13.3057 61.7826 13.1404 61.7L2.2313 58.7264C2.14866 58.7264 1.98337 58.6438 1.98337 58.5612C1.90073 58.4786 1.90073 58.396 1.98337 58.2308L3.96684 50.9621C3.96684 50.8795 4.04949 50.7143 4.13213 50.7143C4.21478 50.6317 4.38006 50.6317 4.46271 50.7143L5.61973 51.0447C5.70238 51.0447 5.86767 51.1273 5.86767 51.2099C5.95031 51.2925 5.95031 51.4577 5.86767 51.5403L4.38006 56.9092L7.52056 57.8178L8.92552 52.7793C8.92552 52.6967 9.00816 52.5315 9.09081 52.5315C9.17345 52.4489 9.33874 52.4489 9.42139 52.5315L10.5784 52.8619C10.6611 52.8619 10.7437 52.9445 10.8263 53.0271C10.909 53.1097 10.909 53.2749 10.8263 53.3575L9.42139 58.396L13.5536 59.5524C13.6363 59.5524 13.7189 59.635 13.8016 59.7176C13.8842 59.8002 13.8842 59.9654 13.8016 60.048L13.6363 61.4522Z" fill="#6E6E6E"/>
<path d="M18.6777 47.7438C18.2645 48.6524 17.686 49.3958 17.1075 49.8914C16.4463 50.387 15.7852 50.7173 14.9587 50.7173C14.1323 50.7999 13.2232 50.5521 12.2314 50.0566L5.78515 47.0004C5.70251 46.9178 5.61986 46.8352 5.53722 46.7526C5.45457 46.67 5.53722 46.5048 5.53722 46.4222L6.19838 45.018C6.28102 44.9354 6.36367 44.8528 6.44631 44.7702C6.52896 44.6876 6.69424 44.7702 6.77689 44.7702L13.2232 47.909C14.0496 48.322 14.7934 48.4046 15.4546 48.2394C16.0331 48.0742 16.529 47.5786 16.8595 46.8352C17.1901 46.0918 17.2728 45.5136 17.0248 44.8528C16.7769 44.2746 16.281 43.779 15.4546 43.366L9.09094 40.3099C9.00829 40.2273 8.92565 40.1447 8.843 40.0621C8.76036 39.9795 8.843 39.8143 8.843 39.7317L9.50416 38.3275C9.58681 38.2449 9.66945 38.1623 9.7521 38.0797C9.83474 37.9971 10 38.0797 10.0827 38.0797L16.4463 41.1358C17.438 41.6314 18.1818 42.2096 18.6777 42.8704C19.1736 43.5312 19.3389 44.2746 19.3389 45.1006C19.3389 45.9266 19.0909 46.8352 18.6777 47.7438Z" fill="#6E6E6E"/>
<path d="M22.0659 40.8049C21.9833 40.8875 21.9006 40.9701 21.818 40.9701C21.7353 40.9701 21.57 40.9701 21.4874 40.8875L12.5618 33.9492C12.4791 33.9492 12.3965 33.8666 12.3965 33.7014C12.3965 33.5362 12.3965 33.4536 12.4791 33.371L13.3056 32.2972C13.3882 32.132 13.5535 32.132 13.6362 32.0494C13.7188 31.9668 13.8014 32.0494 13.8841 32.0494L20.9089 33.2058L18.0163 26.6805C18.0163 26.5979 17.9337 26.5153 17.9337 26.4327C17.9337 26.3501 17.9337 26.1849 18.0163 26.1023L18.8428 25.0285C18.9254 24.9459 19.0081 24.8633 19.0907 24.8633C19.1733 24.8633 19.3386 24.8633 19.4213 24.9459L28.3469 31.8842C28.4295 31.9668 28.5122 32.0494 28.5122 32.132C28.5122 32.2146 28.5122 32.3798 28.4295 32.4624L27.5205 33.6188C27.4378 33.7014 27.3552 33.784 27.2725 33.784C27.1899 33.784 27.0246 33.784 26.9419 33.7014L20.9915 29.0758L23.1403 33.8666C23.2229 33.9492 23.2229 34.1144 23.2229 34.197C23.2229 34.2796 23.1403 34.4448 23.0576 34.5274L22.6444 35.1056C22.5618 35.2708 22.4791 35.2708 22.3138 35.3534C22.2312 35.3534 22.0659 35.3534 21.9833 35.3534L16.8593 34.4448L22.8097 39.0703C22.8924 39.1529 22.975 39.2355 22.975 39.3181C22.975 39.4007 22.975 39.5659 22.8924 39.6485L22.0659 40.8049Z" fill="#6E6E6E"/>
<path d="M30.9092 30.149C30.8266 30.2316 30.7439 30.2316 30.5787 30.2316C30.496 30.2316 30.3307 30.149 30.3307 30.0664L22.8927 21.5587C22.8101 21.4761 22.8101 21.3935 22.8101 21.2283C22.8101 21.1457 22.8927 20.9805 22.9753 20.9805L28.6778 15.942C28.7605 15.8594 28.8431 15.8594 29.0084 15.8594C29.1737 15.8594 29.2563 15.942 29.339 16.0246L30.0828 16.8506C30.1654 16.9332 30.1654 17.0158 30.1654 17.181C30.1654 17.3462 30.0828 17.4288 30.0001 17.5114L25.7026 21.3109L27.7687 23.6237L31.7357 20.0719C31.8183 19.9893 31.901 19.9893 32.0663 19.9893C32.1489 19.9893 32.3142 20.0719 32.3968 20.1545L33.1406 20.9805C33.2233 21.0631 33.2233 21.1457 33.2233 21.3109C33.2233 21.3935 33.1406 21.5587 33.058 21.6413L29.0911 25.1931L31.1572 27.5885L35.5373 23.7063C35.62 23.6237 35.7026 23.6237 35.8679 23.6237C35.9506 23.6237 36.1158 23.7063 36.1985 23.7889L36.9423 24.6149C37.0249 24.6975 37.0249 24.7801 37.0249 24.9453C37.0249 25.0279 36.9423 25.1931 36.8596 25.2757L30.9092 30.149Z" fill="#6E6E6E"/>
</g>
<defs>
<clipPath id="clip0_3199_2001">
<rect width="150" height="150" fill="white"/>
</clipPath>
</defs>
</svg>
