<svg width="22" height="22" viewBox="0 0 22 22" fill="none" xmlns="http://www.w3.org/2000/svg">
<path d="M3.66665 0H6.41665C8.44168 0 10.0833 1.64162 10.0833 3.66665V6.41665C10.0833 8.44168 8.44168 10.0833 6.41665 10.0833H3.66665C1.64162 10.0833 0 8.44173 0 6.41665V3.66665C0 1.64162 1.64162 0 3.66665 0Z" fill="#191919"/>
<path d="M15.5834 0H18.3334C20.3584 0 22.0001 1.64162 22.0001 3.66665V6.41665C22.0001 8.44168 20.3584 10.0833 18.3334 10.0833H15.5834C13.5584 10.0833 11.9167 8.44168 11.9167 6.41665V3.66665C11.9167 1.64162 13.5583 0 15.5834 0Z" fill="#191919"/>
<path d="M3.66665 11.918H6.41665C8.44168 11.918 10.0833 13.5596 10.0833 15.5846V18.3346C10.0833 20.3597 8.44168 22.0013 6.41665 22.0013H3.66665C1.64162 22.0013 0 20.3597 0 18.3347V15.5847C0 13.5596 1.64162 11.918 3.66665 11.918Z" fill="#191919"/>
<path d="M15.5834 11.918H18.3334C20.3584 11.918 22.0001 13.5596 22.0001 15.5846V18.3346C22.0001 20.3597 20.3584 22.0013 18.3334 22.0013H15.5834C13.5584 22.0013 11.9167 20.3597 11.9167 18.3347V15.5847C11.9167 13.5596 13.5583 11.918 15.5834 11.918Z" fill="#191919"/>
</svg>
