<svg width="15" height="15" viewBox="0 0 15 15" fill="none" xmlns="http://www.w3.org/2000/svg">
<path d="M4.375 0H2.5C1.83696 0 1.20107 0.263392 0.732233 0.732233C0.263392 1.20107 0 1.83696 0 2.5L0 4.375C0 5.03804 0.263392 5.67393 0.732233 6.14277C1.20107 6.61161 1.83696 6.875 2.5 6.875H4.375C5.03804 6.875 5.67393 6.61161 6.14277 6.14277C6.61161 5.67393 6.875 5.03804 6.875 4.375V2.5C6.875 1.83696 6.61161 1.20107 6.14277 0.732233C5.67393 0.263392 5.03804 0 4.375 0ZM5.625 4.375C5.625 4.70652 5.4933 5.02446 5.25888 5.25888C5.02446 5.4933 4.70652 5.625 4.375 5.625H2.5C2.16848 5.625 1.85054 5.4933 1.61612 5.25888C1.3817 5.02446 1.25 4.70652 1.25 4.375V2.5C1.25 2.16848 1.3817 1.85054 1.61612 1.61612C1.85054 1.3817 2.16848 1.25 2.5 1.25H4.375C4.70652 1.25 5.02446 1.3817 5.25888 1.61612C5.4933 1.85054 5.625 2.16848 5.625 2.5V4.375Z" fill="#6E6E6E"/>
<path d="M12.5 0H10.625C9.96196 0 9.32607 0.263392 8.85723 0.732233C8.38839 1.20107 8.125 1.83696 8.125 2.5V4.375C8.125 5.03804 8.38839 5.67393 8.85723 6.14277C9.32607 6.61161 9.96196 6.875 10.625 6.875H12.5C13.163 6.875 13.7989 6.61161 14.2678 6.14277C14.7366 5.67393 15 5.03804 15 4.375V2.5C15 1.83696 14.7366 1.20107 14.2678 0.732233C13.7989 0.263392 13.163 0 12.5 0ZM13.75 4.375C13.75 4.70652 13.6183 5.02446 13.3839 5.25888C13.1495 5.4933 12.8315 5.625 12.5 5.625H10.625C10.2935 5.625 9.97554 5.4933 9.74112 5.25888C9.5067 5.02446 9.375 4.70652 9.375 4.375V2.5C9.375 2.16848 9.5067 1.85054 9.74112 1.61612C9.97554 1.3817 10.2935 1.25 10.625 1.25H12.5C12.8315 1.25 13.1495 1.3817 13.3839 1.61612C13.6183 1.85054 13.75 2.16848 13.75 2.5V4.375Z" fill="#6E6E6E"/>
<path d="M4.375 8.125H2.5C1.83696 8.125 1.20107 8.38839 0.732233 8.85723C0.263392 9.32607 0 9.96196 0 10.625L0 12.5C0 13.163 0.263392 13.7989 0.732233 14.2678C1.20107 14.7366 1.83696 15 2.5 15H4.375C5.03804 15 5.67393 14.7366 6.14277 14.2678C6.61161 13.7989 6.875 13.163 6.875 12.5V10.625C6.875 9.96196 6.61161 9.32607 6.14277 8.85723C5.67393 8.38839 5.03804 8.125 4.375 8.125ZM5.625 12.5C5.625 12.8315 5.4933 13.1495 5.25888 13.3839C5.02446 13.6183 4.70652 13.75 4.375 13.75H2.5C2.16848 13.75 1.85054 13.6183 1.61612 13.3839C1.3817 13.1495 1.25 12.8315 1.25 12.5V10.625C1.25 10.2935 1.3817 9.97554 1.61612 9.74112C1.85054 9.5067 2.16848 9.375 2.5 9.375H4.375C4.70652 9.375 5.02446 9.5067 5.25888 9.74112C5.4933 9.97554 5.625 10.2935 5.625 10.625V12.5Z" fill="#6E6E6E"/>
<path d="M12.5 8.125H10.625C9.96196 8.125 9.32607 8.38839 8.85723 8.85723C8.38839 9.32607 8.125 9.96196 8.125 10.625V12.5C8.125 13.163 8.38839 13.7989 8.85723 14.2678C9.32607 14.7366 9.96196 15 10.625 15H12.5C13.163 15 13.7989 14.7366 14.2678 14.2678C14.7366 13.7989 15 13.163 15 12.5V10.625C15 9.96196 14.7366 9.32607 14.2678 8.85723C13.7989 8.38839 13.163 8.125 12.5 8.125ZM13.75 12.5C13.75 12.8315 13.6183 13.1495 13.3839 13.3839C13.1495 13.6183 12.8315 13.75 12.5 13.75H10.625C10.2935 13.75 9.97554 13.6183 9.74112 13.3839C9.5067 13.1495 9.375 12.8315 9.375 12.5V10.625C9.375 10.2935 9.5067 9.97554 9.74112 9.74112C9.97554 9.5067 10.2935 9.375 10.625 9.375H12.5C12.8315 9.375 13.1495 9.5067 13.3839 9.74112C13.6183 9.97554 13.75 10.2935 13.75 10.625V12.5Z" fill="#6E6E6E"/>
</svg>
