<svg width="85" height="85" viewBox="0 0 85 85" fill="none" xmlns="http://www.w3.org/2000/svg">
<path d="M23.7982 46.8008C24.4056 46.813 25.1122 46.9285 25.7196 46.9407C28.8559 47.105 31.8971 46.9636 34.8553 45.909C38.425 44.6641 41.606 42.6012 43.5966 39.2991C45.6905 35.8978 45.3548 32.4476 43.1927 29.1633C41.1258 26.1848 38.0139 24.8056 34.4605 25.2406C31.0103 25.5763 28.1391 27.3416 25.7598 29.8257C19.0391 36.6787 19.6536 46.4137 24.2835 52.8872C28.7191 58.9516 34.8477 61.4042 42.1448 61.1457C46.909 60.9377 51.0983 59.0976 54.899 56.4395C57.671 54.571 60.1454 52.3926 62.6239 50.0118C64.4828 48.2262 66.3417 46.4405 68.2005 44.6549C69.2332 43.6629 69.1422 43.1547 67.9436 42.3204C66.1417 41.2714 64.4431 40.1232 62.6412 39.0742C62.4428 38.8677 62.2403 38.8636 62.0419 38.6571C67.5249 37.9571 72.9088 37.1538 78.495 36.3546C77.4761 41.7018 76.4571 47.0489 75.4341 52.5986C75.2398 52.1896 75.0414 51.9831 75.0454 51.7806C74.0697 49.938 73.1932 48.1987 72.1141 46.4553C71.5271 45.4307 70.8205 45.3152 69.9943 46.1088C67.1027 48.8865 64.2112 51.6641 61.2204 54.3385C57.61 57.608 53.6028 60.4645 48.8142 61.8874C41.4763 64.1706 34.5012 63.524 28.1076 59.1419C19.1144 53.0871 15.8295 40.1589 22.4007 30.6697C25.1101 26.8756 28.6091 24.1102 33.2863 23.1914C42.5415 21.2507 48.7505 29.7814 47.0875 36.9386C46.3158 40.0627 44.4447 42.4558 41.9743 44.4316C37.6492 47.9907 32.4597 49.203 26.8938 48.9898C26.6913 48.9858 26.6913 48.9858 26.4888 48.9817C24.3608 49.0402 24.2616 48.9369 23.7982 46.8008Z" fill="#D4CCC2"/>
<path d="M17.0882 48.0853C13.869 47.0078 10.6457 46.1328 7.32322 45.1546C5.31071 44.5065 3.30227 43.6559 1.39303 42.9086C0.591283 42.4874 0.297749 41.9751 0.615699 41.2725C0.830379 40.6692 1.44186 40.4789 2.14441 40.7969C6.76464 42.7127 11.4922 44.3269 16.4304 45.5402C16.6329 45.5442 16.8313 45.7508 16.9305 45.8541C17.1207 46.4655 17.2077 47.1762 17.398 47.7877C17.1914 47.9861 17.1914 47.9861 17.0882 48.0853Z" fill="#D4CCC2"/>
</svg>
