<svg width="22" height="22" viewBox="0 0 22 22" fill="none" xmlns="http://www.w3.org/2000/svg">
<path d="M22 10.5505C22 10.083 21.9358 9.61549 21.8167 9.16632H2.4475C1.7325 9.16632 1.10917 9.57882 0.806667 10.2022C0.403333 11.3388 0 12.8972 0 14.6663C0 16.7747 0.568333 18.5897 1.045 19.7447C1.61333 21.1105 2.9425 21.9997 4.4275 21.9997H17.2242C19.9375 21.9997 21.9908 19.9463 21.9908 17.4163V10.5505H22ZM20.9458 7.33299H2.4475C2.2825 7.33299 2.1175 7.35132 1.96167 7.36966C2.87833 5.55466 4.5375 2.99716 7.37 0.879656C8.89167 -0.25701 10.9908 -0.293677 12.6042 0.778823L16.4542 3.64799L19.7908 6.14132C20.24 6.48049 20.625 6.88382 20.9458 7.33299Z" fill="#191919"/>
</svg>
