<svg width="20" height="15" viewBox="0 0 20 15" fill="none" xmlns="http://www.w3.org/2000/svg">
<path d="M15.8333 0H4.16667C3.062 0.00132321 2.00296 0.440735 1.22185 1.22185C0.440735 2.00296 0.00132321 3.062 0 4.16667H20C19.9987 3.062 19.5593 2.00296 18.7782 1.22185C17.997 0.440735 16.938 0.00132321 15.8333 0Z" fill="#191919"/>
<path d="M0 10.8359C0.00132321 11.9406 0.440735 12.9996 1.22185 13.7808C2.00296 14.5619 3.062 15.0013 4.16667 15.0026H15.8333C16.938 15.0013 17.997 14.5619 18.7782 13.7808C19.5593 12.9996 19.9987 11.9406 20 10.8359V5.83594H0V10.8359ZM5.83333 10.4193C5.83333 10.6665 5.76002 10.9082 5.62267 11.1137C5.48532 11.3193 5.2901 11.4795 5.06169 11.5741C4.83328 11.6687 4.58195 11.6935 4.33947 11.6453C4.09699 11.597 3.87427 11.478 3.69945 11.3032C3.52463 11.1283 3.40558 10.9056 3.35735 10.6631C3.30912 10.4207 3.33387 10.1693 3.42848 9.94092C3.52309 9.71251 3.68331 9.51728 3.88887 9.37993C4.09443 9.24258 4.33611 9.16927 4.58333 9.16927C4.91485 9.16927 5.2328 9.30097 5.46722 9.53539C5.70164 9.76981 5.83333 10.0877 5.83333 10.4193Z" fill="#191919"/>
</svg>
