<svg width="15" height="15" viewBox="0 0 15 15" fill="none" xmlns="http://www.w3.org/2000/svg">
<path d="M15.0008 15H7.51206C6.04893 14.9993 4.61795 14.5707 3.39538 13.7669C2.17281 12.9631 1.21205 11.8192 0.631438 10.4762C0.0508232 9.13323 -0.124288 7.64973 0.127672 6.20845C0.379633 4.76718 1.04766 3.43108 2.04948 2.36471C3.05129 1.29835 4.34314 0.548307 5.76589 0.206961C7.18865 -0.134384 8.68019 -0.0521223 10.0568 0.443616C11.4334 0.939354 12.6349 1.82692 13.5134 2.99698C14.3918 4.16704 14.9089 5.56851 15.0008 7.02875V7.06813V15ZM7.51206 1.25C5.85446 1.25 4.26474 1.90848 3.09264 3.08058C1.92054 4.25269 1.26206 5.8424 1.26206 7.5C1.26206 9.1576 1.92054 10.7473 3.09264 11.9194C4.26474 13.0915 5.85446 13.75 7.51206 13.75H13.7508V7.08813C13.6436 5.50582 12.94 4.02314 11.782 2.93952C10.624 1.85589 9.09799 1.25207 7.51206 1.25Z" fill="#6E6E6E"/>
<path d="M8.125 4.375H4.375V5.625H8.125V4.375Z" fill="#6E6E6E"/>
<path d="M10.625 6.875H4.375V8.125H10.625V6.875Z" fill="#6E6E6E"/>
<path d="M10.625 9.375H4.375V10.625H10.625V9.375Z" fill="#6E6E6E"/>
</svg>
