<svg width="22" height="25" viewBox="0 0 22 25" fill="none" xmlns="http://www.w3.org/2000/svg">
<path d="M17.6411 18.3791L12.8254 13.5521L15.8638 10.5066L20.6795 15.3335L17.6411 18.3791ZM21.999 8.93688C21.2831 8.42477 20.8096 7.59559 20.8096 6.64542C20.8096 6.02589 21.0219 5.46476 21.358 4.99958L17.3352 9.03179L21.6181 13.3237C21.1134 12.8074 20.8106 12.069 20.8106 11.2847C20.8106 10.3199 21.282 9.47089 22 8.93583L21.999 8.93688ZM9.64233 4.27157L6.6039 7.31711L11.353 12.0773L14.3914 9.03179L9.64233 4.27157ZM5.13255 8.7919L0.91309 13.0223C-0.304363 14.2415 -0.304363 16.2274 0.91309 17.4477L7.5352 24.0853C8.14393 24.6954 8.94308 25 9.74327 25C10.5435 25 11.3416 24.6954 11.9503 24.0853L16.1708 19.8549L5.13255 8.7919ZM15.8628 7.557L19.9761 3.43405L17.4351 0.887065C16.2572 -0.294645 14.2 -0.296731 13.02 0.887065L11.1137 2.79783L15.8628 7.557Z" fill="#191919"/>
</svg>
