<svg width="20" height="19" viewBox="0 0 20 19" fill="none" xmlns="http://www.w3.org/2000/svg">
<path d="M19.5537 7.28833L16.4179 1.87167C15.7496 0.7175 14.5063 0 13.1721 0H6.88458C5.55125 0 4.30792 0.716667 3.63875 1.87167L0.50375 7.28833C-0.167917 8.4475 -0.167917 9.88667 0.50375 11.0458L3.63958 16.4625C4.30875 17.6167 5.55208 18.3342 6.88542 18.3342H13.1729C14.5071 18.3342 15.7504 17.6175 16.4187 16.4625L19.5546 11.0458C20.2262 9.88667 20.2254 8.4475 19.5537 7.28833ZM18.8329 10.6283L15.6971 16.045C15.1779 16.9425 14.2104 17.5008 13.1729 17.5008H6.88542C5.84875 17.5008 4.88125 16.9433 4.36125 16.045L1.22542 10.6283C0.70375 9.72667 0.70375 8.6075 1.22542 7.70583L4.36125 2.28917C4.88125 1.39167 5.84875 0.833333 6.88542 0.833333H13.1729C14.2104 0.833333 15.1779 1.39083 15.6971 2.28917L18.8329 7.70583C19.3546 8.6075 19.3546 9.72667 18.8329 10.6283ZM13.2113 6.545L10.5896 9.16667L13.2113 11.7883C13.3737 11.9508 13.3737 12.215 13.2113 12.3775C13.1296 12.4592 13.0229 12.4992 12.9163 12.4992C12.8096 12.4992 12.7029 12.4583 12.6213 12.3775L9.99958 9.75583L7.37792 12.3775C7.29625 12.4592 7.18958 12.4992 7.08292 12.4992C6.97625 12.4992 6.86958 12.4583 6.78792 12.3775C6.62542 12.215 6.62542 11.9508 6.78792 11.7883L9.40958 9.16667L6.78792 6.545C6.62542 6.3825 6.62542 6.11833 6.78792 5.95583C6.95042 5.79333 7.21458 5.79333 7.37708 5.95583L9.99875 8.5775L12.6204 5.95583C12.7829 5.79333 13.0471 5.79333 13.2096 5.95583C13.3721 6.11833 13.3721 6.3825 13.2096 6.545H13.2113Z" fill="#191919"/>
</svg>
