<svg width="22" height="22" viewBox="0 0 22 22" fill="none" xmlns="http://www.w3.org/2000/svg">
<path d="M0 5.4981C0.00145554 4.28297 0.484808 3.11803 1.34403 2.2588C2.20326 1.39957 3.3682 0.916221 4.58333 0.914766C5.46607 0.911537 6.3305 1.16644 7.07025 1.6481C7.58238 1.12508 8.19377 0.709563 8.86857 0.425888C9.54336 0.142213 10.268 -0.00390625 11 -0.00390625C11.732 -0.00390625 12.4566 0.142213 13.1314 0.425888C13.8062 0.709563 14.4176 1.12508 14.9298 1.6481C15.6695 1.16644 16.5339 0.911537 17.4167 0.914766C18.5533 0.913623 19.6498 1.33486 20.4933 2.09669C21.3368 2.85853 21.8672 3.90661 21.9814 5.03748C22.0956 6.16835 21.7856 7.30132 21.1115 8.21645C20.4373 9.13158 19.4472 9.76358 18.3333 9.98977V16.4981H3.66667V9.98977C2.63205 9.77717 1.70239 9.2143 1.03445 8.39608C0.366515 7.57786 0.00116163 6.55433 0 5.4981ZM3.66667 18.3314V21.9981H18.3333V18.3314H3.66667Z" fill="#191919"/>
</svg>
