<svg width="15" height="15" viewBox="0 0 15 15" fill="none" xmlns="http://www.w3.org/2000/svg">
<path d="M3.4375 10.625C3.95527 10.625 4.375 10.2053 4.375 9.6875C4.375 9.16973 3.95527 8.75 3.4375 8.75C2.91973 8.75 2.5 9.16973 2.5 9.6875C2.5 10.2053 2.91973 10.625 3.4375 10.625Z" fill="#6E6E6E"/>
<path d="M11.875 1.875H3.125C2.2965 1.87599 1.50222 2.20555 0.916387 2.79139C0.330551 3.37722 0.000992411 4.1715 0 5L0 10C0.000992411 10.8285 0.330551 11.6228 0.916387 12.2086C1.50222 12.7944 2.2965 13.124 3.125 13.125H11.875C12.7035 13.124 13.4978 12.7944 14.0836 12.2086C14.6694 11.6228 14.999 10.8285 15 10V5C14.999 4.1715 14.6694 3.37722 14.0836 2.79139C13.4978 2.20555 12.7035 1.87599 11.875 1.875ZM3.125 3.125H11.875C12.3723 3.125 12.8492 3.32254 13.2008 3.67417C13.5525 4.02581 13.75 4.50272 13.75 5H1.25C1.25 4.50272 1.44754 4.02581 1.79917 3.67417C2.15081 3.32254 2.62772 3.125 3.125 3.125ZM11.875 11.875H3.125C2.62772 11.875 2.15081 11.6775 1.79917 11.3258C1.44754 10.9742 1.25 10.4973 1.25 10V6.25H13.75V10C13.75 10.4973 13.5525 10.9742 13.2008 11.3258C12.8492 11.6775 12.3723 11.875 11.875 11.875Z" fill="#6E6E6E"/>
</svg>
