<svg width="40" height="40" viewBox="0 0 40 40" fill="none" xmlns="http://www.w3.org/2000/svg">
<g clip-path="url(#clip0_830_112)">
<path d="M38.3546 40.0001C26.1182 40.0001 13.8818 40.0001 1.6454 40.0001C0.791461 39.7605 0.239521 39.2188 0 38.3542C0 29.9167 0 21.4792 0 13.0417C0.124967 12.9376 0.239521 12.8126 0.374902 12.7188C2.15569 11.4584 3.93647 10.1876 5.72767 8.93756C5.95678 8.78131 6.01927 8.61464 6.00885 8.35423C5.99844 7.20839 5.99844 6.06256 6.00885 4.91673C6.00885 3.84381 6.51914 3.33339 7.58136 3.33339C9.4767 3.33339 11.3825 3.33339 13.2778 3.32298C13.4757 3.32298 13.6944 3.26048 13.8506 3.15631C14.8607 2.45839 15.8605 1.76048 16.8394 1.03131C18.7035 -0.34369 21.2236 -0.354107 23.1086 1.00006C24.0875 1.70839 25.0664 2.41673 26.0661 3.10423C26.264 3.23964 26.5348 3.32298 26.7847 3.32298C28.68 3.34381 30.5858 3.33339 32.4811 3.33339C33.4496 3.33339 33.9807 3.86464 33.9807 4.82298C33.9807 6.02089 33.9703 7.21881 33.9911 8.41673C33.9911 8.57298 34.1057 8.79173 34.2307 8.88548C35.9906 10.1563 37.7714 11.4063 39.5418 12.6563C39.8438 12.8751 39.9896 13.1146 39.9896 13.5001C39.9792 21.6042 39.9792 29.7188 39.9792 37.823C39.9792 38.0209 39.9688 38.2188 39.9271 38.4063C39.7605 39.2813 39.1565 39.7501 38.3546 40.0001ZM7.35225 4.68756C7.34184 4.78131 7.33142 4.84381 7.33142 4.90631C7.33142 9.18756 7.33142 13.4688 7.34184 17.7501C7.34184 17.8959 7.43556 18.073 7.55012 18.1667C10.8305 20.9063 14.1005 23.6355 17.3913 26.3542C18.9534 27.6459 20.9737 27.6459 22.5566 26.3855C22.9732 26.0521 23.3793 25.7084 23.7855 25.3646C26.6389 22.9896 29.4923 20.6251 32.3457 18.2605C32.5644 18.073 32.6582 17.8959 32.6582 17.6042C32.6477 13.4376 32.6477 9.27089 32.6477 5.10423C32.6477 4.96881 32.6477 4.82298 32.6477 4.67714C24.202 4.68756 15.798 4.68756 7.35225 4.68756ZM37.4694 38.6563C32.8248 34.8021 28.2635 31.0105 23.6917 27.2084C22.6295 28.1563 21.4111 28.6667 20.0156 28.6667C18.5993 28.6667 17.3809 28.1459 16.3083 27.2084C11.7261 31.0209 7.1648 34.8126 2.53059 38.6563C14.215 38.6563 25.785 38.6563 37.4694 38.6563ZM1.3434 37.9063C6.01927 34.0209 10.6222 30.1876 15.2669 26.3334C10.6222 22.4688 6.00885 18.6355 1.3434 14.7605C1.3434 22.5105 1.3434 30.1563 1.3434 37.9063ZM38.6462 14.7605C33.9703 18.6459 29.3674 22.4792 24.7227 26.3334C29.3674 30.198 33.9807 34.0313 38.6462 37.8959C38.6462 30.1563 38.6462 22.5001 38.6462 14.7605ZM38.2296 13.3751C36.8133 12.3751 35.4283 11.3855 34.012 10.3855C34.012 12.5834 34.012 14.698 34.012 16.8855C35.4387 15.698 36.8133 14.5521 38.2296 13.3751ZM5.98802 10.3751C4.5509 11.3959 3.16584 12.3751 1.75996 13.3751C3.18667 14.5626 4.56131 15.698 5.98802 16.8855C5.98802 14.6876 5.98802 12.573 5.98802 10.3751ZM16.0791 3.31256C18.693 3.31256 21.2965 3.31256 23.9104 3.31256C23.9313 3.28131 23.9417 3.25006 23.9625 3.21881C23.1815 2.70839 22.4212 2.14589 21.5985 1.68756C20.9529 1.33339 20.2239 1.28131 19.4741 1.36464C18.0682 1.53131 17.1518 2.54173 16.0791 3.31256Z" fill="#30A346"/>
<path d="M21.3584 18.0411C20.6711 18.6661 19.89 19.0411 18.984 19.1661C17.1616 19.4161 15.6203 18.187 15.4641 16.3536C15.2871 14.2286 16.568 11.9265 18.4633 10.9682C19.6505 10.364 21.1189 10.6036 22.0665 11.562C22.1603 11.6557 22.2123 11.7703 22.3477 11.9474C22.4102 11.6557 22.4414 11.489 22.4831 11.3328C22.5768 10.9057 22.8892 10.6661 23.2537 10.739C23.6495 10.812 23.8786 11.1557 23.7848 11.5932C23.4099 13.4161 23.0246 15.2286 22.6393 17.0515C22.5247 17.5932 22.6601 17.8015 23.2225 17.8328C23.9202 17.8745 24.5034 17.6349 24.9512 17.0932C26.2113 15.5724 26.4404 13.8432 25.7947 12.0307C25.1387 10.2182 23.8265 9.0828 21.9103 8.74946C18.255 8.11405 14.4539 10.5099 13.423 14.0724C12.6002 16.9265 14.204 19.8953 17.047 20.7495C19.0986 21.364 21.1813 21.5515 23.285 21.0411C24.6596 20.7078 25.8468 20.0411 26.7632 18.937C27.0027 18.6557 27.2839 18.5411 27.6276 18.7078C27.94 18.8536 28.0546 19.1349 27.9712 19.4578C27.94 19.6036 27.8359 19.739 27.7317 19.8536C26.4925 21.3015 24.8991 22.1036 23.0559 22.4474C20.6815 22.8849 18.3488 22.6765 16.1098 21.8224C12.3711 20.3953 10.7778 16.0203 12.7044 12.3745C14.1519 9.63488 16.3909 7.84321 19.5151 7.38488C22.8372 6.90571 25.5656 8.23905 26.8361 11.0411C27.9296 13.4578 27.7005 15.812 25.9926 17.9265C25.274 18.812 24.3159 19.2078 23.1704 19.1661C22.3685 19.1349 21.7645 18.7911 21.3584 18.0411ZM16.7867 15.5724C16.7762 17.114 17.4532 17.8849 18.557 17.864C19.1819 17.8536 19.7651 17.6661 20.2441 17.239C21.0356 16.5307 21.6916 15.7495 21.8583 14.614C21.9416 14.0724 21.8895 13.6245 21.6291 13.1661C21.5146 12.9682 21.3792 12.7703 21.2334 12.5932C20.6919 11.9474 19.7859 11.7495 19.0465 12.1661C17.6094 12.9786 16.9429 14.2703 16.7867 15.5724Z" fill="#30A346"/>
</g>
<defs>
<clipPath id="clip0_830_112">
<rect width="40" height="40" fill="white"/>
</clipPath>
</defs>
</svg>
