<svg width="15" height="15" viewBox="0 0 15 15" fill="none" xmlns="http://www.w3.org/2000/svg">
<g clip-path="url(#clip0_1051_1291)">
<path d="M14.852 4.12375L13.8664 4.92688L14.2739 6.16875C14.3295 6.33688 14.2733 6.52188 14.1326 6.63C13.992 6.73813 13.7989 6.74563 13.6508 6.64937L12.5033 5.90188L11.3751 6.65688C11.3051 6.70375 11.2239 6.7275 11.1433 6.7275C11.0551 6.7275 10.967 6.69938 10.8933 6.64438C10.7514 6.53813 10.6926 6.35438 10.7458 6.18563L11.1376 4.92875L10.147 4.1225C10.0139 4.00937 9.96514 3.825 10.0258 3.66125C10.0858 3.4975 10.242 3.38812 10.417 3.38812H11.6676L12.1101 2.14625C12.1708 1.98312 12.3264 1.875 12.5008 1.875C12.6751 1.875 12.8308 1.98312 12.8914 2.14625L13.3339 3.38812H14.5845C14.7595 3.38812 14.9158 3.4975 14.9758 3.66187C15.0358 3.82625 14.9858 4.01062 14.852 4.12375ZM5.14764 2.2475L6.13826 3.05375L5.74639 4.31063C5.69326 4.47937 5.75264 4.66313 5.89389 4.76937C5.96764 4.825 6.05576 4.8525 6.14389 4.8525C6.22451 4.8525 6.30514 4.82937 6.37576 4.78188L7.50389 4.02688L8.65139 4.77437C8.79951 4.87063 8.99264 4.86312 9.13326 4.755C9.27389 4.64687 9.33014 4.46187 9.27451 4.29375L8.86701 3.05187L9.85264 2.24875C9.98639 2.13625 10.0358 1.95125 9.97576 1.78688C9.91576 1.6225 9.75951 1.51312 9.58451 1.51312H8.33389L7.89139 0.27125C7.83076 0.108125 7.67514 0 7.50076 0C7.32639 0 7.17076 0.108125 7.11014 0.27125L6.66764 1.51312H5.41701C5.24201 1.51312 5.08639 1.62188 5.02576 1.78625C4.96514 1.95 5.01389 2.13438 5.14701 2.2475H5.14764ZM3.65139 6.64875C3.79951 6.745 3.99264 6.7375 4.13326 6.62938C4.27389 6.52125 4.33014 6.33625 4.27451 6.16813L3.86701 4.92625L4.85264 4.12313C4.98639 4.01062 5.03576 3.82562 4.97576 3.66125C4.91576 3.49687 4.75951 3.3875 4.58451 3.3875H3.33389L2.89139 2.14562C2.83076 1.9825 2.67514 1.87437 2.50076 1.87437C2.32639 1.87437 2.17076 1.9825 2.11014 2.14562L1.66764 3.3875H0.417012C0.242012 3.3875 0.0863869 3.49625 0.0257619 3.66062C-0.0348631 3.82437 0.0138869 4.00875 0.147012 4.12187L1.13764 4.92812L0.745762 6.185C0.692637 6.35375 0.752012 6.5375 0.893262 6.64375C0.967012 6.69938 1.05514 6.72688 1.14326 6.72688C1.22389 6.72688 1.30451 6.70375 1.37514 6.65625L2.50326 5.90125L3.65139 6.64875ZM12.4639 10.9931L12.0645 12.9906C11.8308 14.1594 10.8045 15.0006 9.61326 15.0006H4.37514C3.33951 15.0006 2.50014 14.1612 2.50014 13.1256V10.6256C2.50014 9.59 3.33951 8.75063 4.37514 8.75063H5.28514L6.65576 6.1575C6.76826 5.9375 6.92326 5.77375 7.08201 5.70813C7.21451 5.65313 7.34889 5.62563 7.48201 5.62563C7.90826 5.62563 8.25951 5.90438 8.37701 6.33563C8.39076 6.38562 8.40826 6.50125 8.37264 6.71L8.01014 8.75063H10.6245C11.8076 8.75063 12.6958 9.83312 12.4639 10.9931ZM4.37576 13.7506H5.00076V10.0006H4.37576C4.03139 10.0006 3.75076 10.2812 3.75076 10.6256V13.1256C3.75076 13.47 4.03139 13.7506 4.37576 13.7506ZM11.1083 10.2294C11.0383 10.1437 10.882 10.0006 10.6251 10.0006H6.25076V13.7506H9.61264C10.2064 13.7506 10.722 13.3281 10.8383 12.7456L11.2376 10.7481C11.2883 10.4956 11.1783 10.315 11.1083 10.2294Z" fill="#6E6E6E"/>
</g>
<defs>
<clipPath id="clip0_1051_1291">
<rect width="15" height="15" fill="white"/>
</clipPath>
</defs>
</svg>
