<svg width="22" height="22" viewBox="0 0 22 22" fill="none" xmlns="http://www.w3.org/2000/svg">
<path d="M10.3033 22C10.003 21.999 9.70646 21.9327 9.43428 21.8057C8.98971 21.6077 8.63265 21.2543 8.43013 20.8118C8.2276 20.3693 8.19352 19.8681 8.33428 19.4022L9.7652 14.6667H6.3937C5.96415 14.6672 5.54046 14.5671 5.15657 14.3744C4.77268 14.1817 4.43928 13.9017 4.18308 13.5569C3.92688 13.2122 3.75501 12.8122 3.68124 12.389C3.60747 11.9658 3.63385 11.5313 3.75828 11.1201L6.53028 1.95346C6.69925 1.38649 7.04754 0.889602 7.52289 0.537387C7.99824 0.185171 8.57501 -0.00337483 9.16661 4.57319e-05H12.5519C12.9366 0.000367613 13.3156 0.0938445 13.6564 0.272488C13.9972 0.451131 14.2897 0.709629 14.5088 1.02589C14.728 1.34215 14.8673 1.70677 14.9149 2.08859C14.9625 2.47041 14.9169 2.85808 14.7821 3.21846L13.2394 7.33338H15.5833C16.0829 7.33334 16.5731 7.46942 17.0012 7.727C17.4294 7.98458 17.7792 8.35393 18.0132 8.79538C18.2472 9.23682 18.3565 9.73368 18.3294 10.2326C18.3023 10.7315 18.1398 11.2136 17.8594 11.627L11.9927 21.0687C11.8113 21.3527 11.5617 21.5868 11.2666 21.7495C10.9715 21.9122 10.6403 21.9983 10.3033 22Z" fill="#191919"/>
</svg>
