<svg width="50" height="50" viewBox="0 0 50 50" fill="none" xmlns="http://www.w3.org/2000/svg">
<g clip-path="url(#clip0_222_1481)">
<path d="M0 10.5074C0.390625 10.2337 0.742188 9.89478 1.15885 9.68623C7.44792 6.51886 13.737 3.37757 20.026 0.210208C20.599 -0.0765488 21.0677 -0.0635143 21.6276 0.210208C28.0729 3.44274 34.5312 6.67528 40.9896 9.89478C41.4453 10.1294 41.6927 10.4683 41.6927 10.9636C41.6927 13.8312 41.6927 16.6987 41.6797 19.5663C41.6797 20.2832 41.3151 20.7264 40.7422 20.7785C40.0521 20.8306 39.5964 20.3744 39.5964 19.5793C39.5833 18.0543 39.5964 16.5163 39.5964 14.9912C39.5964 14.2222 39.5964 13.4662 39.5964 12.632C39.4141 12.7102 39.2839 12.7493 39.1667 12.8145C33.2812 15.7603 27.3958 18.706 21.5104 21.6649C21.0417 21.8995 20.638 21.8995 20.1693 21.6649C17.4349 20.2832 14.6745 18.9016 11.9401 17.5329C11.8359 17.4808 11.7318 17.4417 11.5885 17.3765C11.5755 17.5851 11.5625 17.7545 11.5625 17.924C11.5625 19.7488 11.5625 21.5736 11.5495 23.3984C11.5495 24.0371 11.1068 24.4542 10.4948 24.4412C9.92188 24.4281 9.51823 24.011 9.47917 23.4115C9.46615 23.2681 9.47917 23.1247 9.47917 22.9683C9.47917 20.8828 9.49219 18.7973 9.46615 16.7118C9.46615 16.5293 9.33594 16.2556 9.19271 16.1904C6.92708 15.0303 4.63542 13.8963 2.35677 12.7493C2.30469 12.7232 2.23958 12.7102 2.1224 12.6711C2.10938 12.8406 2.08333 12.9709 2.08333 13.1012C2.08333 18.4584 2.08333 23.8155 2.07031 29.1857C2.07031 29.5116 2.17448 29.668 2.46094 29.8244C7.66927 32.705 12.8646 35.6117 18.0599 38.5053C18.8932 38.9746 19.1536 39.522 18.8151 40.1346C18.4766 40.7212 17.8776 40.7994 17.0703 40.3432C11.6406 37.3192 6.21094 34.3082 0.794271 31.2712C0.494792 31.1018 0.260417 30.815 0 30.5934C0 23.8677 0 17.181 0 10.5074ZM12.8385 15.6299C15.4297 16.9203 17.9297 18.1716 20.4167 19.436C20.7292 19.5924 20.9635 19.5793 21.276 19.4229C26.7839 16.6596 32.2917 13.9094 37.7995 11.1461C37.9427 11.0809 38.0599 10.9897 38.2422 10.8854C38.0469 10.7811 37.9167 10.6899 37.7734 10.6247C35.4167 9.45161 33.0599 8.27851 30.7161 7.07934C30.4036 6.92293 30.1693 6.93597 29.8698 7.09238C25.5859 9.24306 21.3021 11.3937 17.0182 13.5444C15.638 14.2222 14.2839 14.913 12.8385 15.6299ZM3.41146 10.8854C3.55469 10.9766 3.60677 11.0157 3.65885 11.0418C5.83333 12.1367 8.00781 13.2316 10.2083 14.3004C10.3906 14.3916 10.7161 14.3525 10.9115 14.2483C16.4323 11.498 21.9531 8.73471 27.474 5.97142C27.6042 5.90625 27.7344 5.81501 27.9167 5.71073C25.651 4.57674 23.4505 3.48185 21.263 2.37392C20.9375 2.20447 20.6901 2.20447 20.3646 2.37392C15.2734 4.9417 10.1563 7.49644 5.03906 10.0512C4.51823 10.3119 4.01042 10.5856 3.41146 10.8854Z" fill="#191919"/>
<path d="M29.4922 50.0038C28.7369 49.7822 28.1901 49.2869 27.7864 48.6221C26.4323 46.4063 24.6614 44.6075 22.4479 43.2519C22.2135 43.1085 22.0052 42.9261 21.7838 42.7566C20.8463 42.0397 20.5729 40.8797 21.1067 39.8891C21.6406 38.8984 22.8255 38.4422 23.9192 38.8593C24.7526 39.1722 25.5729 39.5502 26.3802 39.9282C26.6666 40.0585 26.8359 40.0194 27.0442 39.7978C28.7369 37.9469 30.4557 36.1221 32.1484 34.2712C32.3177 34.0887 32.4349 33.8541 32.539 33.6847C32.3437 33.6195 32.1744 33.5934 32.0442 33.5152C28.9453 31.8729 25.8333 30.2306 22.7343 28.5882C21.5364 27.9495 21.0807 26.7373 21.5625 25.5903C21.9922 24.5606 22.9557 24.0783 24.1146 24.326C26.289 24.7822 28.4765 25.2514 30.651 25.7076C33.0989 26.229 35.5468 26.7373 37.9948 27.2717C38.2942 27.3369 38.4765 27.2717 38.6718 27.0632C40.2343 25.3818 41.8619 23.7655 43.3724 22.0319C44.5833 20.6372 47.2265 20.533 48.5026 21.3541C49.4922 21.9798 49.8828 22.9313 49.9869 24.0262C50.1172 25.3818 49.7786 26.5809 48.7109 27.5455C47.0703 29.0314 45.4948 30.5825 43.8672 32.0945C43.5677 32.3812 43.4896 32.6289 43.5807 33.0199C44.6354 37.6341 45.6901 42.2483 46.7317 46.8625C47.0182 48.1268 46.5364 49.1305 45.4166 49.5606C44.3229 49.9777 43.151 49.5345 42.5521 48.4396C40.8333 45.2723 39.1276 42.0788 37.3958 38.9115C37.2005 38.5595 36.888 38.2728 36.6276 37.96C36.5885 37.986 36.5494 38.0251 36.5104 38.0512C36.6146 38.1815 36.7187 38.2989 36.8359 38.4553C36.5364 38.742 36.2369 39.0157 35.9505 39.2895C34.3489 40.7754 32.7604 42.2613 31.1458 43.7342C30.8724 43.9819 30.8203 44.1904 30.9896 44.5163C31.276 45.1028 31.5234 45.7024 31.7708 46.302C32.5651 48.1268 32.1614 49.1826 30.3906 49.9907C30.0781 50.0038 29.7916 50.0038 29.4922 50.0038ZM44.9349 47.9965C44.9609 47.9704 44.9869 47.9443 45.013 47.9052C44.8958 47.6445 44.7265 47.4099 44.6614 47.1362C43.6067 42.522 42.5651 37.9078 41.4974 33.2936C41.25 32.2379 41.5104 31.3906 42.3047 30.6477C43.9583 29.1226 45.5729 27.5715 47.2135 26.0335C47.9036 25.3818 48.1119 24.4693 47.7474 23.596C47.6562 23.3875 47.4739 23.1789 47.2786 23.0747C46.4974 22.6706 45.4166 22.8922 44.8177 23.5178C43.2422 25.1862 41.6666 26.8546 40.1041 28.5361C39.4531 29.2399 38.6588 29.5267 37.7213 29.3312C35.2343 28.8098 32.7604 28.2754 30.2864 27.754C28.138 27.2978 25.9896 26.8416 23.8411 26.3984C23.6979 26.3724 23.5416 26.4506 23.3854 26.4766C23.4896 26.6461 23.5677 26.6722 23.6328 26.7113C26.8359 28.4057 30.0521 30.0872 33.2422 31.8077C34.6744 32.5767 34.9088 34.2843 33.8021 35.4965C31.8359 37.6471 29.8437 39.7717 27.8646 41.9094C27.3958 42.4177 27.0703 42.4829 26.4323 42.2092C25.4817 41.7921 24.5312 41.375 23.5677 40.9579C23.3984 40.8927 23.2291 40.8406 23.0599 40.7754C23.138 40.9709 23.2552 41.0882 23.3724 41.1795C25.8593 42.9 28.0078 44.9594 29.5963 47.5533C29.6614 47.6706 29.8307 47.7227 29.9479 47.8009C29.9479 47.6576 29.9869 47.5011 29.9349 47.3708C29.5182 46.3932 29.1015 45.4287 28.6718 44.4641C28.3593 43.7342 28.4244 43.4214 29.0104 42.8609C31.0677 40.9448 33.138 39.0288 35.1953 37.0997C36.5755 35.8093 38.2291 36.083 39.1146 37.7253C40.7942 40.8406 42.4739 43.9688 44.1797 47.084C44.375 47.4229 44.6875 47.6967 44.9349 47.9965Z" fill="#191919"/>
</g>
<defs>
<clipPath id="clip0_222_1481">
<rect width="50" height="50" fill="white"/>
</clipPath>
</defs>
</svg>
