<svg width="22" height="22" viewBox="0 0 22 22" fill="none" xmlns="http://www.w3.org/2000/svg">
<path d="M17.7918 6.43934C14.9318 7.68051 14.5688 7.23409 11.9169 7.33217V5.49884C11.9507 3.70488 11.4504 1.94137 10.4795 0.432424C10.3989 0.295841 10.3237 0.168424 10.2577 0.0465077L8.64896 0.924674C8.72322 1.06217 8.80847 1.20701 8.89921 1.36192C9.70473 2.58873 10.1178 4.03162 10.0835 5.49884V5.87376C5.08771 4.18159 -0.0612025 8.34051 0.000214137 13.7488C-0.0978692 19.5523 5.88246 23.7891 11.0002 21.2655C20.5876 25.3163 26.3938 11.4058 17.7918 6.43934ZM17.9055 4.11101C16.74 5.07207 15.2593 5.56659 13.7502 5.49884C13.6365 2.04026 15.7348 -0.172576 19.2429 0.00617437C19.3357 1.49479 18.8574 2.96278 17.9055 4.11101Z" fill="#191919"/>
</svg>
