<svg width="16" height="16" viewBox="0 0 16 16" fill="none" xmlns="http://www.w3.org/2000/svg">
<path d="M0.00976562 1.14031C0.0358073 1.07235 0.0566406 1.00963 0.077474 0.941678C0.259766 0.392837 0.754557 0.0112627 1.32747 0.00603568C2.73893 0.000808628 4.15039 -0.00441842 5.56185 0.00603568C6.28581 0.0112627 6.87435 0.607146 6.87956 1.33371C6.88997 2.74501 6.88997 4.15631 6.87956 5.56762C6.87435 6.30463 6.2806 6.89529 5.54102 6.90051C4.15039 6.90574 2.75456 6.90574 1.36393 6.90051C0.733724 6.90051 0.218099 6.48758 0.0514323 5.87079C0.0410156 5.8342 0.0253906 5.79761 0.00976563 5.76624C0.00976562 4.22427 0.00976562 2.68229 0.00976562 1.14031ZM3.44206 5.65125C4.0931 5.65125 4.74414 5.64602 5.39518 5.65648C5.56706 5.65648 5.63477 5.60943 5.63477 5.42649C5.62956 4.1145 5.62956 2.80251 5.63477 1.48529C5.63477 1.3128 5.58268 1.2553 5.41081 1.26053C4.10352 1.26575 2.79622 1.26575 1.48372 1.26053C1.30143 1.26053 1.25456 1.32848 1.25456 1.50097C1.25977 2.80773 1.25977 4.1145 1.25456 5.42126C1.25456 5.59898 1.30664 5.6617 1.48893 5.65648C2.13997 5.64602 2.79102 5.65125 3.44206 5.65125Z" fill="#191919"/>
<path d="M9.02051 1.14031C9.04655 1.07235 9.06738 1.00963 9.08822 0.941678C9.27051 0.392837 9.7653 0.0112627 10.3382 0.00603568C11.7497 0.000808628 13.1611 -0.00441842 14.5726 0.00603568C15.2965 0.0112627 15.8851 0.607146 15.8903 1.33371C15.9007 2.74501 15.9007 4.15631 15.8903 5.56762C15.8851 6.30463 15.2913 6.89529 14.5518 6.90051C13.1611 6.90574 11.7653 6.90574 10.3747 6.90051C9.74447 6.90051 9.22884 6.48758 9.06217 5.87079C9.05176 5.8342 9.03613 5.79761 9.02051 5.76624C9.02051 4.22427 9.02051 2.68229 9.02051 1.14031ZM12.4528 5.65125C13.1038 5.65125 13.7549 5.64602 14.4059 5.65648C14.5778 5.65648 14.6455 5.60943 14.6455 5.42649C14.6403 4.1145 14.6403 2.80251 14.6455 1.48529C14.6455 1.3128 14.5934 1.2553 14.4215 1.26053C13.1143 1.26575 11.807 1.26575 10.4945 1.26053C10.3122 1.26053 10.2653 1.32848 10.2653 1.50097C10.2705 2.80773 10.2705 4.1145 10.2653 5.42126C10.2653 5.59898 10.3174 5.6617 10.4997 5.65648C11.1507 5.64602 11.8018 5.65125 12.4528 5.65125Z" fill="#191919"/>
<path d="M0.0104167 10.2341C0.0364583 10.1661 0.0572917 10.1034 0.078125 10.0354C0.260417 9.48659 0.755208 9.10501 1.32292 9.09979C2.73438 9.09456 4.14583 9.08933 5.55729 9.09979C6.28125 9.10501 6.86979 9.7009 6.875 10.4275C6.88542 11.8388 6.88542 13.2501 6.875 14.6614C6.86979 15.3984 6.27604 15.989 5.53646 15.9943C4.13542 15.9995 2.73958 15.9995 1.33854 15.9943C0.744792 15.989 0.234375 15.5918 0.0572917 15.022C0.0416667 14.9645 0.0208333 14.9123 0 14.86C0.0104167 13.318 0.0104167 11.776 0.0104167 10.2341ZM5.63542 12.5287C5.63542 11.8806 5.63021 11.2376 5.64062 10.5895C5.64062 10.417 5.59896 10.3438 5.41146 10.3491C4.10417 10.3543 2.79688 10.3543 1.48438 10.3491C1.31771 10.3491 1.25521 10.4013 1.26042 10.5738C1.26562 11.8858 1.26562 13.1978 1.26042 14.515C1.26042 14.698 1.32292 14.7502 1.5 14.745C2.80208 14.7398 4.10417 14.7398 5.40625 14.745C5.58333 14.745 5.64583 14.6927 5.64062 14.5098C5.63021 13.8512 5.63542 13.1926 5.63542 12.5287Z" fill="#191919"/>
<path d="M9.02018 10.2341C9.04622 10.1661 9.06706 10.1034 9.08789 10.0354C9.27018 9.48659 9.76497 9.10501 10.3327 9.09979C11.7441 9.09456 13.1556 9.08933 14.5671 9.09979C15.291 9.10501 15.8796 9.7009 15.8848 10.4275C15.8952 11.8388 15.8952 13.2501 15.8848 14.6614C15.8796 15.3984 15.2858 15.989 14.5462 15.9943C13.1452 15.9995 11.7493 15.9995 10.3483 15.9943C9.75456 15.989 9.24414 15.5918 9.06706 15.022C9.05143 14.9645 9.0306 14.9123 9.00977 14.86C9.02018 13.318 9.02018 11.776 9.02018 10.2341ZM14.6452 12.5287C14.6452 11.8806 14.64 11.2376 14.6504 10.5895C14.6504 10.417 14.6087 10.3438 14.4212 10.3491C13.1139 10.3543 11.8066 10.3543 10.4941 10.3491C10.3275 10.3491 10.265 10.4013 10.2702 10.5738C10.2754 11.8858 10.2754 13.1978 10.2702 14.515C10.2702 14.698 10.3327 14.7502 10.5098 14.745C11.8118 14.7398 13.1139 14.7398 14.416 14.745C14.5931 14.745 14.6556 14.6927 14.6504 14.5098C14.64 13.8512 14.6452 13.1926 14.6452 12.5287Z" fill="#191919"/>
</svg>
