<svg width="16" height="16" viewBox="0 0 16 16" fill="none" xmlns="http://www.w3.org/2000/svg">
<path d="M11.6667 0.609375C10.916 0.621052 10.1817 0.830611 9.5379 1.21689C8.8941 1.60317 8.36363 2.15249 8.00005 2.80938C7.63648 2.15249 7.10601 1.60317 6.46221 1.21689C5.81841 0.830611 5.08409 0.621052 4.33339 0.609375C3.13668 0.661369 2.00919 1.18488 1.19724 2.06553C0.385293 2.94618 -0.0451135 4.11239 5.35741e-05 5.30938C5.35741e-05 9.82604 7.30405 15.0427 7.61472 15.264L8.00005 15.5367L8.38539 15.264C8.69605 15.044 16.0001 9.82604 16.0001 5.30938C16.0452 4.11239 15.6148 2.94618 14.8029 2.06553C13.9909 1.18488 12.8634 0.661369 11.6667 0.609375ZM8.00005 13.8954C5.83139 12.2754 1.33339 8.29538 1.33339 5.30938C1.28781 4.46585 1.57763 3.63853 2.13963 3.00784C2.70163 2.37715 3.49021 1.99428 4.33339 1.94271C5.17656 1.99428 5.96515 2.37715 6.52714 3.00784C7.08914 3.63853 7.37896 4.46585 7.33339 5.30938H8.66672C8.62115 4.46585 8.91096 3.63853 9.47296 3.00784C10.035 2.37715 10.8235 1.99428 11.6667 1.94271C12.5099 1.99428 13.2985 2.37715 13.8605 3.00784C14.4225 3.63853 14.7123 4.46585 14.6667 5.30938C14.6667 8.29671 10.1687 12.2754 8.00005 13.8954Z" fill="#6E6E6E"/>
</svg>
