<svg width="22" height="22" viewBox="0 0 22 22" fill="none" xmlns="http://www.w3.org/2000/svg">
<path d="M22 19.25C22 20.7689 20.7689 22 19.25 22C17.7311 22 16.5 20.7689 16.5 19.25C16.5 17.7311 17.7311 16.5 19.25 16.5C20.7689 16.5 22 17.7311 22 19.25ZM17.875 6.70817V4.58333C17.875 2.05608 15.8189 0 13.2917 0H10.9918C8.712 0 6.7595 1.70408 6.45059 3.96458L4.24142 20.1703L-0.00366211 20.1878L0.00367122 22.0211L5.84192 21.9972L8.26742 4.213C8.45167 2.85725 9.62317 1.83425 10.9918 1.83425H13.2917C14.8078 1.83425 16.0417 3.06808 16.0417 4.58425V6.41758H11.9167V22.0009H15.6044C15.0242 21.2327 14.6667 20.2877 14.6667 19.2509C14.6667 16.72 16.7191 14.6676 19.25 14.6676C20.2868 14.6676 21.2318 15.0251 22 15.6053V12.3759C22 9.73042 20.2657 7.48367 17.875 6.70817Z" fill="#191919"/>
</svg>
