<svg width="13" height="15" viewBox="0 0 13 15" fill="none" xmlns="http://www.w3.org/2000/svg">
<path d="M6.28097 15L5.84527 14.6265C5.24462 14.1236 0 9.59415 0 6.28097C0 2.81209 2.81209 0 6.28097 0C9.74984 0 12.5619 2.81209 12.5619 6.28097C12.5619 9.59418 7.31731 14.1236 6.71915 14.629L6.28097 15ZM6.28097 1.35813C3.56345 1.3612 1.36123 3.56342 1.35816 6.28094C1.35816 8.36236 4.58485 11.6874 6.28097 13.2092C7.97711 11.6868 11.2038 8.35984 11.2038 6.28094C11.2007 3.56342 8.99851 1.36123 6.28097 1.35813Z" fill="#6E6E6E"/>
<path d="M6.27976 8.7685C4.90473 8.7685 3.79004 7.65382 3.79004 6.27878C3.79004 4.90375 4.90473 3.78906 6.27976 3.78906C7.65479 3.78906 8.76948 4.90375 8.76948 6.27878C8.76948 7.65382 7.65482 8.7685 6.27976 8.7685ZM6.27976 5.03389C5.59224 5.03389 5.0349 5.59124 5.0349 6.27875C5.0349 6.96627 5.59224 7.52361 6.27976 7.52361C6.96728 7.52361 7.52462 6.96627 7.52462 6.27875C7.52462 5.59124 6.96731 5.03389 6.27976 5.03389Z" fill="#6E6E6E"/>
</svg>
