<svg width="15" height="15" viewBox="0 0 15 15" fill="none" xmlns="http://www.w3.org/2000/svg">
<g clip-path="url(#clip0_1051_1262)">
<path d="M6.25 14.375C6.25 14.7206 5.97062 15 5.625 15H3.125C1.40188 15 0 13.5981 0 11.875V3.125C0 1.40188 1.40188 0 3.125 0H8.125C9.84813 0 11.25 1.40188 11.25 3.125V4.375C11.25 4.72062 10.9706 5 10.625 5C10.2794 5 10 4.72062 10 4.375V3.125C10 2.09125 9.15875 1.25 8.125 1.25H3.125C2.09125 1.25 1.25 2.09125 1.25 3.125V11.875C1.25 12.9087 2.09125 13.75 3.125 13.75H5.625C5.97062 13.75 6.25 14.0294 6.25 14.375ZM8.75 3.75C8.75 3.40438 8.47062 3.125 8.125 3.125H3.125C2.77938 3.125 2.5 3.40438 2.5 3.75C2.5 4.09562 2.77938 4.375 3.125 4.375H8.125C8.47062 4.375 8.75 4.09562 8.75 3.75ZM6.25 6.875C6.25 6.52938 5.97062 6.25 5.625 6.25H3.125C2.77938 6.25 2.5 6.52938 2.5 6.875C2.5 7.22062 2.77938 7.5 3.125 7.5H5.625C5.97062 7.5 6.25 7.22062 6.25 6.875ZM3.125 9.375C2.77938 9.375 2.5 9.65438 2.5 10C2.5 10.3456 2.77938 10.625 3.125 10.625H4.375C4.72062 10.625 5 10.3456 5 10C5 9.65438 4.72062 9.375 4.375 9.375H3.125ZM15 10.625C15 13.0369 13.0369 15 10.625 15C8.21313 15 6.25 13.0369 6.25 10.625C6.25 8.21313 8.21313 6.25 10.625 6.25C13.0369 6.25 15 8.21313 15 10.625ZM13.75 10.625C13.75 8.90187 12.3481 7.5 10.625 7.5C8.90187 7.5 7.5 8.90187 7.5 10.625C7.5 12.3481 8.90187 13.75 10.625 13.75C12.3481 13.75 13.75 12.3481 13.75 10.625ZM11.755 9.84937L10.3656 11.1831C10.2756 11.2712 10.1287 11.2731 10.0394 11.1844L9.3325 10.4919C9.085 10.2494 8.69 10.2531 8.44875 10.5006C8.20687 10.7475 8.21062 11.1425 8.4575 11.3844L9.165 12.0775C9.4525 12.3581 9.82875 12.4987 10.2044 12.4987C10.58 12.4987 10.955 12.3581 11.2375 12.0794L12.6206 10.7519C12.8694 10.5125 12.8775 10.1169 12.6388 9.86812C12.3994 9.61812 12.0031 9.61125 11.755 9.85V9.84937Z" fill="#6E6E6E"/>
</g>
<defs>
<clipPath id="clip0_1051_1262">
<rect width="15" height="15" fill="white"/>
</clipPath>
</defs>
</svg>
