<svg width="22" height="26" viewBox="0 0 22 26" fill="none" xmlns="http://www.w3.org/2000/svg">
<path d="M10.9583 25.9879C9.56781 25.9879 8.17732 25.9879 6.77306 25.9879C3.41386 25.9743 0.687956 23.9149 0.151035 20.6497C-0.551092 16.2192 1.03214 12.1953 5.17607 9.93264C5.35504 9.83779 5.58908 9.7836 5.80936 9.7836C9.2787 9.77005 12.7618 9.77005 16.2311 9.7836C16.4514 9.7836 16.6992 9.85134 16.9057 9.97328C20.2374 11.8701 21.917 14.7153 21.9996 18.4954C22.0409 19.9587 21.9445 21.3949 21.146 22.7091C19.8519 24.8227 17.952 25.9201 15.4602 26.0014C13.9595 26.0285 12.4589 25.9879 10.9583 25.9879ZM11.1648 21.6658C11.1648 21.6794 11.1648 21.6929 11.1648 21.7065C11.4952 21.7065 11.8119 21.72 12.1423 21.7065C13.106 21.6794 14.0835 21.7471 15.0196 21.5845C16.6855 21.2865 17.7731 19.7419 17.6216 18.0754C17.4839 16.5038 16.1072 15.1895 14.3863 15.1489C12.1285 15.0947 9.88445 15.0947 7.62663 15.1489C5.78182 15.1895 4.4051 16.6393 4.37757 18.3735C4.35003 20.1213 5.79559 21.6387 7.54403 21.6658C8.75554 21.6794 9.96705 21.6658 11.1648 21.6658Z" fill="#191919"/>
<path d="M14.332 2.15252C14.332 2.8977 14.332 3.60224 14.332 4.33387C15.3646 4.46935 16.1355 4.93001 16.3971 5.95971C16.5073 6.37972 16.4797 6.82683 16.466 7.26039C16.466 7.35523 16.3145 7.47717 16.1906 7.53137C16.0942 7.57201 15.9566 7.54492 15.8327 7.54492C12.6249 7.54492 9.40337 7.53137 6.19561 7.55846C5.69999 7.55846 5.53479 7.46362 5.50725 6.92167C5.45219 5.621 6.07171 4.55065 7.72377 4.32032C7.72377 3.99515 7.71001 3.65643 7.72377 3.33126C7.77884 1.43444 9.11426 0.0524711 11.0417 0.0253736C13.5748 -0.0152725 16.0942 0.0118249 18.6274 0.0253736C19.3295 0.0253736 19.7838 0.48603 19.7838 1.10927C19.7701 1.71896 19.3295 2.12543 18.6274 2.12543C17.3884 2.13897 16.1493 2.12543 14.9103 2.12543C14.7175 2.12543 14.5385 2.13897 14.332 2.15252Z" fill="#191919"/>
<path d="M11.1655 21.6631C9.96771 21.6631 8.7562 21.6766 7.55845 21.6631C5.79625 21.636 4.36446 20.1185 4.39199 18.3707C4.41953 16.6365 5.79625 15.1868 7.64105 15.1461C9.89888 15.0919 12.1429 15.0919 14.4008 15.1461C16.1217 15.1868 17.4984 16.501 17.636 18.0726C17.7875 19.7527 16.6999 21.2972 15.034 21.5818C14.0979 21.7443 13.1204 21.6766 12.1567 21.7037C11.8263 21.7172 11.5096 21.7037 11.1792 21.7037C11.1655 21.6901 11.1655 21.6766 11.1655 21.6631ZM11.014 17.3681C9.96771 17.3681 8.9214 17.3681 7.86133 17.3681C7.10413 17.3681 6.64981 17.761 6.63605 18.3843C6.62228 19.0346 7.10413 19.4817 7.84756 19.4817C9.94018 19.4817 12.0466 19.4953 14.1392 19.4817C14.8964 19.4817 15.3645 19.0481 15.3645 18.3978C15.3507 17.7746 14.8964 17.3817 14.1529 17.3681C13.1204 17.3546 12.0741 17.3681 11.014 17.3681Z" fill="white"/>
<path d="M11.0139 17.3693C12.0602 17.3693 13.1065 17.3693 14.1666 17.3693C14.91 17.3693 15.3643 17.7758 15.3781 18.399C15.3918 19.0493 14.9238 19.4829 14.1528 19.4829C12.0602 19.4965 9.95379 19.4965 7.86117 19.4829C7.11774 19.4829 6.64966 19.0358 6.64966 18.3855C6.66343 17.7622 7.11774 17.3829 7.87494 17.3693C8.92125 17.3558 9.96756 17.3693 11.0139 17.3693Z" fill="#191919"/>
</svg>
