<svg width="25" height="25" viewBox="0 0 25 25" fill="none" xmlns="http://www.w3.org/2000/svg">
<g clip-path="url(#clip0_3806_1972)">
<path d="M20.7924 8.08309L11.1162 0.987724C10.3604 0.434303 9.46613 0.100969 8.53251 0.0246695C7.59889 -0.05163 6.66238 0.132086 5.82678 0.555453C4.99118 0.97882 4.28914 1.6253 3.79846 2.42324C3.30779 3.22118 3.04765 4.1394 3.04688 5.07613V19.274C3.04542 20.2116 3.3042 21.1313 3.79441 21.9306C4.28462 22.7299 4.98702 23.3774 5.82344 23.8012C6.65986 24.225 7.59747 24.4084 8.53191 24.3309C9.46635 24.2534 10.361 23.9181 11.1162 23.3624L20.7924 16.267C21.4344 15.7958 21.9565 15.1801 22.3164 14.4696C22.6762 13.7592 22.8638 12.974 22.8638 12.1776C22.8638 11.3812 22.6762 10.596 22.3164 9.88553C21.9565 9.17508 21.4344 8.55934 20.7924 8.08816V8.08309Z" fill="#191919"/>
</g>
<defs>
<clipPath id="clip0_3806_1972">
<rect width="24.3478" height="24.3478" fill="white"/>
</clipPath>
</defs>
</svg>
