<svg width="22" height="22" viewBox="0 0 22 22" fill="none" xmlns="http://www.w3.org/2000/svg">
<path d="M11.0002 21.9997C5.94566 21.9997 1.8335 17.8876 1.8335 12.8331C1.8335 9.75489 3.21308 7.82897 5.28475 5.88472L7.52875 3.7773L6.80275 6.76839C6.55066 7.80972 6.48466 10.9906 7.82208 12.691C8.38216 13.4032 9.12191 13.7497 10.0835 13.7497C11.0982 13.7497 11.904 12.9394 11.9168 11.9045C11.9297 10.8806 11.497 10.0326 11.0387 9.13614C10.5693 8.21764 10.0835 7.26889 10.0835 6.11572C10.0835 3.63064 11.3778 1.37839 11.4328 1.28397L12.1918 -0.0195312L12.9994 1.25555C13.7777 2.48297 14.8272 3.62697 15.8438 4.73339C17.9696 7.04705 20.1677 9.44139 20.1677 12.834C20.1677 17.8885 16.0556 22.0006 11.0011 22.0006L11.0002 21.9997Z" fill="#191919"/>
</svg>
