<svg width="15" height="15" viewBox="0 0 15 15" fill="none" xmlns="http://www.w3.org/2000/svg">
<g clip-path="url(#clip0_1051_1271)">
<path d="M11.2501 4.375H12.9164C11.702 2.25688 9.35576 1.01562 6.80639 1.28688C3.95014 1.59125 1.62389 3.90438 1.29326 6.7575C0.855762 10.5338 3.80951 13.75 7.50014 13.75C10.9464 13.75 13.7501 10.9462 13.7501 7.5C13.7501 7.15438 14.0295 6.875 14.3751 6.875C14.7208 6.875 15.0001 7.15438 15.0001 7.5C15.0001 11.7338 11.4745 15.1594 7.20451 14.9944C3.34701 14.845 0.155137 11.6538 0.00576244 7.79688C-0.159863 3.52625 3.26639 0 7.50014 0C10.0651 0 12.3783 1.27125 13.747 3.34062L13.7501 1.875C13.7501 1.52938 14.0295 1.25 14.3751 1.25C14.7208 1.25 15.0001 1.52938 15.0001 1.875V4.36938C15.0001 5.0625 14.4383 5.625 13.7445 5.625H11.2501C10.9045 5.625 10.6251 5.34562 10.6251 5C10.6251 4.65438 10.9045 4.375 11.2501 4.375ZM7.50014 11.875C7.84514 11.875 8.12514 11.5956 8.12514 11.25V10.625C9.15889 10.625 10.0001 9.78375 10.0001 8.75C10.0001 7.90063 9.39139 7.18125 8.55326 7.04187L6.65264 6.72563C6.41951 6.68687 6.25014 6.48688 6.25014 6.25C6.25014 5.905 6.53076 5.625 6.87514 5.625H8.29264C8.51514 5.625 8.72264 5.74438 8.83451 5.93813C9.00576 6.23688 9.38826 6.33938 9.68826 6.16562C9.98701 5.99312 10.0895 5.61062 9.91576 5.31187C9.58201 4.73375 8.95951 4.375 8.29201 4.375H8.12451V3.75C8.12451 3.40438 7.84451 3.125 7.49951 3.125C7.15451 3.125 6.87451 3.40438 6.87451 3.75V4.375C5.84076 4.375 4.99951 5.21625 4.99951 6.25C4.99951 7.09937 5.60826 7.81875 6.44639 7.95813L8.34639 8.27437C8.58014 8.31313 8.74951 8.51313 8.74951 8.75C8.74951 9.095 8.46951 9.375 8.12451 9.375H6.70701C6.48451 9.375 6.27701 9.25562 6.16514 9.06187C5.99201 8.7625 5.60951 8.66 5.31139 8.83438C5.01201 9.00688 4.91014 9.38938 5.08326 9.68813C5.41764 10.2663 6.04014 10.625 6.70701 10.625H6.87451V11.25C6.87451 11.5956 7.15451 11.875 7.49951 11.875H7.50014Z" fill="#6E6E6E"/>
</g>
<defs>
<clipPath id="clip0_1051_1271">
<rect width="15" height="15" fill="white"/>
</clipPath>
</defs>
</svg>
