<svg width="22" height="33" viewBox="0 0 22 33" fill="none" xmlns="http://www.w3.org/2000/svg">
<path d="M8.21425 22.0002H13.7142V24.7501H8.21425V22.0002ZM22 20.6252V26.1251C21.9978 27.9478 21.2728 29.6952 19.9839 30.984C18.6951 32.2728 16.9477 32.9978 15.125 33H6.875C5.05231 32.9978 3.30489 32.2728 2.01605 30.984C0.727213 29.6952 0.0021833 27.9478 0 26.1251V20.6252C0.0021833 18.8025 0.727213 17.0551 2.01605 15.7663C3.30489 14.4775 5.05231 13.7525 6.875 13.7503H15.125C16.9477 13.7525 18.6951 14.4775 19.9839 15.7663C21.2728 17.0551 21.9978 18.8025 22 20.6252ZM16.4643 20.6252C16.4643 20.2605 16.3194 19.9108 16.0615 19.6529C15.8037 19.3951 15.4539 19.2502 15.0892 19.2502H6.83925C6.47458 19.2502 6.12484 19.3951 5.86698 19.6529C5.60912 19.9108 5.46425 20.2605 5.46425 20.6252V26.1251C5.46425 26.4898 5.60912 26.8395 5.86698 27.0974C6.12484 27.3552 6.47458 27.5001 6.83925 27.5001H15.0892C15.4539 27.5001 15.8037 27.3552 16.0615 27.0974C16.3194 26.8395 16.4643 26.4898 16.4643 26.1251V20.6252ZM6.875 11.0003C8.9375 11.1062 16.0023 10.6799 17.875 11.4059C18.1583 8.46485 16.5206 6.61275 13.5204 6.87537L12.6005 1.3562C12.5375 0.977263 12.342 0.632987 12.0489 0.384644C11.7558 0.1363 11.3842 0 11 0C10.6158 0 10.2442 0.1363 9.95108 0.384644C9.658 0.632987 9.46255 0.977263 9.3995 1.3562L8.47962 6.87537C5.478 6.61275 3.85 8.46622 4.125 11.4128C5.01668 11.1421 5.94313 11.0031 6.875 11.0003Z" fill="#191919"/>
</svg>
