<svg width="35" height="35" viewBox="0 0 35 35" fill="none" xmlns="http://www.w3.org/2000/svg">
<g clip-path="url(#clip0_1051_1230)">
<path d="M20.0339 35C18.3203 35 16.6159 35 14.9023 35C14.2552 34.7356 14.0365 34.2524 14.0729 33.5686C14.1094 32.7663 14.0729 31.9549 14.082 31.1435C14.082 30.9521 14.0365 30.8609 13.8359 30.8153C13.526 30.7424 13.2161 30.6512 12.9245 30.5236C12.1862 30.2136 11.4479 29.8945 10.6549 29.5481C10.6003 29.6119 10.5273 29.7213 10.4453 29.8125C9.73438 30.5236 9.03255 31.2347 8.32162 31.9367C7.875 32.3743 7.27344 32.4108 6.84505 32.0005C5.70573 30.8883 4.57552 29.7577 3.46354 28.6181C3.0625 28.2079 3.08984 27.5879 3.49089 27.1685C3.59115 27.0591 3.70052 26.9588 3.80078 26.8494C4.48438 26.1657 5.16797 25.4819 5.79688 24.8619C5.26823 23.6403 4.76693 22.4733 4.2474 21.279C3.33594 21.279 2.36979 21.2516 1.40365 21.2881C0.747396 21.3154 0.282552 21.1058 0 20.5132C0 18.7627 0 17.0031 0 15.2436C0.291667 14.6327 0.783854 14.4413 1.44922 14.4777C2.28776 14.5142 3.13542 14.4777 3.97396 14.496C4.17448 14.496 4.25651 14.4321 4.32943 14.2316C4.63021 13.3746 4.94922 12.5267 5.27734 11.6788C5.39583 11.378 5.57812 11.0953 5.74219 10.7945C5.03125 10.0925 4.33854 9.4087 3.64583 8.71581C3.08984 8.15968 3.09896 7.56707 3.64583 7.01094C4.67578 5.98072 5.70573 4.95051 6.73568 3.92029C7.30078 3.35504 7.89323 3.35504 8.45833 3.92029C9.07813 4.54024 9.70703 5.15108 10.3177 5.78927C10.4909 5.96249 10.6003 5.96249 10.8099 5.84397C11.7852 5.27872 12.8242 4.8411 13.9271 4.5676C14.1549 4.51289 14.237 4.42172 14.2279 4.17557C14.2096 3.1727 14.2188 2.17895 14.2188 1.1852C14.2188 0.428497 14.6471 0 15.4036 0C16.8711 0 18.3385 0 19.8151 0C20.5807 0 21.0091 0.41938 21.0091 1.17609C21.0182 2.06043 21.0091 2.95389 21.0091 3.83824C21.0091 4.50378 21.0091 4.50378 21.6289 4.70435C21.793 4.75905 21.957 4.80464 22.112 4.86846C22.9414 5.23313 23.7708 5.60693 24.6276 5.99896C25.3659 5.26048 26.1406 4.49466 26.9063 3.71972C27.4805 3.14535 28.0638 3.13623 28.6289 3.70148C29.6589 4.7317 30.6888 5.76192 31.7188 6.79213C32.2839 7.35738 32.2839 7.93175 31.7279 8.497C31.0078 9.22636 30.2786 9.9466 29.5586 10.676C29.4766 10.758 29.3945 10.8492 29.3125 10.9403C29.9049 11.9979 30.3607 13.0737 30.6432 14.2225C30.6979 14.4321 30.7891 14.4868 30.9896 14.4868C31.9193 14.4777 32.8581 14.4777 33.7878 14.4868C34.5716 14.4868 34.9818 14.9062 34.9818 15.6994C34.9818 17.149 34.9818 18.5895 34.9818 20.0391C34.9818 20.8778 34.5807 21.279 33.7513 21.279C32.7122 21.279 31.6823 21.279 30.707 21.279C30.2148 22.4368 29.7318 23.5673 29.2396 24.7252C29.9961 25.4819 30.7982 26.2751 31.5911 27.0774C32.1562 27.6426 32.1562 28.2352 31.582 28.8005C30.5612 29.8216 29.5404 30.8518 28.5104 31.8729C27.9271 32.4564 27.3529 32.4564 26.7604 31.8638C26.0313 31.1435 25.3112 30.4142 24.582 29.6939C24.5 29.6119 24.418 29.5481 24.3359 29.466C23.2878 30.0768 22.2031 30.5418 21.0456 30.8427C20.8542 30.8974 20.8359 31.0068 20.8359 31.1709C20.8359 31.9914 20.8086 32.8119 20.8451 33.6325C20.9089 34.298 20.6628 34.7538 20.0339 35ZM22.8685 21.1149C22.8229 21.1878 22.7865 21.2607 22.7318 21.3337C21.2188 23.4215 18.3932 24.4334 15.9049 23.7406C13.681 23.1206 12.1862 21.7166 11.3932 19.5468C11.3112 19.3279 11.1745 19.1091 11.0104 18.9542C10.6641 18.6259 10.0898 18.6259 9.71615 18.8903C9.29688 19.1821 9.13281 19.6835 9.33333 20.2214C10.5091 23.4488 12.7878 25.4545 16.1693 25.9924C19.569 26.5303 22.3581 25.3178 24.4909 22.6101C24.6823 22.373 24.8372 22.1086 25.0195 21.8533C25.0651 21.8807 25.0924 21.8989 25.1198 21.9172C25.6211 22.3092 26.1953 22.3183 26.6146 21.9445C27.0156 21.5798 27.0794 20.9964 26.7513 20.4858C26.4232 19.9661 26.0951 19.4465 25.7669 18.9268C25.4935 18.5074 25.1016 18.3342 24.6185 18.4345C23.9258 18.5804 23.2422 18.7536 22.5677 18.945C22.1211 19.0727 21.8659 19.41 21.8203 19.875C21.7747 20.3217 21.9661 20.6773 22.349 20.9052C22.4948 21.0055 22.6771 21.0419 22.8685 21.1149ZM12.1133 13.9034C12.1862 13.794 12.2318 13.7028 12.2956 13.6299C14.2734 10.9403 18.1745 10.2383 20.9727 12.0617C22.2305 12.8823 23.1055 13.9945 23.5977 15.4168C23.7526 15.8726 24.026 16.2008 24.5182 16.2647C25.375 16.3832 25.9948 15.6082 25.6758 14.7512C24.418 11.3506 21.9935 9.31753 18.3932 8.9255C14.9479 8.55171 12.2044 9.9466 10.2174 12.7911C10.1445 12.9005 10.0716 13.0099 9.98958 13.1375C9.9349 13.092 9.89844 13.0646 9.86198 13.0372C9.38802 12.6635 8.80469 12.6726 8.39453 13.0372C8.0026 13.3928 7.92969 13.9763 8.23958 14.4686C8.56771 14.9974 8.90495 15.5262 9.24219 16.055C9.51562 16.4652 9.90755 16.6476 10.3906 16.5473C11.0742 16.3923 11.7669 16.2282 12.4414 16.0367C12.9245 15.9 13.2253 15.4168 13.1888 14.9336C13.1615 14.4595 12.8151 14.0583 12.332 13.9489C12.2773 13.9307 12.2135 13.9216 12.1133 13.9034Z" fill="#30A346"/>
</g>
<defs>
<clipPath id="clip0_1051_1230">
<rect width="35" height="35" fill="white"/>
</clipPath>
</defs>
</svg>
