<svg width="40" height="40" viewBox="0 0 40 40" fill="none" xmlns="http://www.w3.org/2000/svg">
<g clip-path="url(#clip0_830_97)">
<path d="M0.00260417 19.2214C0.888021 17.0443 1.77344 14.8672 2.66927 12.6901C3.33594 11.0547 4.39844 10.3359 6.15885 10.3359C9.7526 10.3359 13.3464 10.3359 16.9401 10.3359C17.0859 10.3359 17.2318 10.3359 17.3672 10.3568C17.7214 10.4193 17.9297 10.6797 17.8984 11.013C17.8672 11.3568 17.6589 11.5651 17.3151 11.5755C16.8568 11.5964 16.3984 11.5964 15.9505 11.5755C15.6901 11.5651 15.5859 11.638 15.5651 11.9193C15.4505 14.3776 15.3047 16.8359 15.1901 19.2943C15.1484 20.2526 15.8359 21.0859 16.7109 21.1693C17.6276 21.263 18.4401 20.638 18.5339 19.638C18.6068 18.9505 18.513 18.2318 18.4818 17.5339C18.4505 16.8984 18.4089 16.263 18.3672 15.6276C18.3464 15.138 18.5547 14.8464 18.9505 14.8255C19.3464 14.8047 19.5859 15.0651 19.6172 15.5651C19.6901 16.8568 19.7526 18.138 19.8359 19.4297C19.8984 20.4714 20.4818 21.0755 21.513 21.1901C21.9089 21.2318 22.1589 21.4922 22.138 21.8464C22.1276 22.2109 21.8568 22.4401 21.4609 22.4401C20.6901 22.4297 20.0443 22.1276 19.5026 21.5964C19.3984 21.5026 19.3255 21.3776 19.2318 21.263C17.8047 22.9089 15.763 22.7422 14.5443 21.2943C13.9297 22.0026 13.1797 22.4505 12.2214 22.4505C11.2734 22.4505 10.5234 22.0234 9.89844 21.2943C9.27344 22.013 8.52344 22.4505 7.5651 22.4505C6.61719 22.4505 5.86719 22.0234 5.32552 21.388C4.78385 21.7109 4.30469 22.1068 3.74219 22.3047C2.28385 22.8151 0.679688 21.9505 0.148438 20.4401C0.0963542 20.2943 0.0442708 20.1589 -0.0078125 20.013C0.00260417 19.7422 0.00260417 19.4818 0.00260417 19.2214ZM10.6901 11.5859C9.9401 11.5859 9.22135 11.5964 8.51302 11.5755C8.24219 11.5651 8.1276 11.6589 8.05469 11.9193C7.35677 14.3359 6.64844 16.763 5.96094 19.1797C5.90885 19.3464 5.89844 19.5443 5.92969 19.7109C6.07552 20.5859 6.76302 21.1797 7.59635 21.1693C8.41927 21.1693 9.09635 20.5651 9.24219 19.6901C9.54427 17.9922 9.84635 16.2839 10.1484 14.5859C10.3255 13.6068 10.5026 12.6276 10.6901 11.5859ZM11.9818 11.6068C11.9505 11.6797 11.9297 11.7109 11.9297 11.7526C11.4714 14.263 11.013 16.763 10.5651 19.2734C10.5339 19.4505 10.5547 19.638 10.5964 19.8151C10.7943 20.6901 11.5339 21.2422 12.388 21.1797C13.2109 21.1172 13.8672 20.4193 13.9193 19.5234C14.0651 16.9401 14.2109 14.3568 14.3464 11.763C14.3464 11.7109 14.3255 11.6693 14.3151 11.6068C13.5234 11.6068 12.763 11.6068 11.9818 11.6068ZM6.85677 11.5964C6.48177 11.5964 6.15885 11.5859 5.83594 11.5964C4.89844 11.6276 4.26302 12.1068 3.90885 12.9401C3.04427 15.013 2.1901 17.0964 1.34635 19.1797C1.26302 19.388 1.2526 19.6693 1.30469 19.888C1.51302 20.7214 2.24219 21.2318 3.07552 21.1589C3.86719 21.0964 4.5026 20.4193 4.60677 19.5755C4.63802 19.3151 4.67969 19.0651 4.7526 18.8151C5.21094 17.2318 5.67969 15.6484 6.13802 14.0651C6.3776 13.263 6.60677 12.4505 6.85677 11.5964Z" fill="#30A346"/>
<path d="M3.36198 40.0039C3.03906 39.806 2.94531 39.5247 2.94531 39.1497C2.95573 34.0352 2.95573 28.9206 2.95573 23.7956C2.95573 23.7018 2.95573 23.6081 2.96615 23.5248C3.00781 23.1914 3.19531 23.0039 3.51823 22.9727C3.84115 22.9414 4.08073 23.0977 4.16406 23.4206C4.20573 23.5768 4.20573 23.7539 4.20573 23.9206C4.20573 28.7018 4.20573 33.4727 4.20573 38.2539C4.20573 38.4102 4.20573 38.556 4.20573 38.7331C12.6641 38.7331 21.0807 38.7331 29.5495 38.7331C29.5495 38.5768 29.5495 38.4206 29.5495 38.2748C29.5495 35.7018 29.5495 33.1185 29.5495 30.5456C29.5495 30.3998 29.5391 30.2539 29.5703 30.1185C29.6328 29.7748 29.9036 29.556 30.237 29.5873C30.5807 29.6185 30.7787 29.8164 30.7995 30.1706C30.8099 30.2435 30.7995 30.3268 30.7995 30.3997C30.7995 33.3164 30.7995 36.2331 30.8099 39.1497C30.8099 39.5247 30.7161 39.806 30.3932 40.0039C21.3724 40.0039 12.362 40.0039 3.36198 40.0039Z" fill="#30A346"/>
<path d="M20.3674 10.2846C20.3465 4.00338 25.4195 -0.559119 31.2111 0.0554645C36.4299 0.617965 40.284 5.1388 39.982 10.368C39.8986 11.9409 39.4507 13.4096 38.659 14.7742C36.0549 19.2013 33.4299 23.618 30.8153 28.0346C30.4195 28.7117 29.9195 28.7117 29.5236 28.0346C26.8986 23.6075 24.2736 19.17 21.6695 14.7325C20.784 13.2221 20.357 11.5763 20.3674 10.2846ZM30.1799 26.6596C30.284 26.493 30.357 26.368 30.4299 26.243C32.784 22.2534 35.1382 18.2742 37.4924 14.2846C38.5028 12.5867 38.8986 10.7534 38.6799 8.78463C38.1486 4.03463 33.5653 0.555465 28.8361 1.33671C22.8049 2.33671 19.7007 8.97213 22.8049 14.2325C25.1695 18.243 27.5445 22.243 29.909 26.2534C30.0028 26.3784 30.0757 26.493 30.1799 26.6596Z" fill="#30A346"/>
<path d="M7.86477 33.5236C7.86477 32.1695 7.80227 30.8153 7.87519 29.4611C8.00019 27.1695 9.91686 25.4403 12.2085 25.4611C14.4794 25.482 16.396 27.2736 16.4481 29.5653C16.5106 32.2736 16.4689 34.982 16.4689 37.6903C16.4689 38.1174 16.2085 38.3778 15.8335 38.3778C15.4585 38.3674 15.2294 38.107 15.2294 37.6695C15.2294 35.0653 15.2294 32.4611 15.2294 29.857C15.2294 28.284 14.1877 27.0445 12.6773 26.7528C11.0314 26.4403 9.34394 27.659 9.13561 29.3257C9.10436 29.5861 9.09394 29.8465 9.09394 30.107C9.09394 32.5445 9.09394 34.9715 9.09394 37.409C9.09394 37.5653 9.10436 37.7215 9.07311 37.8778C9.01061 38.1799 8.81269 38.357 8.51061 38.3674C8.19811 38.3882 7.97936 38.232 7.89602 37.9299C7.85436 37.784 7.85436 37.6174 7.85436 37.4715C7.85436 36.159 7.85436 34.8465 7.85436 33.5236C7.85436 33.5236 7.85436 33.5236 7.86477 33.5236Z" fill="#30A346"/>
<path d="M23.3464 33.9974C22.2422 33.9974 21.138 33.9974 20.0234 33.9974C19.4505 33.9974 19.2422 33.7891 19.2422 33.2161C19.2422 31.4453 19.2422 29.6745 19.2422 27.9036C19.2422 27.362 19.4609 27.1328 20.0026 27.1328C22.2526 27.1224 24.5026 27.1224 26.7526 27.1328C27.2734 27.1328 27.4922 27.3724 27.4922 27.8828C27.4922 29.6745 27.4922 31.4766 27.4922 33.2682C27.4922 33.7578 27.263 33.987 26.7734 33.987C25.638 33.9974 24.4922 33.9974 23.3464 33.9974ZM20.513 28.4141C20.513 29.862 20.513 31.2891 20.513 32.7161C22.4297 32.7161 24.3255 32.7161 26.2214 32.7161C26.2214 31.2682 26.2214 29.8516 26.2214 28.4141C24.3151 28.4141 22.4297 28.4141 20.513 28.4141Z" fill="#30A346"/>
<path d="M23.356 36.1016C21.9289 36.1016 20.4914 36.1016 19.0643 36.1016C18.7623 36.1016 18.5227 36.0286 18.3873 35.7474C18.2206 35.4141 18.3977 35.0078 18.7623 34.9036C18.9081 34.862 19.0748 34.8516 19.2206 34.8516C21.9914 34.8516 24.7623 34.8516 27.5331 34.8516C27.606 34.8516 27.6893 34.8516 27.7623 34.8516C28.1581 34.8932 28.4185 35.1536 28.4081 35.4974C28.3977 35.8516 28.1373 36.0911 27.7206 36.0911C26.2727 36.112 24.8143 36.1016 23.356 36.1016Z" fill="#30A346"/>
<path d="M13.2005 33.1328C13.5234 33.1328 13.8255 33.4245 13.8255 33.7578C13.8255 34.0911 13.5443 34.3724 13.2109 34.3724C12.8672 34.3724 12.5859 34.1016 12.5859 33.7578C12.5859 33.4349 12.8672 33.1432 13.2005 33.1328Z" fill="#30A346"/>
<path d="M36.1381 9.8099C36.1485 13.0911 33.4714 15.7786 30.1901 15.7786C26.8985 15.7786 24.2214 13.1328 24.211 9.84115C24.2006 6.52865 26.8672 3.85156 30.1797 3.85156C33.4714 3.85156 36.1381 6.51823 36.1381 9.8099ZM25.461 9.78906C25.4506 12.4036 27.5443 14.5182 30.1485 14.5286C32.7631 14.5391 34.8776 12.4349 34.8881 9.83073C34.8985 7.2474 32.7631 5.10156 30.1693 5.10156C27.5964 5.10156 25.4714 7.20573 25.461 9.78906Z" fill="#30A346"/>
<path d="M30.1641 12.6641C28.5703 12.6641 27.3203 11.3932 27.3203 9.79948C27.3203 8.22656 28.612 6.94531 30.1745 6.94531C31.737 6.94531 33.0286 8.25781 33.0286 9.82031C33.0182 11.4036 31.737 12.6745 30.1641 12.6641ZM30.1849 11.4141C31.0807 11.4036 31.7995 10.6745 31.7786 9.78906C31.7578 8.91406 31.0391 8.20573 30.1745 8.20573C29.2786 8.20573 28.5703 8.92448 28.5703 9.82031C28.5703 10.7266 29.2786 11.4245 30.1849 11.4141Z" fill="#30A346"/>
</g>
<defs>
<clipPath id="clip0_830_97">
<rect width="40" height="40" fill="white"/>
</clipPath>
</defs>
</svg>
