<svg width="30" height="30" viewBox="0 0 30 30" fill="none" xmlns="http://www.w3.org/2000/svg">
<g clip-path="url(#clip0_3806_1942)">
<path d="M15 21.25C14.0111 21.25 13.0444 20.9568 12.2221 20.4074C11.3999 19.8579 10.759 19.0771 10.3806 18.1634C10.0022 17.2498 9.90315 16.2445 10.0961 15.2746C10.289 14.3046 10.7652 13.4137 11.4645 12.7145C12.1637 12.0152 13.0546 11.539 14.0245 11.3461C14.9945 11.1531 15.9998 11.2522 16.9134 11.6306C17.827 12.009 18.6079 12.6499 19.1573 13.4722C19.7068 14.2944 20 15.2611 20 16.25C20 17.5761 19.4732 18.8479 18.5355 19.7855C17.5979 20.7232 16.3261 21.25 15 21.25ZM22.5 26.25C22.5 25.2554 22.1049 24.3016 21.4017 23.5984C20.6984 22.8951 19.7446 22.5 18.75 22.5H11.25C10.2554 22.5 9.30161 22.8951 8.59835 23.5984C7.89509 24.3016 7.5 25.2554 7.5 26.25V30H22.5V26.25ZM22.5 10C21.5111 10 20.5444 9.70676 19.7221 9.15735C18.8999 8.60794 18.259 7.82705 17.8806 6.91342C17.5022 5.99979 17.4031 4.99446 17.5961 4.02455C17.789 3.05465 18.2652 2.16373 18.9645 1.46447C19.6637 0.765206 20.5546 0.289002 21.5245 0.0960758C22.4945 -0.0968503 23.4998 0.00216641 24.4134 0.380605C25.327 0.759043 26.1079 1.39991 26.6573 2.22215C27.2068 3.0444 27.5 4.0111 27.5 5C27.5 6.32609 26.9732 7.59785 26.0355 8.53554C25.0979 9.47322 23.8261 10 22.5 10ZM7.5 10C6.51109 10 5.54439 9.70676 4.72215 9.15735C3.8999 8.60794 3.25904 7.82705 2.8806 6.91342C2.50216 5.99979 2.40315 4.99446 2.59607 4.02455C2.789 3.05465 3.2652 2.16373 3.96447 1.46447C4.66373 0.765206 5.55464 0.289002 6.52455 0.0960758C7.49445 -0.0968503 8.49979 0.00216641 9.41342 0.380605C10.327 0.759043 11.1079 1.39991 11.6573 2.22215C12.2068 3.0444 12.5 4.0111 12.5 5C12.5 6.32609 11.9732 7.59785 11.0355 8.53554C10.0979 9.47322 8.82608 10 7.5 10ZM7.5 16.25C7.49935 14.403 8.18394 12.6214 9.42125 11.25H3.75C2.75544 11.25 1.80161 11.6451 1.09835 12.3484C0.395088 13.0516 0 14.0054 0 15L0 18.75H7.93625C7.64919 17.9477 7.50164 17.1021 7.5 16.25ZM22.0637 18.75H30V15C30 14.0054 29.6049 13.0516 28.9017 12.3484C28.1984 11.6451 27.2446 11.25 26.25 11.25H20.5787C21.4818 12.2488 22.0968 13.4738 22.3583 14.7947C22.6199 16.1155 22.518 17.4825 22.0637 18.75Z" fill="white"/>
</g>
<defs>
<clipPath id="clip0_3806_1942">
<rect width="30" height="30" fill="white"/>
</clipPath>
</defs>
</svg>
