<svg width="35" height="35" viewBox="0 0 35 35" fill="none" xmlns="http://www.w3.org/2000/svg">
<g clip-path="url(#clip0_1051_1219)">
<path d="M0 32.6772C0 25.8869 0 19.0965 0 12.3061C0.0182292 12.2514 0.0455729 12.2059 0.0638021 12.1512C0.410156 10.784 1.41276 9.9728 2.82552 9.9728C11.5846 9.9728 20.3438 9.96369 29.1029 9.9728C30.7799 9.9728 31.9284 11.1395 31.9284 12.8166C31.9284 14.2293 31.9284 15.6421 31.9284 17.0548C31.9284 17.1551 31.9193 17.2554 31.9102 17.3738C31.7643 17.3738 31.6367 17.3738 31.5182 17.3738C30.0508 17.3738 28.5833 17.3647 27.1068 17.3738C23.8255 17.4103 21.4284 20.4272 22.1393 23.6264C22.6497 25.9142 24.6641 27.5822 27.0065 27.6186C28.5104 27.646 30.0143 27.6277 31.5182 27.6277C31.6367 27.6277 31.7643 27.6277 31.8828 27.6277C31.901 27.6915 31.9193 27.728 31.9193 27.7554C31.9193 29.3139 31.9557 30.8725 31.901 32.4311C31.8646 33.4793 31.3086 34.254 30.3607 34.7189C30.1237 34.8374 29.8503 34.9012 29.5951 34.9923C20.4987 34.9923 11.4115 34.9923 2.3151 34.9923C1.93229 34.8283 1.53125 34.7098 1.17578 34.5001C0.510417 34.09 0.191406 33.4155 0 32.6772Z" fill="#30A346"/>
<path d="M18.8858 1.907C18.4301 1.907 18.029 1.89788 17.6371 1.907C15.7595 1.95257 14.3103 3.42913 14.2921 5.30674C14.283 6.16351 14.2921 7.01116 14.2921 7.91351C14.1554 7.91351 14.0369 7.91351 13.9093 7.91351C10.9379 7.91351 7.96655 7.90439 4.99519 7.92262C4.71264 7.92262 4.59415 7.84059 4.51212 7.57627C4.36629 7.11142 4.17488 6.65569 4.01993 6.19997C3.75561 5.43434 4.08374 4.70517 4.84936 4.43174C8.81421 2.98252 12.7882 1.5333 16.7621 0.0931953C17.5004 -0.180242 18.2296 0.166112 18.5212 0.895279C18.6488 1.20517 18.7491 1.5333 18.8858 1.907Z" fill="#30A346"/>
<path d="M30.434 25.5724C29.3038 25.5724 28.1827 25.5906 27.0525 25.5632C25.3481 25.5268 24.0356 24.1323 24.0629 22.4278C24.0903 20.7872 25.4119 19.4474 27.089 19.4291C29.3676 19.4018 31.6463 19.42 33.9249 19.42C34.5629 19.42 34.9913 19.8575 35.0004 20.4955C35.0095 21.8263 35.0095 23.157 35.0004 24.4968C35.0004 25.144 34.572 25.5632 33.9249 25.5632C32.7582 25.5815 31.6007 25.5724 30.434 25.5724ZM27.1254 23.5216C27.6905 23.5307 28.1554 23.0841 28.1645 22.5281C28.1736 21.963 27.6996 21.4708 27.1345 21.4799C26.5877 21.4799 26.1137 21.9539 26.1137 22.5007C26.1137 23.0567 26.5603 23.5125 27.1254 23.5216Z" fill="#30A346"/>
<path d="M16.3419 7.89468C16.3419 6.98322 16.3145 6.0991 16.351 5.20587C16.3783 4.49494 16.9708 3.96629 17.7182 3.95718C19.4135 3.94806 21.1088 3.95718 22.8132 3.95718C24.1348 3.95718 25.4565 3.95718 26.7781 3.95718C27.7624 3.95718 28.3002 4.49494 28.3002 5.4702C28.3002 6.24494 28.3002 7.01968 28.3002 7.79442C28.3002 7.81264 28.2911 7.83999 28.282 7.88556C24.3171 7.89468 20.3523 7.89468 16.3419 7.89468Z" fill="#30A346"/>
</g>
<defs>
<clipPath id="clip0_1051_1219">
<rect width="35" height="35" fill="white"/>
</clipPath>
</defs>
</svg>
