<svg width="179" height="179" viewBox="0 0 179 179" fill="none" xmlns="http://www.w3.org/2000/svg">
<g clip-path="url(#clip0_3434_623)">
<path d="M94.2002 17C94.0002 17 93.9002 16.9 93.8002 16.8C93.7002 16.7 93.7002 16.5 93.7002 16.3L96.1002 0.6C96.1002 0.4 96.2002 0.3 96.3002 0.2C96.5002 0 96.7002 0 96.9002 0L104.1 1.1C105.4 1.3 106.5 1.7 107.3 2.2C108.1 2.7 108.6 3.4 108.9 4.1C109.2 4.9 109.3 5.7 109.1 6.7C109 7.3 108.8 7.8 108.5 8.2C108.2 8.6 107.9 8.9 107.5 9.2C107.1 9.4 106.8 9.6 106.5 9.7C107.1 10.1 107.6 10.7 107.9 11.4C108.2 12.1 108.4 13 108.2 13.9C108 14.9 107.7 15.8 107.1 16.5C106.5 17.2 105.8 17.7 104.8 18C103.8 18.3 102.7 18.3 101.5 18.1L94.2002 17ZM97.9002 14.6L101.6 15.2C102.4 15.3 103 15.2 103.5 14.8C104 14.4 104.3 13.9 104.4 13.3C104.5 12.7 104.4 12.1 104 11.6C103.7 11.1 103.1 10.8 102.3 10.7L98.6002 10.1L97.9002 14.6ZM99.0002 7.4L102.5 7.9C103.3 8 103.9 7.9 104.3 7.6C104.7 7.3 105 6.8 105.1 6.2C105.2 5.6 105.1 5.1 104.8 4.7C104.5 4.3 103.9 4 103.2 3.9L99.7002 3.4L99.0002 7.4Z" fill="black"/>
<path d="M115.9 22.4016C114.6 21.9016 113.5 21.2016 112.7 20.3016C111.9 19.4016 111.4 18.5016 111.2 17.3016C111 16.1016 111.2 14.9016 111.8 13.4016L115.5 4.10156C115.6 3.90156 115.7 3.80156 115.8 3.80156C115.9 3.70156 116.1 3.70156 116.3 3.80156L118.8 4.80156C119 4.90156 119.1 5.00156 119.1 5.10156C119.2 5.20156 119.2 5.40156 119.1 5.60156L115.4 14.9016C114.9 16.0016 114.9 17.0016 115.2 17.7016C115.5 18.5016 116.1 19.0016 117.1 19.4016C118 19.8016 118.9 19.8016 119.6 19.5016C120.4 19.2016 121 18.4016 121.4 17.3016L125.1 8.00156C125.2 7.80156 125.3 7.70156 125.4 7.70156C125.6 7.60156 125.7 7.60156 125.9 7.70156L128.4 8.70156C128.6 8.80156 128.7 8.90156 128.7 9.00156C128.8 9.10156 128.8 9.30156 128.7 9.50156L125 18.8016C124.4 20.2016 123.7 21.3016 122.8 22.0016C121.9 22.7016 120.8 23.1016 119.7 23.1016C118.5 23.2016 117.2 23.0016 115.9 22.4016Z" fill="black"/>
<path d="M129 29.1016C128.9 29.0016 128.8 28.9016 128.7 28.7016C128.7 28.5016 128.7 28.4016 128.8 28.2016L131.9 23.8016L133.1 12.0016V11.9016C133.1 11.9016 133.1 11.8016 133.2 11.8016C133.3 11.7016 133.4 11.6016 133.5 11.6016C133.6 11.6016 133.8 11.6016 133.9 11.7016L136 13.2016C136.2 13.3016 136.3 13.5016 136.3 13.6016C136.3 13.7016 136.4 13.9016 136.3 14.0016L135.6 21.7016L142.6 18.4016C142.7 18.3016 142.8 18.3016 143 18.3016C143.2 18.3016 143.4 18.3016 143.5 18.5016L145.6 20.0016C145.7 20.1016 145.8 20.2016 145.8 20.3016C145.8 20.4016 145.8 20.6016 145.7 20.7016L145.6 20.8016L145.5 20.9016L135.2 26.0016L132.1 30.4016C132 30.5016 131.9 30.6016 131.7 30.7016C131.5 30.7016 131.4 30.7016 131.2 30.6016L129 29.1016Z" fill="black"/>
<path d="M141.1 38.9031C141 38.8031 140.9 38.6031 140.9 38.5031C140.9 38.3031 141 38.2031 141.1 38.1031L153.3 27.9031C153.4 27.8031 153.6 27.7031 153.7 27.7031C153.9 27.7031 154 27.8031 154.1 27.9031L161.2 36.4031C161.3 36.5031 161.4 36.7031 161.4 36.8031C161.4 37.0031 161.3 37.1031 161.2 37.2031L159.7 38.5031C159.6 38.6031 159.4 38.6031 159.3 38.6031C159.2 38.6031 159 38.5031 158.9 38.4031L153.8 32.3031L150.8 34.8031L155.5 40.5031C155.6 40.6031 155.7 40.8031 155.7 40.9031C155.7 41.0031 155.6 41.2031 155.5 41.3031L154.1 42.5031C154 42.6031 153.8 42.6031 153.7 42.6031C153.5 42.6031 153.4 42.5031 153.3 42.4031L148.6 36.7031L145.5 39.2031L150.7 45.5031C150.8 45.6031 150.9 45.8031 150.8 45.9031C150.8 46.1031 150.7 46.2031 150.6 46.3031L149.1 47.5031C149 47.6031 148.8 47.7031 148.7 47.6031C148.5 47.6031 148.4 47.5031 148.3 47.4031L141.1 38.9031Z" fill="black"/>
<path d="M149.4 49C149.3 48.9 149.3 48.7 149.4 48.6C149.4 48.5 149.5 48.4 149.6 48.3H149.7C149.8 48.3 149.8 48.3 149.9 48.3L159.4 49.4L163.8 41.4C163.9 41.3 163.9 41.2 164 41.2C164.1 41.1 164.2 41.1 164.4 41.2C164.6 41.3 164.6 41.3 164.7 41.5L166.1 44.2C166.2 44.4 166.2 44.6 166.2 44.7C166.2 44.9 166.1 45 166 45.1L163.2 50.3L169.1 51C169.2 51 169.4 51 169.5 51.1C169.6 51.2 169.8 51.3 169.9 51.5L171.2 54C171.3 54.1 171.3 54.2 171.2 54.4C171.2 54.5 171.1 54.6 171 54.7C170.9 54.8 170.8 54.8 170.7 54.8L161.7 53.9L157.2 62.4C157.2 62.5 157.1 62.5 157.1 62.5L157 62.6C156.9 62.7 156.8 62.7 156.6 62.6C156.5 62.6 156.4 62.5 156.3 62.3L154.9 59.5C154.8 59.3 154.8 59.1 154.8 59C154.8 58.8 154.9 58.7 154.9 58.6L157.8 53L151.6 52.3C151.5 52.3 151.4 52.3 151.2 52.2C151 52.1 150.9 52 150.8 51.8L149.4 49Z" fill="black"/>
<path d="M158.3 69.8016C157.9 68.3016 157.8 67.0016 158 65.8016C158.2 64.6016 158.7 63.6016 159.5 62.8016C160.3 62.0016 161.4 61.3016 162.7 60.9016C163.3 60.7016 164 60.5016 164.8 60.3016C165.5 60.1016 166.2 59.9016 166.9 59.7016C168.3 59.4016 169.5 59.4016 170.6 59.7016C171.7 60.0016 172.7 60.6016 173.5 61.5016C174.3 62.4016 174.9 63.6016 175.3 65.0016C175.6 66.1016 175.7 67.1016 175.7 68.0016C175.7 68.9016 175.5 69.8016 175.2 70.6016C174.9 71.4016 174.4 72.0016 173.8 72.6016C173.2 73.2016 172.5 73.5016 171.7 73.8016C171.6 73.8016 171.4 73.8016 171.3 73.7016C171.2 73.6016 171.1 73.5016 171.1 73.4016L170.3 70.7016C170.2 70.5016 170.3 70.3016 170.3 70.2016C170.4 70.1016 170.5 69.9016 170.7 69.8016C171.6 69.3016 172.1 68.7016 172.3 68.1016C172.5 67.5016 172.5 66.7016 172.2 65.9016C171.9 64.9016 171.4 64.2016 170.8 63.8016C170.1 63.4016 169.1 63.3016 167.9 63.6016C166.6 63.9016 165.3 64.3016 163.9 64.7016C162.7 65.1016 161.9 65.6016 161.5 66.4016C161.1 67.1016 161.1 68.0016 161.3 68.9016C161.5 69.7016 161.9 70.4016 162.4 70.8016C162.9 71.3016 163.7 71.5016 164.6 71.4016C164.9 71.4016 165 71.4016 165.2 71.5016C165.3 71.6016 165.4 71.7016 165.5 71.9016L166.3 74.6016C166.3 74.7016 166.3 74.9016 166.3 75.0016C166.2 75.1016 166.1 75.2016 166 75.3016C165.2 75.5016 164.3 75.5016 163.6 75.4016C162.8 75.2016 162.1 74.9016 161.4 74.4016C160.7 73.9016 160.1 73.3016 159.6 72.5016C159 71.8016 158.6 70.9016 158.3 69.8016Z" fill="black"/>
<path d="M160.6 79.4016C160.6 79.2016 160.6 79.1016 160.7 78.9016C160.8 78.7016 161 78.7016 161.1 78.7016L177 77.6016C177.2 77.6016 177.3 77.6016 177.5 77.7016C177.6 77.8016 177.7 77.9016 177.7 78.1016L177.9 80.8016C177.9 81.0016 177.9 81.1016 177.8 81.3016C177.7 81.4016 177.5 81.5016 177.4 81.5016L164.2 82.4016L164.7 90.0016C164.7 90.2016 164.7 90.3016 164.6 90.5016C164.5 90.6016 164.3 90.7016 164.2 90.7016L162.1 90.8016C161.9 90.8016 161.8 90.8016 161.6 90.7016C161.5 90.6016 161.4 90.5016 161.4 90.3016L160.6 79.4016Z" fill="black"/>
<path d="M160.2 99.0023C160.4 97.6023 160.8 96.4023 161.4 95.4023C162 94.4023 162.9 93.7023 164 93.2023C165.1 92.8023 166.4 92.6023 167.9 92.9023L177.8 94.3023C178 94.3023 178.1 94.4023 178.2 94.5023C178.3 94.6023 178.3 94.8023 178.3 95.0023L177.9 97.6023C177.9 97.8023 177.8 97.9023 177.7 98.0023C177.6 98.1023 177.4 98.1023 177.2 98.1023L167.3 96.7023C166.1 96.5023 165.2 96.7023 164.5 97.2023C163.8 97.7023 163.4 98.4023 163.3 99.5023C163.2 100.502 163.3 101.302 163.8 102.002C164.3 102.602 165.2 103.102 166.4 103.202L176.3 104.602C176.5 104.602 176.6 104.702 176.7 104.802C176.8 104.902 176.8 105.102 176.8 105.202L176.4 107.902C176.4 108.102 176.3 108.202 176.2 108.302C176.1 108.402 175.9 108.402 175.7 108.402L165.8 107.002C164.3 106.802 163 106.302 162.1 105.602C161.2 104.902 160.6 104.002 160.2 102.802C160 101.702 160 100.402 160.2 99.0023Z" fill="black"/>
<path d="M156.3 114.197C156.9 112.697 157.5 111.597 158.3 110.797C159.1 109.997 159.9 109.397 160.8 109.197C161.7 108.997 162.5 108.997 163.3 109.197C163.4 109.197 163.5 109.297 163.6 109.497C163.7 109.597 163.7 109.797 163.6 109.897L162.7 112.397C162.6 112.597 162.5 112.697 162.4 112.797C162.3 112.897 162.1 112.897 162 112.997C161.7 112.997 161.4 113.097 161 113.197C160.7 113.297 160.3 113.597 160 113.897C159.7 114.197 159.4 114.697 159.2 115.297C158.8 116.297 158.7 117.097 158.8 117.697C158.9 118.297 159.3 118.697 159.8 118.897C160.2 118.997 160.6 118.997 160.9 118.897C161.2 118.697 161.6 118.397 162 117.897C162.4 117.397 162.9 116.697 163.5 115.897C164.2 114.797 164.9 113.997 165.5 113.297C166.2 112.597 166.9 112.197 167.7 112.097C168.5 111.897 169.3 111.997 170.2 112.397C171.1 112.697 171.8 113.297 172.4 114.097C173 114.897 173.2 115.797 173.3 116.897C173.4 117.997 173.2 119.097 172.7 120.397C172.3 121.397 171.8 122.297 171.3 122.997C170.7 123.697 170.1 124.197 169.5 124.597C168.9 124.997 168.2 125.197 167.6 125.297C167 125.397 166.4 125.297 166 125.197C165.9 125.197 165.8 125.097 165.7 124.897C165.6 124.797 165.6 124.597 165.7 124.497L166.7 121.897C166.8 121.697 166.8 121.597 166.9 121.497C167 121.397 167.2 121.297 167.3 121.297C167.7 121.397 168.2 121.197 168.6 120.897C169 120.597 169.4 119.997 169.7 119.297C170 118.597 170.1 117.897 170 117.397C169.9 116.897 169.5 116.497 169 116.297C168.6 116.197 168.3 116.197 167.9 116.297C167.6 116.397 167.2 116.697 166.8 117.197C166.4 117.697 165.9 118.297 165.4 119.097C164.6 120.297 163.9 121.297 163.2 121.997C162.5 122.697 161.8 123.097 161 123.297C160.2 123.497 159.4 123.397 158.5 122.997C157.5 122.597 156.7 121.997 156.2 121.097C155.7 120.197 155.4 119.297 155.4 118.097C155.6 116.797 155.8 115.597 156.3 114.197Z" fill="black"/>
<path d="M152.5 123.198C152.6 122.998 152.7 122.898 152.9 122.898C153.1 122.898 153.2 122.898 153.4 122.998L167.3 130.798C167.5 130.898 167.6 130.998 167.6 131.198C167.6 131.398 167.6 131.498 167.5 131.698L166.1 134.098C166 134.298 165.9 134.398 165.7 134.398C165.5 134.398 165.4 134.398 165.2 134.298L151.3 126.498C151.1 126.398 151 126.298 151 126.098C151 125.898 151 125.798 151.1 125.598L152.5 123.198Z" fill="black"/>
<path d="M146.4 132.697C146.6 132.497 146.7 132.397 147 132.297C147.2 132.297 147.4 132.297 147.6 132.397L163.1 138.197C163.2 138.197 163.2 138.297 163.3 138.297C163.4 138.397 163.5 138.497 163.5 138.597C163.5 138.697 163.5 138.897 163.4 138.997L161.8 140.997C161.6 141.197 161.5 141.297 161.3 141.297C161.1 141.297 161 141.297 160.8 141.297L149.1 136.797L156.1 147.197C156.2 147.297 156.2 147.497 156.2 147.597C156.2 147.797 156.2 147.997 156 148.197L154.4 150.197C154.3 150.297 154.2 150.397 154 150.397C153.9 150.397 153.7 150.397 153.6 150.297C153.5 150.297 153.5 150.197 153.4 150.097L144.3 136.297C144.2 136.097 144.1 135.997 144.1 135.697C144.1 135.497 144.2 135.297 144.3 135.097L146.4 132.697Z" fill="black"/>
<path d="M138.8 141.399C138.9 141.299 139.1 141.199 139.3 141.299C139.5 141.299 139.6 141.399 139.7 141.499L149.8 153.799C149.9 153.899 150 154.099 149.9 154.299C149.9 154.499 149.8 154.599 149.7 154.699L141.1 161.699C141 161.799 140.8 161.899 140.6 161.799C140.4 161.799 140.3 161.699 140.2 161.599L139 160.099C138.9 159.999 138.9 159.799 138.9 159.699C138.9 159.499 139 159.399 139.1 159.299L145.2 154.299L142.8 151.299L137.1 155.999C137 156.099 136.8 156.199 136.7 156.099C136.5 156.099 136.4 155.999 136.3 155.899L135.2 154.499C135.1 154.399 135.1 154.199 135.1 154.099C135.1 153.899 135.2 153.799 135.3 153.699L141 148.999L138.5 145.899L132.2 151.099C132.1 151.199 131.9 151.299 131.7 151.199C131.5 151.199 131.4 151.099 131.3 150.999L130.1 149.499C130 149.399 129.9 149.199 130 148.999C130 148.799 130.1 148.699 130.2 148.599L138.8 141.399Z" fill="black"/>
<path d="M117 155.202C118.4 154.602 119.7 154.302 120.9 154.402C122.1 154.402 123.2 154.802 124.1 155.502C125 156.202 125.8 157.202 126.4 158.402C126.7 159.002 127 159.702 127.3 160.502C127.6 161.202 127.9 161.902 128.2 162.602C128.7 163.902 128.8 165.102 128.7 166.202C128.5 167.302 128 168.302 127.2 169.202C126.4 170.102 125.3 170.802 123.9 171.402C122.8 171.902 121.7 172.102 120.8 172.202C119.8 172.302 119 172.202 118.2 172.002C117.4 171.802 116.8 171.502 116.3 171.102C115.8 170.702 115.4 170.202 115.2 169.702C115.1 169.602 115.1 169.402 115.2 169.302C115.2 169.202 115.3 169.102 115.5 169.002L118.3 167.802C118.5 167.702 118.6 167.702 118.7 167.702C118.8 167.702 118.9 167.802 119 167.902C119.2 168.102 119.5 168.302 119.9 168.502C120.3 168.702 120.7 168.802 121.1 168.802C121.6 168.802 122.1 168.702 122.8 168.402C123.7 168.002 124.4 167.402 124.7 166.702C125 166.002 125 165.002 124.6 163.902C124.1 162.602 123.5 161.302 122.9 160.002C122.4 158.802 121.7 158.102 120.9 157.902C120.1 157.602 119.3 157.702 118.3 158.102C117.7 158.402 117.2 158.702 116.8 159.102C116.4 159.502 116.2 160.002 116.1 160.602C116 161.202 116.1 161.802 116.4 162.602L116.6 163.202L119.1 162.202C119.3 162.102 119.4 162.102 119.6 162.202C119.8 162.302 119.9 162.402 119.9 162.502L120.5 163.902C120.6 164.102 120.6 164.202 120.5 164.402C120.4 164.602 120.3 164.702 120.2 164.702L114.7 167.002C114.5 167.102 114.4 167.102 114.2 167.002C114.1 166.902 113.9 166.802 113.9 166.702L112.9 164.202C112.4 162.902 112.2 161.702 112.3 160.502C112.5 159.302 113 158.302 113.8 157.402C114.5 156.502 115.6 155.702 117 155.202Z" fill="black"/>
<path d="M107.5 158.797C107.7 158.797 107.8 158.797 108 158.897C108.2 158.997 108.2 159.097 108.3 159.297L111.3 174.897C111.3 175.097 111.3 175.197 111.2 175.397C111.1 175.497 111 175.597 110.8 175.697L108.1 176.197C107.9 176.197 107.8 176.197 107.6 176.097C107.5 175.997 107.4 175.897 107.3 175.697L104.8 162.697L97.3001 164.097C97.1001 164.097 97.0001 164.097 96.8001 163.997C96.7001 163.897 96.6001 163.797 96.5001 163.597L96.1001 161.597C96.1001 161.397 96.1001 161.297 96.2001 161.097C96.3001 160.897 96.4001 160.897 96.6001 160.797L107.5 158.797Z" fill="black"/>
<path d="M95.8002 161.2C95.9002 161.2 96.1002 161.3 96.2002 161.4C96.3002 161.5 96.3002 161.6 96.3002 161.8C96.3002 161.9 96.3002 162 96.3002 162L90.2002 177.7C90.1002 177.9 90.0002 178 89.9002 178.2C89.8002 178.3 89.5002 178.4 89.3002 178.4L86.2002 178.3C85.9002 178.3 85.7002 178.2 85.6002 178.1C85.5002 178 85.4002 177.8 85.3002 177.6L79.7002 161.8C79.7002 161.7 79.7002 161.7 79.7002 161.6C79.7002 161.5 79.8002 161.4 79.9002 161.2C80.0002 161.1 80.1002 161 80.3002 161H82.8002C83.0002 161 83.2002 161.1 83.3002 161.2C83.4002 161.3 83.5002 161.4 83.5002 161.5L84.5002 164.3L91.4002 164.4L92.5002 161.7C92.5002 161.6 92.6002 161.5 92.7002 161.4C92.8002 161.3 93.0002 161.2 93.2002 161.2H95.8002ZM90.4002 167.5L85.3002 167.4L87.7002 174.5L90.4002 167.5Z" fill="black"/>
<path d="M72.7001 158.898C74.2001 159.298 75.5001 159.798 76.4001 160.498C77.3001 161.198 78.0001 161.898 78.3001 162.798C78.7001 163.598 78.8001 164.498 78.6001 165.298C78.6001 165.398 78.5001 165.498 78.4001 165.598C78.3001 165.698 78.1001 165.698 78.0001 165.698L75.4001 165.098C75.2001 165.098 75.0001 164.998 75.0001 164.898C74.9001 164.798 74.8001 164.698 74.8001 164.498C74.8001 164.198 74.6001 163.898 74.4001 163.598C74.2001 163.298 73.9001 162.998 73.5001 162.698C73.1001 162.398 72.6001 162.198 72.0001 162.098C71.0001 161.898 70.2001 161.798 69.6001 162.098C69.0001 162.298 68.6001 162.698 68.5001 163.298C68.4001 163.698 68.5001 164.098 68.7001 164.398C68.9001 164.698 69.3001 165.098 69.8001 165.398C70.3001 165.698 71.1001 166.198 72.0001 166.598C73.1001 167.098 74.1001 167.698 74.8001 168.298C75.5001 168.898 76.0001 169.598 76.3001 170.298C76.6001 170.998 76.6001 171.898 76.4001 172.798C76.2001 173.698 75.7001 174.498 75.0001 175.198C74.3001 175.798 73.4001 176.198 72.4001 176.398C71.3001 176.598 70.2001 176.498 68.8001 176.198C67.7001 175.898 66.8001 175.598 66.1001 175.098C65.3001 174.598 64.8001 174.098 64.3001 173.498C63.9001 172.898 63.6001 172.298 63.4001 171.698C63.2001 171.098 63.2001 170.598 63.3001 170.098C63.3001 169.998 63.4001 169.898 63.5001 169.798C63.6001 169.698 63.8001 169.698 63.9001 169.698L66.6001 170.298C66.8001 170.298 66.9001 170.398 67.0001 170.498C67.1001 170.598 67.2001 170.698 67.2001 170.898C67.2001 171.298 67.4001 171.798 67.8001 172.198C68.2001 172.598 68.8001 172.898 69.5001 173.098C70.3001 173.298 70.9001 173.298 71.4001 173.098C71.9001 172.898 72.2001 172.498 72.4001 171.898C72.5001 171.498 72.5001 171.198 72.3001 170.898C72.1001 170.598 71.8001 170.298 71.3001 169.898C70.8001 169.598 70.1001 169.198 69.3001 168.698C68.0001 168.098 66.9001 167.498 66.1001 166.898C65.3001 166.298 64.8001 165.598 64.5001 164.898C64.2001 164.198 64.2001 163.298 64.4001 162.398C64.7001 161.298 65.2001 160.498 65.9001 159.898C66.7001 159.298 67.6001 158.898 68.8001 158.698C70.0001 158.498 71.3001 158.598 72.7001 158.898Z" fill="black"/>
<path d="M58.5003 153.902C59.9003 154.602 61.0003 155.302 61.8003 156.202C62.6003 157.102 63.0003 157.902 63.2003 158.802C63.4003 159.702 63.3003 160.502 63.0003 161.302C62.9003 161.402 62.8003 161.502 62.7003 161.602C62.6003 161.702 62.4003 161.602 62.3003 161.602L59.9003 160.502C59.7003 160.402 59.6003 160.302 59.5003 160.202C59.4003 160.102 59.4003 159.902 59.4003 159.802C59.4003 159.502 59.4003 159.202 59.2003 158.802C59.1003 158.502 58.9003 158.102 58.5003 157.802C58.2003 157.502 57.7003 157.102 57.1003 156.902C56.1003 156.402 55.3003 156.302 54.7003 156.302C54.1003 156.402 53.6003 156.702 53.4003 157.202C53.2003 157.602 53.2003 158.002 53.3003 158.302C53.4003 158.702 53.8003 159.102 54.2003 159.502C54.7003 160.002 55.3003 160.502 56.1003 161.202C57.1003 162.002 57.9003 162.702 58.5003 163.502C59.1003 164.202 59.5003 165.002 59.6003 165.802C59.7003 166.602 59.6003 167.402 59.1003 168.302C58.7003 169.202 58.1003 169.902 57.3003 170.302C56.5003 170.802 55.5003 171.002 54.5003 170.902C53.5003 170.802 52.3003 170.602 51.1003 170.002C50.1003 169.502 49.3003 169.002 48.7003 168.402C48.1003 167.802 47.6003 167.102 47.3003 166.502C47.0003 165.902 46.8003 165.202 46.8003 164.602C46.8003 164.002 46.8003 163.402 47.0003 163.002C47.1003 162.902 47.2003 162.802 47.3003 162.702C47.4003 162.602 47.6003 162.702 47.7003 162.702L50.2003 163.902C50.3003 164.002 50.5003 164.102 50.6003 164.202C50.7003 164.302 50.7003 164.502 50.7003 164.602C50.6003 165.002 50.7003 165.502 51.0003 166.002C51.3003 166.502 51.8003 166.902 52.5003 167.202C53.2003 167.502 53.9003 167.702 54.4003 167.602C54.9003 167.502 55.3003 167.202 55.6003 166.702C55.8003 166.302 55.8003 166.002 55.7003 165.702C55.6003 165.402 55.3003 165.002 54.9003 164.502C54.5003 164.102 53.9003 163.602 53.2003 162.902C52.0003 162.002 51.1003 161.202 50.5003 160.502C49.9003 159.702 49.5003 159.002 49.4003 158.202C49.3003 157.402 49.4003 156.602 49.9003 155.702C50.4003 154.702 51.0003 154.002 51.9003 153.502C52.8003 153.102 53.8003 152.902 55.0003 153.002C56.0003 153.002 57.2003 153.302 58.5003 153.902Z" fill="black"/>
<path d="M49.8999 149.703C49.9999 149.803 50.0999 149.903 50.0999 150.103C50.0999 150.303 50.0999 150.403 49.9999 150.603L40.3999 163.303C40.2999 163.403 40.1999 163.503 39.9999 163.503C39.7999 163.503 39.6999 163.503 39.4999 163.403L30.5999 156.703C30.4999 156.603 30.3999 156.503 30.3999 156.303C30.3999 156.103 30.3999 156.003 30.4999 155.803L31.6999 154.203C31.7999 154.103 31.8999 154.003 32.0999 154.003C32.2999 154.003 32.3999 154.003 32.5999 154.103L38.8999 158.903L41.1999 155.803L35.2999 151.303C35.1999 151.203 35.0999 151.103 35.0999 150.903C35.0999 150.703 35.0999 150.603 35.1999 150.403L36.2999 149.003C36.3999 148.903 36.4999 148.803 36.6999 148.803C36.8999 148.803 36.9999 148.803 37.1999 148.903L43.0999 153.403L45.4999 150.203L38.9999 145.303C38.8999 145.203 38.7999 145.103 38.7999 144.903C38.7999 144.703 38.7999 144.603 38.8999 144.403L40.0999 142.903C40.1999 142.803 40.2999 142.703 40.4999 142.703C40.6999 142.703 40.7999 142.703 40.9999 142.803L49.8999 149.703Z" fill="black"/>
<path d="M35.1003 136.204C36.1003 137.404 36.8003 138.504 37.2003 139.604C37.6003 140.704 37.6003 141.704 37.4003 142.604C37.2003 143.504 36.8003 144.204 36.2003 144.804C36.1003 144.904 36.0003 144.904 35.8003 144.904C35.6003 144.904 35.5003 144.804 35.4003 144.704L33.7003 142.704C33.6003 142.504 33.5003 142.404 33.5003 142.204C33.5003 142.104 33.5003 141.904 33.5003 141.704C33.6003 141.404 33.7003 141.104 33.7003 140.804C33.7003 140.404 33.7003 140.004 33.5003 139.604C33.3003 139.204 33.0003 138.704 32.6003 138.204C31.9003 137.404 31.2003 136.904 30.6003 136.704C30.0003 136.504 29.5003 136.604 29.0003 137.004C28.7003 137.304 28.5003 137.604 28.5003 138.004C28.5003 138.404 28.6003 138.904 28.9003 139.504C29.2003 140.104 29.5003 140.904 30.0003 141.804C30.6003 142.904 31.0003 143.904 31.3003 144.804C31.6003 145.704 31.6003 146.604 31.4003 147.304C31.2003 148.104 30.7003 148.804 30.0003 149.404C29.3003 150.004 28.4003 150.404 27.5003 150.504C26.6003 150.604 25.6003 150.404 24.7003 150.004C23.8003 149.604 22.8003 148.804 21.9003 147.804C21.2003 147.004 20.7003 146.204 20.3003 145.304C20.0003 144.504 19.8003 143.704 19.8003 143.004C19.8003 142.304 19.9003 141.604 20.1003 141.004C20.3003 140.404 20.6003 140.004 21.0003 139.604C21.1003 139.504 21.2003 139.504 21.4003 139.504C21.6003 139.504 21.7003 139.604 21.8003 139.704L23.6003 141.804C23.7003 141.904 23.8003 142.104 23.8003 142.204C23.8003 142.304 23.8003 142.504 23.8003 142.704C23.5003 143.104 23.5003 143.504 23.5003 144.104C23.6003 144.704 23.9003 145.204 24.4003 145.804C24.9003 146.404 25.5003 146.804 26.0003 146.904C26.5003 147.004 27.0003 146.904 27.5003 146.504C27.8003 146.204 28.0003 145.904 28.0003 145.604C28.0003 145.204 28.0003 144.804 27.7003 144.204C27.4003 143.604 27.2003 142.904 26.7003 142.104C26.0003 140.804 25.5003 139.704 25.2003 138.804C24.9003 137.904 24.9003 137.004 25.1003 136.304C25.3003 135.604 25.8003 134.904 26.5003 134.204C27.3003 133.504 28.2003 133.104 29.2003 133.004C30.2003 132.904 31.2003 133.204 32.2003 133.704C33.1003 134.404 34.1003 135.204 35.1003 136.204Z" fill="black"/>
<path d="M23.8003 118.898C24.4003 120.298 24.7003 121.498 24.7003 122.698C24.7003 123.898 24.4003 124.998 23.7003 125.898C23.1003 126.898 22.1003 127.698 20.7003 128.298C20.1003 128.598 19.4003 128.898 18.8003 129.198C18.2003 129.498 17.5003 129.798 16.9003 130.098C15.5003 130.698 14.3003 130.898 13.1003 130.698C11.9003 130.598 10.9003 130.098 10.0003 129.298C9.10029 128.498 8.30029 127.498 7.70029 126.198C7.10029 124.898 6.80029 123.598 6.80029 122.398C6.80029 121.198 7.10029 120.098 7.80029 119.098C8.50029 118.098 9.40029 117.298 10.8003 116.698C11.4003 116.398 12.1003 116.098 12.7003 115.798C13.3003 115.498 14.0003 115.198 14.6003 114.998C16.0003 114.398 17.3003 114.198 18.4003 114.298C19.6003 114.398 20.6003 114.898 21.5003 115.698C22.5003 116.498 23.2003 117.598 23.8003 118.898ZM21.0003 120.198C20.6003 119.298 20.0003 118.798 19.2003 118.398C18.4003 118.098 17.4003 118.198 16.3003 118.698C15.6003 118.998 15.0003 119.198 14.4003 119.498C13.8003 119.798 13.2003 120.098 12.6003 120.398C11.8003 120.798 11.3003 121.198 10.9003 121.698C10.5003 122.198 10.3003 122.698 10.3003 123.298C10.3003 123.798 10.4003 124.398 10.7003 124.998C11.0003 125.598 11.3003 125.998 11.7003 126.398C12.1003 126.698 12.7003 126.898 13.3003 126.998C13.9003 126.998 14.6003 126.898 15.4003 126.598C16.0003 126.298 16.7003 126.098 17.2003 125.798C17.8003 125.498 18.4003 125.298 19.0003 124.898C20.1003 124.298 20.8003 123.598 21.1003 122.898C21.4003 121.898 21.4003 121.098 21.0003 120.198Z" fill="black"/>
<path d="M19.7999 109.603C19.7999 109.803 19.7999 109.903 19.6999 110.103C19.5999 110.303 19.4999 110.303 19.2999 110.403L3.6999 113.603C3.4999 113.603 3.3999 113.603 3.1999 113.503C3.0999 113.403 2.9999 113.303 2.8999 113.103L2.4999 110.903C2.4999 110.703 2.4999 110.503 2.5999 110.303C2.6999 110.203 2.7999 110.103 2.7999 110.003L11.4999 101.603L1.6999 103.603C1.4999 103.603 1.3999 103.603 1.1999 103.503C1.0999 103.403 0.999902 103.303 0.899902 103.103L0.399902 100.703C0.399902 100.503 0.399902 100.403 0.499902 100.203C0.599902 100.103 0.699902 100.003 0.899902 99.9031L16.4999 96.7031C16.6999 96.7031 16.7999 96.7031 16.9999 96.8031C17.0999 96.9031 17.1999 97.0031 17.2999 97.2031L17.6999 99.4031C17.6999 99.6031 17.6999 99.8031 17.5999 100.003C17.4999 100.103 17.3999 100.203 17.3999 100.303L8.9999 108.703L18.4999 106.803C18.6999 106.803 18.7999 106.803 18.9999 106.903C19.0999 107.003 19.1999 107.103 19.2999 107.303L19.7999 109.603Z" fill="black"/>
<path d="M17.6001 82.7032C17.5001 84.3032 17.1001 85.5032 16.6001 86.6032C16.1001 87.6032 15.4001 88.4032 14.6001 88.8032C13.8001 89.3032 13.0001 89.5032 12.2001 89.4032C12.1001 89.4032 12.0001 89.3032 11.9001 89.2032C11.8001 89.1032 11.8001 89.0032 11.8001 88.8032L12.0001 86.2032C12.0001 86.0032 12.1001 85.8032 12.2001 85.7032C12.3001 85.6032 12.4001 85.5032 12.6001 85.4032C12.9001 85.3032 13.2001 85.2032 13.5001 84.9032C13.8001 84.7032 14.0001 84.3032 14.2001 83.9032C14.4001 83.5032 14.5001 82.9032 14.6001 82.3032C14.7001 81.2032 14.6001 80.4032 14.3001 79.9032C14.0001 79.3032 13.6001 79.0032 13.0001 79.0032C12.6001 79.0032 12.2001 79.1032 11.9001 79.3032C11.6001 79.6032 11.3001 80.0032 11.1001 80.6032C10.8001 81.2032 10.5001 82.0032 10.2001 83.0032C9.80014 84.2032 9.40014 85.2032 8.90014 86.0032C8.40014 86.8032 7.80013 87.4032 7.10013 87.8032C6.40014 88.2032 5.60013 88.3032 4.60013 88.2032C3.60013 88.1032 2.80013 87.8032 2.10013 87.2032C1.40014 86.6032 0.900135 85.8032 0.500135 84.8032C0.200135 83.8032 0.000135057 82.6032 0.200135 81.3032C0.300135 80.2032 0.500135 79.3032 0.900135 78.4032C1.30014 77.6032 1.70013 76.9032 2.20013 76.4032C2.70013 75.9032 3.30013 75.5032 3.80013 75.3032C4.40014 75.1032 4.90014 74.9032 5.40014 75.0032C5.50013 75.0032 5.60013 75.1032 5.70013 75.2032C5.80013 75.3032 5.80014 75.4032 5.80014 75.6032L5.60013 78.3032C5.60013 78.5032 5.50013 78.6032 5.50013 78.7032C5.40014 78.8032 5.30013 78.9032 5.10013 79.0032C4.70013 79.1032 4.30014 79.3032 3.90014 79.8032C3.50013 80.3032 3.30013 80.9032 3.30013 81.6032C3.20013 82.4032 3.30013 83.0032 3.60013 83.5032C3.90013 84.0032 4.30014 84.3032 4.90014 84.3032C5.30014 84.3032 5.60013 84.2032 5.90014 84.0032C6.20014 83.8032 6.50013 83.4032 6.70013 82.9032C7.00013 82.4032 7.20013 81.6032 7.60013 80.7032C8.00013 79.3032 8.50014 78.2032 9.00014 77.3032C9.50014 76.4032 10.1001 75.8032 10.7001 75.5032C11.4001 75.1032 12.2001 75.0032 13.2001 75.1032C14.3001 75.2032 15.2001 75.6032 15.9001 76.3032C16.6001 77.0032 17.2001 77.9032 17.5001 79.0032C17.7001 80.0032 17.8001 81.2032 17.6001 82.7032Z" fill="black"/>
<path d="M18.5 73.1969C18.4 73.3969 18.3 73.4969 18.2 73.5969C18.1 73.6969 17.9 73.6969 17.7 73.5969L2.6 68.6969C2.4 68.5969 2.3 68.4969 2.2 68.3969C2.1 68.2969 2.1 68.0969 2.2 67.8969L3 65.3969C3.1 65.1969 3.2 65.0969 3.3 64.9969C3.4 64.8969 3.6 64.8969 3.8 64.9969L9.6 66.8969L11.6 60.5969L5.8 58.6969C5.6 58.5969 5.5 58.4969 5.4 58.3969C5.3 58.2969 5.3 58.0969 5.4 57.8969L6.2 55.3969C6.3 55.1969 6.4 55.0969 6.5 54.9969C6.6 54.8969 6.8 54.8969 7 54.9969L22.2 59.8969C22.4 59.9969 22.5 60.0969 22.6 60.1969C22.7 60.2969 22.7 60.4969 22.6 60.6969L21.8 63.1969C21.7 63.3969 21.6 63.4969 21.5 63.5969C21.4 63.6969 21.2 63.6969 21 63.5969L15 61.6969L13 67.9969L19 69.8969C19.2 69.9969 19.3 70.0969 19.4 70.1969C19.5 70.2969 19.5 70.4969 19.4 70.6969L18.5 73.1969Z" fill="black"/>
<path d="M27.6999 51.8969C26.8999 53.1969 26.0999 54.0969 25.0999 54.7969C24.0999 55.4969 23.0999 55.7969 21.8999 55.7969C20.6999 55.7969 19.4999 55.3969 18.1999 54.6969C17.5999 54.3969 16.9999 53.9969 16.3999 53.5969C15.7999 53.1969 15.1999 52.8969 14.5999 52.4969C13.3999 51.6969 12.4999 50.7969 11.8999 49.6969C11.3999 48.6969 11.1999 47.4969 11.2999 46.2969C11.3999 45.0969 11.8999 43.8969 12.5999 42.5969C13.2999 41.3969 14.1999 40.3969 15.1999 39.7969C16.1999 39.1969 17.2999 38.7969 18.4999 38.7969C19.6999 38.7969 20.8999 39.1969 22.1999 39.8969C22.7999 40.1969 23.3999 40.5969 23.9999 40.9969C24.5999 41.3969 25.1999 41.6969 25.7999 42.0969C27.0999 42.8969 27.9999 43.7969 28.4999 44.8969C28.9999 45.8969 29.1999 46.9969 29.0999 48.1969C28.8999 49.3969 28.4999 50.6969 27.6999 51.8969ZM24.9999 50.2969C25.4999 49.4969 25.5999 48.6969 25.4999 47.7969C25.2999 46.9969 24.6999 46.1969 23.5999 45.4969C22.9999 45.0969 22.3999 44.6969 21.8999 44.3969C21.3999 44.0969 20.7999 43.6969 20.1999 43.3969C19.4999 42.9969 18.7999 42.6969 18.1999 42.6969C17.5999 42.6969 16.9999 42.7969 16.5999 43.0969C16.0999 43.3969 15.6999 43.7969 15.3999 44.2969C15.0999 44.7969 14.8999 45.3969 14.7999 45.8969C14.6999 46.3969 14.8999 46.9969 15.1999 47.4969C15.4999 47.9969 15.9999 48.4969 16.6999 48.9969C17.2999 49.3969 17.8999 49.6969 18.3999 50.0969C18.8999 50.3969 19.4999 50.7969 20.0999 51.0969C21.1999 51.6969 22.1999 51.8969 22.9999 51.6969C23.7999 51.5969 24.4999 51.0969 24.9999 50.2969Z" fill="black"/>
<path d="M33.1001 43.4017C33.0001 43.5017 32.8001 43.6017 32.7001 43.6017C32.5001 43.6017 32.4001 43.5017 32.3001 43.4017L20.8001 32.4017C20.7001 32.3017 20.6001 32.1017 20.6001 32.0017C20.6001 31.8017 20.7001 31.7017 20.8001 31.6017L25.4001 26.8017C26.3001 25.8017 27.3001 25.2017 28.2001 24.7017C29.2001 24.3017 30.1001 24.2017 31.1001 24.3017C32.1001 24.5017 33.0001 25.0017 33.9001 25.8017C34.8001 26.7017 35.3001 27.6017 35.6001 28.5017C35.8001 29.5017 35.7001 30.4017 35.3001 31.4017C34.9001 32.4017 34.3001 33.3017 33.3001 34.3017L31.0001 36.7017L35.0001 40.5017C35.1001 40.6017 35.2001 40.8017 35.2001 40.9017C35.2001 41.1017 35.1001 41.2017 35.0001 41.3017L33.1001 43.4017ZM28.8001 34.6017L31.0001 32.3017C31.6001 31.7017 31.9001 31.1017 31.9001 30.5017C31.9001 29.9017 31.6001 29.3017 31.1001 28.7017C30.6001 28.2017 30.0001 27.9017 29.4001 27.9017C28.8001 27.9017 28.2001 28.2017 27.5001 28.9017L25.3001 31.2017L28.8001 34.6017Z" fill="black"/>
<path d="M44.5003 32.5024C44.4003 32.6024 44.2003 32.7024 44.0003 32.6024C43.8003 32.6024 43.7003 32.5024 43.6003 32.4024L34.0003 19.7024C33.9003 19.6024 33.8003 19.4024 33.9003 19.2024C33.9003 19.0024 34.0003 18.9024 34.1003 18.8024L36.3003 17.1024C36.4003 17.0024 36.6003 16.9024 36.8003 17.0024C37.0003 17.0024 37.1003 17.1024 37.2003 17.2024L46.8003 30.0024C46.9003 30.1024 47.0003 30.3024 46.9003 30.5024C46.9003 30.7024 46.8003 30.8024 46.7003 30.9024L44.5003 32.5024Z" fill="black"/>
<path d="M50.0999 28.2984C49.8999 28.3984 49.7999 28.3984 49.5999 28.3984C49.3999 28.3984 49.2999 28.2984 49.1999 28.0984L41.4999 14.1984C41.3999 13.9984 41.3999 13.8984 41.3999 13.6984C41.3999 13.4984 41.4999 13.3984 41.6999 13.2984L44.0999 11.9984C44.2999 11.8984 44.3999 11.8984 44.5999 11.8984C44.7999 11.8984 44.8999 11.9984 44.9999 12.1984L51.3999 23.7984L57.9999 20.0984C58.1999 19.9984 58.2999 19.9984 58.4999 19.9984C58.6999 19.9984 58.7999 20.0984 58.8999 20.2984L59.8999 22.0984C59.9999 22.2984 59.9999 22.3984 59.9999 22.5984C59.9999 22.7984 59.8999 22.8984 59.6999 22.9984L50.0999 28.2984Z" fill="black"/>
<path d="M64.1001 21.4984C63.9001 21.5984 63.8001 21.5984 63.6001 21.4984C63.5001 21.3984 63.4001 21.2984 63.3001 21.0984L61.6001 15.9984L52.8001 8.09844L52.7001 7.99844L52.6001 7.89844C52.6001 7.79844 52.6001 7.59844 52.6001 7.49844C52.6001 7.39844 52.8001 7.29844 52.9001 7.19844L55.4001 6.29844C55.6001 6.19844 55.8001 6.19844 56.0001 6.29844C56.2001 6.39844 56.3001 6.39844 56.4001 6.49844L62.3001 11.5984L63.5001 3.99844C63.5001 3.89844 63.6001 3.79844 63.6001 3.59844C63.6001 3.39844 63.8001 3.29844 64.1001 3.29844L66.6001 2.39844C66.7001 2.39844 66.9001 2.39844 67.0001 2.39844C67.1001 2.49844 67.2001 2.59844 67.3001 2.69844V2.79844V2.89844L65.3001 14.5984L67.1001 19.6984C67.2001 19.8984 67.2001 19.9984 67.1001 20.1984C67.0001 20.2984 66.9001 20.3984 66.7001 20.4984L64.1001 21.4984Z" fill="black"/>
<path d="M79 17.7C78.8 17.7 78.7 17.7 78.5 17.6C78.4 17.5 78.3 17.4 78.3 17.2L78 14.5C78 14.3 78 14.2 78.1 14C78.2 13.9 78.3 13.8 78.5 13.8L81.2 13.5C81.4 13.5 81.5 13.5 81.7 13.6C81.8 13.7 81.9 13.8 81.9 14L82.2 16.7C82.2 16.9 82.2 17 82.1 17.2C82 17.3 81.9 17.4 81.7 17.4L79 17.7Z" fill="black"/>
</g>
<defs>
<clipPath id="clip0_3434_623">
<rect width="178.3" height="178.2" fill="white"/>
</clipPath>
</defs>
</svg>
