<svg width="71" height="54" viewBox="0 0 71 54" fill="none" xmlns="http://www.w3.org/2000/svg">
<g clip-path="url(#clip0_3419_1791)">
<path d="M24.6765 17.4274C25.3101 17.8135 25.8268 18.1418 26.3435 18.4701C31.102 21.5995 32.1623 28.0259 28.6098 32.4615C27.1812 34.2514 25.2746 35.1626 22.9778 34.693C20.613 34.2141 19.2308 32.4882 18.6053 30.2761C17.7347 27.2035 18.0518 24.1488 19.1063 21.168C19.324 20.5728 19.5612 19.9872 19.8787 19.1626C18.5075 19.2236 17.2518 19.1963 16.0124 19.3589C12.2651 19.8564 8.81677 21.2775 5.47298 23.0048C4.68642 23.4034 3.89987 23.8021 3.09838 24.1571C2.28239 24.5169 1.49478 24.2485 1.14448 23.5542C0.749832 22.7772 0.970783 22.0018 1.78591 21.5446C6.14195 19.1788 10.5971 17.056 15.5693 16.4008C17.2251 16.1776 18.9178 16.2999 20.5956 16.3784C21.2697 16.4088 21.705 16.3091 22.146 15.7516C24.6624 12.5486 27.9402 10.4857 31.8373 9.38357C37.1895 7.8499 42.1188 8.91867 46.6301 12.0348C50.3366 14.5953 52.9369 18.1357 54.7325 22.2111C55.895 24.8585 56.7051 27.6588 57.5971 30.4147C57.9409 31.4695 57.3566 32.2712 56.3347 32.3595C55.5985 32.4317 55.047 32.0013 54.7579 31.107C54.1454 29.2649 53.6054 27.3981 52.9494 25.5708C51.5234 21.6297 49.3117 18.1846 46.1366 15.4264C39.1371 9.38284 30.3565 11.3052 25.2612 16.6744C25.0691 16.8702 24.9113 17.1194 24.6765 17.4274ZM22.8634 20.1299C21.3179 22.9527 20.7576 25.9114 21.3523 29.0293C21.6013 30.328 22.2617 31.5514 23.703 31.7432C25.2072 31.9298 26.2115 30.9359 26.8838 29.6809C27.9615 27.6689 28.0449 25.5893 27.0234 23.545C26.1599 21.8211 24.7779 20.6649 22.8634 20.1299Z" fill="#191919"/>
<path d="M56.8645 37.9845C55.0482 38.6858 53.5669 37.8077 52.4781 36.3723C51.0118 34.4472 49.7525 32.37 48.4402 30.3272C47.8948 29.4878 47.4119 28.5945 46.9339 27.7158C46.4066 26.74 46.5637 25.8724 47.2919 25.4448C48.102 24.973 48.8942 25.2073 49.4405 26.1441C50.2426 27.4982 50.9626 28.8966 51.8032 30.2213C52.7421 31.6916 53.7289 33.1129 54.7688 34.4998C55.3673 35.3049 55.8234 35.3608 56.6671 34.845C57.2407 34.4864 57.804 34.05 58.2115 33.5365C60.3879 30.8077 62.5349 28.04 64.6869 25.287C64.8691 25.062 65.0464 24.8225 65.248 24.6071C65.8195 24.0051 66.6186 23.9277 67.2286 24.387C67.824 24.8512 67.9863 25.6586 67.5466 26.3621C67.212 26.8996 66.8191 27.4081 66.4406 27.9117C64.3172 30.6061 62.2033 33.2811 60.0554 35.9513C59.2645 36.9538 58.2282 37.6168 56.8645 37.9845Z" fill="#191919"/>
<path d="M22.8635 20.1248C24.778 20.6598 26.16 21.816 27.0235 23.5399C28.05 25.5988 27.9666 27.6784 26.884 29.6758C26.2116 30.9308 25.2219 31.9198 23.7031 31.7381C22.2473 31.5513 21.6014 30.3229 21.3524 29.0242C20.7432 25.9112 21.318 22.9476 22.8635 20.1248Z" fill="white"/>
</g>
<defs>
<clipPath id="clip0_3419_1791">
<rect width="62.5313" height="35.2188" fill="white" transform="translate(0 20.1977) rotate(-18.8445)"/>
</clipPath>
</defs>
</svg>
