<svg width="45" height="45" viewBox="0 0 45 45" fill="none" xmlns="http://www.w3.org/2000/svg">
<path d="M0 22.465C1.31476 22.2028 2.64706 21.9406 3.96182 21.6434C6.99455 20.979 9.97468 20.2273 12.7795 18.8287C15.9349 17.2552 18.0561 14.7727 19.4059 11.5559C20.8083 8.18182 21.5446 4.61538 22.2458 1.06643C22.2984 0.769231 22.3685 0.472028 22.4211 0.174825C22.4211 0.13986 22.4737 0.104895 22.5614 0C22.7892 1.13636 22.9996 2.22028 23.2275 3.3042C23.8235 6.11888 24.5072 8.93357 25.6291 11.6084C27.1543 15.2622 29.7137 17.8496 33.3775 19.3706C36.7959 20.8042 40.4071 21.521 44.0183 22.2378C44.3514 22.3077 44.6845 22.3776 45 22.5524C43.5625 22.8497 42.1075 23.1294 40.67 23.4615C37.76 24.1084 34.9026 24.8601 32.2205 26.2063C29.1001 27.7622 26.9965 30.2098 25.6642 33.3741C24.2092 36.8357 23.4729 40.507 22.7542 44.1608C22.7016 44.4406 22.649 44.7028 22.4737 45C22.3159 44.2483 22.1757 43.479 22.0179 42.7273C21.3693 39.5979 20.6681 36.5035 19.4585 33.5315C17.9159 29.7727 15.2688 27.1154 11.4998 25.5769C8.06389 24.1783 4.4702 23.4441 0.858979 22.7448C0.578496 22.6923 0.298013 22.6399 0.0350604 22.5874C0 22.5525 0 22.5 0 22.465Z" fill="#EF4B4B"/>
</svg>
