<svg width="154" height="28" viewBox="0 0 154 28" fill="none" xmlns="http://www.w3.org/2000/svg">
<path fill-rule="evenodd" clip-rule="evenodd" d="M16.8842 27.6697H0V0.731025H26.3913C26.3913 0.731025 33.6583 0.0210112 33.7676 6.90585C33.7676 6.90585 34.4234 13.7907 28.8501 13.955C28.8501 13.955 28.5222 13.955 28.5222 14.1736C28.5222 14.1736 28.5222 14.3922 28.8501 14.4465C34.9148 14.1736 34.2598 21.4957 34.2598 21.4957C34.1505 28.3254 26.8828 27.6705 26.8828 27.6705L16.8842 27.6697ZM58.0823 21.4406C60.924 21.4406 63.6556 21.3864 63.6556 21.3864C63.6556 21.3864 68.1359 21.4957 68.2452 17.5051C68.2994 14.1728 68.2452 10.949 68.2452 10.949C68.1359 6.90585 63.6556 7.01515 63.6556 7.01515H52.509C52.509 7.01515 48.0287 6.90585 47.9194 10.949C47.9194 10.949 47.755 15.5386 47.9194 17.5051C48.0287 21.4948 52.509 21.3864 52.509 21.3864C53.4927 21.4406 55.843 21.4406 58.0823 21.4406ZM58.0823 0.348896C64.8036 0.348896 69.3382 1.11397 69.3382 1.11397C76.7695 2.42552 76.2772 10.0204 76.2772 10.0204C76.2772 10.0204 76.3865 12.6427 76.2772 18.3252C76.2772 18.3252 76.7695 25.9201 69.3382 27.2317C69.3382 27.2317 64.8028 27.9975 58.0823 27.9975C54.6949 27.9975 50.8153 27.779 46.7171 27.2317C39.2866 25.9201 39.7781 18.3252 39.7781 18.3252V10.0204C39.7781 10.0204 39.2866 2.42552 46.7171 1.11397C50.8153 0.51243 54.6949 0.348896 58.0823 0.348896ZM89.5013 16.3045L105.292 16.6866C107.367 16.9052 107.423 18.5438 107.423 18.5438C107.75 20.8933 105.674 20.9484 105.674 20.9484C98.6805 21.4414 91.8499 20.9484 91.8499 20.9484C89.5563 20.7298 89.7198 18.5989 89.7198 18.5989H82.125V21.1127C82.125 21.1127 81.9048 26.0302 89.009 26.6868C89.009 26.6868 100.866 27.4511 109.008 26.5233C109.008 26.5233 114.253 26.2488 115.018 21.6058C115.018 21.6058 115.673 16.6332 114.307 13.7923C112.723 10.6227 106.93 10.677 106.93 10.677L91.9584 10.3491C89.8834 10.1305 89.8283 8.49188 89.8283 8.49188C89.5013 6.08736 91.5762 6.03312 91.5762 6.03312C97.8053 4.88592 104.58 6.03312 104.58 6.03312C106.766 6.25171 106.712 8.43682 106.712 8.43682H114.307V5.86877C114.307 5.86877 114.525 0.951262 107.423 0.296307C107.423 0.296307 95.5643 -0.468769 87.4238 0.459838C87.4238 0.459838 82.9969 0.732668 82.2335 5.37735C82.2335 5.37735 81.6319 10.4041 82.9427 13.2458C82.9435 13.2434 83.7636 16.03 89.5013 16.3045ZM128.077 16.3045L143.867 16.6866C145.89 16.9052 145.944 18.5438 145.944 18.5438C146.163 20.9484 144.25 20.9484 144.25 20.9484C137.474 22.0413 130.427 20.9484 130.427 20.9484C128.077 20.7298 128.295 18.5989 128.295 18.5989H120.7V21.1127C120.7 21.1127 120.481 26.0302 127.584 26.6868C127.584 26.6868 139.387 27.4511 147.583 26.5233C147.583 26.5233 152.773 26.2488 153.593 21.6058C153.593 21.6058 154.248 16.6332 152.827 13.7923C151.298 10.6227 145.45 10.677 145.45 10.677L130.535 10.3491C128.458 10.1305 128.403 8.49188 128.403 8.49188C128.076 6.08736 130.151 6.03312 130.151 6.03312C136.38 4.88592 143.157 6.03312 143.157 6.03312C145.341 6.25171 145.287 8.43682 145.287 8.43682H152.882V5.86877C152.882 5.86877 153.1 0.951262 145.998 0.296307C145.998 0.296307 134.141 -0.468769 125.999 0.459838C125.999 0.459838 121.574 0.732668 120.808 5.37735C120.808 5.37735 120.209 10.4041 121.519 13.2458C121.52 13.2434 122.284 16.03 128.077 16.3045ZM16.8842 6.6322H7.92356V11.9326H23.1675C23.8772 11.9313 24.5574 11.6489 25.0592 11.147C25.5611 10.6452 25.8435 9.96498 25.8449 9.25531C25.8449 7.83446 24.6426 6.6322 23.1675 6.6322H16.8842ZM16.8842 16.5773H7.92356V21.877H23.6589C24.3686 21.8757 25.0488 21.5932 25.5507 21.0913C26.0525 20.5895 26.335 19.9093 26.3363 19.1996C26.3363 17.7788 25.134 16.5773 23.6589 16.5773H16.8842Z" fill="black"/>
</svg>
