<svg width="334" height="45" viewBox="0 0 334 45" fill="none" xmlns="http://www.w3.org/2000/svg">
<g clip-path="url(#clip0_2337_423)">
<path d="M179.648 9.21348H184.793V35.8897H178.255L170.644 23.5694C169.358 21.4267 168.179 19.1769 168.179 19.1769H168.072V35.8897H162.927V9.21348H169.037L178.04 23.7836C178.684 24.7478 179.112 25.712 179.541 26.7834L179.648 9.21348ZM209.34 20.1411H200.336V9.10635H193.797V35.7826H200.336V24.4264H209.34V35.7826H215.878V9.10635H209.34V20.1411ZM113.406 24.2122H121.874V20.2482H113.406V13.2845H124.768V9.21348H106.867V35.8897H124.982V31.3901H113.406V24.2122ZM89.8241 15.213C89.3954 14.6773 89.5026 13.9274 89.9313 13.4988C90.1457 13.2846 90.4673 13.1774 90.7888 13.1774H100.543V9.21348H88.9666C85.8581 9.10635 83.2856 11.4633 83.0712 14.5702C83.0712 16.1772 83.1784 17.2485 85.5366 19.7126L94.2189 28.8189C94.862 29.3546 94.9692 30.2116 94.5404 30.8544C94.2189 31.283 93.7901 31.4972 93.2542 31.3901H82.5353V35.8897H94.7548C98.292 35.9968 101.186 33.3185 101.293 29.7831V29.5688C101.293 27.8547 100.865 26.5691 98.5064 24.2122L89.8241 15.213ZM148.778 26.6762C148.349 25.6049 147.813 24.6407 147.17 23.6765L138.166 9.10635H132.056V35.7826H137.202V19.1769H137.309C137.309 19.1769 138.381 21.5338 139.774 23.5694L147.384 35.8897H153.923V9.21348H148.778V26.6762ZM293.59 24.2122H302.058V20.2482H293.59V13.2845H304.952V9.21348H286.944V35.8897H305.059V31.3901H293.483L293.59 24.2122ZM334 35.8897H326.926L321.78 24.9621H318.886V35.8897H312.348V9.21348H324.353C330.141 9.21348 332.821 12.7489 332.821 16.9271C332.821 20.1411 330.784 23.0337 327.676 24.105L334 35.8897ZM327.14 17.0342C327.14 15.8558 326.39 13.2845 322.96 13.2845H318.886V20.891H322.852C326.497 20.891 327.14 18.2127 327.14 17.0342ZM269.901 15.213C269.472 14.6773 269.58 13.9274 270.008 13.4988C270.223 13.2846 270.544 13.1774 270.866 13.1774H280.62V9.21348H269.044C265.935 9.10635 263.363 11.4633 263.148 14.5702C263.148 16.1772 263.255 17.2485 265.614 19.7126L274.296 28.8189C274.939 29.3546 275.046 30.2116 274.617 30.8544C274.296 31.283 273.867 31.4972 273.331 31.3901H262.612V35.8897H274.832C278.369 35.9968 281.263 33.3185 281.37 29.7831V29.5688C281.37 27.8547 280.942 26.5691 278.583 24.2122L269.901 15.213ZM231.42 24.2122H239.888V20.2482H231.42V13.2845H242.782V9.21348H224.775V35.8897H242.89V31.3901H231.313L231.42 24.2122ZM250.178 35.8897H256.717V9.21348H250.178V35.8897ZM0 0V44.9961H60.0257V0H0ZM33.0141 4.17821C29.4769 5.57094 26.0469 8.57068 23.2599 14.6773C22.5096 16.3914 20.9018 19.8197 20.2587 21.3196C14.6849 33.5328 11.8979 36.104 3.43004 36.104V3.42827H32.9069C33.1213 3.42827 33.3357 3.64254 33.3357 3.8568C33.3357 3.96394 33.2285 4.07107 33.0141 4.17821ZM56.5956 8.89208V41.5678H27.1187C26.9044 41.5678 26.69 41.3535 26.69 41.1393C26.69 40.925 26.7972 40.8179 26.9044 40.7107C30.4416 39.318 33.8716 36.3182 36.6585 30.2116C37.4089 28.4975 39.0167 25.0692 39.6598 23.5694C45.3408 11.4633 48.1277 8.89208 56.5956 8.89208Z" fill="black"/>
</g>
<defs>
<clipPath id="clip0_2337_423">
<rect width="334" height="45" fill="white"/>
</clipPath>
</defs>
</svg>
