<svg width="122" height="45" viewBox="0 0 122 45" fill="none" xmlns="http://www.w3.org/2000/svg">
<path d="M94.103 24.3043C94.7034 24.2804 96.1886 24.4791 99.3955 24.5986C102.749 24.7257 103.416 22.1136 103.278 20.4913C99.8572 21.2306 99.0476 21.4257 96.0973 21.4257C92.993 21.4257 89.174 22.2962 89.1024 25.0399C89.0357 27.7674 92.5784 28.3759 94.4147 28.9006C94.9282 29.02 95.1221 29.4374 94.7822 29.7038C93.996 30.3399 92.2188 31.1751 92.0057 32.6658C91.7057 34.7771 93.6172 36.431 96.0346 36.3836C99.2576 36.3119 102.816 34.9362 106.236 30.8051C107.204 29.6403 108.29 27.6642 108.957 26.7974C109.116 26.4836 109.582 26.3362 109.783 26.3601C110.392 26.4953 111.256 26.9605 111.142 27.6285C110.964 28.6504 108.2 31.8354 110.04 33.7557C111.17 34.9326 114.017 35.7877 116.284 34.1298C118.409 32.5751 117.659 31.1553 116.817 31.0484C116.217 30.9767 114.538 33.0998 113.18 31.5848C112.05 30.3285 114.732 27.7285 115.265 26.7978C116.036 25.4617 113.034 24.452 111.77 22.7941C110.96 21.7006 113.069 18.3407 110.427 17.4545C109.562 17.1642 106.888 18.7864 107.84 23.4265C106.627 28.0188 97.3814 36.0581 96.1492 32.8176C95.8492 32.0265 96.6467 30.7144 98.7601 30.269C102.255 29.5334 101.983 27.3585 100.316 27.1399C97.6972 26.7978 96.9668 26.7978 93.8424 26.0625C92.6101 25.9302 92.6496 24.2804 94.103 24.3043ZM43.5241 29.3658C42.6828 30.2245 41.7112 31.4095 41.5813 32.3678C41.2969 34.4431 42.3594 36.2759 44.9775 36.2281C47.7939 36.1808 48.7181 34.1289 53.4259 31.2464C54.7413 30.4391 56.3721 29.0791 57.0478 28.9678C57.3048 28.9678 57.6836 29.0512 57.6599 29.5524C57.2569 31.4407 56.8226 32.7091 57.3043 34.3233C57.6518 35.4565 59.1447 36.1723 60.2229 35.3492C62.0161 33.9816 62.0435 33.2018 64.3664 30.1208C64.7573 29.6115 66.1673 27.2698 66.8228 27.5804C67.3641 27.8423 67.2137 28.5982 67.1152 29.1941C66.6254 32.0808 65.3811 36.6374 71.0448 35.9334C72.3916 35.7666 73.4739 34.852 72.4507 33.882C71.835 33.2978 71.1437 33.7192 70.3651 33.5399C68.5445 33.1184 73.0472 24.7767 70.8984 23.2302C67.8809 21.0553 65.0887 24.9083 62.9874 27.7269C62.1577 28.8358 61.5496 28.3512 61.0087 26.7844C60.4123 25.0472 56.8222 26.3196 54.7643 27.3889C51.4822 29.0945 45.4119 34.8038 44.8468 31.9573C44.7483 31.4642 45.5422 30.3666 47.0153 29.8257C48.7495 29.1933 50.7044 28.6289 50.7044 27.5796C50.7044 26.7682 50.2186 26.1998 49.6974 26.2273C47.284 26.3625 44.476 27.0067 41.2571 26.1123C40.5268 26.1083 40.2143 24.2512 42.3868 24.4982C42.9595 24.5617 44.2392 24.6492 49.105 24.7443C52.5294 24.816 52.6042 22.2318 52.1502 20.8597C49.2984 21.7144 47.849 21.6192 44.8316 21.6192C41.6721 21.6192 37.4064 22.0565 37.5881 25.1261C37.7422 27.7103 41.344 28.418 43.2084 28.6285C43.7417 28.5824 43.9114 29.0953 43.5241 29.3658Z" fill="#ED1C2E"/>
<path fill-rule="evenodd" clip-rule="evenodd" d="M33.1372 22.7422C33.4255 21.6689 34.0573 21.426 34.883 21.2272C36.1148 20.8215 37.849 20.281 38.9034 20.0863C41.5855 19.4223 42.3516 19.5774 42.6955 17.7126C42.94 16.4126 42.3834 15.7883 42.3834 15.7883C42.3834 15.7883 36.5423 17.6292 35.3692 17.9555C34.3501 18.3968 34.5436 17.3195 34.5436 17.3195C34.5436 17.3195 34.3976 18.0029 35.0294 15.2199C36.9405 6.74259 35.8188 4.48429 34.3023 3.19603C30.4519 -0.00437784 16.395 6.6434 6.34324 14.6312C2.994 17.5653 1.05073 18.2495 3.2349 20.5948C5.17817 22.547 6.43815 21.0798 6.43815 21.0798C8.28249 19.6167 12.2635 15.5134 14.8824 13.5572C18.6145 10.7742 23.7691 6.76242 28.3305 5.68833C31.9524 4.76202 33.0382 5.8357 32.5528 9.55311C32.2725 12.7341 29.8354 19.911 29.8354 19.911C29.8354 19.911 26.0989 21.5887 24.9812 22.0102C24.1085 22.3365 23.1884 22.1098 23.0854 24.1098C23.0424 26.2608 24.3297 25.4535 25.2024 25.1199C25.866 24.8653 27.4497 24.1138 28.0385 23.8673C28.4769 23.5252 28.9627 23.8195 28.7178 24.4515C28.283 25.8709 27.4932 28.1653 26.0003 31.4891C24.1085 36.0341 20.7078 42.2406 20.2695 43.8029C20.325 44.8288 21.4382 44.9758 22.9081 44.9956C24.2586 44.8924 24.8867 43.9499 24.8867 43.9499C24.8867 43.9499 26.6442 40.1487 29.35 33.4454C31.3125 28.579 32.5922 24.5596 33.1372 22.7422Z" fill="#ED1C2E"/>
<path d="M81.4528 24.5244C79.3478 23.9118 77.5071 26.4211 76.9662 28.6555C76.4763 30.6952 76.7373 33.4349 78.566 33.7847C80.0391 34.0709 81.7415 32.7786 82.1799 30.381C82.2981 29.741 82.5668 27.6972 82.6496 27.1685C83.1511 23.924 83.5267 22.5005 83.5267 22.5005C85.2842 15.7175 89.4985 2.52921 90.6435 1.75796C91.8367 0.962412 95.1143 0.82314 94.084 3.57861C92.4922 7.85674 90.6358 11.6503 88.9572 16.9304C86.9866 23.1171 83.1833 33.0571 86.5796 33.4948C88.1713 33.7013 88.8112 32.2219 89.7671 32.9737C91.2246 34.1227 89.6288 36.2025 86.8209 36.4766C82.9621 36.6159 83.0413 34.3377 81.3269 35.3195C75.8293 38.4608 72.4442 34.0673 73.5228 28.5563C74.451 23.841 78.0605 20.5049 82.0934 22.5486C82.0934 22.5486 83.1242 23.0652 83.0377 23.9442C82.9693 24.6235 82.4642 24.7628 81.4528 24.5244ZM120.119 22.2345C119.562 22.7952 118.891 23.0774 118.105 23.0774C117.315 23.0774 116.644 22.7952 116.095 22.2345C115.546 21.6778 115.269 21.0017 115.269 20.2065C115.269 19.4195 115.546 18.7474 116.103 18.1867C116.656 17.6341 117.323 17.3515 118.105 17.3515C118.891 17.3515 119.562 17.6337 120.119 18.1867C120.676 18.7434 120.949 19.4195 120.949 20.2065C120.949 20.9976 120.676 21.6737 120.119 22.2345ZM116.371 18.4689C115.893 18.9499 115.652 19.5264 115.652 20.2106C115.652 20.8948 115.893 21.4831 116.367 21.964C116.841 22.445 117.426 22.6875 118.109 22.6875C118.792 22.6875 119.369 22.445 119.846 21.964C120.328 21.4831 120.565 20.8944 120.565 20.2106C120.565 19.5268 120.328 18.9503 119.846 18.4689C119.369 17.9839 118.788 17.7454 118.109 17.7454C117.43 17.7454 116.849 17.9835 116.371 18.4689ZM118.054 18.6276C118.445 18.6276 118.725 18.6677 118.911 18.743C119.235 18.8742 119.397 19.1405 119.397 19.5341C119.397 19.8163 119.298 20.0191 119.093 20.1503C118.982 20.2219 118.832 20.2737 118.638 20.3053C118.879 20.3414 119.057 20.4446 119.172 20.6114C119.286 20.7786 119.341 20.9414 119.341 21.0924V21.3272C119.341 21.3948 119.345 21.4742 119.349 21.5576C119.353 21.641 119.361 21.6928 119.377 21.7203L119.397 21.7563H118.883C118.883 21.7482 118.879 21.7361 118.879 21.7284C118.875 21.717 118.872 21.705 118.871 21.6928L118.859 21.5932V21.343C118.859 20.9851 118.761 20.7426 118.559 20.6272C118.441 20.5596 118.235 20.5276 117.939 20.5276H117.497V21.7563H116.96V18.6272L118.054 18.6276ZM118.65 19.1325C118.508 19.0531 118.283 19.0175 117.975 19.0175H117.497V20.1389H118.002C118.235 20.1389 118.413 20.1187 118.532 20.0673C118.753 19.9879 118.859 19.8244 118.859 19.5899C118.859 19.3596 118.788 19.2086 118.65 19.1325Z" fill="#ED1C2E"/>
</svg>
