<svg width="156" height="45" viewBox="0 0 156 45" fill="none" xmlns="http://www.w3.org/2000/svg">
<path d="M56.5148 27.8769C55.897 30.1769 55.3695 30.9683 55.9967 32.7562C56.3333 33.7152 57.1805 34.2031 57.8104 34.5303C58.4398 34.8586 58.3364 34.4602 58.6608 33.4928C58.9626 32.5955 60.005 31.0321 60.1527 30.5136C60.2999 29.9962 60.5963 27.6935 59.4384 26.2139C58.2984 24.7517 56.1561 24.2248 54.3603 24.3739C52.3789 24.5388 50.4365 25.8509 48.6618 27.8031C46.7247 29.9335 44.881 34.9597 45.4064 37.2824C45.4945 37.6723 43.8618 38.8437 43.5774 38.9591C43.2931 39.0734 42.3076 39.2505 42.4617 37.9453C42.6152 36.6411 42.9359 35.9456 43.694 34.1198C44.326 32.5976 46.1386 28.975 46.453 28.3342C46.7675 27.693 47.4643 26.4695 47.6595 26.0938C47.966 25.5052 47.535 25.1169 47.122 24.787C46.7094 24.4556 44.4864 24.298 44.038 24.4403C43.5901 24.5815 42.9723 24.3971 42.1879 25.7782C41.7448 26.558 41.2362 27.0307 41.2362 27.0307L39.8103 26.2371L38.5194 26.7951C40.8949 29.9998 38.368 34.3675 37.6168 35.3739C36.7289 36.5647 35.2022 37.7719 34.375 38.2061C33.5484 38.6403 32.8246 38.81 32.8246 38.81C32.8246 38.81 32.5002 36.4994 34.5491 32.2967C35.6316 30.0757 37.0745 27.929 37.9971 27.2588C37.9971 27.2588 39.0464 26.1164 41.5332 27.4206C41.5332 27.4206 40.2582 24.7786 36.893 24.7048C34.8377 24.6606 33.5642 24.9793 31.7864 26.0111C30.1685 26.9485 28.7124 28.7331 27.5867 31.0189C26.3153 33.6019 25.8943 35.826 26.2288 38.2746C26.6382 41.2675 28.8401 41.7676 29.4378 42.0215C30.0355 42.2755 31.7374 42.2017 33.5252 41.3292C35.3135 40.4566 36.0495 39.867 36.3496 39.6488C36.6498 39.4307 36.7453 39.79 36.9442 40.2363C37.4844 41.4498 38.9314 42.1311 40.1041 42.3698C41.2763 42.6085 43.522 42.5395 44.7449 41.7892C46.0468 40.9903 46.778 40.0377 46.778 40.0377C46.778 40.0377 48.7104 42.49 52.2291 42.1938C55.1184 41.952 56.1613 40.8876 56.9326 40.3854C57.7039 39.8833 59.4173 38.4343 59.7048 38.2899C60.1226 38.0812 58.8697 40.474 58.8581 40.7796C58.8454 41.0936 59.1577 41.815 61.4177 41.9067C63.6777 41.9994 63.8935 41.7359 64.1778 41.6216C64.4622 41.5073 64.9686 40.3248 65.2751 39.7363C65.5816 39.1467 67.4153 34.8623 67.4153 34.8623C67.4153 34.8623 68.3475 37.1396 69.7375 38.6888C71.1276 40.2369 71.6857 40.9745 73.4087 41.5373C75.3885 42.1849 76.4906 42.1622 79.2374 40.8734C80.9767 40.0593 82.0065 39.1546 82.0065 39.1546C82.0065 39.1546 84.8025 35.669 86.3998 33.3389C87.7862 31.3166 88.4256 29.7021 88.4256 29.7021C88.4256 29.7021 88.7484 29.2516 88.8265 28.7605C88.9041 28.2715 86.7243 25.3487 86.7243 25.3487C86.7243 25.3487 82.3663 31.2671 81.863 32.0907C81.3603 32.9148 78.9779 35.767 78.2399 36.3935C77.5018 37.02 76.5386 38.2962 75.513 38.3726C74.7038 38.4332 73.9098 38.2172 73.0199 37.1201C72.1294 36.0231 71.5802 35.3159 71.3544 33.9038C71.2062 32.9796 71.9031 31.9895 71.9031 31.9895C71.9031 31.9895 81.5233 25.8456 81.8836 25.5843C82.2444 25.3218 83.9004 24.3665 83.1381 23.71C82.5193 23.1768 81.2664 22.4038 80.4212 22.0739C79.7333 21.8062 79.1261 21.6682 77.9049 22.4812C77.5018 22.7489 73.932 24.8977 73.932 24.8977L71.8218 26.2108C71.8218 26.2108 79.7924 9.54269 80.2735 8.72966C80.6296 7.81071 81.0902 7.85181 81.1619 7.39813C81.2342 6.9455 79.0053 6.32901 77.9418 6.32058C76.8794 6.31215 75.4439 6.39066 74.5223 7.83969C73.6007 9.28766 72.1294 12.1899 71.9374 12.7311C71.7453 13.2712 67.8089 21.4037 67.3457 22.6456C66.883 23.8876 63.338 30.4957 62.6073 31.4747C60.6929 34.0382 59.2369 35.2838 57.2085 36.6348C55.1015 38.0385 53.0779 38.7272 52.4137 38.3031C51.7495 37.8789 50.5863 37.411 51.7253 34.2574C52.8637 31.1032 54.5122 29.0419 54.9016 28.5682C55.4412 27.9143 56.7675 26.2829 56.5148 27.8769ZM37.4875 1.92343C37.5424 1.73532 37.4121 1.64152 37.267 1.61571C35.7968 1.50242 30.6564 1.25318 29.2416 2.66006C27.5719 4.31986 26.5448 6.51343 25.705 9.6623C24.8656 12.8117 20.2085 26.8109 18.8707 30.3149C17.1261 34.8865 14.8208 38.4153 13.8891 39.2868C12.958 40.1573 10.0946 42.9199 7.68265 39.5503C5.50286 36.5052 6.42975 33.3869 7.37298 30.4372C8.27666 27.6124 11.8027 24.2849 10.8637 27.3521C9.92363 30.4177 9.30483 30.8593 10.0645 33.2952C10.4723 34.602 11.6624 35.3597 12.4943 35.8313C13.3257 36.3029 13.1327 35.6985 13.6153 34.4123C14.0638 33.2172 15.419 31.7872 15.6422 31.0964C15.8648 30.4066 16.54 27.6118 15.3193 25.7344C13.7404 23.3069 11.4567 22.4565 8.47185 22.8516C4.09855 23.4323 1.67979 26.9701 0.982383 31.3214C0.000106275 37.4473 3.8121 42.9447 11.175 43.5427C13.5979 43.7403 16.1623 42.8151 17.2322 42.0795C18.302 41.3439 22.3298 39.73 25.3183 32.4015C28.1817 25.3798 29.5259 22.0381 30.4528 19.7165C32.0407 15.7409 35.2323 6.62988 35.4739 5.94646C36.0684 4.26559 37.2549 2.31967 37.4875 1.92343Z" fill="black"/>
<path d="M107.241 22.9798C106.389 22.9614 105.906 23.0673 105.372 23.2575C105.372 23.2575 103.394 23.316 100.451 26.1856C97.5091 29.0547 97.0402 28.9899 96.0779 29.619C95.1627 30.2171 93.5827 30.8963 93.5827 30.8963C89.0179 33.504 86.252 33.8871 84.6715 33.9509C83.0905 34.0136 81.9758 34.277 81.54 34.6474C81.1048 35.0179 80.956 35.559 80.8811 36.4258C80.8067 37.2926 81.4461 38.4666 82.3245 39.4198C83.0683 40.2275 83.6797 40.6896 85.3035 41.1001C87.2369 41.5891 89.4404 41.7682 90.4918 41.5095C91.5443 41.2503 94.5755 39.4977 95.2507 34.9025C95.2507 34.9025 95.2012 33.1858 94.9617 32.124C94.4341 29.7819 92.3999 27.4629 92.0998 26.6714C91.8001 25.88 91.4277 25.2967 91.2399 24.4631C90.9983 23.3887 91.6951 22.5573 90.3921 22.4297C89.4895 22.3402 88.0546 21.9039 87.4949 22.0809C86.9341 22.258 85.5847 22.7232 85.7862 24.137C85.9882 25.5502 86.1243 25.5718 86.1243 25.5718C86.1243 25.5718 87.401 27.8481 87.7623 28.3444C88.1232 28.8403 89.0094 29.9847 89.4025 30.6797C89.7949 31.3732 90.0081 32.4064 89.7385 34.502C89.4689 36.5976 88.7367 38.0503 87.1879 38.3069C86.0447 38.4971 85.6321 38.1862 85.2808 37.6288C84.9295 37.0718 85.8753 36.9116 86.463 36.9332C88.5246 37.0086 89.47 36.5934 89.47 36.5934C94.5038 35.3809 97.1504 33.6621 97.1504 33.6621C97.1504 33.6621 96.779 38.0176 99.403 39.6642C101.9 41.2318 103.551 41.0258 104.682 40.9383C105.813 40.8519 107.402 40.355 109.101 39.1537C110.451 38.1984 111.434 36.7815 112.265 34.8835C114.314 30.2092 113.47 26.878 111.789 24.8183C110.676 23.4567 109.035 22.9851 107.578 22.9535C105.991 22.7859 104.245 23.9836 103.897 25.5091C103.489 27.2937 104.448 29.609 108.762 29.9315C110.285 30.0469 113.539 28.5763 113.539 28.5763C113.539 28.5763 115.688 27.4444 116.95 27.0851C118.201 26.7299 117.384 27.926 117.3 28.2143C117.197 28.5684 115.649 31.958 115.2 33.1099C114.751 34.2617 113.596 36.6893 113.249 37.1946C112.032 38.9634 111.732 39.3412 111.732 39.3412C111.732 39.3412 110.919 39.8508 111.723 40.4035C112.615 41.0169 114.828 41.1228 115.502 41.2297C116.177 41.3356 117.866 40.7924 118.283 39.8487C118.698 38.905 120.195 35.3309 120.904 33.9261C121.84 32.0708 122.897 29.9742 124.349 28.1895C124.893 27.5214 126.25 26.4001 127.043 25.9965C127.408 25.8099 128.491 25.5881 127.865 27.1894C127.238 28.7907 125.789 31.2193 125.46 31.9512C125.131 32.682 123.932 35.8804 124.863 37.7289C125.794 39.5763 128.768 40.2091 130.811 40.316C132.126 40.3861 134.761 40.285 137.248 39.9003C141.933 39.1768 144.803 38.0429 148.78 36.0606C150.923 34.9926 153.527 33.1088 153.913 32.692C154.298 32.2742 155.515 30.9785 155.692 30.5296C155.87 30.079 156 28.8429 155.539 27.8075C155.213 27.0756 153.478 24.7023 153.107 24.333C152.858 24.0837 152.109 23.2238 151.932 24.4926C151.835 25.1861 151.23 26.5972 149.548 28.2696C146.322 31.4733 144.127 33.1541 139.966 35.0869C137.44 36.2603 134.374 37.1772 133.195 37.3595C132.273 37.5023 130.84 37.409 130.347 36.4948C129.829 35.5348 130.151 33.9424 130.606 33.0203C132.087 30.0264 132.531 28.659 132.584 27.4576C132.616 26.722 132.585 24.1428 130.516 23.2175C128.676 22.396 126.845 22.3386 125.327 23.3998C123.932 24.3746 122.865 24.9105 122.865 24.9105C122.865 24.9105 122.425 23.7402 121.152 23.3803C119.879 23.0188 119.234 22.9809 117.992 23.5152C116.751 24.0495 114.063 25.6434 113.074 26.1788C112.085 26.7131 109.63 27.8512 108.507 27.8871C107.384 27.9218 105.807 27.5525 105.51 26.4032C105.214 25.2535 106.955 24.5859 107.716 25.4896L107.683 25.4669C108.75 26.4375 108.834 29.2934 107.495 32.9692C106.156 36.6445 103.982 39.2274 102.638 38.7384C101.295 38.2505 101.292 34.8751 102.631 31.1998C103.173 29.7128 103.851 28.4045 104.556 27.4065C104.556 27.4065 105.894 24.7081 107.453 23.796C108.504 23.1811 107.241 22.9798 107.241 22.9798Z" fill="black"/>
<path d="M143.543 23.1124C143.118 23.5398 142.905 24.0562 142.905 24.6611C142.905 25.2712 143.117 25.7913 143.54 26.2213C143.966 26.6502 144.483 26.8646 145.091 26.8646C145.699 26.8646 146.217 26.6507 146.642 26.2213C147.068 25.7913 147.28 25.2712 147.28 24.6611C147.28 24.0562 147.068 23.5393 146.642 23.1124C146.213 22.6825 145.696 22.467 145.091 22.467C144.487 22.4675 143.971 22.6825 143.543 23.1124ZM146.896 26.4668C146.398 26.9658 145.797 27.215 145.091 27.215C144.386 27.215 143.786 26.9658 143.29 26.4668C142.798 25.971 142.551 25.3687 142.551 24.6616C142.551 23.9618 142.8 23.3638 143.298 22.8669C143.793 22.3721 144.391 22.125 145.091 22.125C145.797 22.125 146.398 22.3721 146.896 22.8669C147.393 23.3612 147.641 23.9597 147.641 24.6616C147.641 25.3656 147.393 25.9684 146.896 26.4668ZM145.57 23.6984C145.447 23.6294 145.25 23.5946 144.976 23.5946H144.556V24.6063H145.001C145.209 24.6063 145.365 24.5857 145.469 24.5436C145.661 24.4672 145.757 24.3223 145.757 24.1073C145.757 23.9039 145.694 23.7674 145.57 23.6984ZM145.042 23.2579C145.389 23.2579 145.644 23.2916 145.806 23.3585C146.095 23.4781 146.239 23.7147 146.239 24.0656C146.239 24.3149 146.148 24.4977 145.965 24.6163C145.868 24.679 145.732 24.7232 145.559 24.7512C145.778 24.7859 145.939 24.8776 146.041 25.0252C146.143 25.1732 146.194 25.3187 146.194 25.4583V25.6633C146.194 25.7281 146.196 25.7971 146.201 25.8714C146.201 25.9207 146.209 25.9696 146.225 26.0163L146.242 26.0511H145.781C145.778 26.0426 145.776 26.0326 145.774 26.0232L145.767 25.9921L145.757 25.9014V25.6791C145.757 25.3571 145.669 25.1427 145.493 25.0389C145.389 24.9793 145.206 24.9482 144.944 24.9482H144.555V26.0506H144.063V23.2574L145.042 23.2579Z" fill="black"/>
<path d="M36.1925 2.52809C36.1883 1.99168 34.9407 2.37054 33.8656 4.6442C32.791 6.9168 31.1957 11.736 30.511 13.8037C29.8262 15.8713 28.0447 20.7153 25.8765 25.9755C23.7833 31.0524 22.8511 33.5068 20.5473 36.8843C20.0404 37.6283 17.4285 40.6808 18.7864 40.0037C20.1438 39.3266 21.854 36.8432 23.0774 34.9858C24.3008 33.1285 27.8754 24.3547 28.5812 22.3798C29.2865 20.4049 32.4692 12.2087 32.9334 10.9225C33.5116 9.32114 34.5508 6.64017 35.1839 4.69426C35.6692 3.19991 36.1962 3.06449 36.1925 2.52809ZM8.09004 26.0646C7.30559 26.6162 6.05269 28.2349 5.33154 29.9443C4.41046 32.1273 4.2427 34.5569 4.61409 35.9749C4.8921 37.035 5.12211 37.6984 5.41647 37.8718C5.7388 38.062 5.62696 37.523 5.5415 36.9386C5.45604 36.3543 5.26191 34.226 5.98833 31.8981C6.71422 29.5691 7.23859 28.4657 8.40129 26.9767C9.14881 26.0187 9.73385 25.8322 9.82775 25.4575C9.6716 25.1693 8.77637 25.583 8.09004 26.0646ZM14.4231 29.2962C14.2364 30.6978 13.4414 31.3749 13.2161 31.661C12.9919 31.9482 12.4575 32.9835 12.4185 33.815C12.4037 34.1349 12.6306 35.2577 12.859 34.6744C13.166 33.8893 13.1845 33.56 13.6893 32.6953C14.2575 31.7205 14.785 31.2062 14.8853 30.605C15.0351 29.7087 14.7803 29.1713 14.6959 29.0158C14.5097 28.6733 14.4585 29.0295 14.4231 29.2962ZM69.0123 27.698C68.4014 28.9215 69.1236 28.441 69.6195 27.9768C70.1154 27.5125 70.5944 26.7738 70.5944 26.7738L79.1996 9.42126C79.1996 9.42126 79.5647 8.57028 79.9413 8.02703C80.2742 7.54647 79.6411 7.62235 79.3125 7.62077C78.9833 7.61761 78.7222 7.68031 78.4362 8.1303C78.1509 8.57818 76.3577 12.3314 76.2132 12.715C76.0702 13.0997 70.0246 25.681 69.7978 25.985C69.7978 25.9845 69.5499 26.6236 69.0123 27.698ZM66.5814 32.7559C66.411 32.307 65.5179 34.5158 65.5179 34.5158L64.3605 36.9702C63.8651 37.9851 63.2838 39.3524 63.2505 39.7798C63.1213 40.6587 63.2231 41.1524 63.528 41.1545C63.7554 41.1577 64.1041 40.1244 64.8342 38.6374C65.6345 37.005 66.7655 34.3962 66.7655 34.3962C66.7655 34.3962 66.7513 33.2059 66.5814 32.7559ZM70.5411 33.6443C70.5411 33.6443 70.0231 32.4977 71.1567 31.4634C73.8345 29.2445 80.931 25.0376 81.3203 24.8216C81.9402 24.4769 82.4387 23.8963 81.4918 23.8315C80.644 23.774 72.1338 29.5791 71.2069 30.095C71.2069 30.095 69.6511 30.7394 69.8574 32.0978C70.0653 33.4557 70.5411 33.6443 70.5411 33.6443ZM97.5859 31.6662C97.3591 31.5972 95.2236 32.4103 94.1754 33.1706C93.1271 33.931 93.3582 33.9794 93.2775 34.4879C93.1968 34.9964 93.0143 36.496 92.502 37.6637C91.4485 40.0659 89.5546 40.9516 89.8005 40.9321C91.7228 40.783 93.8557 38.9172 94.5314 34.3209C94.5314 34.3209 94.5241 34.0843 94.8084 33.8414C96.611 33.0315 97.4039 32.5383 97.4039 32.5383C97.4039 32.5383 98.0063 31.7948 97.5859 31.6662ZM92.6729 30.7236C93.1166 30.9818 93.3461 31.1283 93.5101 30.8232C93.7591 30.359 92.0156 28.8557 90.8804 25.7621C90.5259 24.7947 90.7801 25.0065 90.5633 24.1803C90.3396 23.3293 90.7722 23.1828 90.1814 23.1781C89.274 23.1686 89.8601 25.8438 90.2668 26.9161C90.9273 28.656 92.4967 30.6203 92.6729 30.7236ZM78.757 39.8541C78.9791 40.3346 79.7266 39.9178 80.2742 39.6133C80.9405 39.2439 81.4401 38.7075 81.6062 38.4124C81.6062 38.4124 81.1536 37.084 80.7696 37.611C79.4607 39.4104 78.8314 39.3735 78.757 39.8541ZM85.5179 33.5463C86.621 31.9471 87.0467 31.0555 87.4445 30.183C88.0206 28.9184 87.5437 28.1348 87.3042 28.5342C87.0657 28.9347 86.9185 29.518 86.63 30.1282C86.2412 30.9475 85.9605 31.3754 85.5179 32.17C85.0231 33.0584 84.2059 33.4604 84.4038 33.7887C84.5852 34.0906 85.4008 33.717 85.5179 33.5463ZM88.3429 36.1387C89.0213 35.5128 88.0179 35.693 87.3432 35.7135C86.5841 35.7362 86.3762 35.7641 85.6361 35.802C84.0741 35.879 83.9285 36.291 83.756 36.6962C83.5692 37.1336 83.6014 37.5451 83.8229 37.895C84.5726 39.0753 85.4446 39.2607 85.8492 39.1011C86.4812 38.8519 85.0189 38.7359 84.7546 37.4782C84.4935 36.5671 85.5965 36.4428 86.381 36.4523C87.8987 36.4723 88.3429 36.1387 88.3429 36.1387ZM112.008 26.3291C111.712 25.555 111.291 25.055 110.742 24.557C110.016 23.8994 110.385 24.7009 110.674 25.1609C110.823 25.3985 110.881 25.5882 111.006 25.8638C111.15 26.1789 111.201 26.7211 111.361 26.6789C111.599 26.6152 112.008 26.3291 112.008 26.3291ZM112.727 29.196C112.161 29.5111 111.769 29.6508 111.769 29.6508C111.648 30.4744 111.543 31.2479 111.25 32.2053C110.462 34.7825 109.001 37.1288 108.581 37.6247C107.988 38.3824 107.217 39.1148 108.067 38.7765C109.327 38.0425 110.606 36.3026 111.546 34.3019C112.388 32.5104 112.743 30.8337 112.757 29.3741C112.757 29.3741 112.808 29.1507 112.727 29.196ZM103.233 26.9113C103.073 27.1026 101.984 28.2655 101.193 30.2768C100.578 31.8412 100.482 33.2006 100.518 34.5301C100.54 35.3094 100.8 36.3959 101.081 35.694C101.056 34.3109 101.292 32.8919 101.894 31.2257C102.453 29.6777 103.219 28.5242 103.924 27.5262C103.924 27.5262 103.862 26.5989 103.661 26.5404C103.46 26.4824 103.393 26.7211 103.233 26.9113ZM131.311 27.3634C130.978 28.8051 130.755 28.764 129.793 30.6867C128.727 32.817 127.914 35.4959 129.238 36.7863C129.692 37.2279 129.526 36.3469 129.423 35.6029C129.275 34.5306 129.676 33.3118 130.101 32.3755C131.511 29.2735 131.829 28.9895 131.828 27.4704C131.828 27.4704 131.584 26.1831 131.311 27.3634ZM124.945 25.9544C124.32 26.1541 123.403 26.8249 122.662 27.6506C120.8 29.7256 118.764 33.9025 116.803 38.043C116.3 39.1043 115.877 39.8546 116.099 39.9652C116.774 40.0712 117.244 39.7903 117.563 39.2665C118.099 38.3845 119.083 35.6171 120.185 33.344C121.133 31.3886 122.502 29.0596 123.094 28.3577C123.598 27.7597 124.453 26.8323 125.166 26.3201C125.166 26.3196 125.569 25.7547 124.945 25.9544ZM145.621 36.6351C145.96 36.6319 147.049 36.1577 148.96 35.1171C150.739 34.1486 152.774 32.4935 153.194 32.1099C153.825 31.5314 154.795 30.3974 154.973 29.9469C155.151 29.4969 154.419 28.1448 154.04 28.9289C153.451 29.6719 152.712 30.8042 151.684 31.8433C149.567 33.9842 146.774 35.4195 145.242 36.0976C144.702 36.3374 145.472 36.6356 145.621 36.6351ZM37.0382 27.2017C38.2568 25.8749 36.1894 26.8175 35.3812 27.7212C34.1784 29.0643 33.8107 29.2846 32.7277 31.5066C30.6787 35.7098 31.6436 38.3328 31.6436 38.3328C31.6436 38.3328 31.8583 39.2644 32.1374 38.7612C32.1374 38.7612 31.7844 36.4454 33.8334 32.2438C34.9164 30.0217 36.1155 27.8708 37.0382 27.2017ZM46.9628 26.1652C47.1147 25.6588 47.3241 25.7853 46.5223 25.6588C45.7209 25.5324 45.7088 26.1025 45.7088 26.1025C45.5268 26.4845 44.8732 27.4735 44.5815 28.1248C44.2892 28.7761 42.7741 31.9555 42.1954 33.4978C41.5017 35.3494 40.5284 37.1494 41.1936 38.4488C41.1936 38.4488 41.7945 39.3493 41.7338 38.7575C41.6378 37.8201 42.2213 35.8922 42.9788 34.0669C43.6113 32.5436 45.4239 28.921 45.7384 28.2813C46.0522 27.6401 46.7671 26.5409 46.9628 26.1652ZM45.875 38.9852C45.4918 39.502 45.0442 39.9678 44.5429 40.3715C43.7844 40.9817 43.3956 41.6282 43.9247 41.5376C44.8025 41.37 46.4015 39.7582 46.4015 39.7582C46.4015 39.7582 46.1709 39.5216 45.875 38.9852ZM54.8864 27.5816C55.5896 26.7685 54.0481 27.3892 53.6208 27.8029C52.436 28.9494 51.8225 29.821 51.2226 31.0192C50.6677 32.1284 50.0647 33.5426 49.9645 35.3447C49.9275 36.0097 50.2098 37.0034 50.5885 36.8153C50.483 35.9733 51.1931 33.6169 52.0741 31.7579C52.915 29.9843 53.9527 28.6612 54.8864 27.5816ZM59.0255 28.236C58.9627 29.6344 58.2363 30.3716 58.0395 30.6741C57.8427 30.9755 57.4059 32.043 57.4392 32.866C57.4518 33.1833 57.7731 34.2698 57.9477 33.6759C58.183 32.875 58.173 32.5488 58.5961 31.6515C59.0724 30.6419 59.5483 30.0881 59.5952 29.4864C59.6654 28.5901 59.3678 28.0816 59.2713 27.9367C59.0566 27.6153 59.0376 27.9694 59.0255 28.236Z" fill="white"/>
</svg>
