<svg width="168" height="38" viewBox="0 0 168 38" fill="none" xmlns="http://www.w3.org/2000/svg">
<g clip-path="url(#clip0_2337_373)">
<path d="M31.8812 31.8574C28.5116 35.225 23.7759 37.1847 19.0109 37.1847C14.2459 37.1847 9.51017 35.225 6.14161 31.8574C2.77306 28.492 0.811473 23.7617 0.811473 19.0022C0.811473 14.2405 2.77306 9.51022 6.14161 6.14479C9.51017 2.77935 14.2459 0.819582 19.0109 0.819582C23.7759 0.819582 28.5116 2.77935 31.8812 6.14479C35.2498 9.51022 37.2114 14.2405 37.2114 19.0022C37.2114 23.7607 35.2498 28.492 31.8812 31.8574ZM32.4537 5.57079C28.9341 2.05557 23.9877 0.0078125 19.0109 0.0078125C14.0341 0.0078125 9.08766 2.05557 5.56918 5.57079C2.04965 9.08601 0 14.0289 0 19.0022C0 23.9733 2.04965 28.9152 5.56918 32.4304C9.08766 35.9467 14.0341 37.9944 19.0109 37.9944C23.9888 37.9944 28.9341 35.9488 32.4537 32.4304C35.9721 28.9152 38.0218 23.9733 38.0218 19.0022C38.0218 14.0289 35.9721 9.08601 32.4537 5.57079Z" fill="#273691"/>
<path d="M17.9657 18.397V19.6027L19.011 20.206L20.0563 19.6027V18.397L19.011 17.7937L17.9657 18.397ZM19.92 15.5082V12.9461C19.9186 12.7056 19.823 12.4751 19.6537 12.3041C19.4859 12.1354 19.249 12.0391 19.011 12.0391C18.773 12.0391 18.5371 12.1365 18.3694 12.3041C18.1998 12.4749 18.1041 12.7055 18.1031 12.9461V15.5082L19.012 16.0319L19.92 15.5082ZM13.3076 21.2409C13.1001 21.362 12.9482 21.5593 12.8841 21.7908C12.8228 22.0232 12.856 22.2705 12.9763 22.4787C13.0967 22.6868 13.2946 22.839 13.5267 22.9021C13.7597 22.9627 14.0071 22.9304 14.2166 22.812L16.4371 21.531V20.4836L15.5282 19.9598L13.3076 21.2409ZM24.7133 21.2409L22.4928 19.9598L21.5838 20.4836V21.5331L23.8043 22.8141C24.0136 22.9332 24.2613 22.9655 24.4942 22.9042C24.7265 22.8409 24.9246 22.6889 25.0457 22.481C25.1647 22.2722 25.1966 22.0249 25.1344 21.7928C25.0722 21.5606 24.9209 21.3623 24.7133 21.2409Z" fill="#273691"/>
<path d="M32.1453 26.7625C32.0926 26.787 32.0337 26.7947 31.9765 26.7845L27.9842 26.0377C27.8855 26.0191 27.7958 25.9687 27.7287 25.8941C27.6616 25.8195 27.621 25.725 27.613 25.625C27.5889 25.3379 27.4785 25.0648 27.2964 24.8415C27.1121 24.6203 26.8645 24.4605 26.5869 24.3836C26.3092 24.3067 26.0147 24.3162 25.7427 24.411C25.2563 24.5822 24.7387 24.6463 24.2253 24.5987C23.7119 24.5512 23.2148 24.3932 22.7683 24.1355L21.5857 23.4557V31.2163H19.9198V22.4942L19.0108 21.9705L18.1018 22.4942V31.2163H16.4369V23.4557L15.2533 24.1355C14.8069 24.3935 14.3098 24.5517 13.7963 24.5992C13.2829 24.6468 12.7652 24.5826 12.2789 24.411C12.0757 24.3392 11.8587 24.315 11.6447 24.3404C11.4306 24.3658 11.2253 24.44 11.0445 24.5574C10.8638 24.6747 10.7126 24.8321 10.6025 25.0172C10.4923 25.2023 10.4264 25.4103 10.4096 25.625C10.4017 25.7248 10.3612 25.8193 10.2944 25.8938C10.2275 25.9684 10.1379 26.0189 10.0395 26.0377L6.04609 26.7845C6.00355 26.792 5.95986 26.7897 5.91836 26.7777C5.87686 26.7657 5.83866 26.7444 5.80669 26.7153C5.77471 26.6863 5.7498 26.6504 5.73388 26.6103C5.71795 26.5702 5.71142 26.5269 5.7148 26.4839C5.72025 26.426 5.7433 26.3712 5.78085 26.3268L8.4239 23.2473C8.4887 23.1708 8.57703 23.1179 8.67509 23.0969C8.77315 23.0759 8.87542 23.0879 8.96593 23.131C9.22489 23.2536 9.52054 23.2944 9.80256 23.2473C10.0846 23.2002 10.3509 23.065 10.5553 22.865C10.7598 22.666 10.9003 22.401 10.9537 22.1203C11.0477 21.6136 11.2507 21.1333 11.5487 20.7127C11.8466 20.292 12.2324 19.941 12.6794 19.6839L13.8631 19.0031L7.13435 15.1223L7.96679 13.682L15.528 18.0436L16.4369 17.5199V16.4714L8.87576 12.1098L9.70716 10.6696L16.4359 14.5504V13.1835C16.4359 12.6713 16.5481 12.158 16.7619 11.6909C16.9779 11.2247 17.2935 10.8058 17.6835 10.4716C17.9017 10.2834 18.0572 10.0331 18.1291 9.7542C18.2011 9.47529 18.1861 9.18109 18.0861 8.91094C17.9839 8.64187 17.8026 8.41 17.5661 8.24581C17.4839 8.18844 17.4226 8.10588 17.3916 8.01062C17.3606 7.91537 17.3615 7.81261 17.3941 7.7179L18.7434 3.89054C18.763 3.83586 18.799 3.78853 18.8465 3.75499C18.8939 3.72144 18.9506 3.70331 19.0087 3.70305C19.0668 3.70331 19.1235 3.72144 19.1709 3.75499C19.2184 3.78853 19.2543 3.83586 19.2739 3.89054L20.6243 7.7179C20.657 7.81261 20.6578 7.91537 20.6268 8.01062C20.5958 8.10588 20.5345 8.18844 20.4524 8.24581C20.2154 8.40981 20.0343 8.64234 19.9335 8.91215C19.8327 9.18197 19.8169 9.47615 19.8883 9.75518C19.9596 10.0317 20.1179 10.2852 20.3349 10.4716C20.7262 10.8072 21.0403 11.2232 21.2558 11.6912C21.4713 12.1593 21.5831 12.6683 21.5836 13.1835V14.5493L28.3123 10.6686L29.1448 12.1088L21.5836 16.4703V17.5188L22.4926 18.0426L30.0537 13.681L30.8862 15.1212L24.1585 19.002L25.3422 19.6829C25.7884 19.941 26.1737 20.2923 26.4717 20.7128C26.7696 21.1332 26.9734 21.6129 27.0689 22.1192C27.1213 22.3999 27.2629 22.6649 27.4662 22.8639C27.6707 23.064 27.938 23.1991 28.219 23.2463C28.5021 23.2934 28.7977 23.2525 29.0556 23.13C29.1462 23.087 29.2484 23.0751 29.3464 23.0961C29.4444 23.1172 29.5328 23.1699 29.5977 23.2463L32.2407 26.3257C32.2781 26.37 32.301 26.4247 32.3062 26.4824C32.3115 26.5401 32.2989 26.5981 32.2701 26.6484C32.2421 26.699 32.1983 26.7392 32.1453 26.7625ZM30.428 7.59221C27.439 4.6049 23.238 2.86719 19.0097 2.86719C14.7825 2.86719 10.5815 4.60594 7.59146 7.59221C4.60138 10.5795 2.86206 14.7766 2.86206 19.001C2.86206 23.2232 4.60138 27.4224 7.59146 30.4097C10.5815 33.3949 14.7825 35.1337 19.0097 35.1337C23.2369 35.1337 27.439 33.3949 30.428 30.4097C33.4181 27.4224 35.1585 23.2253 35.1585 19.001C35.1585 14.7766 33.4181 10.5795 30.428 7.59221ZM128.571 34.8268V3.17199H134.118V15.3056H140.193V3.17199H145.864V34.8268H140.193V20.9283H134.118V34.8268H128.571ZM47.4218 22.5832L41.2623 3.17199H46.798L50.5901 15.5046L54.7816 3.17199H59.9692L53.5843 21.9527V34.8268H47.4218V22.5832ZM80.3766 34.8268H85.345V10.966L89.5837 31.7096H94.223L97.9826 10.6308V34.8268H103.808V3.17199H94.7807L92.1209 18.23L89.0386 3.17199H80.3766V34.8268ZM155.644 22.1852L158.006 8.02794L160.297 22.1852H155.644ZM162.77 3.17199H154.19L148.399 34.8268H153.533L154.763 27.4601H161.151L162.345 34.8268H168.001L162.77 3.17199ZM113.586 22.1852L115.948 8.02794L118.24 22.1852H113.586ZM120.713 3.17199H112.133L106.343 34.8268H111.477L112.705 27.4601H119.092L120.285 34.8268H125.943L120.713 3.17199ZM65.3916 22.1852L67.7537 8.02794L70.0455 22.1852H65.3916ZM72.5187 3.17199H63.9385L58.147 34.8268H63.2832L64.512 27.4601H70.8989L72.092 34.8268H77.7482L72.5187 3.17199Z" fill="#273691"/>
</g>
<defs>
<clipPath id="clip0_2337_373">
<rect width="168" height="38" fill="white"/>
</clipPath>
</defs>
</svg>
