<svg width="63" height="74" viewBox="0 0 63 74" fill="none" xmlns="http://www.w3.org/2000/svg">
<g clip-path="url(#clip0_3323_1435)">
<path d="M34.5 0.749624C33.75 1.24794 33.25 1.99542 32.25 1.99542C31.5 1.99542 30.75 1.99542 30 1.99542C29 1.99542 28.25 2.24457 27.75 2.99205C27.25 3.49036 27.25 4.23784 27.5 4.98531C27.5 5.73279 27.5 6.48026 27.5 6.97858C27.25 8.22437 26.25 8.72269 25.5 9.47016C24 11.9617 26.75 13.7059 27.5 15.45C28 16.9449 26.5 18.4399 27.25 19.9348C28 21.4298 30.5 20.6823 30.25 22.9247C30 23.9213 29.5 24.918 30.25 25.9146C30.75 26.9112 32.5 27.1604 33.5 27.9079C33.75 28.9045 34.25 30.1503 34.75 31.1469C35.25 32.1436 35.75 33.3894 36.5 34.386C36.5 34.6351 36.5 34.6351 36.75 34.6351C37.25 35.3826 37.75 36.1301 38.5 36.6284C36.75 37.625 35 38.6217 33.5 39.8675C29.25 32.1436 23.25 25.6654 16 20.6823C15 20.6823 15 20.9314 15.25 20.9314C19.75 24.1705 23.75 28.157 27.25 32.6419C24.5 34.6351 22.25 30.1503 20.25 29.1537C19.5 28.9045 18.75 28.6553 18 28.9045C17.25 29.1537 16.5 29.652 15.75 29.652C14.75 29.4028 14.5 28.157 14.5 27.1604C14.5 25.4163 14.25 24.1705 12.75 23.423C11.25 22.9247 9.00004 23.1739 7.75004 21.9281C6.75004 20.9314 7.50004 19.4365 8.00004 18.4399C8.25004 17.4432 8.50004 16.4466 8.25004 15.2008C8.25004 13.955 7.75004 12.7092 8.00004 11.4634C8.50004 9.96848 10 8.22437 11.75 9.221C13.25 10.2176 14 12.2109 16.25 12.4601C17.25 12.4601 18 12.2109 18.75 12.2109C21.25 12.2109 20.75 14.9516 20.5 16.4466C20.5 17.4432 20.5 18.4399 21 19.1873C21.75 20.4331 23.5 20.4331 24 21.9281C24.25 23.1739 24 24.1705 24.5 25.4163C24.75 25.9146 25 26.1638 25.25 26.4129C25.5 26.6621 25.75 26.9112 26 27.1604C26.5 27.6587 29.5 29.9011 26.75 30.6486C26.75 30.6486 26.5 30.8978 26.75 30.8978C29 30.3995 27.75 27.9079 26.5 27.1604C25.5 26.1638 24.25 25.6654 24.25 23.9213C24.25 23.1739 24.5 22.6755 24.25 21.9281C24 20.6823 23 20.184 22 19.4365C20.25 18.1907 21.25 16.1974 21.25 14.2042C21.25 13.2075 21 12.2109 20 11.7126C19 11.2143 17.75 11.7126 16.5 11.7126C14.75 11.7126 14 10.2176 13 8.97185C11.25 7.4769 9.25004 7.72605 8.00004 9.71932C6.50004 12.4601 8.25004 15.6991 7.25004 18.4399C6.75004 20.4331 6.25004 22.4264 8.50004 23.1739C9.50004 23.423 10.5 23.6722 11.5 23.9213C12 23.9213 12.75 24.1705 13 24.4197C14 25.1671 14 26.4129 14 27.4096C14 28.4062 14.25 29.652 15.25 30.1503C16.75 30.8978 18 29.1537 19.5 29.652C22 30.6486 24.25 35.6318 27.5 33.1402C27.5 33.1402 27.5 33.1402 27.5 32.891C29.25 35.1335 30.75 37.625 32.25 40.1166C31.75 40.6149 31.25 41.1133 30.75 41.8607C28.25 40.6149 25.5 39.6183 22.75 39.3692C23 39.12 23 38.8708 23 38.3725C22.5 37.625 21.5 37.3759 20.75 37.1267C19.75 36.8776 19.5 36.1301 19 35.3826C18.75 34.8843 18.75 34.6351 18.25 34.386C17.5 33.8877 16.25 34.8843 15.25 34.8843C13 34.8843 10.75 31.8944 8.50004 33.3894C7.25004 34.1368 7.25004 35.6318 6.00004 36.3793C5.00004 36.8776 3.75004 35.8809 2.75004 35.8809C1.75004 35.8809 1.00004 36.8776 0.750042 37.625C0.500042 38.1234 0.500042 38.8708 0.500042 39.3692C0.500042 40.3658 0.250042 40.8641 4.16189e-05 41.8607C-0.999958 44.3523 1.75004 44.8506 3.75004 44.3523C4.25004 44.3523 5.00004 44.1032 5.75004 44.3523C6.75004 44.6015 7.25004 45.3489 7.50004 46.3456C7.75004 47.3422 8.25004 48.3388 9.25004 48.588C10.25 48.8372 11.25 48.588 12 48.3388C13.25 48.0897 14.25 48.0897 15.25 49.0863C16 49.5846 16.75 50.3321 17.75 49.8338C18.25 49.5846 18.5 49.0863 18.75 48.588C19.25 47.5914 19.75 46.8439 20.75 46.3456C22.75 45.0998 25.75 43.854 25.5 41.1133C27.25 41.3624 28.75 41.8607 30.25 42.6082C25.75 47.8405 24.25 54.817 28.25 61.2951C30.5 65.0324 34.5 66.7766 38.75 67.7732C40.5 68.2715 42.25 68.5207 44 68.7698C45.75 69.019 47.75 69.2681 49.5 69.5173C51.25 70.0156 53.25 70.7631 54.75 71.5106C55.5 72.0089 56.5 72.5072 57.25 73.0055C57.5 73.2547 58.75 74.2513 59 73.753C61.5 66.5274 63.75 58.5543 62.5 50.8304C61.5 44.3523 57.5 37.625 51 35.3826C46.75 33.8877 42 34.6351 38 36.3793C38 36.1301 38.25 35.8809 38 35.8809C37.5 34.8843 36.75 34.1368 36.25 33.1402C36.25 31.6452 36.5 30.1503 37 28.9045C37.75 27.1604 39 26.1638 40.25 24.918C41 24.1705 41.25 23.423 41.25 22.4264C41.25 20.4331 39.25 19.4365 40 17.4432C40.5 16.4466 41.25 15.45 41.5 14.4533C41.75 13.4567 41.25 12.4601 40.75 11.7126C39.25 9.96848 37.75 9.221 38 6.72942C38.25 5.23447 39 3.98868 38.5 2.49373C38.25 -0.247009 36 -0.496167 34.5 0.749624ZM25 41.1133C25.5 43.854 22 44.8506 20.25 45.8473C19.5 46.5947 19 47.3422 18.5 48.0897C17.75 49.5846 16.5 48.8372 15.5 48.0897C14.75 47.8405 14.25 47.3422 13.5 47.3422C12.75 47.3422 12 47.5914 11.25 47.8405C10.25 48.0897 9.25004 48.0897 8.75004 47.3422C8.00004 46.5947 8.00004 45.3489 7.25004 44.3523C6.00004 42.8574 4.00004 44.1032 2.50004 43.854C2.25004 43.854 1.75004 43.854 1.50004 43.6048C1.25004 43.3557 1.00004 42.6082 1.00004 42.1099C1.00004 41.6116 1.50004 41.3624 1.50004 40.8641C1.75004 39.6183 1.50004 38.1234 2.25004 37.1267C3.50004 35.3826 5.75004 38.1234 7.25004 36.6284C8.00004 36.1301 8.25004 35.1335 8.75004 34.386C9.75004 33.1402 11.5 33.8877 12.75 34.386C13 34.8843 14 35.3826 15 35.6318C16 35.6318 16.75 35.1335 17.5 34.8843C18.75 34.6351 18.75 36.6284 19.75 37.1267C20.25 37.3759 20.75 37.3759 21.25 37.625C21.75 37.8742 23.75 38.6217 22.5 39.6183C22 39.6183 21.75 39.6183 21.25 39.3692C19.75 39.3692 18 39.3691 16.5 39.6183C15.75 39.6183 15 39.8675 14 40.1166C13.25 40.3658 12.25 40.6149 11.75 40.8641C11.5 41.1133 11.25 41.8607 11.75 41.8607C12.5 41.8607 13.25 41.3624 14 41.1133C14.75 40.8641 15.5 40.6149 16.25 40.6149C17.75 40.3658 19.5 40.1166 21 40.3658C22.5 40.3658 23.75 40.6149 25 41.1133C25 40.8641 25 40.8641 25 41.1133ZM49.5 36.1301C56 37.625 60.5 43.854 61.75 50.083C63.5 57.8069 61 65.5308 58.75 73.0055C56.25 71.0122 53.75 69.7665 50.75 68.7698C48 68.0223 45 67.524 42.25 66.7766C38.75 66.0291 35.25 65.2816 32.5 63.2883C26.25 59.0526 26 50.083 30.25 44.1032C31 43.1065 32 42.1099 33 41.1133C33 41.1133 33.25 41.1133 33.25 40.8641C37.75 37.3759 44 35.1335 49.5 36.1301ZM38 4.98531C37.25 7.4769 37.5 9.221 39.5 10.9651C40 11.4634 41 12.2109 41 12.9584C41.25 13.955 40.75 14.9516 40.25 15.9483C40 16.6958 39.25 17.4432 39.5 18.4399C39.5 19.6856 40.5 20.4331 40.75 21.6789C41.5 23.9213 39 25.4163 37.75 26.9112C36.75 28.6553 36 30.3995 36 32.3927C35.75 31.8944 35.25 31.3961 35 30.6486C34.25 28.9045 33.5 26.9112 33.25 24.6688C32.5 20.6823 33 16.4466 34.75 12.4601C34.75 12.2109 34.5 11.9617 34.5 12.2109C32.5 16.4466 32 20.6823 32.5 24.918C32.5 25.6654 32.75 26.6621 33 27.4096C31.75 26.6621 30 26.1638 30 24.4197C30 22.6755 31 21.4298 29 20.6823C28.75 20.4331 28 20.4331 27.75 20.184C27.5 19.6857 27.5 18.4399 27.5 17.9415C27.5 17.4432 27.75 17.1941 27.75 16.6958C27.75 15.6991 27.25 14.7025 26.75 13.955C26.25 13.4567 25.75 12.7092 25.5 11.9617C24.75 9.96848 26 9.71932 27 8.72269C27.5 8.22437 27.75 7.4769 27.75 6.72942C27.75 5.48363 27 4.23784 28 3.24121C29 2.24457 30.5 2.99205 32 2.74289C33.25 2.49373 33.75 1.74626 34.75 0.998782C35.75 0.251307 37 0.00214919 37.75 1.24794C38.5 2.49373 38.25 3.73952 38 4.98531Z" fill="#231F20"/>
<path d="M41.5 55.5679C41 56.0662 40.5 56.5645 40 57.0629C39.5 57.5612 39 58.0595 38.25 58.3086C37 59.0561 35.75 59.8036 34.5 60.5511V60.8002C36 60.3019 37.25 59.5544 38.5 58.807C39.75 58.0595 41 57.0629 41.75 56.0662C41.75 55.8171 41.75 55.3187 41.5 55.5679Z" fill="#231F20"/>
<path d="M44.2503 57.8101C42.2503 59.8034 40.0003 61.7966 37.5003 63.0424C37.2503 63.0424 37.5003 63.5407 37.5003 63.2916C40.2503 62.2949 42.7503 60.5508 44.5003 58.3084C44.7503 58.0592 44.5003 57.5609 44.2503 57.8101Z" fill="#231F20"/>
<path d="M47.75 59.5485C47 60.5452 46.5 61.5418 45.5 62.2893C44.75 63.0367 43.75 63.7842 42.75 64.5317V64.7808C45 63.7842 47 62.0401 48 59.7977C48 59.5485 47.75 59.2994 47.75 59.5485Z" fill="#231F20"/>
</g>
<defs>
<clipPath id="clip0_3323_1435">
<rect width="63" height="74" fill="white"/>
</clipPath>
</defs>
</svg>
