<svg width="139" height="33" viewBox="0 0 139 33" fill="none" xmlns="http://www.w3.org/2000/svg">
<path fill-rule="evenodd" clip-rule="evenodd" d="M26.3446 0L22.0614 6.67307H11.2124L18.6262 23.2929L30.3434 0.0223351H37.3798C40.7346 0.0223351 44.1973 0.178684 47.4032 2.42786C50.6091 4.67704 53.5075 8.4413 54.4738 12.3679C55.4395 16.2944 54.4716 20.3848 52.6684 23.5907C50.8652 26.7973 48.2251 29.1194 45.5374 30.4558C42.8498 31.7922 40.1628 31.6299 37.5324 31.6299H25.5785L29.2586 24.7164H39.0081C40.3958 24.7164 41.7836 24.3702 43.0188 23.7373C44.2539 23.1038 45.3364 22.1731 46.177 21.0467C47.0175 19.9202 47.6161 18.5972 47.7457 16.6823C47.8752 14.7674 47.5372 12.2592 46.078 10.354C44.618 8.44874 42.0472 6.91356 39.4399 6.91356H34.7882L21.8552 31.5108H15.0496L0 0H26.3446ZM56.9583 21.0481C56.4766 19.4867 56.2307 17.8622 56.2287 16.2282C56.2272 14.5977 56.4714 12.965 56.9665 11.4007C57.4655 9.82222 58.2121 8.333 59.1784 6.98875C60.1546 5.63539 61.3418 4.44765 62.6948 3.47092C64.0381 2.5036 65.5269 1.75643 67.1053 1.25748C68.6702 0.761639 70.3015 0.517435 71.9334 0.517435C73.5654 0.517435 75.1966 0.761639 76.7609 1.25748C78.3392 1.75658 79.828 2.50375 81.1714 3.47092C82.5197 4.44251 83.7161 5.63969 84.6877 6.98801C85.6593 8.33632 86.4053 9.83502 86.8997 11.4007C87.3955 12.9657 87.6397 14.5977 87.6397 16.2297C87.6397 17.8616 87.3955 19.4936 86.8997 21.0586C86.4053 22.6243 85.6593 24.1222 84.6877 25.4706C83.7161 26.8189 82.5197 28.0161 81.1714 28.9884C79.8273 29.9549 78.3387 30.7025 76.7609 31.2033C75.1991 31.6955 73.5709 31.9444 71.9334 31.9411H51.6923L55.5787 25.1385H72.0131C72.9289 25.1385 73.8468 25.003 74.7269 24.7238C76.0644 24.3014 77.2804 23.5627 78.2719 22.5705C79.2633 21.5783 80.001 20.3617 80.4224 19.0238C80.7016 18.1445 80.8386 17.2273 80.8386 16.3101C80.8386 15.3928 80.7016 14.4763 80.4224 13.5963C79.8564 11.8043 78.728 10.2423 77.2046 9.14189C76.4496 8.59887 75.6133 8.17897 74.7269 7.8978C73.8489 7.62126 72.9336 7.48115 72.0131 7.48237C71.0933 7.48126 70.1788 7.62137 69.3016 7.8978C67.5095 8.46446 65.9477 9.59362 64.8479 11.1178C64.3048 11.8728 63.8853 12.7094 63.6053 13.5963C63.3269 14.4763 63.1899 15.3928 63.1899 16.3101C63.1899 17.2273 63.3284 18.1445 63.5807 18.9434C63.8126 19.6969 64.1858 20.3993 64.6804 21.0132L56.9583 21.0481ZM99.0628 24.9286C100.18 24.3665 100.736 23.4403 100.764 22.4516C100.774 21.9258 100.647 21.4065 100.395 20.945C100.143 20.4835 99.775 20.0958 99.3271 19.8204C98.3644 19.2308 96.993 19.4683 95.7355 19.4683H89.5814L92.6585 13.3134H98.488C99.9011 13.3134 101.447 13.4928 102.453 12.9456C103.461 12.3976 103.89 11.4551 103.919 10.5081C103.947 9.56104 103.575 8.60658 102.375 8.02437C101.176 7.44142 99.1789 7.55383 97.3586 7.55383H87.4923L85.0041 0.33354H98.3793C101.612 0.33354 105.031 0.817474 107.43 2.64823C109.829 4.47825 111.186 7.28581 111.323 9.78291C111.461 12.28 110.379 14.4644 109.152 15.9073C107.924 17.3494 106.548 18.0478 105.102 18.1632C106.023 18.7126 106.699 19.6246 107.034 21.0496C107.367 22.4746 107.36 24.4119 106.616 26.2657C105.871 28.1195 104.391 29.89 102.4 30.9494C100.408 32.0096 97.9423 31.9404 95.5732 31.9404H82.6373L86.8498 25.4274L94.7632 25.408C96.2984 25.4036 97.9475 25.4899 99.0628 24.9286ZM105.451 32.1027L109.499 25.3001H126.907L123.542 32.1027H105.451ZM111.766 20.1168L115.814 13.3141H132.832L129.469 20.1168H111.766ZM113.709 7.64392L109.66 0.840553H139L135.635 7.64392H113.709Z" fill="#EF4B4B"/>
</svg>
