<svg width="128" height="46" viewBox="0 0 128 46" fill="none" xmlns="http://www.w3.org/2000/svg">
<path fill-rule="evenodd" clip-rule="evenodd" d="M78.5402 15.5997H79.9879C81.1481 15.5997 81.8431 16.8167 81.4959 18.6137C81.2056 20.0046 80.4523 21.2797 78.886 21.6858C78.3656 21.8023 77.8437 21.8598 77.3219 21.8598L78.5402 15.5997ZM77.0904 23.1356C81.2056 23.1356 84.3359 22.2659 85.0892 18.2083C85.6111 15.658 84.162 14.3828 80.9741 14.3828H75.4092L72.3363 29.9757C72.9171 29.9168 73.4964 29.8593 74.0758 29.8593C74.6551 29.8593 75.2345 29.9168 75.7564 29.9757L77.0904 23.1356ZM94.19 29.975C93.6681 29.9161 93.2052 29.8586 92.6833 29.8586C92.1615 29.8586 91.6972 29.9161 91.1767 29.975L91.4657 28.2945C90.1906 29.4532 89.2626 30.1483 87.641 30.1483C86.4808 30.1483 85.3789 29.7429 84.916 28.7581C84.3942 27.7733 84.742 26.381 84.9735 25.2223L86.1911 18.9048C86.713 18.9623 87.2334 19.0205 87.7553 19.0205C88.2771 19.0205 88.799 18.9623 89.3783 18.9048L88.1032 25.2223C88.0457 25.7442 87.8717 26.6139 87.9867 27.0775C88.1607 27.7733 88.625 28.2952 89.3783 28.2952C91.35 28.2952 91.7554 26.3235 92.0444 24.8744L93.2045 18.9048C93.7263 18.9623 94.1893 19.0205 94.7686 19.0205C95.2905 19.0205 95.8109 18.9623 96.3328 18.9048L94.19 29.975ZM99.2331 18.9041C99.7549 18.9616 100.218 19.0198 100.74 19.0198C101.262 19.0198 101.841 18.9616 102.363 18.9041L101.783 21.7441C102.594 20.1217 103.87 18.7301 106.13 18.7301C105.782 19.7731 105.493 20.8168 105.377 21.8023L105.145 21.9762C104.912 21.8023 104.392 21.6865 104.044 21.6865C103.058 21.6865 102.13 22.2084 101.667 23.1932C101.319 23.8889 101.145 25.1059 101.03 25.8606L100.218 29.9757C99.696 29.9168 99.1756 29.8593 98.6537 29.8593C98.1319 29.8593 97.61 29.9168 97.0882 29.9757L99.2331 18.9041ZM109.84 23.3671C110.131 22.1502 110.768 19.7731 112.391 19.7731C113.782 19.7731 113.434 22.1495 113.202 23.3671H109.84ZM116.159 24.4683C117.028 21.2229 116.159 18.7301 112.565 18.7301C109.261 18.7301 106.941 20.9907 106.305 24.1779C105.609 27.8877 107.115 30.1483 110.883 30.1483C111.984 30.1483 113.26 29.8018 114.303 29.1635L115.057 27.8884L114.825 27.6569C114.013 28.2363 112.913 28.7006 111.984 28.7006C109.549 28.7006 109.086 26.7864 109.608 24.469L116.159 24.4683Z" fill="#EF4B4B"/>
<path fill-rule="evenodd" clip-rule="evenodd" d="M75.9329 3.54703C72.1067 -1.6111 63.1799 -0.974221 53.8484 4.35856C52.2254 5.28581 50.5448 6.3295 50.5448 6.3295L49.0382 4.06888L47.5309 10.0392L46.1982 7.43071L39.1253 16.1253L45.8496 8.99554L47.472 12.0677L49.0368 5.63371C49.0368 5.63371 50.312 7.83682 50.3695 7.83682C50.5434 7.66287 50.8331 7.48892 51.1228 7.31497C60.281 1.34462 69.3811 0.127682 72.9758 4.93862C77.3224 10.7932 72.0485 23.2551 61.209 32.8194C50.312 42.3256 38.0234 45.3395 33.6185 39.4856C33.3195 39.122 33.0844 38.7103 32.9234 38.268C31.8222 36.7613 31.3004 34.8486 31.1847 32.703C30.6053 36.1813 31.0689 39.2527 32.7495 41.5134C37.7344 48.1795 51.4132 45.0491 63.3539 34.5582C75.2946 24.0666 80.9178 10.2125 75.9329 3.54703Z" fill="#EF4B4B"/>
<path fill-rule="evenodd" clip-rule="evenodd" d="M4.86845 15.0779C5.56424 15.0197 7.18729 15.0197 8.11455 15.0779C9.91155 15.2519 10.4334 16.4688 10.1437 18.0336C9.7376 20.0628 8.11455 21.4537 5.79641 21.6858C5.0431 21.7441 4.11584 21.7441 3.594 21.6858L4.86845 15.0779ZM3.42005 22.6138C3.94189 22.6138 5.391 22.7295 6.4915 22.5556C9.79512 21.918 11.7085 20.6422 12.2304 17.9186C12.7522 15.1361 11.5346 14.1514 7.07156 14.1514H3.01394L0 29.7429C0.347897 29.6854 0.695092 29.6854 1.04299 29.6854C1.33267 29.6854 1.62235 29.6854 2.02846 29.7429L3.42005 22.6138ZM15.9394 12.6433C16.2298 12.7016 16.5188 12.7016 16.8667 12.7016C17.1564 12.7016 17.446 12.7016 17.7939 12.6433L14.4321 29.7422C14.1424 29.6847 13.8527 29.6847 13.5624 29.6847C13.2145 29.6847 12.9248 29.6847 12.6351 29.7422L15.9394 12.6433ZM24.2868 27.3672C24.2286 27.5412 23.7068 27.9466 23.5335 28.1205C23.0117 28.5259 22.1426 28.9314 21.5626 28.9314C20.1717 28.9314 19.4177 28.2356 19.7081 26.8447C20.1135 24.758 22.4898 24.5251 24.1129 24.2362L24.9244 24.0622L24.2868 27.3672ZM27.0104 22.5556C27.5322 19.9471 26.4885 18.7301 24.1122 18.7301C22.7788 18.7301 21.4454 19.252 20.1703 19.9471L19.9381 21.2222H20.1703C20.4607 20.7586 21.5612 19.6574 23.1842 19.6574C24.923 19.6574 25.677 20.6422 25.3291 22.3234C25.1552 23.4253 24.5176 23.5404 22.6631 23.8883C20.4607 24.1772 18.3158 24.5251 17.7939 27.1337C17.446 28.8142 18.6637 29.9161 20.2867 29.9161C21.6201 29.9161 22.7788 29.4532 23.9382 28.467L24.1704 28.2945C24.1122 29.6271 25.0401 29.8011 26.2571 29.5682C26.4892 29.5682 26.8364 29.4532 26.9529 29.3368L27.0686 28.8738C25.6777 29.1628 25.8517 28.6999 26.0256 27.8301L27.0104 22.5556ZM29.6771 27.5412C30.025 28.4095 30.8948 29.221 31.9378 29.221C33.0397 29.221 34.3723 28.3527 34.6045 27.1344C35.1839 24.0629 29.4457 26.0921 30.199 22.092C30.6051 19.8895 32.5178 18.7301 34.5463 18.7301C35.7632 18.7301 36.633 19.078 36.9809 19.3095C36.6875 19.8388 36.4167 20.3803 36.1693 20.9325H35.9372C35.8214 20.1785 35.1263 19.4252 34.3141 19.4252C33.1547 19.4252 32.1117 20.0628 31.8795 21.338C31.3002 24.2369 36.9802 22.6713 36.2851 26.3228C35.7632 28.7574 33.3869 29.9161 31.3584 29.9161C30.4311 29.9161 29.3874 29.6847 28.6917 29.1628C28.9813 28.641 29.2717 28.1205 29.5032 27.5412H29.6771ZM40.1687 18.8459C40.4584 18.9041 40.7481 18.9041 41.096 18.9041C41.3864 18.9041 41.6761 18.9041 42.024 18.8459L41.6178 20.8168C42.6033 19.5417 43.8209 18.7301 45.3858 18.7301C46.8931 18.7301 48.11 19.5417 48.284 20.9908C49.4427 19.5417 50.7186 18.7301 52.2834 18.7301C55.0652 18.7301 55.6452 20.3525 55.0652 23.1357L53.79 29.7429C53.5003 29.6854 53.21 29.6854 52.9203 29.6854C52.5724 29.6854 52.2827 29.6854 51.993 29.7429L53.1524 23.6575C53.5578 21.6283 53.6161 19.8895 51.3554 19.8895C49.0948 19.8895 48.3408 21.9762 48.0511 23.5986L46.8342 29.7429C46.5445 29.6854 46.2548 29.6854 45.9651 29.6854C45.6172 29.6854 45.3276 29.6854 45.0379 29.7429L46.3123 23.0774C46.7185 20.9332 46.1966 19.8895 44.5153 19.8895C42.1972 19.8895 41.5014 21.4544 41.1535 23.1357L39.8784 29.7429C39.5305 29.6854 39.2983 29.6854 39.0086 29.6854C38.6607 29.6854 38.371 29.6854 38.0814 29.7429L40.1687 18.8459ZM62.9482 27.3672C62.9482 27.5412 62.4264 27.9466 62.1942 28.1205C61.6724 28.5259 60.8616 28.9314 60.2233 28.9314C58.8324 28.9314 58.1366 28.2356 58.4263 26.8447C58.8317 24.758 61.2081 24.5251 62.7736 24.2362L63.5844 24.0622L62.9482 27.3672ZM65.7307 22.5556C66.2526 19.9471 65.1514 18.7301 62.7743 18.7301C61.4409 18.7301 60.1083 19.252 58.8906 19.9471L58.6592 21.2222H58.8913C59.1228 20.7586 60.224 19.6574 61.9053 19.6574C63.5858 19.6574 64.3391 20.6422 64.0502 22.3234C63.8187 23.4253 63.1804 23.5404 61.3259 23.8883C59.1228 24.1772 56.9786 24.5251 56.515 27.1337C56.1671 28.8142 57.384 29.9161 58.9495 29.9161C60.3404 29.9161 61.4999 29.4532 62.6018 28.467L62.8921 28.2945C62.7757 29.6271 63.703 29.8011 64.9788 29.5682C65.2103 29.5682 65.5007 29.4532 65.6746 29.3368L65.7896 28.8738C64.3995 29.1628 64.5145 28.6999 64.6884 27.8301L65.7307 22.5556ZM114.826 7.89062V9.10756H116.448V13.7445H118.071V9.10756H119.694V7.89062H114.826ZM120.797 7.89062V13.7445H122.361V9.68762L123.752 13.7445H124.911L126.301 9.74514V13.7445H127.867V7.89062H125.664L124.331 11.4257L122.998 7.89062H120.797Z" fill="#EF4B4B"/>
</svg>
