<svg width="128" height="35" viewBox="0 0 128 35" fill="none" xmlns="http://www.w3.org/2000/svg">
<path fill-rule="evenodd" clip-rule="evenodd" d="M55.7783 14.9279L49.0016 1.94305H39.6182L55.7783 32.7457L71.8898 1.94305H62.555L55.7783 14.9279ZM114.826 8.81485L128 32.0356H117.858L116.247 28.8124H104.778L103.215 32.0356H93.0738L110.512 1.18498L114.826 8.81485ZM114.826 4.12349C115.204 4.12349 115.536 3.98118 115.773 3.69725C116.058 3.41264 116.199 3.08082 116.199 2.70179C116.199 2.32276 116.058 2.03814 115.773 1.75421C115.536 1.4696 115.204 1.32729 114.826 1.32729C114.446 1.32729 114.115 1.4696 113.83 1.75421C113.546 2.03883 113.45 2.32276 113.45 2.70179C113.45 3.08082 113.593 3.41264 113.83 3.69725C114.115 3.98118 114.446 4.12349 114.826 4.12349ZM114.826 1.04268C114.399 1.04268 113.972 1.18498 113.689 1.51681C113.309 1.80074 113.166 2.22766 113.166 2.70111C113.166 3.17524 113.309 3.60147 113.64 3.8854C113.971 4.21722 114.351 4.40674 114.825 4.40674C115.251 4.40674 115.677 4.21722 116.009 3.93261C116.341 3.60147 116.483 3.17455 116.483 2.70042C116.483 2.27419 116.341 1.84726 116.009 1.51612C115.678 1.18498 115.298 1.04268 114.826 1.04268ZM114.826 2.98572C114.872 2.98572 114.921 3.03361 114.967 3.03361C115.015 3.03361 115.062 3.08082 115.062 3.17592C115.11 3.22313 115.11 3.27033 115.11 3.41264C115.11 3.50774 115.11 3.60215 115.157 3.64936H115.583V3.60215V3.55495V3.31823C115.583 3.12871 115.536 2.98641 115.393 2.89199C115.347 2.84478 115.252 2.84478 115.157 2.79689C115.281 2.79155 115.399 2.74092 115.488 2.65458C115.536 2.60737 115.583 2.51227 115.583 2.32276C115.583 2.13324 115.536 1.99094 115.346 1.89584C115.228 1.83655 115.099 1.80407 114.967 1.80074H114.066V3.64936H114.587V2.98572H114.826ZM114.826 2.13324H114.588V2.65458H114.825C114.92 2.65458 114.967 2.60737 115.014 2.60737C115.11 2.56017 115.11 2.46507 115.11 2.37065C115.11 2.27555 115.062 2.18114 114.967 2.18114C114.921 2.13324 114.872 2.13324 114.826 2.13324ZM110.512 17.5811L107.621 23.1735H113.404L110.512 17.5811ZM37.7703 32.0356V1.94373H29.0033V32.0356H37.7703ZM92.2679 9.99983V1.94373H73.7378V32.0356H92.2679V24.0274H82.5533V20.0934H92.2679V13.7908H82.5533V9.99983H92.2679ZM23.79 1.94373H15.023V13.6485L0 0V32.0356H8.76695V20.8508L23.7893 34.2632L23.79 1.94373Z" fill="#EF4B4B"/>
</svg>
