<svg width="143" height="45" viewBox="0 0 143 45" fill="none" xmlns="http://www.w3.org/2000/svg">
<path fill-rule="evenodd" clip-rule="evenodd" d="M5.43148 16.9889C6.20671 12.572 12.3981 -0.0435393 21.0962 0.000113001C24.9425 0.019514 26.1211 2.19648 25.0694 6.22381C26.2811 5.13816 30.8137 0.326699 36.0649 0.266879C36.0649 0.266879 39.7365 0.221612 38.1651 5.95543C44.35 0.571639 47.6635 0.283855 49.3077 0.266879C52.3019 0.235352 52.3205 2.32177 51.5987 4.2926L43.5674 26.2392C42.6895 28.6393 42.8722 29.1971 44.7687 29.1445C46.9012 29.0863 50.7596 27.6927 52.7862 26.7889C53.0093 19.9767 58.7803 13.2155 64.7598 13.0627C67.2197 12.9996 69.1138 13.7959 71.0789 15.7578C72.1896 16.8669 75.6285 15.9397 78.4327 15.0618C81.2354 14.1863 84.2126 13.053 85.6103 12.8687C87.0169 12.6957 89.1987 12.2583 89.1987 13.0449C89.1987 13.8379 87.5221 17.4433 87.2343 19.8587C86.9708 22.1715 87.5504 24.6952 87.0161 26.4421C88.6376 25.8455 92.2503 25.4139 92.8549 25.5359C92.9689 19.5208 97.6009 12.9996 102.413 12.8695C106.744 12.7587 109.221 14.6713 108.542 18.305C107.832 22.0728 104.335 24.1447 102.405 25.0226C101.169 25.5788 98.3867 26.3572 98.3867 27.0573C98.3867 27.759 98.824 28.8697 100.217 28.8697C102.044 28.8697 106.821 26.9861 112.705 21.448C115.314 18.9986 120.336 13.6657 125 13.6657C128.014 13.6657 127.914 15.0634 127.569 16.9307C129.027 15.7974 136.13 11.935 137.513 14.217C138.298 15.5153 136.794 19.5814 137.369 21.7349C138.237 24.9539 141.926 27.6822 142.071 31.6941C142.159 34.226 138.744 36.3334 135.327 37.0351C135.327 37.0351 120.374 40.1101 0 45L1.84148 39.4853C106.939 37.2267 129.464 35.3739 129.464 35.3739C132.118 35.1548 140.193 32.9188 140.142 31.083C140.052 27.6676 134.399 25.4882 133.583 23.3832C132.805 21.4027 133.863 17.6817 132.677 17.5637C130.688 17.3657 127.042 18.9331 125.803 22.4398L121.647 33.9358H116.369L120.919 21.688C121.357 20.5102 121.925 18.8676 121.041 18.9169C119.733 18.9897 117.822 20.3162 116.334 21.6298C114.847 22.9443 110.56 26.3524 108.807 27.8414C107.054 29.3304 102.332 33.0102 99.09 32.8372C95.8565 32.6545 93.6431 30.7144 93.4014 28.5431C92.6133 28.1801 89.2803 27.8503 85.9571 29.9408C82.6322 32.0433 80.4262 32.7458 79.1934 32.7458C77.9727 32.7458 72.6455 32.1484 72.4168 28.1276C72.2228 24.7211 73.175 22.9329 75.4668 22.8893C77.4263 22.8521 78.5499 24.2449 78.5233 25.4769C78.4683 27.8503 77.2444 28.5908 74.9567 28.4008C75.061 30.307 76.3811 30.7055 78.3462 30.6424C81.2103 30.5519 82.6314 24.8633 82.6532 23.0954C82.6912 20.2313 83.8327 17.208 84.557 15.5832C81.3089 15.8249 76.5872 20.1408 71.2737 19.8458C70.5551 26.4655 66.4744 33.0676 60.6088 33.0676C55.5314 33.0676 53.1467 30.876 52.9575 28.5423C50.6003 30.3991 43.8334 32.9463 40.1828 32.918C37.87 32.9002 36.3106 32.0999 37.5887 28.4913L44.7291 8.32235C46.071 4.53268 45.067 4.86735 44.2966 4.86735C41.0979 4.86735 36.5855 9.63434 35.4489 11.9107L27.8647 32.2212H22.5456L31.8355 6.74198C32.2243 5.67492 32.0998 4.87301 31.4038 4.90615C29.5688 4.99507 25.7791 6.92386 23.1567 11.9932L15.6849 32.2204H10.3965L19.3428 7.44769C19.5902 6.76299 20.5053 3.58365 18.1642 3.61436C18.1642 3.61436 12.8904 3.68227 9.98102 15.7586C6.26411 16.824 5.43148 16.9889 5.43148 16.9889ZM59.0487 21.7196C57.8038 26.1859 58.1506 29.5026 60.9378 29.5253C64.6483 29.5471 66.5003 26.0646 67.1122 23.9167C67.5964 22.2191 69.079 15.9324 65.2222 15.9324C62.5085 15.9316 59.7026 19.3987 59.0487 21.7196ZM103.444 15.6139C104.827 15.6139 105.861 15.8014 105.64 17.5629C105.386 19.6178 99.9768 24.384 97.8976 24.2344C98.1595 21.8061 99.6655 15.6139 103.444 15.6139Z" fill="#EF4B4B"/>
</svg>
