<svg width="138" height="45" viewBox="0 0 138 45" fill="none" xmlns="http://www.w3.org/2000/svg">
<g clip-path="url(#clip0_1468_4956)">
<path d="M59.3969 23.7718C59.3969 21.6105 60.4462 19.6434 62.1545 18.2106C61.3492 16.7778 60.2998 15.5392 59.0065 14.4464C58.7868 14.2764 58.5672 14.1064 58.3476 13.9364C57.0542 12.965 55.59 12.2122 53.955 11.6293C52.0271 10.9494 49.9529 10.6094 47.7566 10.6094C45.5603 10.6094 43.486 10.9494 41.5582 11.6293C39.6303 12.3093 37.9465 13.2564 36.5067 14.4707C35.0669 15.6606 33.92 17.0692 33.1147 18.672C32.285 20.2748 31.8701 21.999 31.8701 23.8204C31.8701 25.6175 32.285 27.3174 33.1147 28.9202C33.9444 30.523 35.0669 31.9316 36.5067 33.1215C37.9465 34.3115 39.6303 35.2586 41.5582 35.9386C43.486 36.6185 45.5603 36.9585 47.7566 36.9585C49.9529 36.9585 52.0271 36.6185 53.955 35.9386C55.59 35.3557 57.0542 34.5786 58.3476 33.6315C58.5672 33.4615 58.7868 33.2915 59.0065 33.1215C60.3242 32.0287 61.3736 30.7659 62.1545 29.3573C60.4462 27.9245 59.3969 25.9332 59.3969 23.7718ZM47.7322 31.6887C46.5852 31.6887 45.4627 31.5187 44.4378 31.203L40.3624 33.8986L41.9974 30.0859C39.6791 28.6531 38.1905 26.346 38.1905 23.7718C38.1905 19.4005 42.4611 15.8549 47.7322 15.8549C50.3921 15.8549 52.7836 16.7535 54.5163 18.2106C56.2245 19.6434 57.2738 21.6105 57.2738 23.7718C57.2738 25.9332 56.2245 27.9003 54.5163 29.3331C52.7836 30.7902 50.3921 31.6887 47.7322 31.6887Z" fill="#EF4B4B"/>
<path d="M83.6297 18.6466C82.8 17.0438 81.6775 15.6353 80.2377 14.4453C78.7979 13.2554 77.1141 12.3083 75.1862 11.604C73.2584 10.924 71.1841 10.584 68.9878 10.584C66.7915 10.584 64.6684 10.924 62.7406 11.604C61.1056 12.1868 59.6414 12.964 58.348 13.9111C58.1284 14.0811 57.9088 14.2511 57.6891 14.421C56.3714 15.5139 55.322 16.7767 54.5167 18.1852C56.2249 19.618 57.2743 21.5851 57.2743 23.7465C57.2743 25.9078 56.2249 27.8749 54.5167 29.3077C55.322 30.7405 56.3714 31.9791 57.6891 33.0719C57.9088 33.2419 58.1284 33.4119 58.348 33.5819C59.6414 34.529 61.1056 35.3061 62.7406 35.8889C64.6684 36.5689 66.7427 36.9089 68.939 36.9089C71.1353 36.9089 73.2095 36.5689 75.1374 35.8889C77.0653 35.209 78.7491 34.2618 80.1889 33.0719C81.6287 31.8576 82.7756 30.4734 83.5809 28.8706C84.4106 27.2678 84.8255 25.5678 84.8255 23.7708C84.8499 21.9737 84.435 20.2494 83.6297 18.6466ZM76.3576 33.8976L72.2578 31.2019C71.2329 31.5177 70.1104 31.6876 68.939 31.6876C66.2791 31.6876 63.8875 30.7891 62.1549 29.332C60.4467 27.8992 59.3974 25.9321 59.3974 23.7708C59.3974 21.6094 60.4467 19.6423 62.1549 18.2095C63.8875 16.7524 66.2791 15.8539 68.939 15.8539C74.2101 15.8539 78.4806 19.3995 78.4806 23.7708C78.4806 26.345 76.9921 28.6277 74.6982 30.0848L76.3576 33.8976ZM3.44085 42.3973C3.39204 42.6159 3.34324 42.8102 3.24562 42.9801C3.14801 43.1501 3.0504 43.2958 2.90398 43.4173C2.75756 43.5387 2.61114 43.6358 2.41592 43.7087C2.24509 43.7815 2.02546 43.8058 1.80584 43.8058C1.5618 43.8058 1.34218 43.7573 1.12255 43.6844C0.902918 43.6115 0.732096 43.4658 0.561273 43.3201C0.414854 43.1501 0.292838 42.9559 0.195225 42.713C0.0976127 42.4702 0.0732096 42.1787 0.0732096 41.863C0.0732096 41.5473 0.122016 41.2559 0.195225 41.0131C0.268435 40.7702 0.390451 40.5517 0.53687 40.3817C0.683289 40.2117 0.878515 40.066 1.09814 39.9688C1.31777 39.8717 1.5618 39.8231 1.83024 39.8231C2.07427 39.8231 2.2695 39.8474 2.46472 39.9202C2.63554 39.9931 2.80637 40.0902 2.95279 40.2117C3.0992 40.3331 3.19682 40.4788 3.27003 40.6488C3.34324 40.8188 3.39204 40.9888 3.41645 41.1831H2.63554C2.58674 40.9645 2.48912 40.7945 2.3183 40.6731C2.17188 40.5517 2.00106 40.5031 1.80584 40.5031C1.48859 40.5031 1.24456 40.6245 1.07374 40.8431C0.927321 41.0859 0.854111 41.4016 0.854111 41.8145C0.854111 42.2273 0.927321 42.543 1.07374 42.7859C1.22016 43.0287 1.46419 43.1259 1.75703 43.1259C2.00106 43.1259 2.17188 43.053 2.3183 42.9316C2.46472 42.8102 2.56233 42.6159 2.61114 42.3973H3.44085ZM8.51671 43.7573C8.29708 43.7573 8.07745 43.733 7.90663 43.6601C7.73581 43.5873 7.58939 43.4901 7.46737 43.3687C7.34536 43.2473 7.24775 43.0773 7.19894 42.9073C7.15013 42.7373 7.07692 42.4944 7.07692 42.3002C7.07692 42.0816 7.10133 41.8873 7.17454 41.693C7.24775 41.4988 7.34536 41.3531 7.46737 41.2316C7.58939 41.1102 7.73581 41.0131 7.90663 40.9402C8.07745 40.8674 8.27268 40.8431 8.49231 40.8431C8.71194 40.8431 8.90716 40.8674 9.07798 40.9402C9.24881 41.0131 9.39523 41.1102 9.51724 41.2316C9.63926 41.3531 9.73687 41.523 9.81008 41.693C9.88329 41.863 9.90769 42.0816 9.90769 42.3002C9.90769 42.5187 9.88329 42.713 9.81008 42.9073C9.73687 43.0773 9.66366 43.223 9.51724 43.3687C9.39523 43.4901 9.24881 43.6116 9.07798 43.6601C8.93157 43.7087 8.73634 43.7573 8.51671 43.7573ZM8.51671 43.1259C8.95597 43.1259 9.2 42.8344 9.2 42.2759C9.2 41.7173 8.98037 41.4259 8.51671 41.4259C8.07745 41.4259 7.83342 41.7173 7.83342 42.2759C7.83342 42.8587 8.05305 43.1259 8.51671 43.1259ZM16.9846 43.6844V42.0087C16.9846 41.8388 16.9358 41.693 16.8626 41.5959C16.7894 41.4988 16.6674 41.4259 16.5454 41.4502C16.3989 41.4502 16.3013 41.4988 16.2037 41.6202C16.1061 41.7416 16.0817 41.863 16.0817 42.033V43.6844H15.3496V42.0087C15.3496 41.8873 15.3496 41.8145 15.3252 41.7416C15.3008 41.6688 15.2764 41.6202 15.252 41.5716C15.2032 41.523 15.1788 41.4988 15.1056 41.4745C15.0324 41.4502 14.9592 41.4502 14.9103 41.4502C14.6175 41.4502 14.4711 41.6202 14.4711 41.9845V43.6601H13.739V40.8916H14.4223V41.3045C14.5199 41.1102 14.6419 40.9888 14.7639 40.9159C14.8859 40.8431 15.0568 40.8188 15.2276 40.8188C15.3252 40.8188 15.3984 40.8188 15.4716 40.8431C15.5448 40.8674 15.618 40.8916 15.6668 40.9159C15.7157 40.9402 15.7889 40.9888 15.8377 41.0616C15.8865 41.1102 15.9353 41.1831 15.9841 41.2559C16.0573 41.1102 16.1549 40.9888 16.2769 40.9159C16.3989 40.8431 16.5454 40.8188 16.7406 40.8188C16.887 40.8188 17.009 40.8431 17.131 40.8916C17.2531 40.9402 17.3507 41.0131 17.4239 41.0859C17.5947 41.2559 17.6923 41.4988 17.6923 41.7416V43.6601L16.9846 43.6844ZM23.3783 43.6844V43.2958C23.183 43.6116 22.8902 43.7573 22.4997 43.7573C22.3533 43.7573 22.2313 43.733 22.1093 43.6844C21.9873 43.6358 21.8897 43.563 21.8164 43.4658C21.7432 43.3687 21.67 43.2716 21.6212 43.1501C21.5724 43.0287 21.548 42.883 21.548 42.7373V40.9159H22.2801V42.6402C22.2801 42.9801 22.4265 43.1501 22.7438 43.1501C22.939 43.1501 23.0854 43.1016 23.183 42.9801C23.2806 42.8587 23.3294 42.713 23.3294 42.5187V40.9159H24.0615V43.6844H23.3783ZM29.6987 43.6844V42.0087C29.6987 41.7902 29.6743 41.6445 29.6011 41.5716C29.5279 41.4988 29.4058 41.4502 29.235 41.4502C28.8446 41.4502 28.6737 41.6688 28.6737 42.0816V43.6601H27.9416V40.8916H28.6493V41.3045C28.747 41.1588 28.8446 41.0373 28.991 40.9402C29.1374 40.8674 29.3082 40.8188 29.5523 40.8188C29.6743 40.8188 29.7963 40.8431 29.9183 40.8674C30.0403 40.8916 30.1379 40.9645 30.2111 41.0373C30.2844 41.1102 30.3576 41.2073 30.4064 41.3288C30.4552 41.4502 30.4796 41.5716 30.4796 41.7173V43.6358L29.6987 43.6844ZM34.3109 40.5759V39.896H35.043V40.5759H34.3109ZM34.3109 43.6844V40.9159H35.043V43.6844H34.3109ZM41.4122 42.6644C41.3878 42.9559 41.2414 43.2473 40.9973 43.4416C40.8753 43.5387 40.7533 43.6116 40.6069 43.6601C40.4605 43.7087 40.2897 43.733 40.1432 43.733C39.948 43.733 39.7772 43.7087 39.6308 43.6358C39.4844 43.563 39.3379 43.4901 39.2159 43.3444C39.0939 43.1987 39.0207 43.053 38.9475 42.883C38.8743 42.6887 38.8499 42.4702 38.8499 42.2273C38.8499 41.9845 38.8743 41.7659 38.9475 41.5959C39.0207 41.4259 39.0939 41.2802 39.2159 41.1588C39.3379 41.0373 39.4599 40.9645 39.6308 40.8916C39.8016 40.8431 39.9724 40.8188 40.1676 40.8188C40.3385 40.8188 40.5093 40.8431 40.6557 40.8916C40.8021 40.9402 40.9241 41.0131 41.0462 41.1102C41.1682 41.2073 41.2414 41.3288 41.3146 41.4502C41.3878 41.5716 41.4122 41.7173 41.4366 41.8873H40.7045C40.6801 41.7416 40.6313 41.6445 40.5337 41.5473C40.4361 41.4745 40.3141 41.4259 40.1676 41.4259C40.0944 41.4259 40.0212 41.4502 39.948 41.4745C39.8748 41.4988 39.826 41.5473 39.7772 41.5959C39.7284 41.6688 39.6796 41.7416 39.6552 41.8388C39.6308 41.9359 39.6064 42.0573 39.6064 42.2273C39.6064 42.543 39.6552 42.7616 39.7772 42.9073C39.8748 43.053 40.0212 43.1259 40.1676 43.1259C40.3141 43.1259 40.4361 43.0773 40.5337 43.0044C40.6313 42.9316 40.7045 42.8102 40.7045 42.6644H41.4122ZM46.9029 43.6844C46.8785 43.6115 46.8541 43.5144 46.8541 43.4416C46.7565 43.5387 46.6589 43.6115 46.5125 43.6844C46.3661 43.733 46.1952 43.7815 46.0244 43.7815C45.7072 43.7815 45.4631 43.7087 45.3167 43.563C45.1703 43.4173 45.0971 43.2473 45.0971 43.0044C45.0971 42.8102 45.1215 42.6402 45.1947 42.5187C45.2679 42.3973 45.3411 42.3002 45.4631 42.2516C45.5851 42.203 45.7072 42.1302 45.878 42.1059C46.0488 42.0816 46.2196 42.033 46.3905 42.0087C46.5857 41.9845 46.7077 41.9359 46.7565 41.9116C46.8053 41.8873 46.8541 41.7902 46.8541 41.693C46.8541 41.5959 46.8053 41.523 46.7321 41.4745C46.6589 41.4259 46.5369 41.4016 46.3905 41.4016C46.2196 41.4016 46.0976 41.4502 46.0244 41.523C45.9512 41.5959 45.9024 41.693 45.878 41.8145H45.1947C45.1947 41.6688 45.2191 41.5473 45.2679 41.4259C45.3167 41.3045 45.3899 41.2073 45.4875 41.1102C45.5851 41.0131 45.7072 40.9645 45.8536 40.9159C46 40.8674 46.1952 40.8431 46.4149 40.8431C46.6345 40.8431 46.8297 40.8674 46.9761 40.9159C47.1226 40.9645 47.2446 41.0373 47.3422 41.1345C47.4398 41.2316 47.513 41.3531 47.5374 41.4745C47.5862 41.6202 47.6106 41.7659 47.6106 41.9359V43.6844H46.9029ZM46.8541 42.3245C46.8053 42.373 46.7565 42.3973 46.6833 42.4216C46.6101 42.4459 46.5125 42.4702 46.3661 42.4944C46.1464 42.543 46 42.5916 45.9268 42.6402C45.8536 42.713 45.8048 42.7859 45.8048 42.9073C45.8048 43.1259 45.9268 43.223 46.1708 43.223C46.2684 43.223 46.3416 43.1987 46.4393 43.1744C46.5125 43.1501 46.5857 43.1016 46.6589 43.053C46.7077 43.0044 46.7565 42.9316 46.8053 42.8587C46.8297 42.7859 46.8541 42.713 46.8541 42.6159V42.3245ZM53.931 42.6644C53.9066 42.9559 53.7602 43.2473 53.5162 43.4416C53.3942 43.5387 53.2722 43.6116 53.1257 43.6601C52.9793 43.7087 52.8085 43.733 52.6621 43.733C52.4668 43.733 52.296 43.7087 52.1496 43.6358C52.0032 43.563 51.8568 43.4901 51.7348 43.3444C51.6127 43.1987 51.5395 43.053 51.4663 42.883C51.3931 42.6887 51.3687 42.4702 51.3687 42.2273C51.3687 41.9845 51.3931 41.7659 51.4663 41.5959C51.5395 41.4259 51.6127 41.2802 51.7348 41.1588C51.8568 41.0373 51.9788 40.9645 52.1496 40.8916C52.3204 40.8431 52.4912 40.8188 52.6865 40.8188C52.8573 40.8188 53.0281 40.8431 53.1745 40.8916C53.321 40.9402 53.443 41.0131 53.565 41.1102C53.687 41.2073 53.7602 41.3288 53.8334 41.4502C53.9066 41.5716 53.931 41.7173 53.9554 41.8873H53.2233C53.1989 41.7416 53.1501 41.6445 53.0525 41.5473C52.9549 41.4745 52.8329 41.4259 52.6865 41.4259C52.6133 41.4259 52.5401 41.4502 52.4668 41.4745C52.3936 41.4988 52.3448 41.5473 52.296 41.5959C52.2472 41.6688 52.1984 41.7416 52.174 41.8388C52.1496 41.9359 52.1252 42.0573 52.1252 42.2273C52.1252 42.543 52.174 42.7616 52.296 42.9073C52.3936 43.053 52.5401 43.1259 52.6865 43.1259C52.8329 43.1259 52.9549 43.0773 53.0525 43.0044C53.1501 42.9316 53.2233 42.8102 53.2233 42.6644H53.931ZM52.3936 44.7529C52.6377 44.7287 52.7597 44.6072 52.7597 44.3887H52.3936V43.9273H53.0525V44.243C53.0525 44.3401 53.0525 44.4372 53.0281 44.5344C53.0037 44.6072 52.9793 44.7044 52.9305 44.7772C52.8817 44.8501 52.8085 44.8987 52.7353 44.9472C52.6621 44.9958 52.5401 45.0201 52.418 45.0201L52.3936 44.7529ZM59.4218 43.6844C59.3974 43.6115 59.3729 43.5144 59.3729 43.4416C59.2753 43.5387 59.1777 43.6115 59.0313 43.6844C58.8849 43.733 58.7141 43.7815 58.5432 43.7815C58.226 43.7815 57.982 43.7087 57.8355 43.563C57.6891 43.4173 57.6159 43.2473 57.6159 43.0044C57.6159 42.8102 57.6403 42.6402 57.7135 42.5187C57.7867 42.3973 57.86 42.3002 57.982 42.2516C58.104 42.203 58.226 42.1302 58.3968 42.1059C58.5676 42.0816 58.7385 42.033 58.9093 42.0087C59.1045 41.9845 59.2265 41.9359 59.2753 41.9116C59.3241 41.8873 59.3729 41.7902 59.3729 41.693C59.3729 41.5959 59.3241 41.523 59.2509 41.4745C59.1777 41.4259 59.0557 41.4016 58.9093 41.4016C58.7385 41.4016 58.6164 41.4502 58.5432 41.523C58.47 41.5959 58.4212 41.693 58.3968 41.8145H57.7135C57.7135 41.6688 57.7379 41.5473 57.7867 41.4259C57.8355 41.3045 57.9088 41.2073 58.0064 41.1102C58.104 41.0131 58.226 40.9645 58.3724 40.9159C58.5188 40.8674 58.7141 40.8431 58.9337 40.8431C59.1533 40.8431 59.3485 40.8674 59.495 40.9159C59.6414 40.9645 59.7634 41.0373 59.861 41.1345C59.9586 41.2316 60.0318 41.3531 60.0562 41.4745C60.105 41.6202 60.1294 41.7659 60.1294 41.9359V43.6844H59.4218ZM59.8854 39.8717C59.8122 40.0659 59.739 40.2117 59.617 40.3088C59.495 40.3817 59.3974 40.4302 59.2753 40.4302C59.2021 40.4302 59.1289 40.4059 59.0801 40.3817C59.0313 40.3574 58.9581 40.3331 58.9093 40.2845C58.8605 40.2602 58.7873 40.2359 58.7385 40.1874C58.6897 40.1631 58.6165 40.1388 58.5676 40.1388C58.5432 40.1388 58.5188 40.1631 58.47 40.1874C58.4212 40.2117 58.3968 40.2845 58.348 40.3817L57.9576 40.1631C58.0064 39.9688 58.104 39.8474 58.2016 39.7745C58.2992 39.7017 58.3968 39.6531 58.5188 39.6531C58.6165 39.6531 58.6897 39.6774 58.7629 39.7017C58.8361 39.726 58.8849 39.7502 58.9581 39.7988C59.0069 39.8231 59.0801 39.8717 59.1289 39.896C59.1777 39.9202 59.2265 39.9445 59.2753 39.9445C59.2997 39.9445 59.3485 39.9202 59.3974 39.896C59.4462 39.8717 59.4706 39.7988 59.495 39.7017L59.8854 39.8717ZM59.3729 42.3245C59.3241 42.373 59.2753 42.3973 59.2021 42.4216C59.1289 42.4459 59.0313 42.4702 58.8849 42.4944C58.6653 42.543 58.5188 42.5916 58.4456 42.6402C58.3724 42.713 58.3236 42.7859 58.3236 42.9073C58.3236 43.1259 58.4456 43.223 58.6897 43.223C58.7873 43.223 58.8605 43.1987 58.9581 43.1744C59.0313 43.1501 59.1045 43.1016 59.1777 43.053C59.2265 43.0044 59.2753 42.9316 59.3241 42.8587C59.3485 42.7859 59.3729 42.713 59.3729 42.6159V42.3245ZM65.3273 43.7573C65.1077 43.7573 64.8881 43.733 64.7172 43.6601C64.5464 43.5873 64.4 43.4901 64.278 43.3687C64.156 43.2473 64.0584 43.0773 64.0096 42.9073C63.9607 42.7373 63.9119 42.5187 63.9119 42.3245C63.9119 42.1059 63.9363 41.9116 64.0096 41.7173C64.0828 41.523 64.1804 41.3773 64.3024 41.2559C64.4244 41.1345 64.5708 41.0373 64.7416 40.9645C64.9125 40.8916 65.1077 40.8674 65.3273 40.8674C65.547 40.8674 65.7422 40.8916 65.913 40.9645C66.0838 41.0373 66.2302 41.1345 66.3523 41.2559C66.4743 41.3773 66.5719 41.5473 66.6451 41.7173C66.7183 41.8873 66.7427 42.1059 66.7427 42.3245C66.7427 42.543 66.7183 42.7373 66.6451 42.9316C66.5719 43.1016 66.4987 43.2473 66.3523 43.393C66.2302 43.5144 66.0838 43.6358 65.913 43.6844C65.7422 43.7087 65.547 43.7573 65.3273 43.7573ZM65.3273 43.1259C65.7666 43.1259 66.0106 42.8344 66.0106 42.2759C66.0106 41.7173 65.791 41.4259 65.3273 41.4259C64.8881 41.4259 64.644 41.7173 64.644 42.2759C64.6684 42.8587 64.8881 43.1259 65.3273 43.1259ZM76.1623 42.4702C76.1623 42.6887 76.2355 42.8587 76.3576 42.9801C76.4796 43.1016 76.626 43.1744 76.7968 43.1744C76.9188 43.1744 77.0164 43.1501 77.1141 43.1016C77.2117 43.053 77.2605 42.9801 77.2849 42.883H78.0414C77.9438 43.1744 77.7973 43.393 77.5777 43.5387C77.3581 43.6844 77.1141 43.7815 76.7968 43.7815C75.8695 43.7815 75.4058 43.2716 75.4058 42.2759C75.4058 42.0573 75.4302 41.863 75.5034 41.693C75.5523 41.523 75.6499 41.3773 75.7719 41.2559C75.8939 41.1345 76.0403 41.0373 76.1867 40.9645C76.3576 40.8916 76.5528 40.8674 76.748 40.8674C77.1873 40.8674 77.5045 41.0131 77.7241 41.2802C77.9438 41.5473 78.0658 41.9602 78.0658 42.5187L76.1623 42.4702ZM77.3337 42.0087C77.3337 41.9116 77.3093 41.8145 77.2849 41.7416C77.2605 41.6688 77.2117 41.5959 77.1629 41.5473C77.1141 41.4988 77.0409 41.4502 76.9921 41.4259C76.9188 41.4016 76.8456 41.4016 76.7724 41.4016C76.626 41.4016 76.504 41.4502 76.382 41.5716C76.2844 41.6688 76.2112 41.8388 76.1867 42.0087H77.3337ZM89.7061 43.6844V41.1102L88.9984 43.6844H88.2175L87.5098 41.1345V43.6844H86.7777V39.9445H87.9247L88.608 42.6887L89.2913 39.9445H90.4138V43.6844H89.7061ZM96.0265 43.6844C96.0021 43.6115 95.9777 43.5144 95.9777 43.4416C95.8801 43.5387 95.7825 43.6115 95.6361 43.6844C95.4897 43.733 95.3188 43.7815 95.148 43.7815C94.8308 43.7815 94.5867 43.7087 94.4403 43.563C94.2939 43.4173 94.1963 43.223 94.1963 42.9801C94.1963 42.7859 94.2207 42.6159 94.2939 42.4944C94.3671 42.373 94.4403 42.2759 94.5623 42.2273C94.6844 42.1787 94.8064 42.1059 94.9772 42.0816C95.148 42.0573 95.3188 42.0087 95.4897 41.9845C95.6849 41.9602 95.8069 41.9116 95.8557 41.8873C95.9045 41.863 95.9533 41.7659 95.9533 41.6688C95.9533 41.5716 95.9045 41.4988 95.8313 41.4502C95.7581 41.4016 95.6361 41.3773 95.4897 41.3773C95.3188 41.3773 95.1968 41.4259 95.1236 41.4988C95.0504 41.5716 95.0016 41.6688 94.9772 41.7902H94.2939C94.2939 41.6445 94.3183 41.523 94.3671 41.4016C94.4159 41.2802 94.4891 41.1831 94.5867 41.0859C94.6844 40.9888 94.8064 40.9402 94.9528 40.8916C95.0992 40.8431 95.2944 40.8188 95.5141 40.8188C95.7337 40.8188 95.9289 40.8431 96.0753 40.8916C96.2218 40.9402 96.3438 41.0131 96.4414 41.1102C96.539 41.2073 96.6122 41.3288 96.6366 41.4502C96.6854 41.5959 96.7098 41.7416 96.7098 41.9116V43.6601L96.0265 43.6844ZM95.9777 42.3245C95.9289 42.373 95.8801 42.3973 95.8069 42.4216C95.7337 42.4459 95.6361 42.4702 95.4897 42.4944C95.27 42.543 95.1236 42.5916 95.0504 42.6402C94.9772 42.713 94.9284 42.7859 94.9284 42.9073C94.9284 43.1259 95.0504 43.223 95.2944 43.223C95.3921 43.223 95.4653 43.1987 95.5629 43.1744C95.6361 43.1501 95.7093 43.1016 95.7825 43.053C95.8313 43.0044 95.8801 42.9316 95.9289 42.8587C95.9533 42.7859 95.9777 42.713 95.9777 42.6159V42.3245ZM100.566 43.6844V40.9159H101.249V41.2559C101.298 41.1588 101.371 41.0859 101.444 41.0373C101.566 40.9402 101.712 40.8674 101.859 40.8674H102.079H102.176V41.6202C102.103 41.6202 102.03 41.5959 101.981 41.5959C101.542 41.5959 101.298 41.8145 101.298 42.2759V43.7087L100.566 43.6844ZM107.594 43.6844L106.984 42.4459L106.618 42.8102V43.6844H105.885V39.896H106.618V41.9602L107.545 40.9159H108.448L107.52 41.9359L108.423 43.6844H107.594ZM112.547 42.4702C112.547 42.6887 112.621 42.8587 112.743 42.9801C112.865 43.1016 113.011 43.1744 113.182 43.1744C113.304 43.1744 113.402 43.1501 113.499 43.1016C113.597 43.053 113.646 42.9801 113.67 42.883H114.427C114.329 43.1744 114.183 43.393 113.963 43.5387C113.743 43.6844 113.499 43.7815 113.182 43.7815C112.255 43.7815 111.791 43.2716 111.791 42.2759C111.791 42.0573 111.815 41.863 111.889 41.693C111.937 41.523 112.035 41.3773 112.157 41.2559C112.279 41.1345 112.425 41.0373 112.572 40.9645C112.743 40.8916 112.938 40.8674 113.133 40.8674C113.572 40.8674 113.89 41.0131 114.109 41.2802C114.329 41.5473 114.451 41.9602 114.451 42.5187L112.547 42.4702ZM113.694 42.0087C113.694 41.9116 113.67 41.8145 113.646 41.7416C113.621 41.6688 113.572 41.5959 113.524 41.5473C113.475 41.4988 113.402 41.4502 113.353 41.4259C113.28 41.4016 113.206 41.4016 113.133 41.4016C112.987 41.4016 112.865 41.4502 112.743 41.5716C112.645 41.6688 112.572 41.8388 112.547 42.0087H113.694ZM119.82 41.863H120.503V42.6402C120.503 42.7859 120.479 42.9316 120.43 43.053C120.381 43.1744 120.308 43.2958 120.234 43.4173C120.137 43.5144 120.015 43.6116 119.893 43.6601C119.771 43.7087 119.576 43.7573 119.38 43.7573C119.185 43.7573 119.014 43.733 118.868 43.6601C118.721 43.6116 118.624 43.5144 118.502 43.4173C118.404 43.3201 118.331 43.1987 118.307 43.053C118.258 42.9073 118.233 42.7616 118.233 42.6159V40.1388H118.966V40.8916H120.503V41.4016H118.966V42.543C118.966 42.713 118.99 42.8587 119.063 42.9559C119.136 43.053 119.234 43.1016 119.38 43.1016C119.527 43.1016 119.624 43.053 119.698 42.9559C119.771 42.8587 119.795 42.7373 119.795 42.5673L119.82 41.863ZM124.334 40.5759V39.896H125.066V40.5759H124.334ZM124.334 43.6844V40.9159H125.066V43.6844H124.334ZM130.728 43.6844V42.0087C130.728 41.7902 130.703 41.6445 130.63 41.5716C130.557 41.4988 130.435 41.4502 130.264 41.4502C129.874 41.4502 129.703 41.6688 129.703 42.0816V43.6601H128.971V40.8916H129.679V41.3045C129.776 41.1588 129.874 41.0373 130.02 40.9402C130.167 40.8674 130.337 40.8188 130.581 40.8188C130.703 40.8188 130.825 40.8431 130.947 40.8674C131.07 40.8916 131.167 40.9645 131.24 41.0373C131.314 41.1102 131.387 41.2073 131.436 41.3288C131.484 41.4502 131.509 41.5716 131.509 41.7173V43.6358L130.728 43.6844ZM137.268 43.2958C137.219 43.4173 137.121 43.5144 136.975 43.5873C136.829 43.6601 136.682 43.6844 136.487 43.6844C136.267 43.6844 136.072 43.6358 135.901 43.563C135.755 43.4901 135.633 43.3687 135.511 43.2473C135.413 43.1016 135.34 42.9559 135.291 42.7859C135.242 42.6159 135.218 42.4459 135.218 42.2516C135.218 42.033 135.242 41.8388 135.316 41.6688C135.389 41.4988 135.462 41.3288 135.584 41.2073C135.682 41.0859 135.828 40.9888 135.975 40.9159C136.121 40.8431 136.292 40.8188 136.438 40.8188C136.78 40.8188 137.048 40.9645 137.219 41.2316V40.8916H137.951V43.7087C137.951 43.9273 137.927 44.0973 137.854 44.2672C137.78 44.413 137.683 44.5587 137.561 44.6558C137.439 44.7529 137.292 44.8501 137.122 44.8987C136.951 44.9472 136.78 44.9715 136.585 44.9715C136.414 44.9715 136.219 44.9472 136.048 44.8987C135.877 44.8501 135.731 44.7772 135.609 44.6558C135.486 44.5587 135.389 44.4372 135.34 44.2915C135.291 44.1458 135.242 43.9758 135.242 43.8058H135.926C135.926 43.9758 135.975 44.0973 136.097 44.1944C136.219 44.2915 136.365 44.3401 136.536 44.3401C136.731 44.3401 136.902 44.2915 137.024 44.1701C137.17 44.073 137.219 43.9273 137.219 43.733V43.2958H137.268ZM136.658 43.1259C136.829 43.1259 136.999 43.053 137.097 42.9316C137.195 42.8102 137.268 42.6159 137.268 42.373C137.268 41.7902 137.048 41.4745 136.633 41.4745C136.219 41.4745 135.999 41.7659 135.999 42.3245C135.999 42.5673 136.048 42.7616 136.17 42.9073C136.316 43.053 136.463 43.1259 136.658 43.1259ZM31.8462 5.26562V36.9575H26.5507V15.8296L15.9109 31.6634L5.3443 15.8296V36.9332H0.0244032L0 5.26562H5.3443L15.9109 21.0994L26.5507 5.26562H31.8462Z" fill="#EF4B4B"/>
<path d="M110.302 18.6017C109.619 16.9989 108.667 15.5903 107.471 14.4004C106.276 13.2104 104.86 12.2633 103.25 11.559C101.639 10.8791 99.9308 10.5391 98.0761 10.5391C96.2215 10.5391 94.5133 10.8791 92.9026 11.559C91.292 12.239 89.8767 13.1861 88.6809 14.4004C87.4851 15.5903 86.5334 16.9989 85.8501 18.6017C85.1668 20.2045 84.8252 21.9287 84.8252 23.7501C84.8252 25.5472 85.1668 27.2471 85.8501 28.8499C86.5334 30.4527 87.4851 31.8612 88.6809 33.0512C89.8767 34.2412 91.292 35.1883 92.9026 35.8683C94.5133 36.5482 96.2215 36.8882 98.0761 36.8882C99.9308 36.8882 101.639 36.5482 103.25 35.8683C103.64 35.6983 104.03 35.504 104.421 35.3097L100.394 31.2784C99.6623 31.497 98.8814 31.6184 98.0761 31.6184C93.6835 31.6184 90.1207 28.0728 90.1207 23.7015C90.1207 19.3302 93.708 15.8089 98.1005 15.8089C102.493 15.8089 106.056 19.3545 106.056 23.7258L111.107 26.2514C111.254 25.4257 111.351 24.6 111.351 23.7501C111.351 21.9287 111.01 20.2045 110.302 18.6017ZM137.585 26.3728C137.756 25.5714 137.853 24.6972 137.853 23.7986C137.853 21.9773 137.512 20.253 136.828 18.6502C136.145 17.0474 135.193 15.6632 133.998 14.4489C132.802 13.259 131.386 12.3119 129.776 11.6319C128.165 10.9519 126.457 10.6119 124.602 10.6119C122.748 10.6119 121.04 10.9762 119.429 11.6562C117.818 12.3361 116.427 13.2833 115.207 14.4732C114.011 15.6632 113.06 17.0717 112.376 18.6745C111.693 20.2773 111.351 21.9773 111.351 23.8229C111.351 25.62 111.693 27.32 112.376 28.9228C113.06 30.5256 114.011 31.9098 115.207 33.1241C116.403 34.314 117.818 35.2611 119.429 35.9411C121.04 36.6211 122.748 36.9611 124.602 36.9611C126.603 36.9611 128.458 36.5725 130.166 35.7954C130.435 35.674 130.703 35.5283 130.972 35.3826L126.896 31.327C126.14 31.5455 125.359 31.667 124.578 31.667C121.113 31.667 118.184 29.457 117.111 26.3971L137.585 26.3728ZM124.602 15.906C128.019 15.906 130.947 18.0674 132.045 21.103H117.159C118.258 18.0674 121.162 15.906 124.602 15.906Z" fill="#EF4B4B"/>
<path d="M106.032 0H111.328V36.9374H106.032V0ZM132.51 23.775C132.51 24.1392 132.485 24.5035 132.436 24.8435C132.363 25.3778 132.241 25.8878 132.07 26.3734H117.136C116.843 25.5478 116.696 24.6492 116.696 23.775C116.696 22.8278 116.867 21.9293 117.16 21.1036H132.046C132.241 21.6136 132.363 22.1722 132.436 22.7064C132.485 23.0707 132.51 23.4107 132.51 23.775Z" fill="#EF4B4B"/>
<path d="M116.525 21.1094H132.436V26.3792H116.525V21.1094Z" fill="#EF4B4B"/>
</g>
<defs>
<clipPath id="clip0_1468_4956">
<rect width="138" height="45" fill="white"/>
</clipPath>
</defs>
</svg>
