<svg width="207" height="45" viewBox="0 0 207 45" fill="none" xmlns="http://www.w3.org/2000/svg">
<g clip-path="url(#clip0_1468_4964)">
<path d="M202.158 0.0836528C203.746 0.00153599 205.333 0.00153599 206.921 0.0425944C202.158 9.81449 197.563 19.6685 192.925 29.4815H189.04C186.909 24.5545 184.403 19.7506 182.188 14.8236C183.734 14.7826 185.28 14.7826 186.826 14.8236C188.163 17.8619 189.75 20.7771 190.962 23.8154C194.68 15.8911 198.524 8.00792 202.158 0.0836528Z" fill="#EF4B4B"/>
<path d="M82.5483 4.26562C85.5981 4.30668 88.6897 4.30668 91.7394 4.26562C91.6977 6.93442 91.6977 9.64427 91.7394 12.3131C88.6897 12.272 85.5981 12.3131 82.5066 12.272C82.5901 9.60322 82.5066 6.93442 82.5483 4.26562ZM36.3004 15.762C42.5671 12.272 51.6746 13.4627 55.8942 19.4983C58.4844 23.0704 59.2364 27.5868 59.1946 31.8569C52.0088 31.8979 44.8231 31.8569 37.6373 31.8979C37.9715 34.074 38.9324 36.3733 40.9795 37.5229C43.9039 39.2063 48.4995 38.7136 49.9617 35.3879C52.9279 35.3058 55.8524 35.3058 58.8186 35.3879C57.8995 38.7136 55.4346 41.5466 52.343 43.1069C49.0008 44.9134 44.9902 45.2419 41.2719 44.626C37.3448 44.0101 33.7102 41.8341 31.496 38.5904C29.0728 35.1415 28.4462 30.7483 28.9893 26.6835C29.5324 22.2081 32.248 17.9791 36.3004 15.762ZM41.1884 20.8943C39.1413 21.8386 38.1386 24.0147 37.6791 26.1087H49.9617C49.711 24.5074 49.1262 22.824 47.8728 21.7154C46.1182 20.032 43.3191 19.991 41.1884 20.8943ZM132.64 14.2018C137.57 13.3395 143.042 14.366 146.844 17.7328C153.32 23.3988 153.612 34.3614 147.596 40.4381C142.834 45.324 134.854 46.2273 128.755 43.4764C124.034 41.3824 120.817 36.6607 120.274 31.6516C120.065 28.7364 120.19 25.7392 121.402 23.0293C123.24 18.3897 127.71 15.0229 132.64 14.2018ZM133.684 20.8943C131.094 21.7976 129.883 24.5485 129.507 27.053C129.214 30.1735 129.256 33.7045 131.303 36.2912C133.517 39.1242 138.405 39.0421 140.619 36.2501C142.458 33.9919 142.75 30.9125 142.541 28.1206C142.416 25.657 141.539 23.0293 139.45 21.5102C137.779 20.4016 135.564 20.2373 133.684 20.8943ZM165.435 15.8852C168.485 13.5448 172.83 13.2985 176.339 14.6945C178.846 15.762 180.726 17.9381 181.603 20.4426C182.606 23.0293 182.314 25.8213 182.314 28.5311C182.314 33.7045 182.272 38.8778 182.355 44.0101C179.306 44.0512 176.256 44.0102 173.164 44.0512V26.314C173.164 24.7948 172.579 23.1525 171.284 22.2081C169.321 20.8943 166.48 21.1406 164.809 22.783C163.472 24.0968 162.887 25.9855 162.929 27.7921V44.0512C159.921 44.0102 156.871 44.0512 153.863 44.0101C153.863 34.2383 153.905 24.4664 153.863 14.6945C156.829 14.7355 159.754 14.6534 162.72 14.7355C162.678 16.0904 162.678 17.4454 162.636 18.8003C163.555 17.8149 164.307 16.7063 165.435 15.8852ZM0.0791016 14.7766H9.60442C11.5262 21.0585 13.5733 27.3404 15.3698 33.6634C17.584 27.4636 19.2551 21.0585 21.344 14.7766C24.3937 14.7355 27.4853 14.7766 30.5351 14.7355C27.0257 24.5074 23.6 34.2793 20.1324 44.0512C16.9573 44.0512 13.7822 44.0102 10.6071 44.0923C6.97243 34.3614 3.75554 24.4664 0.0791016 14.7766ZM61.2835 14.7355H70.0568C70.015 16.3779 70.0568 18.0202 69.9733 19.6625C70.7253 18.8414 71.2684 17.8149 72.0621 17.0348C74.0257 14.8997 77.2426 14.0375 80.0835 14.7766C80.0417 17.3633 80.0417 19.9499 80.0835 22.4956C77.8275 22.2492 75.3208 22.3313 73.399 23.6862C71.3519 25.0822 70.4328 27.6689 70.4746 30.0503C70.4328 34.731 70.4746 39.3706 70.4746 44.0512C67.4248 44.0512 64.3333 44.0102 61.2835 44.0923C61.3253 34.2793 61.3253 24.5074 61.2835 14.7355ZM82.5483 14.7766C85.6399 14.7355 88.6897 14.7766 91.7812 14.7355C91.7394 24.5074 91.7812 34.2793 91.7812 44.0512C88.7315 44.0102 85.6399 44.0512 82.5483 44.0512V14.7766ZM94.2461 14.7355C102.56 14.7766 110.874 14.7355 119.146 14.7766C119.062 17.0348 119.146 19.2519 119.104 21.5102C118.811 22.085 118.31 22.4956 117.934 22.9883C113.673 27.6279 109.495 32.3906 105.15 36.9892C110.038 37.0713 114.926 36.9892 119.814 37.0302V44.0923C111.291 44.0512 102.769 44.0512 94.2461 44.0923V37.2766C98.7163 32.3496 103.145 27.4636 107.657 22.5777C107.782 22.3313 108.325 22.085 108.033 21.7565C103.437 21.8797 98.8417 21.7565 94.2461 21.8386V14.7355Z" fill="#EF4B4B"/>
</g>
<defs>
<clipPath id="clip0_1468_4964">
<rect width="207" height="45" fill="white"/>
</clipPath>
</defs>
</svg>
