<svg width="82" height="81" viewBox="0 0 82 81" fill="none" xmlns="http://www.w3.org/2000/svg">
<g clip-path="url(#clip0_1468_4148)">
<path d="M0 29.9636C1.75064 29.6136 3.52462 29.2635 5.27526 28.8668C9.31341 27.98 13.2815 26.9766 17.0162 25.1097C21.2178 23.0094 24.0421 19.6957 25.8395 15.4018C27.7068 10.8979 28.6872 6.13732 29.6208 1.40007C29.6909 1.00336 29.7842 0.60664 29.8543 0.209925C29.8543 0.163252 29.9243 0.11658 30.041 -0.0234375C30.3444 1.49342 30.6245 2.94026 30.928 4.38711C31.7216 8.14424 32.6319 11.9014 34.1258 15.4718C36.1566 20.3491 39.5645 23.8028 44.4429 25.8331C48.9946 27.7467 53.803 28.7034 58.6115 29.6602C59.0549 29.7536 59.4984 29.8469 59.9186 30.0803C58.0046 30.477 56.0672 30.8504 54.1531 31.2938C50.2784 32.1572 46.4737 33.1607 42.9024 34.9576C38.7475 37.0345 35.9465 40.3015 34.1725 44.5254C32.2351 49.146 31.2548 54.0466 30.2978 58.9238C30.2277 59.2972 30.1577 59.6473 29.9243 60.044C29.7142 59.0405 29.5275 58.0137 29.3174 57.0103C28.4537 52.8331 27.5201 48.7026 25.9095 44.7354C23.8554 39.7181 20.3308 36.171 15.3123 34.1174C10.7373 32.2505 5.95218 31.2704 1.14375 30.337C0.770282 30.267 0.396812 30.197 0.0466838 30.127C0 30.0803 0 30.0103 0 29.9636Z" fill="#4E118C"/>
<path d="M43.9761 61.7224C45.3066 61.4424 46.5904 61.1857 47.8742 60.9057C50.7219 60.2756 53.5229 59.5288 56.0205 57.9186C58.6348 56.2384 60.1287 53.7415 60.969 50.8711C61.6926 48.4441 62.1827 45.9705 62.7896 43.4969C62.8597 43.2402 62.9063 43.0068 62.9764 42.7734C63.6766 45.4804 64.2835 48.2341 65.0771 50.8944C65.9875 53.9048 67.528 56.5885 70.4224 58.1053C72.2197 59.0621 74.1571 59.7389 76.1178 60.3456C77.7985 60.8823 79.5724 61.139 81.3231 61.5124C81.5798 61.5591 81.8366 61.6291 82.0233 61.6991C79.3157 62.3992 76.5847 63.0059 73.9004 63.7994C71.2394 64.5928 68.8819 65.923 67.2246 68.2332C65.8241 70.1702 65.0304 72.3638 64.4702 74.6507C63.9567 76.6576 63.5599 78.6879 63.0464 80.9515C62.7896 79.7147 62.6029 78.6879 62.3461 77.6844C61.8326 75.7008 61.3424 73.7173 60.7122 71.7804C59.3117 67.6032 56.3239 65.0128 52.1691 63.776C49.4614 63.0526 46.7538 62.4459 43.9761 61.7224Z" fill="#4E118C"/>
</g>
<defs>
<clipPath id="clip0_1468_4148">
<rect width="82" height="81" fill="white"/>
</clipPath>
</defs>
</svg>
