<svg width="222" height="63" viewBox="0 0 222 63" fill="none" xmlns="http://www.w3.org/2000/svg">
<g clip-path="url(#clip0_181_749)">
<path d="M6.69987 23.4075V43.3751C10.0697 45.3126 12.1313 48.8843 12.1313 52.746V54.1299L3.39609 49.1084L0.0791016 47.1973V15.7764L3.38288 13.8653L10.0169 17.6875L12.1313 18.9V26.5444L6.69987 23.4075Z" fill="white"/>
<path d="M54.6309 15.7764V47.1973L51.3139 49.1084L44.6931 45.2862L27.3549 35.309L22.0688 32.2644V24.6333L27.3549 27.6646L32.6409 30.7092L48.0101 39.5661V19.5985C46.3318 18.6232 44.9706 17.2525 44.0323 15.6314C43.0941 14.0103 42.5787 12.1519 42.5787 10.2276V8.83055L51.3271 13.8653L54.6309 15.7764Z" fill="white"/>
<path d="M51.3138 49.1084L42.5786 54.1299V46.4987L44.693 45.2862L51.3138 49.1084Z" fill="white"/>
<path d="M12.1312 8.83055V16.4749L10.0168 17.6875L3.38281 13.8653L12.1312 8.83055Z" fill="white"/>
<path d="M34.293 20.6925V11.7038L27.3551 7.71025L20.4172 11.7038V51.2699L27.3551 55.2634L34.293 51.2699V42.1626L40.927 45.9715V55.0921L27.3551 62.9077L13.7832 55.0921V7.88159L27.3551 0.0659027L40.0945 7.40712L40.927 7.88159V24.5146L34.293 20.6925Z" fill="white"/>
<g style="mix-blend-mode:overlay" opacity="0.5">
<path d="M11.0608 52.2979L10.6115 52.0475C10.3207 48.9239 8.52347 46.0902 5.76151 44.5086L5.23291 44.2054V21.7996L5.65579 22.0368V43.9814L6.1844 44.2845C9.06529 45.9584 10.9154 49.0029 11.0608 52.2979Z" fill="white"/>
<path d="M11.0739 19.5195V24.7124L10.6643 24.4751V19.7303L2.99951 15.3151L3.39596 15.091L11.0739 19.5195Z" fill="white"/>
<path d="M23.1392 26.4521L48.6443 41.1477V41.5958L23.1392 26.9134V26.4521Z" fill="white"/>
<path d="M53.5735 16.3826V46.591L51.3269 47.8826L51.3005 47.8695L53.1638 46.8019V16.6067L43.6754 11.137C43.6665 10.9789 43.6577 10.8251 43.6489 10.6757L53.5735 16.3826Z" fill="white"/>
<path d="M27.3418 56.476L26.9453 56.7L18.9502 52.1002V11.3084L19.3599 11.0975V51.8893L27.3418 56.476Z" fill="white"/>
<path d="M39.8697 8.48788V22.6958L39.4468 22.4586V8.71193L26.9585 1.5157L27.3549 1.29164L39.8697 8.48788Z" fill="white"/>
<path d="M35.3501 43.9814L39.8697 46.591V54.4858L39.4468 54.6967V46.8019L35.3501 44.4427V43.9814Z" fill="white"/>
</g>
</g>
<path d="M73.228 48V15.2727H79.1566V43.0302H93.5707V48H73.228ZM105.524 48.4954C103.968 48.4954 102.567 48.2184 101.321 47.6644C100.085 47.0998 99.1051 46.2688 98.3807 45.1715C97.6669 44.0742 97.31 42.7212 97.31 41.1126C97.31 39.7276 97.5657 38.5824 98.0771 37.6768C98.5884 36.7713 99.2862 36.0469 100.17 35.5036C101.055 34.9602 102.051 34.5501 103.159 34.2731C104.277 33.9854 105.433 33.7777 106.626 33.6499C108.065 33.5007 109.231 33.3675 110.126 33.2504C111.021 33.1225 111.671 32.9308 112.076 32.6751C112.491 32.4087 112.699 31.9986 112.699 31.4446V31.3487C112.699 30.1449 112.342 29.2127 111.628 28.5522C110.914 27.8917 109.886 27.5614 108.544 27.5614C107.127 27.5614 106.003 27.8704 105.172 28.4883C104.352 29.1062 103.798 29.8359 103.51 30.6776L98.109 29.9105C98.5352 28.419 99.2383 27.1726 100.218 26.1712C101.199 25.1591 102.397 24.4027 103.814 23.902C105.231 23.3906 106.797 23.1349 108.512 23.1349C109.695 23.1349 110.872 23.2734 112.044 23.5504C113.216 23.8274 114.286 24.2855 115.256 24.9247C116.225 25.5533 117.003 26.4109 117.589 27.4975C118.185 28.5842 118.484 29.9425 118.484 31.5724V48H112.923V44.6282H112.731C112.379 45.31 111.884 45.9492 111.245 46.5458C110.616 47.1317 109.822 47.6058 108.864 47.968C107.915 48.3196 106.802 48.4954 105.524 48.4954ZM107.026 44.2447C108.187 44.2447 109.194 44.0156 110.046 43.5575C110.898 43.0888 111.554 42.4709 112.012 41.7038C112.48 40.9368 112.715 40.1005 112.715 39.195V36.3026C112.534 36.4517 112.225 36.5902 111.788 36.718C111.362 36.8459 110.882 36.9577 110.35 37.0536C109.817 37.1495 109.29 37.2347 108.768 37.3093C108.246 37.3839 107.793 37.4478 107.409 37.5011C106.547 37.6183 105.774 37.81 105.092 38.0763C104.411 38.3427 103.873 38.7156 103.478 39.195C103.084 39.6637 102.887 40.271 102.887 41.0167C102.887 42.082 103.276 42.8864 104.054 43.4297C104.831 43.973 105.822 44.2447 107.026 44.2447ZM130.085 33.6179V48H124.3V23.4545H129.83V27.6254H130.117C130.682 26.2511 131.582 25.1591 132.818 24.3494C134.064 23.5398 135.604 23.1349 137.436 23.1349C139.13 23.1349 140.605 23.4972 141.863 24.2216C143.13 24.946 144.11 25.9954 144.803 27.3697C145.506 28.744 145.852 30.4112 145.842 32.3714V48H140.057V33.2663C140.057 31.6257 139.631 30.342 138.778 29.4151C137.937 28.4883 136.77 28.0249 135.279 28.0249C134.267 28.0249 133.366 28.2486 132.578 28.696C131.8 29.1328 131.188 29.7667 130.74 30.5977C130.304 31.4286 130.085 32.4354 130.085 33.6179ZM151.978 48V15.2727H164.251C166.765 15.2727 168.874 15.7415 170.579 16.679C172.294 17.6165 173.588 18.9055 174.462 20.5462C175.346 22.1761 175.788 24.0298 175.788 26.1072C175.788 28.206 175.346 30.0703 174.462 31.7003C173.578 33.3303 172.273 34.614 170.547 35.5515C168.821 36.4783 166.696 36.9418 164.171 36.9418H156.037V32.0678H163.372C164.842 32.0678 166.046 31.8121 166.983 31.3008C167.921 30.7894 168.613 30.0863 169.061 29.1914C169.519 28.2965 169.748 27.2685 169.748 26.1072C169.748 24.946 169.519 23.9233 169.061 23.0391C168.613 22.1548 167.915 21.4677 166.967 20.9776C166.03 20.4769 164.821 20.2266 163.34 20.2266H157.907V48H151.978ZM180.682 48V23.4545H186.291V27.5455H186.547C186.994 26.1286 187.761 25.0366 188.848 24.2695C189.945 23.4918 191.197 23.103 192.603 23.103C192.923 23.103 193.28 23.119 193.674 23.1509C194.079 23.1722 194.415 23.2095 194.681 23.2628V28.5842C194.436 28.4989 194.047 28.4244 193.514 28.3604C192.992 28.2859 192.486 28.2486 191.996 28.2486C190.941 28.2486 189.993 28.4776 189.152 28.9357C188.321 29.3832 187.666 30.0064 187.186 30.8054C186.707 31.6044 186.467 32.5259 186.467 33.57V48H180.682ZM208.22 48.4794C205.823 48.4794 203.746 47.9521 201.988 46.8974C200.23 45.8427 198.866 44.3672 197.897 42.4709C196.938 40.5746 196.459 38.3587 196.459 35.8232C196.459 33.2876 196.938 31.0664 197.897 29.1594C198.866 27.2525 200.23 25.7717 201.988 24.717C203.746 23.6623 205.823 23.1349 208.22 23.1349C210.617 23.1349 212.694 23.6623 214.452 24.717C216.21 25.7717 217.568 27.2525 218.527 29.1594C219.497 31.0664 219.981 33.2876 219.981 35.8232C219.981 38.3587 219.497 40.5746 218.527 42.4709C217.568 44.3672 216.21 45.8427 214.452 46.8974C212.694 47.9521 210.617 48.4794 208.22 48.4794ZM208.252 43.8452C209.552 43.8452 210.638 43.4883 211.512 42.7745C212.385 42.0501 213.035 41.0806 213.461 39.8661C213.898 38.6516 214.117 37.2987 214.117 35.8072C214.117 34.305 213.898 32.9467 213.461 31.7322C213.035 30.5071 212.385 29.5323 211.512 28.8079C210.638 28.0835 209.552 27.7212 208.252 27.7212C206.92 27.7212 205.812 28.0835 204.928 28.8079C204.055 29.5323 203.399 30.5071 202.963 31.7322C202.536 32.9467 202.323 34.305 202.323 35.8072C202.323 37.2987 202.536 38.6516 202.963 39.8661C203.399 41.0806 204.055 42.0501 204.928 42.7745C205.812 43.4883 206.92 43.8452 208.252 43.8452Z" fill="white"/>
<defs>
<clipPath id="clip0_181_749">
<rect width="54.7105" height="63" fill="white"/>
</clipPath>
</defs>
</svg>
