<svg width="40" height="40" viewBox="0 0 40 40" fill="none" xmlns="http://www.w3.org/2000/svg">
<path d="M9.75755 34.1987L9.21355 34.4868C8.68547 34.2468 8.1734 33.9748 7.67735 33.6707C2.30082 30.3904 -0.451507 24.4698 0.0605552 18.5971L0.652605 18.1971C2.98888 16.6289 6.22124 16.2449 7.77336 16.885C8.25339 17.077 8.52548 17.349 8.60547 17.6851C8.70148 18.1811 8.54141 18.4691 8.18942 18.9971C7.77336 19.6372 7.1813 20.5173 7.66134 21.9895C8.09341 23.3176 7.80539 23.9417 7.51737 24.5977C7.24527 25.2218 6.90931 25.9739 7.45331 26.982C8.06137 28.1021 9.30955 28.1981 10.3177 28.2622C11.0697 28.3101 11.7738 28.3582 12.2378 28.7422C12.5738 29.0302 13.1019 29.7663 12.9899 30.7424C12.8619 31.9746 11.7417 33.1747 9.75755 34.1987ZM19.2625 9.62019C19.0705 10.6764 18.2225 11.3164 17.5344 11.8284C16.9103 12.2925 16.5103 12.6125 16.5103 12.9806C16.5103 13.0926 16.5263 13.2526 16.5903 13.3166C16.8143 13.5566 17.7104 13.5566 18.3664 13.5566C19.0705 13.5566 19.7906 13.5566 20.4626 13.7166C21.5028 13.9407 22.0948 14.7087 22.5749 15.3168C22.8469 15.6849 23.135 16.0529 23.3589 16.0849C23.9991 16.1649 24.159 15.9729 24.6871 15.2047C25.0072 14.7247 25.4072 14.1487 26.0632 13.6526C26.6713 13.1886 27.4554 13.0125 28.1434 12.8686C28.7675 12.7405 29.4236 12.5965 29.6317 12.2925C29.7436 12.1485 29.8076 12.0364 29.8237 11.9244C28.5435 9.71619 26.6873 7.78006 24.351 6.33987C22.6549 5.31575 20.8627 4.62769 19.0226 4.2757L18.6065 4.69176C18.0624 5.20372 18.2065 5.74782 18.7185 6.97998C19.0545 7.79599 19.4385 8.70809 19.2625 9.62019ZM32.0159 19.7813C31.9839 17.637 31.5198 15.4929 30.6557 13.5246C30.0797 14.1006 29.2316 14.2767 28.4795 14.4367C27.9195 14.5487 27.3433 14.6768 27.0234 14.9167C26.5913 15.2528 26.2873 15.6849 26.0153 16.1008C25.5192 16.8209 24.9112 17.701 23.615 17.701C23.455 17.701 23.311 17.6851 23.135 17.6691C22.2708 17.541 21.7588 16.885 21.3108 16.3089C20.9268 15.8128 20.5907 15.3808 20.1107 15.2688C18.6705 14.9327 16.5263 15.5408 15.4541 14.4527C15.0861 14.0687 14.9101 13.5726 14.9101 12.9646C14.9261 11.7805 15.8381 11.0924 16.5743 10.5323C17.1023 10.1483 17.6144 9.76424 17.6944 9.33217C17.7744 8.88417 17.5024 8.22805 17.2463 7.60396C16.8303 6.57993 16.2542 5.21973 17.0863 4.01961C11.3258 3.63559 5.56512 6.40385 2.34878 11.6685C1.42076 13.1886 0.780649 14.8207 0.396624 16.4689C2.94083 15.0288 6.31726 14.5647 8.38143 15.3968C9.62961 15.9088 10.0456 16.7409 10.1736 17.349C10.4137 18.5331 9.90161 19.3012 9.5336 19.8773C9.16549 20.4213 8.94145 20.7574 9.18151 21.4935C9.78958 23.3976 9.30955 24.5177 8.9895 25.2538C8.73352 25.7978 8.70148 25.9259 8.86146 26.2139C9.03745 26.5339 9.48555 26.5979 10.4297 26.662C11.3098 26.726 12.4139 26.806 13.2619 27.51C13.982 28.1181 14.7501 29.3663 14.5901 30.9184C14.462 32.0705 13.7419 33.7347 11.1497 35.2549C14.9261 36.471 18.9905 36.1989 22.5109 34.6308C22.3189 34.4227 22.1588 34.1987 21.9988 33.9748C20.0626 31.1104 20.7187 26.902 23.583 23.7497C26.3193 20.7574 29.5836 19.9092 32.0159 19.7813ZM39.9847 24.3577C39.0726 22.0055 30.2877 18.7892 24.7671 24.8378C22.3989 27.43 21.8228 30.8544 23.327 33.0787C23.3589 33.1266 23.391 33.1587 23.4389 33.2066C25.0072 30.0543 26.9914 27.606 29.3276 25.9419C29.6956 25.6859 30.1917 25.7659 30.4477 26.1339C30.7038 26.486 30.6238 26.982 30.2557 27.238C28.0634 28.8062 26.1913 31.1745 24.7031 34.2307L24.6071 34.4388C27.7434 36.935 33.5201 36.8711 36.1603 29.0302C37.5844 24.7738 40.2248 24.9498 39.9847 24.3577Z" fill="#3CB815"/>
</svg>
