<svg width="40" height="40" viewBox="0 0 40 40" fill="none" xmlns="http://www.w3.org/2000/svg">
<path d="M21.1657 12.269V20.8902C29.1859 13.5393 27.1551 5.79715 19.9949 0C12.8091 5.83355 10.8186 13.5705 18.8218 20.8959V12.269H21.1657Z" fill="#3CB815"/>
<path d="M12.9341 23.9948L18.8062 29.8669C18.5893 21.4712 13.34 16.5915 3.20305 17.5998C2.37935 25.6459 5.29296 33.3207 16.3361 33.2204H16.3369C17.3076 33.2204 18.1307 33.157 18.6985 33.096C18.6992 33.0894 18.6999 33.0826 18.7006 33.0759L11.2768 25.6521L12.9341 23.9948Z" fill="#3CB815"/>
<path d="M28.7135 25.652L21.2897 33.0759C21.2904 33.0826 21.2911 33.0893 21.2918 33.096C33.942 34.3692 37.7444 26.4614 36.7873 17.5998C27.1118 16.6339 21.7445 21.0641 21.2349 29.0087C21.2113 29.3019 21.1949 29.5886 21.1841 29.8669L27.0562 23.9948L28.7135 25.652Z" fill="#3CB815"/>
<path d="M21.1671 33.1953L21.1659 33.1964V33.3231H18.8232V39.9968H21.1671V33.1953Z" fill="#3CB815"/>
</svg>
