<svg width="40" height="40" viewBox="0 0 40 40" fill="none" xmlns="http://www.w3.org/2000/svg">
<g clip-path="url(#clip0_3891_4800)">
<path d="M29.3731 22.021L28.1693 18.51C28.1314 18.3999 28.0699 18.3018 27.9922 18.2188C27.938 19.0289 27.284 19.6911 26.4532 19.7337C26.2478 19.7439 26.0455 19.7493 25.8519 19.7493H25.8335C25.2811 19.7491 24.756 19.7085 24.2576 19.6346C24.2551 19.7366 24.2709 19.8407 24.3091 19.942C24.4677 20.362 24.9367 20.5737 25.357 20.4152V20.4149L26.9028 19.8306L30.5711 30.5286C31.2061 29.8345 32.0085 29.3072 32.924 28.9967C33.5127 28.7972 34.1243 28.6956 34.7407 28.6956C36.7048 28.6956 38.4895 29.7085 39.5117 31.314C40.1199 31.2849 40.2757 30.9288 39.2984 29.6553C37.7226 27.602 35.5307 27.2039 33.9891 27.2246C33.8924 26.9637 33.7924 26.6912 33.6881 26.403C32.7435 23.7911 30.6219 22.5471 29.3731 22.021Z" fill="#3CB815"/>
<path d="M22.0024 5.91567C22.0024 5.92656 22.0027 5.93779 22.0037 5.95031C22.0453 6.73704 22.2244 7.28506 22.227 7.82868C22.2276 8.10903 22.1735 8.38889 22.021 8.672C22.0062 8.69965 21.9822 8.72339 21.9541 8.73835C21.5066 8.97772 21.0257 9.05285 20.5366 9.05285C20.1092 9.05252 19.6729 8.99675 19.2326 8.93918C18.8217 8.88568 18.4589 8.80112 18.1353 8.68599C18.6322 9.32897 19.3451 9.81145 20.1984 10.01C22.166 10.4683 24.1322 9.24457 24.5909 7.27709C24.7935 6.40661 24.6665 5.53645 24.2919 4.79688C23.6369 4.87721 22.7552 5.04031 22.3102 5.38392C22.1071 5.53987 22.0042 5.70378 22.0024 5.91567Z" fill="#3CB815"/>
<path d="M16.1931 13.5751L16.1921 13.5728L16.1851 13.5579C16.0051 13.1626 15.9901 12.7206 16.1425 12.314C16.2949 11.9075 16.5968 11.5844 16.992 11.4048C17.2054 11.3074 17.4317 11.2585 17.6646 11.2585C18.3009 11.2585 18.8821 11.6325 19.1454 12.2114L19.1533 12.2275C19.1654 12.2521 19.1854 12.2916 19.2133 12.3438C19.2699 12.4505 19.3654 12.6204 19.4981 12.8274C19.6532 13.0704 19.8779 13.3923 20.17 13.7423C20.4632 12.2054 19.8453 10.5103 18.5557 10.1891C17.1675 9.84293 15.1551 10.597 14.3363 12.9778C13.2297 16.2586 12.9918 18.3939 13.4123 22.0064C13.819 24.0993 15.0473 24.6904 16.2848 24.8338C16.2903 24.8348 16.2955 24.8364 16.301 24.8372L22.4676 25.796L24.7775 31.6511C25.0929 32.4506 25.8586 32.9384 26.6689 32.9384C26.9171 32.9384 27.1696 32.8927 27.4145 32.7961C28.4585 32.384 28.9711 31.2035 28.5593 30.1595L25.8219 23.221C25.5575 22.5513 24.9543 22.0688 24.2434 21.9583L19.1341 21.1636C19.1076 19.9646 19.2397 18.7229 19.4285 17.5398C19.0549 17.2462 18.724 16.9471 18.4362 16.6594C17.0634 15.2927 16.3724 13.9532 16.1931 13.5751Z" fill="#3CB815"/>
<path d="M25.8337 19.4292H25.852C26.0454 19.4292 26.2402 19.4238 26.4366 19.4139C27.1543 19.3772 27.7063 18.7662 27.6698 18.0488C27.6332 17.3311 27.0217 16.7792 26.3046 16.8158C26.149 16.8238 25.9982 16.8275 25.852 16.8275C23.3596 16.8221 21.6665 15.7297 20.4989 14.5839C19.9226 14.0128 19.498 13.4328 19.2246 13.0052C19.0879 12.7916 18.9889 12.6156 18.9266 12.4995C18.8957 12.4413 18.8736 12.398 18.861 12.3717C18.8557 12.361 18.8519 12.353 18.8495 12.3484C18.5517 11.6944 17.7808 11.4054 17.1269 11.7032C16.4727 12.0004 16.1839 12.7716 16.4813 13.4256C16.5246 13.5152 17.1789 14.9513 18.6669 16.4315C20.1387 17.9034 22.5332 19.429 25.8337 19.4292Z" fill="#3CB815"/>
<path d="M12.0062 23.8611V13.7351C12.0062 13.2558 11.6177 12.8672 11.1385 12.8672H0.867716C0.388488 12.8674 0 13.256 0 13.7352V23.8613C0 24.3407 0.388488 24.7292 0.867716 24.7292H11.1385C11.6177 24.7292 12.0062 24.3407 12.0062 23.8611Z" fill="#3CB815"/>
<path d="M15.2447 32.7982C14.3854 30.2643 11.6351 28.9065 9.10091 29.7657C6.56703 30.6248 5.20919 33.3756 6.06845 35.9095C6.92755 38.4434 9.67803 39.8012 12.2122 38.9421C14.7461 38.0829 16.1038 35.332 15.2447 32.7982ZM11.271 36.1664C10.27 36.506 9.18303 35.9692 8.84381 34.9684C8.5046 33.9674 9.04106 32.8805 10.0418 32.5412C11.0429 32.2017 12.1298 32.7385 12.469 33.7392C12.8087 34.7403 12.2722 35.8269 11.271 36.1664Z" fill="#3CB815"/>
<path d="M32.225 21.7488C33.5944 21.7488 33.5944 16.7891 32.225 16.7891C30.8555 16.7891 29.7451 17.8992 29.7451 19.2689C29.7451 20.6387 30.8555 21.7488 32.225 21.7488Z" fill="#3CB815"/>
<path d="M29.1462 33.5078H18.778C17.8816 31.6993 17.5733 29.8531 17.4712 28.6522C17.7374 28.5708 17.9322 28.3259 17.9322 28.033V26.2442C17.9322 25.885 17.641 25.5938 17.2817 25.5938H4.02857C3.66936 25.5938 3.37811 25.885 3.37811 26.2442V28.033C3.37811 28.3922 3.66936 28.6834 4.02857 28.6834H4.10029C3.39389 30.4168 2.30371 33.4214 2.30371 35.4591H5.10753C4.8636 34.2423 5.02459 32.9859 5.58302 31.8546C6.25218 30.4995 7.4087 29.4856 8.83972 29.0007C9.42887 28.8007 10.04 28.6997 10.6568 28.6997C13.0824 28.6997 15.2354 30.2436 16.0145 32.5421C16.3446 33.5154 16.3917 34.5171 16.2033 35.4591H17.3456H20.0288H29.1922C29.0623 34.8114 29.0471 34.153 29.1462 33.5078Z" fill="#3CB815"/>
<path d="M33.1854 29.7656C30.6515 30.6247 29.2937 33.3755 30.1529 35.9094C31.012 38.4433 33.7625 39.8011 36.2967 38.942C38.8306 38.0829 40.1884 35.3321 39.3292 32.7983C38.4701 30.2644 35.7196 28.9065 33.1854 29.7656ZM35.3556 36.1665C34.3546 36.5061 33.2677 35.9693 32.9284 34.9685C32.5892 33.9675 33.1257 32.8805 34.1264 32.5413C35.1275 32.2018 36.2144 32.7386 36.5536 33.7393C36.8932 34.7404 36.3567 35.827 35.3556 36.1665Z" fill="#3CB815"/>
<path d="M24.6966 4.42645C24.6272 3.93258 24.4712 3.4623 24.2424 3.03299C23.6211 1.8672 22.4671 1.00941 21.0578 0.825001C20.8719 0.800608 20.6872 0.789062 20.5045 0.789062C20.5044 0.789062 20.5042 0.789062 20.5039 0.789062C18.4136 0.789062 16.5956 2.34025 16.3178 4.46986C16.2938 4.65508 16.2817 4.83916 16.2817 5.02081C16.2817 5.27221 16.3042 5.51955 16.3474 5.76136C16.5079 6.66241 16.7792 7.30946 17.2286 7.76153C17.6778 8.21327 18.3213 8.49037 19.2745 8.61559C19.7139 8.67315 20.138 8.72665 20.5362 8.72616C20.9763 8.72616 21.3823 8.66193 21.7562 8.47346C21.8642 8.25588 21.9008 8.05424 21.9014 7.82755C21.904 7.36247 21.725 6.79315 21.6788 5.96772C21.6775 5.95015 21.6772 5.93243 21.6768 5.91454C21.6755 5.57972 21.8612 5.31075 22.1141 5.12325C22.3681 4.93234 22.6958 4.80128 23.0412 4.70241C23.6383 4.53263 24.2949 4.46369 24.6966 4.42645Z" fill="#3CB815"/>
</g>
<defs>
<clipPath id="clip0_3891_4800">
<rect width="40" height="40" fill="white"/>
</clipPath>
</defs>
</svg>
