<svg width="73" height="80" viewBox="0 0 73 80" fill="none" xmlns="http://www.w3.org/2000/svg">
<g clip-path="url(#clip0_511_182)">
<path d="M9.74303 80.0026C9.43406 79.8984 9.12508 79.7943 8.81611 79.6693C6.6739 78.8776 5.31442 76.8984 5.29382 74.4818C5.27322 71.6693 5.37621 68.8568 5.27322 66.0443C5.12903 62.6068 4.86126 59.1901 4.57288 55.7734C4.16092 50.9193 3.70776 46.0859 3.2546 41.2318C2.76024 35.7734 2.26589 30.2943 1.77153 24.8359C1.33897 20.0443 0.906405 15.2526 0.473843 10.4609C0.350253 8.98177 0.226664 7.5026 0.0618787 6.02344C-0.0823087 4.6901 -0.0823087 3.35677 0.700423 2.1901C1.60674 0.794271 2.88383 0.0234375 4.51109 0.0234375C14.7278 0.00260417 24.9651 0.00260417 35.1818 0.0234375C37.9008 0.0234375 39.9194 2.46094 39.6722 5.1901C39.0131 12.4401 38.3539 19.7109 37.7154 26.9609C37.221 32.3151 36.7267 37.6901 36.2529 43.0443C36.2323 43.2318 36.2529 43.3984 36.2529 43.6901C37.2416 43.6901 38.2097 43.6901 39.1778 43.6901C39.7958 43.6901 40.4137 43.6693 41.0317 43.7318C41.7938 43.8151 42.35 44.4609 42.3706 45.2109C42.3912 45.9609 41.8556 46.6276 41.1141 46.7526C40.8051 46.8151 40.4961 46.8151 40.1872 46.8151C36.2941 46.8151 32.4216 46.8151 28.5286 46.8151C27.1897 46.8151 26.9425 47.0859 26.9425 48.3984C26.9425 50.4818 26.9425 52.5443 26.9425 54.6901C40.8669 54.6901 54.7295 54.6901 68.6539 54.6901C68.6539 52.3776 68.6745 50.1276 68.6333 47.8568C68.6127 47.1484 68.1183 46.8151 67.4386 46.8151C66.2027 46.8151 64.9668 46.8151 63.7309 46.8151C60.9295 46.8151 58.1282 46.8151 55.3062 46.8151C54.9973 46.8151 54.6883 46.8151 54.3793 46.7526C53.6584 46.6068 53.1846 45.9609 53.2052 45.2318C53.2258 44.4818 53.7202 43.8776 54.4411 43.7526C54.7089 43.7109 54.9973 43.7109 55.2856 43.7109C59.1993 43.7109 63.113 43.7109 67.0266 43.7109C70.0957 43.7109 71.723 45.3776 71.7436 48.5026C71.7436 50.9401 71.7436 53.3984 71.7436 55.8359C71.7436 56.0859 71.8054 56.4193 71.6818 56.6068C71.208 57.3359 71.4758 58.0234 71.6406 58.7318C71.723 59.1693 71.7436 59.6068 71.7436 60.0443C71.7436 63.6693 71.7436 67.2734 71.7436 70.8984C71.7436 75.7318 69.21 78.8984 64.5548 79.9193C64.4724 79.9401 64.4106 79.9818 64.3488 80.0234C46.0988 80.0026 27.9312 80.0026 9.74303 80.0026ZM23.9146 62.1693C23.3172 60.1693 24.4707 58.2943 23.791 56.3776C23.7704 56.3151 23.791 56.2318 23.791 56.1484C23.791 53.3568 23.791 50.5859 23.791 47.7943C23.791 46.6484 24.2442 45.6693 25.0681 44.8776C25.9538 44.0026 27.0249 43.6901 28.2402 43.6901C29.8263 43.7109 31.4329 43.6901 33.0602 43.6901C34.0695 32.5234 35.0788 21.4193 36.0675 10.3151C25.1505 10.3151 14.3982 10.3151 3.56357 10.3151C5.12903 27.6484 6.6945 44.8984 8.25996 62.1693C13.4713 62.1693 18.6003 62.1693 23.9146 62.1693ZM47.7467 57.8568C41.4848 57.8568 35.2436 57.8568 28.9817 57.8568C27.4369 57.8568 26.8807 58.4193 26.8807 59.9609C26.8807 63.6901 26.8807 67.3984 26.8807 71.1276C26.8807 74.6484 29.1053 76.8776 32.5864 76.8776C42.6795 76.8776 52.7521 76.8776 62.8452 76.8776C66.3675 76.8776 68.5921 74.6276 68.5921 71.0859C68.5921 67.4609 68.5921 63.8568 68.5921 60.2318C68.5921 58.3776 68.0977 57.8568 66.2645 57.8568C60.1056 57.8568 53.9262 57.8568 47.7467 57.8568ZM3.2752 7.1276C3.68716 7.1276 4.01673 7.1276 4.3463 7.1276C14.4394 7.1276 24.5325 7.1276 34.6256 7.1276C36.3559 7.1276 36.3559 7.1276 36.5207 5.41927C36.7061 3.66927 36.2117 3.1276 34.5021 3.1276C24.7179 3.1276 14.9338 3.1276 5.14963 3.1276C4.96425 3.1276 4.77886 3.1276 4.61408 3.1276C3.66656 3.1901 3.06922 3.79427 3.11041 4.73177C3.11041 5.5026 3.2134 6.2526 3.2752 7.1276ZM23.7704 65.3568C18.6209 65.3568 13.5537 65.3568 8.42475 65.3568C8.42475 68.5443 8.38355 71.6901 8.44534 74.8359C8.46594 75.8984 9.28987 76.7318 10.2992 76.8359C11.1025 76.9193 11.9264 76.8568 12.8122 76.8568C12.8122 75.8568 12.8122 74.9193 12.8122 73.9818C12.8328 71.8984 14.1098 70.6484 16.1491 70.6276C18.4149 70.6276 20.6807 70.6276 22.9465 70.6276C23.2142 70.6276 23.482 70.6276 23.791 70.6276C23.7704 68.8359 23.7704 67.1484 23.7704 65.3568ZM15.9431 73.7943C15.9431 74.8359 15.9431 75.8151 15.9431 76.8359C18.5797 76.8359 21.1544 76.8359 23.7292 76.8359C23.7292 75.7943 23.7292 74.7943 23.7292 73.7943C21.1132 73.7943 18.5385 73.7943 15.9431 73.7943Z" fill="#191919"/>
<path d="M48.6736 34.4131C48.4882 35.3298 48.2822 36.2465 48.0968 37.184C47.8908 38.184 47.2317 38.7256 46.3254 38.6006C45.4603 38.4756 44.8629 37.6631 45.0689 36.7048C45.3367 35.4131 45.728 34.1423 46.037 32.8715C46.0988 32.5798 46.1606 32.2673 46.1194 31.9756C44.5951 22.8298 50.6304 14.4131 59.7554 13.2048C64.4518 12.5798 68.6744 13.9131 72.2585 17.0798C73.2678 17.9548 73.2472 18.934 72.2379 19.7881C70.7136 21.059 69.6631 22.6631 68.9834 24.5381C66.4086 31.6215 59.7554 35.8715 52.3401 35.1423C51.1454 34.9965 49.9713 34.6631 48.6736 34.4131ZM49.0237 27.5381C49.1061 27.6006 49.1885 27.684 49.2709 27.7465C49.3327 27.6006 49.3739 27.4131 49.4769 27.3298C50.6716 26.3506 51.8457 25.3506 53.1022 24.4548C53.8437 23.934 54.7294 24.2256 55.1826 24.9548C55.6358 25.684 55.4504 26.5381 54.7089 27.0798C54.5029 27.2256 54.2763 27.3506 54.0703 27.4965C52.5048 28.5381 51.1866 29.809 50.136 31.4756C50.4244 31.5798 50.6304 31.6631 50.857 31.7048C56.7687 33.2256 63.0305 30.2465 65.5435 24.6215C66.5116 22.4756 67.2737 20.2465 69.0658 18.4756C65.1521 15.9756 61.1149 15.3923 56.9129 17.1423C52.3607 19.059 49.7859 22.6215 49.0237 27.5381Z" fill="#191919"/>
<path d="M49.2708 45.2675C49.2503 46.1009 48.5499 46.7884 47.7054 46.7884C46.8403 46.7884 46.1605 46.0592 46.1811 45.1634C46.2223 44.3092 46.9021 43.6634 47.7672 43.705C48.6323 43.7259 49.2914 44.4342 49.2708 45.2675Z" fill="#191919"/>
<path d="M19.7742 40.9559C17.2612 40.8101 15.2426 39.7059 14.0891 37.3517C12.915 34.9976 13.0798 32.6434 14.6452 30.4976C15.6751 29.0809 16.8492 27.7476 18.0027 26.4351C18.9915 25.2892 20.6187 25.2684 21.6074 26.3934C22.8021 27.7476 24.0174 29.1017 25.0679 30.5809C26.5716 32.7059 26.7158 35.0392 25.5623 37.3517C24.3882 39.7267 22.3902 40.8309 19.7742 40.9559ZM19.8154 29.0601C18.7855 30.3309 17.735 31.4767 16.8904 32.7684C15.9841 34.1642 16.4373 36.0601 17.7556 37.1017C19.0532 38.1226 20.9277 38.0392 22.143 36.8726C23.3377 35.7267 23.5849 33.8101 22.5961 32.4559C21.7516 31.3101 20.8041 30.2476 19.8154 29.0601Z" fill="#191919"/>
<path d="M47.7053 72.375C44.904 72.375 42.1026 72.375 39.3013 72.375C37.9212 72.375 37.4062 71.8542 37.4062 70.4375C37.4062 68.3542 37.4062 66.2708 37.4062 64.1875C37.4062 62.9583 37.983 62.375 39.2189 62.375C44.904 62.375 50.5891 62.375 56.2742 62.375C57.5307 62.375 58.1074 62.9792 58.128 64.25C58.128 66.3333 58.128 68.4167 58.128 70.5C58.128 71.8333 57.5513 72.375 56.233 72.375C53.3698 72.375 50.5273 72.375 47.7053 72.375ZM54.9353 69.2083C54.9353 67.9583 54.9353 66.75 54.9353 65.5417C50.0947 65.5417 45.3366 65.5417 40.5372 65.5417C40.5372 66.7917 40.5372 68 40.5372 69.2083C45.3572 69.2083 50.1359 69.2083 54.9353 69.2083Z" fill="#191919"/>
</g>
<defs>
<clipPath id="clip0_511_182">
<rect width="73" height="80" fill="white"/>
</clipPath>
</defs>
</svg>
