<svg width="75" height="80" viewBox="0 0 75 80" fill="none" xmlns="http://www.w3.org/2000/svg">
<g clip-path="url(#clip0_511_173)">
<path d="M39.8608 0C40.4851 0.292897 41.168 0.507689 41.7338 0.898218C43.1581 1.87454 43.7239 3.3195 43.7239 4.99878C43.7434 7.18575 43.7434 9.37271 43.7239 11.5597C43.7044 13.61 42.8654 15.1526 40.9924 16.1093C40.7973 16.207 40.6217 16.5389 40.6217 16.7537C40.5827 17.9253 40.5827 19.0969 40.6217 20.2685C40.6412 20.6004 40.7973 20.9714 40.9924 21.2448C43.2947 24.33 45.5775 27.4347 47.9188 30.4808C49.3236 32.3163 49.9869 34.3276 49.9674 36.6317C49.9284 40.537 49.9479 44.4423 49.9479 48.3476C49.9479 48.6405 49.9479 48.9138 49.9479 49.3239C50.2796 49.1482 50.5332 49.0115 50.7674 48.8748C52.8355 47.6837 54.8842 46.434 57.0109 45.3405C64.347 41.5524 73.5366 46.2582 74.8243 54.4398C75.6633 59.7315 73.3805 64.6327 68.6589 67.4054C62.4544 71.0373 56.2109 74.6497 49.9674 78.2036C43.9776 81.6012 37.1487 80 33.2075 74.2983C32.8954 73.8687 32.5637 73.8687 32.1539 73.8687C24.135 73.8687 16.1355 73.8882 8.11649 73.8687C4.79963 73.8687 2.30223 72.4237 0.838912 69.4166C0.409671 68.538 0.0974967 67.4835 0.0779857 66.5072C-0.0195689 63.1291 0.019453 59.7315 0.019453 56.3534C0.019453 49.7144 0.0389639 43.0754 -5.79552e-05 36.4364C-0.0195689 34.2299 0.624292 32.3163 1.95103 30.5785C4.31186 27.5128 6.61415 24.4081 8.91644 21.2839C9.18959 20.9129 9.32616 20.4052 9.36519 19.9365C9.42372 18.9212 9.36519 17.9058 9.3847 16.8904C9.3847 16.4804 9.30665 16.246 8.89692 16.0508C7.19947 15.1916 6.28246 13.7857 6.26295 11.8721C6.24344 9.5094 6.22393 7.12717 6.26295 4.76446C6.30197 2.40176 7.57018 0.820112 9.83345 0.136685C9.95051 0.0976324 10.0676 0.039053 10.1846 0C20.0767 0 29.9687 0 39.8608 0ZM3.18022 61.3717C3.39484 61.3913 3.53142 61.3913 3.64849 61.3913C13.1503 61.3913 22.6326 61.3913 32.1344 61.3717C32.4466 61.3717 32.8563 61.1179 33.0319 60.8641C34.0075 59.38 35.1586 58.0718 36.661 57.154C39.8217 55.2599 43.0215 53.4049 46.2213 51.5694C46.6896 51.2961 46.8652 51.0227 46.8652 50.476C46.8457 46.7269 46.8457 42.9778 46.8457 39.2287C46.8457 38.9749 46.8457 38.7405 46.8457 38.4867C32.2125 38.4867 17.7159 38.4867 3.18022 38.4867C3.18022 46.102 3.18022 53.6978 3.18022 61.3717ZM12.5064 16.578C12.5064 17.8863 12.4674 19.136 12.526 20.3661C12.565 21.3034 12.2918 22.0649 11.726 22.8069C9.2091 26.0874 6.75072 29.4069 4.27283 32.7264C3.70702 33.4684 3.27778 34.269 3.21924 35.2648C17.7549 35.2648 32.232 35.2648 46.7676 35.2648C46.7286 34.269 46.2799 33.5074 45.7336 32.7654C43.3727 29.6217 41.0119 26.4779 38.6706 23.3341C38.3779 22.9241 38.0658 22.7874 37.578 22.7874C33.071 22.8069 28.5834 22.8069 24.0764 22.8069C23.7838 22.8069 23.4911 22.8265 23.2179 22.7679C22.418 22.6312 21.9107 22.0259 21.8912 21.2643C21.8717 20.4638 22.418 19.8389 23.2375 19.7022C23.4911 19.6632 23.7642 19.6632 24.0179 19.6632C28.2127 19.6632 32.3881 19.6632 36.5829 19.6632C36.8561 19.6632 37.1292 19.6632 37.4219 19.6632C37.4219 18.5697 37.4219 17.5738 37.4219 16.5585C29.1102 16.578 20.8766 16.578 12.5064 16.578ZM47.392 54.4594C44.2897 56.2753 41.129 57.9546 38.1828 59.9072C34.5928 62.27 33.3441 66.9954 34.9635 70.9983C36.5829 75.0208 40.7583 77.3835 45.0117 76.7586C46.9042 76.4852 48.4651 75.5284 50.065 74.6107C52.2892 73.3219 54.5135 72.0332 56.7962 70.7249C53.6355 65.277 50.5332 59.9072 47.392 54.4594ZM24.9544 13.4342C29.481 13.4342 34.0075 13.4342 38.534 13.4342C40.0364 13.4342 40.6022 12.868 40.6022 11.3644C40.6022 9.27508 40.6217 7.20527 40.6022 5.11594C40.5827 3.71003 39.9973 3.12424 38.5926 3.12424C29.52 3.12424 20.4279 3.12424 11.3553 3.12424C9.931 3.12424 9.3847 3.67098 9.3847 5.11594C9.3847 7.20527 9.3847 9.27508 9.3847 11.3644C9.3847 12.907 9.91149 13.4342 11.4529 13.4342C15.9404 13.4342 20.4474 13.4342 24.9544 13.4342ZM59.4692 69.1433C62.2593 67.5226 64.9908 66.0386 67.6248 64.3593C71.8197 61.7037 73.1269 56.1777 70.649 51.8623C68.1516 47.5275 62.7081 45.8677 58.2791 48.2109C55.5671 49.6558 52.9526 51.257 50.2991 52.7801C50.2406 52.8191 50.2016 52.8972 50.143 52.9753C53.2453 58.3451 56.328 63.6954 59.4692 69.1433ZM3.21924 64.5546C2.57538 68.6746 5.2874 70.8421 8.4872 70.803C15.8428 70.7054 23.1984 70.764 30.5541 70.764C30.8662 70.764 31.1784 70.764 31.2955 70.764C31.2955 68.6551 31.2955 66.6244 31.2955 64.5546C22.0278 64.5546 12.643 64.5546 3.21924 64.5546Z" fill="#191919"/>
<path d="M26.5544 48.8909C28.1152 48.8909 29.5786 48.8714 31.0614 48.8909C32.3101 48.9104 33.071 49.9063 32.6808 50.9607C32.4076 51.7222 31.7833 51.9956 31.0224 51.9956C29.5786 51.9956 28.1152 51.9956 26.5739 51.9956C26.5739 53.382 26.5739 54.6903 26.5739 56.0181C26.5739 57.4825 25.9886 58.2636 24.9545 58.2441C23.9399 58.205 23.4521 57.5021 23.4521 56.0376C23.4521 54.7488 23.4521 53.4406 23.4521 52.0151C22.8473 52.0151 22.301 52.0151 21.7352 52.0151C20.8572 52.0151 19.9597 52.0151 19.0817 52.0151C17.911 51.9956 17.2281 51.4293 17.2281 50.4725C17.2281 49.5157 17.911 48.9104 19.0622 48.9104C20.4865 48.8909 21.9108 48.9104 23.4521 48.9104C23.4521 47.7193 23.4521 46.5868 23.4521 45.4542C23.4521 45.0637 23.4326 44.6732 23.4521 44.2826C23.5107 43.3454 24.096 42.7205 24.935 42.6815C25.7349 42.6424 26.4568 43.2477 26.5349 44.1655C26.6129 45.2004 26.5739 46.2353 26.5739 47.2897C26.5544 47.7779 26.5544 48.2856 26.5544 48.8909Z" fill="#191919"/>
<path d="M18.711 21.2652C18.6915 22.0854 17.9696 22.8078 17.1501 22.8078C16.3112 22.8078 15.6283 22.0854 15.6283 21.2457C15.6283 20.4061 16.3502 19.7031 17.1697 19.7031C18.0086 19.7031 18.7305 20.4256 18.711 21.2652Z" fill="#191919"/>
</g>
<defs>
<clipPath id="clip0_511_173">
<rect width="75" height="80" fill="white"/>
</clipPath>
</defs>
</svg>
