<svg width="120" height="128" viewBox="0 0 120 128" fill="none" xmlns="http://www.w3.org/2000/svg">
<g clip-path="url(#clip0_1611_2010)">
<path d="M15.5979 109.678C13.7571 108.709 11.9763 107.64 10.5311 106.075C7.37728 102.586 5.62508 98.4156 4.3506 93.9707C4.06791 92.9999 3.83724 91.9646 3.63497 90.9735C3.35535 89.8139 3.62944 89.0779 4.46989 88.8818C5.6036 88.5601 5.83735 89.4066 6.11524 90.2248C7.52216 94.5849 9.40678 98.67 12.4881 102.144C14.5691 104.453 16.9652 106.187 20.2706 106.186C22.666 106.177 24.6415 105.129 26.4623 103.744C27.2364 103.155 27.9615 102.441 28.663 101.836C27.0963 100.131 25.4178 98.5916 24.064 96.7816C20.6795 92.2565 18.0297 87.323 16.7658 81.7817C16.4403 80.309 16.2472 78.7515 16.4169 77.2729C16.8206 73.4962 19.1537 71.5032 23.1544 71.2747C27.3806 71.0575 30.7955 72.8233 33.8008 75.5988C37.15 78.7143 39.4477 82.4725 39.4434 87.2075C39.4343 91.7899 38.0546 96.0363 35.7476 100.005C35.5522 100.379 35.3284 100.71 35.029 101.213C41.698 104.785 48.4658 107.205 55.9268 104.168C60.0089 102.517 62.4282 99.2548 63.942 95.2649C66.2623 89.1393 66.0941 82.927 64.6091 76.6556C64.2552 75.1389 63.813 73.6788 63.3739 72.0298C62.6991 72.3377 62.1126 72.589 61.5339 72.8041C54.3868 75.7958 47.8356 74.8253 41.8962 69.8202C37.02 65.6906 33.8702 60.6104 32.8157 54.2811C32.4837 52.3145 32.5018 50.3104 33.0719 48.3885C34.0104 45.2964 36.1718 43.5691 39.2971 42.9987C44.3209 42.0835 48.7765 43.4317 52.7454 46.4926C56.9084 49.7093 59.692 54.0279 62.0263 58.6654C63.1974 60.9661 64.1556 63.3721 65.2716 65.926C66.6716 64.9045 68.1724 63.9428 69.4509 62.7812C72.6809 59.8087 75.9471 56.8442 78.89 53.6198C84.1752 47.8361 89.2016 41.8446 94.3574 35.957C94.7137 35.5419 94.857 35.2321 94.5603 34.6751C94.15 33.9417 93.9525 33.1031 93.5706 32.4138C93.4365 32.1573 92.9522 31.9383 92.6542 31.9114C91.5345 31.8193 90.9113 31.1912 90.6444 30.1481C90.3774 29.1049 90.7066 28.1157 91.7551 27.6618C93.5746 26.8073 95.4382 25.9245 97.3398 25.391C103.25 23.7214 109.172 22.1682 115.102 20.5789C115.468 20.469 115.862 20.4032 116.249 20.3736C118.225 20.1972 119.444 21.7507 118.701 23.597C117.122 27.5349 115.011 31.1295 112.314 34.4453C109.937 37.3381 107.252 39.8988 104.317 42.2155C102.849 43.3738 101.693 43.2739 100.39 41.9296C99.4595 40.9693 98.5365 39.9729 97.5126 38.9166C97.2084 39.2672 96.9484 39.5895 96.6599 39.8677C91.3686 46.029 86.1625 52.3224 80.7418 58.3797C76.7823 62.7848 72.2358 66.5696 67.1751 69.75C66.9544 69.8914 66.7699 70.0407 66.5934 70.1538C67.2316 72.9827 67.9582 75.755 68.5239 78.5681C69.5497 83.9819 69.7459 89.3667 68.3841 94.7536C66.043 103.944 57.0097 110.541 47.4687 109.867C42.2329 109.486 37.5375 107.669 33.1713 104.863C32.3715 104.348 31.9048 104.398 31.2238 105.083C28.1232 108.159 24.4165 110.005 20.001 110.219C19.4254 110.246 18.894 110.244 18.3184 110.27C17.4116 110.073 16.5047 109.875 15.5979 109.678ZM61.8 68.0881C61.8031 67.8994 61.8189 67.827 61.7905 67.7829C59.735 62.562 57.0852 57.6284 53.6928 53.1396C51.7189 50.5127 49.2927 48.3936 46.0232 47.5308C43.4067 46.8101 40.8457 46.7076 38.8154 48.8802C36.6812 51.1817 36.6508 53.9409 37.442 56.7651C38.336 59.9906 40.4659 62.4241 42.5958 64.8576C44.6043 67.151 46.8365 69.1143 49.797 70.175C54.2053 71.7402 58.0208 69.9181 61.8 68.0881ZM31.4844 98.4716C33.0793 96.2043 34.1664 93.8265 34.834 91.2817C35.5693 88.6001 35.7527 85.8363 34.6682 83.1377C32.8212 78.5304 28.818 76.6744 24.4162 75.6032C22.1104 75.0258 21.0654 76.1624 21.1421 78.6039C21.2175 81.5756 22.0529 84.3716 23.2021 87.1221C25.0521 91.5407 27.6763 95.3699 31.4844 98.4716ZM111.624 26.2631C106.648 27.8327 101.68 29.3661 96.3818 31.0173C97.83 32.3932 99.0196 33.5613 100.297 34.6728C101.187 35.4726 102.394 36.0382 102.418 37.6726C106.323 34.3923 109.425 30.7858 111.624 26.2631Z" fill="#6E6E6E"/>
</g>
<defs>
<clipPath id="clip0_1611_2010">
<rect width="98.4109" height="108.77" fill="white" transform="translate(23.1212) rotate(12.273)"/>
</clipPath>
</defs>
</svg>
