<svg width="196" height="45" viewBox="0 0 196 45" fill="none" xmlns="http://www.w3.org/2000/svg">
<g clip-path="url(#clip0_3663_513)">
<path d="M21.6778 7.00833V11.3043H4.17579V40.8106H33.7568V23.2873H37.935V44.9935H0V7.00833H21.6778ZM37.935 0V7.00833H44.9339V11.3043H37.935V18.3126H33.7568V11.3043H26.6452V7.00833H33.7568V0H37.935ZM17.3869 35.1572V23.2873H13.4341V20.2356H13.8874C15.1274 20.2356 16.1444 20.0094 16.8232 19.4438C17.4996 18.8782 17.9505 17.8626 17.9505 16.6183H21.6778V35.1572H17.3869ZM49.9037 26.1153C49.9037 19.4438 54.0794 14.4691 60.6274 14.4691C67.1778 14.4691 71.3536 19.4438 71.3536 26.1153C71.3536 32.7842 67.1778 37.6458 60.6274 37.6458C54.0794 37.6458 49.9037 32.7842 49.9037 26.1153ZM66.7244 26.1153C66.7244 21.7062 64.6929 18.1995 60.6274 18.1995C56.5643 18.1995 54.4176 21.7062 54.4176 26.1153C54.4176 30.5244 56.4516 34.0285 60.6274 34.0285C64.8056 33.9154 66.7244 30.5244 66.7244 26.1153ZM75.1937 14.9216H79.8228L87.2726 27.3571C87.9514 28.6014 88.8532 30.5244 88.8532 30.5244H88.9659C88.9659 30.5244 88.8532 28.262 88.8532 26.6784V14.9216H93.2569V37.1933H88.8532L81.1755 24.871C80.4992 23.7398 79.5949 21.8193 79.5949 21.8193H79.4822C79.4822 21.8193 79.5949 24.1923 79.5949 25.6628V37.1933H75.1937V14.9216ZM98.2242 14.9216H114.597V18.652H102.741V23.6267H113.129V27.3571H102.741V33.3498H114.709V37.1933H98.2242V14.9216ZM128.935 14.9216C131.533 14.9216 133.451 15.7134 134.807 16.9577C136.047 18.1995 136.838 20.0094 136.838 22.0455C136.838 26.2284 134.015 29.0538 129.386 29.0538H123.968V37.0802H119.338V14.9216H128.935ZM123.742 25.4365H128.371C130.741 25.4365 131.983 24.0791 131.983 22.1586C131.983 20.1225 130.628 18.8782 128.484 18.8782H123.742V25.4365ZM139.999 14.9216H144.516V33.3498H154.901V37.1933H139.999V14.9216ZM157.386 14.9216H161.903V30.0719C161.903 32.3318 163.032 34.0285 166.081 34.0285C168.901 34.0285 170.257 32.3318 170.257 30.0719V14.9216H174.773V30.0719C174.773 34.8179 171.837 37.6458 166.194 37.6458C160.322 37.5327 157.386 34.8179 157.386 29.9588V14.9216ZM182.338 30.2981C182.676 33.0105 184.144 34.0285 187.305 34.0285C189.562 34.0285 191.596 33.2367 191.596 31.2006C191.596 29.0538 189.45 28.6014 186.063 27.8095C182.113 26.9046 178.385 25.889 178.385 21.2537C178.385 16.8446 182 14.5822 186.854 14.5822C191.822 14.5822 195.096 17.0708 195.434 21.4799H191.143C190.918 19.2176 189.111 18.0864 186.854 18.0864C184.482 18.0864 182.789 19.1045 182.789 20.6881C182.789 22.4955 184.37 23.0611 187.644 23.7398C192.273 24.7578 196 25.7759 196 30.635C196 35.1572 192.385 37.6458 187.305 37.6458C181.434 37.6458 178.047 34.931 177.934 30.2981H182.338Z" fill="#F50514"/>
</g>
<defs>
<clipPath id="clip0_3663_513">
<rect width="196" height="45" fill="white"/>
</clipPath>
</defs>
</svg>
