<svg width="160" height="45" viewBox="0 0 160 45" fill="none" xmlns="http://www.w3.org/2000/svg">
<g clip-path="url(#clip0_3663_516)">
<path fill-rule="evenodd" clip-rule="evenodd" d="M92.4401 14.0617C92.4284 14.0722 92.1389 14.0925 91.7968 14.1067C91.4546 14.1209 91.1608 14.1405 91.1438 14.1502C91.1268 14.1599 90.9379 14.1811 90.7237 14.1973C90.51 14.2135 90.3215 14.235 90.305 14.2451C90.2889 14.2553 90.1404 14.2755 89.9759 14.2901C89.1353 14.3648 87.8494 14.6544 87.1081 14.936C86.9405 14.9997 86.7681 15.0624 86.7254 15.0753C86.5469 15.1293 86.5308 15.2594 86.5012 16.8845C86.4695 18.627 86.4629 18.5852 86.7672 18.6222C86.8673 18.6344 87.0554 18.6061 87.2387 18.5511C87.9134 18.3487 88.1841 18.2742 88.8941 18.096C89.7983 17.8691 90.7977 17.6562 91.3523 17.5723C92.3048 17.4281 94.4713 17.4557 94.9149 17.6175C95.0024 17.6495 95.2191 17.7083 95.3967 17.7482C95.7676 17.8318 96.0619 17.97 96.3849 18.2122C96.6208 18.3895 96.7658 18.6518 96.8838 19.1139C96.9604 19.4152 96.966 19.4536 96.9965 19.9111L97.0252 20.3401L96.6374 20.3084C95.0999 20.1827 93.3521 20.1321 92.5925 20.1913L91.3741 20.2862C90.1448 20.3822 88.6212 20.6981 87.8603 21.0149C86.8599 21.4314 85.897 22.1967 85.6215 22.7939C85.0552 24.0216 84.9363 25.5925 85.298 27.0582C85.4365 27.618 85.554 27.9343 85.746 28.2614C85.8126 28.3756 85.8674 28.4877 85.8674 28.5105C85.8674 28.6354 86.8878 29.5321 87.3914 29.8497C87.5229 29.9326 87.637 30.0154 87.6448 30.0337C87.6526 30.052 87.6853 30.067 87.7171 30.067C87.7488 30.067 87.9086 30.1269 88.0723 30.2001C88.2364 30.2732 88.5272 30.3786 88.7187 30.4343C88.9102 30.4899 89.1549 30.5649 89.2628 30.6009C89.3703 30.6368 89.7817 30.7212 90.177 30.7884C90.8931 30.9102 90.9005 30.9105 92.8976 30.9108C94.9149 30.9112 95.4481 30.8823 96.1624 30.7344C97.158 30.5282 97.6133 30.4049 97.9907 30.2392C98.7817 29.892 98.9824 29.7734 99.3798 29.4183C99.6327 29.1926 99.9797 28.837 100.092 28.6883C100.3 28.4123 100.752 27.4811 100.841 27.1448C100.891 26.9543 100.95 26.7661 100.972 26.7267C101.061 26.5651 101.215 25.4749 101.261 24.6771C101.295 24.0784 101.292 21.8097 101.255 21.1704C101.212 20.3986 101.111 19.6339 100.993 19.179C100.777 18.3452 100.656 18.0053 100.375 17.449C99.6693 16.0481 98.2053 14.8941 96.5107 14.4025C96.2304 14.3212 95.6636 14.2151 95.183 14.1539C95.075 14.1402 94.9379 14.1198 94.8783 14.1087C94.7307 14.0812 92.4667 14.0376 92.4401 14.0617ZM112.095 14.3141C111.46 14.346 111.307 14.3636 110.593 14.4856C109.941 14.597 109.53 14.7097 109.072 14.9031C108.748 15.0399 108.605 15.1153 108.174 15.3774C108.128 15.4058 107.969 15.5003 107.822 15.5877C107.51 15.7736 106.928 16.3568 106.547 16.8661C106.246 17.269 105.717 18.3027 105.717 18.488C105.717 18.5252 105.69 18.6091 105.656 18.6746C105.529 18.9167 105.283 20.0621 105.192 20.8217C105.111 21.5074 105.102 21.7642 105.12 23.008C105.145 24.845 105.232 25.3988 105.727 26.8986C105.913 27.4614 106.153 27.8925 106.617 28.4969C106.929 28.9041 107.558 29.521 107.807 29.6649C107.914 29.7271 108.012 29.7895 108.025 29.8035C108.065 29.8509 108.22 29.9358 108.612 30.1261C109.033 30.3304 109.275 30.4169 109.775 30.5414C109.949 30.5851 110.2 30.6503 110.332 30.6864C111.066 30.8878 112.17 30.9655 114.119 30.9528C115.405 30.9444 115.699 30.93 116.165 30.8529C117.117 30.6954 118.125 30.4015 118.69 30.1165C119.117 29.9009 119.32 29.7866 119.364 29.7368C119.388 29.71 119.574 29.5532 119.778 29.3883C120.239 29.015 120.431 28.8338 120.431 28.7725C120.431 28.7463 120.447 28.7249 120.468 28.7249C120.505 28.7249 120.928 28.1241 120.93 28.0682C120.931 28.0522 120.971 27.9938 121.019 27.9383C121.067 27.8828 121.146 27.7692 121.196 27.6859C121.307 27.4971 121.606 26.7646 121.606 26.682C121.606 26.6484 121.624 26.6024 121.645 26.5798C121.759 26.4592 122.034 24.9996 122.132 23.9951C122.18 23.5062 122.167 21.264 122.115 21.0189C122.102 20.9594 122.08 20.7841 122.065 20.6293C121.951 19.4739 121.597 18.2497 121.184 17.5889C121.129 17.5001 121.084 17.4137 121.084 17.3971C121.084 17.3803 120.98 17.229 120.853 17.0607C120.726 16.8924 120.564 16.6767 120.494 16.5815C120.424 16.4862 120.251 16.3012 120.11 16.1702C119.861 15.9385 119.329 15.5208 119.282 15.5208C119.27 15.5208 119.171 15.4615 119.063 15.389C118.763 15.1872 118.103 14.8898 117.59 14.7241C117.135 14.5775 116.392 14.4413 115.534 14.347C115.033 14.292 112.931 14.2719 112.095 14.3141ZM132.004 14.3286C131.995 14.3371 131.832 14.3563 131.64 14.3714C131.448 14.3864 131.164 14.4169 131.009 14.4391C130.853 14.4613 130.648 14.4903 130.553 14.5036C130.15 14.5597 129.345 14.8093 128.985 14.9898C128.598 15.1836 127.872 15.706 127.653 15.9485C127.433 16.1917 126.968 17.0689 126.881 17.404C126.789 17.7587 126.693 18.3628 126.657 18.8072C126.611 19.3899 126.622 30.6106 126.669 30.6574C126.713 30.7013 130.554 30.7063 130.598 30.6627C130.616 30.645 130.645 28.1124 130.662 25.0347C130.68 21.9569 130.707 19.3706 130.723 19.2872C130.786 18.9499 130.935 18.528 131.038 18.393C131.182 18.2067 131.503 17.9788 131.749 17.8892C132.251 17.7065 132.81 17.6498 133.904 17.6705C135.232 17.6956 135.585 17.7697 136 18.1106C136.395 18.4346 136.512 18.6957 136.567 19.3738C136.589 19.6476 136.611 22.2387 136.617 25.1317C136.623 28.0247 136.638 30.4532 136.651 30.5283C136.674 30.6548 136.691 30.6665 136.878 30.6848C137.216 30.7177 140.576 30.6971 140.611 30.6619C140.63 30.6438 140.65 28.1404 140.657 25.0989C140.664 22.0572 140.679 19.4601 140.691 19.3275C140.703 19.1949 140.745 18.9708 140.784 18.8296C140.823 18.6884 140.865 18.5297 140.878 18.4769C140.914 18.3178 141.297 17.9723 141.528 17.8899C142.222 17.6423 144.006 17.5815 145.063 17.7695C145.691 17.8812 146.215 18.2405 146.344 18.6492C146.557 19.3211 146.563 19.4754 146.59 25.2255C146.603 28.1939 146.63 30.6383 146.649 30.6574C146.706 30.7137 150.337 30.7327 150.48 30.6774L150.602 30.6302L150.582 24.8397C150.572 21.6549 150.551 18.942 150.536 18.811C150.413 17.7057 150.289 17.243 149.966 16.6675C149.682 16.1606 149.267 15.7282 148.743 15.3901C147.411 14.5322 146.247 14.2872 143.676 14.3233C142.946 14.3336 142.28 14.3531 142.196 14.3666C142.112 14.3801 141.946 14.4013 141.826 14.4137C141.306 14.4673 140.655 14.6029 140.084 14.7766C140.011 14.7986 139.746 14.919 139.496 15.0441C139.073 15.2551 139.016 15.272 138.714 15.2763C138.408 15.2806 138.359 15.2676 137.952 15.0719C137.279 14.7487 136.809 14.6088 135.95 14.4761C134.956 14.3226 134.737 14.3084 133.397 14.3107C132.639 14.3121 132.013 14.3201 132.004 14.3286ZM67.0173 14.531C66.8523 14.5648 66.72 14.6837 66.6055 14.9015C66.5576 14.9921 66.5071 15.076 66.4928 15.0879C66.4784 15.0998 66.3996 15.207 66.3174 15.326C66.2351 15.4451 66.1289 15.5891 66.0819 15.6461C66.0344 15.703 65.9173 15.8435 65.8215 15.9583C65.5695 16.2601 65.4794 16.3853 65.364 16.5923C65.3074 16.6935 65.2452 16.7763 65.2256 16.7763C65.206 16.7763 65.1903 16.8012 65.1903 16.8317C65.1903 16.8621 65.1512 16.9151 65.1033 16.9495C65.0554 16.9838 65.0162 17.0347 65.0162 17.0626C65.0162 17.0906 64.9866 17.1246 64.9509 17.1383C64.9148 17.152 64.8856 17.1914 64.8856 17.2259C64.8856 17.2604 64.8708 17.2951 64.853 17.303C64.7859 17.3325 64.015 18.299 64.015 18.3532C64.015 18.3669 63.9806 18.4157 63.9388 18.4616C63.8971 18.5072 63.8567 18.5541 63.8178 18.6023C63.5436 18.9538 63.315 19.259 63.1914 19.4379C63.016 19.6919 62.7417 19.9689 62.7222 19.9115C62.7148 19.8896 62.5511 19.6574 62.3587 19.3955C61.9569 18.8483 61.6713 18.4537 61.5773 18.3156C61.5412 18.2628 61.4315 18.1238 61.3335 18.0067C61.2356 17.8895 61.0597 17.6475 60.9431 17.469C60.8264 17.2904 60.7093 17.1248 60.6827 17.101C60.6562 17.0772 60.4799 16.8434 60.2914 16.5815C60.1029 16.3196 59.8483 15.9786 59.7251 15.8239C59.6023 15.6691 59.4356 15.4451 59.3551 15.326C59.275 15.207 59.1835 15.0837 59.1522 15.0522C59.0455 14.9442 58.8305 14.6117 58.8653 14.6087C58.8845 14.607 58.861 14.5889 58.8131 14.5684C58.7652 14.5479 57.6669 14.5298 56.3728 14.5281C54.5036 14.5257 54.0034 14.5367 53.942 14.5815C53.8728 14.6316 53.8702 14.6595 53.9163 14.8301C53.9777 15.0573 54.0221 15.1231 54.5736 15.8022C54.8057 16.0879 55.0808 16.4321 55.1848 16.5669C55.2889 16.7018 55.5309 17.0065 55.7224 17.2441C55.914 17.4816 56.1098 17.7302 56.1577 17.7965C56.2056 17.8628 56.2753 17.9477 56.3123 17.9852C56.445 18.1187 56.8264 18.5777 57.0562 18.8808C57.1842 19.05 57.4523 19.3812 57.6517 19.6167C58.0844 20.1282 58.0892 20.1339 58.2237 20.3262C58.282 20.4096 58.3408 20.4875 58.3543 20.4994C58.3673 20.5113 58.4361 20.599 58.5071 20.6942C58.5776 20.7895 58.6559 20.889 58.6808 20.9155C58.7056 20.9419 58.7835 21.0362 58.8536 21.1249C58.9237 21.2136 59.039 21.3478 59.11 21.4231C59.1814 21.4985 59.3194 21.6672 59.4177 21.7982C59.5157 21.9291 59.6062 22.046 59.6188 22.0579C59.6315 22.0698 59.7442 22.203 59.8692 22.3538C60.0646 22.5891 60.0894 22.6386 60.0428 22.7024C59.7821 23.0588 59.4534 23.4693 59.2889 23.6437C59.1796 23.7597 59.0573 23.9033 59.0168 23.9628C58.9768 24.0223 58.9115 24.1099 58.8719 24.1576C58.6124 24.4716 58.3996 24.7438 58.3996 24.7611C58.3996 24.7723 58.3552 24.8269 58.3016 24.8824C58.1919 24.9952 57.8863 25.3614 57.7975 25.486C57.7657 25.5305 57.673 25.6394 57.5912 25.7281C57.5093 25.8167 57.4419 25.9053 57.4419 25.9248C57.4419 25.9444 57.4175 25.9848 57.3875 26.0146C57.3574 26.0444 57.2743 26.1438 57.2025 26.2355C57.0166 26.4725 56.8224 26.7011 56.7428 26.7768C56.7053 26.8125 56.5708 26.9781 56.4446 27.1448C56.1982 27.4693 55.9518 27.7689 55.8073 27.9184C55.7581 27.9693 55.705 28.0449 55.6889 28.0865C55.6728 28.1281 55.6397 28.1621 55.6149 28.1621C55.5901 28.1621 55.5701 28.1913 55.5701 28.2271C55.5701 28.2628 55.5544 28.292 55.5357 28.292C55.5169 28.292 55.4665 28.351 55.4238 28.423C55.3811 28.4951 55.3032 28.6001 55.2514 28.6565C55.1992 28.7128 55.0991 28.8309 55.029 28.9189C54.9589 29.0068 54.8509 29.1351 54.7895 29.204C54.7277 29.2728 54.5993 29.4392 54.5036 29.5738C54.4078 29.7083 54.285 29.8655 54.2315 29.923C54.1775 29.9806 54.1335 30.0462 54.1335 30.0689C54.1335 30.0917 54.1179 30.1103 54.0992 30.1103C54.0352 30.1103 53.9159 30.3616 53.9159 30.4972C53.9159 30.5972 53.9416 30.6427 54.0138 30.6715C54.0682 30.6932 55.1478 30.707 56.455 30.7026C58.7369 30.6949 58.8 30.6925 58.8614 30.6088C58.8962 30.5616 59.0151 30.4218 59.1261 30.2981C59.2366 30.1745 59.3877 29.9872 59.4617 29.8819C59.5875 29.7036 59.9114 29.2717 60.0359 29.1174C60.0659 29.0801 60.1861 28.9327 60.3036 28.7899C60.4207 28.647 60.651 28.345 60.8151 28.1188C60.9792 27.8926 61.1385 27.6881 61.169 27.6643C61.2177 27.6263 61.3261 27.4932 61.5568 27.188C61.8807 26.7602 62.1219 26.4484 62.1428 26.4304C62.1567 26.4185 62.2773 26.2529 62.4109 26.0625C62.6804 25.6781 62.9315 25.3914 62.9986 25.3914C63.023 25.3914 63.1078 25.4914 63.1875 25.6136C63.2672 25.7358 63.4478 25.9807 63.5893 26.1577C63.7308 26.3348 63.9754 26.6682 64.133 26.8988C64.4233 27.3233 64.56 27.5074 64.7019 27.6643C64.8173 27.7925 65.1468 28.241 65.1468 28.2704C65.1468 28.2843 65.23 28.4069 65.3314 28.5428C65.4328 28.6787 65.5564 28.8488 65.6065 28.9208C65.6561 28.9929 65.7284 29.0903 65.7671 29.1373C65.9452 29.3526 66.1354 29.5988 66.2351 29.7423C66.2947 29.8285 66.3644 29.9222 66.3896 29.9505C66.4876 30.0615 66.7139 30.4095 66.7139 30.4497C66.7139 30.4731 66.774 30.5426 66.8476 30.6043L66.9816 30.7164L69.2744 30.7158C70.5355 30.7155 71.6098 30.7039 71.6612 30.6902C71.7334 30.6709 71.7587 30.625 71.7718 30.4899C71.7818 30.3838 71.7665 30.2927 71.7326 30.2589C71.7017 30.2282 71.6764 30.1928 71.6764 30.1804C71.6764 30.1679 71.612 30.0935 71.5336 30.0149C71.4553 29.9364 71.3626 29.8154 71.3269 29.7461C71.2916 29.6767 71.1349 29.4721 70.9786 29.2915C70.8223 29.1108 70.6365 28.8851 70.5651 28.7899C70.2913 28.4228 69.7846 27.7935 69.7519 27.7797C69.7328 27.7718 69.7175 27.7407 69.7175 27.7107C69.7175 27.6806 69.6762 27.6189 69.6257 27.5736C69.5752 27.5282 69.422 27.345 69.2853 27.1664C68.89 26.6508 68.651 26.346 68.3694 25.9975C68.1968 25.7831 68.0267 25.5666 67.8592 25.3481C67.7234 25.1696 67.5998 25.0137 67.585 25.0018C67.5515 24.9745 67.0552 24.3257 66.9969 24.2322C66.9729 24.194 66.9111 24.1188 66.8597 24.0652C66.7392 23.9395 66.3657 23.4569 66.3657 23.4269C66.3657 23.4143 66.3213 23.3567 66.2677 23.2991C65.9195 22.9264 65.6692 22.5691 65.6692 22.4444C65.6692 22.3954 65.7153 22.3381 65.778 22.3098C65.8376 22.2827 65.8868 22.244 65.8868 22.2239C65.8868 22.2037 65.9352 22.1453 65.9944 22.0942C66.0536 22.043 66.1559 21.9213 66.222 21.8239C66.3983 21.5633 66.6151 21.2905 66.8789 20.9973C67.1575 20.6878 67.178 20.6635 67.3699 20.4128C67.4518 20.3057 67.5319 20.2083 67.5475 20.1964C67.5628 20.1845 67.6625 20.0578 67.7682 19.915C67.874 19.7721 68.0377 19.5652 68.1317 19.4553C68.3215 19.2334 68.3455 19.204 68.6402 18.8327C68.7538 18.6898 68.873 18.5437 68.9053 18.508C68.937 18.4723 69.0689 18.3067 69.1978 18.14C69.3266 17.9733 69.5369 17.7103 69.6653 17.5556C69.7933 17.4008 69.9291 17.2352 69.967 17.1876C70.0044 17.1399 70.1158 17.0103 70.2138 16.8995C70.3117 16.7886 70.4119 16.6717 70.4358 16.6397C70.4597 16.6076 70.5372 16.5035 70.6082 16.4083C70.7531 16.2142 71.0996 15.7987 71.4322 15.4211C71.6629 15.1592 71.8005 14.8891 71.8044 14.6894C71.8066 14.5903 71.7852 14.5687 71.6655 14.5485C71.4618 14.5142 67.1784 14.4981 67.0173 14.531ZM76.2929 14.6076C76.2363 14.7128 76.2485 30.6022 76.305 30.6586C76.3525 30.7058 80.2332 30.7058 80.2807 30.6586C80.3238 30.616 80.3168 14.6187 80.2742 14.5759C80.2581 14.5599 79.3661 14.5409 78.2922 14.5338C76.3769 14.5212 76.3386 14.5226 76.2929 14.6076ZM156.173 14.5643C156.074 14.5816 156.018 14.6184 156.004 14.6766C155.993 14.7242 155.981 18.313 155.978 22.6516C155.974 29.9271 155.979 30.5457 156.045 30.6115C156.109 30.6745 156.312 30.6856 157.765 30.7058C158.671 30.7184 159.545 30.7147 159.706 30.6974L160 30.6662V14.5803L159.756 14.5518C159.46 14.5172 156.382 14.528 156.173 14.5643ZM114.65 17.645C115.903 17.7741 116.727 18.0995 117.257 18.6749C117.895 19.3666 118.07 20.0039 118.124 21.8415C118.193 24.1688 118.048 25.4767 117.65 26.1274C117.397 26.54 116.78 27.0625 116.274 27.2939C115.552 27.6234 115.012 27.7076 113.618 27.7076C112.522 27.7076 112.215 27.674 111.492 27.4749C110.925 27.3188 110.405 27.0251 110.027 26.6475C109.799 26.4187 109.503 25.8762 109.391 25.478C109.196 24.7859 109.069 23.7736 109.07 22.9189C109.074 21.0344 109.237 19.9951 109.651 19.2367C109.838 18.8931 110.286 18.3754 110.49 18.266C110.726 18.1393 111.073 17.9645 111.202 17.9076C111.343 17.8453 112.027 17.6857 112.334 17.6433C112.703 17.5924 114.15 17.5934 114.65 17.645ZM95.4007 23.4486C95.6758 23.4674 95.95 23.4935 96.0101 23.5064C96.0697 23.5194 96.2852 23.5418 96.4889 23.5562C96.6922 23.5706 96.8981 23.5886 96.946 23.5962C96.9939 23.6038 97.0479 23.6115 97.0666 23.6132C97.1084 23.6173 97.0675 24.8307 97.0048 25.4284C96.956 25.898 96.8089 26.4334 96.6661 26.6635C96.4798 26.963 95.947 27.3342 95.6083 27.4001C95.5539 27.4107 95.4211 27.4516 95.3136 27.491C94.9471 27.6251 94.1152 27.6799 92.6582 27.666C91.9038 27.6589 91.2086 27.6402 91.1129 27.6244C90.5644 27.5346 90.0216 27.3652 89.7182 27.189C89.507 27.0664 89.1684 26.6496 89.0238 26.3345C88.8354 25.9231 88.7866 25.0311 88.9372 24.7391C89.0025 24.6124 89.258 24.277 89.4187 24.1075C89.571 23.9468 90.264 23.6787 90.6919 23.6153C91.0672 23.5596 92.0087 23.4501 92.2882 23.4295C92.6861 23.4003 94.8922 23.4138 95.4007 23.4486Z" fill="black"/>
<path fill-rule="evenodd" clip-rule="evenodd" d="M92.4401 14.0617C92.4284 14.0722 92.1389 14.0925 91.7968 14.1067C91.4546 14.1209 91.1608 14.1405 91.1438 14.1502C91.1268 14.1599 90.9379 14.1811 90.7237 14.1973C90.51 14.2135 90.3215 14.235 90.305 14.2451C90.2889 14.2553 90.1404 14.2755 89.9759 14.2901C89.1353 14.3648 87.8494 14.6544 87.1081 14.936C86.9405 14.9997 86.7681 15.0624 86.7254 15.0753C86.5469 15.1293 86.5308 15.2594 86.5012 16.8845C86.4695 18.627 86.4629 18.5852 86.7672 18.6222C86.8673 18.6344 87.0554 18.6061 87.2387 18.5511C87.9134 18.3487 88.1841 18.2742 88.8941 18.096C89.7983 17.8691 90.7977 17.6562 91.3523 17.5723C92.3048 17.4281 94.4713 17.4557 94.9149 17.6175C95.0024 17.6495 95.2191 17.7083 95.3967 17.7482C95.7676 17.8318 96.0619 17.97 96.3849 18.2122C96.6208 18.3895 96.7658 18.6518 96.8838 19.1139C96.9604 19.4152 96.966 19.4536 96.9965 19.9111L97.0252 20.3401L96.6374 20.3084C95.0999 20.1827 93.3521 20.1321 92.5925 20.1913L91.3741 20.2862C90.1448 20.3822 88.6212 20.6981 87.8603 21.0149C86.8599 21.4314 85.897 22.1967 85.6215 22.7939C85.0552 24.0216 84.9363 25.5925 85.298 27.0582C85.4365 27.618 85.554 27.9343 85.746 28.2614C85.8126 28.3756 85.8674 28.4877 85.8674 28.5105C85.8674 28.6354 86.8878 29.5321 87.3914 29.8497C87.5229 29.9326 87.637 30.0154 87.6448 30.0337C87.6526 30.052 87.6853 30.067 87.7171 30.067C87.7488 30.067 87.9086 30.1269 88.0723 30.2001C88.2364 30.2732 88.5272 30.3786 88.7187 30.4343C88.9102 30.4899 89.1549 30.5649 89.2628 30.6009C89.3703 30.6368 89.7817 30.7212 90.177 30.7884C90.8931 30.9102 90.9005 30.9105 92.8976 30.9108C94.9149 30.9112 95.4481 30.8823 96.1624 30.7344C97.158 30.5282 97.6133 30.4049 97.9907 30.2392C98.7817 29.892 98.9824 29.7734 99.3798 29.4183C99.6327 29.1926 99.9797 28.837 100.092 28.6883C100.3 28.4123 100.752 27.4811 100.841 27.1448C100.891 26.9543 100.95 26.7661 100.972 26.7267C101.061 26.5651 101.215 25.4749 101.261 24.6771C101.295 24.0784 101.292 21.8097 101.255 21.1704C101.212 20.3986 101.111 19.6339 100.993 19.179C100.777 18.3452 100.656 18.0053 100.375 17.449C99.6693 16.0481 98.2053 14.8941 96.5107 14.4025C96.2304 14.3212 95.6636 14.2151 95.183 14.1539C95.075 14.1402 94.9379 14.1198 94.8783 14.1087C94.7307 14.0812 92.4667 14.0376 92.4401 14.0617ZM112.095 14.3141C111.46 14.346 111.307 14.3636 110.593 14.4856C109.941 14.597 109.53 14.7097 109.072 14.9031C108.748 15.0399 108.605 15.1153 108.174 15.3774C108.128 15.4058 107.969 15.5003 107.822 15.5877C107.51 15.7736 106.928 16.3568 106.547 16.8661C106.246 17.269 105.717 18.3027 105.717 18.488C105.717 18.5252 105.69 18.6091 105.656 18.6746C105.529 18.9167 105.283 20.0621 105.192 20.8217C105.111 21.5074 105.102 21.7642 105.12 23.008C105.145 24.845 105.232 25.3988 105.727 26.8986C105.913 27.4614 106.153 27.8925 106.617 28.4969C106.929 28.9041 107.558 29.521 107.807 29.6649C107.914 29.7271 108.012 29.7895 108.025 29.8035C108.065 29.8509 108.22 29.9358 108.612 30.1261C109.033 30.3304 109.275 30.4169 109.775 30.5414C109.949 30.5851 110.2 30.6503 110.332 30.6864C111.066 30.8878 112.17 30.9655 114.119 30.9528C115.405 30.9444 115.699 30.93 116.165 30.8529C117.117 30.6954 118.125 30.4015 118.69 30.1165C119.117 29.9009 119.32 29.7866 119.364 29.7368C119.388 29.71 119.574 29.5532 119.778 29.3883C120.239 29.015 120.431 28.8338 120.431 28.7725C120.431 28.7463 120.447 28.7249 120.468 28.7249C120.505 28.7249 120.928 28.1241 120.93 28.0682C120.931 28.0522 120.971 27.9938 121.019 27.9383C121.067 27.8828 121.146 27.7692 121.196 27.6859C121.307 27.4971 121.606 26.7646 121.606 26.682C121.606 26.6484 121.624 26.6024 121.645 26.5798C121.759 26.4592 122.034 24.9996 122.132 23.9951C122.18 23.5062 122.167 21.264 122.115 21.0189C122.102 20.9594 122.08 20.7841 122.065 20.6293C121.951 19.4739 121.597 18.2497 121.184 17.5889C121.129 17.5001 121.084 17.4137 121.084 17.3971C121.084 17.3803 120.98 17.229 120.853 17.0607C120.726 16.8924 120.564 16.6767 120.494 16.5815C120.424 16.4862 120.251 16.3012 120.11 16.1702C119.861 15.9385 119.329 15.5208 119.282 15.5208C119.27 15.5208 119.171 15.4615 119.063 15.389C118.763 15.1872 118.103 14.8898 117.59 14.7241C117.135 14.5775 116.392 14.4413 115.534 14.347C115.033 14.292 112.931 14.2719 112.095 14.3141ZM132.004 14.3286C131.995 14.3371 131.832 14.3563 131.64 14.3714C131.448 14.3864 131.164 14.4169 131.009 14.4391C130.853 14.4613 130.648 14.4903 130.553 14.5036C130.15 14.5597 129.345 14.8093 128.985 14.9898C128.598 15.1836 127.872 15.706 127.653 15.9485C127.433 16.1917 126.968 17.0689 126.881 17.404C126.789 17.7587 126.693 18.3628 126.657 18.8072C126.611 19.3899 126.622 30.6106 126.669 30.6574C126.713 30.7013 130.554 30.7063 130.598 30.6627C130.616 30.645 130.645 28.1124 130.662 25.0347C130.68 21.9569 130.707 19.3706 130.723 19.2872C130.786 18.9499 130.935 18.528 131.038 18.393C131.182 18.2067 131.503 17.9788 131.749 17.8892C132.251 17.7065 132.81 17.6498 133.904 17.6705C135.232 17.6956 135.585 17.7697 136 18.1106C136.395 18.4346 136.512 18.6957 136.567 19.3738C136.589 19.6476 136.611 22.2387 136.617 25.1317C136.623 28.0247 136.638 30.4532 136.651 30.5283C136.674 30.6548 136.691 30.6665 136.878 30.6848C137.216 30.7177 140.576 30.6971 140.611 30.6619C140.63 30.6438 140.65 28.1404 140.657 25.0989C140.664 22.0572 140.679 19.4601 140.691 19.3275C140.703 19.1949 140.745 18.9708 140.784 18.8296C140.823 18.6884 140.865 18.5297 140.878 18.4769C140.914 18.3178 141.297 17.9723 141.528 17.8899C142.222 17.6423 144.006 17.5815 145.063 17.7695C145.691 17.8812 146.215 18.2405 146.344 18.6492C146.557 19.3211 146.563 19.4754 146.59 25.2255C146.603 28.1939 146.63 30.6383 146.649 30.6574C146.706 30.7137 150.337 30.7327 150.48 30.6774L150.602 30.6302L150.582 24.8397C150.572 21.6549 150.551 18.942 150.536 18.811C150.413 17.7057 150.289 17.243 149.966 16.6675C149.682 16.1606 149.267 15.7282 148.743 15.3901C147.411 14.5322 146.247 14.2872 143.676 14.3233C142.946 14.3336 142.28 14.3531 142.196 14.3666C142.112 14.3801 141.946 14.4013 141.826 14.4137C141.306 14.4673 140.655 14.6029 140.084 14.7766C140.011 14.7986 139.746 14.919 139.496 15.0441C139.073 15.2551 139.016 15.272 138.714 15.2763C138.408 15.2806 138.359 15.2676 137.952 15.0719C137.279 14.7487 136.809 14.6088 135.95 14.4761C134.956 14.3226 134.737 14.3084 133.397 14.3107C132.639 14.3121 132.013 14.3201 132.004 14.3286ZM67.0173 14.531C66.8523 14.5648 66.72 14.6837 66.6055 14.9015C66.5576 14.9921 66.5071 15.076 66.4928 15.0879C66.4784 15.0998 66.3996 15.207 66.3174 15.326C66.2351 15.4451 66.1289 15.5891 66.0819 15.6461C66.0344 15.703 65.9173 15.8435 65.8215 15.9583C65.5695 16.2601 65.4794 16.3853 65.364 16.5923C65.3074 16.6935 65.2452 16.7763 65.2256 16.7763C65.206 16.7763 65.1903 16.8012 65.1903 16.8317C65.1903 16.8621 65.1512 16.9151 65.1033 16.9495C65.0554 16.9838 65.0162 17.0347 65.0162 17.0626C65.0162 17.0906 64.9866 17.1246 64.9509 17.1383C64.9148 17.152 64.8856 17.1914 64.8856 17.2259C64.8856 17.2604 64.8708 17.2951 64.853 17.303C64.7859 17.3325 64.015 18.299 64.015 18.3532C64.015 18.3669 63.9806 18.4157 63.9388 18.4616C63.8971 18.5072 63.8567 18.5541 63.8178 18.6023C63.5436 18.9538 63.315 19.259 63.1914 19.4379C63.016 19.6919 62.7417 19.9689 62.7222 19.9115C62.7148 19.8896 62.5511 19.6574 62.3587 19.3955C61.9569 18.8483 61.6713 18.4537 61.5773 18.3156C61.5412 18.2628 61.4315 18.1238 61.3335 18.0067C61.2356 17.8895 61.0597 17.6475 60.9431 17.469C60.8264 17.2904 60.7093 17.1248 60.6827 17.101C60.6562 17.0772 60.4799 16.8434 60.2914 16.5815C60.1029 16.3196 59.8483 15.9786 59.7251 15.8239C59.6023 15.6691 59.4356 15.4451 59.3551 15.326C59.275 15.207 59.1835 15.0837 59.1522 15.0522C59.0455 14.9442 58.8305 14.6117 58.8653 14.6087C58.8845 14.607 58.861 14.5889 58.8131 14.5684C58.7652 14.5479 57.6669 14.5298 56.3728 14.5281C54.5036 14.5257 54.0034 14.5367 53.942 14.5815C53.8728 14.6316 53.8702 14.6595 53.9163 14.8301C53.9777 15.0573 54.0221 15.1231 54.5736 15.8022C54.8057 16.0879 55.0808 16.4321 55.1848 16.5669C55.2889 16.7018 55.5309 17.0065 55.7224 17.2441C55.914 17.4816 56.1098 17.7302 56.1577 17.7965C56.2056 17.8628 56.2753 17.9477 56.3123 17.9852C56.445 18.1187 56.8264 18.5777 57.0562 18.8808C57.1842 19.05 57.4523 19.3812 57.6517 19.6167C58.0844 20.1282 58.0892 20.1339 58.2237 20.3262C58.282 20.4096 58.3408 20.4875 58.3543 20.4994C58.3673 20.5113 58.4361 20.599 58.5071 20.6942C58.5776 20.7895 58.6559 20.889 58.6808 20.9155C58.7056 20.9419 58.7835 21.0362 58.8536 21.1249C58.9237 21.2136 59.039 21.3478 59.11 21.4231C59.1814 21.4985 59.3194 21.6672 59.4177 21.7982C59.5157 21.9291 59.6062 22.046 59.6188 22.0579C59.6315 22.0698 59.7442 22.203 59.8692 22.3538C60.0646 22.5891 60.0894 22.6386 60.0428 22.7024C59.7821 23.0588 59.4534 23.4693 59.2889 23.6437C59.1796 23.7597 59.0573 23.9033 59.0168 23.9628C58.9768 24.0223 58.9115 24.1099 58.8719 24.1576C58.6124 24.4716 58.3996 24.7438 58.3996 24.7611C58.3996 24.7723 58.3552 24.8269 58.3016 24.8824C58.1919 24.9952 57.8863 25.3614 57.7975 25.486C57.7657 25.5305 57.673 25.6394 57.5912 25.7281C57.5093 25.8167 57.4419 25.9053 57.4419 25.9248C57.4419 25.9444 57.4175 25.9848 57.3875 26.0146C57.3574 26.0444 57.2743 26.1438 57.2025 26.2355C57.0166 26.4725 56.8224 26.7011 56.7428 26.7768C56.7053 26.8125 56.5708 26.9781 56.4446 27.1448C56.1982 27.4693 55.9518 27.7689 55.8073 27.9184C55.7581 27.9693 55.705 28.0449 55.6889 28.0865C55.6728 28.1281 55.6397 28.1621 55.6149 28.1621C55.5901 28.1621 55.5701 28.1913 55.5701 28.2271C55.5701 28.2628 55.5544 28.292 55.5357 28.292C55.5169 28.292 55.4665 28.351 55.4238 28.423C55.3811 28.4951 55.3032 28.6001 55.2514 28.6565C55.1992 28.7128 55.0991 28.8309 55.029 28.9189C54.9589 29.0068 54.8509 29.1351 54.7895 29.204C54.7277 29.2728 54.5993 29.4392 54.5036 29.5738C54.4078 29.7083 54.285 29.8655 54.2315 29.923C54.1775 29.9806 54.1335 30.0462 54.1335 30.0689C54.1335 30.0917 54.1179 30.1103 54.0992 30.1103C54.0352 30.1103 53.9159 30.3616 53.9159 30.4972C53.9159 30.5972 53.9416 30.6427 54.0138 30.6715C54.0682 30.6932 55.1478 30.707 56.455 30.7026C58.7369 30.6949 58.8 30.6925 58.8614 30.6088C58.8962 30.5616 59.0151 30.4218 59.1261 30.2981C59.2366 30.1745 59.3877 29.9872 59.4617 29.8819C59.5875 29.7036 59.9114 29.2717 60.0359 29.1174C60.0659 29.0801 60.1861 28.9327 60.3036 28.7899C60.4207 28.647 60.651 28.345 60.8151 28.1188C60.9792 27.8926 61.1385 27.6881 61.169 27.6643C61.2177 27.6263 61.3261 27.4932 61.5568 27.188C61.8807 26.7602 62.1219 26.4484 62.1428 26.4304C62.1567 26.4185 62.2773 26.2529 62.4109 26.0625C62.6804 25.6781 62.9315 25.3914 62.9986 25.3914C63.023 25.3914 63.1078 25.4914 63.1875 25.6136C63.2672 25.7358 63.4478 25.9807 63.5893 26.1577C63.7308 26.3348 63.9754 26.6682 64.133 26.8988C64.4233 27.3233 64.56 27.5074 64.7019 27.6643C64.8173 27.7925 65.1468 28.241 65.1468 28.2704C65.1468 28.2843 65.23 28.4069 65.3314 28.5428C65.4328 28.6787 65.5564 28.8488 65.6065 28.9208C65.6561 28.9929 65.7284 29.0903 65.7671 29.1373C65.9452 29.3526 66.1354 29.5988 66.2351 29.7423C66.2947 29.8285 66.3644 29.9222 66.3896 29.9505C66.4876 30.0615 66.7139 30.4095 66.7139 30.4497C66.7139 30.4731 66.774 30.5426 66.8476 30.6043L66.9816 30.7164L69.2744 30.7158C70.5355 30.7155 71.6098 30.7039 71.6612 30.6902C71.7334 30.6709 71.7587 30.625 71.7718 30.4899C71.7818 30.3838 71.7665 30.2927 71.7326 30.2589C71.7017 30.2282 71.6764 30.1928 71.6764 30.1804C71.6764 30.1679 71.612 30.0935 71.5336 30.0149C71.4553 29.9364 71.3626 29.8154 71.3269 29.7461C71.2916 29.6767 71.1349 29.4721 70.9786 29.2915C70.8223 29.1108 70.6365 28.8851 70.5651 28.7899C70.2913 28.4228 69.7846 27.7935 69.7519 27.7797C69.7328 27.7718 69.7175 27.7407 69.7175 27.7107C69.7175 27.6806 69.6762 27.6189 69.6257 27.5736C69.5752 27.5282 69.422 27.345 69.2853 27.1664C68.89 26.6508 68.651 26.346 68.3694 25.9975C68.1968 25.7831 68.0267 25.5666 67.8592 25.3481C67.7234 25.1696 67.5998 25.0137 67.585 25.0018C67.5515 24.9745 67.0552 24.3257 66.9969 24.2322C66.9729 24.194 66.9111 24.1188 66.8597 24.0652C66.7392 23.9395 66.3657 23.4569 66.3657 23.4269C66.3657 23.4143 66.3213 23.3567 66.2677 23.2991C65.9195 22.9264 65.6692 22.5691 65.6692 22.4444C65.6692 22.3954 65.7153 22.3381 65.778 22.3098C65.8376 22.2827 65.8868 22.244 65.8868 22.2239C65.8868 22.2037 65.9352 22.1453 65.9944 22.0942C66.0536 22.043 66.1559 21.9213 66.222 21.8239C66.3983 21.5633 66.6151 21.2905 66.8789 20.9973C67.1575 20.6878 67.178 20.6635 67.3699 20.4128C67.4518 20.3057 67.5319 20.2083 67.5475 20.1964C67.5628 20.1845 67.6625 20.0578 67.7682 19.915C67.874 19.7721 68.0377 19.5652 68.1317 19.4553C68.3215 19.2334 68.3455 19.204 68.6402 18.8327C68.7538 18.6898 68.873 18.5437 68.9053 18.508C68.937 18.4723 69.0689 18.3067 69.1978 18.14C69.3266 17.9733 69.5369 17.7103 69.6653 17.5556C69.7933 17.4008 69.9291 17.2352 69.967 17.1876C70.0044 17.1399 70.1158 17.0103 70.2138 16.8995C70.3117 16.7886 70.4119 16.6717 70.4358 16.6397C70.4597 16.6076 70.5372 16.5035 70.6082 16.4083C70.7531 16.2142 71.0996 15.7987 71.4322 15.4211C71.6629 15.1592 71.8005 14.8891 71.8044 14.6894C71.8066 14.5903 71.7852 14.5687 71.6655 14.5485C71.4618 14.5142 67.1784 14.4981 67.0173 14.531ZM76.2929 14.6076C76.2363 14.7128 76.2485 30.6022 76.305 30.6586C76.3525 30.7058 80.2332 30.7058 80.2807 30.6586C80.3238 30.616 80.3168 14.6187 80.2742 14.5759C80.2581 14.5599 79.3661 14.5409 78.2922 14.5338C76.3769 14.5212 76.3386 14.5226 76.2929 14.6076ZM156.173 14.5643C156.074 14.5816 156.018 14.6184 156.004 14.6766C155.993 14.7242 155.981 18.313 155.978 22.6516C155.974 29.9271 155.979 30.5457 156.045 30.6115C156.109 30.6745 156.312 30.6856 157.765 30.7058C158.671 30.7184 159.545 30.7147 159.706 30.6974L160 30.6662V14.5803L159.756 14.5518C159.46 14.5172 156.382 14.528 156.173 14.5643ZM114.65 17.645C115.903 17.7741 116.727 18.0995 117.257 18.6749C117.895 19.3666 118.07 20.0039 118.124 21.8415C118.193 24.1688 118.048 25.4767 117.65 26.1274C117.397 26.54 116.78 27.0625 116.274 27.2939C115.552 27.6234 115.012 27.7076 113.618 27.7076C112.522 27.7076 112.215 27.674 111.492 27.4749C110.925 27.3188 110.405 27.0251 110.027 26.6475C109.799 26.4187 109.503 25.8762 109.391 25.478C109.196 24.7859 109.069 23.7736 109.07 22.9189C109.074 21.0344 109.237 19.9951 109.651 19.2367C109.838 18.8931 110.286 18.3754 110.49 18.266C110.726 18.1393 111.073 17.9645 111.202 17.9076C111.343 17.8453 112.027 17.6857 112.334 17.6433C112.703 17.5924 114.15 17.5934 114.65 17.645ZM95.4007 23.4486C95.6758 23.4674 95.95 23.4935 96.0101 23.5064C96.0697 23.5194 96.2852 23.5418 96.4889 23.5562C96.6922 23.5706 96.8981 23.5886 96.946 23.5962C96.9939 23.6038 97.0479 23.6115 97.0666 23.6132C97.1084 23.6173 97.0675 24.8307 97.0048 25.4284C96.956 25.898 96.8089 26.4334 96.6661 26.6635C96.4798 26.963 95.947 27.3342 95.6083 27.4001C95.5539 27.4107 95.4211 27.4516 95.3136 27.491C94.9471 27.6251 94.1152 27.6799 92.6582 27.666C91.9038 27.6589 91.2086 27.6402 91.1129 27.6244C90.5644 27.5346 90.0216 27.3652 89.7182 27.189C89.507 27.0664 89.1684 26.6496 89.0238 26.3345C88.8354 25.9231 88.7866 25.0311 88.9372 24.7391C89.0025 24.6124 89.258 24.277 89.4187 24.1075C89.571 23.9468 90.264 23.6787 90.6919 23.6153C91.0672 23.5596 92.0087 23.4501 92.2882 23.4295C92.6861 23.4003 94.8922 23.4138 95.4007 23.4486Z" fill="#89898A"/>
<path fill-rule="evenodd" clip-rule="evenodd" d="M20.3944 0.037521C20.3838 0.0467422 19.9344 0.06657 19.3957 0.0815924C15.9513 0.177744 12.3453 0.733615 10.0802 1.51759C7.83985 2.293 6.08042 3.37708 4.59398 4.89801C3.67161 5.8417 2.99366 6.78685 2.38393 7.97907C1.40057 9.90159 0.903665 11.8263 0.442327 15.4999C0.11219 18.1283 5.45708e-05 20.0305 0.00715008 22.8812C0.0156821 26.2968 0.29898 29.424 0.899356 32.7301C1.35564 35.2428 2.23636 37.2494 3.69468 39.0988C4.15907 39.6877 4.20038 39.7345 4.71704 40.2581C6.56409 42.13 8.77032 43.3801 11.3643 44.0243C12.6841 44.352 14.7105 44.6481 16.5662 44.7845C18.3503 44.9157 20.7973 44.9819 23.8576 44.9819C30.0131 44.9819 33.8794 44.3498 36.9604 42.8397C38.3181 42.1743 39.3806 41.415 40.4692 40.3324C42.0453 38.7649 43.0258 37.1584 43.7744 34.9164C44.6093 32.4172 44.9654 30.2121 45.0611 26.9506C45.0772 26.4149 45.096 25.966 45.1034 25.953C45.129 25.9068 45.1878 22.9251 45.1878 21.6473C45.1878 18.7724 45.0568 16.6403 44.7512 14.5376C44.3568 11.8232 43.8518 10.016 43.0125 8.31337C42.292 6.85192 41.5083 5.77381 40.365 4.67099C39.335 3.67752 38.2116 2.90186 36.8298 2.23018C34.4789 1.08735 31.9254 0.475551 28.7113 0.284979C27.3526 0.204455 27.2237 0.197875 26.143 0.15402C25.5564 0.130209 24.8708 0.100208 24.6194 0.0873935C24.0402 0.0577817 20.4201 0.0150957 20.3944 0.037521ZM24.4515 14.1594C25.5746 14.344 26.541 14.8617 27.3513 15.7131C27.8973 16.2868 28.2517 16.8734 28.4909 17.5995C28.716 18.2829 28.7113 18.1219 28.7113 25.138C28.7113 31.6118 28.7105 31.6703 28.6242 31.7561C28.5397 31.8401 28.4792 31.8426 26.5614 31.8426C24.7436 31.8426 24.5782 31.8366 24.4938 31.7669L24.4021 31.6911L24.3896 25.89C24.378 20.4426 24.3724 20.073 24.2986 19.8291C24.0094 18.8733 23.2533 18.1303 22.3123 17.8771C22.0518 17.807 21.683 17.8005 17.6763 17.7954C15.2821 17.7923 13.272 17.8064 13.2095 17.8267C13.1469 17.847 13.0735 17.9122 13.0463 17.9717C13.0099 18.051 12.9967 19.8882 12.9967 24.8746C12.9967 31.6118 12.996 31.6702 12.9097 31.7561C12.8252 31.8401 12.7646 31.8426 10.8517 31.8426C9.1382 31.8426 8.86804 31.8339 8.78394 31.7752L8.68717 31.7079V22.9869C8.68717 14.3158 8.68765 14.2656 8.7745 14.1792C8.86121 14.093 8.9111 14.0924 16.4685 14.095C22.8466 14.0972 24.136 14.1075 24.4515 14.1594ZM36.3964 14.1992L36.5033 14.3054V31.6145L36.4131 31.7286L36.3229 31.8426H32.3307L32.2405 31.7286L32.1502 31.6145V14.3054L32.2571 14.1992L32.3639 14.0929H36.2896L36.3964 14.1992ZM20.8832 21.0047C20.9595 21.0733 20.9628 21.2966 20.9628 26.3729C20.9628 31.6118 20.9619 31.6704 20.8758 31.7561C20.7911 31.8402 20.7307 31.8426 18.6992 31.8426C16.6678 31.8426 16.6073 31.8402 16.5227 31.7561C16.4366 31.6704 16.4356 31.6118 16.4356 26.3878C16.4356 21.1639 16.4366 21.1052 16.5227 21.0196C16.6074 20.9354 16.6678 20.933 18.7067 20.933C20.5968 20.933 20.8115 20.9401 20.8832 21.0047Z" fill="black"/>
<path fill-rule="evenodd" clip-rule="evenodd" d="M20.3944 0.037521C20.3838 0.0467422 19.9344 0.06657 19.3957 0.0815924C15.9513 0.177744 12.3453 0.733615 10.0802 1.51759C7.83985 2.293 6.08042 3.37708 4.59398 4.89801C3.67161 5.8417 2.99366 6.78685 2.38393 7.97907C1.40057 9.90159 0.903665 11.8263 0.442327 15.4999C0.11219 18.1283 5.45708e-05 20.0305 0.00715008 22.8812C0.0156821 26.2968 0.29898 29.424 0.899356 32.7301C1.35564 35.2428 2.23636 37.2494 3.69468 39.0988C4.15907 39.6877 4.20038 39.7345 4.71704 40.2581C6.56409 42.13 8.77032 43.3801 11.3643 44.0243C12.6841 44.352 14.7105 44.6481 16.5662 44.7845C18.3503 44.9157 20.7973 44.9819 23.8576 44.9819C30.0131 44.9819 33.8794 44.3498 36.9604 42.8397C38.3181 42.1743 39.3806 41.415 40.4692 40.3324C42.0453 38.7649 43.0258 37.1584 43.7744 34.9164C44.6093 32.4172 44.9654 30.2121 45.0611 26.9506C45.0772 26.4149 45.096 25.966 45.1034 25.953C45.129 25.9068 45.1878 22.9251 45.1878 21.6473C45.1878 18.7724 45.0568 16.6403 44.7512 14.5376C44.3568 11.8232 43.8518 10.016 43.0125 8.31337C42.292 6.85192 41.5083 5.77381 40.365 4.67099C39.335 3.67752 38.2116 2.90186 36.8298 2.23018C34.4789 1.08735 31.9254 0.475551 28.7113 0.284979C27.3526 0.204455 27.2237 0.197875 26.143 0.15402C25.5564 0.130209 24.8708 0.100208 24.6194 0.0873935C24.0402 0.0577817 20.4201 0.0150957 20.3944 0.037521ZM24.4515 14.1594C25.5746 14.344 26.541 14.8617 27.3513 15.7131C27.8973 16.2868 28.2517 16.8734 28.4909 17.5995C28.716 18.2829 28.7113 18.1219 28.7113 25.138C28.7113 31.6118 28.7105 31.6703 28.6242 31.7561C28.5397 31.8401 28.4792 31.8426 26.5614 31.8426C24.7436 31.8426 24.5782 31.8366 24.4938 31.7669L24.4021 31.6911L24.3896 25.89C24.378 20.4426 24.3724 20.073 24.2986 19.8291C24.0094 18.8733 23.2533 18.1303 22.3123 17.8771C22.0518 17.807 21.683 17.8005 17.6763 17.7954C15.2821 17.7923 13.272 17.8064 13.2095 17.8267C13.1469 17.847 13.0735 17.9122 13.0463 17.9717C13.0099 18.051 12.9967 19.8882 12.9967 24.8746C12.9967 31.6118 12.996 31.6702 12.9097 31.7561C12.8252 31.8401 12.7646 31.8426 10.8517 31.8426C9.1382 31.8426 8.86804 31.8339 8.78394 31.7752L8.68717 31.7079V22.9869C8.68717 14.3158 8.68765 14.2656 8.7745 14.1792C8.86121 14.093 8.9111 14.0924 16.4685 14.095C22.8466 14.0972 24.136 14.1075 24.4515 14.1594ZM36.3964 14.1992L36.5033 14.3054V31.6145L36.4131 31.7286L36.3229 31.8426H32.3307L32.2405 31.7286L32.1502 31.6145V14.3054L32.2571 14.1992L32.3639 14.0929H36.2896L36.3964 14.1992ZM20.8832 21.0047C20.9595 21.0733 20.9628 21.2966 20.9628 26.3729C20.9628 31.6118 20.9619 31.6704 20.8758 31.7561C20.7911 31.8402 20.7307 31.8426 18.6992 31.8426C16.6678 31.8426 16.6073 31.8402 16.5227 31.7561C16.4366 31.6704 16.4356 31.6118 16.4356 26.3878C16.4356 21.1639 16.4366 21.1052 16.5227 21.0196C16.6074 20.9354 16.6678 20.933 18.7067 20.933C20.5968 20.933 20.8115 20.9401 20.8832 21.0047Z" fill="#FF6200"/>
<path d="M36.1934 13.9766H32.4234C32.262 13.9766 32.1314 14.1093 32.1314 14.2728V32.0526C32.1314 32.2148 32.262 32.3474 32.4234 32.3474H36.1934C36.3535 32.3474 36.486 32.2148 36.486 32.0526V14.2728C36.486 14.1093 36.3535 13.9766 36.1934 13.9766ZM23.3211 13.9766H8.96065C8.7992 13.9766 8.66943 14.1093 8.66943 14.2728V32.0526C8.66943 32.2148 8.7992 32.3474 8.96065 32.3474H12.7315C12.892 32.3474 13.0251 32.2148 13.0251 32.0526V18.0981C13.0251 17.9369 13.1548 17.8033 13.3162 17.8033H21.4391C23.7233 17.8033 24.3717 19.6116 24.3717 20.7782V32.0526C24.3717 32.2148 24.5029 32.3474 24.6643 32.3474H28.4329C28.5934 32.3474 28.725 32.2148 28.725 32.0526V19.4396C28.725 18.3991 28.604 16.9031 27.3052 15.5863C25.9465 14.2117 24.7069 13.9766 23.3211 13.9766Z" fill="white"/>
<path d="M20.6796 20.9297H16.7207C16.5593 20.9297 16.4268 21.0624 16.4268 21.225V32.051C16.4268 32.2127 16.5593 32.3454 16.7207 32.3454H20.6796C20.8397 32.3454 20.9708 32.2127 20.9708 32.051V21.225C20.9708 21.0624 20.8397 20.9297 20.6796 20.9297Z" fill="white"/>
</g>
<defs>
<clipPath id="clip0_3663_516">
<rect width="160" height="45" fill="white"/>
</clipPath>
</defs>
</svg>
