<svg width="137" height="45" viewBox="0 0 137 45" fill="none" xmlns="http://www.w3.org/2000/svg">
<g clip-path="url(#clip0_2503_971)">
<path d="M31.6054 31.0126C31.8057 31.0336 32.0063 30.9746 32.1636 30.8484C32.3209 30.7223 32.4223 30.539 32.4458 30.3384V27.8105C32.405 27.3567 32.067 27.017 31.6054 26.9679H6.05683C5.84101 26.9888 5.63915 27.0843 5.48583 27.238C5.33251 27.3917 5.23727 27.5941 5.21642 27.8105V30.3384C5.26735 30.7144 5.60606 31.054 6.05683 31.0126H31.6054ZM31.6054 4.04753C32.067 4.01881 32.405 3.67984 32.4458 3.20489V0.676984C32.405 0.320778 32.067 -0.0181914 31.6054 0.00287453H6.05683C5.60606 -0.0181914 5.26671 0.321417 5.21642 0.676984V3.20489C5.26735 3.67984 5.60606 4.01881 6.05683 4.04753H31.6054ZM42.6988 31.0126C43.0974 31.0547 43.4354 30.7157 43.3711 30.3384V0.677622C43.4354 0.321417 43.0974 -0.017553 42.6988 0.00351289H39.5052C39.0475 -0.017553 38.7081 0.322055 38.6648 0.677622V30.3384C38.689 30.5388 38.7905 30.7216 38.9477 30.8476C39.1048 30.9737 39.305 31.0329 39.5052 31.0126H42.6988ZM117.664 21.238H105.394C104.924 21.2239 104.628 21.5316 104.386 21.9121L103.377 24.1029C103.14 24.4713 103.392 24.9098 103.881 24.9456H119.513L122.202 30.507C122.357 30.8357 122.75 31.0547 123.043 31.0126H126.573C127.039 31.0547 127.039 30.6155 126.909 30.3384L112.454 0.508457C112.245 0.157358 111.851 -0.0181914 111.613 0.00287453H108.924C108.656 -0.0181914 108.393 0.0692641 108.252 0.508457L93.4604 30.3384C93.1172 30.7476 93.4228 31.0547 93.6284 31.0126H96.9901C97.5822 31.0547 97.8445 30.791 97.9986 30.507L110.269 5.90197L117.664 21.238ZM28.4118 8.09283C28.7079 7.80556 28.6919 7.32616 28.4118 7.08166L26.5629 5.39639C26.242 5.03571 25.7639 5.05231 25.5544 5.39639L8.74615 23.4288C8.41762 23.7537 8.43418 24.2344 8.74615 24.44L10.5951 26.2938C10.8841 26.5242 11.3629 26.507 11.6035 26.1253L28.4118 8.09283ZM87.7455 0.00287453C88.1829 -0.0181914 88.521 0.321417 88.586 0.676984V30.3378C88.521 30.7151 88.1829 31.054 87.7455 31.0119H84.552C84.1324 31.054 83.7937 30.7151 83.7116 30.3378V7.08166L74.1309 18.373C73.9195 18.606 73.4413 18.6392 73.1224 18.373L71.6096 16.6877C71.22 16.3928 71.1875 15.9134 71.4415 15.6766L84.2158 0.677622C84.6685 0.202043 85.0193 -0.017553 85.3924 0.00351289L87.7455 0.00287453ZM55.6412 0.677622L72.1132 19.7212C72.394 20.0978 72.3615 20.5773 72.1132 20.9009L70.4324 22.5862C70.1402 22.9117 69.662 22.8786 69.4239 22.5862L55.305 6.23839V30.3378C55.3413 30.7151 55.0032 31.054 54.6327 31.0119H51.4391C50.9533 31.054 50.614 30.7151 50.5987 30.3378V0.677622C50.614 0.321417 50.9533 -0.017553 51.4391 0.00351289H54.6327C54.9478 -0.017553 55.4444 0.496328 55.6412 0.677622ZM0.00585938 35.2257H130.438V36.2369H0.00585938V35.2257ZM58.1624 41.7983C58.0733 41.5544 57.9364 41.0425 57.1539 41.1242C56.7623 41.0431 56.1269 41.3463 56.1454 42.6409C56.1269 43.444 56.4332 44.1775 57.1539 44.1577C57.6906 44.1775 58.0376 43.88 58.1624 43.315H59.0028C58.864 44.3109 58.2534 44.9997 57.1539 45.0003C56.0321 44.9997 55.2114 44.1839 55.1369 42.6409C55.2114 41.0304 56.0792 40.2209 57.1539 40.2816C58.475 40.2209 58.9958 41.1567 59.0028 41.7983H58.1624ZM64.8857 43.9892H67.0708V44.8318H64.0453V40.2816H64.8857V43.9892ZM74.8026 41.1242H72.6175V42.1354H74.6345V42.978H72.6175V44.1577H74.9713V44.8318H71.7777V40.2816H74.8026V41.1242ZM80.3493 44.8318H79.3408L80.8535 40.2816H82.0307L83.5428 44.8318H82.535L82.1988 43.9892H80.6861L80.3493 44.8318ZM89.2583 40.2816H91.4434C92.527 40.3409 92.7358 41.2321 92.788 41.6298C92.7358 42.1232 92.4964 42.5528 92.1157 42.6409C92.4251 42.8688 92.6168 43.008 92.6199 43.8206C92.6168 44.519 92.6168 44.6837 92.788 44.8318H91.7795C91.7541 44.6645 91.7184 44.4309 91.7795 43.9892C91.7184 43.3431 91.6821 43.1031 90.9391 43.1465H90.0987V44.8318H89.2583V40.2816ZM103.041 44.8318H102.201V41.1242L101.36 44.8318H100.352L99.5113 41.1242V44.8318H98.6709V40.2816H100.016L100.856 43.9892L101.696 40.2816H103.041V44.8318ZM110.269 44.8318H109.26L110.773 40.2816H111.949L113.462 44.8318H112.454L112.118 43.9892H110.605L110.269 44.8318ZM120.69 43.9892H122.707V44.8318H119.681V40.2816H120.69V43.9892ZM130.943 44.8318H129.934V41.1242H128.758V40.2816H132.287V41.1242H130.943V44.8318ZM132.119 33.709H134.136V34.046H133.296V36.2369H132.96V34.046H132.119V33.709ZM136.658 36.2369V34.7202C136.593 34.671 136.6 34.3518 136.658 34.046L135.817 36.2369H135.481L134.809 34.046C134.835 34.3518 134.842 34.671 134.809 34.7202V36.2369H134.472V33.709H134.977L135.649 35.8998L136.489 33.709H136.994V36.2369H136.658Z" fill="#6E6E6E"/>
<path d="M80.8535 43.1473H82.0307L81.3578 41.2935L80.8535 43.1473ZM91.1065 42.3047C91.6102 42.3392 91.8374 42.1687 91.7789 41.7991C91.8374 41.4799 91.7356 41.1256 91.2746 41.125H90.098V42.3047H91.1065ZM110.773 43.1473H111.949L111.277 41.2935L110.773 43.1473Z" fill="#6E6E6E"/>
</g>
<defs>
<clipPath id="clip0_2503_971">
<rect width="137" height="45" fill="white"/>
</clipPath>
</defs>
</svg>
