<svg width="222" height="45" viewBox="0 0 222 45" fill="none" xmlns="http://www.w3.org/2000/svg">
<path fill-rule="evenodd" clip-rule="evenodd" d="M1.30471 15.3486C3.04919 16.1042 4.41469 18.0524 4.96776 22.6747C9.03821 14.8547 13.6594 8.54712 8.77648 0C14.3865 6.48288 17.236 13.8954 11.2766 22.966C7.70114 28.4292 5.55044 33.2564 6.45051 37.7604C2.00345 35.612 -0.962049 32.0935 0.287391 26.9192C1.30471 22.7315 2.81588 18.982 1.30471 15.3486ZM5.25792 8.19657C3.48501 8.19657 2.03069 9.62129 2.03069 11.3942C2.03069 13.1671 3.48501 14.6214 5.25792 14.6214C7.03082 14.6214 8.48514 13.1683 8.48514 11.3942C8.48514 9.6201 7.03082 8.19657 5.25792 8.19657ZM160.724 6.94713H162.119V33.3997H173.719V34.7084H160.724V6.94713ZM176.421 6.94713H177.818V33.3997H189.416V34.7084H176.421V6.94713ZM139.88 6.94713H155.142V7.93484H141.044V20.2315H154.766V21.3068H141.044V33.4874H155.142V34.7084H139.88V6.94713ZM192.816 6.94713H208.108V7.93484H193.979V20.2315H207.701V21.3068H193.979V33.4874H208.108V34.7084H192.816V6.94713ZM118.484 6.94713H125.666C129.24 6.94713 131.798 7.41256 133.339 8.31264C136.131 9.94105 136.45 12.4991 136.45 16.0165C136.45 18.2549 135.113 20.8426 133.573 22.4698C132.002 24.0982 129.386 24.3019 127.177 24.3292L134.764 34.7084H133.281L124.649 23.1081H125.464C128.311 23.1081 130.259 22.8464 131.334 22.3537C133.661 21.2488 134.822 18.3993 134.822 15.7252C134.822 13.6609 134.007 10.3769 132.322 9.15586C131.103 8.2546 129.067 7.8472 126.218 7.8472H119.794V34.7084H118.486V6.94713H118.484ZM97.0024 6.94713V25.1167C97.0024 27.6452 97.4086 29.5922 98.2518 30.9293C99.4432 32.8775 102.264 33.8368 104.589 33.8368C106.711 33.8368 109.24 32.9923 110.432 31.3083C111.42 29.9108 111.915 27.8477 111.915 25.1155V6.94713H113.282V23.8069C113.282 27.2366 113.049 29.8528 111.741 31.6553C109.997 34.0097 107.613 35.2011 104.589 35.2011C101.653 35.2011 99.2988 34.0973 97.5543 31.8886C96.1 30.0872 95.4036 27.3823 95.4036 23.8069V6.94713H97.0024ZM83.5428 7.93603H76.4784V6.94832H92.3801V7.93603H85.2577V34.7096H83.5428V7.93603ZM24.6758 6.94713H27.1178L45.8689 32.4701V6.94713H47.4381V34.7084H45.7516L26.1301 8.10893V34.7084H24.6758V6.94713ZM213.981 2.87786H212.469V2.26676H216.133V2.87786H214.62V7.61626H213.982L213.981 2.87786ZM218.922 7.61626L217.412 3.10998H217.382L217.412 3.34211V7.61508H216.771V2.26558H217.732L219.185 6.68422L220.64 2.26558H221.57V7.61508H220.959V3.10998L219.446 7.61626H218.922ZM16.1298 43.4592H18.862C18.7163 43.9519 18.1645 44.3593 17.2052 44.5926C16.2743 44.8543 15.0545 45 13.5421 45C11.652 45 10.2284 44.8247 9.26915 44.4469C8.30868 44.0976 7.81483 43.6049 7.81483 42.9346C7.81483 42.1802 8.33829 41.6271 9.38403 41.2789C10.431 40.9023 11.7965 40.7258 13.4545 40.7258C15.1409 40.7258 16.42 40.8715 17.3212 41.1629C18.1929 41.4246 18.6583 41.774 18.746 42.2086H16.0422C15.9261 41.9777 15.6644 41.8012 15.257 41.6863C14.8496 41.5714 14.2977 41.5134 13.6002 41.5134C12.7273 41.5134 12.0594 41.6295 11.5655 41.8604C11.0421 42.0937 10.8099 42.4431 10.8099 42.9085C10.7815 43.2851 11.0421 43.6073 11.5359 43.8382C12.0298 44.0999 12.7569 44.2148 13.6582 44.2148C14.3853 44.2148 14.9657 44.1295 15.3731 43.9839C15.7816 43.8666 16.0422 43.6629 16.1298 43.4592ZM36.944 45C35.0254 45 33.5723 44.7963 32.5549 44.3889C31.5376 44.0123 31.0142 43.4865 31.0142 42.8481C31.0142 42.2074 31.5376 41.7147 32.5549 41.3073C33.5723 40.9284 35.0254 40.7247 36.944 40.7247C38.8625 40.7247 40.3453 40.9284 41.3342 41.3073C42.3503 41.7147 42.8454 42.2074 42.8454 42.8481C42.8454 43.4865 42.3515 44.0111 41.3342 44.3889C40.3453 44.7963 38.8625 45 36.944 45ZM36.944 44.2136C37.9329 44.2136 38.6588 44.0976 39.1539 43.837C39.6477 43.6061 39.881 43.2839 39.881 42.8493C39.881 42.4419 39.6489 42.1233 39.1539 41.8592C38.66 41.6283 37.9329 41.5122 36.944 41.5122C35.9847 41.5122 35.2587 41.6283 34.7637 41.8592C34.2698 42.0925 34.0081 42.4123 34.0081 42.8493C34.0081 43.3147 34.2698 43.6333 34.7637 43.8666C35.2575 44.0976 35.9847 44.2136 36.944 44.2136ZM55.1704 43.5753H57.9606C57.9606 43.7482 58.1347 43.8951 58.5421 44.0407C58.9199 44.1568 59.5014 44.2136 60.3162 44.2136C61.0138 44.2136 61.5372 44.1864 61.8854 44.0976C62.2348 44.0395 62.4089 43.9247 62.4089 43.7778C62.4089 43.6617 62.2348 43.5445 61.915 43.458C61.5668 43.3704 60.7532 43.2543 59.415 43.1667C57.8446 43.0506 56.8284 42.905 56.305 42.7013C55.8111 42.5284 55.579 42.2643 55.579 41.9173C55.5494 41.5383 55.9852 41.2185 56.8296 41.0148C57.6717 40.8419 58.8643 40.7235 60.3754 40.7235C61.7125 40.7235 62.7879 40.8419 63.573 41.0728C64.3878 41.2765 64.7941 41.5679 64.8237 41.9445H62.2052C62.1471 41.7988 61.9731 41.7136 61.6237 41.6247C61.1529 41.546 60.6763 41.5072 60.199 41.5087C59.6175 41.5087 59.1828 41.5359 58.8619 41.6247C58.5421 41.6828 58.3965 41.7704 58.3965 41.8865C58.3965 42.0025 58.5421 42.1198 58.8039 42.1778C59.094 42.2631 59.7335 42.3211 60.6928 42.3815C62.4953 42.5272 63.7164 42.6705 64.3263 42.8742C64.9078 43.0495 65.2287 43.3112 65.2287 43.6309C65.2287 44.068 64.8213 44.3877 64.0077 44.6187C63.1645 44.852 61.9434 44.9976 60.2866 44.9976C58.7162 44.9976 57.4668 44.852 56.5655 44.6187C55.6643 44.3889 55.2 44.0395 55.1704 43.5753ZM83.8045 44.8839L80.897 42.0037H80.839V44.8839H78.0772V40.8431H81.9724L84.7626 43.6049L87.5528 40.8431H91.4196V44.8839H88.6578V42.0037H88.5998L85.6935 44.8839H83.8045ZM107.729 42.4419H113.428V43.1987H107.729V44.0987H114.357V44.8851H104.967V40.8443H114.182V41.6283H107.729V42.4419ZM129.502 41.6271H125.956V40.8431H135.782V41.6271H132.264V44.8839H129.502V41.6271ZM148.282 40.8431H151.014V44.8839H148.282V40.8431ZM172.351 43.4592H175.084C174.911 43.9519 174.358 44.3593 173.428 44.5926C172.498 44.8543 171.277 45 169.764 45C167.874 45 166.451 44.8247 165.492 44.4469C164.504 44.0976 164.039 43.6049 164.039 42.9346C164.039 42.1802 164.561 41.6271 165.607 41.2789C166.655 40.9023 168.019 40.7258 169.678 40.7258C171.334 40.7258 172.644 40.8715 173.516 41.1629C174.416 41.4246 174.88 41.774 174.938 42.2086H172.237C172.149 41.9777 171.887 41.8012 171.48 41.6863C171.072 41.5714 170.492 41.5134 169.793 41.5134C168.949 41.5134 168.283 41.6295 167.757 41.8604C167.265 42.0937 167.001 42.4431 167.001 42.9085C167.001 43.2851 167.234 43.6073 167.729 43.8382C168.251 44.0999 168.948 44.2148 169.88 44.2148C170.606 44.2148 171.187 44.1295 171.593 43.9839C172.002 43.8666 172.264 43.6629 172.351 43.4592ZM187.118 43.5753H189.91C189.91 43.7482 190.083 43.8951 190.463 44.0407C190.868 44.1568 191.451 44.2136 192.264 44.2136C192.932 44.2136 193.456 44.1864 193.805 44.0976C194.154 44.0395 194.327 43.9247 194.327 43.7778C194.327 43.6617 194.182 43.5445 193.832 43.458C193.513 43.3704 192.699 43.2543 191.362 43.1667C189.791 43.0506 188.746 42.905 188.251 42.7013C187.758 42.5284 187.496 42.2643 187.496 41.9173C187.496 41.5383 187.904 41.2185 188.775 41.0148C189.617 40.8419 190.809 40.7235 192.292 40.7235C193.658 40.7235 194.734 40.8419 195.519 41.0728C196.305 41.2765 196.71 41.5679 196.74 41.9445H194.124C194.094 41.7988 193.89 41.7136 193.571 41.6247C193.1 41.546 192.623 41.5072 192.146 41.5087C191.566 41.5087 191.1 41.5359 190.809 41.6247C190.489 41.6828 190.316 41.7704 190.316 41.8865C190.316 42.0025 190.462 42.1198 190.751 42.1778C191.042 42.2631 191.653 42.3211 192.641 42.3815C194.442 42.5272 195.634 42.6705 196.245 42.8742C196.856 43.0495 197.177 43.3112 197.177 43.6309C197.177 44.068 196.74 44.3877 195.925 44.6187C195.11 44.852 193.862 44.9976 192.203 44.9976C190.635 44.9976 189.414 44.852 188.483 44.6187C187.584 44.3889 187.118 44.0395 187.118 43.5753ZM69.3572 23.5155L62.9619 7.84839L56.5087 23.5155H69.3572ZM62.1187 6.94713H64.0373L75.6079 34.7084H74.3005L70.4041 24.9699H55.4618L51.5654 34.7084H50.49L62.1187 6.94713Z" fill="#6E6E6E"/>
</svg>
