<svg width="48" height="53" viewBox="0 0 48 53" fill="none" xmlns="http://www.w3.org/2000/svg">
<g clip-path="url(#clip0_3325_1462)">
<path d="M6.54548 15.7679C6.54548 15.7679 6.76366 15.7679 6.76366 15.987C6.76366 15.987 6.54548 15.987 6.54548 16.206C-3.70907 25.4043 -1.09089 41.3919 9.8182 48.8382C20.9455 56.5035 36 53.2184 44.9455 44.02C45.3818 43.582 44.5091 43.144 44.2909 43.582C42.3273 45.3341 39.9273 47.0861 37.5273 48.1812C35.7818 47.3051 35.1273 45.115 35.1273 43.363C35.1273 42.0489 35.5637 40.9539 36.2182 39.8589C36.4364 39.4208 36.8728 38.7638 37.3091 38.3258C37.5273 38.1068 37.7455 37.8878 37.9637 37.6688L38.1818 37.4498C40.1455 39.4208 41.8909 41.3919 43.6364 43.363C43.8546 43.582 44.7273 43.363 44.5091 43.144C41.2364 38.1068 37.3091 33.7266 32.7273 29.7845C36.8727 26.9374 40.1455 22.9952 43.2 19.0531C45.8182 15.5489 49.0909 10.9498 48.2182 6.13158C47.1273 1.97042 43.6364 -0.219659 39.7091 -0.000651225C35.1273 0.437365 32.0728 3.9415 30.1091 7.66464C27.7091 12.4828 26.8364 18.396 22.9091 22.1192C21.6 21.2432 20.0728 20.3671 18.7637 19.4911C15.4909 17.52 11.5637 15.1109 7.85457 14.2349C6.98184 14.2349 5.45457 15.1109 6.54548 15.7679ZM4.58184 39.6398C3.05457 36.5737 2.40002 33.5076 2.6182 30.2225C2.83639 30.0035 3.27275 30.0035 3.49093 30.0035C4.14548 30.0035 4.80002 30.0035 5.45457 30.4415C6.98184 31.0985 7.85457 32.6316 8.50911 34.1646C8.94548 35.4787 9.16366 37.0117 8.29093 38.3258C7.63639 39.4208 6.3273 40.0779 5.0182 39.6398C4.80002 39.4208 4.80002 39.4208 4.58184 39.6398ZM31.2 10.5117C32.9455 6.13158 37.3091 -0.657676 42.9818 2.18943C45.3818 3.50348 46.2546 6.35059 45.8182 8.97869C45.6 9.85472 45.3818 10.7308 45.1637 11.6068C44.9455 11.3878 44.7273 11.3878 44.7273 11.1688C44.5091 10.9498 44.2909 10.7308 44.0728 10.7308C43.8546 10.7308 43.8546 10.5117 43.6364 10.5117C43.4182 10.2927 43.4182 10.2927 43.2 10.2927C42.9818 10.0737 42.3273 10.5117 42.5455 10.7308C42.7637 10.9498 42.9818 11.1688 43.2 11.3878C43.4182 11.6068 43.6364 11.8258 43.8546 11.8258C44.0728 12.0448 44.5091 12.2638 44.7273 12.2638C44.2909 13.5779 43.4182 14.6729 42.7637 15.987C42.3273 15.7679 41.8909 15.5489 41.4546 15.1109C41.2364 14.8919 40.8 14.6729 40.5818 14.4539C40.3637 14.2349 39.9273 14.0159 39.7091 14.0159C39.4909 14.0159 39.2728 14.0159 39.2728 14.0159C39.2728 14.0159 39.0546 14.2349 39.2728 14.4539C39.4909 14.6729 39.9273 14.8919 40.1455 15.1109C40.3637 15.3299 40.8 15.5489 41.0182 15.5489C41.4546 15.7679 42.1091 15.987 42.5455 16.425C41.6728 17.739 40.8 19.0531 39.9273 20.1481C38.6182 19.0531 37.0909 17.958 35.7818 16.863C35.3455 16.425 34.4728 17.082 34.9091 17.52C36.4364 18.615 37.9637 19.4911 39.4909 20.5861C37.0909 23.6522 34.4727 26.4993 31.6364 29.3465C30.5455 28.4704 29.4546 27.3754 28.1455 26.4993C26.8364 25.4043 25.5273 24.5283 24 23.4332C28.1455 19.9291 29.4546 14.8919 31.2 10.5117ZM17.2364 21.0241C18.7637 21.9002 20.0727 22.7762 21.6 23.6522C21.3818 24.0903 22.0364 24.5283 22.6909 24.5283C24 25.4043 25.3091 26.2803 26.4 27.1564C30.3273 30.0035 33.8182 33.2886 37.0909 36.7927C36.6546 37.0117 36.2182 37.6688 35.7818 38.1068C35.3455 38.7638 34.9091 39.2018 34.6909 39.8589C34.0364 40.9539 33.8182 42.2679 33.8182 43.801C33.8182 45.7721 34.9091 47.7432 36.8727 48.6192C33.6 50.3713 29.8909 51.4663 26.4 51.6853C26.6182 51.4663 26.8364 51.2473 27.0546 50.8093C27.7091 49.4952 27.2727 48.1812 26.6182 47.0861C24.8727 44.677 21.3818 43.582 18.7637 45.3341C18.1091 45.3341 17.4546 45.9911 17.0182 46.6481C16.5818 47.3051 16.1455 48.1812 16.3637 49.0572C16.5818 49.7142 17.6728 49.7142 17.6728 49.0572C17.8909 48.4002 17.8909 47.9622 18.1091 47.5241C18.3273 47.0861 18.7637 46.6481 18.9818 46.2101C19.8546 45.5531 20.7273 45.1151 21.8182 45.3341C24 45.5531 26.4 47.3051 26.4 49.7142C26.4 50.5903 25.9637 51.2473 25.3091 51.6853C20.5091 51.9043 15.4909 50.5903 11.1273 47.7431C8.29093 45.7721 6.10911 43.144 4.58184 40.0779C5.67275 40.5159 6.98184 40.5159 7.85457 39.8589C8.94548 39.2018 9.60002 37.8878 9.8182 36.5737C10.0364 33.7266 8.07275 30.2225 5.0182 29.3465C4.14548 29.1274 3.27275 29.1274 2.6182 29.3465H2.40002C2.6182 26.2803 3.70911 23.2142 5.67275 20.8051C8.72729 23.2142 13.5273 24.0903 17.2364 22.1192C17.4546 21.9002 17.2364 21.6812 17.0182 21.9002C13.3091 23.4332 8.94548 22.5572 6.54548 19.2721C7.20002 18.6151 7.85457 17.958 8.50911 17.301C8.50911 17.301 8.7273 17.082 8.7273 16.863C11.5637 18.396 14.4 19.4911 17.2364 21.0241Z" fill="#231F20"/>
<path d="M12.6548 34.6008C12.6548 35.2578 13.7457 35.4768 14.1821 34.8198C14.1821 34.8198 14.1821 34.6008 14.4002 34.6008C14.8366 36.5718 15.9275 38.3239 17.8911 39.1999C19.8548 40.076 22.2548 39.4189 23.3457 37.6669C24.4366 36.1338 24.4366 33.9437 23.3457 32.1917C22.0366 30.4396 19.8548 29.7826 17.8911 30.0016C16.5821 30.2206 15.4911 30.6586 14.6184 31.5346C13.5275 32.1917 12.873 33.2867 12.6548 34.6008ZM17.2366 31.3156C18.5457 30.8776 20.073 31.3156 21.1639 32.1917C22.2548 33.2867 22.473 34.8198 22.0366 36.3528C21.8184 37.0098 21.3821 37.4479 20.9457 37.8859C20.2911 38.3239 19.6366 38.3239 18.9821 38.3239C16.8002 37.8859 15.4911 35.9148 15.0548 33.9437C15.0548 33.9437 15.0548 33.9437 14.8366 33.7247C15.273 32.6297 16.1457 31.7537 17.2366 31.3156Z" fill="#231F20"/>
</g>
<defs>
<clipPath id="clip0_3325_1462">
<rect width="48" height="53" fill="white"/>
</clipPath>
</defs>
</svg>
