<svg width="48" height="41" viewBox="0 0 48 41" fill="none" xmlns="http://www.w3.org/2000/svg">
<g clip-path="url(#clip0_3325_1475)">
<path d="M47.2257 17.1344C46.1935 13.8341 43.6128 10.4068 39.9999 9.13746C38.8386 8.75665 37.5483 8.62972 36.258 8.62972V8.50278C34.9677 7.23343 33.0322 6.59876 31.2257 6.72569C29.6773 6.85263 27.8709 7.4873 27.0967 8.62972C26.8386 8.50278 26.4515 8.37585 26.0644 8.24891C26.0644 7.99504 25.9354 7.86811 25.9354 7.61424C25.9354 7.23343 25.8064 6.97956 25.8064 6.59876C25.8064 5.96408 25.8064 5.32941 25.8064 4.82167C25.9354 3.67925 26.3225 2.79071 26.8386 1.77523C27.0967 1.64829 27.0967 1.64829 27.0967 1.52136C27.0967 1.52136 27.0967 1.39442 27.2257 1.39442C27.2257 1.39442 27.2257 1.26749 27.0967 1.26749C26.8386 1.01362 26.4515 0.886683 26.1935 0.759748C25.9354 0.759748 25.8064 0.632812 25.5483 0.632812C25.2902 0.632812 25.0322 0.632813 24.9031 0.759748C24.9031 0.759748 24.7741 0.886682 24.9031 0.886682C23.4838 2.79071 23.0967 5.20247 23.8709 7.61424C23.6128 7.61424 23.2257 7.61424 22.9677 7.61424C21.9354 6.59876 20.6451 6.09102 19.2257 5.96408C17.9354 5.83715 16.516 6.34489 15.6128 7.23343C13.8064 6.59876 11.7418 6.72569 9.80637 7.23343C6.45153 8.37585 3.99991 11.0415 2.45153 13.961C0.645076 17.5152 -0.25815 21.9579 -8.55587e-05 26.0198C0.128947 29.8279 1.67733 33.8898 5.1612 36.3015C8.12895 38.2056 12.7741 38.7133 15.7418 36.4285C16.9031 38.7133 18.9677 40.4904 22.0644 40.4904C25.4193 40.4904 27.8709 38.9672 29.5483 36.8093C31.0967 40.3635 35.4838 41.7598 38.9677 40.6173C43.2257 39.2211 45.4193 35.2861 46.4515 31.3511C47.8709 26.7814 48.6451 21.704 47.2257 17.1344ZM31.2257 7.1065C32.9031 7.1065 34.4515 7.74117 35.7419 8.75665C33.9354 9.01052 32.1289 9.77213 31.0967 11.2954C29.9354 10.4068 28.7741 9.39133 27.3548 8.75665C28.387 7.86811 29.6773 7.23343 31.2257 7.1065ZM25.0322 0.886682C25.1612 0.886682 25.1612 0.886682 25.2902 0.886682C25.4193 0.886682 25.5483 0.886682 25.8064 0.886682C26.0644 0.886682 26.4515 1.01362 26.7096 1.14055C26.8386 1.14055 26.9677 1.26749 26.9677 1.39442V1.52136L26.8386 1.64829C26.7096 1.64829 26.5806 1.64829 26.4515 1.64829C26.3225 1.64829 26.1935 1.52136 25.9354 1.52136C25.5483 1.39442 25.2902 1.26749 25.0322 1.01362C25.0322 1.01362 24.9031 1.01362 24.9031 1.14055C25.1612 1.39442 25.5483 1.52136 25.8064 1.64829C25.9354 1.77523 26.1935 1.77523 26.3225 1.77523C26.4515 1.77523 26.4515 1.77523 26.5806 1.77523C25.9354 2.66377 25.4193 3.67925 25.2902 4.69473C25.1612 5.32941 25.1612 5.96408 25.1612 6.59876C25.1612 6.97956 25.2902 7.36037 25.2902 7.86811C25.0322 7.86811 24.516 7.74117 24.1289 7.61424C23.3548 5.32941 23.6128 2.91764 25.0322 0.886682ZM3.61282 33.7628C0.387011 29.9548 0.257979 25.0043 1.03217 20.4347C1.80637 16.2458 3.22572 11.8031 6.96766 9.13746C10.3225 6.72569 15.3548 6.34489 18.3225 9.13746C18.4515 9.26439 18.5806 9.01052 18.4515 9.01052C17.8064 8.24891 16.7741 7.61424 15.7418 7.23343C16.7741 6.59876 17.9354 6.21795 19.2257 6.34489C20.387 6.47182 21.4193 6.97956 22.1935 7.74117C20.387 7.99504 18.8386 8.88359 17.6773 10.1529C15.9999 12.057 15.2257 14.4687 14.7096 16.8805C13.9354 20.3077 13.6773 23.8619 13.8064 27.4161C13.9354 29.9548 14.1935 33.1282 15.4838 35.7938C11.3548 38.2056 6.58056 37.317 3.61282 33.7628ZM29.6773 35.9207C29.5483 35.9207 29.5483 36.0477 29.4193 36.1746C28.258 37.5709 26.8386 38.7133 24.9031 39.348C22.0644 40.2365 19.0967 39.6019 17.2902 37.317C16.9031 36.8093 16.6451 36.4285 16.387 35.9207C16.387 35.9207 16.387 35.9207 16.516 35.7938C16.7741 35.5399 16.516 35.2861 16.258 35.413C15.4838 33.7628 15.0967 31.9858 14.9677 30.2087C14.1935 24.4966 14.5806 18.4037 16.516 13.3263C17.4193 11.0415 19.0967 8.62972 22.0644 8.12198C23.3548 7.86811 24.516 8.12198 25.8064 8.50278V8.62972C25.9354 8.75665 26.0644 8.75665 26.1935 8.62972C27.7418 9.13746 29.1612 10.026 30.3225 10.9145C30.1935 11.0415 30.1935 11.0415 30.3225 11.1684C33.6773 14.9765 33.8064 19.9269 33.2902 24.7505C32.7741 28.3046 31.9999 32.7474 29.6773 35.9207ZM46.4515 28.4316C45.6773 32.1127 44.6451 36.1746 41.2902 38.5864C37.8064 41.1251 31.8709 40.7443 30.1935 36.1746C31.7418 33.8898 32.6451 31.2241 33.1612 28.8124C34.1935 23.1003 34.8386 16.4997 31.2257 11.8031C31.2257 11.8031 31.3548 11.8031 31.3548 11.93C31.4838 11.93 31.6128 11.93 31.4838 11.8031C31.3548 11.6762 31.2257 11.5492 31.0967 11.4223C33.0322 9.13746 36.7741 8.50278 39.7418 9.6452C42.9677 10.7876 45.1612 13.5802 46.3225 16.4997C47.6128 20.3077 47.2257 24.4966 46.4515 28.4316Z" fill="#231F20"/>
<path d="M33.29 0C33.6771 1.01548 33.2901 2.15789 32.1288 2.66563C31.9997 2.66563 31.8707 2.79257 31.7417 2.79257C31.7417 2.79257 31.7417 2.79257 31.7417 2.66563C31.6126 2.15789 31.0965 1.39628 30.3223 1.77709C29.8062 2.03096 30.0642 2.79257 30.5804 2.9195C30.8384 3.04644 31.0965 3.04644 31.3546 3.04644C31.3546 3.68111 30.5804 4.31579 29.8062 4.44272C29.8062 4.06192 29.5481 3.55418 29.032 3.55418C28.2578 3.42724 27.7417 4.18885 28.3868 4.69659C28.6449 4.82353 28.903 4.95046 29.2901 4.95046C29.2901 5.0774 29.161 5.20433 29.161 5.33127C28.7739 5.71207 28.2578 5.96594 27.6126 5.83901C26.9675 5.71207 26.5804 5.4582 26.3223 4.95046C26.1933 4.69659 25.6771 5.0774 25.8062 5.20433C26.1933 5.83901 26.9675 6.34675 27.8707 6.21981C28.7739 6.21981 29.5481 5.71207 29.8062 5.0774C29.8062 4.95046 29.8062 4.95046 29.9352 4.82353C30.3223 4.69659 30.7094 4.56966 30.9675 4.44272C31.4836 4.06192 31.8707 3.55418 31.8707 3.04644C32.3868 2.9195 32.7739 2.66563 33.032 2.41176C33.5481 1.65015 33.6771 0.76161 33.29 0ZM28.7739 4.31579C28.6449 4.31579 28.5159 4.06192 28.5159 4.06192C28.5159 3.80805 28.7739 3.80805 28.903 3.93498C29.161 4.06192 29.161 4.18885 29.161 4.44272C29.161 4.44272 28.903 4.44272 28.7739 4.31579ZM30.4513 2.5387C30.3223 2.41176 30.3223 2.41176 30.3223 2.28483C30.3223 2.15789 30.3223 2.15789 30.3223 2.03096C30.3223 1.90402 30.4513 1.90402 30.5804 1.90402C30.9675 1.90402 31.2255 2.15789 31.3546 2.41176C31.3546 2.5387 31.4836 2.66563 31.4836 2.79257C31.0965 2.79257 30.7094 2.79257 30.4513 2.5387Z" fill="#231F20"/>
<path d="M23.871 3.0456C23.0969 2.53786 22.0646 2.41092 21.1614 2.79173C20.5162 3.0456 20.0001 3.4264 19.742 3.93414H19.613C18.7098 3.68027 17.6775 3.93414 17.4194 4.82269C17.8065 4.06108 18.8388 3.93414 19.742 4.18801C19.742 4.31495 19.613 4.44188 19.613 4.56882C19.4839 4.94962 19.613 5.33043 20.0001 5.45736C20.2581 5.5843 20.6452 5.5843 20.9033 5.33043C21.1614 5.07656 21.1614 4.69575 20.9033 4.44188C20.7743 4.18801 20.5162 4.06108 20.1291 4.06108C20.3872 3.68027 20.7743 3.29947 21.2904 3.17253C22.0646 2.91866 22.9678 3.0456 23.742 3.4264C23.742 3.4264 24.1291 3.17253 23.871 3.0456ZM20.5162 4.94962C20.5162 5.20349 20.2581 5.20349 20.0001 5.07656C19.871 4.94962 19.742 4.82269 19.742 4.56882C19.742 4.44188 19.742 4.31495 19.871 4.18801C20.2581 4.44188 20.6452 4.56882 20.5162 4.94962Z" fill="#231F20"/>
<path d="M11.0967 9.13591C9.67739 8.50124 7.99997 9.64365 7.09674 10.6591C6.06448 11.8015 5.16126 13.1978 5.03223 14.7211C5.03223 15.1019 5.67739 14.848 5.67739 14.5941C6.06448 13.3248 6.58061 12.1824 7.35481 11.1669C8.129 10.2783 9.29029 9.13591 10.7096 9.38978C10.9677 9.51672 11.3548 9.26285 11.0967 9.13591Z" fill="#231F20"/>
<path d="M5.29045 17.2634C5.29045 17.2634 5.29045 17.1365 5.16142 17.1365L5.03238 17.0095C4.90335 17.0095 4.77432 16.8826 4.77432 17.0095H4.64529C4.51625 17.0095 4.51626 17.0095 4.38722 17.1365C4.38722 17.1365 4.25819 17.1365 4.25819 17.2634C4.25819 17.2634 4.25819 17.3903 4.12916 17.3903C4.00013 17.5173 4.00013 17.5173 3.87109 17.6442C3.87109 17.7712 3.87109 17.8981 3.87109 18.025C3.87109 18.025 3.87109 18.152 4.00013 18.152C4.12916 18.2789 4.12916 18.2789 4.25819 18.2789H4.38722C4.51626 18.2789 4.64529 18.2789 4.64529 18.152C4.77432 18.152 4.77432 18.025 4.90335 18.025C5.03238 17.7712 5.16142 17.7712 5.16142 17.6442C5.29045 17.5173 5.29045 17.3903 5.29045 17.2634Z" fill="#231F20"/>
<path d="M23.0965 9.52344C21.6771 9.52344 20.5158 10.285 19.7416 11.3005C18.7094 12.5699 18.4513 14.0931 18.3223 15.6163C18.3223 15.9971 18.8384 15.7433 18.9674 15.4894C19.2255 14.22 19.4836 12.8237 20.2577 11.6813C20.9029 10.7928 21.9352 10.0312 23.0965 9.90424C23.2255 9.77731 23.3545 9.52344 23.0965 9.52344Z" fill="#231F20"/>
<path d="M18.7097 17.1367C18.5807 17.0097 18.5807 17.0097 18.5807 17.0097C18.7097 17.0097 18.8388 16.8828 18.7097 16.8828C18.7097 16.8828 18.7097 16.8828 18.5807 16.8828C18.5807 16.8828 18.5807 16.8828 18.4517 16.8828C18.4517 16.8828 18.4517 16.8828 18.3226 16.8828H18.1936C18.0646 16.8828 18.0646 17.0097 18.0646 17.0097C18.0646 17.0097 17.9355 17.1367 17.9355 17.2636V17.3906C17.9355 17.3906 17.9355 17.5175 18.0646 17.5175L18.1936 17.6444H18.3226H18.4517C18.5807 17.6444 18.5807 17.6444 18.7097 17.6444C18.8388 17.6444 18.8388 17.5175 18.9678 17.5175C18.7097 17.3906 18.7097 17.2636 18.7097 17.1367Z" fill="#231F20"/>
<path d="M44.7741 15.8703C44.6451 15.4895 44.516 15.1086 44.387 14.7278C43.9999 13.9662 43.4838 13.2046 42.8386 12.443C41.5483 11.0467 39.7418 10.2851 37.8063 10.0312C37.6773 10.0312 37.4193 10.2851 37.6773 10.2851C39.3547 10.6659 41.0322 11.5545 42.1934 12.8238C42.8386 13.4585 43.2257 14.2201 43.4838 14.9817C43.6128 15.3625 43.7418 15.7433 43.8709 16.1241C43.8709 16.378 43.8709 16.5049 43.9999 16.7588C43.9999 16.8857 43.9999 17.1396 44.1289 17.3935C44.258 17.6473 44.6451 17.5204 44.7741 17.2665C45.0322 16.8857 44.9031 16.378 44.7741 15.8703Z" fill="#231F20"/>
<path d="M44.5159 18.9141H44.3868H44.2578C44.1288 18.9141 44.1288 18.9141 43.9997 18.9141C43.8707 18.9141 43.8707 18.9141 43.7417 18.9141C43.6127 18.9141 43.4836 18.9141 43.4836 19.041C43.4836 19.041 43.3546 19.1679 43.4836 19.2949C43.6126 19.5487 43.8707 19.8026 44.1288 19.8026C44.2578 19.8026 44.2578 19.8026 44.3868 19.8026C44.5159 19.8026 44.5159 19.6757 44.5159 19.6757V19.5487C44.5159 19.5487 44.5159 19.4218 44.5159 19.2949C44.6449 19.041 44.6449 18.9141 44.5159 18.9141Z" fill="#231F20"/>
</g>
<defs>
<clipPath id="clip0_3325_1475">
<rect width="48" height="41" fill="white"/>
</clipPath>
</defs>
</svg>
