<svg width="52" height="55" viewBox="0 0 52 55" fill="none" xmlns="http://www.w3.org/2000/svg">
<g clip-path="url(#clip0_3323_1442)">
<path d="M46.9173 10.6133C42.0301 7.13961 35.97 7.52558 30.6918 9.64838C27.564 10.8063 24.6316 12.3501 21.1128 12.9291C19.1579 13.1221 17.2031 12.9291 15.4437 12.5431C13.8798 11.9642 12.7068 10.6133 11.9249 9.26242C11.5339 8.68347 10.9474 8.29751 10.7519 7.71856C10.361 6.75365 10.1655 5.78873 9.77449 4.82382C9.579 3.85891 9.38351 2.894 9.38351 1.92909C9.579 1.54312 9.579 1.35014 9.579 0.964173C9.18802 -0.965651 6.45118 0.578208 5.47374 1.15716C3.71434 1.7361 1.95494 2.894 1.17299 4.63084C1.17299 4.43786 0.977499 4.43786 0.977499 4.43786C1.17299 4.24487 1.17299 4.24487 1.36848 4.05189V3.85891C1.17299 4.05189 0.977499 4.24487 0.78201 4.24487C0.78201 4.24487 0.586522 4.24487 0.586522 4.43786C0.391033 4.63084 0.195544 5.0168 0.195544 5.40277C-0.390922 7.91154 0.391033 10.2273 1.75945 12.3501C2.93239 14.28 4.4963 15.4379 5.86472 17.1747C7.03765 18.7186 8.01509 20.6484 8.60156 22.5782C8.79705 23.7361 8.99254 25.087 8.99254 26.2449C8.79705 27.5958 8.01509 29.1396 7.42863 30.1045C6.45118 31.6484 5.47374 32.9993 4.69178 34.7361C2.7369 38.4028 2.15043 42.8414 3.51885 46.701C4.88727 50.7537 8.40607 54.0344 12.5113 54.8063C16.6166 55.5782 20.9173 54.0343 23.2632 50.7536C23.2632 50.5607 23.4587 50.5607 23.4587 50.3677C23.8497 50.3677 24.0452 50.3677 24.2407 50.1747C25.6091 49.9817 26.782 49.2098 27.7595 48.4379C28.3459 48.0519 28.7369 47.4729 29.1279 47.087C29.5188 46.508 29.9098 45.9291 30.1053 45.1572C31.8647 44.9642 33.6241 44.3852 34.9925 43.2273C36.9474 41.6835 38.1204 39.3677 38.3158 37.0519C38.3158 37.0519 38.5113 37.2449 38.7068 37.0519C39.8797 36.4729 40.8572 35.1221 41.4437 33.9642C42.0301 32.8063 42.4211 31.4554 42.4211 30.1045V29.9115C46.9173 30.1045 51.0226 27.0168 52.1955 22.5782C52.782 18.1396 50.6316 13.3151 46.9173 10.6133ZM5.08276 1.7361C5.86472 1.35014 6.84216 0.771191 7.62411 0.578208C8.01509 0.385226 8.60156 0.385226 8.79705 0.771191C8.79705 1.15716 8.60156 1.54312 8.60156 1.92909L8.40607 2.12207C7.42863 3.47295 5.86472 4.43786 4.30081 5.0168C3.51885 5.40277 2.7369 5.59575 1.95494 5.78873C1.56397 5.78873 1.36848 5.78873 1.17299 5.78873V5.59575C1.36848 5.78873 1.36848 5.78873 1.56397 5.40277C2.34592 3.66593 3.51885 2.70102 5.08276 1.7361ZM51.0226 18.5256C52.0001 24.1221 47.6993 29.5256 42.0301 29.7186C42.0301 27.4028 41.0527 25.28 39.4888 23.7361C39.2933 23.5431 39.2933 23.9291 39.2933 23.9291C40.8572 25.6659 41.6392 27.9817 41.4437 30.1045C41.4437 31.2624 41.0527 32.4203 40.4662 33.5782C40.2707 34.1572 39.8798 34.5431 39.4888 34.9291C39.0978 35.3151 38.7068 35.701 38.3158 36.087C38.3158 34.9291 38.1204 33.9642 37.9249 32.8063C37.5339 31.8414 36.7519 32.6133 36.9474 33.3852C38.1204 36.6659 36.9474 40.3326 34.2106 42.4554C31.4737 44.5782 27.564 44.9642 24.4361 43.2273C24.2407 43.0343 24.2407 43.4203 24.4361 43.6133C25.8046 44.5782 27.564 44.9642 29.3234 44.9642V45.1572C29.1279 45.3501 29.1279 45.7361 28.9324 45.9291C28.5414 46.508 28.1504 46.894 27.7595 47.28C26.782 48.0519 25.8046 48.8238 24.4361 49.0168C24.2407 49.0168 23.8497 49.2098 23.6542 49.2098C23.4587 49.0168 23.2632 49.0168 23.0677 49.2098C21.1128 49.4028 19.1579 48.8238 17.594 47.4729C16.6166 47.8589 16.6166 48.2449 16.6166 48.2449C17.985 49.4028 19.7444 50.1747 21.5038 50.3677C18.767 53.4554 14.0752 54.4203 10.1655 52.6835C5.66923 50.7536 3.12787 46.1221 3.32336 41.4905C3.32336 39.1747 4.10532 37.0519 5.08276 34.9291C6.25569 32.8063 7.8196 30.8765 8.60156 28.7536C9.38351 26.8238 9.77449 24.508 8.99254 22.3852C8.60156 20.4554 7.62411 18.7186 6.45118 17.1747C4.30081 14.087 0.586522 10.6133 0.977499 6.1747C1.17299 6.1747 1.36848 6.1747 1.56397 6.1747C3.32336 5.98172 5.08276 5.40277 6.64667 4.43786C7.42863 4.05189 8.01509 3.47295 8.79705 2.70102C8.79705 2.70102 8.79705 2.50803 8.99254 2.50803C8.99254 5.59575 10.1655 8.68347 12.3158 10.8063C12.5113 11.5782 13.0978 12.1572 13.6843 12.5431C13.6843 12.5431 13.6843 12.5431 13.8798 12.5431H14.0752C16.2256 13.894 18.767 14.28 21.5038 13.894C27.173 13.1221 31.8647 9.26242 37.7294 8.87645C43.594 8.68347 49.8497 12.3501 51.0226 18.5256Z" fill="#231F20"/>
<path d="M7.62434 34.7342C7.23336 36.857 7.42885 38.9798 8.40629 40.9096C9.18825 42.8395 10.7522 44.7693 12.5116 45.7342C12.707 45.9272 12.9025 45.3482 12.707 45.1553C11.1431 43.9974 9.77471 42.6465 8.79727 40.7167C7.81983 38.9798 7.42885 36.857 7.62434 34.7342Z" fill="#231F20"/>
<path d="M14.8571 15.242C14.6616 15.049 14.6616 15.242 14.8571 15.242C15.8345 19.4876 20.1353 21.0315 23.8495 22.1894C28.1503 23.3473 33.624 24.6982 34.7969 29.7157C34.9924 30.2947 35.5789 29.7157 35.3834 29.3297C33.0375 19.6806 18.3759 23.9262 14.8571 15.242Z" fill="#231F20"/>
<path d="M27.1729 16.4062C31.2781 16.5992 34.9924 18.3361 38.1202 21.0378C38.3157 21.2308 38.7067 20.6519 38.3157 20.4589C35.1879 17.7571 31.0826 16.4062 27.1729 16.4062Z" fill="#231F20"/>
<path d="M10.3608 19.1016C14.4661 20.8384 15.0526 25.663 15.2481 29.5226C15.4435 33.1893 15.639 37.0489 18.3759 39.5577C18.7669 39.9437 18.9623 39.1717 18.7669 38.9788C15.4435 35.891 16.03 31.0665 15.4435 27.0138C15.2481 23.7331 13.8796 20.0665 10.3608 19.1016Z" fill="#231F20"/>
<path d="M2.54123 4.82031C2.34574 5.20628 1.95477 5.39926 1.75928 5.78522V5.97821C2.15025 5.59224 2.34574 5.20628 2.54123 4.82031C2.73672 4.82031 2.73672 4.82031 2.54123 4.82031Z" fill="#231F20"/>
<path d="M5.08264 2.89062C4.88715 2.89062 4.88715 3.08361 4.88715 3.08361C4.88715 3.27659 4.69166 3.27659 4.69166 3.46957L4.1052 4.2415C3.90971 4.62747 3.51873 5.01343 3.32324 5.59238V5.78536C3.71422 5.20641 3.90971 4.82045 4.30069 4.43448C4.49617 4.2415 4.69166 4.04852 4.88715 3.85554C5.08264 3.66255 5.27813 3.46957 5.27813 3.27659C5.27813 3.08361 5.27813 2.89062 5.08264 2.89062Z" fill="#231F20"/>
<path d="M7.03758 1.92969C6.84209 1.92969 6.84209 2.12267 6.64661 2.31565C6.64661 2.50863 6.45112 2.50863 6.45112 2.70162L5.86465 3.47355C5.47367 4.05249 5.27818 4.63144 4.88721 5.21039V5.40337C5.47367 4.82442 5.86465 4.43846 6.25563 3.85951L6.84209 3.08758C7.03758 2.8946 7.23307 2.50863 7.42856 2.31565C7.23307 2.12267 7.23307 1.92969 7.03758 1.92969Z" fill="#231F20"/>
<path d="M8.21071 1.54454C7.81973 1.93051 7.62424 2.31647 7.42875 2.70244C7.23326 3.0884 7.03777 3.47437 6.84229 4.05332C6.84229 4.05332 6.84228 4.2463 7.03777 4.05332C7.23326 3.66735 7.42875 3.28139 7.62424 2.89542C7.81973 2.50946 8.21071 2.12349 8.4062 1.73753C8.4062 1.73753 8.4062 1.54454 8.4062 1.35156C8.4062 1.35156 8.21071 1.35156 8.21071 1.54454Z" fill="#231F20"/>
<path d="M6.84229 5.98067C7.42875 8.68243 8.99266 11.3842 10.9475 13.507C11.143 13.7 11.3385 13.314 11.143 13.121C9.18815 10.9982 7.62424 8.68243 6.84229 5.98067C6.84229 5.78769 6.84229 5.78769 6.84229 5.98067Z" fill="#231F20"/>
<path d="M7.42878 12.9269C6.06036 11.1901 5.08291 9.45326 4.30096 7.52344H4.10547C4.88742 9.64624 5.86487 11.5761 7.23329 13.3129C7.81975 14.0848 8.60171 14.8568 9.18818 15.6287C9.97013 16.4006 10.7521 16.9796 11.534 17.5585C11.7295 17.5585 11.925 17.1726 11.7295 17.1726C10.9476 16.4006 10.1656 16.0147 9.38366 15.2427C8.60171 14.4708 8.01524 13.6989 7.42878 12.9269Z" fill="#231F20"/>
<path d="M31.6691 44.5817C31.0826 45.7396 30.8871 47.2835 31.2781 48.4414C31.6691 49.7923 32.842 51.1432 34.2104 51.3361C33.624 50.9502 33.0375 50.5642 32.6465 50.1782C32.2556 49.5993 31.8646 49.0203 31.6691 48.4414C31.2781 47.2835 31.4736 46.1256 32.0601 44.9677C32.2556 44.5817 31.8646 44.1958 31.6691 44.5817Z" fill="#231F20"/>
<path d="M36.3611 44.9614C35.9702 44.5754 35.5792 44.3824 35.3837 43.8035C35.1882 43.6105 35.1882 43.4175 34.9927 43.0316C34.7972 42.8386 34.7972 42.4526 34.7972 42.2596C34.6017 42.0666 34.4062 42.2596 34.4062 42.4526C34.4062 43.0316 34.7972 43.6105 34.9927 43.9965C35.3837 44.3824 35.5792 44.9614 36.1656 45.1544C37.1431 45.7333 38.1205 46.1193 39.2935 46.1193C39.489 46.1193 39.489 45.9263 39.2935 45.9263C38.1205 46.1193 37.1431 45.7333 36.3611 44.9614Z" fill="#231F20"/>
<path d="M37.1428 37.0547C36.9473 37.0547 36.9473 37.4407 36.9473 37.6336C37.3382 38.0196 37.9247 38.4056 38.3157 38.7915C38.7067 39.1775 39.0976 39.7564 39.4886 40.3354C40.0751 41.4933 40.4661 42.8442 40.4661 44.195C40.4661 44.388 40.6616 44.388 40.6616 44.195C40.857 42.8442 40.4661 41.3003 39.8796 40.1424C39.4886 39.5635 39.0976 38.9845 38.7067 38.4056C38.5112 37.8266 37.9247 37.2477 37.1428 37.0547Z" fill="#231F20"/>
<path d="M42.2258 37.4368C41.6394 37.0508 41.2484 36.8579 40.6619 36.6649C40.0754 36.4719 39.489 36.2789 38.9025 36.0859C38.5115 36.0859 38.5115 36.6649 38.707 36.8579C39.2935 37.0508 39.6845 37.2438 40.2709 37.4368C40.8574 37.6298 41.2484 37.8228 41.8348 38.2087C42.6168 38.7877 43.3988 39.5596 43.7897 40.5245C43.7897 40.7175 43.9852 40.5245 43.9852 40.5245C43.7897 39.1737 43.0078 38.0158 42.2258 37.4368Z" fill="#231F20"/>
<path d="M43.5942 34.5469C42.8122 34.5469 42.2258 34.5469 41.4438 34.5469C40.6619 34.7399 39.8799 34.7399 39.2934 35.1258C39.098 35.3188 39.098 35.8978 39.4889 35.8978C40.2709 35.7048 40.8574 35.5118 41.4438 35.3188C42.2258 35.1258 42.8122 35.1258 43.5942 35.1258C44.9626 35.1258 46.331 35.5118 47.6995 36.0907C47.8949 36.2837 47.8949 35.7048 47.8949 35.7048C46.5265 35.3188 45.1581 34.7399 43.5942 34.5469Z" fill="#231F20"/>
<path d="M30.6917 43.9963C29.7143 45.1542 29.1278 46.6981 28.9323 48.2419C28.7368 49.7858 28.9323 51.3296 29.7143 52.4875C29.7143 52.6805 29.9098 52.4875 29.9098 52.2945C29.3233 50.9437 29.1278 49.5928 29.3233 48.2419C29.5188 46.891 30.1053 45.7331 30.8872 44.5752C31.0827 44.3823 31.0827 44.1893 30.8872 43.9963C30.8872 43.8033 30.6917 43.8033 30.6917 43.9963Z" fill="#231F20"/>
</g>
<defs>
<clipPath id="clip0_3323_1442">
<rect width="52" height="55" fill="white"/>
</clipPath>
</defs>
</svg>
