<svg width="116" height="42" viewBox="0 0 116 42" fill="none" xmlns="http://www.w3.org/2000/svg">
<g clip-path="url(#clip0_2503_956)">
<path d="M18.7129 0.0933328C23.7471 -0.25562 28.9395 0.339926 33.5549 2.45691C37.6725 4.31799 41.2458 7.5051 43.2836 11.5669C45.3075 15.5171 45.8333 20.1605 44.9586 24.4921C44.1304 28.6842 41.9064 32.5925 38.6728 35.3934C35.0856 38.548 30.4749 40.3067 25.8269 41.1488C21.6302 41.9258 17.3451 42.0468 13.0879 41.977C9.84499 41.9305 6.59743 41.9305 3.36384 41.7211C3.01954 41.6792 2.58684 41.6932 2.35886 41.3908C2.0797 41.0232 2.35421 40.5068 2.74038 40.3486C4.7038 39.2319 6.27175 37.5197 7.43026 35.5981C8.72835 33.5044 9.61235 31.2013 10.5336 28.9262C12.0783 25.0225 13.4973 21.0677 15.0094 17.1548C16.14 14.2655 17.4009 11.3668 19.3597 8.92883C21.2161 6.59782 23.9797 4.98333 26.9295 4.55993C27.3017 4.54132 27.7437 4.43431 28.0648 4.66695C28.4044 5.09034 27.8228 5.41138 27.5483 5.66262C24.7521 7.78426 23.1376 11.0225 21.8256 14.191C19.3736 20.2675 17.4939 26.5765 14.721 32.5181C13.5997 34.7839 12.2783 37.0033 10.4219 38.748C10.1102 39.0551 9.71471 39.2971 9.49138 39.6879C9.37041 40.0927 9.85429 40.2788 10.18 40.2741C12.7064 40.4323 15.2467 40.4509 17.7731 40.4044C22.0024 40.2555 26.3014 39.4925 30.0794 37.5104C33.8155 35.6075 36.8164 32.3226 38.3518 28.419C39.9849 24.3432 40.2594 19.7929 39.4266 15.4985C38.7287 11.8554 36.9467 8.34724 34.0946 5.92318C30.5865 2.91287 25.8734 1.73574 21.337 1.60546C17.3916 1.57289 13.3484 2.20566 9.83103 4.0714C6.47646 5.83012 3.78723 8.89626 2.6799 12.5393C2.06575 14.7354 1.97269 17.1036 2.6008 19.3044C2.80087 19.8534 1.91686 19.9418 1.67958 19.5649C0.372179 17.8202 -0.0744754 15.5496 0.00927239 13.4001C0.106978 10.7248 1.49812 8.26814 3.31731 6.37449C6.33223 3.22461 10.5103 1.43331 14.7396 0.619089C16.047 0.349232 17.3823 0.19104 18.7129 0.0933328ZM60.3216 14.9215C62.8899 14.5633 65.7141 14.754 67.9101 16.2661C69.8224 17.5643 70.8925 19.8069 71.1763 22.0588C71.5532 25.0923 70.9436 28.1864 69.7433 30.978C68.287 34.314 65.9002 37.2685 62.8666 39.2971C59.9727 41.2372 56.4088 42.2422 52.9239 41.8467C50.9512 41.642 48.9971 40.7999 47.6711 39.2878C45.9124 37.3243 45.4145 34.5559 45.5634 31.997C45.8379 27.535 47.8479 23.2592 50.8907 20.0162C53.3752 17.3688 56.7019 15.4287 60.3216 14.9215ZM61.2382 16.2894C59.7075 16.6523 58.3582 17.541 57.1997 18.5785C55.3805 20.2303 53.9801 22.2961 52.9007 24.4921C51.1513 28.1538 50.2579 32.3087 50.8302 36.3565C51.0768 37.8826 51.7189 39.5995 53.2496 40.2416C54.9804 40.9581 56.9438 40.316 58.4327 39.3296C60.9125 37.6453 62.6573 35.091 63.9693 32.4343C65.6489 28.8889 66.6586 24.9248 66.2724 20.9886C66.0956 19.5649 65.742 18.0295 64.6579 17.0106C63.7646 16.1591 62.406 16.0102 61.2382 16.2894ZM105.243 15.0611C106.983 14.7075 108.802 14.6749 110.542 15.0611C111.761 15.3449 112.976 15.9637 113.65 17.0571C114.534 18.4622 114.418 20.3 113.669 21.7331C112.552 23.9012 110.542 25.4459 108.439 26.5859C104.787 28.5353 100.665 29.4007 96.5751 29.8009C96.0773 31.4572 95.9331 33.2067 95.9563 34.9328C96.0028 36.2635 96.3239 37.6733 97.2498 38.6736C98.0314 39.539 99.2225 39.9345 100.372 39.9066C102.651 39.9345 104.852 39.0132 106.634 37.6407C108.104 36.538 109.337 35.1515 110.449 33.7045C110.891 33.2113 111.827 33.7882 111.412 34.3978C109.105 38.4875 104.824 41.5769 100.074 41.9212C97.7941 42.0794 95.305 41.7676 93.4718 40.2927C91.8899 39.0551 91.0943 37.0544 90.9175 35.0957C90.6383 32.0574 91.3642 29.0006 92.6018 26.2369C93.7696 23.6872 95.4027 21.3469 97.4312 19.4114C99.604 17.327 102.284 15.7032 105.243 15.0611ZM105.662 16.536C103.838 17.299 102.386 18.7181 101.153 20.2303C99.2458 22.6636 97.8825 25.4971 96.9939 28.4469C99.1062 28.2236 101.2 27.7165 103.154 26.8836C105.206 26.0043 107.155 24.7573 108.574 23.0126C109.593 21.7563 110.287 20.1465 110.119 18.5041C110.04 17.6713 109.677 16.764 108.872 16.3964C107.853 15.9125 106.667 16.1405 105.662 16.536ZM90.6523 15.5589C91.2292 15.0425 92.0714 14.7168 92.8204 15.0471C93.4439 15.2937 93.6719 16.0382 93.5881 16.6523C93.3648 18.9973 92.5227 21.2306 91.6107 23.3848C89.3682 28.6563 85.9671 33.3742 82.0077 37.4918C80.7375 38.762 79.4068 39.995 77.8808 40.9581C77.1363 41.414 76.3268 41.8328 75.4335 41.8467C74.9403 41.8467 74.3773 41.6606 74.1633 41.1767C73.7864 40.3393 73.8888 39.3994 73.8888 38.5061C74.2145 32.8949 74.9356 27.2465 74.275 21.6307C74.047 19.9697 73.7352 18.2342 72.7675 16.8245C72.5256 16.4383 72.1254 16.201 71.8323 15.866C71.7765 15.5869 72.1254 15.4891 72.3301 15.438C74.0377 15.1262 75.9592 15.4891 77.234 16.7268C78.4158 17.8155 78.909 19.43 79.1091 20.9793C79.7 25.6646 79.3743 30.4104 78.9788 35.1003C78.9416 35.7936 78.7694 36.552 79.137 37.1894C79.9745 37.1754 80.6026 36.5659 81.1609 36.0169C84.8365 32.1924 87.6699 27.5629 89.4426 22.5659C90.0661 20.7839 90.5453 18.9415 90.7454 17.0571C90.7965 16.5593 90.7779 16.0475 90.6523 15.5589ZM113.162 37.5337C114.376 37.1847 115.772 38.0408 115.953 39.3064C116.242 40.5905 115.172 41.9351 113.86 41.9584C112.562 42.0887 111.375 40.8929 111.468 39.5995C111.51 38.641 112.222 37.7524 113.162 37.5337ZM113.32 37.8408C112.566 38.0036 111.957 38.6689 111.84 39.4273C111.64 40.5161 112.594 41.6327 113.702 41.6281C114.776 41.6839 115.735 40.6696 115.646 39.6041C115.623 38.4735 114.418 37.5476 113.32 37.8408Z" fill="#6E6E6E"/>
<path d="M112.85 38.3142C113.432 38.3515 114.214 38.1374 114.609 38.7097C114.856 39.1936 114.511 39.7101 114.032 39.8496C114.293 40.2405 114.549 40.6313 114.791 41.0314C113.911 41.2408 114.06 39.7752 113.246 39.8357C113.241 40.2312 113.241 40.6313 113.241 41.0268C113.143 41.0221 112.943 41.0175 112.846 41.0175C112.855 40.1195 112.855 39.2169 112.85 38.3142ZM113.241 38.6167C113.241 38.933 113.246 39.2541 113.25 39.5705C113.646 39.5891 114.358 39.5891 114.293 39.0121C114.237 38.5143 113.595 38.6539 113.241 38.6167Z" fill="#6E6E6E"/>
</g>
<defs>
<clipPath id="clip0_2503_956">
<rect width="116" height="42" fill="white"/>
</clipPath>
</defs>
</svg>
