<svg width="106" height="106" viewBox="0 0 106 106" fill="none" xmlns="http://www.w3.org/2000/svg">
<path d="M76.0773 57.7393C79.0974 61.0622 81.788 64.6391 83.7029 68.7212C86.1381 73.8979 83.95 79.3019 78.5404 81.29C76.9436 81.8901 75.3205 82.4018 73.6446 82.7369C66.3252 84.1483 59.6107 86.7443 53.6503 91.3467C50.0262 94.1419 46.0077 94.6482 41.9691 92.1161C39.7916 90.7728 38.3953 88.7493 37.7145 86.2775C35.6985 78.9504 36.1099 71.5419 37.9187 64.2876C39.0919 59.5576 40.7568 54.9867 43.8889 51.1268C47.6893 46.4669 52.5698 44.5815 58.4855 45.966C63.386 47.119 67.4209 49.7678 71.053 53.1362C72.756 54.7005 74.4308 56.2349 76.0773 57.7393Z" fill="#EF4B4B"/>
<path d="M57.2663 35.6248C53.6029 38.7403 49.0924 38.1819 46.3545 34.2532C42.863 29.2235 42.2771 23.7748 44.561 18.1105C46.8751 12.4177 53.7108 11.5192 57.3511 16.4651C61.1874 21.6792 61.6792 27.3299 58.8624 33.2137C58.4842 34.0799 57.8178 34.8216 57.2663 35.6248Z" fill="#EF4B4B"/>
<path d="M25.4283 41.8129C23.1768 39.1239 21.7538 36.1065 21.1292 32.7891C20.1008 27.4746 24.5529 23.4455 29.7361 24.8981C36.0493 26.6437 40.4147 31.7551 41.0311 38.0809C41.3467 41.0104 40.5323 43.6468 38.0848 45.2757C35.6655 46.9347 32.9555 46.7164 30.4616 45.2186C28.7418 44.1796 27.1161 42.9386 25.4283 41.8129Z" fill="#EF4B4B"/>
<path d="M13.7931 61.2139C13.3465 60.5594 12.4478 59.4254 11.7882 58.1226C9.00833 52.7614 11.7954 47.8115 17.8517 47.5348C23.8194 47.285 28.5322 49.7474 31.6679 54.9428C31.862 55.2693 32.0278 55.5658 32.1635 55.8908C34.5232 60.6857 31.9733 65.5251 26.6347 66.2006C21.7951 66.8019 17.6402 65.1722 13.7931 61.2139Z" fill="#EF4B4B"/>
<path d="M77.8842 28.5208C82.2552 33.4571 82.7496 40.8604 79.0813 45.9621C76.3295 49.8029 71.2129 49.9294 68.204 46.2563C64.4075 41.6275 63.8908 34.9246 66.8906 29.7175C69.4292 25.2284 74.5005 24.6917 77.8842 28.5208Z" fill="#EF4B4B"/>
</svg>
