<svg width="55" height="45" viewBox="0 0 55 45" fill="none" xmlns="http://www.w3.org/2000/svg">
<path fill-rule="evenodd" clip-rule="evenodd" d="M0 0H54.7525V45H0V0Z" fill="#D97944"/>
<path fill-rule="evenodd" clip-rule="evenodd" d="M45.1879 31.8745V25.8751H42.0939L42.0951 29.1572C42.0951 30.0358 41.3822 30.7513 40.5033 30.7513C40.0806 30.751 39.6753 30.5829 39.3765 30.2841C39.0776 29.9852 38.9095 29.5799 38.9092 29.1572L38.9081 13.0312H35.8135V31.8745H45.1879ZM21.9387 28.5935C21.9387 30.4677 20.7186 32.1569 17.2512 32.1569C13.7815 32.1569 12.5637 29.9529 12.5637 28.5935V25.8751H15.6568V29.1572C15.6574 29.58 15.8258 29.9854 16.1249 30.2842C16.424 30.5831 16.8295 30.7511 17.2524 30.7513C18.1327 30.7513 18.8456 30.0138 18.8456 29.1344L18.8444 13.0315H21.9387V28.5935ZM33.5636 19.3119V16.1015C33.5636 14.0152 31.6654 13.0312 30.4696 13.0312H24.282V31.8745H30.4693C32.7907 31.8745 33.5633 30.3735 33.5633 29.4139V23.7659C33.5633 22.9684 32.743 21.9128 31.5232 21.9128C32.7432 21.9131 33.5636 20.2496 33.5636 19.3119ZM29.2519 30.3325L27.3748 30.3284V22.7337H29.2519C30.4693 22.7337 30.4693 23.602 30.4693 26.5537C30.4693 29.5069 30.4693 30.3325 29.2519 30.3325ZM29.0628 21.144L27.3751 21.1416V14.8109H29.0628C30.1884 14.8109 30.4696 15.0474 30.4696 17.9985C30.4693 20.9523 30.1881 21.144 29.0628 21.144Z" fill="white"/>
<path fill-rule="evenodd" clip-rule="evenodd" d="M14.11 20.2394C13.6349 20.2394 13.1793 20.4281 12.8433 20.764C12.5074 21.1 12.3186 21.5556 12.3186 22.0307C12.3186 22.5058 12.5074 22.9615 12.8433 23.2974C13.1793 23.6333 13.6349 23.8221 14.11 23.8221C14.5848 23.8218 15.0402 23.6329 15.3758 23.297C15.7114 22.961 15.8999 22.5056 15.8999 22.0307C15.8999 21.5559 15.7114 21.1004 15.3758 20.7645C15.0402 20.4286 14.5848 20.2397 14.11 20.2394ZM11.2493 13.0312L14.11 19.5458L16.9689 13.0312H11.2493Z" fill="white"/>
</svg>
