<svg width="132" height="45" viewBox="0 0 132 45" fill="none" xmlns="http://www.w3.org/2000/svg">
<g clip-path="url(#clip0_3663_499)">
<path d="M30.7029 23.9101C30.6484 18.2158 35.3707 15.48 35.5831 15.3497C32.9251 11.4794 28.7965 10.9474 27.3259 10.8877C23.8128 10.5295 20.4686 12.9505 18.6821 12.9505C16.8956 12.9505 14.145 10.9366 11.231 10.9963C7.39658 11.0506 3.86169 13.2164 1.88455 16.6362C-2.09152 23.5084 0.871468 33.7134 4.75494 39.2991C6.65583 42.0295 8.91075 45.1073 11.8846 44.9933C14.7496 44.8793 15.828 43.1477 19.2812 43.1477C22.7344 43.1477 23.7093 44.9933 26.7322 44.939C29.8096 44.8793 31.7595 42.1489 33.6441 39.4076C35.8118 36.2321 36.7105 33.1652 36.765 33.0023C36.6942 32.9752 30.7682 30.7116 30.7029 23.9101Z" fill="black"/>
<path d="M25.022 7.18697C26.6016 5.28166 27.6637 2.63812 27.375 0C25.1037 0.0922799 22.3532 1.50905 20.7246 3.41435C19.2649 5.09711 17.9849 7.78951 18.3335 10.3733C20.8553 10.5688 23.4479 9.08685 25.022 7.18697ZM50.6214 29.5078L48.007 37.4059H44.6464L53.2031 12.3058H57.1247L65.7141 37.4059H62.2391L59.5485 29.5078H50.6214ZM58.8785 26.9729L56.4166 19.7479C55.8556 18.1086 55.4852 16.6212 55.1094 15.1665H55.0386C54.6628 16.6538 54.2543 18.1791 53.7695 19.7099L51.3076 26.9674L58.8785 26.9729ZM68.2631 25.263C68.2631 22.956 68.1923 21.0887 68.1106 19.3788H71.0627L71.2152 22.4729H71.286C72.6313 20.2744 74.761 18.9717 77.7131 18.9717C82.0868 18.9717 85.3711 22.6574 85.3711 28.1345C85.3711 34.6158 81.4114 37.813 77.1521 37.813C74.761 37.813 72.6695 36.7708 71.5856 34.9849H71.5148V44.7774H68.2631V25.263ZM71.5093 30.0669C71.5093 30.5555 71.5801 30.9952 71.6618 31.4077C72.261 33.6767 74.2381 35.2455 76.5965 35.2455C80.0715 35.2455 82.0922 32.4174 82.0922 28.2811C82.0922 24.6659 80.1859 21.5826 76.7109 21.5826C74.4723 21.5826 72.3808 23.184 71.7381 25.6429C71.6237 26.0501 71.5148 26.5386 71.5148 26.9837L71.5093 30.0669ZM88.7698 25.263C88.7698 22.956 88.699 21.0887 88.6173 19.3788H91.5694L91.7219 22.4729H91.7927C93.1381 20.2744 95.2677 18.9717 98.2198 18.9717C102.593 18.9717 105.878 22.6574 105.878 28.1345C105.878 34.6158 101.918 37.813 97.6588 37.813C95.2677 37.813 93.1762 36.7708 92.0923 34.9849H92.0215V44.7774H88.7698V25.263ZM92.0215 30.0669C92.0215 30.5555 92.0923 30.9952 92.174 31.4077C92.7731 33.6767 94.7503 35.2455 97.1087 35.2455C100.584 35.2455 102.604 32.4174 102.604 28.2811C102.604 24.6659 100.698 21.5826 97.2231 21.5826C94.9845 21.5826 92.893 23.184 92.2502 25.6429C92.1359 26.0501 92.0269 26.5386 92.0269 26.9837L92.0215 30.0669ZM109.282 10.965H112.572V37.4005H109.282V10.965ZM119.184 28.9867C119.255 33.4162 122.098 35.2455 125.382 35.2455C127.735 35.2455 129.157 34.8384 130.388 34.3172L130.949 36.6622C129.794 37.1834 127.812 37.7805 124.936 37.7805C119.369 37.7805 116.041 34.1327 116.041 28.6936C116.041 23.2545 119.255 18.9717 124.522 18.9717C130.426 18.9717 131.995 24.1448 131.995 27.4614C131.995 28.1345 131.924 28.6502 131.88 28.9867H119.184ZM128.825 26.6417C128.863 24.5573 127.964 21.3166 124.266 21.3166C120.938 21.3166 119.484 24.3727 119.222 26.6417H128.825Z" fill="black"/>
</g>
<defs>
<clipPath id="clip0_3663_499">
<rect width="132" height="45" fill="white"/>
</clipPath>
</defs>
</svg>
