<svg width="151" height="45" viewBox="0 0 151 45" fill="none" xmlns="http://www.w3.org/2000/svg">
<path d="M0 0H150.336V45H0V0Z" fill="#FFC915"/>
<path d="M62.0509 13.4037C64.406 13.4037 66.6778 14.1996 68.3984 15.6078V13.7244H71.6265V34.2204H68.3984V32.3452C66.7072 33.7452 64.4354 34.5368 62.0509 34.5368C59.1277 34.5368 56.4676 33.4578 54.5634 31.4994C52.6758 29.566 51.6402 26.8994 51.6402 23.9868C51.6402 21.0704 52.6799 18.3954 54.5634 16.4536C56.4717 14.487 59.1318 13.4037 62.0509 13.4037ZM39.7051 13.3286C42.3485 13.3286 44.7456 14.2912 46.4618 16.0452C48.2868 17.912 49.2597 20.5327 49.2807 23.6329V24.6868H32.656C32.8566 28.537 35.8007 31.3953 39.6299 31.3953C42.3779 31.3953 44.3448 30.2244 45.8229 27.712L46.0027 27.4078L48.8006 29.2036L48.6377 29.4828C46.7417 32.7369 43.6264 34.4577 39.6258 34.4577C33.5916 34.4577 29.378 30.1203 29.378 23.912C29.378 17.7786 33.7211 13.3286 39.7051 13.3286ZM125.576 13.3286C128.219 13.3286 130.616 14.2912 132.333 16.0452C134.158 17.912 135.131 20.5327 135.152 23.6329V24.6868H118.527C118.727 28.537 121.672 31.3953 125.501 31.3953C128.249 31.3953 130.216 30.2244 131.694 27.712L131.874 27.4078L134.671 29.2036L134.509 29.4828C132.613 32.7369 129.497 34.4577 125.497 34.4577C119.463 34.4577 115.249 30.1203 115.245 23.912C115.245 17.7786 119.592 13.3286 125.576 13.3286ZM28.1335 13.6828V16.7453H18.7794V34.216H15.5137V13.6828H28.1335ZM104.88 13.4037C109.557 13.4037 112.464 16.6077 112.464 21.7661V34.1785H109.198V21.7661C109.198 18.5452 107.348 16.4661 104.483 16.4661C100.8 16.4661 99.4888 18.9994 99.4888 21.3703V34.1828H96.2231V21.7704C96.2231 18.4995 94.4316 16.4704 91.546 16.4704C89.1699 16.4704 86.6308 18.3119 86.6308 21.0538V34.1703H83.3651V13.6785H86.6308V15.6663C87.9795 14.1994 89.9006 13.4034 92.143 13.4034C95.4629 13.4034 97.2796 15.0785 98.2567 16.6661C99.7435 14.587 102.124 13.4037 104.88 13.4037ZM79.1265 7.63281V34.1785H75.8608V7.63281H79.1265ZM61.888 16.6661C57.9084 16.6661 54.9057 19.8163 54.9057 23.9912C54.9057 28.1453 57.9084 31.2743 61.888 31.2787C66.0182 31.2787 68.791 28.3495 68.791 23.9912C68.791 19.6122 66.0182 16.6661 61.888 16.6661ZM39.6299 16.387C36.3394 16.387 33.5914 18.5704 32.8064 21.7454H45.9608C45.3845 18.5245 42.8872 16.387 39.6299 16.387ZM125.497 16.387C122.206 16.387 119.458 18.5704 118.673 21.7454H131.828C131.251 18.5245 128.754 16.387 125.497 16.387Z" fill="#111111"/>
</svg>
