<svg width="115" height="20" viewBox="0 0 115 20" fill="none" xmlns="http://www.w3.org/2000/svg">
<path fill-rule="evenodd" clip-rule="evenodd" d="M112.942 16.1566C112.71 16.1522 112.479 16.1942 112.263 16.2801C112.047 16.366 111.85 16.494 111.685 16.6568C111.519 16.8195 111.387 17.0137 111.297 17.228C111.207 17.4422 111.161 17.6722 111.161 17.9045C111.161 18.1369 111.207 18.3669 111.297 18.5811C111.387 18.7954 111.519 18.9896 111.685 19.1523C111.85 19.3151 112.047 19.4431 112.263 19.529C112.479 19.6149 112.71 19.6569 112.942 19.6525C113.172 19.6523 113.399 19.6068 113.611 19.5185C113.823 19.4303 114.015 19.3011 114.177 19.1383C114.339 18.9756 114.467 18.7825 114.555 18.5701C114.642 18.3577 114.686 18.1302 114.685 17.9006C114.685 17.6716 114.64 17.4448 114.553 17.2332C114.465 17.0216 114.337 16.8294 114.175 16.6674C114.013 16.5054 113.821 16.377 113.609 16.2893C113.398 16.2017 113.171 16.1566 112.942 16.1566ZM112.942 19.4423C112.74 19.4425 112.539 19.4028 112.352 19.3253C112.165 19.2479 111.996 19.1343 111.853 18.991C111.71 18.8477 111.597 18.6777 111.52 18.4905C111.443 18.3034 111.404 18.1029 111.404 17.9006C111.405 17.6989 111.444 17.4992 111.522 17.313C111.599 17.1267 111.712 16.9575 111.855 16.8151C111.998 16.6727 112.168 16.5599 112.354 16.4831C112.54 16.4062 112.74 16.3669 112.942 16.3674C113.143 16.3674 113.343 16.4071 113.529 16.4841C113.715 16.5612 113.883 16.6741 114.026 16.8165C114.168 16.9589 114.281 17.1279 114.358 17.3139C114.435 17.4999 114.475 17.6993 114.474 17.9006C114.475 18.1025 114.437 18.3027 114.36 18.4896C114.283 18.6765 114.171 18.8464 114.028 18.9896C113.886 19.1329 113.717 19.2466 113.53 19.3243C113.344 19.4019 113.144 19.442 112.942 19.4423Z" fill="black"/>
<path fill-rule="evenodd" clip-rule="evenodd" d="M113.839 17.437C113.839 17.2721 113.766 17.0986 113.62 17.0159C113.473 16.9288 113.308 16.9202 113.144 16.9202H112.292V18.8739H112.531V17.9728H112.97L113.528 18.8739H113.812L113.221 17.9728C113.57 17.963 113.839 17.8214 113.839 17.437ZM112.896 17.7846H112.53V17.0937H113.088C113.33 17.0937 113.597 17.1305 113.597 17.4327C113.597 17.8306 113.17 17.7846 112.896 17.7846ZM102.695 7.99179L106.269 4.17581C106.476 3.89566 106.579 3.6995 106.579 3.53154C106.579 3.2514 106.339 3.13922 105.581 3.13922H104.679V0.730094H114.439V3.13922H113.157C111.676 3.13922 111.401 3.36296 109.334 5.96825L103.681 12.0738V15.7997C103.681 16.7529 104.162 17.0882 105.54 17.0882H107.674V19.4127H94.0036V17.0882H96.1381C97.5149 17.0882 97.9973 16.7529 97.9973 15.7997V12.0738L91.3382 4.70729C90.2379 3.41936 90.3899 3.13922 87.3261 3.13922V0.730094H99.6892V3.13922H98.8089C97.9133 3.13922 97.5339 3.30718 97.5339 3.64311C97.5339 3.92386 97.8091 4.14761 97.9814 4.37136L101.35 8.04328C101.751 8.45951 102.239 8.51346 102.695 7.99179ZM19.745 0.729481H22.7273V7.45172H19.973C19.7291 6.10801 18.888 5.58511 18.1211 4.88016C16.7376 3.60878 13.7412 2.55011 11.2211 2.55011C7.96849 2.55011 5.22344 3.55912 5.22344 5.0426C5.22344 9.16079 23.8252 5.88365 23.8252 13.6701C23.8252 17.7313 19.8406 20 12.685 20C10.2078 20 6.45927 19.2313 4.24753 18.0568C3.55422 17.6565 3.25998 18.4356 3.13002 19.4121H0.072335V12.4655H2.83823C3.44817 14.2304 4.2886 14.5939 5.06161 15.2945C6.40287 16.5273 9.59542 17.4241 12.5231 17.3953C16.9374 17.3518 18.4552 16.3869 18.4552 14.9862C18.4552 13.5861 16.954 13.2496 12.1167 12.4937L8.00956 11.8212C3.37461 11.1206 0 10.0846 0 6.38754C0 2.55011 4.26899 0.140989 11.0188 0.140989C13.8632 0.140989 16.2429 0.521058 18.5269 1.81205C19.1596 2.22338 19.753 2.27242 19.745 0.729481ZM77.9464 11.9843L78.0053 4.51296C78.0053 3.53276 77.4953 3.19683 76.0381 3.19683H74.326V0.872308H85.2192V3.19683H83.7994C82.3411 3.19683 81.8311 3.53338 81.8311 4.51296V19.5543L77.5676 19.5206L63.7602 6.44578V15.9413C63.7602 16.8939 64.2702 17.2574 65.7273 17.2574H67.6228V19.5543H56.3097V17.2574H58.1843C59.6414 17.2574 60.1514 16.8933 60.1514 15.9413V4.51296C60.1514 3.53276 59.6414 3.19683 58.1843 3.19683H56.3097V0.872308H66.0909L77.9464 11.9843ZM41.4584 0C32.7769 0 27.3426 3.83804 27.3426 9.99938C27.3426 16.0504 32.7015 19.859 41.1935 19.859C50.2133 19.859 55.4601 16.1062 55.4601 9.69166C55.4607 3.92202 49.7989 0 41.4584 0ZM41.261 17.4229C36.4556 17.4229 33.6934 14.6497 33.6934 9.85962C33.6934 5.18237 36.5757 2.40912 41.5013 2.40912C46.2263 2.40912 48.9885 5.23877 48.9885 10.0564C48.9885 14.7618 46.1859 17.4229 41.261 17.4229Z" fill="black"/>
</svg>
