<svg width="132" height="26" viewBox="0 0 132 26" fill="none" xmlns="http://www.w3.org/2000/svg">
<g clip-path="url(#clip0_3663_528)">
<path d="M126.374 3.29268C126.374 1.80488 127.578 0.585366 129.052 0.585366C129.765 0.585366 130.428 0.878049 130.944 1.36585C131.46 1.87805 131.73 2.56098 131.73 3.26829C131.73 3.97561 131.46 4.65854 130.944 5.17073C130.428 5.68293 129.765 5.97561 129.052 5.97561C127.578 5.97561 126.374 4.78049 126.374 3.29268ZM126.153 3.29268C126.153 4.90244 127.455 6.21951 129.077 6.21951C129.863 6.21951 130.575 5.92683 131.116 5.36585C131.656 4.80488 131.976 4.07317 131.976 3.29268C131.976 2.5122 131.681 1.78049 131.116 1.21951C130.551 0.658537 129.838 0.365854 129.077 0.365854C127.455 0.365854 126.153 1.68293 126.153 3.29268ZM127.971 5.02439H128.389V3.65854H129.322C129.47 3.65854 129.593 3.65854 129.691 3.70732C129.814 3.78049 129.887 3.92683 129.912 4.12195L129.961 4.65854V4.90244C129.986 4.95122 129.986 4.97561 130.01 5H130.526V4.92683C130.452 4.90244 130.428 4.82927 130.403 4.73171C130.379 4.68293 130.379 4.58537 130.379 4.46341L130.354 4.04878C130.354 3.85366 130.305 3.73171 130.256 3.65854C130.182 3.58537 130.084 3.51219 129.961 3.46341C130.109 3.39024 130.207 3.29268 130.281 3.17073C130.354 3.04878 130.379 2.90244 130.379 2.70732C130.379 2.34146 130.231 2.09756 129.961 1.95122C129.814 1.87805 129.617 1.85366 129.396 1.85366H127.996L127.971 5.02439ZM128.364 3.29268V2.19512H129.347C129.494 2.19512 129.617 2.21951 129.691 2.26829C129.838 2.34146 129.912 2.51219 129.912 2.73171C129.912 2.95122 129.863 3.09756 129.74 3.17073C129.642 3.2439 129.494 3.29268 129.298 3.29268H128.364ZM11.9641 7.31707L0.0244141 25.9512H8.18078L19.6783 8.14634L11.9641 7.31707ZM61.1234 6.90244V0H37.9073C34.7381 0.195122 33.3623 1.70732 32.3305 2.78049C31.225 3.92683 30.6108 6.34146 30.6108 6.34146V0.0487805H18.2534C17.3198 0.0487805 16.4354 0.439024 15.7721 1.36585C15.0842 2.26829 12.259 6.90244 12.259 6.90244H61.1234ZM124.262 6.90244V0H99.4239C96.2793 0.195122 94.879 1.70732 93.8471 2.78049C92.7416 3.92683 92.1274 6.34146 92.1274 6.34146V6.90244H124.262ZM69.2798 0.0243902H62.3272V6.90244H69.2798V0.0243902ZM92.0537 0.0243902H85.1257V6.90244H92.0537V0.0243902ZM92.0537 9.39024L85.224 8.97561V16.9512C85.224 16.9512 85.1994 19.2439 82.9638 19.2439H71.2697C71.2697 19.2439 69.2798 19.0732 69.2798 16.9756V7.90244L62.4009 7.41463V19.6341C63.5065 25.4878 68.8376 25.9512 68.8376 25.9512C68.8376 25.9512 69.3781 25.9756 69.4763 26H85.3223C85.3223 26 92.1029 25.4634 92.1029 18.9756L92.0537 9.39024ZM23.5354 25.9512H56.0134C61.6639 24.8293 62.2535 19.7073 62.2535 19.7073C62.5238 18.1951 62.3764 16.9512 62.3764 16.9512C62.2044 15.9268 60.239 11.3902 56.0134 11C53.483 10.7561 30.9547 8.97561 30.9547 8.97561C31.3969 11.2195 32.4042 12.3659 33.0921 13C34.6644 14.4878 37.1457 14.9268 37.1457 14.9268L54.5148 16.3659C55.0553 16.3902 56.0625 16.5366 56.038 17.8537C56.038 18.0244 55.8906 19.1707 54.6131 19.1707H30.316V8.92683L23.5599 8.43902C23.5354 8.43902 23.5354 25.9512 23.5354 25.9512ZM92.1029 26H116.965C123.205 25.6341 124.09 19.7561 124.09 19.7561C124.311 18.2195 124.139 16.9512 124.139 16.9512C123.967 15.561 121.977 11.3659 117.727 10.9512C115.221 10.7073 92.5451 9.39024 92.5451 9.39024C93.2084 11.7073 94.1174 12.4146 94.8053 13.0488C96.3776 14.561 98.7115 14.9024 98.7115 14.9024C99.3011 14.9512 116.253 16.3659 116.253 16.3659C116.793 16.3902 117.899 16.439 117.899 17.7561C117.899 18.1463 117.702 18.561 117.456 18.7805C117.456 18.7805 116.867 19.0976 116.302 19.0976H92.1766L92.1029 26Z" fill="#00539B"/>
</g>
<defs>
<clipPath id="clip0_3663_528">
<rect width="132" height="26" fill="white"/>
</clipPath>
</defs>
</svg>
