<svg width="171" height="45" viewBox="0 0 171 45" fill="none" xmlns="http://www.w3.org/2000/svg">
<g clip-path="url(#clip0_3663_530)">
<path d="M124.567 28.1614C121.154 28.1614 118.376 25.3787 118.376 21.9608C118.376 18.5421 121.154 15.7602 124.567 15.7602C127.979 15.7602 130.756 18.5421 130.756 21.9608C130.756 25.4128 127.945 28.1614 124.567 28.1614ZM124.567 12.0729C119.113 12.0729 114.696 16.4978 114.696 21.9608C114.696 27.4238 119.113 31.8479 124.567 31.8479C130.02 31.8479 134.437 27.4238 134.437 21.9608C134.437 16.5311 130.02 12.0729 124.567 12.0729ZM112.488 28.6637H113.291V32.3837H112.488C108.239 32.3837 104.759 28.8982 104.759 24.6418V7.64875H108.473V12.6094H113.257V16.33H108.473V24.6752C108.473 26.8539 110.28 28.6637 112.488 28.6637ZM157.723 28.1614C154.311 28.1614 151.534 25.3787 151.534 21.9608C151.534 18.5421 154.311 15.7602 157.723 15.7602C161.136 15.7602 163.913 18.5421 163.913 21.9608C163.88 25.4128 161.103 28.1614 157.723 28.1614ZM157.723 12.0729C152.27 12.0729 147.853 16.4978 147.853 21.9608C147.853 27.4238 152.27 31.8479 157.723 31.8479C163.177 31.8479 167.594 27.4238 167.594 21.9608C167.594 16.5311 163.177 12.0729 157.723 12.0729ZM186.13 28.1614C182.717 28.1614 179.94 25.3787 179.94 21.9608C179.94 18.5421 182.717 15.7602 186.13 15.7602C189.543 15.7602 192.32 18.5421 192.32 21.9608C192.32 25.4128 189.509 28.1606 186.13 28.1606M186.13 12.0729C180.676 12.0729 176.259 16.4978 176.259 21.9608C176.259 27.4238 180.676 31.8479 186.13 31.8479C188.539 31.8479 190.747 30.976 192.454 29.5349V31.4791H196V22.262V21.96C196 16.5304 191.583 12.0729 186.13 12.0729ZM144.641 12.0736H146.415V15.7935H144.641C142.434 15.7935 140.626 17.6042 140.626 19.8155V31.6134H136.913V19.8155C136.913 15.5591 140.392 12.0736 144.641 12.0736ZM170.07 7.14638H173.784V31.5459H170.07V7.14638ZM80.0666 20.3179V32.0824H76.3523V20.3179C76.3523 18.1058 74.5455 16.2959 72.3372 16.2959C70.1297 16.2959 68.3222 18.1058 68.3222 20.3179V32.0816H64.6086V20.3179C64.6086 18.1058 62.8011 16.2959 60.5935 16.2959C58.386 16.2959 56.5784 18.1058 56.5784 20.3179V32.0816H52.8649V20.3179C52.8649 16.0607 56.3444 12.5753 60.5602 12.5753C62.9359 12.5753 65.0101 13.6141 66.4487 15.2904C67.8873 13.6141 69.9615 12.5753 72.338 12.5753C76.5864 12.5753 80.0666 16.0607 80.0666 20.3179ZM92.4459 28.6637C89.0331 28.6637 86.2559 25.8818 86.2559 22.4631C86.2559 19.0445 89.0339 16.2625 92.4459 16.2625C95.8587 16.2625 98.636 19.0452 98.636 22.4631C98.636 25.8818 95.8254 28.6637 92.4459 28.6637ZM92.4459 12.576C86.9589 12.576 82.5416 17.0001 82.5416 22.4631C82.5416 27.9261 86.9589 32.3503 92.4126 32.3503C97.8663 32.3503 102.283 27.9261 102.283 22.4631C102.316 17.0335 97.8996 12.576 92.4459 12.576ZM22.4503 0.0078125C10.0377 0.0078125 0 10.0627 0 22.4965C0 34.9304 10.0377 44.986 22.4503 44.986C34.8637 44.986 44.9014 34.9311 44.9014 22.4965C44.9014 10.1294 34.9971 0.0078125 22.4503 0.0078125Z" fill="black"/>
<path d="M29.1427 5.53906L22.4845 27.6597L22.4504 27.6931L22.3837 27.6597L15.7255 5.53906L7.12646 33.8603H8.73249C8.73249 33.8603 9.80367 28.9331 11.5771 25.9842C12.5476 24.3754 14.0195 23.0679 15.993 23.1013C17.3982 23.1354 18.6028 23.9057 20.1088 26.0175C20.4429 26.4865 20.8444 27.2575 21.2459 27.9951C21.8822 29.2344 22.4171 30.5085 22.4171 30.5085C22.4171 30.5085 23.8224 27.2909 24.7261 26.0175C26.2314 23.9057 27.4359 23.1354 28.8412 23.1013C30.8154 23.0679 32.3207 24.3754 33.2578 25.9842C35.0312 28.9331 36.1024 33.8603 36.1024 33.8603H37.7077L29.1427 5.53906Z" fill="white"/>
</g>
<defs>
<clipPath id="clip0_3663_530">
<rect width="196" height="45" fill="white"/>
</clipPath>
</defs>
</svg>
