<svg width="124" height="23" viewBox="0 0 124 23" fill="none" xmlns="http://www.w3.org/2000/svg">
<path d="M-21.8 16.376V14.7737H-16.2084V16.8118C-16.2128 17.0795 -16.1599 17.3451 -16.0535 17.5906C-15.947 17.8362 -15.7893 18.056 -15.5912 18.2352C-15.393 18.4145 -15.1589 18.549 -14.9046 18.6298C-14.6503 18.7106 -14.3817 18.7358 -14.1168 18.7036C-13.6645 18.7652 -13.2056 18.6539 -12.8311 18.3918C-12.4566 18.1296 -12.194 17.7357 -12.0952 17.2882C-11.9455 16.7756 -11.9583 16.2289 -12.1316 15.7239C-13.2138 12.9915 -20.6086 11.7546 -21.548 7.49578C-21.7393 6.56021 -21.7512 5.59661 -21.583 4.65658C-21.0062 1.23688 -18.013 0 -14.2974 0C-11.3392 0 -7.26245 0.691529 -7.26245 5.27642V6.76912H-12.4564V5.45915C-12.4408 5.20094 -12.4809 4.94239 -12.5742 4.70126C-12.6675 4.46013 -12.8117 4.24213 -12.9969 4.06224C-13.182 3.88236 -13.4038 3.74485 -13.6469 3.65917C-13.89 3.57348 -14.1487 3.54166 -14.4052 3.56587C-14.8433 3.51745 -15.2834 3.63674 -15.6377 3.89991C-15.992 4.16308 -16.2343 4.55075 -16.3162 4.98548C-16.3746 5.34845 -16.3623 5.71935 -16.2798 6.07759C-15.668 8.51481 -7.76645 9.82618 -6.89985 14.2298C-6.68327 15.371 -6.67142 16.542 -6.86485 17.6874C-7.37025 21.1788 -10.4726 22.4888 -14.2232 22.4888C-18.16 22.4888 -21.8 21.0692 -21.8 16.376ZM45.9487 16.3043V14.702H51.4689V16.7035C51.4603 16.9689 51.5088 17.233 51.6111 17.4778C51.7135 17.7226 51.8673 17.9423 52.062 18.122C52.2568 18.3016 52.4879 18.4369 52.7395 18.5186C52.9911 18.6003 53.2573 18.6265 53.52 18.5954C53.9683 18.6625 54.4253 18.5574 54.7998 18.301C55.1743 18.0446 55.4387 17.6558 55.5402 17.2123C55.6898 16.7117 55.6775 16.1763 55.5051 15.6831C54.4579 12.9915 47.1346 11.7476 46.198 7.49578C46.0064 6.57261 45.994 5.621 46.1615 4.69312C46.7425 1.30997 49.74 0.0730885 53.38 0.0730885C56.3032 0.0730885 60.3421 0.801162 60.3421 5.31297V6.76912H55.1845V5.49569C55.201 5.24067 55.1626 4.98507 55.072 4.74625C54.9814 4.50742 54.8407 4.29095 54.6595 4.11151C54.4782 3.93208 54.2607 3.79387 54.0215 3.70628C53.7824 3.61868 53.5273 3.58374 53.2736 3.60382C52.8435 3.54657 52.408 3.65856 52.0583 3.91636C51.7087 4.17416 51.4719 4.55777 51.3976 4.98688C51.3386 5.34975 51.3504 5.72068 51.4325 6.07899C52.0093 8.51621 59.8326 9.79104 60.7048 14.1567C60.9211 15.2857 60.9329 16.4446 60.7398 17.5778C60.2344 21.072 57.1684 22.3454 53.4597 22.3454C49.558 22.3482 45.9487 20.9244 45.9487 16.3043ZM65.7181 17.0704C65.6679 16.6107 65.6562 16.1476 65.6832 15.6859V0.61844H70.95V16.1568C70.9431 16.4243 70.9548 16.692 70.985 16.9579C71.1025 17.3961 71.3606 17.7831 71.7193 18.0591C72.0781 18.3351 72.5175 18.4847 72.9694 18.4847C73.4214 18.4847 73.8608 18.3351 74.2195 18.0591C74.5783 17.7831 74.8364 17.3961 74.9539 16.9579C74.9852 16.6921 74.9974 16.4244 74.9903 16.1568V0.61844H80.2599V15.6831C80.2599 16.0837 80.2235 16.8483 80.2235 17.0676C79.8637 21.0031 76.7963 22.2681 72.9729 22.2681C69.1496 22.2681 66.0794 20.9961 65.7181 17.0676V17.0704ZM109.082 16.8511C109.028 16.3898 109.004 15.9255 109.009 15.461V6.62294C109.009 6.2589 109.044 5.60392 109.08 5.23847C109.549 1.30997 112.688 0.0730885 116.404 0.0730885C120.084 0.0730885 123.33 1.30997 123.692 5.23988C123.735 5.70002 123.747 6.1626 123.727 6.62434V7.30885H118.46V6.15068C118.461 5.88198 118.437 5.61379 118.389 5.34951C118.251 4.90584 117.975 4.51814 117.601 4.24287C117.228 3.9676 116.777 3.81916 116.314 3.81916C115.851 3.81916 115.4 3.9676 115.027 4.24287C114.654 4.51814 114.378 4.90584 114.239 5.34951C114.178 5.67368 114.154 6.00378 114.168 6.3334V15.9389C114.162 16.2065 114.174 16.4742 114.204 16.7401C114.329 17.2165 114.619 17.6326 115.023 17.9134C115.426 18.1943 115.915 18.3215 116.404 18.2721C116.883 18.3234 117.365 18.1961 117.757 17.9145C118.149 17.6328 118.425 17.2164 118.532 16.7443C118.58 16.4802 118.593 16.2106 118.568 15.9431V12.8818H116.44V9.82477H123.8V15.461C123.805 15.9231 123.781 16.3851 123.727 16.8441C123.367 20.6644 120.087 22.0109 116.404 22.0109C112.72 22.0109 109.442 20.6686 109.082 16.8483V16.8511ZM35.6685 21.6145L35.5286 2.18282L31.9165 21.6145H26.6497L23.077 2.18282L22.937 21.6145H17.7388L18.1713 0.654984H26.6497L29.2831 17.031L31.9165 0.654984H40.3936L40.8625 21.6145H35.6685ZM7.96255 21.6145L5.14855 2.18282L2.26175 21.6145H-3.36485L0.459949 0.654984H9.73215L13.557 21.6145H7.96255ZM96.1303 21.3966L90.8999 3.96645L91.1884 21.3952H86.0643V0.654984H93.7839L98.6839 17.5398L98.4025 0.654984H103.562V21.3981L96.1303 21.3966Z" fill="black"/>
</svg>
