<svg width="187" height="188" viewBox="0 0 187 188" fill="none" xmlns="http://www.w3.org/2000/svg">
<path d="M28.432 53.771C28.2695 53.9335 28.2695 53.9335 28.107 54.096C27.9446 54.096 27.7821 54.096 27.6196 54.096L25.5076 52.7962C25.3451 52.6338 25.1826 52.6338 25.1826 52.4713C25.1826 52.3088 25.1826 52.1464 25.1826 51.9839L26.4824 49.8718C26.6448 49.7093 26.6448 49.7093 26.8073 49.5469C26.9698 49.5469 27.1322 49.5469 27.2947 49.7093L29.4068 51.0091C29.5692 51.1715 29.5692 51.1715 29.7317 51.334C29.8942 51.4965 29.7317 51.659 29.7317 51.8214L28.432 53.771Z" fill="#191919"/>
<path d="M36.0677 42.8913C35.9053 43.0538 35.7428 43.0538 35.5803 43.0538C35.4179 43.0538 35.2554 43.0538 35.0929 42.8913L23.8827 31.6811C23.7202 31.5186 23.7202 31.3562 23.7202 31.1937C23.7202 31.0312 23.7202 30.8687 23.8827 30.7063L31.5186 23.2328C31.6811 23.0703 31.8436 23.0703 32.0061 23.0703C32.1685 23.0703 32.331 23.0703 32.4935 23.2328L33.6307 24.3701C33.7932 24.5325 33.7932 24.695 33.7932 24.8575C33.7932 25.0199 33.7932 25.1824 33.6307 25.3449L27.9444 30.8687L31.0312 33.9556L36.3927 28.7567C36.5551 28.5942 36.7176 28.5942 36.8801 28.5942C37.0425 28.5942 37.205 28.5942 37.3675 28.7567L38.5048 29.8939C38.6672 30.0564 38.6672 30.2189 38.6672 30.3813C38.6672 30.5438 38.6672 30.7063 38.5048 30.8687L33.1433 36.0677L36.2302 39.1546L42.079 33.3058C42.2415 33.1433 42.404 33.1433 42.5664 33.1433C42.7289 33.1433 42.8914 33.1433 43.0538 33.3058L44.1911 34.443C44.3536 34.6055 44.3536 34.768 44.3536 34.9304C44.3536 35.0929 44.3536 35.2554 44.1911 35.4178L36.0677 42.8913Z" fill="#191919"/>
<path d="M45.9781 33.4678C45.8157 33.4678 45.6532 33.6303 45.6532 33.4678C45.6532 33.3054 45.4907 33.3054 45.3283 33.3054V33.1429V32.9804L45.6532 23.3949L37.2049 19.8206C37.0424 19.8206 37.0424 19.6581 37.0424 19.6581C37.0424 19.4956 36.88 19.3332 37.0424 19.3332C37.2049 19.3332 37.2049 19.1707 37.2049 19.0082L39.317 17.7085C39.4794 17.546 39.6419 17.546 39.8044 17.546C39.9668 17.546 40.1293 17.546 40.2918 17.7085L46.1406 20.1455L46.3031 13.8093C46.3031 13.6468 46.3031 13.4843 46.3031 13.3219C46.3031 13.1594 46.4655 12.9969 46.628 12.9969L48.5776 11.6972C48.7401 11.6972 48.9025 11.5347 48.9025 11.6972C48.9025 11.8597 49.065 11.8597 49.2275 11.8597C49.2275 12.0221 49.2275 12.0221 49.2275 12.1846L48.9025 21.1203L57.8383 24.6946C57.8383 24.6946 58.0007 24.6946 58.0007 24.8571C58.0007 24.8571 58.0007 24.8571 58.1632 25.0195C58.1632 25.182 58.3257 25.3445 58.1632 25.3445C58.1632 25.5069 58.0007 25.6694 58.0007 25.6694L55.8886 27.1316C55.7262 27.2941 55.5637 27.2941 55.4012 27.2941C55.2388 27.2941 55.0763 27.2941 55.0763 27.1316L48.7401 24.6946L48.5776 31.3558C48.5776 31.5182 48.5776 31.6807 48.5776 31.6807C48.5776 31.6807 48.4151 32.0056 48.2527 32.0056L45.9781 33.4678Z" fill="#191919"/>
<path d="M66.1247 22.5841C64.6625 23.0715 63.3627 23.3965 62.2255 23.234C61.0882 23.0715 60.1134 22.7466 59.1386 21.9342C58.3263 21.2844 57.5139 20.3096 57.0265 19.0098C56.7016 18.36 56.5391 17.7101 56.2142 17.0602C55.8892 16.4103 55.7268 15.598 55.4018 14.9481C54.9144 13.6484 54.752 12.5111 54.9144 11.3739C55.0769 10.2366 55.5643 9.26178 56.3767 8.44945C57.189 7.63711 58.3263 6.82477 59.626 6.33737C60.6008 6.01243 61.5756 5.6875 62.5504 5.6875C63.5252 5.6875 64.3376 5.6875 65.1499 6.01243C65.9622 6.1749 66.6121 6.49984 67.0995 6.98724C67.5869 7.47464 68.2368 8.12451 68.3992 8.93685C68.3992 9.09932 68.3992 9.26178 68.3992 9.26178C68.3992 9.26178 68.2368 9.42425 68.2368 9.58672L66.1247 10.3991C65.9622 10.3991 65.7998 10.3991 65.6373 10.3991C65.4748 10.3991 65.3124 10.2366 65.3124 10.0741C64.6625 9.09932 64.0126 8.61191 63.2003 8.44945C62.3879 8.28698 61.7381 8.44945 60.7633 8.77438C59.7885 9.09932 58.9761 9.74919 58.6512 10.5615C58.3263 11.3739 58.3263 12.3487 58.8137 13.8109C59.3011 15.1106 59.7885 16.4103 60.2759 17.5476C60.7633 18.8474 61.5756 19.6597 62.3879 19.9846C63.2003 20.3096 64.1751 20.3096 65.1499 19.8222C65.9622 19.4972 66.7746 19.0098 67.0995 18.36C67.4244 17.7101 67.7494 16.8978 67.5869 15.9229C67.5869 15.7605 67.5869 15.598 67.5869 15.4355C67.5869 15.2731 67.7494 15.2731 67.9118 15.1106L70.0239 14.2983C70.1864 14.2983 70.3488 14.2983 70.3488 14.2983C70.5113 14.2983 70.5113 14.4607 70.6738 14.6232C70.9987 15.4355 70.9987 16.0854 70.9987 16.8978C70.9987 17.7101 70.6738 18.36 70.3488 19.0098C70.0239 19.6597 69.374 20.3096 68.7242 20.9594C67.9118 21.6093 67.0995 22.0967 66.1247 22.5841Z" fill="#191919"/>
<path d="M76.1971 19.0122C76.0346 19.0122 75.8722 19.0122 75.7097 18.8497C75.5472 18.6873 75.5472 18.6873 75.5472 18.5248L72.9478 2.92793C72.9478 2.76546 72.9478 2.60299 73.1102 2.44053C73.2727 2.27806 73.2727 2.27806 73.4352 2.27806L75.7097 1.95312C75.8722 1.95312 76.0346 1.95312 76.1971 2.11559C76.3596 2.27806 76.3596 2.27806 76.3596 2.44053L78.6341 15.7629L86.1076 14.4631C86.2701 14.4631 86.4325 14.4631 86.595 14.6256C86.7575 14.7881 86.7575 14.7881 86.7575 14.9505L87.0824 16.5752C87.0824 16.7377 87.0824 16.9001 86.9199 17.0626C86.7575 17.2251 86.7575 17.2251 86.595 17.2251L76.1971 19.0122Z" fill="#191919"/>
<path d="M96.0184 17.5465C94.5562 17.5465 93.4189 17.2215 92.2816 16.7341C91.1443 16.2467 90.4945 15.4344 90.0071 14.4596C89.5197 13.4848 89.1947 12.1851 89.3572 10.5604L89.6821 0.64987C89.6821 0.487402 89.6821 0.324935 89.8446 0.162467C90.0071 0 90.0071 0 90.1695 0H92.4441C92.6066 0 92.769 0 92.9315 0.162467C93.094 0.324935 93.094 0.487402 93.094 0.64987L92.6066 10.5604C92.6066 11.8601 92.769 12.8349 93.4189 13.4848C94.0688 14.2971 95.0436 14.6221 96.0184 14.6221C96.9932 14.6221 97.968 14.2971 98.6178 13.8097C99.2677 13.3223 99.5927 12.1851 99.5927 10.8853L99.9176 0.974805C99.9176 0.812337 99.9176 0.64987 100.08 0.487402C100.243 0.324935 100.405 0.324935 100.567 0.324935H102.68C102.842 0.324935 103.004 0.324935 103.167 0.487402C103.329 0.64987 103.329 0.812337 103.329 0.974805L103.004 10.8853C103.004 12.51 102.68 13.6473 102.03 14.6221C101.38 15.5969 100.567 16.2467 99.5927 16.7341C98.6178 17.2215 97.4806 17.5465 96.0184 17.5465Z" fill="#191919"/>
<path d="M112.265 19.8205C110.803 19.4955 109.665 18.8456 108.69 18.1958C107.878 17.5459 107.228 16.7336 106.903 15.9212C106.578 15.1089 106.416 14.2966 106.578 13.4842C106.578 13.3218 106.741 13.1593 106.741 13.1593C106.903 13.1593 107.066 12.9968 107.066 13.1593L109.178 13.6467C109.34 13.6467 109.503 13.8092 109.665 13.9716C109.665 14.1341 109.828 14.1341 109.828 14.2966C109.828 14.6215 109.99 14.9464 110.153 15.2714C110.315 15.5963 110.64 15.9212 111.127 16.2462C111.615 16.5711 112.102 16.7336 112.752 16.896C113.889 17.221 114.702 17.221 115.514 16.896C116.164 16.7336 116.651 16.2462 116.814 15.5963C116.976 15.1089 116.814 14.784 116.651 14.459C116.489 14.1341 116.001 13.8092 115.514 13.3218C115.027 12.8344 114.214 12.5094 113.24 12.022C112.102 11.5346 111.127 10.8847 110.478 10.3973C109.828 9.74747 109.34 9.0976 109.015 8.44773C108.69 7.79786 108.69 6.82306 109.015 6.01072C109.178 5.03592 109.665 4.38605 110.315 3.73618C110.965 3.08631 111.777 2.76137 112.915 2.5989C113.889 2.43644 115.027 2.43644 116.326 2.76137C117.301 3.08631 118.276 3.41124 118.926 3.89864C119.576 4.38605 120.226 4.87345 120.551 5.52332C121.038 6.17319 121.2 6.66059 121.363 7.31046C121.525 7.96033 121.525 8.44773 121.363 8.93513C121.363 9.0976 121.2 9.0976 121.2 9.26007C121.038 9.26007 120.876 9.42254 120.876 9.26007L118.601 8.77267C118.439 8.77267 118.276 8.6102 118.276 8.6102C118.114 8.44773 118.114 8.44773 118.114 8.1228C118.114 7.6354 117.951 7.14799 117.464 6.66059C116.976 6.17319 116.326 5.84825 115.514 5.68579C114.702 5.52332 113.889 5.52332 113.402 5.68579C112.915 5.84825 112.427 6.33566 112.265 6.98553C112.102 7.47293 112.265 7.79786 112.427 8.1228C112.59 8.44773 112.915 8.77267 113.564 9.26007C114.052 9.585 114.864 10.0724 115.677 10.5598C116.976 10.8847 117.951 11.5346 118.601 12.022C119.413 12.6719 119.901 13.3218 120.063 13.9716C120.226 14.6215 120.388 15.4338 120.063 16.4086C119.738 17.3834 119.251 18.1958 118.601 18.8456C117.789 19.4955 116.976 19.8205 115.839 19.9829C114.702 20.1454 113.564 20.1454 112.265 19.8205Z" fill="#191919"/>
<path d="M122.176 22.7437C122.013 22.7437 121.851 22.5812 121.851 22.4188C121.851 22.2563 121.851 22.0938 121.851 21.9314L128.024 7.30931C128.024 7.14684 128.187 6.98438 128.349 6.98438C128.512 6.98438 128.674 6.98438 128.837 6.98438L130.949 7.95918C131.111 7.95918 131.274 8.12165 131.274 8.28411C131.274 8.44658 131.274 8.60905 131.274 8.77152L125.1 23.3936C125.1 23.5561 124.937 23.7185 124.775 23.7185C124.613 23.7185 124.45 23.7185 124.288 23.7185L122.176 22.7437Z" fill="#191919"/>
<path d="M132.899 28.109C132.736 27.9465 132.574 27.784 132.411 27.6216C132.411 27.4591 132.411 27.2966 132.411 26.9717L136.31 10.8874C136.31 10.725 136.31 10.725 136.31 10.725C136.31 10.5625 136.473 10.5625 136.635 10.5625C136.798 10.5625 136.96 10.5625 136.96 10.5625L138.747 11.6998C138.91 11.8622 139.072 12.0247 139.072 12.1872C139.072 12.3496 139.072 12.5121 139.072 12.6746L135.823 25.5095L145.896 17.0612C146.058 17.0612 146.058 16.8987 146.221 16.8987C146.383 16.8987 146.546 16.8987 146.708 17.0612L148.495 18.1985C148.658 18.1985 148.658 18.3609 148.658 18.5234C148.658 18.6859 148.658 18.8483 148.658 18.8483L148.495 19.0108L135.823 29.5712C135.66 29.7337 135.498 29.7337 135.336 29.8961C135.173 29.8961 135.011 29.8961 134.686 29.7337L132.899 28.109Z" fill="#191919"/>
<path d="M142.808 34.9319C142.646 34.7694 142.646 34.6069 142.646 34.4445C142.646 34.282 142.646 34.1195 142.808 33.9571L153.856 22.5843C154.019 22.4219 154.181 22.4219 154.344 22.4219C154.506 22.4219 154.669 22.4219 154.831 22.5843L162.629 30.0578C162.792 30.2203 162.792 30.3828 162.792 30.5452C162.792 30.7077 162.792 30.8702 162.629 31.0326L161.492 32.1699C161.33 32.3324 161.167 32.3324 161.005 32.3324C160.842 32.3324 160.68 32.3324 160.517 32.1699L154.669 26.646L151.744 29.7329L157.106 34.9319C157.268 35.0943 157.268 35.2568 157.268 35.4193C157.268 35.5817 157.268 35.7442 157.106 35.9067L155.968 36.719C155.806 36.8815 155.643 36.8815 155.481 36.8815C155.318 36.8815 155.156 36.8815 154.994 36.719L149.632 31.5201L146.545 34.7694L152.394 40.4558C152.719 40.6182 152.719 40.7807 152.719 40.9432C152.719 41.1056 152.719 41.2681 152.557 41.4306L151.419 42.5678C151.257 42.7303 151.094 42.7303 150.932 42.7303C150.769 42.7303 150.607 42.7303 150.444 42.5678L142.808 34.9319Z" fill="#191919"/>
<path d="M156.944 50.692C156.944 50.5295 156.781 50.367 156.944 50.2046C156.944 50.0421 157.106 49.8796 157.269 49.8796L170.916 41.9187C171.078 41.7563 171.241 41.7563 171.403 41.9187C171.566 41.9187 171.728 42.0812 171.728 42.2437L177.09 51.5043C177.252 51.6668 177.252 51.8292 177.09 51.9917C176.927 52.1542 176.927 52.3166 176.765 52.3166L175.303 53.129C175.14 53.2914 174.978 53.2914 174.815 53.129C174.653 53.129 174.49 52.9665 174.49 52.804L170.429 45.8179L166.692 47.93L170.429 54.4287C170.591 54.5912 170.591 54.7537 170.591 54.9161C170.591 55.0786 170.429 55.2411 170.266 55.2411L168.966 56.0534C168.804 56.2159 168.641 56.2159 168.479 56.0534C168.317 56.0534 168.154 55.8909 168.154 55.7285L164.417 49.2298L160.843 51.6668L164.905 58.8153C165.067 58.9778 165.067 59.1403 164.905 59.3027C164.905 59.4652 164.742 59.6277 164.58 59.6277L163.118 60.44C162.955 60.6025 162.793 60.6025 162.63 60.44C162.468 60.44 162.305 60.2775 162.305 60.1151L156.944 50.692Z" fill="#191919"/>
<path d="M164.255 64.0145C164.255 63.852 164.255 63.6895 164.255 63.5271C164.255 63.3646 164.417 63.3646 164.58 63.2021L179.689 58.3281C179.852 58.3281 180.014 58.3281 180.177 58.3281C180.339 58.3281 180.339 58.4906 180.502 58.6531L181.151 60.4402C181.151 60.6027 181.151 60.7651 181.151 60.9276C181.151 61.0901 180.989 61.0901 180.989 61.2525L172.866 71.3255L183.101 68.0762C183.264 68.0762 183.426 68.0762 183.589 68.0762C183.751 68.0762 183.751 68.2386 183.913 68.4011L184.563 70.3507C184.563 70.5132 184.563 70.6756 184.563 70.8381C184.563 71.0006 184.401 71.0006 184.238 71.163L169.129 76.0371C168.966 76.0371 168.804 76.0371 168.642 76.0371C168.479 76.0371 168.479 75.8746 168.317 75.7121L167.667 73.925C167.667 73.7625 167.667 73.6001 167.667 73.4376C167.667 73.2751 167.829 73.2751 167.829 73.1127L175.79 63.2021L165.88 66.4515C165.717 66.4515 165.555 66.4515 165.392 66.4515C165.23 66.4515 165.23 66.289 165.067 66.1266L164.255 64.0145Z" fill="#191919"/>
<path d="M169.291 86.4329C169.128 84.9706 169.291 83.6709 169.616 82.6961C169.941 81.5588 170.591 80.7465 171.565 80.0966C172.54 79.4468 173.677 78.9594 175.14 78.7969C175.789 78.7969 176.439 78.6344 177.252 78.6344C177.902 78.6344 178.551 78.4719 179.364 78.4719C180.826 78.3095 182.126 78.6344 183.101 79.1218C184.075 79.6092 184.888 80.4216 185.538 81.3964C186.187 82.3712 186.512 83.5084 186.675 84.9706C186.837 86.4329 186.675 87.5701 186.187 88.7074C185.862 89.8447 185.05 90.657 184.238 91.4693C183.263 92.1192 182.126 92.6066 180.664 92.7691C180.014 92.9315 179.201 92.9316 178.551 92.9316C177.902 92.9316 177.252 93.094 176.439 93.094C174.977 93.2565 173.677 92.9316 172.703 92.4442C171.728 91.9567 170.915 91.1444 170.266 90.1696C169.778 89.1948 169.453 87.8951 169.291 86.4329ZM172.053 86.2704C172.215 87.2452 172.54 88.22 173.19 88.7074C173.84 89.3573 174.977 89.5197 176.277 89.5197C176.927 89.5197 177.577 89.5197 178.226 89.3573C178.876 89.3573 179.526 89.1948 180.176 89.1948C181.151 89.0323 181.801 88.8699 182.451 88.3825C182.938 88.0575 183.425 87.5701 183.588 86.9203C183.75 86.4329 183.913 85.783 183.75 84.9706C183.75 84.3208 183.425 83.6709 183.101 83.1835C182.776 82.6961 182.288 82.2087 181.638 82.0462C180.988 81.7213 180.176 81.7213 179.364 81.7213C178.714 81.7213 178.064 81.8838 177.414 81.8838C176.764 81.8838 176.114 82.0462 175.465 82.0462C174.002 82.2087 173.028 82.6961 172.54 83.346C172.053 83.9958 172.053 85.1331 172.053 86.2704Z" fill="#191919"/>
<path d="M169.454 101.215C169.454 100.89 169.616 100.727 169.779 100.565C169.941 100.402 170.104 100.402 170.266 100.24L186.35 96.8281C186.513 96.8281 186.513 96.8281 186.513 96.8281C186.675 96.8281 186.838 96.8281 186.838 96.9906C187 97.1531 187 97.1531 187 97.3155L186.675 99.4276C186.675 99.5901 186.513 99.7525 186.513 99.915C186.513 100.077 186.188 100.077 186.188 100.077L173.191 102.677L185.213 108.201C185.376 108.201 185.376 108.363 185.538 108.526C185.701 108.688 185.701 108.851 185.701 109.013L185.376 111.125C185.376 111.288 185.376 111.288 185.213 111.45C185.051 111.613 185.051 111.613 184.888 111.613H184.726L169.779 104.627C169.616 104.464 169.454 104.464 169.291 104.302C169.129 104.139 169.129 103.977 169.129 103.652L169.454 101.215Z" fill="#191919"/>
<path d="M168.479 110.319C168.479 110.157 168.641 110.157 168.804 109.994C168.966 109.994 169.129 109.832 169.129 109.994C169.129 109.994 169.291 109.994 169.291 110.157L182.451 120.717C182.613 120.879 182.776 120.879 182.776 121.042C182.776 121.204 182.776 121.367 182.776 121.692L181.964 124.291C181.964 124.454 181.801 124.616 181.639 124.779C181.476 124.941 181.314 124.941 181.151 124.941L164.417 125.591C164.255 125.591 164.255 125.591 164.255 125.591C164.092 125.591 164.092 125.428 163.93 125.266C163.767 125.104 163.93 124.941 163.93 124.941L164.58 122.991C164.58 122.829 164.742 122.667 164.904 122.504C165.067 122.342 165.229 122.342 165.229 122.342L168.479 122.179L170.753 115.356L168.316 113.406C168.154 113.406 168.154 113.243 168.154 113.081C168.154 112.918 168.154 112.756 168.154 112.594L168.479 110.319ZM172.865 116.98L171.078 122.179L179.039 121.854L172.865 116.98Z" fill="#191919"/>
<path d="M161.005 129.481C161.005 129.319 161.167 129.319 161.33 129.156C161.492 129.156 161.655 129.156 161.817 129.156L173.677 135.655L175.789 131.756C175.789 131.593 175.952 131.593 176.114 131.431C176.277 131.431 176.439 131.431 176.602 131.431L178.226 132.243C178.389 132.406 178.551 132.406 178.551 132.568C178.551 132.731 178.551 132.893 178.551 133.055L172.54 143.941C172.378 144.103 172.378 144.266 172.215 144.266C172.053 144.266 171.89 144.266 171.728 144.266L170.103 143.453C169.941 143.453 169.941 143.291 169.778 143.128C169.616 142.966 169.778 142.804 169.778 142.641L171.89 138.742L160.03 132.243C159.868 132.243 159.868 132.081 159.705 131.918C159.705 131.756 159.705 131.593 159.705 131.431L161.005 129.481Z" fill="#191919"/>
<path d="M154.994 138.912C155.156 138.75 155.156 138.75 155.319 138.75C155.481 138.75 155.644 138.75 155.806 138.912L168.479 148.498C168.641 148.661 168.641 148.661 168.641 148.823C168.641 148.985 168.641 149.148 168.479 149.31L167.016 151.098C166.854 151.26 166.854 151.26 166.691 151.26C166.529 151.26 166.367 151.26 166.204 151.098L153.532 141.512C153.369 141.349 153.369 141.349 153.369 141.187C153.369 141.025 153.369 140.862 153.532 140.7L154.994 138.912Z" fill="#191919"/>
<path d="M145.896 148.817C146.871 147.842 148.008 147.192 149.145 146.705C150.282 146.38 151.257 146.38 152.395 146.705C153.532 147.03 154.669 147.679 155.644 148.817C156.131 149.304 156.619 149.792 157.106 150.279C157.593 150.766 158.081 151.254 158.568 151.741C159.543 152.878 160.193 154.016 160.355 155.153C160.518 156.29 160.518 157.427 160.031 158.402C159.543 159.377 158.893 160.514 157.918 161.489C156.944 162.464 155.806 163.114 154.669 163.439C153.532 163.764 152.395 163.764 151.257 163.601C150.12 163.276 148.983 162.626 148.008 161.652C147.521 161.164 147.033 160.677 146.546 160.189C146.058 159.702 145.571 159.215 145.084 158.727C144.109 157.59 143.459 156.453 143.134 155.315C142.809 154.178 142.971 153.041 143.459 152.066C144.109 150.766 144.921 149.792 145.896 148.817ZM147.845 150.929C147.033 151.579 146.708 152.553 146.546 153.366C146.546 154.341 146.871 155.315 147.845 156.29C148.333 156.778 148.82 157.265 149.145 157.752C149.47 158.24 149.958 158.727 150.607 159.215C151.257 159.864 151.907 160.352 152.557 160.514C153.207 160.677 153.857 160.677 154.344 160.514C154.994 160.352 155.481 160.027 155.969 159.54C156.456 159.052 156.781 158.565 156.944 157.915C157.106 157.427 157.106 156.778 156.944 156.128C156.781 155.478 156.294 154.828 155.806 154.016C155.319 153.528 154.832 153.041 154.507 152.553C154.182 152.066 153.694 151.579 153.044 151.091C152.07 150.116 151.095 149.629 150.12 149.629C149.47 149.792 148.495 150.116 147.845 150.929Z" fill="#191919"/>
<path d="M137.772 156.13C137.935 155.967 138.097 155.967 138.26 156.13C138.422 156.292 138.585 156.292 138.585 156.455L146.708 170.102C146.871 170.264 146.871 170.427 146.708 170.589C146.546 170.752 146.546 170.914 146.383 170.914L144.759 171.889C144.596 172.051 144.434 172.051 144.271 172.051C144.109 172.051 143.946 172.051 143.946 171.889L132.411 166.04L137.935 175.301C138.097 175.463 138.097 175.626 138.097 175.788C138.097 175.951 137.935 176.113 137.772 176.113L135.985 177.088C135.823 177.25 135.66 177.25 135.498 177.088C135.335 177.088 135.173 176.926 135.173 176.763L127.05 163.116C126.887 162.953 126.887 162.791 127.05 162.628C127.212 162.466 127.212 162.303 127.375 162.303L128.999 161.329C129.162 161.166 129.324 161.166 129.487 161.166C129.649 161.166 129.649 161.166 129.812 161.166L141.347 166.69L135.985 157.754C135.823 157.592 135.823 157.429 135.985 157.267C135.985 157.104 136.148 156.942 136.31 156.942L137.772 156.13Z" fill="#191919"/>
<path d="M116.977 166.359C117.139 166.359 117.302 166.359 117.464 166.359C117.627 166.359 117.627 166.522 117.789 166.684L121.688 182.119C121.688 182.281 121.688 182.444 121.688 182.606C121.688 182.769 121.526 182.769 121.363 182.931L111.128 185.531C110.966 185.531 110.803 185.531 110.641 185.531C110.478 185.531 110.478 185.368 110.316 185.206L109.828 183.581C109.828 183.418 109.828 183.256 109.828 183.094C109.991 182.931 109.991 182.931 110.153 182.769L117.789 180.819L116.652 176.27L109.503 178.057C109.341 178.057 109.178 178.057 109.016 178.057C108.853 177.895 108.853 177.895 108.691 177.732L108.204 176.107C108.204 175.945 108.204 175.782 108.204 175.62C108.366 175.458 108.366 175.458 108.529 175.295L115.677 173.508L114.215 167.659C114.215 167.497 114.215 167.334 114.215 167.172C114.377 167.009 114.377 167.009 114.54 166.847L116.977 166.359Z" fill="#191919"/>
<path d="M96.8305 169.617C98.2927 169.617 99.5924 169.78 100.567 170.105C101.704 170.592 102.517 171.242 103.167 172.217C103.817 173.191 104.141 174.491 104.304 175.953C104.304 176.603 104.466 177.416 104.466 178.065C104.466 178.715 104.466 179.365 104.466 180.178C104.466 181.64 104.141 182.94 103.654 183.914C103.167 184.889 102.354 185.701 101.217 186.189C100.08 186.676 98.9425 187.001 97.6428 187.164C96.1806 187.164 95.0433 187.001 93.9061 186.514C92.7688 186.026 91.9564 185.377 91.3066 184.402C90.6567 183.427 90.3318 182.29 90.1693 180.665C90.1693 180.015 90.0068 179.203 90.0068 178.553C90.0068 177.903 90.0068 177.253 90.0068 176.441C90.0068 174.979 90.3318 173.679 90.8192 172.704C91.3066 171.729 92.1189 170.917 93.0937 170.43C94.0685 169.942 95.3683 169.617 96.8305 169.617ZM96.8305 172.379C95.8557 172.379 94.8809 172.704 94.231 173.354C93.5811 174.004 93.2562 174.979 93.2562 176.441C93.2562 177.091 93.2562 177.741 93.2562 178.39C93.2562 179.04 93.2562 179.69 93.4186 180.34C93.4186 181.315 93.7436 181.965 94.0685 182.615C94.3935 183.264 94.8809 183.589 95.3683 183.914C95.8557 184.239 96.5055 184.239 97.1554 184.239C97.8053 184.239 98.4551 184.077 98.9425 183.752C99.4299 183.427 99.9173 182.94 100.242 182.452C100.567 181.965 100.73 181.152 100.73 180.178C100.73 179.528 100.73 178.878 100.73 178.228C100.73 177.578 100.73 176.928 100.567 176.278C100.405 174.816 100.08 173.841 99.4299 173.191C98.7801 172.542 97.9677 172.379 96.8305 172.379Z" fill="#191919"/>
<path d="M85.9456 169.782C86.108 169.782 86.2705 169.945 86.2705 169.945C86.433 170.107 86.433 170.27 86.433 170.432L83.671 186.029C83.671 186.192 83.5086 186.354 83.3461 186.354C83.1836 186.354 83.0212 186.517 82.8587 186.517L76.6849 185.379C74.7353 185.054 73.2731 184.404 72.2983 183.267C71.3235 182.13 70.9986 180.83 71.3235 179.043C71.486 177.906 71.9734 176.931 72.7857 176.281C73.4356 175.631 74.4104 175.144 75.3852 174.981L72.9482 168.32C72.9482 168.158 72.9482 168.158 72.9482 167.995C72.9482 167.833 73.1107 167.67 73.1107 167.67C73.2731 167.67 73.4356 167.508 73.4356 167.508L75.5477 167.833C75.8726 167.833 76.0351 167.995 76.1975 168.158C76.36 168.32 76.36 168.483 76.5225 168.645L78.6345 174.819L82.0464 175.469L83.0212 169.782C83.0212 169.62 83.1836 169.457 83.1836 169.457C83.1836 169.457 83.5086 169.295 83.671 169.295L85.9456 169.782ZM81.559 178.393L78.1471 177.743C77.1723 177.581 76.36 177.743 75.8726 178.068C75.3852 178.393 74.8978 179.043 74.8978 179.855C74.7353 180.668 74.8978 181.318 75.2227 181.805C75.5477 182.292 76.36 182.78 77.3348 182.942L80.7466 183.592L81.559 178.393Z" fill="#191919"/>
<path d="M60.763 162.633C60.9255 162.633 61.088 162.795 61.088 162.958C61.088 163.12 61.088 163.283 61.088 163.445L58.651 168.319L59.3008 180.017C59.3008 180.017 59.3008 180.017 59.3008 180.179V180.342C59.3008 180.504 59.1384 180.504 58.9759 180.667C58.8134 180.667 58.651 180.667 58.651 180.667L56.7014 179.692C56.5389 179.529 56.3764 179.529 56.3764 179.367C56.3764 179.204 56.2139 179.042 56.2139 179.042L55.5641 170.918L48.7404 175.468C48.578 175.468 48.578 175.63 48.4155 175.63C48.253 175.63 48.0906 175.63 47.9281 175.63L45.9785 174.655C45.816 174.655 45.816 174.493 45.6536 174.33C45.6536 174.168 45.6536 174.005 45.6536 174.005V173.843C45.6536 173.843 45.6536 173.843 45.816 173.68L55.5641 167.019L58.0011 162.145C58.0011 161.983 58.1636 161.82 58.326 161.82C58.4885 161.82 58.651 161.82 58.8134 161.82L60.763 162.633Z" fill="#191919"/>
<path d="M46.6283 153.531C47.7656 154.343 48.5779 155.318 49.0653 156.455C49.5527 157.43 49.7152 158.567 49.5527 159.705C49.3903 160.842 48.9029 161.979 47.9281 163.279C47.4407 163.766 47.1157 164.416 46.6283 164.904C46.1409 165.391 45.816 166.041 45.3286 166.528C44.3538 167.665 43.379 168.478 42.2417 168.803C41.1044 169.29 39.9672 169.29 38.9923 168.965C37.8551 168.64 36.7178 168.153 35.5805 167.341C34.4433 166.528 33.6309 165.553 33.1435 164.416C32.6561 163.441 32.4937 162.304 32.4937 161.167C32.6561 160.03 33.1435 158.892 33.9559 157.593C34.4433 156.943 34.7682 156.455 35.2556 155.968C35.743 155.48 36.0679 154.831 36.5553 154.343C37.5301 153.206 38.5049 152.394 39.6422 152.069C40.7795 151.581 41.7543 151.581 42.8916 151.906C44.3538 151.906 45.491 152.556 46.6283 153.531ZM44.8412 155.643C44.0288 154.993 43.2165 154.668 42.2417 154.831C41.2669 154.831 40.4546 155.48 39.4798 156.618C38.9923 157.105 38.6674 157.593 38.18 158.08C37.8551 158.567 37.3677 159.055 37.0427 159.705C36.5553 160.517 36.2304 161.167 36.0679 161.817C35.9055 162.467 36.0679 163.116 36.2304 163.604C36.5553 164.091 36.8803 164.579 37.3677 165.066C37.8551 165.553 38.5049 165.716 38.9923 165.878C39.6422 166.041 40.1296 165.878 40.7795 165.716C41.4294 165.391 42.0792 164.904 42.5666 164.254C43.054 163.766 43.379 163.279 43.8664 162.791C44.1913 162.304 44.6787 161.817 45.0036 161.167C45.816 160.03 46.1409 159.055 45.9784 158.08C46.1409 157.105 45.6535 156.293 44.8412 155.643Z" fill="#191919"/>
<path d="M34.4428 141.51C35.2552 142.648 35.905 143.785 36.23 144.76C36.5549 145.735 36.3924 147.034 36.0675 148.009C35.5801 149.146 34.7678 150.121 33.6305 151.096L25.9945 157.432C25.6696 157.595 25.5071 157.595 25.3447 157.595C25.1822 157.595 25.0197 157.432 25.0197 157.432L23.5575 155.645C23.3951 155.483 23.3951 155.32 23.3951 155.158C23.3951 154.995 23.5575 154.833 23.5575 154.833L31.1935 148.496C32.1683 147.684 32.8182 146.709 32.8182 145.897C32.8182 145.085 32.6557 144.11 31.8434 143.298C31.1935 142.485 30.3812 141.998 29.4063 141.835C28.594 141.835 27.6192 142.16 26.4819 142.973L18.846 149.309C19.1709 149.471 19.0084 149.471 18.846 149.471C18.6835 149.471 18.521 149.309 18.3586 149.309L16.8964 147.684C16.7339 147.522 16.7339 147.359 16.7339 147.197C16.7339 147.034 16.8964 146.872 16.8964 146.872L24.5323 140.536C25.6696 139.561 26.9693 138.911 28.1066 138.748C29.2439 138.586 30.3811 138.748 31.356 139.236C32.4932 139.561 33.468 140.373 34.4428 141.51Z" fill="#191919"/>
<path d="M27.7818 132.732C27.7818 132.895 27.9442 133.057 27.7818 133.22C27.7818 133.382 27.6193 133.544 27.4568 133.544L13.3222 140.693C13.1597 140.693 12.9972 140.855 12.8348 140.693C12.6723 140.693 12.5098 140.531 12.5098 140.368L9.74789 134.682C8.93555 132.895 8.61062 131.27 8.93555 129.97C9.26049 128.508 10.2353 127.371 11.6975 126.721C12.8348 126.233 13.8096 126.071 14.7844 126.233C15.7592 126.396 16.5715 126.883 17.3839 127.533L21.2831 121.522C21.2831 121.359 21.4455 121.359 21.4455 121.359C21.608 121.359 21.7705 121.359 21.7705 121.359C21.7705 121.359 21.9329 121.522 22.0954 121.684L23.0702 123.634C23.2327 123.959 23.2327 124.121 23.2327 124.284C23.2327 124.446 23.0702 124.609 23.0702 124.771L19.3335 130.133L20.7957 133.22L25.9946 130.62C26.1571 130.62 26.3196 130.458 26.482 130.62C26.6445 130.62 26.807 130.782 26.807 130.945L27.7818 132.732ZM18.1962 134.357L16.734 131.27C16.2466 130.458 15.7592 129.808 15.1093 129.645C14.4594 129.483 13.8096 129.483 13.1597 129.808C12.5098 130.133 12.0224 130.62 11.6975 131.27C11.535 131.92 11.6975 132.732 12.0224 133.544L13.4846 136.631L18.1962 134.357Z" fill="#191919"/>
<path d="M18.5216 106.747C18.8466 108.209 18.8466 109.509 18.5216 110.646C18.1967 111.783 17.8717 112.596 17.2219 113.246C16.572 113.895 15.9221 114.22 15.1098 114.383C14.9473 114.383 14.7849 114.383 14.7849 114.22C14.6224 114.22 14.6224 114.058 14.6224 113.895L14.2975 111.783C14.2975 111.621 14.2975 111.458 14.2975 111.296C14.2975 111.134 14.4599 111.134 14.6224 110.971C14.9473 110.809 15.1098 110.646 15.4347 110.321C15.7597 109.996 15.9221 109.509 15.9221 109.021C15.9221 108.534 16.0846 107.884 15.9221 107.234C15.7597 106.097 15.4347 105.285 14.9473 104.797C14.2975 104.147 13.6476 103.985 12.9977 104.147C12.5103 104.147 12.1854 104.472 12.0229 104.797C11.8605 105.122 11.698 105.61 11.5355 106.26C11.3731 106.909 11.3731 107.884 11.2106 108.859C11.2106 110.159 10.8857 111.134 10.7232 112.108C10.3982 112.921 10.0733 113.733 9.42344 114.22C8.77357 114.708 8.1237 115.033 7.1489 115.195C6.1741 115.358 5.36176 115.195 4.54942 114.87C3.73708 114.545 3.08721 113.895 2.43735 113.083C1.78748 112.271 1.46254 111.134 1.30007 109.834C1.13761 108.859 1.13761 107.884 1.30007 107.072C1.46254 106.26 1.62501 105.447 2.11241 104.96C2.43734 104.31 2.92475 103.822 3.41215 103.498C3.89955 103.173 4.38695 102.848 4.87436 102.848C5.03682 102.848 5.19929 102.848 5.19929 102.848C5.36176 102.848 5.36176 103.01 5.36176 103.173L5.68669 105.447C5.68669 105.61 5.68669 105.772 5.68669 105.772C5.68669 105.935 5.52423 106.097 5.36176 106.097C4.87436 106.26 4.54942 106.584 4.22449 107.234C3.89955 107.884 3.89955 108.534 4.06202 109.346C4.22449 110.159 4.54942 110.809 4.87436 111.296C5.19929 111.783 5.84916 111.946 6.49903 111.783C6.98643 111.783 7.31137 111.458 7.47383 111.134C7.6363 110.809 7.96124 110.484 8.1237 109.834C8.28617 109.184 8.28617 108.372 8.44864 107.397C8.44864 105.935 8.61111 104.797 8.93604 103.822C9.26098 102.848 9.58591 102.198 10.0733 101.71C10.5607 101.223 11.3731 100.898 12.3479 100.736C13.4851 100.573 14.2975 100.736 15.2723 101.061C16.0846 101.548 16.8969 102.198 17.3843 103.173C17.8717 104.147 18.3591 105.285 18.5216 106.747Z" fill="#191919"/>
<path d="M17.0591 96.5084C17.0591 96.6709 17.0591 96.8333 16.8966 96.9958C16.7341 97.1583 16.5717 97.1583 16.4092 97.1583L0.487402 96.6709C0.324935 96.6709 0.162467 96.6709 0 96.5084C0 96.1835 0 96.021 0 95.8585V93.7465C0 93.584 0 93.4215 0.162467 93.2591C0.324935 93.0966 0.487402 93.0966 0.64987 93.0966L6.33623 93.2591L0.64987 87.7352C0.64987 87.7352 0.487402 87.5727 0.324935 87.4102C0.162467 87.2478 0.162467 87.0853 0.162467 86.7604V84.3233C0.162467 84.1609 0.162467 83.9984 0.324935 83.9984C0.487402 83.9984 0.487402 83.8359 0.64987 83.8359C0.812337 83.8359 0.812337 83.8359 0.974805 83.9984L8.12337 90.9845L16.4092 83.9984C16.5717 83.9984 16.5717 83.8359 16.7341 83.8359C16.8966 83.8359 17.0591 83.8359 17.0591 83.9984C17.2215 84.1609 17.2215 84.1609 17.2215 84.3233V86.7604C17.2215 87.0853 17.2215 87.2478 17.0591 87.4102C16.8966 87.5727 16.8966 87.7352 16.7341 87.7352L10.073 93.4215L16.4092 93.584C16.5717 93.584 16.7341 93.584 16.8966 93.7465C17.0591 93.9089 17.0591 94.0714 17.0591 94.2339V96.5084Z" fill="#191919"/>
<path d="M18.1961 80.9098C18.1961 81.0722 18.0336 81.2347 18.0336 81.2347C18.0336 81.2347 17.7087 81.3972 17.5462 81.3972L1.94932 78.4728C1.78685 78.4728 1.62438 78.3103 1.62438 78.3103C1.46191 78.1478 1.46191 77.9854 1.46191 77.8229L1.94932 75.5483C1.94932 75.3859 2.11178 75.2234 2.27425 75.2234C2.43672 75.0609 2.59919 75.0609 2.76165 75.2234L18.3585 78.1478C18.521 78.1478 18.6835 78.3103 18.6835 78.3103C18.8459 78.4728 18.8459 78.6352 18.8459 78.7977L18.1961 80.9098Z" fill="#191919"/>
<path d="M19.4964 73.598C19.4964 73.7604 19.3339 73.9229 19.1715 73.9229C19.009 73.9229 18.8465 73.9229 18.684 73.9229L3.73704 68.5615C3.57458 68.5615 3.41211 68.399 3.41211 68.2366C3.41211 68.0741 3.41211 67.9116 3.41211 67.7492L4.06198 65.962C4.06198 65.7995 4.22445 65.6371 4.38691 65.4746C4.54938 65.4746 4.54938 65.3121 4.71185 65.3121L17.3843 62.3877L7.31133 58.8134C7.14886 58.8134 6.98639 58.651 6.98639 58.4885C6.98639 58.326 6.98639 58.1636 6.98639 58.0011L7.63626 56.0515C7.63626 55.889 7.79873 55.7266 7.9612 55.7266C8.12366 55.7266 8.28613 55.7266 8.4486 55.7266L23.3956 61.088C23.5581 61.088 23.7205 61.2505 23.7205 61.4129C23.7205 61.5754 23.7205 61.7379 23.7205 61.9003L23.0707 63.6875C23.0707 63.8499 22.9082 64.0124 22.7457 64.0124C22.5833 64.0124 22.5833 64.1749 22.4208 64.1749L10.0733 67.0993L19.9838 70.6736C20.1463 70.6736 20.3087 70.836 20.3087 70.9985C20.3087 71.161 20.3087 71.3234 20.3087 71.4859L19.4964 73.598Z" fill="#191919"/>
<path d="M71 93.465C72.3148 93.2028 73.6471 92.9406 74.9618 92.6434C77.9945 91.979 80.9747 91.2273 83.7795 89.8287C86.9349 88.2552 89.0561 85.7727 90.4059 82.5559C91.8083 79.1818 92.5446 75.6154 93.2458 72.0664C93.2984 71.7692 93.3685 71.472 93.4211 71.1748C93.4211 71.1399 93.4737 71.1049 93.5614 71C93.7892 72.1364 93.9996 73.2203 94.2275 74.3042C94.8235 77.1189 95.5072 79.9336 96.6291 82.6084C98.1543 86.2622 100.714 88.8496 104.377 90.3706C107.796 91.8042 111.407 92.521 115.018 93.2378C115.351 93.3077 115.684 93.3776 116 93.5524C114.563 93.8497 113.108 94.1294 111.67 94.4615C108.76 95.1084 105.903 95.8601 103.22 97.2063C100.1 98.7622 97.9965 101.21 96.6642 104.374C95.2092 107.836 94.4729 111.507 93.7542 115.161C93.7016 115.441 93.649 115.703 93.4737 116C93.3159 115.248 93.1757 114.479 93.0179 113.727C92.3693 110.598 91.6681 107.503 90.4585 104.531C88.9159 100.773 86.2688 98.1154 82.4998 96.5769C79.0639 95.1783 75.4702 94.4441 71.859 93.7448C71.5785 93.6923 71.298 93.6399 71.0351 93.5874C71 93.5525 71 93.5 71 93.465Z" fill="#4E118C"/>
</svg>
