<svg width="209" height="34" viewBox="0 0 209 34" fill="none" xmlns="http://www.w3.org/2000/svg">
<path fill-rule="evenodd" clip-rule="evenodd" d="M113.819 14.4105H106.492C106.382 13.1418 105.958 12.156 105.216 11.4521C104.474 10.7493 103.503 10.3985 102.305 10.3985C100.93 10.3985 99.8623 11.005 99.0989 12.2178C98.3355 13.4307 97.9538 15.2037 97.9538 17.5391C97.9538 19.5807 98.2154 21.0992 98.7386 22.0957C99.4366 23.4096 100.679 24.0672 102.469 24.0672C103.669 24.0672 104.612 23.7212 105.298 23.0315C105.985 22.3395 106.406 21.3917 106.557 20.1908H113.984C113.636 23.3419 112.463 25.795 110.468 27.5525C108.47 29.3088 105.892 30.1887 102.73 30.1887C98.848 30.1887 95.7944 29.0317 93.5707 26.7189C91.3459 24.4085 90.2341 21.2562 90.2341 17.2668C90.2341 13.3903 91.3519 10.2796 93.5874 7.93351C95.8229 5.58741 98.6197 4.41496 101.979 4.41496C105.534 4.41496 108.32 5.28181 110.337 7.01671C112.353 8.74923 113.514 11.2142 113.819 14.4105ZM123.739 29.5406H116.19V5.05945H123.739V13.6626H130.872V5.05945H138.42V29.5406H130.872V20.3953H123.739V29.5406ZM151.885 4.41376C155.803 4.41376 158.871 5.72772 161.089 8.35801C163.091 10.7148 164.092 13.6507 164.092 17.1645C164.092 21.2015 162.919 24.4085 160.573 26.7867C158.334 29.0531 155.438 30.1887 151.884 30.1887C148.183 30.1887 145.244 29.0531 143.068 26.7867C140.829 24.4525 139.71 21.2217 139.71 17.0979C139.71 13.2666 140.829 10.1952 143.068 7.88237C145.307 5.56957 148.249 4.41376 151.885 4.41376ZM151.821 10.3985C150.252 10.3985 149.076 11.1358 148.303 12.6079C147.657 13.8314 147.335 15.3511 147.335 17.1645C147.335 19.0694 147.634 20.6319 148.238 21.8579C149.014 23.4203 150.229 24.204 151.887 24.204C153.308 24.204 154.428 23.5511 155.245 22.2479C156.064 20.9446 156.473 19.2502 156.473 17.1645C156.473 15.3059 156.117 13.7649 155.408 12.5401C154.566 11.112 153.372 10.3985 151.821 10.3985ZM173.004 29.5406H165.593V5.05945H184.115V10.7719H173.004V15.2263H181.481V20.9387H173.004V29.5406ZM185.418 18.8649V5.05945H193.442V19.7139C193.442 21.142 193.659 22.1968 194.088 22.8769C194.657 23.7592 195.698 24.2028 197.216 24.2028C198.6 24.2028 199.585 23.7937 200.175 22.9792C200.697 22.2527 200.957 21.1658 200.957 19.7139V5.05945H208.981V18.8994C208.981 22.7984 208.041 25.6535 206.16 27.4668C204.278 29.2802 201.296 30.1887 197.216 30.1887C193.273 30.1887 190.36 29.3599 188.479 27.7059C186.437 25.8925 185.418 22.9447 185.418 18.8649ZM55.2413 2.6218C47.3671 1.78229 39.2384 1.65267 30.118 4.34599C15.8024 8.57443 12.0508 16.1977 23.3853 21.7508C29.2381 24.619 36.4951 25.1184 42.4335 25.2813C42.5155 25.8021 42.16 26.3217 41.3669 26.8414C31.5413 29.3516 21.6159 28.9176 11.8915 25.034C-0.38243 20.136 -5.14715 13.5639 7.2944 6.97271C14.1293 3.3519 22.132 1.68835 31.1858 0.650271C39.5535 -0.308144 47.7714 -0.279613 55.8989 1.2246L55.2413 2.6218Z" fill="#EF4B4B"/>
<path fill-rule="evenodd" clip-rule="evenodd" d="M54.5841 3.93516L54.1726 4.92093C44.0891 4.76991 38.4409 9.97104 45.8811 13.1305C50.2581 14.989 54.0442 15.6645 56.7185 17.7287C61.0563 21.0772 60.878 24.6802 56.2262 28.4841C43.0522 35.5236 27.6985 33.2941 11.8906 29.1417L12.0547 28.238C24.8637 31.2868 37.7191 33.1086 48.3449 26.4306C51.8028 24.2593 50.9264 20.2175 46.2925 18.5504L40.1341 16.3327C32.1279 13.4503 32.0744 9.01976 39.3137 5.57732C44.1925 3.25738 49.4186 3.04572 54.5841 3.93516ZM60.5771 2.04688C62.1598 2.04688 63.4512 3.33824 63.4512 4.92093C63.4512 6.50362 62.161 7.79498 60.5771 7.79498C58.9933 7.79498 57.7031 6.50481 57.7031 4.92093C57.7031 3.33705 58.9944 2.04688 60.5771 2.04688Z" fill="#EF4B4B"/>
<path fill-rule="evenodd" clip-rule="evenodd" d="M61.645 3.03125C62.368 3.03125 62.959 3.62223 62.959 4.3452C62.959 5.06817 62.368 5.65797 61.645 5.65797C60.922 5.65797 60.3311 5.06817 60.3311 4.3452C60.3311 3.62223 60.9208 3.03125 61.645 3.03125Z" fill="#EF4B4B"/>
<path fill-rule="evenodd" clip-rule="evenodd" d="M70.1018 3.60938C71.1028 3.61126 72.0623 4.00975 72.7701 4.71759C73.478 5.42543 73.8765 6.38492 73.8784 7.38595C73.8784 9.46569 72.1827 11.1625 70.1018 11.1625C68.0209 11.1625 66.3252 9.46569 66.3252 7.38595C66.3271 6.38492 66.7256 5.42543 67.4334 4.71759C68.1413 4.00975 69.1007 3.61126 70.1018 3.60938Z" fill="#EF4B4B"/>
<path fill-rule="evenodd" clip-rule="evenodd" d="M71.5048 4.90625C72.4561 4.90625 73.2313 5.68155 73.2313 6.63283C73.2313 7.58411 72.4561 8.3594 71.5048 8.3594C70.5535 8.3594 69.7782 7.58411 69.7782 6.63283C69.7782 5.68155 70.5535 4.90625 71.5048 4.90625Z" fill="#EF4B4B"/>
<path fill-rule="evenodd" clip-rule="evenodd" d="M82.4581 0.242188C83.7529 0.244388 84.9941 0.75974 85.9097 1.67535C86.8253 2.59095 87.3407 3.83215 87.3429 5.12701C87.3429 7.81795 85.1478 10.0118 82.4581 10.0118C79.7683 10.0118 77.5732 7.81795 77.5732 5.12701C77.5754 3.83215 78.0908 2.59095 79.0064 1.67535C79.922 0.75974 81.1632 0.244388 82.4581 0.242188Z" fill="#EF4B4B"/>
<path fill-rule="evenodd" clip-rule="evenodd" d="M84.2722 1.91406C85.5017 1.91406 86.5053 2.91766 86.5053 4.14719C86.5044 4.73916 86.2688 5.30662 85.8502 5.72521C85.4316 6.1438 84.8642 6.37938 84.2722 6.38033C83.6802 6.37938 83.1128 6.1438 82.6942 5.72521C82.2756 5.30662 82.04 4.73916 82.0391 4.14719C82.0391 2.91766 83.0415 1.91406 84.2722 1.91406Z" fill="#EF4B4B"/>
</svg>
