<svg width="179" height="45" viewBox="0 0 179 45" fill="none" xmlns="http://www.w3.org/2000/svg">
<g clip-path="url(#clip0_1468_4989)">
<path d="M66.6124 44.0044C62.8246 43.5705 59.7629 42.1852 57.3031 39.7933C54.2614 36.8371 52.6468 32.8513 52.6468 28.297C52.6468 19.1426 59.3055 12.4311 68.3714 12.4457C70.7617 12.4499 73.1457 13.0017 75.2504 14.0407C76.2537 14.5361 77.5374 15.3821 78.2161 15.9955C78.4733 16.2281 78.7083 16.4179 78.7378 16.4179C78.7673 16.4179 78.7926 15.6429 78.7926 14.6968V12.9735H82.7185V43.6205H78.7926V40.0729L78.4343 40.367C75.8016 42.5263 73.405 43.5778 70.2284 43.9689C69.5328 44.0545 67.2427 44.0774 66.6124 44.0044ZM70.2326 39.9477C74.9785 39.1591 78.2688 35.8409 79.2068 30.8965C79.425 29.7501 79.4303 26.8659 79.2174 25.7362C78.9686 24.4187 78.6356 23.4079 78.0823 22.2918C76.4487 18.9976 73.5704 17.001 69.7352 16.5003C68.4072 16.3261 66.468 16.4378 65.1991 16.7601C61.4987 17.6999 58.6447 20.3536 57.3526 24.0578C56.8161 25.5964 56.7076 26.3099 56.7076 28.297C56.7076 29.8252 56.736 30.1872 56.9152 30.9831C57.9902 35.7366 61.4366 39.1278 66.0254 39.9508C66.9781 40.1209 69.1977 40.1198 70.2326 39.9477ZM32.3703 43.8813C29.746 43.6091 27.322 42.7652 25.2489 41.4039C24.0896 40.6424 22.2769 38.8378 21.4864 37.6591C19.5556 34.778 18.6292 31.3211 18.7652 27.5022C18.8895 24.0307 19.8655 21.0661 21.7604 18.4061C22.0366 18.017 22.7459 17.2201 23.3339 16.6339C25.4365 14.5434 27.9681 13.2197 31.0192 12.6157C32.2481 12.3727 34.9977 12.2809 36.2762 12.4395C42.1655 13.1738 46.5772 17.0772 48.0928 22.8968C48.4617 24.3144 48.6282 25.5213 48.6925 27.2591L48.7483 28.7821H22.7269L22.7859 29.6875C23.0494 33.7129 25.4091 37.319 28.9324 39.0798C30.5976 39.9122 32.1859 40.2742 34.1831 40.2763C37.6083 40.2805 40.1957 39.2332 42.351 36.9737C42.8896 36.4094 44.1047 34.7936 44.3145 34.3649C44.3408 34.3117 47.7397 36.5137 47.7397 36.5836C47.7397 36.7975 46.3475 38.6313 45.5792 39.4272C42.742 42.3688 39.2261 43.8187 34.6668 43.9262C33.8321 43.947 32.7993 43.9262 32.3703 43.8813ZM44.6612 24.9632C43.9224 20.3589 40.748 17.0209 36.273 16.1436C35.3308 15.959 32.8952 15.9798 31.9456 16.1811C29.6902 16.6599 27.8089 17.6259 26.2459 19.1092C24.5913 20.6801 23.4889 22.6527 22.8987 25.0957L22.8397 25.3387H44.7202L44.6612 24.9632ZM162.716 43.8751C155.879 43.245 150.803 38.6594 149.428 31.8739C148.493 27.256 149.36 22.4409 151.771 18.8818C154.079 15.4708 157.368 13.3616 161.624 12.5584C162.825 12.332 166.398 12.3331 167.534 12.5615C170.374 13.1321 172.722 14.3557 174.677 16.2855C177.496 19.0664 179 23 179 27.5867V28.7821L166.039 28.805L153.079 28.8269L153.102 29.5342C153.197 32.3162 154.525 35.2255 156.61 37.2147C158.227 38.7575 160.188 39.7339 162.477 40.1375C163.494 40.3159 165.678 40.3149 166.702 40.1375C169.873 39.5805 172.17 38.0377 174.134 35.142C174.414 34.7289 174.677 34.4004 174.718 34.4118C174.823 34.439 177.864 36.375 177.994 36.4981C178.131 36.6264 177.294 37.875 176.315 39.0037C173.188 42.6014 168.215 44.3831 162.716 43.8751ZM174.983 25.0957C174.983 24.9622 174.906 24.5314 174.811 24.1381C173.738 19.709 170.578 16.7601 166.196 16.0956C164.525 15.8421 162.532 16.0163 160.842 16.565C157.186 17.751 154.359 20.75 153.389 24.4698C153.292 24.8422 153.213 25.1896 153.213 25.2417C153.213 25.3106 156.343 25.3387 164.099 25.3387H174.986L174.985 25.0957H174.983ZM0 28.2522V12.8859H18.5607V16.5056L11.2654 16.5285L3.9712 16.5504L3.94801 30.086L3.92588 43.6205H0V28.2522ZM89.5891 22.0696V0.609375H93.6045V43.5319H89.5891V22.0696ZM100.476 28.2073V12.8838H104.402L104.406 14.8939L104.41 16.903L104.741 16.5066C105.832 15.1943 106.957 14.2712 108.23 13.6422C109.748 12.8911 111.083 12.5636 112.968 12.4739C115.144 12.3727 116.913 12.7065 118.635 13.5431C120.462 14.4297 121.776 15.7044 123.014 17.7917C123.099 17.9357 123.151 17.896 123.473 17.4287C125.16 14.9826 127.671 13.3647 130.816 12.6971C132.062 12.4322 134.801 12.405 136.009 12.6449C138.217 13.0862 139.956 13.9739 141.395 15.3967C142.926 16.9113 143.866 18.7358 144.444 21.3091L144.683 22.3783L144.713 32.9556L144.741 43.5308H140.809V34.0906C140.809 28.2042 140.774 24.306 140.716 23.7355C140.349 20.1096 138.453 17.4892 135.49 16.5108C134.327 16.1316 133.095 16.0056 131.878 16.1415C128.055 16.5515 125.585 18.5981 124.722 22.0696C124.538 22.806 124.534 23.0209 124.504 33.1757L124.472 43.5308H120.553V34.271C120.553 28.7362 120.517 24.5627 120.462 23.8971C120.097 19.4451 117.628 16.6234 113.683 16.1488C110.084 15.7149 106.348 17.7949 104.992 20.9889C104.425 22.321 104.458 21.6304 104.425 33.0892L104.396 43.5319H100.475V28.2084L100.476 28.2073Z" fill="#EF4B4B"/>
</g>
<defs>
<clipPath id="clip0_1468_4989">
<rect width="179" height="45" fill="white"/>
</clipPath>
</defs>
</svg>
