<svg width="175" height="45" viewBox="0 0 175 45" fill="none" xmlns="http://www.w3.org/2000/svg">
<g clip-path="url(#clip0_1468_4991)">
<path d="M22.5082 11.5245C21.8242 10.9685 21.0385 10.5522 20.1953 10.2991C19.45 10.0637 18.6749 9.93733 17.8937 9.9238H7.12348C5.80951 9.9238 4.70041 10.1621 3.7962 10.6388C2.94435 11.0734 2.19272 11.6826 1.58985 12.4271C1.0375 13.1144 0.624337 13.9036 0.373642 14.7503C0.138338 15.4993 0.0124795 16.2787 0 17.0641L0 27.8129C0 29.134 0.237263 30.2481 0.711788 31.1551C1.12369 31.9786 1.69898 32.7087 2.40227 33.3006C3.10556 33.8925 3.92198 34.3335 4.8013 34.5967C5.54728 34.8319 6.32303 34.9583 7.1048 34.972H17.8732C19.1884 34.972 20.2975 34.7337 21.2004 34.257C22.0203 33.8433 22.7472 33.2654 23.3364 32.559C23.9257 31.8526 24.3648 31.0325 24.6267 30.1492C24.8611 29.4006 24.9869 28.622 25.0004 27.8373V17.0922C25.0004 15.7711 24.7631 14.6571 24.2886 13.7501C23.857 12.8911 23.2504 12.1328 22.5082 11.5245ZM19.9226 27.7885C19.9226 28.4679 19.747 28.9839 19.3957 29.3367C19.0445 29.6895 18.537 29.8659 17.8732 29.8659H7.14403C6.46649 29.8659 5.95211 29.6895 5.60089 29.3367C5.24967 28.9839 5.07406 28.4741 5.07406 27.8073V17.1016C5.07406 16.4223 5.24967 15.9062 5.60089 15.5535C5.95211 15.2007 6.45964 15.0255 7.12348 15.028H17.8545C18.5308 15.028 19.0445 15.2044 19.3957 15.5572C19.747 15.91 19.9226 16.4217 19.9226 17.0922V27.7885ZM52.4967 11.5245C51.8124 10.9688 51.0268 10.5526 50.1838 10.2991C49.4378 10.0639 48.6621 9.93746 47.8803 9.9238H37.112C35.7967 9.9238 34.687 10.1621 33.7828 10.6388C32.9295 11.0727 32.1765 11.682 31.5727 12.4271C31.0192 13.1142 30.6047 13.9034 30.3528 14.7503C30.1175 15.4993 29.9916 16.2787 29.9791 17.0641V44.9927H35.0551V17.1016C35.0551 16.4223 35.2307 15.9062 35.5819 15.5535C35.9331 15.2007 36.4394 15.0243 37.1045 15.0243H47.8336C48.5099 15.0243 49.0237 15.2007 49.3749 15.5535C49.7261 15.9062 49.9042 16.4192 49.9092 17.0922V27.7885C49.9092 28.4679 49.7336 28.9839 49.3824 29.3367C49.0311 29.6895 48.5249 29.8659 47.8598 29.8659H37.2913V34.9626H47.8598C49.175 34.9626 50.2847 34.7243 51.1889 34.2476C52.0399 33.8141 52.7909 33.2062 53.3934 32.463C53.947 31.7759 54.3614 30.9867 54.6133 30.1399C54.8485 29.3914 54.9744 28.6127 54.987 27.828V17.0922C54.987 15.7711 54.7491 14.6571 54.2733 13.7501C53.8423 12.8917 53.2371 12.1336 52.4967 11.5245ZM112.477 11.5245C111.793 10.9685 111.008 10.5522 110.165 10.2991C109.419 10.0636 108.643 9.93718 107.861 9.9238H97.0927C95.7787 9.9238 94.6696 10.1621 93.7654 10.6388C92.9455 11.0525 92.2186 11.6304 91.6294 12.3368C91.0402 13.0432 90.6011 13.8633 90.3391 14.7465C90.1046 15.4958 89.9788 16.275 89.9655 17.0603V44.9927H95.0395V17.1016C95.0395 16.4223 95.2151 15.9062 95.5664 15.5535C95.9176 15.2007 96.4264 15.0255 97.0927 15.028H107.824C108.5 15.028 109.014 15.2044 109.365 15.5572C109.716 15.91 109.892 16.4217 109.892 17.0922V27.7885C109.892 28.4679 109.716 28.9839 109.365 29.3367C109.014 29.6895 108.506 29.8659 107.842 29.8659H97.272V34.9626H107.842C109.158 34.9626 110.267 34.7243 111.17 34.2476C112.021 33.8141 112.773 33.2062 113.376 32.463C113.93 31.7759 114.344 30.9867 114.596 30.1399C114.83 29.3912 114.956 28.6126 114.97 27.828V17.0922C114.97 15.7711 114.732 14.6571 114.258 13.7501C113.826 12.8911 113.22 12.1328 112.477 11.5245ZM65.0959 0.015625H60.0218V27.8129C60.0218 29.134 60.2591 30.2481 60.7336 31.1551C61.1459 31.979 61.7218 32.7094 62.4257 33.3012C63.1297 33.8931 63.9468 34.334 64.8268 34.5967C65.5728 34.8319 66.3486 34.9583 67.1303 34.972H75.0179V29.8715H67.1714C66.4939 29.8715 65.9795 29.6951 65.6283 29.3423C65.2771 28.9895 65.1015 28.4797 65.1015 27.8129V15.028H75.0198V9.92756H65.0959V0.015625ZM127.169 29.8715C126.493 29.8715 125.979 29.6951 125.628 29.3423C125.276 28.9895 125.101 28.4797 125.101 27.8129V0.015625H120.027V27.8129C120.027 29.134 120.264 30.2481 120.739 31.1551C121.15 31.9786 121.726 32.7087 122.429 33.3006C123.132 33.8925 123.949 34.3335 124.828 34.5967C125.574 34.8322 126.35 34.9586 127.132 34.972H135.206V29.8715H127.169ZM80.0098 9.92756H85.0838V34.9701H80.0098V9.92756ZM80.0098 0.015625H85.0838V4.91529H80.0098V0.015625ZM141.748 32.4687C142.351 33.2118 143.102 33.8197 143.953 34.2533C144.857 34.7299 145.967 34.9682 147.282 34.9682H157.852V29.8715H147.282C146.618 29.8715 146.111 29.6951 145.76 29.3423C145.408 28.9895 145.233 28.4716 145.233 27.7885V9.92756H140.157V27.8336C140.17 28.6182 140.296 29.3968 140.53 30.1455C140.782 30.9922 141.196 31.7814 141.748 32.4687Z" fill="#EF4B4B"/>
<path d="M160.08 9.92188V37.813C160.08 38.4923 159.904 39.0084 159.553 39.3612C159.202 39.714 158.695 39.8904 158.03 39.8904H140.157V44.9871H158.03C159.346 44.9871 160.455 44.7487 161.36 44.2721C162.21 43.8386 162.961 43.2306 163.564 42.4875C164.114 41.8009 164.526 41.0131 164.776 40.1681C165.012 39.4196 165.137 38.6409 165.15 37.8562V9.92188H160.08ZM174.977 34.2382C174.989 34.3318 174.979 34.4268 174.949 34.516C174.918 34.6053 174.868 34.6865 174.802 34.7535C174.736 34.8206 174.656 34.8717 174.568 34.903C174.479 34.9343 174.385 34.9451 174.291 34.9344H170.704C170.61 34.9397 170.516 34.9258 170.427 34.8935C170.339 34.8613 170.258 34.8113 170.189 34.7467C170.126 34.6781 170.079 34.5974 170.049 34.5097C170.019 34.4219 170.006 34.3289 170.013 34.2363V30.6652C170.006 30.5715 170.018 30.4774 170.049 30.3884C170.079 30.2994 170.126 30.2174 170.189 30.1473C170.258 30.085 170.338 30.0372 170.426 30.0069C170.513 29.9766 170.606 29.9644 170.699 29.9709H174.284C174.377 29.9589 174.471 29.9683 174.56 29.9985C174.649 30.0286 174.73 30.0786 174.797 30.1448C174.864 30.211 174.915 30.2916 174.946 30.3804C174.977 30.4693 174.988 30.5641 174.977 30.6577V34.2382Z" fill="#EF4B4B"/>
</g>
<defs>
<clipPath id="clip0_1468_4991">
<rect width="175" height="45" fill="white"/>
</clipPath>
</defs>
</svg>
