<svg width="367" height="34" viewBox="0 0 367 34" fill="none" xmlns="http://www.w3.org/2000/svg">
<path fill-rule="evenodd" clip-rule="evenodd" d="M364.103 25.2518C362.151 19.1834 358.249 17.3503 358.249 17.3503C362.151 16.2222 364.549 12.6958 364.549 9.45094C364.549 4.79638 361.4 0.846676 354.195 0.846676H332.893V33.1513H338.144V19.0458H351.349C355.699 19.0458 357.348 21.8694 359.148 27.2288L360.948 33.1513H366.499C364.103 25.2518 366.501 33.1492 364.103 25.2518ZM352.848 14.9522H338.144V4.9361H352.998C357.198 4.9361 359.298 6.91094 359.298 9.87426C359.3 12.1306 357.947 14.9522 352.848 14.9522ZM278.431 33.1492H283.68V0.844591H278.431V33.1492ZM266.574 28.2131L245.87 0.844591H238.217V33.1492H243.472V5.78276L264.023 33.1492H271.829V0.844591H266.574V28.2131ZM308.286 0C293.884 0 288.483 8.744 288.483 16.927C288.483 25.2518 293.884 33.9979 308.286 33.9979C317.739 33.9979 323.29 30.19 325.99 25.11H319.991C317.436 28.2131 313.086 29.7646 308.286 29.7646C300.184 29.7646 293.732 25.5334 293.732 16.927C293.732 8.46456 300.184 4.23333 308.286 4.23333C315.637 4.23333 321.64 7.75762 322.691 14.9543H299.731L300.334 19.0458H327.94C327.94 18.3409 328.09 17.6319 328.09 16.927C328.092 8.744 322.541 0 308.286 0ZM159.898 14.9522H131.69L132.29 19.0437H154.495C153.594 26.2361 147.593 29.7646 140.242 29.7646C131.99 29.7646 125.688 25.5334 125.688 16.927C125.688 8.46456 131.99 4.23333 140.242 4.23333C145.044 4.23333 149.244 5.64303 151.945 8.74607H157.947C155.248 3.80999 149.695 0.00208423 140.242 0.00208423C125.838 0.00208423 120.437 8.74608 120.437 16.9291C120.437 25.2539 125.838 34 140.242 34C154.495 34 159.896 25.256 159.896 16.9291L159.898 14.9522ZM174.602 0.844591L158.547 33.1492H164.249L170.851 19.0437H184.956L191.857 33.1492H197.408L181.355 0.844591H174.602ZM172.801 14.9522L177.904 4.23123L183.004 14.9522H172.801ZM225.767 17.3503C229.515 16.2222 232.067 12.6958 232.067 9.45094C232.067 4.79638 228.764 0.846676 221.713 0.846676H200.257V33.1513H205.508V19.0458H218.712C223.213 19.0458 224.866 21.8694 226.516 27.2288L228.468 33.1513H234.019L231.464 25.2539C229.513 19.1834 225.767 17.3503 225.767 17.3503ZM220.216 14.9522H205.508V4.9361H220.362C224.716 4.9361 226.818 6.91094 226.818 9.87426C226.818 12.1306 225.465 14.9522 220.216 14.9522ZM97.1598 33.8082C106.304 33.8082 113.762 26.3508 113.762 17.2023C113.762 8.0579 106.302 0.600593 97.1598 0.600593C88.0134 0.600593 80.5561 8.05999 80.5561 17.2023C80.5561 26.3508 88.0134 33.8082 97.1598 33.8082ZM57.1894 33.8082C66.3338 33.8082 73.7911 26.3508 73.7911 17.2023C73.7911 8.0579 66.3338 0.600593 57.1894 0.600593C48.045 0.600593 40.5877 8.05999 40.5877 17.2023C40.5856 26.3508 48.0429 33.8082 57.1894 33.8082ZM16.6038 33.8082C25.7482 33.8082 33.2055 26.3508 33.2055 17.2023C33.2055 8.0579 25.7482 0.600593 16.6038 0.600593C7.4594 0.600593 0 8.05999 0 17.2023C0 26.3508 7.4594 33.8082 16.6038 33.8082Z" fill="#EF4B4B"/>
</svg>
